<?xml version="1.0" encoding="UTF-8"?>
<svg xmlns="http://www.w3.org/2000/svg" version="1.1" viewBox="0 0 1080 1080">
  <defs>
    <style>
      .cls-1 {
        fill: #2b6ea7;
      }

      .cls-2 {
        fill: #f9f9f6;
      }

      .cls-3 {
        fill: #f2f3ef;
      }

      .cls-4 {
        fill: #eeb48e;
      }

      .cls-5 {
        fill: #060606;
      }

      .cls-6 {
        fill: #282828;
      }

      .cls-7 {
        fill: #89a7c1;
      }

      .cls-8 {
        fill: #fdcaa2;
      }

      .cls-9 {
        fill: #e6ac87;
      }

      .cls-10 {
        fill: #292928;
      }

      .cls-11 {
        fill: #fccaa2;
      }

      .cls-12 {
        fill: #d84140;
      }
    </style>
  </defs>
  <!-- Generator: Adobe Illustrator 28.7.1, SVG Export Plug-In . SVG Version: 1.2.0 Build 142)  -->
  <g>
    <g id="Layer_1">
      <path class="cls-11" d="M834.86,380.7c-5.44,6.59-4.98,13.96-4.23,22.01,1.02,10.93.54,22.01,1.57,33.01.38,4.06,1.32,7.56,4.61,10.03,14.04,10.53,23.66,24.46,31.23,40.01.7,7.81,1.07,15.67.23,23.45-1.12,10.32-5.51,19.5-11.47,27.91-2.17,3.07-3.69,6.05-2.53,9.99,4.49,15.19,4.68,30.94,5.16,46.54.39,12.52,1.68,24.85,3.54,37.18.33,9.86,4.99,18.31,9.13,26.82,8.25,16.97,14.27,34.73,19.9,52.67,3.03,9.66,6.49,19.19,9.99,28.7,1.29,3.53,3.83,5.72,7.9,6.51,12.43,2.41,24.13,7.68,36.83,9.26,4.31.54,8.92,3.3,8.78,7.8-.14,4.35-4.62,6.88-9.03,7.65-3.11.54-6.45.97-9.48.38-6.11-1.19-10.52,2.22-15.25,4.76-2.54,1.36-3.03,3.71-2.13,6.59,4.82,15.48,18.09,25.51,34.6,27.12,10.71,1.05,21.32,3.23,31.93,5.11,8.15,1.44,16.33,2.53,24.6,2.33,7.13-.17,13.85,1.32,20.53,3.64,4.93,1.71,9.89,4.04,9.39,9.65-.46,5.21-5.02,9.13-9.85,10.68-5.46,1.74-10.75,3.7-16.04,5.88-5.76,2.37-11.84-.07-17.53-.9-19.53-2.85-39.1-5.5-58.81-4.44-14.97.8-25.94-6.5-33.65-17.11-16.67-22.95-35.72-43.99-52.29-66.96-7.64-10.58-14.84-21.57-19.5-33.97-.94-2.51-2.98-4.6-4.51-6.89-6.43-12.7-10.21-26.42-15.29-39.64-9.12-23.69-16.88-48.08-30.79-69.62-8.62-13.35-11.13-28.26-12.73-43.47-.6-5.65-2.94-9.65-7.72-12.28-5.35-2.94-8.66-7.64-10.66-13.04-4.19-11.31-9.18-22.38-11.27-34.4-2.87-16.49-2.55-32.58,6.21-47.46,4.2-7.13,8.93-13.98,17.02-17.43,19.27-10.63,38.99-10.98,59.18-2.81,5.87,2.38,5.9,2.05,5.8-4.03-.22-13.52-2.33-26.97-1.54-40.52.4-6.86,2.21-9.28,8.16-10.71Z"/>
      <path class="cls-6" d="M491.05,719.02c9.84-4.88,20.8-5.62,31.24-8.26,12.55-3.17,25.22-5.89,37.93-8.35,6.22-1.21,11.61-3.73,16.58-7.43.95,5.54-3.82,6.4-7.07,8.06-6.91,3.51-14.79,3.55-22.18,5.44-15.21,3.9-30.51,7.46-45.89,10.64-5.33,1.1-7.42,3.43-7.35,8.98.15,13.1-.17,12.76,12.89,9.95,30.85-6.64,57.34-21.72,81.69-41.15,5.07-4.04,8.3-9.61,12.21-14.61,3.24-4.15,6.51-8.25,10.46-11.29-.93.13-2.17.08-3.03-1.15,11.44-7.54,23.28-14.03,37.53-14.15,16.1-.73,32.21-.11,48.31-.34,3.35-.05,5.44,1.81,7.45,4.14,21.84,25.38,36.23,53.94,39.14,87.85.77,8.96.08,18.29,4,26.86.64,1.39.31,2.92-.76,4.16-14.55,12.05-31.63,19.58-48.61,27.35-34.61,15.85-71.7,20.05-108.96,23.31-19.87,1.74-39.81,2.64-59.72,3.9-12.08.77-23.95,3.14-35.91,4.85-2.82-1.82-.69-3.56.42-4.73,8.08-8.55,8.73-17.68,2.99-27.77-2.3-4.03-3.14-8.61-3.57-13.33-.78-8.63-2.83-17.05-5.78-25.22-1.24-4.71-3.25-9.13-5.14-13.59-2.52-5.95-1.62-8.54,4.27-10.74,2.79-1.04,4.42-2.52,4.2-5.45-.48-6.2.96-12.08,2.67-17.94Z"/>
      <path class="cls-8" d="M486.55,766.8c1.83,4.26,3.25,8.62,4.04,13.23,1.87,10.97,3.29,21.92,8.43,32.24,3.43,6.89.63,14.05-4.57,19.87-1.49,1.67-3.78,2.88-3.45,5.67-24.55,1.67-49.08,2.73-73.69.71-10.12-.83-20.31-.29-30.49-1.35-31.76-3.31-63.74-3.71-95.53-7.32-16.75-1.9-33.69-3.07-50.56-4.39-17.07-1.34-34.1-3.21-51.14-4.81-1.47-.14-2.97,0-4.46,0-7.03,1.33-13.65-1.13-20.42-2.24-5.32-9.72-6.42-19.42.2-29.08,1.21-1.64,2.94-2.23,4.87-2.4,2.2-.11,4.4-.24,6.61-.15,13.1-2.67,26.38-4.3,39.65-5.51,40.47-3.7,79.3-15.2,118.58-24.47,19.34-4.57,38.28-3.85,57.46.16,8.93,1.87,17.92,3.52,27.04,4.52,17.96,1.95,35.11-1.09,51.83-7.36,9.1-3.41,9.03-3.47,12.8,5.66.96,2.33.89,5.07,2.8,7.02Z"/>
      <path class="cls-12" d="M744.2,778.38c-5-13.53-4.59-27.94-6.59-41.93-3.53-24.67-15-45.38-28.74-65.67-8.04-11.88-17.16-16.37-31.06-14.97-10.48,1.05-21.18.02-31.76-.09,14.09-1.91,28.24-.99,42.32-.46,7.14.27,11.72-1.88,15.01-7.96,1.81-3.34,3.83-6.66,6.26-9.56,7.34-8.79,7.64-18.85,6.06-29.43-3.69-24.59-5.68-49.28-4.87-74.18.52-16.07,4.94-31.32,9.25-46.62,1.84-6.52,3.36-13.14,5.49-19.56,3.99-12.02,12.72-20.27,22.73-27.38,3.55-2.87,7.66-4.6,12.17-4.75,2.89-.1,5.86.68,3.1,4.73-8.36,3.16-12.41,10.47-16.4,17.59-9.95,17.75-8.39,36.38-3.04,54.94,2.8,9.73,6.43,19.23,10.82,28.45,2.37,4.99,6.59,7.74,10.78,10.38,3.74,2.36,5.01,5.32,5.36,9.37.42,4.85,1.48,9.65,1.88,14.5,1.31,16.11,10.6,28.72,18,42.23,7.34,13.4,11.67,28.13,17.96,42.02,7.5,16.56,11.22,34.55,18.77,51.12.67,1.48.56,3.31.81,4.98-10.38,9.37-20.89,18.62-31.17,28.07-13.3,12.22-28.46,21.23-44.43,29.15-3.03,1.5-5.19,4.41-8.68,5.05Z"/>
      <path class="cls-4" d="M486.55,766.8c-4.08-2.27-3.25-6.99-5.04-10.42-1.69-3.24-2.82-3.87-6.23-2.16-10.88,5.45-22.76,7.13-34.69,9.02-19.16,3.04-37.41-2.12-55.65-5.69-19.2-3.76-37.57-2.04-56.13,2.55-22.13,5.47-44.19,11.34-66.51,15.96-16.26,3.37-32.87,5.03-49.34,7.41-12.04,1.74-24.1,3.38-36.15,5.07-.51-.11-.85-.59-.69-.66,6.23-2.71,4.24-7.68,3.43-12.32,1.13-11.18,5.17-21.09,12.82-29.42,2.98-1.42,5.81-3.12,8.8-4.53,1.8,2.23,4.09,2.87,6.83,2.18,20.14-5.09,40.86-7.01,61.15-11.3,16.12-3.41,32.2-7.25,48.47-9.64,30.87-4.55,62.28-8.98,92.73.08,23.06,6.85,45.41,5.64,68.3,2.22,1.05-.16,2.16-.43,3.16-.23,5.05,1.02,7.8-1.37,9.24-5.89-.21,6.3-.57,12.59-.55,18.88.02,3.98-1.65,5.75-5.55,6.04-5.92.44-6.25,3.26-3.81,8.13,2.33,4.65,4.58,9.47,5.39,14.73Z"/>
      <path class="cls-4" d="M763.56,440.53c.91-3.73-1.27-3.81-3.86-3.15-3.82.99-7.61,2.11-11.41,3.17,1.75-6.93,2.83-14.14,5.5-20.71,1.77-4.36.56-6.34-2.59-8.46,4.85-5.23,4.65-6.12-1.87-8.4-1.8-.63-3.65-1.15-5.42-1.87-8.25-3.35-11.71-9.24-9.58-16.23,2.07-6.79,10.38-11.87,17.65-10.53,3.96.73,7.77,2.17,11.78,2.71,1.46.2,3.12.68,4.13-.74,1.27-1.78-.1-3.21-1.14-4.51-3.83-4.77-8.4-8.95-10.46-15.04-1.64-4.84-3.37-9.61-3.54-14.78-.15-4.58-2.08-8.65-3.82-12.73-2.66-6.23-2.74-12.19.2-18.41,2.08-4.4,3.97-8.91,6.11-13.29,3.46-7.09,2.91-10.17-2.26-16.09-1.69-1.93-4.78-2.99-4.44-6.36,4.96-.36,7.56,3.59,9.08,6.78,3.86,8.14,10.73,12.13,18.22,15.7,7.09,3.38,14.24,6.52,17.94,14.34,1.84,3.89,6.22,4.05,9.94,4.74,3.32.62,6.71.88,10.04,1.48,4.86.87,7.91,3.07,6.09,8.73-1.04,3.23.44,5.63,2.77,7.88,6.42,6.19,12.78,12.46,19.01,18.85,5.71,5.85,6.36,10.49,1.89,17.02-2.47,3.62-4.98,7.38-8.64,10.06-5.04,2.72-6.66,6.85-6.56,12.58.26,14.17.95,28.3,2.51,42.39.45,4.05-.35,5.61-4.84,3.76-6.82-2.8-13.42-6.44-21.09-6.62-13.67-.31-27.53-1.74-39.49,7.27-.46.35-1.21.3-1.83.44Z"/>
      <path class="cls-10" d="M748.53,275.12c2.17,1.95,4.54,3.72,6.46,5.9,4.36,4.95,6.7,10.18,2.21,16.54-1.93,2.73-2.89,6.13-4.51,9.09-4.57,8.34-5.69,16.78-.91,25.39,3.93,7.08,2.19,15.42,5.34,22.76,2.74,6.39,6.84,11.56,11.62,16.37,1.66,1.67,3.66,3.3,2.22,5.97-1.46,2.7-3.94,2.85-6.63,2.08-3.26-.93-6.53-1.82-9.79-2.71-5.69-1.55-10.93-.9-15.4,3.28-6.05,5.66-5.39,13.99,1.79,18.13,3.25,1.87,7.01,3.02,10.67,3.98,3.04.8,5.86,1.15,5.57,5.35-.28,4.05-3.41,3.59-5.97,4.11-16.51-2.74-31.96-8.19-45.71-17.97-.86-.61-1.74-1.21-2.64-1.78-25.14-15.76-27.3-41.17-15.17-64.22,3.65-6.93,7.36-13.83,10.83-20.85,2.56-5.18,6.68-8.76,11.41-11.64,5.32-3.24,9.89-7.19,13.99-11.86,6.58-7.49,14.82-10.27,24.64-7.95Z"/>
      <path class="cls-12" d="M862.98,630.82c-2.37-1.36-2.33-3.72-2.78-6.04-3.08-15.71-1.98-31.71-3.48-47.53-.98-10.33-1.06-20.76-4.5-30.73-1.01-2.92-.73-5.54,1.42-8.27,10.11-12.86,14.57-27.52,13.37-43.9-.21-2.87-1.14-5.95,1.02-8.6,10.6,20.07,19.18,40.77,17.66,64.09-1.16,17.68-6.55,34.5-11.89,51.25-3.2,10.04-5.68,20.38-10.83,29.72Z"/>
      <path class="cls-5" d="M608.54,669.86c3.33,0,4.17,1.21,2.11,4.07-14.35,19.85-32.5,35.25-53.92,47.13-18.17,10.07-37.62,16.12-57.71,20.73-4.87,1.12-6.34-.13-6.23-4.63.02-.85,0-1.7,0-2.55-.06-15.82,0-15.51,15.18-18.66,15.3-3.18,30.43-7.12,45.67-10.59,6.55-1.49,13.5-1.46,19.22-5.76,1.69-1.27,3.74-2.11,3.95-4.6.34-.31.68-.62,1.02-.93,7.69-5.6,15.01-11.65,21.96-18.15,2.92-2.01,5.84-4.03,8.75-6.04Z"/>
      <path class="cls-12" d="M201.17,741.6c-.69,4.85-5.1,3.94-8.1,5.22-9.69.26-15.11,7.58-21.65,13.06-7.25.71-9.07-5.31-11.36-9.91-2.5-5-5-9.7-9.56-13.14-3.1-2.35-6.1-3.57-9.89-1.53-2.07,1.11-4.41,1.58-6.63.05-1.39-4.91,4.11-5.81,5.35-9.2,6.77-11.4,18.46-15.61,29.86-20.07,4.79-1.87,6.9,2.27,8.76,5.47,6.44,11.04,13.93,21.23,23.21,30.06Z"/>
      <path class="cls-7" d="M139.34,726.15c-.53,3.75-4.7,5.22-5.52,8.79-.53,3.56-3.57,4.67-6.2,5.77-9.81,4.11-18.71,9.94-28.33,14.42-5.83,2.71-10.37,7.37-14.68,12.07-9.74,10.62-20.94,19.84-29.94,31.18-1.32,1.66-2.67,3.31-3.69,5.18-3.26,5.92-1.7,8.99,5.07,10.13,30.77,5.17,62.01,6.84,92.73,12.44,7.99,1.46,15.93-1,23.74-3.15-3.21-1.18-6.42-.6-9.62-.05-5.73.99-11.02-.17-15.71-3.56-2.03-1.47-4.13-3.19-3.21-6.3.7-.65,1.64-.84,2.3-.27,5.38,4.67,12.03,4.7,18.56,5.21,6.9-.14,13.69.51,20.29,2.65-1.49,2.91-4.23,3.94-7.1,4.94-13.29,4.65-26.55,5.36-40.63,2.96-23.16-3.96-46.61-6.24-69.93-9.33-5.46-.72-10.92-1.61-16.28-2.84-6.29-1.44-7.94-5.04-5.27-10.89,2.4-5.26,5.7-10.07,9.74-14.08,12.34-12.26,23.22-26.19,37.48-36.28,9.22-6.52,19.55-11.81,30.01-16.16,6.95-2.89,10.33-9.2,16.19-12.83Z"/>
      <path class="cls-6" d="M599.79,675.9c-6.3,7.28-13.15,13.9-21.96,18.15,6.75-6.73,13.87-13.02,21.96-18.15Z"/>
      <path class="cls-9" d="M937.05,768.21c-4.65-.33-10.24-.45-14.99,3.84-3,2.71-5.32.33-6.52-2.22-2.42-5.14-4.68-10.4-6.39-15.81-1.13-3.57-.29-5.77,4.76-5.1,10.62,1.41,20.24,7.07,31.17,6.92.39,0,.81.26,1.16.48,2.9,1.78,7.91,2.32,6.8,6.97-.98,4.07-4.92,5.39-9.19,4.95-1.88-.2-3.81-.03-6.79-.03Z"/>
      <path class="cls-12" d="M144.35,812.8c3.04,6.78,10.43,10.45,18.28,8.47,3.83-.97,7.55-.77,11.35-.67,1.31.03,2.73.44,2.9,1.9.2,1.75-1.54,1.75-2.65,2.09-11.54,3.47-23.19,4.3-35.12,1.97-22.44-4.38-45.27-5.91-67.92-8.76-6.29-.79-12.59-1.66-18.81-2.88-5.31-1.04-6.64-4.67-4.08-10.18,2.36-5.07,5.9-9.49,9.82-13.19,12.31-11.61,22.5-25.53,36.42-35.29,7.99-5.6,17.27-9.37,25.99-13.93,4.5-2.35,9.41-3.94,13.27-7.41,1.27-.01,2.56.09,3.81-.05,3.38-.38,5.96-4.63,10-2,5.4,3.53,10.67,7.36,12.6,13.8,1.35,4.5,4.34,7.66,7.01,11.17.92,1.21,2.03,1.37,3.31,1.45,1.45,5.54,5.06,9.94,7.83,14.8.4,1.19.81,2.34,1.37,3.49,2.52,5.14,1.61,7.02-3.88,8.62-2,.58-4.15.75-5.94,1.99-1.31.53-2.62,1.05-3.94,1.58-.61.6-1.26,1.19-2.12,1.31-12.61,1.77-18.68,9.39-19.53,21.71Z"/>
      <path class="cls-2" d="M144.35,812.8c-3.78-12.64,8.83-24.14,21.65-23.02-6.24,9.16-3.42,18.7-1.17,28.22-8.22,3.74-14.53-.02-20.48-5.2Z"/>
      <path class="cls-1" d="M169.94,788.2c.32-2.38,2.31-2.82,4.09-3.31,7.3-2,7.58-2.69,3.33-8.68-.3-.42-.19-1.13-.27-1.7,1.76-.94,2.53.12,3.11,1.55,3.97,7.81,3.61,9.13-3.39,12.47-2.29-.11-4.58-.22-6.87-.33Z"/>
      <path class="cls-3" d="M180.2,776.07c-1.04-.51-2.07-1.03-3.11-1.55-1.9-5.19-8.54-8.35-6.54-15.21,2.48-2.56,5.15-4.96,7.39-7.72,4.06-4.98,9.04-6.46,15.12-4.77-1.88,3.03-3.6,6.18-5.69,9.06-3.18,4.41-5.41,9.04-4.89,14.65.2,2.2-.2,4.23-2.29,5.52Z"/>
    </g>
  </g>
</svg>