<?xml version="1.0" encoding="UTF-8"?>
<svg xmlns="http://www.w3.org/2000/svg" version="1.1" viewBox="0 0 1080 1080">
  <defs>
    <style>
      .cls-1 {
        fill: #e2bda2;
      }

      .cls-2 {
        fill: #292828;
      }

      .cls-3 {
        fill: #616362;
      }

      .cls-4 {
        fill: #636564;
      }

      .cls-5 {
        fill: #e2ab88;
      }

      .cls-6 {
        fill: #494b4a;
      }

      .cls-7 {
        fill: #958d89;
      }

      .cls-8 {
        fill: #484b4b;
      }

      .cls-9 {
        fill: #4c4d4c;
      }

      .cls-10 {
        fill: #e3a782;
      }

      .cls-11 {
        fill: #494b49;
      }

      .cls-12 {
        fill: #4a4b4b;
      }

      .cls-13 {
        fill: #f2cbaa;
      }

      .cls-14 {
        fill: #fff;
      }

      .cls-15 {
        fill: #fae7d4;
      }

      .cls-16 {
        fill: #f3c7a5;
      }

      .cls-17 {
        fill: #060607;
      }

      .cls-18 {
        fill: #4a4c4b;
      }

      .cls-19 {
        fill: #494a4a;
      }

      .cls-20 {
        fill: #282828;
      }

      .cls-21 {
        fill: #626463;
      }

      .cls-22 {
        fill: #f3f3f2;
      }

      .cls-23 {
        fill: #e3a987;
      }

      .cls-24 {
        fill: #e1a783;
      }

      .cls-25 {
        fill: #e3a683;
      }

      .cls-26 {
        fill: #2a2a29;
      }

      .cls-27 {
        fill: #e0a280;
      }

      .cls-28 {
        fill: #070707;
      }

      .cls-29 {
        fill: #fccaa5;
      }

      .cls-30 {
        fill: #d84140;
      }

      .cls-31 {
        fill: #f7c9a7;
      }
    </style>
  </defs>
  <!-- Generator: Adobe Illustrator 28.7.1, SVG Export Plug-In . SVG Version: 1.2.0 Build 142)  -->
  <g>
    <g id="Layer_1">
      <path class="cls-22" d="M713,858.1l65.6-6.8,71.2-7.4-24.2-25.3,3.3-33.7h-40.5l.7,53.2-27.4,10.9-2.4-17.6,5.7-30.7-50.1-1.3s-14.6,40.6-9.3,44.5,7.3,14.1,7.3,14.1Z"/>
      <path class="cls-14" d="M232.6,794.1v33.8l-47.3,32.6c-1.4.9-3,1.4-4.6,1.3l-66.7-3.1,4.7-55.7h50.3s-13.5,51.7-10.6,58.8,27.4-5.7,27.4-5.7l2.3-12.3-.7-11.2s4.8-33.5,10.2-35.2,35-3.4,35-3.4Z"/>
      <path class="cls-29" d="M125.7,682.3c4.9-5.5,5.7-13,9.3-19.1.6-1.1.7-2.7.4-4-.9-5.5-14.1-18.1-19.7-19.1,1.8-4.9,6.5-3.9,10.1-5.1,6.9.1,12.9-2.9,19.3-4.8,8.2-2.4,10.6-1.3,13.2,6.5,2.9,8.6,6.5,17,7.8,22.9-7.3-25.4-9.6-54.4-4.3-83.7,2.7-13.5,7.9-26.7,6.6-40.8-.8-8.3-2.3-16.5-1.7-24.8,1-11.9-1.3-23.9,1.8-35.7,1.7-6.5,3.8-12.7,7.9-18.2.5-.7,1-1.3,1.5-2q9.9-14.6,25.1-3.5c-9.2-13.6-13.4-27.1-10.9-43.3-2.2,4-2.2,7.4-2.8,10.7-.8,3.6-1,7.2-1.3,10.8-.8,9.4-7.3,15.2-16.2,15-8.1-11.3-6.7-23.8-1-34.7,8.8-16.9,21.6-30.3,41.1-35.6,14.6-4,29.3-3.6,43.8-.5,9,1.9,16.2,7.6,21,15.6,15.2,25.3,15.4,54.2-8.1,76-1.2,1.1-2.2,2.7-3.6,3.5-13.5,7.6-11.3,21.7-14,33.7-.3,1.4,1,2.5,1.8,3.6-3.8,7.7-8.5,14.8-12.5,22.4-3.6,7-8.8,13.2-11.2,20.9-5.4-.9-7.1,2.5-7.2,6.8-.5,16.7-1.7,33.2-4.3,49.7-.8,4.9,1.6,6.2,5.8,4.6,7-2.7,14-5.2,20.6-9,5.1-2.9,7.4-6.4,5.1-12.2-.9-2.3-1.5-4.8.5-7.1,3.9,0,5.3,3.3,5.9,6,4,19.6,13.5,37.6,17,57.3.5,2.7,1.2,5.5,0,8.2-1.7,2.7-4.8,2.3-7.2,3.3-8.1,3.1-15.9,6.5-18.7,15.8-8.9,20-2.5,19.1-27.5,19-7.1,0-13.6,1.4-19.6,5.4-18.3,16.3-21.6,34.7-10.8,61.4-1,8.1-6.7,7-11.9,5.6-10.6-2.8-20.8-19.8-19-31.1,1.8-10.8,6.4-20.7,9.6-31,2.8-8.9,1.9-10-7.5-10.2-6.3-.1-12.1,1.1-17.2,5.1-4.5,3.6-8.2,8.2-12.9,11.6-2.5,2-5,4.9-8.5,1.9-2.9-2.5-1.5-5.6-.4-8.3,1.9-4.6,3.1-9.3,3.4-14.3.6-1.6.4-3.5,1.5-4.9Z"/>
      <path class="cls-29" d="M716.7,754.2c-7.7-21.4-2-41.5,5.8-61.5,3-7.7,6.2-15.4,8.7-23.3,2.5-7.9-4.5-19.9-12.5-22.4-.7-2.9,1.8-3.2,3.4-3.6,9.7-2.2,19.1-5.3,28.9-7,11.6-.9,21.9-6.3,32.6-10.2,12.1-4.3,15.1-3.2,18.7,9.3,4.7,16.1,4.9,32-3.9,46.9-5.1,8.6-7.9,17.8-8.1,29.2,3.7-11.4,9.2-20.7,14.5-30,8.4-14.9,10-30.5,4.4-46.7-.8-2.4-1.3-4.8-2-7.3q-3.8-13.2,7.9-18.9c4.5-3.3,9.8-4.8,14.8-7,6.2-2.8,11.5-6.1,13.9-12.8,2.4,1.1,3.1,3.3,3.1,5.5.2,11.1,4.8,21.1,7.7,31.4,4.7,16.3,4.4,31.7-.5,47.9-6.1,20.1-8.6,41.2-15.2,61.3-3.7,11.3-6.8,22.8-10.2,34.2-1.4,7-3.7,14-4.1,21.1-.4,6.5-4.1,9-9.6,9.3-7.2.4-14.5,1-21.6-.5-.9-.3-1.6-.9-2.2-1.6-4.9-13-2.2-27-4.8-40.3-1-5.1-1.1-10.3-4.4-17-7.1,19.7-12,38.1-15.4,57-2.6,13-4.4,14.6-17.6,14.7-8.1,0-16.1.2-24.2,0-9.8-.3-11.7-2.9-9.9-12.4,3-15,3.5-30.2,1.7-45.4Z"/>
      <path class="cls-29" d="M700.1,461c2.4-2,3.1-4,1.2-6.9-13.6-21.4-21.4-44.8-23.5-70.1-.4-5.4-3-10.6-4.2-16-1.6-6.8-.1-12.6,6.5-16.4,14.4-8.2,28.6-17,45.1-20.7,4.4-1,8.7-1.6,13.1-1.8,24.6-1.2,49.4,2.7,73.8-4.5,7.9-2.3,17-1.1,25,2.9,7.8,5,14.8,11.3,24.2,13.3,3.4.7,6.3,2.1,8.8,4.5,2.4,2.4,3.7,4.9.6,7.9-3.3,3.2-3.2,7-1.5,10.8,2.7,5.9.7,11.5-1.4,16.9-1.1,2.8-2.4,5.8-6.1,6.2-3.9.4-3.3-3.9-5.6-5.6-3.7,3.9-6.7,8.2-9.4,12.7-2.4,3.9-6,6.5-10.4,5.4-7.7-1.9-14.8.2-22.1,2-7.5-1.3-14.6-.7-21.8,2.4-5.9,2.5-12.6.9-18.9,1.2-3.3.1-6.6-.4-9.8,1-1.2.5-2.5.8-3.8.5-11-6-14.2-4.5-16.9,7.5-.8,3.8-.8,7.6-.3,11.4-1.3,12.4,3.2,24,5.7,35.8,1.7,8.1,3.6,16.2,5.2,24.3.6,4.6-.8,8.5-4,11.8-2.3,2.4-3.6,5.4-4.6,8.5-6.6,14.2-5,28.6-.6,43-.8,7.1-5.8,6.2-10.6,5.5-9.4-1.5-14.6-5.5-14.1-12.5.8-9.8-1.5-19.3-1.8-29-.3-11.7-4-22.3-7.6-33.1-2.6-6.8-4.3-14-10.5-18.8Z"/>
      <path class="cls-20" d="M125.6,636.9c-3.3,1-7,.8-9.8,3.2-2.7.2-4.9-.9-6.5-3-21.7-28.2-46.3-54.4-64.2-85.4-14.1-24.3-17.2-50.6-8.3-77.4,6.6-19.9,20.5-32,41.8-35,5.8-1.8,8.9,1.6,11.3,6,6.6,12,14.1,23.3,22.9,33.9,7.2,8.7,16,15.5,25.5,21.4,8.1,5.1,17.3,5.8,26.6,5.9,1.7.3,3,1.3,3.9,2.7,2.7,22.7,3.6,45.4-4.7,67.3-4.2,13.7-5.4,27.7-2.9,41.8,1.2,6.8-.7,9.7-7.5,10.8-9.6,1.5-18.4,5.9-27.9,7.8Z"/>
      <path class="cls-30" d="M760.3,405.8c.7-.5,1.4-1.1,2.1-1.6,4.9-1.2,9.9,0,14.7-.6,7.8-1.1,13.3,1.3,15.9,9.1,9.9,11.2,23,9.1,35.1,7,20.1-3.6,32.3-17.5,40.5-35.3,6.1-13.2,7.6-27.2,6.4-41.6-.2-2.9-1.5-6.2,2.1-8.2,3.2,1.5,6.6,1.4,9.9,1.3,5.7,9.5,4.8,20.4,5.8,30.7,1.1,11.9.9,24-3.9,35.4-1,2.3-1.1,4.9-1.6,7.3-1.1,5-.6,9.6,4.1,12.6,5.1,3.2,10.3,2.2,14.8-1.2,8.7-6.6,15.9-14.8,23.4-22.7,2.7-2.9,5-6.3,9.8-4.5.7,1,1.5,1.9,2.2,2.9.7,3.2.2,6.3-2.4,8.4-12,9.4-18.8,22.2-24.1,36-5.6,11.5-12.8,21.5-24.6,27.4-2.2,4.9-7.3,2.8-10.8,4.5-10.7.6-16.3,9.4-24,14.9-3.2,1.7-6.4,3.5-8.9,6.2-1.3,1.3-2.6,2.6-3.9,3.9-1.3,1.4-2.6,2.9-3.8,4.4-.9,1.1-1.9,2.1-3,2.9-15,11.3-16.2,11.1-26.5-4.6-6.6-9.9-15.8-15.4-27.9-15-5.5.2-11.1-.9-16.5.9-2.8,1.4-5.3,3.7-8.8,3.4-1.7-.1-3-1-3.8-2.5-4-17.6-8.1-35.1-12-52.7-.7-3.3-.3-6.6,1.1-9.8,4.8-7.8,11.2-14,18.8-18.9Z"/>
      <path class="cls-20" d="M751.6,638.6c-11,2.8-21.9,5.6-32.9,8.4-6.9,1.9-10.2-1-13.2-7.4-9.7-20.9-20.9-41.1-32.1-61.2-10.4-18.7-18.1-38.3-15.5-60.3,2.1-17.9,7.8-34.1,23.3-45.2,5.3-3.6,11.1-6.3,16.8-9.3,3.8-2,6.3-1.3,8.1,2.5.8,1.8,1.8,3.4,2.6,5.3,3.9,9.7,3.7,10.2-6.4,13.1-9.1,2.6-14.6,9.1-18.5,17-7.8,16-7.1,32,2.6,46.9,8.7,13.2,28.3,18,44.1,11.9,4.5-2.3,8.2-6.1,13.6-6.7,2.4,0,4.5,1,5.9,2.7,9.5,11.7,23.2,10.4,36,11.6,6,.5,11.5-1.3,16.2-5.3,4.8-4,8.3-8.9,10.9-14.5,1.1-2.3,2.1-5,5.1-4.9,2.8.2,3.8,2.8,5,5,5.6,10.5,10.4,21.4,15.9,31.9,1.6,2.9,3.3,5.9,4.9,8.8,1.5,5.5-.8,8.9-5.9,11.1-7.1,3.2-14.1,6.7-21.1,10-8.7,2.7-16.5,6.4-23.6,12.7-5.3,4.6-13,5.9-19.8,8.4-7.2,2.7-14.5,5.2-21.9,7.4Z"/>
      <path class="cls-29" d="M264.8,360.1c11.4-1.5,22.4-5,33.9-6.3,7.4-.8,14-4.4,16.3-12.7,7.6,4.2,15,7.9,23.9,2.9,4.2-2.4,7.2-4.8,7.6-9.9.3-4.2,1.7-8.2,4.1-11.7,2.6-3.9,6.1-6.9,11.1-6.1,5.3.9,7.8,4.8,8.7,9.9.3,1.9-.2,3.9,1.5,5.8,5.5-2.2,7.2-6.9,8.5-12.1,4.2-16.9,11.6-20.7,28-14.7,5.9,2.2,11.8,5.1,18.4,3.9-6.1,6.9-4.4,15.3-4.6,23.4,0,2.8-.2,5.6-1.8,8-4.4,7.2-4.1,14.8-2.4,22.6,1.1,5.4,2.1,10.7-6.1,11.6-3.2.3-5.3,3.6-5.7,6.7-.8,6.7-6.2,11.1-8.2,17.1-1.2,3.5-4.4,5-8.2,3.8-4.8-1.5-9.7-2.1-14.4-4.1-11.4-4.9-21.8-2.1-30.6,7.1-3.2,3.4-4,6.5-1.5,10.4-8.9,12.3-13.9,26.5-19.5,40.4-2.1,5.2-4.4,10.2-7.3,15-3.2,5.2-7.8,8.6-14.1,9.1-9.6.7-16.5-6.4-15.4-16,1-8.5,3-16.9,3.9-25.5,1.4-13.3-2.1-25.9-5.9-38.4-2.5-6.7-4-13.7-6.9-20.3-3.2-7.4-5.2-15.6-13.1-19.8Z"/>
      <path class="cls-29" d="M939.3,393.5c-3.2.5-5.2,2.6-7.3,5-7.8,8.7-15.6,17.4-24.9,24.6-5.5,4.3-11.3,4.7-17.1,1.4-6.1-3.4-7.1-9.3-5-15.3,8.6-24.3,5.5-48.8,2-73.4,8.5,1.2,17.7,5.5,23.7-5.1,2-1.3,4.1-.6,6.2-.5,2.8.3,5.4,1.2,8.2,1.4,9.1.5,15.3-4.1,17.5-12.9.9-3.5,1.9-7,4-10.1,2.8-4.2,6.3-7.2,11.7-6.4,5,.8,7.4,4.4,9,8.9.6,1.8.3,3.9,2.3,5.7,5.1-1.9,6.9-6.3,8.3-11.2,4.8-16.7,12.9-20.9,29.3-14.6,5.1,2,10.9,2.3,15.4,6.1-1.9,4.5-1.5,9.3-1.3,14,.3,5.7-.6,11.2-3.4,16.1-3.9,6.7-3.9,13.6-2.3,21,1,4.8,3.5,11.1-5.7,11.2-2.1,0-2.9,2.1-3.8,4-2.2,5.1-5.2,9.9-7,15.2-3,8.6-8.2,9.9-16.8,8.4-8.5-1.5-15.7-7-24.8-6.3-5.8.5-10.4,3.4-15.4,5.3-2.9,1.1-4.7,3.9-2.8,7.5Z"/>
      <path class="cls-29" d="M343.4,459.7c-.2,1.4,0,3.1-.7,4-11.2,13.3-7,28.2-4.7,42.9,1.2,7.9-.8,15.6-1.9,23.2-1.3,9.2-1,18.1,0,27.3,1.7,14.7,1,29.5-2.4,43.9-3.8,15.9-7.2,31.9-9,48.2-.7,6.2,1.3,8.4,7.8,8.2,5.6-.2,11.6-1.8,17,1.4-3.4,3.2-7.6,2.1-11.6,2.3-5.4.2-10.9-.6-15.9,2.2-5,2.5-8.8,6.6-13.8,9.1-5.3,2.9-9,2.3-9-4.7,0-4.4-3.9-7.2-4.3-11.4-2.3-15.7-5-31.4-9.4-46.7-2-7-3.2-14.2-3.3-21.4-.5-29,1-58-1.9-86.9,0-3.6,2.4-4.8,5.4-5,15.5-.7,26.2-9,34.6-21.2,1.2-1.8,2.6-3.6,4.4-4.9,6.1-3.6,10.8-9.7,18.6-10.5Z"/>
      <path class="cls-30" d="M264.8,360.1c5.9-.5,8.9,2.5,10.8,7.9,3.6,10.4,8.4,20.4,10.8,31.3.8,2.3,2,5.2-.7,6.6-2.2,1.1-2.9-1.5-3.5-3.5-6.8-22.1-22.5-30.7-44.8-30.8-21,0-39.7,5-54.4,20.8-11.2,12.1-18.4,25.7-14.7,43.1.8,3.9,2,7.4,4.7,10.4,3.2,3.6,4.4,8.1,2.2,12.5-6.7,13.1-8.1,27-7.7,41.4,0,2.7.8,5.6-1.6,7.9-24.2,3.7-39.6-11.2-54.2-26.7-9.7-10.3-17.2-22.5-23.6-35.2-2.2-4.3-5.2-6.2-9.6-6.6,5.4-1.4,9.9-4.2,14.2-7.6,12.3-9.6,25.2-18.3,39.5-24.7,16.8-7.4,32.6-16.5,47.9-26.5,16.5-10.8,34.8-15.6,54.3-16.7,10.2-.6,20.5-1.1,30.5-3.7Z"/>
      <path class="cls-4" d="M197.7,695.6c4.1-5,10-5.5,15.7-6.4,1.4-.2,2.8,0,4.2,0q19.7,0,27-18.4c.9-1.3,1.5-3,3.7-1.8,1.6,3.3-.5,5.9-1.7,8.6-1.2,2.9-2.2,5.7-2.3,8.8-.1,2.8,1.1,5.1,3.9,5.7,3.3.7,3.3-2.4,3.7-4.4,2.2-9.7,5.7-18.6,14-25.4-2.9-1.5-7,1.4-8.3-3,11.3-6.8,23.5-6,35.2-2.2,8.2,2.6,10.1,20.4,4.3,29.7-8.7,14-8.7,17.8.8,34.4-2.8-14.4-3.6-27.9,2-41.2,1.3-3.2,2.6-6.2,6.6-6.6,2,2.3,1,4.7,0,7-6.3,15.7-6.1,31.1,1.7,46.3.6,1.2,1,2.6.9,4-.1,1-.6,1.7-1.5,2.1-2.1-.9-3.9-4.2-6.5-1.8-7.8,7.1-17.3,7-26.8,6.7-6-.2-8.7,1.6-10,8-2.7,13.3-11.3,22.5-23.3,28.6-13.4,5.7-26.7,6.8-39.8-.9-.5-.8-.6-1.6-.4-2.5,2.9-2.6,6.5.3,9.6-1.1-22.1-23.7-19.2-54.8,0-74.5-4.3-1.9-8.5,3.3-12.6.1Z"/>
      <path class="cls-2" d="M426.7,309.1c-3.3,2.4-6.5,3.4-10.6,1.2-4.1-2.2-8.8-3.4-13.3-4.9-9.3-3.1-17.4,1.5-19.5,11.1-1.5,6.8-2.1,13.9-8.8,18.2-1.4.9-2.6,2.5-4.3,2-2.1-.6-1.5-2.7-1.5-4.3-.2-6.2.4-13.9-7.7-14.3-8.2-.4-10,7.3-12,13.8-1.2,3.9,2.5,9.2-3.7,11.7-7.5,3-14.5,7.3-23.1,3.9-3.4-1.3-5.7-3.1-7-6.4-1.6-16.6.3-32.7,6.4-48.3,4-10.2,9.7-18.8,21.8-20.6,1.3-.2,2.8-.9,3.6-1.9,6.7-8.7,15.5-8,25-6.6,11.3,1.7,22.5,3.6,32.8,8.9,8.4,4.3,15,10.3,19.9,18.4,3.6,5.9,5,11.6,2.2,18.1Z"/>
      <path class="cls-20" d="M1022.7,297.3c-6.9.1-12.8-3.3-19.1-5.4-12.9-4.2-21.5.5-23.1,14-.9,6.9-4.9,10.8-9.6,14.6-3.2,2.7-5,1.8-5.2-2.4,0-.6,0-1.1,0-1.7-.3-5.7-.6-11.9-7.8-12.8-7.3-.8-9.6,5.3-11.8,10.8-.3.8-.7,1.6-.7,2.4,0,6.7-.8,12.1-8.8,14.6-6,1.9-11.5,3.9-17.6,1.4-1-.4-2.2-.3-3.3-.5-2-1.5-4.4-3-4.5-5.7-1.2-20.8,0-41.1,12.1-59.1,3.3-4.9,8.1-8.4,14.2-9.6,2.5-.5,5-1.2,6.6-3.2,5.6-7.2,12.8-6.7,21-6,13.7,1.2,26.9,3.3,39.2,9.9,3.7,2,7.2,4.1,10.3,7,2.9,4,5.8,8,8.8,11.9,4.9,6.7,4.8,13.2-.5,19.6Z"/>
      <path class="cls-21" d="M839,580.1c-5.5-5.6-7.1-13.4-11-19.9-2.3-3.8-4-7.9-6-11.8-.9-1.7-1.7-3.9-3.8-4-2.6-.2-2.3,2.6-3,4.2-2.7,5.8-5.9,11.2-11.4,14.8-16.8,11.2-39.9,7.7-48.1-16.5-7.6-22.4-4.2-42.2,13.7-58.5-1.1-2.6-4.3-1.5-5.4-3.7,21.2-4.4,40.7-2,50.6,19.8,3.8,8.3,6.6,8.7,13.9,3.3,3.5-2.6,7.1-5.2,10.6-7.8,3.4,3.7,1.3,8.5,2.4,12.7.3,1.1,0-.3.5.7.3.5,1,.2,1.3-.5.9-4-.6-8.7,3.7-11.5,4.9,3.6,6.3,12.1,1.9,17.9-3.9,5.1-2.6,7.6,1.5,11.7,5.2,5.2,9.1,11.7,12.4,18.4-.2.4-.4.7-.6,1.1-5.3-1.9-8.8-5.9-11-10.7-2.5-5.3-5.2-5.3-9.7-2.4-4.2,2.8-9,4.4-14.2,3.6-5.4-.8-5.8,1.3-3.7,5.5,4.9,9.9,9.8,19.9,14.6,29.9.6,1.2.7,2.6,1,3.9Z"/>
      <path class="cls-4" d="M319.6,662c6.5-4.4,13.9-2.5,20.9-2.8,3-.1,6.1-.2,9.1-.4,17.1,4.8,25.7,17.3,28.5,33.6,3.1,18.2-.9,35.1-16.1,47.4-13.5,10.9-44.1,6.9-54.4-6.8.3-.2.5-.5.8-.7,7.1,0,10.9,7.7,18.3,7.6-9.5-10.4-15.1-22.4-15.8-36.7-.7-15,6.1-26.7,15-37.7-1.6-2.3-5.1-.8-6.3-3.4Z"/>
      <path class="cls-4" d="M879.1,471.3c3.2-3.2,7.9-.4,11.2-3.1,1.2.6,2.4,1.8,3.7,1.9,25.9,2.1,33.2,30.2,27.1,53.5-1.1,4.3-2.8,8.5-5,12.3-13.5,22.9-28.1,25.1-54,14.4.2-.2.3-.5.5-.7,2.1-1,4.3-1,2.3-4.9-11.1-21.4-7.5-46.5,8.7-64.4,2.9-3.3,6.4-5.7,10.5-7-1.5-.6-3.7,0-4.9-2Z"/>
      <path class="cls-30" d="M165.9,507.7c-.6-16.7.2-33.3,7.2-48.9,1.7-3.9,1.2-7.1-1.1-10.9-9.3-15.6-7.4-32.9,3.5-48.3,19.3-27.1,46.6-31.8,76.7-27.8,14.6,1.9,23.9,11.8,29.3,25.3,1,2.5,1.9,5.1,3.2,8.6,2.4-2.2,1.4-4.5,1.9-6.3,9.1,20.6,7.6,41.8,3,62.9-1.5,6.9.1,11.9,5.8,14.9,5.7,3.1,11.4,1,16-3.4,5-4.7,7.3-11.1,9.9-17.2,4.8-11,9.4-22,14.2-32.9,1.6-3.6,3.5-7,7.9-7.9.5,1.4.9,2.8,1.4,4.2-4.3,13.6-10.5,26.6-11.9,41.1-.4,4.1-3.8,7.2-6.5,10.3-4.6,5.5-8.8,11.2-13.8,16.3-8.4,8.6-19.7,10.2-30.8,12-8.9,6.7-18.7,9.7-29.8,8-3.7-1.1-4.5-3.5-3.3-7.1,2-6.1,3-12.4,3-18.9,0-4.3,2.5-6.8,5.8-9.4,17.4-14,30.7-30.4,27.3-54.7-2.5-17.2-7.4-34.5-25.6-40.9-24.1-8.4-59.8-4.7-78.4,21-7.9,10.9-13.1,21.7-11.2,35.2.5,3.6.8,7.2,3.5,10,4,3.5,9.7,6.1,6.3,13.1-9.3,13.3-10.6,28.4-10,44,.1,3-.2,6-.3,9-.9-.5-1.9-1-2.8-1.5Z"/>
      <path class="cls-29" d="M877,334.6c-1.3,2.1-.6,4.1-.4,6.3,3,27.3-3.8,51.5-25,70-15,13.1-32.8,15.2-51.6,9.7-3.5-1-6.7-2.8-8.2-6.5,1.3-6.7,5.7-10.2,13.4-9.9,5.8.2,11.7,1,17.4,2.1,11.7,2.1,22-.5,31.2-8-10.4,5.8-21.7,5.5-33,4.8-2.2-.1-5.3.1-5.4-3.6,6.5-2.5,12.8-4.6,20-1.9,3.4,1.3,7.9.3,9.2-3.6,1.7-5.6,7.2-8.5,9-13.8.6-1.8,1.7-4.1,4-3.3,1.8.6,2.6,2.8,2.4,4.9-.2,1.5-1.6,3.4,1.1,3.9,2.1.5,3-1.3,3.5-2.8,2.4-6.3,6.5-12.2,1.8-19.5-1.8-2.8-2.4-7.8.6-10.1,9.7-7.4-1.7-9.7-3.3-9.6-10.3,1.2-14.9-9.8-24.2-10.5-1.2,0-5.1-2.4-2.4-5.7.8,0,1.9-.3,2.4,0,11.4,8.1,24.5,7.1,37.5,7Z"/>
      <path class="cls-19" d="M731.7,561.8c-22.4,8.1-48.6-.6-53.8-26.5-2.8-13.9-2-26.8,6-39.1,5-7.6,11.1-13.5,20.3-14.5,6.3-.7,6.1-3.2,4.1-7.5-.8-1.8-1.6-3.6-2.2-5.4-1.7-5.1-4.4-6.1-9.4-3.6-5.1,2.6-9.6,6.6-15.5,7.6,4.7-6.5,12.5-8.1,18.9-11.9,9.8,1.4,8.2,10.9,11.7,16.8,2.4,5.9-1.4,9.1-5.1,12.7-15.7,15.3-17.4,44-3.8,60.1,4.9,5.8,10.6,9.6,18.6,9,3.5-.2,7.3-.8,10.2,2.2Z"/>
      <path class="cls-31" d="M236.1,786c-.6.6-1.3,1.1-1.6,1.8-2.5,4.7-1.4,12.3-7.5,14-8.5,2.4-17.5.9-26.3.7-3,0-2.8-2.8-3.1-5-.6-5.3,1.7-10.3,1.6-15.6,0-3.1,1.5-6.7-1.6-9.3-.4-.7-.4-1.4.1-2,1.2-.5,2.2-.5,2.8.8,11.1,7.9,23.5,3.8,35.5,3.7,1.6,0,3.3-.4,4.9-.6-2.3,3.6-5.9,6.5-4.9,11.5Z"/>
      <path class="cls-13" d="M915,440.8c2-13.4,7.9-24.6,18.5-33.3,3.5-2.9,7.9-5.5,8-11.1,8,19.1.4,34.6-19.8,39.8-2.9.8-4.3,3.3-6.8,4.5Z"/>
      <path class="cls-29" d="M326.2,471.3c5.6-9.8,5.5-21.1,8.9-31.5,2.3-7.1,5-13.9,9.6-19.9.1,1.6.2,3.1.4,4.6,4.3,12,3.2,23.7-1.6,35.2,0,0,0,0,0,0-5.7,3.9-11.5,7.7-17.2,11.6Z"/>
      <path class="cls-15" d="M825.4,796c-6.5,5.7-14.4,3.3-21.6,3.1-3.8-.1-8.7,4.7-11.9-1.4,6.9,0,13.8,0,20.7,0,7,0,11.3-2.1,11.4-10.4,0-6.1,1.8-12.4,4.8-18,.9,9.2-3.8,17.6-3.4,26.8Z"/>
      <path class="cls-29" d="M343.3,459.7c.2-7.9,4.2-15.1,3.7-23.4-.3-4.2-6.5-7.2-2.1-11.9,6.2,12,4.6,23.7-1.6,35.2Z"/>
      <path class="cls-4" d="M200.6,771.4c-1,0-1.9-.1-2.9-.2-2.6,2.1-5.8,2.7-8.8,3.5-9.7,1.8-19.4,3.7-29.4,3.6-7.1,0-13.5-2-19.6-5.4-4-2.9-7.7-6-10-10.4-.3-1.3-.1-2.5.8-3.6,4-.6,5.9,2.6,8.3,4.7,3.8,3.4,7.9,6.2,14.2,6.6-10.8-11-15.9-23.9-16-38.3-.1-14.5,5.2-27.2,17.1-36.7-4.9-1.8-9.3,3.7-13.8.2,8-8.2,18.3-6.6,28.2-6,5.1.3,3.7,4.3,2.6,7.6-3.9,11.8-8.7,23.3-11.4,35.5-2.4,10.5,9.3,28,19.8,29.6,3.7.5,7.5.9,7.8-4.6,4.6,4.3,11.3,6.5,13.9,13.1-.2.2-.4.4-.6.7Z"/>
      <path class="cls-26" d="M229.2,548.2c7.8,10.7,14.3,22.3,20.3,34.1,4.3,17.2,4.3,17.3-12.8,24.8-5.3,2.3-10.8,4.4-16.3,6.2-4.3,1.4-6.3-.3-5.6-5,2.9-18.1,4.5-36.3,4.6-54.6,0-6.1,4.2-8.1,9.7-5.5Z"/>
      <path class="cls-9" d="M201.2,770.7c-4.2-4.8-12.7-5.1-13.9-13.1-13.4-18.4-8.4-48.4,10.4-62,5.8-.6,11-5.4,18.5-1.9-13.2,9.9-19.4,23.2-19.4,38.7,0,15.5,6.3,28.8,19.2,39.1-5.9,2.1-10.3.7-14.7-.8Z"/>
      <path class="cls-11" d="M140.4,695.5c5.8-.3,10.8-4.8,17.9-2.4-26.6,26-25.1,52.2-1.5,78.5-7,1.9-11.8.6-18.3-5.2-2.7-2.4-4.5-5.7-8.1-7-8.8-4.4-9-13.3-10.1-21.2-1.7-11.9.4-23.2,8.9-32.4,4-3.1,6.5-7.9,11.2-10.3Z"/>
      <path class="cls-31" d="M129.3,705.8c-8.6,18.1-10.6,36,1.2,53.6.2,1,.4,2.1.6,3.1-5,1.2-7-2-8.5-5.8-2.5-6.4-4.3-13-5-19.9-1.8,7.8-3.1,15.5,3.4,21.8,3.2,3.1,3.4,6.9,2.1,10.8-4.1,12.3,1.1,24.1,1.6,36.2.1,3.4,3.9,3.9,6.5,4,8,.2,16.1-.1,24.1-1.4,5.5-.9,9-4.4,7.3-10.8-.4-1.3-1-2.9-.4-4.1,5-9-1.3-9.2-7.5-11.4-5.9-2-14-2.6-15.4-11.3,16.2,9,33,4.6,49.7,2.1,0,5-4.3,5.2-7.4,5.7-7.1,1.2-9.1,5.5-10,11.9-.9,6.4,0,13.2-3.9,19-1.7,1.3-2.8,3.3-5.4,3.4-12.2.4-24.4,1-36.6,1.5-4.5.2-6.4-1.9-6.6-6.5-.6-17.2-1.7-34.3-6.5-51-3.8-13.1-1.5-26,2.3-38.5,3.1-10.6,7.3-20.9,11.1-31.3.3,4.7-.1,9.2-2.3,13.7-1.1,2.3-4.2,5.5-.6,8,3.4,2.5,3.7-3.4,6.6-3.2Z"/>
      <path class="cls-16" d="M271,653.8c8.2,3.1,17.3.2,25.5,3.7,4.6,3.9,5.5,9.2,5,15.2,2.5-.9,4.5-1.5,6.5-2.2,1.1,1.9-.1,2.6-1.7,3.1-10.7,13.2-9.6,28.3-6.8,43.6.3,1.9,1.2,3.7,1.8,5.5.5,1.4.6,3-.7,3.8-1.7,1-3.6-.1-4.2-1.6-2.9-6.6-5.6-13.3-8.2-20-3.3-8.4,2.2-13.4,7-19,5.7-6.7,4-15.1,2.3-22.3-1.5-6.4-9.1-6.6-14.9-6.3-8.4.4-17.3-3.2-25.1,2.9-1.2,5.2-5.5,6.8-9.7,8.6-1.1.7-2.1,1.3-3.2,2,3.9-10,14.4-16.7,26.4-16.9Z"/>
      <path class="cls-24" d="M178.9,456.2c1.9-6.3-5.9-7.9-6.3-13.1,8.4-2,12.8-7.4,13.3-15.4.5-8.8.7-17.8,7.5-25.4-1.8,18.9.8,36.5,14.9,51.3-6.9,1.9-10.1-2.7-12.4-5.3-6.2-7.3-9.2-2.5-13.2,1.9-1.7,1.9-1.2,5-3.9,6.1Z"/>
      <path class="cls-23" d="M125.6,636.9c8.7-4.4,18.2-6.6,27.5-9.2,5.6-1.6,7.3-3.5,6.5-9.8-1.9-14-2-28.2,4.4-41.4-5.6,29.4-1.9,58.2,5.1,86.9.5,1.9,3.4,5.4-.2,6.4-3.8,1.1-2.7-3.3-3.4-5.3-3.4-9.9-6.6-19.9-9.7-30-1.4-4.6-4-4.1-7.7-3.1-7.4,2-14.3,6.5-22.5,5.4Z"/>
      <path class="cls-27" d="M751.6,638.6c9.5-3.8,18.8-8.8,28.7-10.9,10.3-2.2,14.6-12.9,24.6-14.7,4.1-.7,7.7-3.3,12.1-2.9-10.3,5.9-11.1,6.2-6.7,18.4,8.7,24.1,4,45.6-10,66.2-3.8,5.6-5.6,12.5-8.3,18.9-.7,1.6-1.2,3.5-3.3,3-2.2-.5-1.5-2.6-1.3-4.2,1.7-11.2,3.7-22.1,9.8-32.2,9.8-16.4,7-33.6,1.1-50.6-1.6-4.7-4.6-4.6-8.6-3.1-10.9,4-22,7.8-33,11.6-1.5.5-3.2.4-4.9.6Z"/>
      <path class="cls-15" d="M791.9,797.7c-1.1-1.1-2.2-2.3-3.3-3.4-4.4-9.1-1.8-19.1-3.8-28.5-1.1-5-1.4-10.2-2.7-17.2-4.1,9.5-6.3,17.4-8.1,25.4-1.7,7.5-2.5,15.4-7.2,21.9-.6,0-1.2,0-1.7,0,1.9-18.8,8.8-36.4,13.6-54.5.5-2,1.6-3.6,3.9-3.7,2.7,0,2.9,2.4,3.3,4.1,1.6,8.7,3.9,17.3,4.2,26.1.3,10,1.6,19.8,2,29.8Z"/>
      <path class="cls-3" d="M731.7,561.8c-1.1,0-2.2,0-3.3,0-22.9,0-35.5-11.7-36.8-34.9-.9-16,3-30.4,16.3-40.6,3.2-2.4,3.8-5.1,3.9-8.5,7.3,13.6,8.1,28.7,9.7,43.6.7,6.3,2,12.5.3,19-1.5,5.9,2.1,10.3,7.8,10.6,4.4.2,10.9,7.1,13.6-2.5,4.1,2.2,4.1,2.7,0,6.5-3.9,2.3-7.7,4.6-11.6,6.9Z"/>
      <path class="cls-8" d="M743.4,554.9c1.1-2.2,3.2-4.4,0-6.5-7.2-14.6-7-29.1.1-43.6,3.2-5.9,8.2-10.6,11.8-16.2,3.4,0,5.8-2.4,8.6-3.9,3.3,0,6.6,0,10.2,0-.8,4.5-4.2,6.3-6.7,8.6-19.8,18.1-16.6,54.9,2.6,70.5,6.4,5.2,14.2,5.6,22,3.7,4-1,7.8-2.7,11.7-4.1-7.2,8.2-16.6,6.2-26,6.4-14,.3-24.1-7-34.3-14.8Z"/>
      <path class="cls-10" d="M815.3,399.4c10.5,3.6,22.4,2,43.8-6-1.3,5.5-7.2,10.3-14.6,13.4-11.3,4.6-22.6,2.2-33.6.1-8.5-1.6-14.6-.1-19.1,7.2-3.6-12.5-14-9.4-22.8-9.7-2.2,0-4.4-.2-6.7-.2,5.7-3.1,11.9-.7,17.8-1.4,3.8-.5,8.3.6,11.4-1,7.8-4.2,15.6-4,23.8-2.3Z"/>
      <path class="cls-21" d="M755.2,488.6c-1.8,6.9-7.6,11-11.8,16.2.4-7.2,8.9-10.3,9-17.7.9.5,1.9,1,2.8,1.5Z"/>
      <path class="cls-17" d="M105,507.7c15.8,3.2,29.4,5.6,42.8,8.8,8.1,2,11.5,10.8,18.6,14.9,2.7,1.6,1.9,9.2,2.5,14.1.2,1.3.5,3-1.2,3.5-1.7.5-2.4-1-3.2-2.1-2.7-3.5-5.4-7.1-8-10.6-8.5-11.6-20.5-17.1-34.2-20-5.4-1.2-11.5-1.8-17.2-8.7Z"/>
      <path class="cls-18" d="M879.1,471.3c3.4.7,7.2-1.2,10.5,2-17.1,4.9-23.5,18.3-27.4,33.6-4,15.9-1.8,30.7,9.2,43.7-3.4,1.8-5.9-1.4-8.8-1.1-8.1-5-9.2-15.9-17.9-20.8-1.8-1-4.6-6,1.4-9.9,5.7-3.7,3.1-11.4,1.6-17.5-1.8-1.2-1.1-2.6-.4-4.1,2.6-3.3,3.5-7.6,6.6-10.5,4.9-3.7,8.8-8.4,13.8-12,3.7-2.7,7.2-3.8,11.5-3.6Z"/>
      <path class="cls-1" d="M848.7,497.9c-1.2.9-1.4,2.2-1.1,3.6-3.4,4.6-1.9,9.9-2.2,15-4.3,1.7-5.5-1-5.6-4.3-.2-5.2-.9-10.6,2.3-15.4.6-1.8,1.9-3.1,3.7-3.7,5.1-.9,4.3,1.8,2.9,4.9Z"/>
      <path class="cls-7" d="M842.1,496.7c-.5,4.3-1.2,8.6-1.6,12.9-.3,3.6.5,6.6,5,6.8-5,3.3-6.3.1-6.5-3.9-.3-4.2,0-8.3,0-12.5.6-1.5,1.4-2.8,3.2-3.2Z"/>
      <path class="cls-7" d="M848.7,497.9c.1-2.3.1-4.5-2.9-4.9,1.5-3.6,4.6-5.1,8-6.2-1.3,3.9-1.3,8.4-5.1,11Z"/>
      <path class="cls-28" d="M801.5,609.6c-.3,2.7-2.5,3.1-4.2,3.6-3.5,1.1-5.7-.4-7.4-3.6-4.1-8.2-8.5-16.3-12.8-24.4-1.6-2.9-3.1-5.8-4.8-8.7-1.1-1.9-3.3-3.9-.7-5.7,2.2-1.5,4.3.4,5.7,2.2,2.7,3.5,5.2,7.2,7.6,10.9,5,7.7,9.9,15.4,14.9,23.1.6.9,1.2,1.8,1.8,2.6Z"/>
      <path class="cls-25" d="M352.8,359.9c1.9.3,2.1,1.7,2.2,3.1.1,9.1,5.3,16.2,9.1,23.9,1.2,2.5,4,4.7-.5,6.4-3.5,1.3-7.9,2.6-9.4-1.8-2.5-7.9-4.2-16.1-5.5-24.2-.5-2.9,1.2-5.9,4.2-7.4Z"/>
      <path class="cls-5" d="M950,346.1c1.6,10.4,7.1,18.7,11.5,27.4.7,1.5,1.7,3.1.3,4.6-1.3,1.4-3.1,1.2-4.6.6-6.8-2.3-12.5-25.9-7.2-32.7Z"/>
      <path class="cls-12" d="M306.3,673.6c.6-1,1.1-2.1,1.7-3.1,3.9-2.8,7.7-5.7,11.6-8.5,3.6.2,7.1.3,12.1.6-11,11.7-19.3,23.6-18.6,39.7.7,15.7,6.2,28.9,18.8,38.8-8,2.5-9.4,2-23.5-8.8-11.8-19.2-10.3-38.8-2.1-58.7Z"/>
      <path class="cls-6" d="M247.8,668.8c2.1-4.1,6.4-5.7,9.7-8.6,4.2,1.5,8.1-2,12.8-.9-2.3,5.4-7.8,7.9-10.5,12.6-3.3,5.6-4.5,11.9-6.5,18-.7,2.3.7,7.6-4.3,5.6-3.6-1.5-8.5-3.2-7.3-9.5,1.2-6.1,5-11.1,6.1-17.2Z"/>
      <path class="cls-30" d="M275.2,881.6c-12,4.7-24.5,4.8-37,3.7-4.5-.4-7.2-.3-7.4,5.7-.2,6.8-6.5,9.3-11.6,11.9-9.7,4.9-20.3,5.9-30.9,6.3-13.1.5-26.2,0-38.9-4.1-9.8-3.3-19.9-1.3-29.9-1.8-11.4-.6-14.1-3.2-14.6-14.6-.4-10.9.9-21.7,2.3-32.5,1.4-9.9,8.2-15.5,18.2-14.9,6.7.4,11.7-.6,12.2-8.6.1-2,1.7-3.4,3.6-4.2,5.8-2.3,22.7,4.9,25.1,11,1.1,2.9,2,5.8,4.2,8.1,2.6,2.8,5.9,4.8,9.7,3.7,3.6-1,2-4.7,2.6-7.2,1-3.9.1-8.6,4.4-11.2,3,3.5.9,7.5.7,11.2-.2,5.8,1.4,10,6.7,13.1,11.1,6.7,22,13.9,33,20.8,7.7,4.8,16.8,4.3,25.8,3.8,7.2-.4,14.4-5.2,21.6,0Z"/>
      <path class="cls-30" d="M275.2,881.6c-6.5-1.5-12.8.8-19,1.8-14.5,2.3-27.5.3-38.7-9.6-7-6.2-15.5-9.9-23.4-14.3-7.9-4.4-8.8-9.7-8.2-17,.3-3.3.9-6.6,1.4-9.8,0,0,0,0,0,0,1.6-1.7,3-2.6,5.7-2,10.9,2.3,14.3.3,17.6-9.7,1.7-5.1,4.9-7.1,10.1-4.9,6.3,2.8,11.9,6.4,15.6,12.6,1.3,2.3,3.7,4.3,6.1,5.4,13.1,6.4,26.1,13.1,38.7,20.7,0,0,0,0,0,0,13.2,15.7,12.8,17.1-6,26.8Z"/>
      <path class="cls-30" d="M770,844.8c4.5,4.4,6.9,3.6,7.2-2.9.2-3.8.1-7.7,2.9-10.9,3.2,3,2,6.7,1.3,10.2-.9,5,.4,8.3,5.4,10.7,12.1,5.7,23.5,12.4,34,20.8,1.5,1.2,3.2,2.5,5.2,2.6,13.8.5,27.7,2.3,41.3-1.6,3.3-.9,6.6-3.5,10.1-.5-13,9.2-27.9,8.2-42.6,7.9-5.4-.1-10.2-2.2-10,6.8.1,5.1-5.6,7.9-10.2,10.1-16.2,7.9-33.6,8.9-50.7,6.3-17.3-2.7-34.5-5.4-52-5.6-7.4-.1-10.4-4.2-10.8-11-.7-12.6,0-25.1,2.2-37.4,1.7-9.3,8.5-14.1,18.4-13.6,6.1.3,11.2.1,11.5-8,0-2.6,2.2-4.4,4.9-5.2,6.7-1.9,22.5,6.2,24.9,13,1.3,3.7,2.3,7.6,7,8.4h0Z"/>
      <path class="cls-30" d="M877.4,873.1c-14.8,6-30.3,4.4-45.7,5.2-10.9.6-16.2-7.4-23.5-12.2-7.5-4.9-15.2-9.5-23.2-12.5-6.9-2.6-6.8-6.3-6.2-11.2.5-3.8,2-7.5,1.3-11.4,1.8-4.9,3.1-9,10.4-5.6,4.3,2,10.4,1.5,12.7-5.6,3.7-11.3,13.4-14.1,20.2-4,9.4,13.9,23.9,18.4,37,25.9,6.8,3.9,13.5,7.8,18.9,13.5,7.2,7.7,6.8,11.6-2,17.8Z"/>
      <path class="cls-30" d="M286.6,413.2c5.8,11.2,5,23.1,2.7,35.1-.9,4.6-1.8,9.2-2.8,13.8-1.8,8.3,1.7,14.6,8.6,18.1,7,3.5,13.6.7,18.5-5.2,7-8.5,9.6-19.3,14.4-29,.6-1.2.5-2.8,2-3.4.7,20.8-16.3,51.4-41.9,52.6-10.3.5-20.4,5.1-30.5,8-4.9,1.4-7.8,1.3-5.7-5.1.8-2.3.6-4.9,1-7.4,1-7.4,2.2-14.2,9-19.4,18.2-13.9,27.8-32.1,24.5-55.7-.1-.8.1-1.6.2-2.5Z"/>
      <path class="cls-29" d="M817.9,421.4c-5-1-12.1,1.6-12.1-5.7,0-5.9,6-6.2,10.8-6.2,5.5,0,11.8,1.6,11.6,7.7-.2,6.5-7.1,2.6-10.3,4.2Z"/>
      <path class="cls-29" d="M139.1,770.6c5.6,6.3,12.7,9.5,20.9,10.3,7.8.8,9.2,3,5,9.9-1.1,1.8-1.6,3-1,5.2,2.3,8.2,0,13.7-7.9,14.3-9.5.8-19.1,3.4-28.8.8-4.1-1.1-7.3-1.1-5.6-8.1,1.2-4.9-1-11.6-1.6-17.5,0-.5-.3-1.1-.6-1.6-3.6-7.8,6-16.5,1-22.1-6-6.5-6.9-12.8-6.6-20.4,0-2.2,0-4.5.7-6.6.6-1.7,2-3.7,4.3-3.2,2.2.5,1.6,2.6,1.6,4.2-.1,6.5,1.8,12.4,3.5,18.5,1.3,4.5,3.7,6.2,6.9,8.1,2.7,2.7,5.4,5.4,8.1,8.1Z"/>
    </g>
  </g>
</svg>