<?xml version="1.0" encoding="UTF-8"?>
<svg id="Layer_1" data-name="Layer 1" xmlns="http://www.w3.org/2000/svg" viewBox="0 0 1080 1080">
  <defs>
    <style>
      .cls-1 {
        fill: #f6e9d9;
      }

      .cls-2 {
        fill: #9e9d9d;
      }

      .cls-3 {
        fill: #e3b18c;
      }

      .cls-4 {
        fill: #a1a1a1;
      }

      .cls-5 {
        fill: #dfbfa9;
      }

      .cls-6 {
        fill: #e5b38e;
      }

      .cls-7 {
        fill: #e2b18b;
      }

      .cls-8 {
        fill: #cac2bd;
      }

      .cls-9 {
        fill: #e4b38d;
      }

      .cls-10 {
        fill: #eee;
      }

      .cls-11 {
        fill: #fdcca7;
      }

      .cls-12 {
        fill: #bfbbb8;
      }

      .cls-13 {
        fill: #a09e9e;
      }

      .cls-14 {
        fill: #8a8682;
      }

      .cls-15 {
        fill: #6c6c6c;
      }

      .cls-16 {
        fill: #707070;
      }

      .cls-17 {
        fill: #6c6c6d;
      }

      .cls-18 {
        fill: #a0a0a0;
      }

      .cls-19 {
        fill: #5c5d5a;
      }

      .cls-20 {
        fill: #a1a0a0;
      }

      .cls-21 {
        fill: #9e9e9e;
      }

      .cls-22 {
        fill: #5e5e5e;
      }

      .cls-23 {
        fill: #5b5b5b;
      }

      .cls-24 {
        fill: #c0bebc;
      }

      .cls-25 {
        fill: #fccca7;
      }

      .cls-26 {
        fill: #fccca8;
      }

      .cls-27 {
        fill: #2b2a29;
      }

      .cls-28 {
        fill: #c1bcb8;
      }

      .cls-29 {
        fill: #5c5b5a;
      }

      .cls-30 {
        fill: #a09fa0;
      }

      .cls-31 {
        fill: #5d5e5d;
      }

      .cls-32 {
        fill: #605e5e;
      }

      .cls-33 {
        fill: #6d6d6c;
      }

      .cls-34 {
        fill: #f2e1d0;
      }

      .cls-35 {
        fill: #d0c1b8;
      }

      .cls-36 {
        fill: #a09f9e;
      }

      .cls-37 {
        fill: #fbcca7;
      }

      .cls-38 {
        fill: #5a5a5a;
      }

      .cls-39 {
        fill: #5d5c5c;
      }

      .cls-40 {
        fill: #a1a09f;
      }

      .cls-41 {
        fill: #5a5a59;
      }

      .cls-42 {
        fill: #6d6d6d;
      }

      .cls-43 {
        fill: #fccda7;
      }

      .cls-44 {
        fill: #d84140;
      }

      .cls-45 {
        fill: #292828;
      }

      .cls-46 {
        fill: #2e2c2b;
      }

      .cls-47 {
        fill: #a1a1a0;
      }

      .cls-48 {
        fill: #9f9f9f;
      }

      .cls-49 {
        fill: #595b5b;
      }

      .cls-50 {
        fill: #5e5e5c;
      }

      .cls-51 {
        fill: #bdbcbc;
      }

      .cls-52 {
        fill: #191918;
      }
    </style>
  </defs>
  <g>
    <path class="cls-48" d="M661.93,379.4c3.09.37,4.36,4.54,5.36,7.69,3.61,11.3,5.23,39.38.87,50.24-.49,1.23-1.2,1.52-1.7,2.22l-1.78-3.23c2.39-16.19,3.62-32.99-1.2-48.79-1.33-4.34-5.43-5.88-1.96.07,3.22,16.43,5.09,34.13.24,50.28,2.23,0,3.41.94,3.56,2.81-4.12,3.48-6.97,3.81-10.21-1.14-2.36-1.19-6.09-20.88-5.52-22.02l2.13-1.63c7.25-.67,4.69-10.46-2.36-8.81-1.49-1.48,1.43-34.79,12.54-27.7Z"/>
    <path class="cls-23" d="M666.46,439.55c-.25.35-.78.84-1.13,1.14l-5.69-.63c-.8-4.69,1.94-8.2,2.3-12.41,1.02-12.05.13-27.05-2.34-38.54-.57-2.66-2.57-4.58-2.2-7.43,5.45-1.15,7.26,1.81,8.72,6.59,4.68,15.36,2.94,35.68.35,51.29Z"/>
    <path class="cls-51" d="M661.93,379.4c-5.25-.62-7.13,1.21-9.15,6.17-1.25,3.08-3.58,18.64-2.2,19.94.79.74,5.88-1.91,6.81,2.83,2.1,10.72-1.99,7.62-5.69,10.19s.65,6.65,1.11,9.16c.78,4.26-.66,7.33,2.32,11.87-2.04-.88-2.82-1.84-3.35-4.02-.89-3.66-1.57-9.08-2.32-13-1.12-5.88-2.83-10.8-2.27-17.03.16-1.75,1.69-6.16,2.12-8.66,1.17-6.7,1.45-22.72,12.62-17.44Z"/>
    <g>
      <path class="cls-52" d="M597.28,587.1c.65,4.75,8.44,17.87,10.74,23.87,11.48,29.91,23.73,89.42,21.06,120.92-.17,1.97-.15,3.23-1.18,5.03-11.48,8.98-29.56,12.94-43.54,11.63-3.85-.03-13.97-.21-17.26-.81-7.21-1.31-8.29-1.71-8.38-9.69-2.65-8.69-4.28-17.91-6.89-26.59-1.66-5.52-4.07-5.04-4.51.99-.31,4.17-.82,8.45-1.07,12.55-.34,5.78.74,12.75.06,18.17-.19,1.54-1.09,2.19-2.34,2.82-8.99,1.16-18.02,1.91-27.1,2.25-7.72,3.57-18.51,1.98-27.33.51-4.23-.7-15.55-5.25-17.46-9.12-.66-1.34-.45-4.76.44-6.12,3.86-33.75,9.39-63.09,15.57-96.21,2.34-12.56,7.73-34.06,8.24-45.66,1.81-1.26,3.79-2.08,5.96-2.44,31.07,1.46,61.89-.31,92.42-3.41l2.56,1.31Z"/>
      <path class="cls-44" d="M575.73,415.72c1.58,1.11,2.46,1.49,3.4,3.41,3.54,1.12,4.63,4,1.13,5.68,2.16,5.54,4.05,11.22,5.67,17.03,1.01.3.99.68,0,1.14,2.41,3.9,4.46,8.05,5.67,12.49,3.1,1.2,7.21,9.1,6.81,12.49,2.4,3.39,3.03,6.39,1.13,10.22,1.09,2.73,1.09,6.13,0,10.22,2.26,2.98,2.26,6.1,0,9.08-.07,5.41-1.13,12.1-1.13,16.46v52.21c0,6.05-2.1,13.96-1.13,21-14.53,1.07-29.04,3.93-43.62,4.59-19.02.86-38.35-.82-57.32-.05,1.35-30.42-5.83-66.13-4.54-97.61-2.24-1.43-2.7-3.91-1.4-7.44,9.66-20.38,17.46-39.93,14.94-63.67l2.34-2.66c.73-.25,5.41-2.11,5.67-2.27l2.57.97,3.14,23.2c1.96,10.41,7.99,15.46,18.35,16.64,32.04,3.65,33.54-16.64,32.84-42.64.61-1.72,2.44-1.86,5.49-.44Z"/>
      <path class="cls-25" d="M570.06,348.75c-.32,14.14-1.59,16.89-5.38,29.24-3.24,10.56-4.54,27.53,5.42,34.84,1.62,1.19,3.72,1.55,5.62,2.89-3.96-.14-3.13-.7-3.41,2.78-.85,10.84,1.54,21.78-4.3,32.07-6.59,11.63-29.28,13.16-40.19,7.97-14.6-6.95-10.97-27.42-14.48-40.55,7.69-4.64,8.72-11.34,9.12-19.81.57-12.21-.99-15.16-5.41-25.32-3.27-7.5-1.13-7.9-1.44-13.89,1.44-.5,2.36-1.13,2.75-1.87-.47-5.66-.35-11.2.37-16.6,2.94-5.52,18.69-5.93,24.7-5.92,18.58.05,20.35,2.55,22.15,21.26-.12-5.61,1.37-7.97,4.48-7.09Z"/>
      <path class="cls-25" d="M441.89,406.64c3.05.63,2.5-2.88,4.54-3.96,4.48-2.37,14.86-2.14,19.78-.51l8.57,4.46c.49,5.11.49,10.02,0,14.76-1.76,4.79-1.9,9.14.78,13.52l-.78,1.23q-1.76,1.95,0,0c.64-2.17,1.63-2.17,2.27,0,1.29,1.27,2.42,3.16,3.4,5.68,1.54-1.56,2.15-.88,1.13,1.14,8.34,1.68,9.29-2.42,10.67-9.71l.64-11.38,2.3-1.61c1.2,3.93,9.13,1.15,12.48,0-.31,5.78.44,11.82-.02,17.57-.64,7.96-2.53,20.34-5.23,27.68-4.36,11.85-10.03,13.98-10.63,28.52-2.91-1.93-1.82-1.23-2.79,1.14-5.74,13.91-7.56,28.07-21.12,37.93-28.81,20.94-33.13-26.44-27.93-44.97,4.66-16.61,14.01-34.66,12.21-52.62-.58-5.82-4.93-8.29-9.14-11.84-2.8-3.42-4.07-13.59-1.13-17.03Z"/>
      <path class="cls-25" d="M647.18,405.5c3.55,3.69,3.66,11.99,2.27,17.03-2.56-2.15-2.36.06-3.65,1.46-4,4.36-7.8,7.35-7.79,13.87.04,26.85,17.17,52.25,13.64,78.25-.72,5.31-5.5,16.51-10.98,18.52-8.2,3.01-16.06-.15-22.39-5.42-10.08-8.4-10.46-22.3-18.74-31.76.04-3.02.04-6.06,0-9.08.56-5.6,1.7-11.06,3.42-16.38l-8.11-13.19c-3.92-7.28,1.77-12.81,7.37-6.22,1.5,4.4,5.66,12.46,10.93,10.81l2.05,2.61c2-11.54,1.69-22.62-.92-33.25.82-9.92,1.57-19.76,2.27-29.51,3.05,2.2,3.83-2.2,6.51-3.13,3.53-1.23,15.27-1.05,18.79-.05,2.33.67,3.53,3.98,5.33,5.45Z"/>
      <path class="cls-25" d="M472.52,733.52c-1.36,9.93,2.73,6.9,8.18,9.19.93.39.73,1.74,2.54,2.26,20.19,5.74,40.22,1.73,60.74,1.04-6.29,3.2-27.79,1.27-29.3,3.61-1.02,13.99-6.28,26.27-7.99,40.23-1.28,10.41-.37,21.38-1.56,31.35-1.26,10.51-7.12,22.94-9.63,33.49-.77,3.25-.36,9.15-1.64,11.98-1.92,4.26-19.38,5.3-19.89-2.36-1.76-18.09-7.33-35.95-8.29-54.13-1.1-20.72,5.92-38.77,8.07-58.97.28-2.58,2.72-5.47,1.13-7.79-2.16-3.17-4.03-.42-3.46-8.21.13-1.78,1.1-1.59,1.11-1.69Z"/>
      <path class="cls-25" d="M627.9,736.93c-1.2,2.11-3.8,2.54-4.36,4.15-3.96,11.39,8.94,48.43,10.01,63.4.84,11.66-2.79,43.85-5.91,55.34-.93,3.43-2.43,4.95-5.92,5.42-2.89.39-15.4.8-16.31-1.95-1.56-4.69-1.51-13.36-2.77-18.8-5.82-25.17-8.81-36.22-10.99-62.78-.96-11.72-4.54-21.14-7.37-32.35-9.2-4.23-28.56,5.62-25.57-11.3.66,2.17,1.13,5.81,1.69,6.83,1.8,3.29,21.6,2.54,26.15,2.3,10.34-.54,20.9-3.01,30.25-6.05,3.76-1.23,7.23-3.31,11.1-4.21Z"/>
      <path class="cls-44" d="M609.4,924.56c-2.69-2.27-7.77-1.95-8.7-6.62-.52-2.63,2.71-21.02,3.99-23.2,1.92-3.27,6.31-1.7,9.58-4.04,3.97-2.83,3.61-9.46,11.42-6.87,4.88,1.62,3.75,6.58,5.77,10.13,7.59,13.35,20.99,25.05,21.44,41.08.32,11.53-18.61,11.09-26.35,8.11-9.6-3.7-11.49-13.82-17.14-18.59Z"/>
      <path class="cls-44" d="M493.34,924.63c-2.7,1.87-8.19,4.43-9.53,5.76-3.77,3.74-2.39,10.69-8.37,13.19-6.55,2.73-26.99,5.12-29.64-3.43-5.09-16.49,15.84-31.18,22.94-44.13,1.78-3.25,1.12-8.03,4.58-9.07,9.77-2.94,8.47,5.77,10.98,7.86,2.86,2.39,7.22-.89,10.26,3.35,1.32,1.84,6.43,16.57,6.38,18.7-.11,4.88-4.49,5.61-7.6,7.76Z"/>
      <path class="cls-45" d="M570.06,348.75c-3.12,1.65-1.38,12.53-3.97,12.46-4.76-.13-1.65-19.81-8.56-23.19-5.06-2.47-34.23-.91-36.27,2.45-3.17,5.21,1.65,14.24-1.66,19.65-1.34,2.18-2.67-.74-3.98-1.15-.12-2.29-2.02-4.16-2.21-6.31-.84-9.78,0-19.91,5.77-28.14,2.88-4.11,16.27-8.14,21.17-8.42,5.89-.34,12.24,1.83,17.15,4.93,11.52,7.27,12.85,14.64,12.55,27.73Z"/>
      <path class="cls-25" d="M587.07,420.26c1.16,3.03,2.29,3.79,3.4,2.27,1.5.74,2.8,1.28,4.54,1.14.57,3.68,1.32,7.46,2.27,11.35,3.23-.7,3.63,1.55,1.13,3.41l3.17,4.42c10.32-1.47,12.72,1.62,7.21,9.27,2.48,2.3,3.93,4.93,4.37,7.88,2.9,1.28,2.9,2.12,0,3.41-.87,7.55-8.65-1.67-10.73-4.58s-1.28-7.83-6.28-6.76c-3.11,8.34,7.75,13.7,8.05,19.88.17,3.46-4.38,12.01-4.66,16.44-.05-3.54-.04-6.87,0-10.22,1.86-4.01,1.15-6.65-1.13-10.22-2.98-4.23-4.57-7.96-6.81-12.49-1.22-4.44-3.28-8.56-5.67-12.49-.1-.35.1-.79,0-1.14-1.62-5.8-3.51-11.47-5.67-17.03-.48-1.82.09-3.17-1.13-5.68,2.24.74,6.04.53,7.94,1.14Z"/>
      <path class="cls-25" d="M590.47,422.53c1.37,6.89-6.43,1.91-3.4-2.27,1.72.55,2.45,1.8,3.4,2.27Z"/>
      <path class="cls-25" d="M585.93,441.82c-3.67-4.68-4.18-11.42-5.67-17.03,4.74,3.92,4.21,11.87,5.67,17.03Z"/>
      <path class="cls-25" d="M591.61,455.44c-2.17-4.4-4.3-7.47-5.67-12.49,3.17,2.47,5.61,8.44,5.67,12.49Z"/>
      <path class="cls-25" d="M599.54,478.14c.04-3.52.12-6.85-1.13-10.22,2.49,3.54,5.99,3.98,1.13,10.22Z"/>
      <path class="cls-6" d="M474.78,436.15c2.64,6.78.55,19.94,1.15,27.79.62,8.04,3.28,17.7,3.38,26.12.07,6.06-2.37,14.29-1.14,21h-3.39c-.44-9.57.58-19.41,0-28.96-.19-3.21-2.1-5.86-2.29-9.06-.71-12.16-.25-24.71-1.13-36.9,1.13-.02,2.27,0,3.41,0Z"/>
      <path class="cls-7" d="M613.16,463.39c.03-1.13-.01-2.27,0-3.41-2.64-4.61-2.5-10.46-1.45-15.57l-1.95-2.59v-1.14c-1.09-2.97.47-4.48,3.4-3.41,1.4-2.5.74-2.52,1.13-4.54,1.85.73,2.78,2.08,3.48,3.88,2.62,6.78-.94,31.18-1.26,39.77-.34,9.04,1.05,19.82.1,28.48-.47,4.34-2.78,5.13-3.47,1.09-2.31-13.66-.33-28.92,0-42.57Z"/>
      <path class="cls-25" d="M609.75,441.82c5.29-.35,3.46,13.57,3.4,18.16-1.55-3.07-6.27-4.37-6.59-7.61-.44-4.45,4.29-7.1,4.3-7.71.05-2.72-7.46.63-9.95-.82-.94-.55-1.92-4.24-2.5-5.42,5.47,5.8,5.46,3.8,11.34,3.41Z"/>
    </g>
    <g>
      <path class="cls-47" d="M595.01,419.12c-.2-8.41-1.09-35.48,6.81-40.3,5.75-3.51,11.07,4.62,12.21,9.34.65,2.71,2.29,12.35,2.52,15.07.81,9.53-.42,20.15-2.27,29.51,1.93,2.39,2.73,5.08-1.13,4.54l-2.48-1.86c2.49-17.05,3.27-34.11-2.3-50.43l-2.23-1c4.87,16.81,4.8,34.73,2.14,51.76-2.05,1.91-1.56,3.55,1.46,4.93.99.32.98.7,0,1.14-4.21,2.65-9.21,2.2-11.34-3.41-.33-.67-.79-2.41-1.13-3.41-1.22-5.2-1.97-10.5-2.27-15.89Z"/>
      <path class="cls-25" d="M597.28,435.01c-1.86-5.42-1.98-4.85-2.27-11.35-.07-1.51.04-3.03,0-4.54,2.36,4.38.39,10.72,2.27,15.89Z"/>
      <path class="cls-32" d="M613.16,437.28c-.68,1.21-2.26,2.54-3.4,3.41-12.23,2.88-4.02-2.97-3.42-6.26,1.41-7.73,1.63-21.58,1.21-29.55s-1.92-15.74-4.59-23.21c11.74-1.11,9.24,10.18,10.32,17.47.59,4,1.97,6.95,2.2,11.41.48,9.35-3.7,17.18-2.31,26.73Z"/>
      <path class="cls-16" d="M602.94,419.12c-8.06,1.96-6.26-13.58-2.78-14.7,6.83-2.2,1.56,11.53,2.78,14.7Z"/>
    </g>
    <g>
      <path class="cls-13" d="M495.2,420.26c-.22,8.3.81,29.58-13.61,22.7-.16-1.97,1.14-3.07,3.89-3.3-7.32-16.84-5.94-36.64-2.79-54.6-2.52.22-4.39,8.69-4.56,11.09-1.01,14.26-.05,27.93,3.65,41.81l-1.32,3.87c-1.98-1.97-2.59-2.73-3.4-5.68-4.21-2.59-4.6-10.3-2.27-14.76-.71-6.24-.19-9.15,0-14.76.26-7.91-1.19-31.57,13.62-24.41,7.19,3.47,6.99,30.82,6.8,38.03Z"/>
      <path class="cls-49" d="M480.46,441.82c-3.93-14.14-6.26-31.32-4.57-46,.16-1.38,2.89-10.86,3.33-11.42,1.57-2.02,4.58-1.66,6.91-1.59-3.54,10.8-4.12,22.11-3.39,33.46.48,7.4,1.48,19.73,6.77,24.98l-7.92,1.7c-.34-.16-.78-.79-1.13-1.14Z"/>
      <path class="cls-1" d="M477.05,436.15c-.76,0-1.51,0-2.27,0-.88-2.26-3.26-2.57-3.51-6.23-.18-2.53.87-7.3,3.51-8.53.46,4.05,1.24,11.06,2.27,14.76Z"/>
      <path class="cls-17" d="M488.98,405.51c4.26-.9,3.63,14.21,1.1,14.74-4.26.9-3.63-14.21-1.1-14.74Z"/>
    </g>
    <g>
      <path class="cls-52" d="M964.75,587.1c2.1-3.41,3.61-2.66,4.54,2.27.93,7.48,5.99,22.38,8,31.16,7.76,33.88,19.39,72.72,20.41,107.83.19,6.41-.94,5.21-2.32,8.57-.76,1.41-1.83,2.51-3.22,3.27l-17.32,4.36c-3.97,4.2-14.05,5.79-19.09,3.57-8.11.1-16.07-.61-23.88-2.12-4.3-2.31-4.44-3.2-6.03-8.15-2.74-8.53-3.77-19.3-5.89-28.15l-2.81-2.29c-.49,4.57-.91,9.02-1.15,13.62-.39,18.47-.97,26.63-22.1,24.66-16.93,6.04-35.49,4.42-50.49-5.37-.46-.27-2.4.27-3.41-.51-3.86-2.96.62-28.27,1.13-34.12,2.36-27.11,4.32-56.94,8.05-83.88,1.61-11.62,10.73-19.43,13.52-29.04,1.97-.58,3.95-1.12,5.96-1.5s3.98-.75,5.96-.76c15.38-.11,30.58-.05,45.66.4,13.73-.67,27.33-2.56,40.78-5.68l3.72,1.86Z"/>
      <path class="cls-44" d="M891.03,417.99c1.11-1.67,2-1.07,2.66,1.79.76,23.07,10.4,46.13,36.24,32.69,2.53-3.39,5.06-5.99,7.6-7.81-.59-.07-1.13-.2-1.51-.52-.97-.82.19-22.76.34-25.4.02-.27.52-.51,1.17-.75.07-2.87,2.06-3.36,3.13-.61,3.77,24.68,15.37,42.49,34.72,58.36-3.45,22.97-5.07,46.4-4.87,70.29-.74,13.52-1.65,27.19-3.2,40.34l-2.55.73c-11.39,1.05-23.02,4.76-34.55,5.72-10.52.87-21.47-.08-31.75-.09-11.92-.02-23.86.11-35.77.05,2.55-8.8.19-13.98-.05-22.09-.43-14.71.08-30.95-1.04-45.49-1.08-13.92-5.05-28.45-4.58-42.52l.92-3.93,13.34-15.26,3.89-1.24c9.93-13.11,12.52-27.52,14.13-43.44l1.75-.83Z"/>
      <path class="cls-25" d="M853.6,195.52c3.54,5.45,4.45,16.58,2.27,22.7l-.32,4.2c-7.39,6.06-11.45,9.87-11.75,20-.29,9.95.89,19.75,2.17,29.6,3.63,28.04,8.84,56.54,17.07,83.41l3.71,21.1c1.49,2.35,2.02,4.45,1.6,6.28-.47,5.13.29,5.89,2.27,2.27,5.93,4.15,11.67,9.09,17.22,14.82,2.75-1.09,3.23.79,2.07,3.34-.64,20.52-1.82,41.93-14.74,59.02-5.63,7.05-11.38,14.51-18.15,20.43-9.78-12.72-12.33-31.6-15.59-47.39-2.98-14.4-5.65-18.73-10.12-31.86-5.14-15.1-8.03-32.51-7.21-48.48.21-4.06,2.25-8.46,2.03-12.17-.33-5.58-4.34-15.23-5.26-21.98-2.94-21.73-1.34-48.08-.01-70.11.15-2.43,1.89-5.24,1.93-7.21.04-2.08-1.97-2.34-2.05-2.56l-1.28-.88c1.93-4.79,1.62-9.27.31-14.58l2.1-1.56c-2.54-7.95.24-9.24,7.5-10.96-4.18-.56-7.36-7.94-4.1-10.61,4.43-8.99,19.55-8.77,28.35-6.81Z"/>
      <path class="cls-25" d="M886.49,361.23l1.16-1.06c-1-7.43-.26-14.34,2.23-20.73,3.91-5.03,36.57-7.98,41.85-1.28,1.82,5.62,3.07,11.38,3.75,17.26l3.19,1.27c-.06,3.35,1.39,6.11,1.09,9.51-.43,4.86-4.05,8.1-5.28,11.83-2.94,8.86-.72,15.81-.34,24.06.61.56,1.17,1.14,1.61,1.81,2.49,3.84,1.06,35.42-.81,42.72-19.43,24.18-44.56.64-39.36-24.09l-3.39-16.76c-1.73-2.91-1.74-4.7-.01-5.38-.57-.01-1.1-.08-1.51-.34-.82-.52.24-17.73.37-19.33.02-.28.51-.52,1.14-.75-.62.2-1.12.33-1.19.21-3.05-5.07-7.42-13.62-4.48-18.94Z"/>
      <path class="cls-25" d="M915.98,721.04c-.28,5.52,1.13,19.9-3.74,23.49s-24.72-1.04-26.66,5.68c-1.01,3.51-.64,9.9-1.66,14.23-5.63,24.01-4.98,45.09-10.23,68.08-1.63,7.12-4.39,13.99-6.14,21.09-1.03,4.17-.63,13.62-4.53,14.76-2.81.83-14.56.86-16.32-1.37-1.03-1.3-4.77-22.53-5.43-26.35-1.63-9.41-4.09-22.44-4.66-31.66-1.22-19.85,6.66-40.31,9.13-60.11.43-3.46,4.16-4.67-2.34-8.55,3.01.93,6.39,1.28,9.33,2.36,17.51,6.45,23.83,4.53,42.3,2.19,3.47-.44,8.02.68,11.09-.06.77-.18.83-1.65,1.19-1.8,1.42-.6,3.08-.48,4.09-1.02,4.99-2.68,1.97-16.42,4.59-20.98Z"/>
      <path class="cls-25" d="M995.38,736.93c-5.65,13.64,8.12,48.57,9.12,65.22,1.21,20.08-3.39,40.17-5.97,59.95-4.83,7.49-13.98,2.23-21.25,3.04-1.06-5.95-1.49-12.27-2.85-18.15-3.1-13.48-9.39-29.09-10.68-42.66-1.18-12.49.16-24.15-2.72-37-1-4.47-4.29-10.02-4.9-13.31-.69-3.77,3.38-5-4.42-5.74s-12.3,1.79-19.86-2.26c12.92,1.36,27.32,2.51,39.93-1.24.9-.27.97-1.92,2.45-2.35,6.94-2.02,14.21-3.39,21.14-5.49Z"/>
      <path class="cls-44" d="M980.29,924.56c-4.76-3.9-10.11-1.95-8.68-12.18.29-2.04,3.72-15.53,4.4-17.2,2.66-6.54,7.3-2.37,10.34-4.4,1.87-1.25,1.66-8.6,9.31-7.25,5.73,1.01,4.65,5.78,6.69,9.3,5.85,10.11,25.58,33.81,22.32,45.32-2.21,7.8-19.94,7.05-26.15,5.04-11.2-3.61-11.47-13.08-18.25-18.62Z"/>
      <path class="cls-44" d="M855.01,894.42c1.71,2.13,9.31.5,11.15,3.32,2.14,3.27,6.61,18.38,5.01,21.91-1.47,3.24-12.43,8.03-15.35,10.75-4.22,3.93-3.52,10.24-8.71,12.85-5.05,2.54-22.41,4.14-26.85,1.28-5.16-3.32-4.35-14.69-1.87-19.8,4.08-8.4,18.29-19.94,21.7-28.23,2.08-5.06.57-12.4,10.17-9.25,4.65,1.52,3.29,5.36,4.75,7.18Z"/>
      <path class="cls-46" d="M938.67,356.69l-4.53,3.4c-1.24-4.05-2.72-19.85-4.99-21.68-4.19-3.37-33.04-1.44-36.95,1.86s-1.98,15.16-2.3,20.42c-.21,3.38-1.91,1.43-3.4.55-1.4,1.31-1.46.7-1.13-1.14-1.6-11.21-3.78-34.61,9.39-39.98,10.34-4.21,21.2-5.61,31.31-.18,2.15,1.15,11.22,8.84,12.03,10.67,2.71,6.14.72,19.11.58,26.09Z"/>
      <path class="cls-44" d="M937.53,402.1c5.32,15.12,6.59,31.85,14.56,46.16,5.73,10.29,15.83,19.5,25.14,26.48-6.03,20.81-4.57,46.26-5.62,67.58-.75,15.08-4.23,31.63-2.32,47.06-1.28-2.35-1.88-2.52-4.54-2.27,1.99-3.47,3.03-7.99,3.38-11.94,2.69-29.98.77-61.03,4.6-90.73.58-4.52,4.54-3.01-.6-9.73-6.18-8.08-15.45-14.4-21.44-23.94-6.75-10.74-6.58-19.35-10.8-30.1-.64-1.62,1.11-3.3-2.37-2.69v26.67c0,2.78-8.68,10.28-11.53,11.17-4.42,1.37-17.35,1.13-21.34-.98-2.12-1.12-7.04-9.84-7.99-12.44-2.31-6.32-2.55-12.75-3.35-19.34-.25-2.05.47-4.25-2.3-5.08-2.71-1.1-2.27-8.39,1.13-7.95,1.47,3.82,2.6,7.98,3.4,12.49,1.16,14.91,3.04,32.68,22.17,32.94,20.57.28,18.25-21.1,17.51-35.76-.3-5.87-.86-11.97-1.12-17.61,1.13-.06,2.28.09,3.4,0Z"/>
      <path class="cls-34" d="M858.14,225.03c-2.89-2.92-10.65,6.08-11.86,8-2.71,4.31-1.95,12.33-1.74,17.53.71,17.24,5.2,32.53,7.75,49,1.38,8.89.78,19.69,2.71,27.93,3.61,15.37,12.59,31.7,12.48,48.8,4.41,9.1,14.06,16.39,21.26,23.54,1.3-.97,1.57-16.17,1.2-18.78-.91-6.52-8.79-12.6-4.59-20.94.04.26,1.06.74,1.13,1.14.62,3.43-.13,6.58,1.19,10.73.67,2.1,4.48,7.34,4.48,8v20.43c0,2.88,2.93,16.03,3.4,22.13-2.13-3.77-2.37-8.3-3.4-12.49-3.14-.03-3.19-4.51-2.27-6.81-4.69-5.83-13.87-12.41-19.28-18.16-2.74,1.86-3.92.59-2.27-2.27-3.81-5.89-5.18-24.66-7.34-32.95-5.7-21.89-10.63-40.36-14.1-63.07-2.62-17.12-4.87-35.58-2.97-52.7l11.93-15.86c.51,2.31,1.51,4.56,2.27,6.81Z"/>
      <path class="cls-44" d="M889.9,403.23c2.52,3.14,1.55,3.93,2.27,6.81-.67,2.45-.59,5.66-1.13,7.95-4.57,19.21-3.04,28.19-15.88,44.27,2.2-6.27,6.93-11.32,8.95-17.71,3.94-12.44,3.1-24.68,3.52-37.39.07-2.18-1.16-4.55,2.27-3.92Z"/>
      <path class="cls-9" d="M870.62,385.07c-.09,10.04-3.98,19.37-5.55,29.06-.52,3.19.14,6.64-.25,9.97-.89,7.51-3.75,7.15-4.41.14-1.02-10.89,3.59-25.23,5.64-36.36.36-1.97-.52-4.28,2.3-5.08.92,1.42,1.54,1.5,2.27,2.27Z"/>
      <g>
        <path class="cls-26" d="M972.69,209.14c.59-12.75,24.43-15.63,15.96-1.32,2.43,1.86,4.09,4.16,5,6.89,10.98-1.87,14.62,3.76,10.94,16.88l.99,8.19c2.81-1.58,3.56-.64,2.27,2.27-3.42-.6-2.32,1.6-2.13,3.8,1.7,19.83,4.57,37.74,3.31,58.1-.73,11.83-4.71,24.87-5.71,36.28-1.72,19.82,1.67,34.46-4,55.01-2.68,9.7-9.75,21.41-11.62,30.37-2.24,10.76-1.03,23.49-3.98,34.61-1.29,4.86-5.34,10.52-6.5,14.5-1.18.6-2.29.59-3.22-.29-17.78-16.77-29.33-30.09-33.05-55.54-2.43-4.81-5.59-11.67-3.42-16.81,3.38-.26,2.29-1.92,4.48-4.01,2.65-2.53,17.54-15.95,18.28-17.21,2.24-3.78,2.8-17.34,4.08-22.87,6.86-29.71,14.89-58.81,18.39-89.42.99-8.65,2.47-22.21,1.33-30.55-.83-6.11-9.28-12.47-13.66-16.41-2.28-2.59-1.12-11.69,2.27-12.49Z"/>
        <path class="cls-5" d="M973.83,193.25c2.26,4.25,8.78,1.73,13.03,2.28,6.29.81,11.09,2.63,15.9,6.77,1.12-.04,2.4-6.3,2.83-7.92.25,3.39-.53,7.26.23,10.56.68,2.95,3.09,3.63,3.29,8.15.24,5.58-2.79,7.28-3.45,11.44-.74,4.68.38,10.42-.07,15.25-4.94-7.48,1.38-14.07-1.7-20.44-2.06-4.27-9.6-1.08-11.74-2.44-.37-.24-1.01-3.12-1.91-4.31-1.03-1.37-3.46-2.87-3.82-4.25-.91-3.42,4.89-4.95,2.18-6.61-6.67-4.06-12.22,2.53-15.9,7.4.42-4.62,1.2-11.53,1.13-15.89Z"/>
        <path class="cls-3" d="M961.34,383.94c1.95,1.41,7.6,42.42,5.68,47.66-5.77-.52-2.85-10.46-3.49-15.23-1-7.49-7.51-23.92-5.38-30.54.42-1.31,2.18-2.62,3.19-1.89Z"/>
      </g>
      <g>
        <path class="cls-18" d="M858.14,225.03c-4.29-.83-3.8-3.05-2.27-6.81-1.58-7.15-2.15-15.39-2.27-22.7s-.53-27.2,11.66-23.64c7.28,2.13,10.66,28.64,11.07,35.51s1.93,26.85-6.54,28.76-9.61-5.02-11.66-11.12Z"/>
        <path class="cls-50" d="M863.8,173.96c-2.35,20.06-1.99,41.64,6.81,60.14-4.1.08-5.79,1-8.2-2.57-5.14-7.62-8.22-31.78-7.66-41.11.37-6.13.93-17.41,9.05-16.47Z"/>
        <path class="cls-15" d="M867.22,196.66c.27-.27,2.6-.11,3.46.5.96.68,3.57,14.7.48,15.38-4.77,1.05-4.56-15.27-3.95-15.88Z"/>
      </g>
      <g>
        <path class="cls-2" d="M973.83,193.25c3.1,4.66,2.72,9.95-1.13,15.89-.55,6.14-.78,6.88-2.27,12.49-1.25,4.71-2.76,14.92-8.57,15.89-7.9,1.33-10.21-6.65-10.75-13.02-.81-9.41,1.81-43.28,8.51-49.44,3.83-3.51,10.25-2.03,12.22,2.58.73,1.72,1.95,13.13,1.99,15.6Z"/>
        <path class="cls-29" d="M964.2,175.1c6.53-1.49,7.04,7.16,7.4,11.87.94,12.37.29,34.27-6.01,45.14-1.12,1.93-3.25,5.02-5.92,4.27-4.22-1.18.94-8.6,1.56-10.9,1.81-6.65,2.28-13.57,3.51-20.33l-.54-30.06Z"/>
        <path class="cls-42" d="M960.21,197.8c-.22,3.87.41,7.96-.11,11.81-.18,1.37-.47,4.67-2.71,4.06-2.6-1.27-3.88-18.33,2.81-15.87Z"/>
      </g>
      <g>
        <path class="cls-20" d="M1007.85,242.06c-.14-.08-2.18-2.14-2.27-2.27-1.35-8.98-.94-17.97,1.23-26.98-2.88-4.83-3.66-8.6-2.34-11.31l1.11-7.12c1.1-4.11,2.15-13.72,7.36-14.76,11.51-2.3,11.45,7.6,11.97,16.42.67,11.41-.74,31.27-4.93,41.7-2.27,5.64-6.82,7.63-12.13,4.32Z"/>
        <path class="cls-22" d="M1013.53,180.77c3.86-.69,8.24.86,9.04,5.13,1.12,6.01.71,28.43.08,35.2-.46,4.99-4.22,21.04-9.68,21.06-7.69.03-1.61-4.52-.86-6.64,3.92-11.04,5.34-37.03,3.75-48.59-.41-2.95-2.17-3.6-2.33-6.17Z"/>
      </g>
      <g>
        <path class="cls-40" d="M815.04,179.63c4.67,2.33,10.09,23.43,8.14,26.29-8.68,2.72-6.71,6.35-1.28,11.98-.43,1.98-.45,3.98-.05,6,.32,3.75,1.76,7.24,1.2,11.98-.28,2.35-2.43,4.78-2.33,5.04-9.57,7.36-13.34-3.39-15.37-11.29-2.58-10.06-4.67-34.35-1.71-43.82,1.92-6.15,5.14-7.17,11.41-6.18Z"/>
        <path class="cls-28" d="M825.25,202.33c.7,1.9,1.93,7.17,2.54,7.68,1.88,1.59,7.73-.15,7.66,3.08-6.27,4.2-14.46.64-13.6,10.8-.29-6.95-10.43-9.45-5.75-16.54,1.69-2.57,5.16-2.45,5.57-2.92,2.11-2.39-3.06-21.9-6.63-24.81.8.13,1.47.04,2.24.56,2.57,1.75,6.33,17.7,7.97,22.14Z"/>
        <path class="cls-31" d="M813.9,180.77c-5.75,16.42-2.8,37.66,1.93,54.25.51,1.81,4.56,6.09.85,7.02-4.11,1.02-6.61-3.81-7.85-6.82-4.31-10.43-7.29-40.23-2.94-50.56,1.73-4.1,3.72-4.22,8.01-3.89Z"/>
      </g>
    </g>
    <g>
      <path class="cls-48" d="M436.22,386.21c2.67,4.66,6.22,20.78,3.28,24.14-5.57-.28-5.19,11.22.49,11.06,2.86,3.43-.7,18.84-3.77,22.68-3.05,2.44-4.8,3.43-9.42,2.04-2.36-.71-4.89-8.9-5.39-11.63-1.84-10.1-1.85-31.82.32-41.79,1.7-7.79,8.11-12.87,14.48-6.51Z"/>
      <path class="cls-24" d="M441.89,406.64c.74,5.72,1.78,11.01,1.13,17.03-.24,2.23-3,15.56-3.69,17.33-.83,2.12-1.77,2.03-3.11,3.1,1.5-3.52,4.61-18.07,2.89-20.49-1.12-1.57-4.44-.24-5.17-3.89-.31-1.53-.3-7.65.16-8.96.76-2.17,4.12-1.66,5.05-2.92.42-.58-.42-12.34-.71-14.18-.4-2.56-2.57-4.64-2.21-7.44,3.9,3.89,4.93,14.75,5.67,20.43Z"/>
      <path class="cls-38" d="M432.81,385.08c-.37,3.89-2.94,6.79-3.43,10.75-.95,7.77-.81,27.32-.03,35.28.5,5.13,2.99,9.4,4.59,14.12-2.86.03-6.94.76-8.48-2.28-.26-.51-2.68-8.87-2.79-9.69-.96-7.27-1.08-30.26-.12-37.45.69-5.13,3.74-12.67,10.26-10.72Z"/>
    </g>
    <g>
      <path class="cls-52" d="M226.4,587.1l2.49.35c1.91,2.91,6.84,12.93,5.45,15.54,3.88,3.04.17,4.76-3.4,3.41-6.8,8.64-5.63,52.95.54,57.79,2.93,2.29,8.42.77,10.44-2.15.35-5.04,2.89-14.68,7.16-6.84,4.04,16.21,7.18,32.79,8.64,49.46.42,4.86,1.72,29.33-.51,31.85-.63.71-1.53,1.25-2.45,1.55-10.63,8.36-26.67,10.41-40.07,11.48-4.53-2.09-9.86-2.61-15.98-1.54-4.76.21-7.98-.75-9.73-5.39-1.44-8.37-5.08-25.67-8.2-33.23-.54-1.32-1.94-2.81-3.13-1.95-1.56,1.12-1.61,32.56-2.28,37.45-9.84,2.18-19.9,3.45-30.16,3.8-.55.83-1.12,1.49-1.76,1.56-13.21,1.41-31.01-.46-40.67-8.76l-1.03-3.91c1.67-13.87,3.52-27.71,5.56-41.49-.82-1.11-.59-3.17,0-4.54.51-3.85,1.27-7.63,2.27-11.35-1.51-2.78-.25-10.67,2.27-12.49.36-7.1,3.83-6.72,9.35-4.35,4.9.12,5.9-13.96,6.15-17.56.83-12.33-1.11-25.06-3-37.17-.61-5.45-.86-13.25,3.38-16.97l3.24-1.51c31.05-.71,62.92-1.45,93.34-4.92l2.1,1.89Z"/>
      <path class="cls-44" d="M204.85,415.72c2.3,1.43,3.23,2.53,4.54,3.41l2.85,3.12c3.74,18.34,12.39,34.87,21.35,50.73,3.06,6.25,4.91,12.71-.82,18.17-2.21,9.49-2.81,19.34-1.79,29.55l-2.3,1.71c.54,4.91,1.16,12.81-1.13,16.46.67.16,1.19.33,1.21.53.19,2.86,1.19,23.95.3,24.82-.38.38-.92.59-1.51.76,1.78.9,2.39,2.9,1.81,6.01-.04,4.52-.44,13.21-2.94,16.13-4.58,1.12-9.51.58-14.09,1.22-28.76,4.01-55.37,3.32-84.58,3.32-1.64,1.93-2.4,1.93-2.27,0l-2.16-2.19c-.4-10.7-.28-21.21-.11-31.86l-2.12-2.24c.71-23.55.09-47.45-4.53-70.25,15.59-17.4,19.23-38.16,17.94-61.19l2.33-2.53c.26-.12,2.95-2.48,4.54-3.41,4.71-1.41,5.29,4.19,5.6,8.21-.61,14.63,2.73,30.57,19.58,32.69,32.95,4.14,33.74-16.13,32.85-42.73.58-1.55,2.41-1.69,5.49-.44Z"/>
      <path class="cls-37" d="M136.8,421.39c-.25,5.06.37,10.25-.01,15.31-.98,13.09-2.14,26.09-9.28,37.25-1.69,2.65-8.69,10.11-8.77,11.5-.17,2.98,2.98,13.62,3.31,18.25,1.01,14.31,2.21,40.05,1.15,53.9.56,14.87-1.75,30.7-6.81,44.27-7.53,3.41-10.75,10.71-9.67,21.91l-.54.79c.48,5.75-1.89,8.51-7.1,8.28,3.69,3.75,4.54,7.04,2.57,9.88-3.42,6.78-19.18,9.67-22.68,2.27-2.15-.96-3.12-2.83-2.93-5.61l-4-7.28c.15-1.07,3.05-8.49,4.66-7.55,5.82-7.33,17.66-5.52,19.28-19.86,1.2-10.64-1.57-31.3-2.29-43.12-1.9-31.36-4.95-69.76-2.29-101.08.89-10.44,5.18-21.88,14.38-27.6,8.17-5.08,22.32-7.4,31.03-11.51Z"/>
      <path class="cls-43" d="M278.57,625.69c1.97,2.58,3.39,5.54,4.26,8.88-3.04,2.74-5.22,5.83-6.53,9.28-3.62,8.05-20.58,8.47-23.82,0-3.56-2.35-2.51-5.76,3.16-10.21-4.53.52-7.11.61-7.7-4.54-2.01-4.7-3.15-10-3.4-15.89-3.23,1.02-5.74-4.59-3.4-6.81-3.15-.06-4.66-.82-4.54-2.27-4.46-9.41-6.32-21.29-7.24-32.17-.33-16.71-.56-33.22-.7-49.56.32-9.24-1.52-23.44,1.79-31.69.76-1.9,3.07-3.49,3.61-5.47,1.94-7.09-8.6-21.31-11.88-28.43-5.51-11.98-10.8-24.59-12.8-37.7.68.46,12.09,4.91,14.88,6.11,11.65,5.05,21.3,4.4,29.98,16.54,10.86,15.2,3.25,61.79,2.74,81.16-.64,24.01-1.54,53.62,0,77.28.19,2.91.7,8.64,1.22,11.26.95,4.73,15.74,12.06,20.38,14.23Z"/>
      <path class="cls-11" d="M102.77,741.47c3.6-1.29,8.02,3.08,8.81,3.31,20.37,5.87,43.1,2.58,63.78.09-.62,2.6-10.24,3.25-13,3.45-3.56.26-15.43-1.16-17.09,1.06-1.92,2.57-2.15,12.71-3.12,16.17-6.21,22.13-4.54,34.37-7.76,55.79-1.86,12.35-7.13,24.53-9.79,36.74-1.76,8.1,1.45,11.53-11.06,11.39-6.33-.07-8.12-1.1-9.97-6.8-4.11-12.61-9.39-50.72-8.73-63.88.74-14.7,6.84-28.09,8.98-42.09.24-1.57,1.37-12.63,1.27-13.29-.16-1.01-1.72-1.27-2.32-1.95Z"/>
      <path class="cls-11" d="M255.89,738.06c-.91.97-3.31,2.68-3.42,3.08-.55,2.08-.24,11.76.03,14.5,1.34,13.69,8.75,28.04,10.04,42.16,2.02,22.01-3.39,43.47-6.09,65.12-1.44,2.91-16.06,4.29-19.13,3.25-3.31-1.12-4.52-19.77-5.54-23.96-3-12.37-8.56-24.9-9.79-37.88-1.14-12.04.29-23.73-2.53-36.06-.48-2.1-5.49-18.08-6.09-18.88-3.65-4.91-22.38,5.04-24.41-6.78,1.32.92,2.1,3.35,3.39,3.98,2.49,1.22,21.29.81,25.52.55,12.97-.82,24.55-5.16,36.87-9.07h1.13Z"/>
      <path class="cls-44" d="M238.53,924.56c-3.22-2.63-7.93-1.66-8.7-7.84-.68-5.5,4.82-16.96,5.1-23.14,2.05-4.02,7.52-1.29,9.45-2.47,1.2-.73,1.8-8.96,9.53-7.6,5.73,1.01,4.66,5.78,6.69,9.3,7.02,12.15,21.07,27.14,22.46,41.16,1.35,13.69-22.59,12.26-30.96,7.07-6.36-3.95-8.84-12.61-13.57-16.49Z"/>
      <path class="cls-44" d="M124.04,897.25c.58.65,5.46,14.87,5.69,16.46,1.32,9.16-3.97,7.3-8.52,12.74-10.6,1.06-9.3,11.6-13.8,15.46-4.73,4.05-26.03,5.99-30.23,1.66-1.83-1.89-2.88-7.13-2.86-9.72.11-14.11,19.05-25.94,24-37.35,1.9-4.39-.42-9.11,6.26-9.73,8.58-.8,5.99,5.68,9.02,7.86,2.59,1.86,8.68.64,10.43,2.62Z"/>
      <path class="cls-27" d="M193.51,326.05c3.1,2.76,4.99,6.54,5.67,11.35.3,3.93.06,8.48,0,12.49-3.19,3.05-.2,11.2-5.67,11.34,1.24-3.53-1.82-6.09-2.22-8.56-.84-5.11,1.95-10.77-3.98-14.18-5.58-3.21-32.62-2-36.31,2.35-3.14,3.7.16,16.09-1.74,21.54-1.22-.9-3.65-2.42-4.53-3.4-3.13-7.07-3.99-15.14-2.27-22.7,1.34-3.35,5.95-12.55,8.67-14.59,2.12-1.59,15.48-5.42,18.34-5.59,9.83-.56,16.63,4.49,24.03,9.96Z"/>
      <path class="cls-21" d="M286.51,666.55c-4.23-3.78-7.53-19.96-4.78-23.56,6.86-2.09,8.59-8.81.58-10.36-4.41-4.57-2.5-24.51,4.2-26.23q3.72,2.99,0,0c-.99-.32-.98-.7,0-1.14,12.38-4.49,13.18,15.04,13.66,23.21s2.77,46.94-13.66,38.08Z"/>
      <path class="cls-30" d="M66.48,605.26c7.26,6.33,7.94,18.49,7.36,27.08-10.5,1.34-5.96,8.94,1.35,11.1.56,1.16-1.82,23.97-7.57,23.11-4.73-.94-6-9.69-6.66-14.28-2.01-13.86-2.31-30.38,1.56-43.78-1.48.21-2.19-.66-2.83-2.1,1-1.65,4.99-1.43,6.81-1.14Z"/>
      <path class="cls-22" d="M67.61,666.55c.27.46-.11.84-1.13,1.14-4.12.34-4.22.3-6.81-2.27-7.31-17.6-7.8-40.3-1.13-57.89.36-.21.73-1.05,1.13-1.14,2.18-.45,5.42-.29,6.78,1.7-1.72,1.63-2.94,3.31-3.32,5.73-1.79,11.29-1.38,28.02.23,39.38.64,4.5,2.58,9.15,4.25,13.34Z"/>
      <path class="cls-12" d="M286.51,605.26v1.14c-4.94,1.29-6.98,20.97-4.57,23.31,2.72,2.65,7.47-.05,7.76,8.24.21,6.09-6.95,4.7-7.74,8.72-1.46,7.38,1.97,13.36,4.56,19.89-7.14-3.85-4.61-15.14-7.02-20.82-.93-2.19-2.92-1.61-3.18-1.88-4.27-4.59,4.03-8.23,4.45-9.85.49-1.88-2.45-4.35-2.18-8.31.19-2.88,1.91-13.36,2.79-15.93,1.11-3.24,2.4-3.5,5.15-4.5Z"/>
      <path class="cls-8" d="M66.48,605.26c5.6.91,6.69,10.7,7.8,15.52.47,2.05-1.1,4.45,2.41,3.78-5.58,7.04-.79,9.19,1.44,13.98.92,1.98-.04,4.61.83,6.45-1.67-.89-3.02-2.99-3.36.59-.68,7.08-.51,21.4-9.11,22.11.36-.38.71-.82,1.13-1.14,5.48-4.02,6.87-15.56,5.74-22.06-.22-1.28-3.47-.05-5.21-1.74-1-.97-2.99-6.86-2.64-8.33.85-3.56,6.15-2.56,7.28-4.12,2.48-3.43-2.29-21.79-6.31-25.05Z"/>
      <path class="cls-14" d="M247.95,629.1c3.04,3.57,4.03,10.65.75,14.14l.39,7.43c3.24,18.2,9.04,36.46,10.2,55.06.33,5.36.81,27.51-1.06,30.74-.46.79-1.85,1.08-2.33,1.6h-1.13c4.63-4.07,2.19-5.18,2.22-9.6.18-28.29-2.95-45.98-7.89-73.26-.57-.96-1.46-1.49-2.59-1.69-1.42-12.96-2.9-25.88-4.42-38.76l2.48-1.54c1.27,3.74,3.09,12.02,3.4,15.89Z"/>
      <path class="cls-30" d="M59.67,665.42c-1.74-1.73-3.99-6.04-4.47-8.58-.88-4.59-2.12-15.53-2.37-20.32-.47-9.05,2.24-17.05,2.53-25.95.45-1.63,1.88-2.28,3.18-3.04-5.25,18.33-4.29,39.67,1.13,57.89Z"/>
      <path class="cls-35" d="M247.95,629.1c1.21,4.44,10.34,1.23,11.35,2.28,2.73,2.83-9.65,7.38-6.81,12.48l-3.39-1.13v7.94c-1.43-7.97-.52-13.83-1.14-21.57Z"/>
      <path class="cls-8" d="M107.31,642.72c3.72.88,5.81,12.21,6.23,16.38.79,2.72.22,5.59-1.7,8.59-.78,4.4-1.73,6.87-2.27,12.49l-2.27,11.35c-.07,1.5.13,3.05,0,4.54-.32.99-.7.98-1.13,0,1.26-10.8.67-21.57,4.63-32.33-2.09-3.65-3.89-21.13-6.46-21.93-.87-.27-2.58.99-2.7.91-.28-.17-1.54-4.43-2.46-6.06-1.29-2.3-5.6-4.57-.14-6.19,5.84-1.74,5.17,2.84,7.14-5.91.5,5.98.88,12.04,1.13,18.16Z"/>
      <path class="cls-39" d="M102.77,741.47c-.37-.42-1.61-.37-2.05-1.87-1.43-4.85,2.35-15.94,3.05-21.53.91-7.29,1.54-14.64,2.4-22h1.13c-1.3,15.14-3.38,30.25-4.54,45.4Z"/>
      <path class="cls-25" d="M144.74,358.96c-4.55-5.11-4.62-16.83-2.27-22.7-1.15,8.45.8,14.9,2.27,22.7Z"/>
      <path class="cls-25" d="M199.18,337.4l-5.67-11.35c.31.23,1.5,0,2.23.6,3.16,2.63,3.17,7.11,3.44,10.75Z"/>
      <path class="cls-39" d="M127.72,591.64c-6.26,9.99-.96,19.36,0,28.95.71,7.16,1.24,38.73-3.86,42.66-4.03,3.11-10.66-2.18-12.01,4.43,1.04-5.89-3.28-18.46-4.54-24.97-.71-7.02-3.49-44.41,9.78-39.67,3.49.82,3.82,3.91.97,9.29-4.92,12.35,3.41,78.21,6.53,28.3l-3.67-34.84,2.27-2.81c-3.68-1.41-1.24-10.96,2.27-11.35h2.27Z"/>
      <path class="cls-19" d="M230.93,607.53l1.43,2.87c-3.93,16.95-6.25,39.47,3.11,53.88,5.96-16.52,4.99-36.24.25-53.29-3.7-6.75.35-5.95,5.42-4.6.33.35,3.14,6.03,3.4,6.81-1.2,6.98,1.64,13.35,2.25,19.88.81,8.69.67,13.21,2.29,22.11-5.05-3.96-3.75,4.92-5.17,7.88-2.51,5.26-12.19,5.33-14.7-1.05-3.55-9.01-4.04-36.04-2.85-46.02.4-3.34,2-7.56,4.57-9.62.99.32.98.7,0,1.14Z"/>
      <path class="cls-39" d="M107.31,691.52c.17-3.81-.7-8.29,2.27-11.35-.35,3.64-.11,8.17-2.27,11.35Z"/>
      <g>
        <path class="cls-37" d="M144.74,358.96c.76-1.09,1.76-1.16,2.88-.88-.71-6.09-.38-11.99.99-17.7,4.07-6.81,45.15-11.18,44.85,4.15-.47,5.2.53,16.27,2.96,5.32l2.76.03c-.21,14.28-1.71,15.94-5.43,28.05-.45,1.46-2.56,13.03-2.54,14.45.1,6.65,3.4,16.72,8.59,21.02,1.41,1.17,3.37,1.26,5.06,2.31-3.97-.14-3.13-.7-3.41,2.78-.91,11.61,2.19,23.22-4.72,33.92-5.76,8.92-24.47,10.13-33.91,8.2-11.91-2.45-16.56-14.19-18.07-25.04-.74-5.33,1.69-13.5-3.41-17.58,1.74-1.02,3.79-1.28,5.14-2.23,7.07-4.97,6.44-26.91,3.88-34.61-3.43-10.31-3.67-11.85-5.62-22.19Z"/>
        <path class="cls-25" d="M186.94,359.87c.19.33,3.06,1.52,4.32,3.04,5.1,6.12-1.33,7.27-2.91,11.9-.77,2.24-3.02,14.39-2.77,16.41.33,2.64,2.43,4.46,2.39,8.06-.04,3.16-2.46,5.74-2.31,6.65.53,3.24,8.2,3.72,9.6,6.39s-.86,5.03-.65,7.37,2.66,3.04,3.2,4.77c.61,1.98.75,10.48-1.47,10.53-3.19.08-2.03-9.83-5.65-9.05-6.3,1.36.05,8.51.33,9.9,1.84,8.93-7.02,5.53-12.27,5.35-9.37-.34,5.13,11.65,10.21,8.59,3.37,2.74-9.4,4.5-10.64,4.27-1.76-.33-2.94-3.59-4.91-4.12-2.5-.67-6.76,1.91-8.14.89-.36-.26-1.45-3.54-.79-4.49,1.53-2.18,10.46-1.28,6.41-7.39-4.95-7.47-6.62,0-8.26,3.2-2.59,5.03-11.02-1.15-11.99-4.51-.23-.8-1.46-13.49-1.37-14.43.49-4.94,8.12-13.1,7.98-20.57-.05-2.88-2.12-4.58-2.27-6.82-.2-2.83,1.51-5.9,1.02-10.06-.36-3.09-4.71-13.67-4.55-14.74.12-.84,2.52-1.14,3.39-2.45,3.44-5.19.28-17.08,1.25-23.2,4.21-.05,3.76,6.53,8.48,5.67,4.11-1.04-3.35-8,2.47-10.03,6.37-2.22,7.75,2.42,10.24,3.05,2.07.53,5.15-2.08,7.23-.5,2.72,2.05,1.31,14.39,2.43,16.33Z"/>
        <path class="cls-25" d="M153.81,449.77c4.7-.98,8.49,2.84,2.85,4.53-1.4-1.43-3.28-2.4-2.85-4.53Z"/>
        <path class="cls-25" d="M194.63,446.37c3,3.03-6.71,7.73-4.52,1.71.55-1.51,3.86-2.37,4.52-1.71Z"/>
      </g>
      <path class="cls-41" d="M286.51,606.4c1.01-.26,3.96-.21,5.07.04,7,1.53,6.06,19.68,6.29,25.49.31,7.98,1.15,17.94-.09,26.04-.43,2.84-3.08,8.26-6.18,8.6-6.67.73-1.43-4.23-.82-7.65,2.78-15.46,1.69-38.13-4.27-52.51Z"/>
      <g>
        <path class="cls-14" d="M236.6,604.13c1.44,1.03,3.42,1.08,4.54,2.27l-5.68.58c5.09,17.11,6.41,34.75,2.33,52.25-.44,1.89-.33,3.93-2.32,5.06l-1.8-1.63c3.85-18.04,4.91-37.9-2.74-55.12v-1.14c.79-.64,3.89,0,3.4-3.41.49.46,1.63.68,2.27,1.14Z"/>
        <path class="cls-4" d="M230.93,607.53c4.74-.72,2.62.76,3.54,2.66,3.5,7.29,4.92,24.74,4.39,33.08-.16,2.5-2.57,20.33-3.39,21.01-.45.37-2.65-.03-3.45-.52-1.05-.64-4.28-12.59-4.53-14.77-1.39-12.11-.73-30.13,3.44-41.46Z"/>
        <path class="cls-42" d="M235.37,643.73c-.09.12-2.59,1.23-2.74,1.23-2.56-.08-3.05-15.21.02-15.86,4.08-.86,3.2,14.01,2.72,14.63Z"/>
      </g>
      <g>
        <path class="cls-36" d="M116.38,601.86c2.61.26,4.24,3.47,6.81,1.14-.36,14.74,5.06,29.77,3.39,47.09-.46,4.81-4.64,19.17-8.51,8.53-3.86-10.62-4.73-33.57-2.69-44.72.7-3.84,2-6.28,3.27-9.77-3.62-.06-7.2-.89-8.78,3.12-4.23,10.69-1.98,24.16-2.55,35.47-1.23-6.36-1.37-11.47-1.13-18.16s-.12-23.71,10.21-22.7Z"/>
        <path class="cls-33" d="M119.79,641.58c-.67-2.69-3.21-16.84,1.68-15.88,2.39.47,4.36,16.44-1.68,15.88Z"/>
      </g>
    </g>
  </g>
  <polygon class="cls-10" points="864.92 896.71 859.2 895.7 855.01 894.42 853.34 889.56 850.26 887.23 846.19 886.48 843.97 887.02 846.69 866.99 848.49 867.98 852.13 868.65 856.47 868.88 860.43 868.88 863.01 868.36 863.97 867.85 864.92 896.71"/>
  <polygon class="cls-10" points="999.95 886.27 999.95 880.6 998.2 875.99 998.2 872.56 998.2 868.88 998.53 862.09 996 864.72 992.31 866.05 988.08 866.05 983.19 865.39 978.58 865.05 977.28 865.13 975.95 874.18 975.29 877.97 975.29 882.19 976.21 887.59 977.82 892.41 980.96 891.29 983.86 891.4 986.35 890.77 988.47 886.41 991.77 883.35 994.41 883.51 997.57 884.69 999.95 886.27"/>
  <polygon class="cls-10" points="493.93 896.71 488.2 895.7 484.01 894.42 482.35 889.56 479.26 887.23 475.19 886.48 472.98 887.02 475.7 866.99 477.49 867.98 481.14 868.65 485.48 868.88 489.43 868.88 492.02 868.36 492.98 867.85 493.93 896.71"/>
  <polygon class="cls-10" points="629.45 886.27 629.45 880.6 627.71 875.99 627.71 872.56 627.71 868.88 628.03 862.09 625.51 864.72 621.82 866.05 617.59 866.05 612.69 865.39 608.08 865.05 606.78 865.13 605.45 874.18 604.79 877.97 604.79 882.19 605.72 887.59 607.32 892.41 610.46 891.29 613.37 891.4 615.86 890.77 617.98 886.41 621.28 883.35 623.91 883.51 627.08 884.69 629.45 886.27"/>
  <polygon class="cls-10" points="124.36 896.71 118.63 895.7 114.44 894.42 112.78 889.56 109.69 887.23 105.62 886.48 103.41 887.02 106.13 866.99 107.92 867.98 111.57 868.65 115.91 868.88 119.86 868.88 122.45 868.36 123.41 867.85 124.36 896.71"/>
  <polygon class="cls-10" points="258.43 886.27 258.43 880.6 256.69 875.99 256.69 872.56 256.69 868.88 257.02 862.09 254.49 864.72 250.8 866.05 246.57 866.05 241.68 865.39 237.07 865.05 235.77 865.13 234.43 874.18 233.78 877.97 233.78 882.19 234.7 887.59 236.31 892.41 239.45 891.29 242.35 891.4 244.84 890.77 246.96 886.41 250.26 883.35 252.9 883.51 256.06 884.69 258.43 886.27"/>
</svg>