<?xml version="1.0" encoding="UTF-8"?>
<svg id="Layer_1" data-name="Layer 1" xmlns="http://www.w3.org/2000/svg" viewBox="0 0 1080 1080">
  <defs>
    <style>
      .cls-1 {
        fill: #0b0b0b;
      }

      .cls-2 {
        fill: #eac2a7;
      }

      .cls-3 {
        fill: #9abdd5;
      }

      .cls-4 {
        fill: #e5e2de;
      }

      .cls-5 {
        fill: #545352;
      }

      .cls-6 {
        fill: #545454;
      }

      .cls-7 {
        fill: #e1aa81;
      }

      .cls-8 {
        fill: #e1ac81;
      }

      .cls-9 {
        fill: #272828;
      }

      .cls-10 {
        fill: #3e3d3c;
      }

      .cls-11 {
        fill: #e2e2e2;
      }

      .cls-12 {
        fill: #fccaa3;
      }

      .cls-13 {
        fill: #515251;
      }

      .cls-14 {
        fill: #e6bea7;
      }

      .cls-15 {
        fill: #0d0e0e;
      }

      .cls-16 {
        fill: #a42e2d;
      }

      .cls-17 {
        fill: #282828;
      }

      .cls-18 {
        fill: #0c0d0e;
      }

      .cls-19 {
        fill: #e2aa80;
      }

      .cls-20 {
        fill: #1f75bb;
      }

      .cls-21 {
        fill: #3e3e3e;
      }

      .cls-22 {
        fill: #e3ad84;
      }

      .cls-23 {
        fill: #d2a585;
      }

      .cls-24 {
        fill: #e1aa7f;
      }

      .cls-25 {
        fill: #757776;
      }

      .cls-26 {
        fill: #e2ac84;
      }

      .cls-27 {
        fill: #e1e1e0;
      }

      .cls-28 {
        fill: #070707;
      }

      .cls-29 {
        fill: #ebded1;
      }

      .cls-30 {
        fill: #d84140;
      }

      .cls-31 {
        fill: #282929;
      }

      .cls-32 {
        fill: #0c0d0d;
      }

      .cls-33 {
        fill: #050505;
      }

      .cls-34 {
        fill: #505151;
      }

      .cls-35 {
        fill: #525453;
      }

      .cls-36 {
        fill: #535353;
      }
    </style>
  </defs>
  <path class="cls-3" d="M231.22,935.84c6.59,2.88,1.38,7.82,2.97,10.94,1.94,3.78,16.32,5,20.78,5.01s9.47-1.66,14.01-2.55c-3.8,2.91-3.22,1.53-6.97,2.84-.33.12-.34,1.8-1.19,2-1.74.42-12.42.42-14.16,0-.91-.22-.74-2.17-1.67-2.38-3.4-.79-8.6,1.03-11.43-2.98-2.44-3.46-.17-8.44-1.29-10.27-1.2-1.95-9.1-.3-10.8-2.6,3.1.1,6.7.22,9.75,0Z"/>
  <path class="cls-5" d="M680.75,484c.14.12,1.42-.15,1.22,1.22-7.85,3.29-.14,4.66,2.9,6.21,9.64,4.93,12.59,7.43,11.56,18.61-.95,10.23-3.42,21.84-4.72,32.42-4.94-.23-3.78-9.96-5-13.89-.6-1.92-1.6-3.7-2.31-5.6,2.36,2.27,3.8-.48,4.32-2.38.76-2.75,1.05-7.65.52-10.39-.73-3.75-9.67-10.28-10.69-13.67-.69-2.31-.29-5.79-.24-8.34.04-2.34-1.22-4.88,2.43-4.2Z"/>
  <g>
    <path class="cls-12" d="M902.47,505.92l-2.43,1.78c-6.8-1.77-13.97-2.09-20.91-.99l-2.24-2.02c-.44-2-.02-2.96,1.87-3.31-21.93-43.22-29.14-86.38-28.66-134.63l-1.22-8.22c.17-6.35,3.49-25.36,0-30.45-.9-2.55-.27-5.77,1.89-9.66,4.07-12.78,4.06-15.35-.02-7.72-3.32,5.09-6.79,7.63-10.41,7.64-12.17-21.53-13.52-51.94-10.95-76.1.81-7.6,2.37-15.32,4.86-22.55,13.72,9.13,37.98,17.58,48.79,28.56,12.81,13.03,7.11,33.26,8.49,49.97,1.22,14.75,4.88,25.1,3.62,41.41-.7,9.11-5.52,21.97-4.9,30.44.45,6.09,4.47,15.34,5.75,22.34,2.08,11.45,4.55,25.9,5.25,37.38,1.55,25.23-1.97,51.03,1.23,76.11Z"/>
    <path class="cls-12" d="M713.64,303.75c-5.87,11.99-14.37,17.99-22,3.42l7.39,21.22v7.03c1.58,4.48,3.31,8.88,4.86,13.4-3.18,12.58-7.82,24.74-13.92,36.48l-2.32,8.6c-1.21,24.14-2.8,48.32-4.78,72.54-2.17,6.37-2.59,11.51-2.13,17.57-2.18,2.09-3.47,4.27-.11,7.07l.22,4.74c6.47,5.51,16.33,20.4,8.99,28.19-2.92,3.09-3.34,2.58-5.44-1.02l-3.05-1.06c-5.26-12.21-16.33-21.82-30.03-22.12l-2.25-2.4c3.33-1.73,3.44-5.83,3.7-9.09,2.78-34.74-6-64.22,1.53-99.55.96-4.49,4.05-9.92,4.57-13.7,1.69-12.36-1.21-28.3.09-41.32,1.71-17.12,10.15-33.27,15.13-49.43,4.44-14.41,3.96-30.12,15.19-42.05,9.08-9.64,18.31-8.97,28.84-13.8,4.39-2.01,12.92-9.75,16.21-10.72,2.37-.71,4.66.91,4.85.75.14-.13.18-2.17,1.26-3.64-.66,14.74-1.09,29.86-5.22,44.11-2.92,10.06-15.19,37.13-21.58,44.8Z"/>
    <path class="cls-12" d="M759.93,644.76c1.06.41,1.06.82,0,1.22l-1.75,2.37c-6.77-1.23-10,2.62-9.7,11.54-.92,16.86-1.12,33.72-.62,50.57-.29,13.61-4.27,26.68-8.96,39.34l-3.34,2.13c-1.92,3.27-3.55,6.51-4.87,9.74-3.91,1.23-7.78-.5-11.62-5.18-9.53-12.13.8,5.16,6.32,7.46,2.92.6,4.69,1.86,5.3,3.8-2.4,21.45-3.41,43.19-3.03,65.23-1.43,8.7-9.74,1.06-13.49-2.51l-2.97-.61c-4.32,3.35-9.02,3.33-13.4,0-1.43-41.81-11.62-83.75-8.58-126.1.59-8.21,3.45-16.57,4.6-24.63,1.54-10.82,2.62-21.69,4.04-32.52-.28-3.38-5.07-3.3-8.59-4.3l38.32,3.7,32.33-1.27Z"/>
    <path class="cls-17" d="M830.59,147.86c-1.16,8.89-4.65,17.38-10.46,25.47-2.19,10.01-2.52,10.95-11.49,14.61-6.88,2.81-43.44,6.86-46.42,2.8l-1.07-3.91c-.17-1.17-1.17-2.13-1.22-2.44l-.95-15c-4.29-9.6-5.59-20.03-3.92-31.28.2-7.12-2.23-12.78.61-19.49,2.29-5.41,11.69-15.44,16.81-18.51,11.23-6.72,23.96-6.84,36.78-5.83,11.78.93,18.65,2.69,21.04,15.5,2.31,12.36,4.46,25.96.29,38.07Z"/>
    <path class="cls-12" d="M828.16,214.84c-2.8-.61-2.63,1.37-3.46,3.18-11.57,25.25-18.21,40.69-50.75,37.02-22.33-2.52-21.46-24.44-24.58-41.26-.4-2.17.48-4.53-2.83-3.81,9.17-6.32,16.65-9.15,14.62-23.14,1.26,2.4,1.61,2.3,4.15,2.51,6.68.55,17.73.44,24.46-.09,4.37-.35,21.22-3.64,24.13-6,2.5-2.03,2.55-7.93,4.02-10.92,3.7-7.49,9.97-16.61,12.68-24.47,1.25,5.3,1.81,12.2-.31,17.35-.96,2.32-3.1,3-3.9,4.63-2.23,4.55-2.42,14.23-4.68,19.68s-8.76,7.83-4.57,15.05c1.22,2.11,8.64,8.4,11.02,10.28Z"/>
    <path class="cls-30" d="M711.21,829.88c4.05-.35,7.28,3.47,6.09,7.31,6.2,3.58,11.26,8.39,15.17,14.44l2.21,8.97c-.67,17.87,1.94,32.23,15.01,45.58l-.71,2.87c-8.34,20.85-26.66,5.47-29.53-9.76,6.13-23.34-18.87-40.41-35.85-23.36l-2.84.24c-.2-2.04-.86-4.75-.76-6.48.83-14.13,18.43-21.89,17.82-39.8,4.46-.03,8.95.05,13.4,0Z"/>
    <path class="cls-16" d="M748.97,909.05c.29-1.11.7-1.08,1.22,0-.85,1.74-1.14,4.02-2.4,5.5-7.51,8.83-42.61,10.49-51.86,4.29-3.86-2.59-2.56-7.8-5.43-12.23-3.08,1.25-4.84-.52-3.65-3.65,3.36-1.3,1.79-1.92,1.08-4.05-2.97-8.92-6.13-12.07-7.17-22.74,6.58-15.13,33.4-10.19,39.27,2.76,3.46,7.65.89,16.22,2.21,23.37.64,3.46,12.21,16.29,14.93,16.26,8.08-.08,9.31-8.66,11.82-9.51Z"/>
    <path class="cls-30" d="M812.32,843.28l3.13.66c2.39,9.11,6.58,15.32,12.57,18.6l1.36,2.66c2.55,1.25,7.31,13.77,7.31,16.44v18.27c0,3.48,9.37,10.84,9.62,12.35.28,1.63-3.2,3.17-1.1,5.31-6.77,5.04-15.96,7.1-19.39-3.04l-10.5-23.77c-5.06-10.47-13.64-19-26.09-17.34l-2.49-2.12c-.94-.62-1.38-1.46-1.24-2.55,6.96-6.35,10.58-13.68,10.85-21.99.87-5.95,2.95-7.92,6.23-5.91,3.02-.66,7.61.08,9.75,2.44Z"/>
    <path class="cls-16" d="M845.21,917.57c3.62-.44,10.59-.67,13.4,1.22-7.46-.23-14.18-1.35-20.12,3.64l-42.59,1.2c-8.31-1.58-.26-9.82-5.52-10.92l-.74-2.54c2.21-5.26-.53-11.58-8.23-18.98-4.19-6-2.15-19.63,5.31-19.89,28.42-4.65,32.96,27.22,43.32,46.21,7.13,7.56,8.82.83,15.16.07Z"/>
    <path class="cls-4" d="M829.37,865.2c-.78-.38-2.89-.01-4.51-.92-8.54-4.79-8.02-16.02-12.55-21,4.3-1.31,16.54,1.19,18.9-3.64,1.52-3.11,1.51-17.78,1.96-22.39.26-2.65.85-7.09,2.28-9.29-1.45,12.43-3.33,25.12-4.81,37.21-.8,6.55.5,13.49-1.29,20.03Z"/>
    <path class="cls-14" d="M759.93,184.39c-.7-4.66-.75-11.55-2.02-15.64-1.78-5.68-10.63-10.77-6.83-19.36,2.36-5.35,3.73-2.47,3.98-11.28,2.68,7.3,1.74,16.17,2.53,23.65.28,2.61,1.95,4.89,2.24,7.5.56,4.96-.18,10.15.1,15.13Z"/>
    <g>
      <path class="cls-17" d="M843.99,452.33c3.72-.29,5.95,6.49,6.88,9.84,1.97,7.13,5.86,50.08,4.17,55.4-.41,1.29-1.1,2.73-2.52,2.96l2.25,1.7c-7.82,17.63-9.59,39.14,4.08,54.51,1.02,2.3,2.05,4.71-.66,5.64,1.27,19.8,2.27,39.54,3,59.24l-1.37.7c-4.58.03-8.8.85-12.64,2.46l-56.87,1.6c-6.43-1.08-12.91-1.62-19.42-1.63l-2.44-1.09c.39-18.21.11-36.4-.83-54.57,6.85-7.43,14.82-13.92,23.92-19.47-20.91,4.23-40.18,5.23-59.31-5.66,8.25,9.48,17.69,18.1,28.34,25.86,1.89,17.68,2.39,35.44,1.5,53.29l-2.15,1.64c-10.61,2.02-20.96,3.91-32.38,3.7-13.11-.24-26.5-2.6-38.27-6.14-3.03-.86-12.63-1.85-13.25-4.36-.31-1.22,1.92-6.24,2.16-8.56,1.78-16.62,4.94-32.57,7.44-49.2l3.64-16.58c-2.48-5.27-3.12-17.29,2.45-21.18-1.69-1.79-1.75-4.05-1.57-6.4l3.45-22.41c1.61-14.24-.9-16.66-14.25-21.88-1.21-3.22-1.79-7.95,2.63-6.55l1.28-2.67c4.86,1.06,9.48,3.06,13.86,5.98,2.13-12.52,6.37-24.76,12.69-36.74l2.62-.68,5.51-1.19c39.08,2.01,78.56,1.78,116.61-1.48,5.31-.63,8.46.66,9.46,3.89Z"/>
      <path class="cls-30" d="M746.53,209.97c2.77-1.58,4.36-1.52,4.76.18.2,15.33,4.27,28.18,12.22,38.55,33.06,15.54,50.21-7.36,61.29-35.56l3.35,1.7c2.03,1.61,3.94,3.44,6.09,4.87l1.17,4.34c-7.14,29.27-7.13,62.3,5.44,90.08l-.51,4.22c3.5-.59,10.11,6.3,8.53,9.74.58-.21,1.16-.36,1.71-.29,4.04.51,1.62,24.73.84,28.89l-2.55,1.84c2.34,31.51,1.45,62.23-2.67,92.16l-2.2,1.62c-4.88-1.88-11.3-1.49-16.5-1.27-10.87.47-23.18,2.25-34.01,2.54-27.1.71-54.13-.27-81.06-2.49l-2.16-2.42c-.62-26.76-1.86-53.56-3.71-80.41-2.36-6.85-3.24-13.34-2.65-19.48-4.72-2.92-6.69-8.2-4.87-13.4l-.38-6.54c4.22-8.83,9.22-17.2,15-25.13l-1.19-2.43c15.91-24.77,26.1-52.22,25.38-82.56,1.65-.85,2.56-2.13,2.61-3.92,2.5-3.39,3.27-2.92,6.09-4.87Z"/>
      <path class="cls-33" d="M770.9,644.76c-2.71.12-7.3,2.39-10.96,1.22-.19-.08.17-.93,0-1.22-1.16-1.88.47-34.56.05-40.85-.29-4.36-1.77-8.66-1.49-13.12-7.27-7.34-17.08-12.11-24.17-19.68-1.11-1.19-8.33-9.52-4.21-10.39,1.2-.25,15.21,6.67,19.12,7.65,18.21,4.6,26.53.29,43.29-1.29,1.44-.14,3.96.11,3.93,1.55-.03,1.7-24.72,16.61-26.53,20.96l1.02,11.87-.05,43.29Z"/>
    </g>
    <path class="cls-7" d="M713.64,303.75c-2.98,11.18-12,20.59-14.62,31.67-4.15-11.69-9.22-23.19-12.18-35.31,5.93.25,9.27,13.02,14.06,13.46,3.19.29,10.51-7.14,12.73-9.81Z"/>
    <path class="cls-19" d="M840.34,318.36l8.5-9.16c1.96-2.55,3.5-5.43,5.41-8.02.42-.57,1.41-4.55,3.14-2.3.94,1.23-4.96,27.08-8.52,29.22-1.88-2.75-5.89-5.08-8.53-9.74Z"/>
    <g>
      <path class="cls-12" d="M859.83,642.33c.82-2.17,1.84-2.28,2.44,0-1.28,3.94-12.87-3.48-14.54,6.78-4.66,28.71-.5,57.52-2.53,86.38-1.69,24.07-6.9,48.21-9.73,72.48-1.77,9.75-2.98,19.56-3.63,29.43-.34,9.68-13.21,9.7-19.51,5.89-2.89,1.25-8.02.3-9.75-2.44-6.88,3.45-5.22-7.69-2.44-11.57-.95-.11-2.39-.42-2.44-1.09-.3-4.37-.43-34.55.81-35.86.39-.41.98-.64,1.62-.81-.59-.02-1.15-.09-1.63-.33-1.95-.99-15.39-36.36-14.53-40.94-.3-18.92,1.68-37.8,5.94-56.64,2.12-14.9,1.82-31.94-5.03-44.9-8.21.18-16.4.24-24.55.16l-.39-2.88c2.2-2.56,9.2-4.76,10.96-1.22,28.01-1.2,61.17-2.59,88.93-2.44Z"/>
      <path class="cls-8" d="M831.2,741c5.21-.15-3.25,18.13-4.45,19.89-1.9,2.81-9.26,8.78-12.59,8.1-4.54-.93,3.52-6.84,4.23-7.92,1.91-2.88,10.71-20,12.8-20.06Z"/>
    </g>
    <path class="cls-29" d="M735.57,751.94c-7.52,21.28-6.14,46.07-7.36,68.76-.2,3.81,1.9,22.43-2.97,21.36-1.15-.25-8.4-10.85-7.94-4.86-1.74-2.58-3.19-5.77-6.09-7.31.15,0,.86-1.44,2.68-1.04,4.04.9,8.84,10.23,12.98,3.9l1.39-55.84c.17-3.23,1.95-6,2.45-9.13-3.33-1.55-3.55-4.67,0-6.09.63-3.74.77-8,4.87-9.74Z"/>
    <path class="cls-26" d="M730.7,767.77c-11.64.47-21.61-18.3-21.98-28.57-.09-2.45-1.24-7.87,2.48-6.76.82,13.32,7.57,23.49,19.5,29.24-.31,1.85.29,4.22,0,6.09Z"/>
  </g>
  <g>
    <path class="cls-12" d="M445.63,544.89c-2.67,1.61-6.37,1.62-11.09.04-5.02.55-8.63-.27-10.84-2.48-3.55-3.96-6.02-9.08-7.41-15.36-19.06-36.2-23.56-76.71-22.86-116.46l-1.41-7.02c.65-10.9,1.02-21.96,1.22-32.88l-1.65-3.46,5.03-22.03c-3.52,3.69-6.37,7.99-8.79,12.47l-3.12.85c-.95-1.64-2.84-3.05-3.88-5.26-13.45-28.51-10.93-64.56-4.65-94.61,14.42,9.5,42.27,18.7,52.35,32.31,8.99,12.15,5.16,34.11,6.15,48.66,1.19,17.53,4.71,27.13,2.26,46.14-.8,6.19-4.84,18.42-4.64,23.2.16,3.63,3.53,8.52,4.46,12.6,9.37,40.88,6.36,75.64,7.59,116.65.07,2.32-.11,4.61,1.27,6.64Z"/>
    <path class="cls-12" d="M255.59,345.16c-8.02,10.97-12.88,15.29-21.41,1.22l7.86,20.88c-.26,3.22-.21,6.41.15,9.56,1.21,3.69,2.09,6.99,3.65,10.96l-.07,8.79-13.42,25.45c-3.12,5.39-3.18,11.7-3.17,17.82,2.53,25.46.06,49.15-5.76,74.14-.35,3.18-.19,6.18.49,8.99-.07.51-.2.96-.49,1.23-5.46,5.13,5.1,17,9.72,22.02,5.33,8.61-1.67,26.89-8.01,10.85l-2.88-.34c-3.83-7.02-9.98-13.24-17.92-15.26l-1.13-2.67c-4.39-.24-8.05-1.05-10.96-2.44,1.5-1.69,2.2-3.11,2.49-5.42,4.56-35.84-5.11-67.18,2.73-104.46,5.29-25.14,1.51-47.56,8.55-73.05,2.51-9.08,7.22-18.61,9.98-27.78,5.95-19.76,4.97-40.99,26.2-51.76,10.99-5.57,30.54-10.54,40.2-18.88,3.9,35.1-12.09,60.75-26.8,90.13Z"/>
    <path class="cls-12" d="M237.31,683.74c8.14-3.11,15.01,2.79,3.61,5.32-.72,1.97,1.18,14.08,1.71,16.89.15.79-2.74-11.71,2-14.68,5.29,0,6.84-2.28,4.64-6.85,15.27.54,30.37,1.12,45.3,1.76l.97,5.58c-5.61,30.58-9.35,61.47-11.24,92.67l-9.88,50.63-2.99,4.58c-1.61,7.29-2.02,14.59-1.22,21.92,1.08.23,1.04.64,0,1.22l.91,23.58c-8.72,5.89-27.28,15.25-28.93-1.65-5.79-45.4-17.43-78.22-10.79-125.88,1.57-11.3,6.18-24.07,7.12-34.29,1.25-13.59-1.46-27.23-1.2-40.78Z"/>
    <path class="cls-17" d="M373.76,186.83c-.62,10.25-10.19,33-18.51,38.51-9.33,6.19-36.6,6-47.36,4.46l-3.57-2.78c-.11-5.93-3.01-14.63-3.65-20.7-5.22-6.46-4.41-15.64-2.99-23.43-1.49-9.15-1.3-17.98.55-26.5,5.51-8.68,18.85-20.63,29.18-22.59,9.07-1.72,39.62-2.43,43.6,7.68,2.76,14.88,7.76,30.35,2.75,45.36Z"/>
    <path class="cls-12" d="M368.88,253.81c-9.69,26.82-20.16,43.62-51.78,40.2-22.48-2.43-22.39-23.28-25.01-40.82-.34-2.27,1.53-4.94-2.39-4.25,9.27-6.42,14.87-8.3,14.62-21.92,12.58,1.22,25.54,2.04,38.09-.29,6.04-1.12,13.14-2.37,16.2-8.16,4.36-8.25,12.31-23.23,15.15-31.74.97,5.76,1.47,12.7-.55,18.33-.83,2.3-3.1,3.62-4,5.74-2.55,6.01-2.57,10.87-4.38,16.33-4.34,13.08-12.37,10.41,2.16,23.05,1.02.89,1.56,3.31,1.9,3.53Z"/>
    <path class="cls-30" d="M385.94,906.61c2.85,5.39,1.27,6.83,8.92,6.32l.82.99c-4.49-.27-6.52,2.57-6.09,8.53,1.8,3.67-.46,7.51-6.81,11.5l-5.37,9.21c1.05,1.55.64,3.18-1.22,4.87-7.66,1.03-7.4,8.42-15.17,11.02-9.49,3.18-40.84,1.52-34.78-14.67l-8.52-1.22c.67-3.52,7.54-3.25,8.53,0,2.68-10.42,5-21,6.95-31.76l2.79-1.13c2.96-3.58,11.8,1.01,15.12,3.73,11.46,18.47,12.55-3.67,11.16-14.33,6.04-10.88,19.36-2.28,23.67,6.94Z"/>
    <path class="cls-30" d="M297.01,889.56c1.91-1.46,2.54-.81,1.22,1.22l2.86,6.67c-1.14,5.03.34,8.08,4.45,9.16-.37,1.82-1.96,2.9-4.75,3.22-2.53,7.73-8.28,11.54-15.4,14.07l-4.21,4.63c.99,2.11.35,4.78-1.91,8.01,4.07.13,6.33,1.52,6.79,4.17-12.85-2.51-10.37,3.4-17.06,8.53-11.18,5.86-25.46,4.63-35.42-2.1.68-4.67-.1-8.44-2.34-11.3,3.75-10.13,6.88-20.73,9.37-31.8l2.81-1.09c4.08.8,8.38,1.7,12.91,2.69,2.98,6.46,12.93,1.2,14.61-3.82.45-8.26,3.03-11.7,7.72-10.34l18.37-1.94Z"/>
    <path class="cls-11" d="M297.01,889.56c-4.08,2.32-18.75,1.68-20.76,3-2.94,1.94-.8,12.2-7.35,15.8-.67.37-7.56,2.86-8.14,2.95-4.02.59-4.42-3.64-7.24-4.45-5.43-1.56-7.42,2.63-10.12-3.89-.22-.53.37-2.09-.03-2.38-2.69-1.94-32.22-3.06-37.73-2.5.29-.27.31-1.4,1.18-1.82,4.58-1.49,35.31,3.14,36.6,1.83-.07-4.45-.66-9-1.22-13.4,3.58,13.48,19.66,4.67,27.76-.25.73-7.18-.06-14.48.26-21.68,1.84.02,3.27.57,3.31,2.39l.6,17.4c.25,6.45,5.48,7.81,15.7,4.06,4.22-1.11,6.62-.13,7.19,2.95Z"/>
    <path class="cls-27" d="M298.23,890.78c5.61-2.17,6.31,7.16,6.26,11.64,9.99.2,19.85.79,29.57,1.79-.99-3.85-.34-6.3,1.94-7.34,4.74,7.61,9.09,8,17.63,6.05,4.85-1.11,10.1-9.69,11.61-9.7.11,0-.07,1.2,1.8,1.19,12.67-.07,13.24,1.49,18.91,12.21-5.58-4.31-6.8-11.12-15.24-11.08-13.01.06.17,17.72-9.06,26.36-6.7,6.27-9.62-4.72-13.52-7.3-1.87-1.23-9.36-3.46-12.13-4.32l-3.27,1.57c-7.93-2.34-16.17-3.11-24.41-2.86l-2.77-2.36c-8.99-2.87-4.45-2.99-4.94-7.82-.28-2.76-2.1-5.22-2.37-8.01Z"/>
    <path class="cls-13" d="M223.91,522.97c2.67-2.56,5.78-1.28,6.09,2.44h-7.32c-.75,6.12,1.31,2.27,3.68,3.13s10.19,6.75,11.25,9.36c4.26,10.58-4.27,45.92-6.07,59.09-.45,3.28.3,8.83-.32,13.67-.35,1.06-.75,1.05-1.22,0,.5-2.95.38-6.62,1.21-9.74l-6.09,2.43c4.54-6.72,6.5-16.04,6.14-25.03-.26-6.55-3.45-15.35-6.14-21.25,2.66-.22,1.53,6.06,4.25,4.86,2.54-1.12,3.3-6.57,3.19-9.15-.36-8.35-8.14-10.35-10.5-16.39-1.12-2.88-4.16-13.71,1.85-13.42Z"/>
    <path class="cls-12" d="M295.79,684.95c1.81,1.64,1.01,2.38-1.22,1.22l-43.86-1.21,4.87,7.29c-2.66-.21-10.19.24-11.68,2.4-1.19,1.71,6.04,16.1-4.15,13.45,1.49-5.78-2.79-14.89-1.06-19.94,1.26-3.67,6.87.15,5.92-4.42-2.22-.35-5.3.46-7.3,0-.65-.15-1.05-1.17-1.22-1.22,9.21-1.11,18.41,2.03,27.36,2.49,10.5.54,21.73-.15,32.33-.05Z"/>
    <path class="cls-2" d="M300.66,206.32c-6.16-1.73-8.82-10.59-7.06-16.2.56-1.78,2.86-2.5,3.38-5.13,1.91-9.65-4.66-19.31,1.24-28.6-1.39,9.4-.76,20.11.13,29.71.61,6.57,1.6,13.55,2.31,20.22Z"/>
    <path class="cls-23" d="M255.59,345.16c-3.68,7.34-9.65,17.69-12.25,24.91-.84,2.35-1.73,4.06-1.15,6.76-1.01-3.06-1.05-4.62-1.63-6.48-1.19-3.79-11.63-28.88-10.55-30.05,4.96.12,10.41,12.65,14.17,13.3l11.41-8.44Z"/>
    <path class="cls-24" d="M384.72,358.55c2.63-5.84,7.29-12.12,11.69-16.93,1.23-1.35,1.79-3.06,4.14-2.55l-7.3,31.66c-4.53-3.05-6.21-8.16-8.53-12.18Z"/>
    <g>
      <path class="cls-12" d="M390.81,682.52c-1.91,2.74-7.45-.21-9.21,2.36-.75,1.1-3.95,23.16-4.17,26.27-1.56,21.5,2.94,43.09,3.69,64.48,1,28.79-4.85,58.02-10.1,86.22-1.93,10.39-5.15,20.9-5.79,31.36-2.01,12.97-26.31,20.22-29.24,3.65-1.08-.23-1.04-.64,0-1.22l-2.44-25.58-2.61-2.78-2.03-20.14c-6.13-20.27-8.64-40.56-7.53-60.88,6.8-32.25,7.74-65.15,4.78-98.33l1.3-2.99c3.29-.08,7.47-1.22,9.14-1.22h28.02c7.43,0,18.08-.88,26.19-1.22Z"/>
      <path class="cls-22" d="M377.4,767.77c-5-3.23-5.09-10.54-7.47-15.05-1.13-2.16-13.18-14.36-12.01-15.39,12.82,1.87,20.58,18.45,19.47,30.44Z"/>
      <path class="cls-27" d="M335.99,895.65c-2.25-8.04-1.94-17.34-2.44-25.58,2.48,8.24,2.34,17.09,2.44,25.58Z"/>
    </g>
    <path class="cls-11" d="M270.21,861.55c-2.9-6.29-.28-15.43,1.22-21.92-.69,6.82-.92,14.97-1.22,21.92Z"/>
    <g>
      <path class="cls-17" d="M387.16,491.31c3.32-.97,4.22,1.79,1.22,3.65,2.87,21.76,5.28,43.48,7.25,65.14,3.1.05,2.73,2.89,2.04,5.38-11.29,17.49-6.44,36.61,4.09,52.99-.89,4.84-1.23,10.79.02,16.55.35,15.04,4.11,30.08,2.51,45.53-.59,2.17-11.19,1.87-13.47,1.97l-8.71,1.15c-3.67,2.84-14.47,4.1-17.49.07-.26.95-.64,2.32-1.41,2.44-3.02.45-22.26.55-24.86,0l-1.76-2.44c.21,3.86-7.47,4.6-9.14,1.22-6.78,3.92-18.7,3.85-25.58,0,1.48-4.53,1.07-4.53-1.22,0-1.54,2.38-3.34,2.38-4.87,0-17.42.29-34.21.32-50.36.08-1.68-1.83-4.79-2.67-9.33-2.51-4.76-1.26-8.09-1.69-12.53-2.7-7.5-1.7-3.12-8.9-2.09-14.35,2.21-18.41,5.63-36.8,9.75-54.81-.44-2.96-.43-6.05.03-9.27l-2.21-.69c2.06-10.33,10.47-55.33,6.31-61.92-2.05-3.25-8.53-8.84-12.67-7.78-3.87-7.94,1.38-7.21,7.32-5.59,2.55-1.31,5.81-.83,9.79,1.44,2.18-11.75,6.16-23.28,11.92-34.57l2.65-.97.85-2.44h130.45l1.49,2.44Z"/>
      <path class="cls-30" d="M289.7,248.94l3.71-1.38c1.33,10.32,3.33,20.59,6,30.79,18.5,30.69,61.18,7.99,66.24-22.78l3.24-1.75c2.24,1.47,5.05,3.38,7.31,4.87l1.61,4.33c-5.62,30.57-8.07,64.78,7.42,92.77l-.51,2.77c4.09-.56,7.78,8.37,8.53,12.18,3.47,10.59,3.05,22.59-1.22,32.88l1.3,4.93c-2.11,26.54-3.43,53.08-3.96,79.64l-2.22,3.11h-132.79l-2.1-2.85c2.61-31.18.85-63.23-6.48-93.7l.05-6.97c-4.14-.53-6.63-8.09-3.65-10.96-2.64-12.03,5.68-23.18,13.4-31.67l-.5-4.41c16.47-25.65,24.88-52.85,25.23-81.61l2.07-4.11c2.79-2.4,3.16-3.21,7.31-6.09Z"/>
      <path class="cls-10" d="M221.48,665.47c.17-18.65,5.43-36.67,8.53-54.81h1.22c-2.25,17.55-6.43,37.26-9.75,54.81Z"/>
      <path class="cls-28" d="M300.66,684.95c2.44-17.73.93-36.01.97-53.94-7.84-9.16-19.66-14.46-27.18-23.98-1.19-1.51-5.5-6.37-1.19-6.14,7.41.39,18.23,7.62,26.79,8.56,5.06.55,14.32.43,19.48-.03,3.09-.27,18.23-4.32,18.9-3.63,3,3.14-12.1,11.04-14.51,12.88-3.45,2.64-7.01,6.23-10.44,9.05-1.35,7.01,2.57,54.02.6,56.01-.88.88-10.32-1.58-12.19,1.21-.41,0-.81,0-1.22,0Z"/>
    </g>
    <g>
      <g>
        <path class="cls-35" d="M388.37,494.96c3.39-1.15,5.2,1.62,5.42,8.29.93,17.12,2.44,34.15,4.54,51.09,6.85-5.9,14.13-11.65,23.33-13.97l2.05,2.09c6.12-.81,16.16.15,21.93,2.44,16.72,6.62,27.83,28.31,26.85,45.71-1.7,29.92-32.81,51.15-60.58,37.33-1.75-.87-9.3-7.26-10.12-6.31.06,4.45-.11,8.94,0,13.39-2.38-4.94-.99-12.11-2.77-17.33-.92-2.69-3.65-4.79-4.75-7.43-5.25-12.56-7.51-22.15-3.64-35.73.95-3.35,4.8-8.47,4.93-10.7.43-7.51-2.89-19.03-3.5-26.87-1.12-14.5-1.93-27.52-3.67-42Z"/>
        <path class="cls-25" d="M423.35,581.7c14.98-4.4,16.54,14.17,5.37,16.12-10.39,1.81-13.53-13.72-5.37-16.12Z"/>
      </g>
      <g>
        <path class="cls-35" d="M203.2,538.8l-2.2,2.36c24.42,11.09,34.41,46.84,17.67,68.08-6.73,8.54-2.03-.86,2.8-1.02-8.25,13.89-26.57,17.72-41.05,11.2-32.22-14.53-29.53-69.23,3.64-80.86,1.56-.55,6.97-2.16,8.17-2.2,2.1-.06,8.74,1.41,10.96,2.44Z"/>
        <path class="cls-10" d="M203.2,538.8c9.44,1.21,18.13,9.96,21.93,18.27l2.61,4.94c3.47.13,5.27,8.73,5.51,12.33.52,7.77-1.53,24.71-8.12,29.01-1.5,2.22-1.56,2.7-3.65,4.87-.92.96-6.33,5.78-7.31,4.86,19.33-20.81,10.18-62.23-17.39-70.89-6.5-2.04-10.28.54-16.72.25l7.98-3.58c4.8.25,10.54-.66,15.16-.06Z"/>
        <path class="cls-25" d="M185.74,574.32c11.9-4.1,12.31,16.19,1.29,12.98-5.64-1.64-5.95-11.38-1.29-12.98Z"/>
      </g>
    </g>
  </g>
  <g>
    <g>
      <path class="cls-1" d="M699.02,923.66l35.18.57,140.42,11.86c2.58,1.4,3.74,3.75,3.48,7.05,4.77-.3,4.49,11.86,1.46,12.59-7.83.02-15.64-.6-23.39-1.63-2.02-.09-4.07.05-6.09,0-8.09-2.34-18.24-3.56-30.46-3.65-49.76-2.61-99.63-6.93-149.22-10.97-13.28-1.08-26.67-3.02-40.01-3.85-3.12-1.03-2.6-14.24-1.41-16.84.37-.8,1.6-.93,1.81-1.22,7.68-1.58,15.72-1.13,24.12,1.36,15.01.14,29.71,1.72,44.1,4.73Z"/>
      <path class="cls-17" d="M750.19,909.05l2.06-2.64c11.98.9,23.93,2.2,35.86,3.9l2.28,2.39c3.77-2.13,5.1.38,3.99,7.53l1.85,1c14.14-1.1,28.12-.99,41.95.32,5.86-4.4,13.57-4.27,20.43-2.76,11.59.36,23.89,1.9,35.33,3.65,4.39.53,5.7,2.09,3.93,4.68-7.67,4.35-14.25,9.69-19.76,16.02l-4.24-4.9c-58.52-4.06-116.5-9.7-174.84-14.58-15.49-3.03-31.22-4.72-47.21-5.08-5.94-.54-12.55-2.04-6.61-8.1,2.67-2.72,22.04-6.13,24.51-1.4,8.3-4.3,17.16-3.55,18.15,6.31-.61-4.54.27-7.47,2.63-8.78,2.98-.08,4.77,2.7,5.34,8.35,3.7,7.27,30.4,5.25,37.7,3.42,8.05,2.89,12.76-3.68,16.65-9.33Z"/>
      <path class="cls-17" d="M686.84,902.96c.98.41,2.98,2.61,3.65,3.65v10.97c-8.42,1.69-4.93-5.52-6.23-7.17-.21-.27-5.73-1.44-6.64-1.43-4,.02-5.52,2.53-8.48,2.64-2.28.09-1.61-2.48-2.58-2.63-1.22-.18-11.31.83-13.24,1.19-1.15.22-10.24,2.37-7.9,4.94,7.13,3.37,14.75,2.62,22.52,2.45,9.6-.2,5.59.58,12.45,2.19,6.27,1.47,13.99-2.33,18.63,3.9-22.74-1.9-45.66-2.85-68.22-6.09,1.74-2.37,20.37-16.24,22.79-16.8,8.08.7,26.42-.66,33.25,2.18Z"/>
      <path class="cls-34" d="M893.94,922.44c1.89.29,4.13-.26,6.08.01-.34,5.78,3.76,13.39-.56,18.3s-15.23,9.51-19.78,15.54c-7.51.56-16.17-.41-23.51-2.18,7.74.34,15.44.4,23.15,1.22,1.19-4.06-1.08-9.1-1.22-12.18-.41-8.83,12.88-13.07,18.9-18.26l-3.06-2.44Z"/>
      <path class="cls-6" d="M819.63,950.46c9.12.48,16.85.08,26.19,1.27,2.28.29,4.95-1.55,4.27,2.38-7.58-.18-8.34-1.31-13.02-2.41-5.04-1.18-12.59,1.83-17.44-1.24Z"/>
    </g>
    <g>
      <path class="cls-15" d="M377.41,943.15c.94-2.28,7.12-12.89,8.83-13.18,6.13-1.04,35.27,1.06,41.81,2.76,3.59.93,5.9,1.64,4.18,5.55,6.33.98,5.74,18.48-3.34,12.76-5.85.38-11.64.18-17.37-.58-4.95-.25-9.71-.91-14.62-1.22l-17.06-1.22c-1.19.06-2.51-.15-3.65,0-2.58-3.47-.22-3.31,1.22-4.87Z"/>
      <path class="cls-32" d="M326.25,943.15c-1.32.41-6.58.09-8.53,0-9.92-.47-22.04-.87-31.67-2.44-2.7-.44-6.02-2.29-9.74-1.22,0-3.77,2.36-8.16,4.87-10.95,1.84-3.18,5.63-6.41,9.26-7.17,4.02-.85,38.25,2.97,39.55,5.65-.21,5.52-1.45,10.9-3.73,16.14Z"/>
      <path class="cls-36" d="M395.68,913.92c12.1.12,24.05,2.4,35.96,3.63,4.73.49,20.94-.78,23.13,3.67,1.05,2.12,1.14,13.93-.02,15.83-.94,1.55-15.21,10.86-18.3,13.42-2,1.65-1.15,5.04-5.85,3.63-.89-.27-.73-2.17-1.65-2.39-5.02-1.2-12.61,1.83-17.44-1.24,7.66.39,15.47-.28,23.14,0-1.32-3.7-.93-8.77-2.43-12.17l-1.51-2.51c4.17-5.52,9.54-9.97,16.11-13.35l-53.11-4.59c-.28,3.22-1.65,4.76-4.12,4.62.29-1.66-.42-8.12,0-8.53.21-.22,4.9,0,6.1,0Z"/>
      <path class="cls-20" d="M396.9,949.24c-5.39-.66-12.4,1.51-17.06-1.22,6.44-.33,11.57.87,17.06,1.22Z"/>
      <path class="cls-31" d="M432.23,938.28c-1.16-2.62-4.21-3.2-6.82-3.51-12.58-1.51-26.28-1.09-38.92-3.3-4.49,2.95-5.22,7.48-9.08,11.68,1.49-7.9,9.24-13.66,12.18-20.7,1.08-2.58,1.82-4.01,1.21-7.32l58.88,5.09,1.45,2.23c-5.98,4.87-15.97,8.35-18.9,15.83Z"/>
      <path class="cls-17" d="M305.54,906.61c11.67-.38,19.33.21,30.46,3.65-1.3,4.76-6.86,31.98-9.75,32.88-.85-4.4,4.37-10.96,1.89-14.67-2.03-3.03-33.16-3.7-39.11-4.88-2.52,0-6.18,3.07-7.85,4.93,1.5-6,9.57-8.59,13.4-12.79,5.83-6.4,1.12-8.81,10.97-9.13Z"/>
      <g>
        <path class="cls-9" d="M205.64,898.09c11.98-1.24,24.23-.87,36.73,1.11,2.79-2.47,5.42,2.82,1.04,3.77l-8.68,32.75c-1.13.47-2.34.04-3.5.13-2.51,1.61-6.67.75-9.75,0-12-.39-23.87-2.85-35.94-2.43-4.68.02-3.58-15.93-2.44-18.28.67-1.38,18.87-13.54,22.54-17.04Z"/>
        <path class="cls-18" d="M236.1,918.8l-2.45,15.82-46.89-2.43c-5.1-.81-4.27-17.02.23-18.07,2.15-.5,16.35,3.08,20.49,3.44,9.1.8,19.37.43,28.61,1.24Z"/>
      </g>
    </g>
  </g>
  <g>
    <g>
      <path class="cls-35" d="M642.98,499.83c2.59,1.23-4.65,3.95-4.87,3.64-1.88-2.55,13.96-2.69,17.6-1.6,25.18,7.52,37.12,44.26,22.19,65.42l1.63.74c-5.51,7.01-10.19,13.03-20.18,14.54-49.33,7.43-61.8-68.44-16.37-82.74Z"/>
      <path class="cls-21" d="M684.4,522.97c2.55.76,4,2.12,4.36,4.07.61,5.37,1.59,10.51,2.95,15.42-.88,7.2-3.03,14.1-1.21,21.21l-4.88,16.54c.4-2.66,3.12-18.78,2.43-19.48-2.27-2.31-7.02,5.39-8.52,7.3l-8.52,7.31c-.78-.88,6.64-10.08,7.57-12.52,1.07-2.82,2.96-10.8,3.26-13.79,2.41-24.76-17.37-51.29-43.73-45.56l4.87-3.64c1.64-.52,4.32-2.35,6.09-2.44,16.62-.82,29.83,10.93,35.33,25.58Z"/>
      <circle class="cls-25" cx="646.03" cy="540.14" r="6.95"/>
    </g>
    <g>
      <path class="cls-35" d="M902.47,505.92c11.55,4.09,22.21,17.26,25.23,28.98,11.29,43.83-33.71,77.22-69.07,46.53l3.64,60.89c-.81,0-1.62,0-2.44,0,3.55-10.19-.45-20.92-1.21-31.07-.69-9.26.37-24.04-1.55-32.71-.22-1-5.79-7.18-7.21-10.89-3.93-10.25-4.77-24.41-1.59-34.93,1.47-4.87,3.67-5.73,4.25-12.19,4.8-7.66,12.76-14.23,21.62-17.57l2.75,1.73c7.22-1.77,18.55-1.27,25.58,1.22Z"/>
      <path class="cls-25" d="M882.66,540.21c10.34-1.85,14.06,14.08,5.54,16.6-13.41,3.96-15.34-14.84-5.54-16.6Z"/>
    </g>
  </g>
</svg>