<?xml version="1.0" encoding="UTF-8"?>
<svg xmlns="http://www.w3.org/2000/svg" version="1.1" viewBox="0 0 1080 1080">
  <defs>
    <style>
      .cls-1 {
        fill: #f4f8ee;
      }

      .cls-2 {
        fill: #d6a17a;
      }

      .cls-3 {
        fill: #e3ab83;
      }

      .cls-4 {
        fill: #ddb293;
      }

      .cls-5 {
        fill: #e6b089;
      }

      .cls-6 {
        fill: #fdc9a1;
      }

      .cls-7 {
        fill: #060606;
      }

      .cls-8 {
        fill: #e2a883;
      }

      .cls-9 {
        fill: #282828;
      }

      .cls-10 {
        fill: #d6a37c;
      }

      .cls-11 {
        fill: #f8f8f2;
      }

      .cls-12 {
        fill: #92a3ae;
      }

      .cls-13 {
        fill: #030303;
      }

      .cls-14 {
        fill: #e0e9e9;
      }

      .cls-15 {
        fill: #8b1c1b;
      }

      .cls-16 {
        fill: #e2ad87;
      }

      .cls-17 {
        fill: #dfa986;
      }

      .cls-18 {
        fill: #e6af89;
      }

      .cls-19 {
        fill: #1a75ba;
      }

      .cls-20 {
        fill: #d69e77;
      }

      .cls-21 {
        fill: #d84140;
      }
    </style>
  </defs>
  <!-- Generator: Adobe Illustrator 28.7.1, SVG Export Plug-In . SVG Version: 1.2.0 Build 142)  -->
  <g>
    <g id="Layer_1">
      <path class="cls-6" d="M861.9,257.8c-.3,1.3-.3,2.8-1,3.7-8.9,11.4-10.1,25.3-12.2,38.8-2.8,17.7-5.5,35.3-8.5,53-1.3,7.7-.9,15.3-.6,22.9,1.2,27.8-5.4,54.1-13.8,80.3-8,25.2-16.1,50.4-24.1,75.5-.6,1.9-.9,4.1.1,5.8,6.4,10.2,12.7,20.8,25.6,23.9,7,1.7,12,6.1,16.8,10.9,2.7,2.8,2.6,5.4-.9,7.6-11.7,7.5-19.8,7-30.4-2-6.1-5.1-6.3-5.1-8.7,2.6-4.5,14.1-5.3,15.4-20.6,15-30-.8-60.1-1.1-90.1-1.2-6.2,0-14-6.2-14.8-12-2.4-16.3-9.2-31.4-12.3-47.5-6.6-34.7-18.6-68.5-15.4-104.6,1.9-21.1,3-42.2,6-63.2.8-6,2.1-12.5-3.1-17.7,0-11.7-.1-23.4-.7-35.2-1.1-21.1-2-42.2-3-63.4-.2-3.9-1.2-7.8-1.2-11.7,3.1-15.9,7.7-31.4,13.8-47.7-3.6,2.2-6,4.1-9,4.9-5.2,1.4-8.4-1-7.8-6.2.7-5.9.3-11.8.5-17.7.3-6.5,1.9-12.7,5.1-18.5.6-1.1,1.6-2.1.6-3.5,9.2-6.9,15.9-16.7,26.6-21.9,16-7.8,33.1-11.7,50.1-16,1.6-.4,3.5-.4,5,.8.3,2.2,2.3,2.4,3.8,3.1,10.8,5.4,17.8,14,21.6,25.3,2.2,6.6,4.8,13.1,7.9,19.4,6.2,12.7,7.1,26.1,5.8,40.3-1.6,17.7-7.6,33.6-17,48.4-5.2,8.2-12,15.1-19.8,20.8-4.3,3.1-5.1,6.8-4.2,11.4,1.5,7.8,1.6,15.7,0,23.5-.6,3.2.8,6,.9,9.1.9,17.2-3.3,33.6-9.9,49.2-5.6,13.1-9,26.2-8.5,40.7.6,21.1-3.3,41.9-7.1,62.6-2.7,14.9-3.7,30-4.5,45.1-.5,9.4.1,18.8-1.1,28.2-1.2,9.3,1.5,12.7,10.9,13.4,9.2.7,18.4.8,27,4.6,1,.4,2.1.4,3.3.3,6.5-.7,20.6-13.7,21.4-20.4,1.4-11.3,2.9-22.6,3.3-34,.7-18.1,2.4-36.3,3.3-54.4.7-13.1,1.6-26.2,4-39.2,2.4-12.5,6-24.7,9.4-36.9,3.8-13.4,3.2-27.3,2.4-41.1-.4-7.2-1.2-14.4-.5-21.6.3-1,.8-2,1.7-2.6,5.8,1.7,10.6-.7,15.2-3.7,14.9-9.6,26.5-22.5,37.2-36.4.3-.3.5-.7.8-1.1,4.5-7.3,9.7-13.5,19.7-10.4.3.2.5.3.8.5Z"/>
      <path class="cls-9" d="M333,806.9c10.7-6.2,22.8-6.6,34.5-8,23.5-2.8,47.2-4.3,70.5-8,20.7-3.2,41.2-8,61.6-13.1,17.6-4.3,34.6-4.5,51.6,1.7,7.6,2.8,15.7,1.2,23.4,2.6,10.5,1.8,20,6.3,29.7,10.3,2.3.9,4.5,1.4,6.9,1.9,6.4,1.3,12.1,3.9,15.2,10.2.6,3.6-1.2,4.9-4.5,4.3-4.6-.8-8,1.2-11.3,3.9-13.3,10.8-25.7,22.6-34.2,37.7-12.7,22.4-12,46.1-5.3,70,1.6,5.8,3,11.9,5.9,17.4,1.3,2.5,1.2,4.6-1.9,5.8-23.7,6.3-48,9.5-72.4,11.8-24,2.2-46.8-1.8-69.6-9.5-31.8-10.6-64.7-14.9-98.4-10.7-8.9,1.1-17.8,2-26.7,3.2-2.9.4-4.5,0-4.8-3.4-.9-12.5-4.8-24.4-8-36.4-3.8-7.8-6.7-16-8.1-24.6-.7-4.5.3-8.6,2.9-12.5,6.1-9,12-18.3,18.3-27.2,1.4-1.7,3.1-3.1,4.1-5,4.8-9.3,13.1-15.5,20.5-22.4Z"/>
      <path class="cls-9" d="M404.5,426.5c-7.1-6.6-13.8-2.4-20.6.7-13.9,6.4-27.8,12.7-41.7,19-3.7,1.7-6.4,2.2-9-2.6-5.1-9.6-11.1-18.7-16.7-28.1-9.6-13.6-18-27.3-13.4-45.5,2.6-10.5,3.6-21.5,8-31.6,2.3-3,1.7-6.8,3.2-10.2,6.1-13.9,19.9-17.1,31.3-23.2,41.5-22,83.3-43.4,123.4-68,8.8-5.4,18.4-9.6,28.9-9.9,14.3-.4,28.1-3.9,41.9-7,11-2.4,21.1-.8,31.3,3.1.8.3,1.7.2,2.6.3,3,3.3-.1,4.7-2.1,5.9-5.1,3.1-9.4,7.2-14.4,10.3-3.6,2.3-6.1,5.4-6.9,9.9-2.5,13.8-2.8,27.8-4,41.7-1.1,13.1,3.2,25,8.8,36.5,2.1,4.3,3.4,8.4,1.3,13.1-1.7,4,.3,7.3,3.1,10,6,6,11.7,12.4,18.4,17.8,2.5,2,5.5,4,3.8,8.1-15.3,11.5-32.5,19.6-50.3,26.4-25.4,9.7-51.5,18-74.8,32.6-5.2,3.2-10,7-15.2,10.3-1.9,1.2-3.8,3.1-6.5,1.3-9.8-6.4-20.3-11.8-29-19.8,3.8-2.3,6.3.7,8.6,2.6,4.6,3.8,8.6,4.3,14.1.9,12.3-7.8,26.1-12.5,39.8-17.2,8.2-2.8,15.6-6.9,23.2-11-9.6,2.1-19.3,3.3-28.8,5.6-17.5,4.2-35.1,7.8-52.7,11.4-4.4.9-5.8,2.7-5.4,6.7Z"/>
      <path class="cls-6" d="M781.4,1022.8c-1,.4-1.9,1.2-2.9,1.3-16.6.7-32.9,5-50,2-10.9-1.9-22.4-3.4-33.9-1-17.6,3.7-29.2-4.3-37.2-19.6-7.9-15.1-19.3-28-28.6-42.3-2.6-3.9-7.1-4-10.7-5.9,2.2-2.9.9-5.1-1-7.6-9.1-12.1-16.8-25-23.1-38.8-6.1-13.2-10.5-26.7-10.9-41.5-.2-10,3.6-17.8,9.9-24.9,5.4-6.1,11.7-11.3,18.5-15.6,6.4-4,11.3-9.8,17.4-14,3-2.1,1-4.5,1.3-6.7,4.3,0,8.1,0,11.6-4,15.9-18.5,36.4-30.7,59-39.5-3.3,10.6-2.2,21.5-1.7,32.3,1.6-9.1,3.1-18.2,6.9-26.8,1.3-3,2.8-6,1.7-9.5,19.5-20.3,42.8-28.4,71-24.3,14.2,2.1,27.7,5.5,40.7,11.4,8,20.7,10,42.2,5,63.7-4.3,18.6-16.7,31.8-32.6,42-14.7,9.4-31.1,14.8-47.8,19.3-2.3-.2-5.5.6-6.1-2.3-.7-3.4,2.1-5.4,4.7-7.2,1.9-1.3,5.9-.7,5.7-3.4-.1-2.8-3.8-3.8-6.1-5.4-4.3-3-7.9-2.2-11.5,1.7-6.8,7.2-14.8,12.9-24.2,16.5-13.5,4.3-27,8.7-41.1,11-3.8.6-3.6,3.4-3.5,6,.4,13.7,1.8,27.4,3.7,41,1.6,11.6,6.4,22.1,10.1,33,.7,2.1,2.4,3.6,3.4,5.5,6.4,18.7,3.7,15.8,21.9,16.2,11.3.3,22.8-1.4,34,1.3,1.1.3,2.5.3,3.1-.6,4.6-7,14.9-10.2,13.9-21-.2-1.7.5-3.4,1-5.1,1.6-3,4.6-3.8,7.5-4.8,11.6-4.1,23.8-6,35.6-9.3,1.6-.5,3.5-1.1,4.7.8-2.1,10.2-5.3,20.3-6,30.7-.5,6.9,6.8,10.6,12.3,13.1,8.9,4.1,17.7,8.5,27.2,11.3,3.9,1.1,7.1,3.8,7.2,8.3,0,2.3-8.5,7.2-11.3,6.8-.9-.1-2-.9-2.5-.5-11.3,6.7-17.7-3.2-25.3-7.8-8.2-5-8.1-5.3-10.8,4.1-1.3,4.6,0,12.1-9,10-2.2-5.1-7-7-11.3-9.5-2-1.1-5.4-1.5-4.4-5.3,3.8-1.8,6.8,2.3,11,1.5-.7-4.2-3.2-5.9-7-6.1-3.3-.2-6.6-.6-7.1,4.1-6.5,1.5-12.8-1.7-19.5-.9,13.8,2,25.7,8.4,36.9,16.2Z"/>
      <path class="cls-6" d="M1032.7,844.9c-8.6,1.5-12.1,8-16,14.9-3.9,7-7.7,14-16.3,18-6.7,3.1-8.2,12.5-12.1,19-2.9,4.7-5.4,7.9-11.3,5.3-1.9-.9-3.9-.3-5.4,1.3-1.6,1.7-3.6,2.6-5.8,2.9-6.5,1.2-11.5,4.8-16.5,8.7-7.7,6.1-15.1,5.1-20.7-2.9-4.9-7-9.3-14.3-13.7-21.7-2.5-4.2-5.5-6.1-10.6-6-8.7.3-17.5.9-26.2-1-3.9-.8-6.2,1.8-8.2,4.3-6.5,8.2-12.8,16.6-19.3,24.9-2.3,2.9-4.8,5.7-7.2,8.5-7.5,1.9-15,2.9-22.7.9-5.9-1.5-9.6-5.1-10.8-11-2.5-12.4-.7-24.4,4.4-35.8,3.2-7.2,7-14.1,10.4-21.2,7.3-15.1,15.1-30.1,17.7-47.1,1.5-9.8-1.2-19.1-1.2-28.7,0-8.9-5.1-17.3-2.8-26.5,7.5-.9,14.6,1.5,21.9,2.5,8.5,6.5,16.9,13.2,26,19.1,3.1,2.2,4.8,5.1,5.1,8.9,3.3,10.7,11.9,17,19.9,23.8,2.2,1.5,3.4,3.4,2.5,6.1-1.8,5.3-1.4,10.8-1.2,16.2.3,8.4,0,16.6-6.8,23q11.2-5.6,9.3-16.9c-1.5-8.8-1.4-17.3,3.3-25.4,5.5-9.7,12.7-10.8,21.1-2.9,4.1,7.4,1.3,14.3-1.5,21.3-.7,1.8-3.7,3.7-1.6,5.6,1.9,1.7,4.7.6,6.8-.7,11.1-6.9,23.9-6.1,36.1-7.6,10.2-1.3,19.4,1.6,27.8,7.5,8,5.6,15.9,11.3,26,12.6Z"/>
      <path class="cls-21" d="M581.5,377c-.1-2.6-1.7-4.5-3.7-5.9-7.6-5.3-13.5-12.4-20.1-18.8-3.8-3.7-5.4-7.9-2.8-13,1.3-2.5,1.3-4.9-.2-7.4-12.9-21.1-10.7-44-8.5-67,0-.6.5-1.3.4-1.9-1.7-17.8,9.9-26.6,23.2-34.3,1.9-1.1,5.1-1.3,3.8-4.9,12.4-4.7,22.8-12.2,31.4-22.3,15-17.6,29.4-35.7,47.4-50.5,3.7,2.8.2,5.4-.6,7.6-1.8,4.6-3,9.2-3.3,14.1-1.9,18.4-1.7,36.7,1.3,55,.6,3.4.1,6.9,1.3,10.2,3.1,34.2,3.9,68.6,5.6,102.9.2,3.4,0,6.5-2.5,9.1-24.5,8.2-48.5,17.7-72.5,27.3Z"/>
      <path class="cls-6" d="M764.5,123.7c2.5-.7,4.8.1,7,1.1,17.5,8,36,12.8,54.8,16.8,3,.6,6.1.7,8.9-.9,7.7,4.8,15.5,7.6,24.7,3.3,5-2.3,10.8-2.5,15.4,2,4.6,4.5,4.9,10.1,3.3,15.9-1.1,3.8-2.3,7.6-4.4,10.9-.6.9-1.3,2-.6,3,.9,1.3,2.3.8,3.6.6.6-.1,1.3-.2,1.9-.6,13.4-8.1,28.6-7.1,43.3-8.5,5.6-.5,10.7,1.6,15.7,4.1,10.6,5.4,19.4,14.2,31.5,16.7-11.7,2.1-13.7,13.2-19,21-2.9,4.2-5.4,8.1-10.3,10.3-5.1,2.3-7.8,6.9-9.6,12-1.5,4.2-3.7,7.9-6.1,11.5-2.1,3.3-4.6,5.2-8.6,2.6-1-.6-2.9-1.1-3.7-.5-7.5,5.2-17.5,5.3-24.4,12.3-6.4,6.5-13.5,6.2-20.3.1-2.5-2.2-3.9-2-5.6.5,0,0-.3-.2-.3-.2-.5-12.1-8.6-20.4-14.8-29.7-6.8-2.2-9.7-1.1-12.7,6-5.2,12.3-12.6,22.9-22.3,32.1-6.2,5.9-13.9,9.2-21.9,11.4-8.2,2.2-13.5-2.2-14.2-10.9-1-13.2.9-26.2,3.3-39.1,1.9-10.3,3.1-20.7,4.3-31.1,1.3-11.5-2.2-22.5-6-33.2-3.7-10.5-7.4-21-12-31.2-1.2-2.6-2.3-5.3-.8-8.2Z"/>
      <path class="cls-21" d="M801.1,946.8c-13.7,3.5-27.4,6.8-41.1,10.5-2.1.6-4.6,1.4-6.1,3.5-4.1,3.6-9.2,5.3-14.2,6.9-17.9,6.6-36.3,3.8-54.5,2.6-5.5-.4-9.3-3.5-11.1-8.8.3-4.2-.1-8.3-1.5-12.3-2.5-7.2-2.9-14.6-2.3-22.1.6-7.9,1.4-15.7,1.3-23.6,0-3.2,1.1-6.1,3.6-8.1,9.1-7.3,19.3-12.8,29.1-19,2-1.3,4.5-1.6,7-1.6,14.8,3.3,28.6-1.4,42.4-5.3,15.1-4.3,29.4-10.7,42.4-19.8,12.8-8.9,22.4-20.6,26.9-35.2,3.7-12.2,5.1-25.2,2.7-38.2-1.5-7.7-2.3-15.5-4.5-23-1.2-4.1.9-5.4,4.5-4.3,2.7.8,5.4,1.7,8.3,1.8,2.9.2,3.6,2.5,4.1,5.1,2.7,12.2,4,24.6,5.1,37,1.2,13.8-2.4,26.7-7.6,39.5-6.8,16.5-16.4,31.6-22.7,48.3-3.1,8.2-4.2,16.8-3.3,25.6,1.1,11.6,6.7,15.2,18.3,16.2,3.8.3,7.7-.8,11.7,0-.5,3.6-3.2,4.9-5.3,6.7-8.1,6.7-17.6,10.9-27.3,14.7-2,.8-3.9,1.9-5.8,2.8Z"/>
      <path class="cls-9" d="M1032.7,844.9c-7.2,1.5-13.2-.9-18.6-5.5-13.3-11.3-28.2-16-45.7-11.9-8.6,2-18.1.6-25.4,7.1-.7.7-2,.8-3.1.9-2.6.2-5.9,1.8-7.5-.3-2.1-2.7,1.6-4.4,2.7-6.6,3.8-6.9,5.9-14.1,3.2-21.9-4.7-5.5-11.3-6.4-17-2.2-3.7,2.7-7.4,4.5-11.9,2.1-8.1-6.7-16.3-13.3-19.8-23.8,1-1.2.2-2.7.9-4,2.3-5.5,7.8-7.7,11.5-11.9,1.4-1,3.4-.9,4.7-2.2,9.9-12.1,22.6-20.2,36.7-26.8,14.1-6.6,26.8-1.5,40.3,1,26.6,4.9,40.4,24.3,53.5,44.8,1.5,2.4,2.7,5.1,4.7,7.1,7.9,7.8,9,17.3,8.9,27.8-.1,11.4-4.9,19.1-14.7,24.3-1.2.6-2.2,1.4-3.3,2.2Z"/>
      <path class="cls-9" d="M969.5,188c-6.8,1.3-12.2-1.6-17.4-5.6-4.3-3.3-8.9-6.3-13.7-8.9-6.4-3.5-13.2-5.5-20.8-4.3-7.8,1.3-15.7,1.2-23.5,2.7-4.4.8-8.5,2-12.1,4.7-1.8,1.4-3.9,2-6.1,2.2-2.1.1-4.6,1.3-6.1-.9-1.4-2.1,1-3.6,2.1-5,2.6-3.4,3.9-7.4,4.8-11.4,1.3-5.3,1.7-11.2-3.3-15.1-4.8-3.7-10.4-2.8-14.8,0-8.4,5.5-15-1-22.4-2.2-.6,0-.8-2.3-1.2-3.5,7.3-7.2,9.6-17.3,15.1-25.6,1.2-1.8,2.5-3.4,3.8-5.1,2.9-3.4,5.5-7.3,10.1-8.7,7.8-5.1,15.7-10,23.4-15.3,11.2-7.8,22.5-7.3,35.5-4.1,21,5.3,34.6,18.7,45.9,35.7,5,7.5,9.8,15,15.1,22.2,10.8,14.6,4.8,38.5-11.2,46.5-1.1.6-2.3,1.2-3.4,1.8Z"/>
      <path class="cls-6" d="M310.9,338.4c-.8,9.8-3.1,19.4-5.6,28.6-3.9,14.6,0,26.9,6.7,39.2,1.6,3,4.2,5.6,4.4,9.2-10.5,2-21.2,2.1-31.8,2.8-18.9,1.2-38,.8-56.7,3.1-8.7,1.1-18.3,4.6-23.2,13.9-1.7-.5-2.3-2.3-3.6-3.3-.8-.8-1.6-1.6-2.5-2.3-3.9-3.9-8.7-4.9-14-4.3-2.6-.3-4.8.9-7.1,2-4.6.9-9.4.8-13.8,2.5-1.1.2-2.1,0-3.1-.3-15.6-9.4-20.8-23-14.9-39.3,2.4-3.5,6.5-4.4,10.1-5.7,5.4-1.9,10.5-4.3,15.6-6.8,5,.4,9.5-1,12.7-4.9,1.3-1.5,2.1-3.2,4.4-3.2.5,2.2,1.7,1.1,2.8.6,8.3-4,16.9-7.4,24.7-12.4,19.3-12.2,40.1-18.2,63.2-16.5,5.7.4,11.7,1.2,17.5-.7,2.4-.2,4.8,0,7.1.8,3.4,1.3,5.7,0,7.2-3.1Z"/>
      <path class="cls-6" d="M309.8,834.5c-5.2,7.8-9.7,16.2-15.7,23.3-7.1,8.5-5.8,17.1-2.9,26.3,1.5,4.7,2.7,9.6,4,14.4-6.3-10.5-18-8.9-27.3-11.1-26-5.9-51.4-13.8-76.9-21.7-3.8-1.2-4.6.7-6.1,2.7-9.2-6.7-20-7.7-30.9-8.5-5.7.7-11.7,3.2-16.5-2.3-7.9-15.3-6.8-29.6,3.1-40.8,2.1-1.4,4.6-1.2,6.9-2,5.5-1.2,11.5.3,16.7-2.8,14,5.3,28.1,1,41.4-2,22.1-5,43.4-5.1,65,.9,5.9,1.6,11.8-3,17.9-1.4,0,4-4.3,1.7-5.9,4.1,8.1,3.6,15.4,8.7,23.9,11.6q7.7,2.7,3.4,9.3Z"/>
      <path class="cls-21" d="M138.5,856.8c4.7,4.9,10.3,1.4,15.5,1.8,7,3.3,9.4,14.7,4.3,21.8-3.1,4.3-6.2,8.4-8.7,13.1-3.6,6.9-4.6,14.1-4.1,21.7.4,5.4,3.1,9.3,8.3,10.5,6.9,1.6,10,5.7,10.3,12.5,0,1.7,1,3.5.9,5.2-.5,5,1.7,8.1,6.3,9.7-18.9,6.5-38.1,10-58,6.4-17.3-3.2-26.4-12.8-29.8-30.5-3-15.7-1.9-31.5,0-47.2.8-6.6-1-12.3-3.2-18.4-5.3-14.6-7.3-29.8-2.4-45,3-9.4,9.3-13.3,19.2-14.2,7.2-.7,14.3,2.8,21.4-.3,6.9,5.2,13.3,11.3,23,10.4,2.1-.2,4.4-.2,6.1,1.7-1.9,1.8-4.6.4-6.6,1.5-4.8,1.8-10,2.4-13.5,7.1-5.4,7.1-5.8,14,.1,20.8,3.4,4,7.6,7.3,10.9,11.3Z"/>
      <path class="cls-21" d="M160.6,428.7l2.8.5c7,3.2,7.6,4.5,6,12.1-1.6,7.4-4.5,13.9-9.6,19.7-5.9,6.8-5.3,15.9-5.7,24.3-.1,3.1,2.9,5.2,5.6,6.8,2.4,1.5,5,2.7,7.2,4.5,8.2,6.8,9.9,11.4,6.1,21.2-1.6,4,.2,5.5,2.6,7.4-1.9.6-3.7,1.6-5.6,1.7-18.8.6-37.6,3-56.3-1.4-9.4-2.2-15.4-7.8-19.7-15.9-7.8-14.9-8.3-31.2-4.6-46.8,2.7-11.3,1.9-21.4-1.2-32-3.4-11.7-1.6-23.4,1.2-34.9,2.3-.4,2.6-.4,3.3-4.5,1.1-6.2,4.9-9.9,10-12.9,3.2-1.9,6.1-2.2,9.1,0,2.9,2.1,6.1,2.7,9.8,2.6,8.8-.2,12.9,3,14.7,10.6-.3,4.6-3,8.6-3.1,13.3-.1,5.1,1.1,9.3,4.9,12.9,4.1,4,9.1,6.7,13.4,10.4,2.8,2.4,5.9,0,8.8.4Z"/>
      <path class="cls-21" d="M745.8,116.7c3.5.9,7.1,1.9,10.6,2.8,4.4,1.6,6.7,4.7,8.5,9.2,5.7,14,11.7,27.9,15.8,42.4,2.7,9.6,3.8,19.4,2.8,29.7-1.9,20.5-7.7,40.4-7.3,61.2.2,14.8,5.6,18.2,19.5,12.8,18.8-7.3,28.9-22.5,37.2-39.6,1.3-2.8,2.4-5.7,4.9-7.7,2.5-1.9,5.5-2.1,8-.3,2.2,1.6,1.3,3.9.3,5.9-8.1,17.8-16.3,35.4-28.3,51-4.3,5.5-8.3,11.3-13.9,15.7-13.2,10.7-28.9,13.9-45.3,14.9-5.9.4-11.9.1-17.8,0-8.2-.1-9.6-1.9-8.8-9.8.6-6.1,1.2-12.5,0-18.4-1.8-9,1.3-14.8,8.4-19.9,11.5-8.3,18.7-20.2,24.2-32.7,5.8-13.2,8.9-27.4,9-41.9.1-10.1-1.7-20.1-6.3-29.2-3.5-6.8-6.5-13.8-8.7-21.2-2.5-8.4-7.5-15.2-14.8-20.3-1.4-1-3.6-2-2.9-3.8.9-2.5,3.2-1.1,5.1-.7Z"/>
      <path class="cls-21" d="M630.4,808.2c5,1.4,4.7,3.3,1.1,6.6-8.7,8-18.5,14.6-27.6,22.1-20.3,16.5-22.9,27.1-16.2,51.8,6,22.3,17.2,42.2,31.3,60.4.7.9,1.1,1.9,1.8,2.7,3.9,4.2,1.6,5.3-2.7,5.5-11.1-3.4-22.3-6.7-33.4-10.1-3.2-1-6.4-2.4-9.5-3.6.6-1.5,1.6-2.4.7-4.6-6.9-16.4-11.2-33.3-10.9-51.4.3-18.1,6.2-33.5,16.7-47.9,8.7-12,20-21.2,31.1-30.8,3-2.6,6.1-2.4,9.2-1.6,2.9.7,4.1,0,4.6-2.7,1.6.9,1.7,3.4,3.9,3.7Z"/>
      <path class="cls-15" d="M175.7,525.2q-7.4-.6-4.2-7c4.2-8.5,1.2-16.8-8.2-22.3-1.9-1.1-4.1-1.8-5.8-3.1-4.3-3.2-6.9-7.1-5.1-13,1.2-3.9,1.6-8.1,1.9-12.2.3-3.8,2.3-6.6,5.1-8.9,7-5.9,7.6-14.5,9.3-22.5.7-3.2-1.3-4.9-4.6-4.8-3.6,0-1.4-1.3-.6-2.3,4.3-3.8,9.8-2.7,14.8-3.5,7.1,4.8,15.3,4.6,23.4,5.3,2.4.5,2.5,2.5,3.1,4.2-5.1,13.7-17.9,21.8-24.5,34.4-1.5,2.9-3.1,5.7-4.6,8.7-2.1,4.1-1.6,7.8,1.4,11.5,4.9,6,9.5,12.3,14.3,18.5.8,3.4,2,6.7,0,10.1-4.3,4.3-9.2,7.2-15.6,6.8Z"/>
      <path class="cls-15" d="M171.3,953.1c-1.7,0-3.5-.2-5.2-.2-2.9,0-3.7-.7-2.8-3.9,1.6-5.6-1.3-11-1.9-16.6-.3-2.5-3.2-4.2-6.5-4.7-7.8-1.3-10.8-5.5-11.3-13.5-.8-13.1,4.1-23.8,12.3-33.5,5.3-6.2,4.3-16.3-2.1-21-.2-.1.1-.8.2-1.3,10-1.5,18.9,3.3,28.3,5.1,2.4.5,2,3.1,2.6,4.8-2.9,10.4-11.3,17.9-14.7,28.2-2.9,9-4.4,17.1,2.8,24.9,2.7,3,4.4,7,6.2,10.7,5.5,11.3,3.7,15.7-7.9,20.7Z"/>
      <path class="cls-21" d="M745.8,116.7c-1.4.2-2.9.4-4.4.6.5,2.2,2.3,2.8,3.6,3.9,5.7,4.6,10.7,9.6,13,16.9,3,9.4,7,18.3,11.2,27.3,7.2,15.6,6.5,31.9,2.6,48.2-4.2,17.9-11.5,34.4-24.5,47.8-3.5,3.6-7.1,7.1-11.1,10.2-2.6,1.9-3.7,3.9-3.6,7.1.2,9.4.2,18.9.1,28.3,0,3.1.1,5.9,4.2,5.9,15.7-.2,31.4.7,46.9-4.1,13.8-4.3,23.2-13.5,31.6-24.3,12.6-16.2,20.6-34.9,29.6-53.1.6-1.2,1.3-2.7-.3-3.4-2.3-1-4.9-1.2-6.8.6-1.9,1.8-2.9,4.3-4.1,6.7-7.6,15.5-16.7,29.9-32.7,38.2-5,2.6-10.2,4.8-16.2,4.4-5.2-.3-7.8-2.6-9.1-7.6-3.2-13.1.3-25.7,2.1-38.4,1.7-11.9,3.7-23.8,4.5-35.8,1.1-15.5-3.9-29.8-9.2-43.9-2.9-7.6-6.6-14.8-9.2-22.4-1.5-4.5-4.3-7.5-7.8-10.1,3.8-.8,5.4,2.7,8.1,4.2,4.8,14.9,11.4,29.2,16.3,44.1,4.6,14.1,4.8,28,2.7,42.5-2.5,18.1-7.2,36-6.1,54.5.6,10.7,5.5,13.4,15.6,9.8,20.5-7.3,31.3-23.4,39.5-41.9,3.7-8.4,9.7-10.5,16.1-5.4,1.1,2.2.5,4.2-.5,6.2-8.6,16.9-16.1,34.3-27.5,49.7-7.2,9.7-14.7,19-25.8,24.6-1.7.9-3.4,2.2-5.5,1.5-.4.3-.8.7-1.3,1-6.5,4-13.9,4.9-21.2,5.6-10,.9-20,.4-30,.3-2,0-3.9-.4-5.5-1.8-1.3-3.8-.7-7.7-.4-11.6.5-6.7.8-13.5-.5-20.3-1-5.1,0-9.1,4.9-13,21.3-16.7,32.6-39,35.8-66,2-16.7.1-32.1-8.1-46.8-4.1-7.3-4.7-15.9-9.3-23-4.4-6.8-9.8-12.3-17.4-15.5-2.1-.9-4.6-1.4-2.3-4.5,4,.7,8.5-.7,11.8,2.9Z"/>
      <path class="cls-21" d="M834.2,929.2c1.4-1.9,2.8-3.7,4.5-6-2.3.3-4.1.6-5.9.7-19.5.4-26-7.3-24.4-27.9,1.4-17.9,11.9-32,18.9-47.6,7.7-17.1,16.1-34,14.6-53.7-1-13.3-2.4-26.5-5.2-39.6-1.1-5-5-3.1-7.9-3.9-2.2-.6-4.8-3.2-6.5-.7-1.3,1.9,0,5,.6,7.5,4.3,16.2,6,32.3,2.7,49.2-4.5,22.9-18.5,38.1-37.8,49-18.1,10.3-37.6,17.1-58.2,20.9-6.2,1.1-12.1,1.2-18.2-.4-3-2.4-6.4-1.4-9.4-.4-10.6,3.7-21.5,6.1-32.4,8.5-4.8,1.1-6.6,3.4-6,8.3,1.6,12.6,2.8,25.2,3.8,37.9.7,7.7,4.1,14.7,6.3,22.1.7,2.5,1.5,5,1.3,7.7.8,4.5,3.6,7.1,7.9,7.4,15.6,1.4,31.3,3.7,47,.6,3.6-.7,6.7-3.6,10.7-2.5-.8,3.7-4.2,4.4-7,5-17.7,3.8-35.4,2.7-53.1,0-.9-.1-1.5-.8-2-1.6-6.6-3.7-6.5-11.1-8.8-16.9-8.2-20.4-8.2-42.2-9.9-63.7-.4-4.9,1.3-6.6,6.4-7.4,11.7-1.8,23.1-5,34.2-9,2.3-.8,4.6-1.5,7-1.6,1.6-.8,3-.2,4.3.5,4.9,2.6,10,2.8,15.2,1.8,5.3-1,10.7-1.2,16-2,22.4-6.1,44.3-13.6,61.6-30,12.6-11.9,19-26.8,20.2-44.2,1.1-15.3-1.2-30-5.5-44.5-.5-1.8-1.1-3.3,0-4.9,6.6-.5,12.6,1.9,18.7,3.8,3.5,19.5,8.3,39,5,59.1-2.6,15.7-10.1,29.6-16.9,43.8-4.5,9.6-10.3,18.8-13.5,28.8-2.9,9.2-4,19.3-1.1,29.1,1.1,3.9,3.9,6.3,7.6,7.4,5.5,1.7,11.2,2,16.9.8,2.5-.5,4.7-.9,7,.4-2.2,3.6-4.8,6.8-9,8.1Z"/>
      <path class="cls-13" d="M404.5,426.5c-4.4-6.5-4.4-6.4,3.1-8,21.8-4.6,43.5-9.2,65.3-13.9,6.4-1.4,12.8-2.8,19.2-4.2,1.4-.3,3.3-1.2,4,.6.7,1.9-1.4,2.4-2.6,3.1-12.4,7.6-26.3,11.6-39.7,16.9-9.9,3.9-20.1,7.6-28.6,14.4-2.9,2.3-4.9.5-7.1-.7-4.2-2.1-6.9-6.9-12.2-7.2-.4-.4-.8-.8-1.3-1.1Z"/>
      <path class="cls-21" d="M135.7,392c-2-7.3-7.3-9.6-14.2-9.2-2.9.2-5.5-.6-8.1-2-7.7-4.1-16.8.6-18.4,9.4-.7,3.7-1.6,7.2-4.5,9.9-1.4-1.2-.5-2.8-.9-4.2.2-5.2,2.1-9.8,5.2-13.8,4.8-6.2,12.1-7.7,19.1-4.1,2.8,1.5,5.5,1.9,7.1-1.3,4.9-9.4,12.5-11.3,22.1-8.7,9.7,2.5,19.4,4.8,28.3,9.7-2.4,5.6-8.3,5.6-12.8,7.5-4.1,1.7-8.3,3.3-12.2,5.4-3.4,2.2-6.9,3.1-10.7,1.3Z"/>
      <path class="cls-4" d="M296.6,340.7c-.9,3.9-4.1,2.4-6.5,2.6-11.5.7-23.1-.4-34.7.9-12.6,1.5-23.3,6.9-33.9,12.8-10.3,5.7-20.8,11-31.6,15.8-1,.5-2,.9-3.3.2.6-1.1,1.2-2.2,1.8-3.3,18.5-12,37.7-23,58.8-29.6,16.1-5,32.9-2.6,49.4.6Z"/>
      <path class="cls-17" d="M309.8,834.5c-.4-2.2,1.6-3.5,2.3-5.9-10.9-2.2-19.7-8.9-29.6-13.1-1.4-.6-4.2-.3-3.8-2.7.4-2.4,3-2,4.9-2.1,1.7-.1,3.6.4,4.8-1.3.5,0,1,0,1.6-.1,5.6-.9,11.3-1,16.9,0,1.5.1,3.2,0,4.5.4,7.7,2.8,15.2,4.2,21.5-2.9-8.3,8.8-16,18-23.2,27.6Z"/>
      <path class="cls-15" d="M147.6,816c-1.1,0-2.2-.3-3.2,0-10,2.9-16.8-4.8-25-7.7-2.6-.9-1.1-2.8-.8-4.4.2-.8.6-1.3,1.5-1.2,7.4-2.3,14.8-2.3,22.2,0,7.1,3.7,14.4,6.7,22,9.3,1.1,3.5-2.1,3.3-3.8,3.7-4.2.9-8.5.9-12.8.4Z"/>
      <path class="cls-16" d="M707.8,760.7c2.1,0,4.3,0,2.7,3.2-5.7,12.1-8.8,24.8-10,39.5-2.9-4.1-3.4-7.3-3.4-10.6,0-5.4.2-10.9,0-16.3-.3-4.6.5-8.6,4-11.8,2.3-1.3,4.6-2.6,6.8-4Z"/>
      <path class="cls-5" d="M781.4,1022.8c-4.1.2-7-2.3-10-4.4-8.2-5.9-17.9-7.6-27.4-10-1.7-.4-4.3-.3-4.1-2.4.3-2.8,3.2-1.8,4.8-1.6,6.5.7,12.9,1.7,19.3,2.6,1.2,0,2.2.3,2.7,1.4,4.1,4.2,10.2,5.1,14.6,9,2,1.8,2.7,3.1,1.3,5.3-.4,0-.9,0-1.3.1Z"/>
      <path class="cls-21" d="M906.6,764.6c-.2,2.3-2,2.4-3.7,2.7-7-.3-13.2-3.9-20-5-3.7-.7-7.4-1.5-11.6-2.2,4.7,4.9,11.6,6.3,14.6,12.4.1.7,0,1.2-.6,1.7-8.2-4.5-15.3-10.6-22.8-16.1-1.1-.8-1.5-2.5-2.2-3.9,13.7,1.7,26.9,5.7,40,9.5,2.2.6,4.2,1,6.4.9Z"/>
      <path class="cls-15" d="M142.2,802.7c-7.4-1.2-14.8-1-22.2,0,7.4-4.1,14.8-3.8,22.2,0Z"/>
      <path class="cls-6" d="M307,809.4c-5.6,0-11.3,0-16.9,0,5.6-1.9,11.3-1.9,16.9,0Z"/>
      <path class="cls-19" d="M191.3,518.4c0-3.4,0-6.7,0-10.1,1.7,3.4,4.7,6.7,0,10.1Z"/>
      <path class="cls-8" d="M789.3,309.4c32.7-18,44.6-51,59.4-82,3,4.5,5.6,9.2,8.9,13.4,4,5.1,6,10.4,4,16.8-1.5.8-2.9,3.4-4.4,2.2-6.5-5.1-8.4.9-11,4.4-11.9,16-24.6,31.1-41.5,42.2-3.9,2.6-8,4.4-12.6,5.3-1.6.3-2.4-.7-2.7-2.2Z"/>
      <path class="cls-8" d="M650.9,237.7c-6.8-15.7-5.9-32.3-4.6-48.7.4-5.5-.7-11.3,2-16.5-.3,6.1.6,12.3-.7,18.3-1,4.5,1.5,5.7,5.2,4.6,3.1-.9,6-2.6,8.4-5.1.9-1,1.9-3,3.7-1.4,1.1,1,.1,2.4-.4,3.6-5.8,13.9-8.8,28.7-13.3,43.1-.2.6-.2,1.3-.2,2Z"/>
      <path class="cls-3" d="M662.9,285.5c-.6-3.9.5-7.7,1.4-11.5.3-1.3.8-2.6,2.5-2.4,1.4.2,1.2,1.6,1.3,2.6.2,11.6,4.1,22.1,9.7,32.1.8,1.5,1.2,3-.2,4.1-1.4,1.2-2.3-.3-3.3-1.1-7-6.4-12.7-13.4-11.4-23.8Z"/>
      <path class="cls-18" d="M791.8,592.5c-5.7,2.1-10.3-.3-15.1-1.3-9-1.8-17.1-6.6-26.5-7-1.4,0-2.8-.3-2.7-2,.1-1.7,1.6-1.7,3-1.8,9.3-.7,18.2,1.7,26.8,4.8,4.8,1.7,10.4,2.3,14.5,7.5Z"/>
      <path class="cls-7" d="M405.9,936.4c4.7-3.6,8.5-.5,12.2-.5,10.7,0,21.4-.7,32.1,1,13.1,2.1,26.3,3.7,39.2,6.7,1.2.3,3.1,0,2.8,1.8-.3,1.9-2,1.5-3.7,1.4-11.5-.7-23.1-2.9-34.4-2.6-16.4.3-31.5-3.7-48.1-7.8Z"/>
      <path class="cls-20" d="M743.2,871.4c-8.4,2.9-16.8,4.6-25.8,4.1-4.2-.2-6.1-3.9-9.8-4.4,8.1-4.3,16.1-9,22.1-16.1,3.9-4.6,7.7-6.1,12.7-2.2,1.4,1.1,2.9,1.8,4.3,2.9,1.9,1.4,5.2,2.2,5,4.7-.3,3.3-4.1,2.4-6.4,3.4-1.6.7-3.1,1.6-4.4,2.7-1.2,1-2.5,2.5-1.9,3.9.7,1.6,2.8.6,4.2,1Z"/>
      <path class="cls-2" d="M909.3,806.5c5,1.2,8.5-2,12.5-3.9,6.9-3.3,13.3-1.6,16.4,4.1-4-3.8-9.3-6-13.6-3.1-5.6,3.9-8,10.6-8.8,17.5-.8,6.4.3,12.7,1.8,18.8,1.2,4.6,0,7.2-3.8,9-4,1.8-6.4,6.7-11.7,5.9.7-4.3,4.1-6.9,6.2-10.3,1.6-2.6,2.1-5.1,2.3-8,.6-8.6-1.9-17.5,1.9-25.9,1.3-3-3-2-3.1-4.1Z"/>
      <path class="cls-10" d="M907.3,882.3c-8.2,1.5-15,1-21.6.7-8.2-.4-16.4-1.6-24.6-2.5-1-.1-2.4.1-2.6-1.3-.2-1.7,1.2-2.3,2.5-2.4,3-.2,6.2-.6,9.1,0,8,1.7,16.1.8,24.1,1.1,4.2.1,8.1.9,13,4.5Z"/>
      <path class="cls-12" d="M891.3,778.4c-.6,1.4-1.1,2.9-1.7,4.3.3-3.7-1.8-6.2-4.3-8.6.2-.2.4-.4.6-.7,4-.7,5.3,1.4,5.5,4.9Z"/>
      <path class="cls-21" d="M675.1,960.6c-9.1-18.3-10.6-38.1-12.1-57.9-.4-4.6-.9-9.1-1.4-13.7-.3-2.8.6-4.5,3.6-5.1,13.1-2.6,26.1-5.6,38.6-10.2,3.4-1.2,6-.2,7.8,3-9.6,0-14.8,8.7-22.9,11.7-.2,0-.3.3-.5.4-12,5.1-15.4,13.8-15.2,26.9.1,13.3-1.3,26.4,3,39.4.6,1.7.7,3.9-.7,5.7Z"/>
      <path class="cls-21" d="M891.3,778.4c-1.2-2.4-2.9-4.2-5.5-4.9-4.9-6.2-13.3-8.2-18.9-15.8,13.3,2.1,25.2,3.9,36,9.6-3,4.7-8,7.1-11.6,11.1Z"/>
      <path class="cls-14" d="M135.7,392c3.6-.5,7-2,10.7-1.3-2.7,10.1-1,19.2,3.9,28.5,2.6,4.8,8.3,4.8,10.3,9.4-3.6,3.4-7.2,3.5-11,.3-2.3-2-4.8-3.7-7.3-5.5-12.2-9.1-13.9-17.1-6.7-31.6Z"/>
      <path class="cls-1" d="M184.5,423.8c6.2-1.1,11.4.5,15.7,5.3-4.7,3.6-15.2,2.9-18.5-1.3-3.5-4.4,1.7-2.8,2.9-4Z"/>
      <path class="cls-14" d="M184.5,423.8c-3.1,1.3-4.1,3.1-.4,4.8,5.2,2.4,10.7,2.6,16.1.5,1.1.2,1.4,1,1.4,2-8.7,2.1-16.9,2.5-23.4-5.3,1.4-2.7,3.9-2.1,6.2-2Z"/>
      <path class="cls-11" d="M138.5,856.8c-5.7-2.6-9.9-7.1-13.6-11.8-4.4-5.5-4.8-11.7-1-17.6,3.9-6,8.1-12.2,17.1-9.9-5.8,8.6-7.4,18.1-6.6,28.4.3,4.3,4,6.8,4.1,10.8Z"/>
    </g>
  </g>
</svg>