<?xml version="1.0" encoding="UTF-8"?>
<svg id="Layer_1" data-name="Layer 1" xmlns="http://www.w3.org/2000/svg" viewBox="0 0 1080 1080">
  <defs>
    <style>
      .cls-1 {
        fill: #e0a783;
      }

      .cls-2 {
        fill: #c2c1c1;
      }

      .cls-3 {
        fill: #aeadac;
      }

      .cls-4 {
        fill: gray;
      }

      .cls-5 {
        fill: #e2aa87;
      }

      .cls-6 {
        fill: #eee;
      }

      .cls-7 {
        fill: #817d78;
      }

      .cls-8 {
        fill: #b5aba6;
      }

      .cls-9 {
        fill: #fdcca7;
      }

      .cls-10 {
        fill: #aeacab;
      }

      .cls-11 {
        fill: #818181;
      }

      .cls-12 {
        fill: #b49c8c;
      }

      .cls-13 {
        fill: #dfa784;
      }

      .cls-14 {
        fill: #e5ad84;
      }

      .cls-15 {
        fill: #dfa782;
      }

      .cls-16 {
        fill: #ebb591;
      }

      .cls-17 {
        fill: #292929;
      }

      .cls-18 {
        fill: #294d6d;
      }

      .cls-19 {
        fill: #282828;
      }

      .cls-20 {
        fill: #e2a784;
      }

      .cls-21 {
        fill: #7e807f;
      }

      .cls-22 {
        fill: #7e807e;
      }

      .cls-23 {
        fill: #838381;
      }

      .cls-24 {
        fill: #e0aa88;
      }

      .cls-25 {
        fill: #9b9b9b;
      }

      .cls-26 {
        fill: #dcac85;
      }

      .cls-27 {
        fill: #e3a885;
      }

      .cls-28 {
        fill: #616362;
      }

      .cls-29 {
        fill: #e0a684;
      }

      .cls-30 {
        fill: #9a9a9a;
      }

      .cls-31 {
        fill: #e1a882;
      }

      .cls-32 {
        fill: #808281;
      }

      .cls-33 {
        fill: #d84140;
      }

      .cls-34 {
        fill: #c1c1c1;
      }

      .cls-35 {
        fill: #616262;
      }

      .cls-36 {
        fill: #808181;
      }

      .cls-37 {
        fill: #f7dfca;
      }
    </style>
  </defs>
  <path class="cls-34" d="M799.52,485.29l-.52,1.82c-22.89,14.13-33.3,50.77-18.72,74.27l-.07,2.62v1.54c-15.11-20.33-10.81-50,4.3-69.4,1.59-2.04,10.84-11.19,12.69-11.63,1.1-.26,1.58-.04,2.32.77Z"/>
  <path class="cls-9" d="M254.22,500.72h-.77c2.53-3.99,2.56-4.39,6.18-7.72-1.01,2.85-3.76,4.86-5.41,7.72Z"/>
  <path class="cls-17" d="M1029.69,367.22c2.73,8.04,5.5,17.03,3.69,25.68-.12.59-2.66,7.55-2.88,7.93-1.11,1.89-6,4.42-8.06,4.03-4.44-.86-5.49-14.08-9.81-17.9-10.39-9.16-17.18,8.07-28.15,1.12-1.1-1.43,3.54-4.09,4.66-5.41,7.77-9.23-4.04-12.86-12.24-7.6-1.89,1.21-3.55,4.19-5.57,4.52-3.17.52-11.92-2.61-13.79-5.49-6.03-9.29,1.38-12.1,6.49-18.45,9.59-7.09,26.61-18.45,39.04-12.38,1.71.84,3.28,3.03,4.94,3.55,2.31.73,4.51-.03,6.6.36,4.07.75,12.87,15.96,15.07,20.05Z"/>
  <path class="cls-33" d="M1007.56,718.06c7.6,8.19,23.32,11.68,31.8,22.63,8.06,10.4-7.38,14.87-15.44,15.48-15.34,1.16-27.71-3.1-42.42-5.53-6.44-1.06-11.82-.24-12.12-8-.24-6.26,1.7-18.28,3.32-24.52,1.28-4.93,8.98-2.15,12.94-4.04,4.69-2.23-1.8-10.04,9.66-8.87,8.18.84,7.94,8.21,12.24,12.85Z"/>
  <path class="cls-33" d="M846.63,795.5l1.01-.33c8.57,7.47,41.58,7.07,32.2-10.48l-1.96-.57c-7.68-12.61-17.7-29.76-16.43-44.68.38-3.62-3.64-4.88-5.65-2.36-1.46,4.17-3.48,5.9-6.08,5.17-3.93.47-7.89.6-11.88.4-1.86,12.67-3.7,25.44-2.7,38.29,1.99,3.62,4.54,6.93,7.64,9.93.67-.33.9-.03.77.77,2.05,1.14,3.08,2.43,3.09,3.86-.75-.52-2.17-.68-3.34-1.67-4.2-3.52-7.94-8.61-10.38-13.56.51-12.22.79-24.7,3.12-36.65,1.36-5.83,11.18-1.05,15.22-4.09,2.73-2.05,1.5-9.04,10.3-6.39,4.11,1.24,2.51,9.27,2.95,12.48,1.97,14.41,10.95,24.67,16.4,37.63,3.64,8.66,5.36,12.69-5.15,16.26-12.37,4.2-19.08,2.9-29.12-4.01Z"/>
  <path class="cls-33" d="M864.4,522.33c-.1-1.5-3.14-5.31-4-7.19-4.65-10.2-9.17-20.6-13.97-30.8-.8-1.71-3.03-3.9-3.46-5.83-1.39-6.24,8.62-17.71,12.02-23.08,4.84-7.64,8.22-16.49,16.01-21.81,23.18-15.82,30.87-30.19,38.74-56.98,1.72-5.86-1.34-13.41,7.56-11.73,4.26.81.37,4.26-.15,6.01-.95,3.18-.65,6.45-1.35,9.46-3.78,16.35-9.33,28.21-5.62,45.66,1.56,7.35,4.71,13.76,13.22,13.64,1.31-.02,8.51-1.16,9.96-1.5.74-.17,11.09-4.83,12.94-5.73,1.75-.85,8.34-5.53,8.86-5.56,1.05-.06,3.79,2.28,4.11,3.39,1.05,3.64-1.72,4.61-2.75,6.97-2.41,5.5-7.08,19.26-12.56,22.56-.42.59-1.07,1.04-1.96,1.36-7.2,9.39-8.18,4.9-7.98-4.34-1.1-12.32-13.96-11.67-20.72-5.03-.44,5.77-1.27,11.37-2.5,16.8,2.23,3.94,3.05,9.13-2.36,10.5l.02,2.02c-9.07,5-17.57,11.44-18.44,22.65l-1.66,1.57c-.4,1.31-.81,2.86.49,3.79l-2.81.84c-3.34.67-13.16,9.48-17.36,11.6-1.53.77-2.55,1-4.27.75Z"/>
  <path class="cls-33" d="M943.95,459.82v.77c-2.94,2.93-5.86,6.08-9.27,8.49l-1.05-.1c-1.12-6.29-2.71-12.54-4.76-18.75-3.84-.63-7.82-.52-11.95.33.01,1.27-.36,1.93-1.56,1.92l-.79,17.01c.74,3.62,1.86,9.56-3.05,9.62,0,2.26-2.58,2.16-3.09,0,6.64-6.22.1-7.49.76-11.89.16-1.07,1.25-1.95,1.5-3.22.78-3.9,1-14.51,4.7-16.14,2.26-.99,13.33-1.86,15.12-.47.41.32,4.68,8.61,4.81,9.15.45,1.83-2.18,7.85.55,8.67s4.11-3.97,5.79-5.02c.85-.53,2.04-.23,2.29-.38Z"/>
  <path class="cls-28" d="M934.68,469.08c1.28,9.55,2.01,19.31,1.58,28.97-.15,3.3-2.7,16.18-.82,17.73,1.06.87,3.64.48,4.65,1.91-6.24-1.83-14.53,1.29-21.09,1.42l-4.4-5.28c1.14-1.21,2.69-.73,4.65,1.46,2.98-20.39,1.4-42.06-3.43-62.37l1.1-2.36c.17-.09.4-1.02,1.33-1.34,2.59-.89,9.42-1.86,11.49-.27,2.48,1.9,4.45,16.43,4.95,20.14Z"/>
  <g>
    <path class="cls-9" d="M910.74,362.59c.59,1.42.31,3.07-.84,4.97-3.84,25.15-14.77,50.88-37.78,63.71-3.53,1.18.81-8.8,1.59-10.28,5.06-5.67,4.2-5.37-2.59.9-1.89,4.39-3.62,8.8-5.17,13.24l.54.9c-8.26,11.49-16.05,23.31-23.37,35.47l-1.12-.11-1.35,1.1c-9.35-2.66-11.75-2.6-.72,2.25l1.29,3.59,1.1.31c7.5,14.31,14.51,28.89,21.04,43.73l.27,3.03,1.84.27c3.36,8.62,5.82,13.9,12.63,20.06l14.41,11.82-.3,1.8c7.65,6.21,10.26,13.01,10.04,22.38l.59,8.42c3.91,3.9-.95,16.4-6.2,16.97-1.63.17-2.52-.62-2.12-2.24-4.98-.62-8.61-4.75-8.56-9.95-4.71-1.71-7.66-5.49-8.85-11.34-4.62-5.91-9.62-11.55-15-16.93-1.11-5.51-2.14-11.01-3.08-16.49-11.26-10.56-23.12-20.62-35.58-30.17-.79.33-1.59.38-2.41.17-5.99-1.48-17.35-22.88-19.73-29.29-1.64-2.02-2.24-3.89-1.8-5.61-1.16.14-1.94-.11-2.32-.77,1.05-1.29.54-2.33.29-3.7-3.27-17.76,5.31-52.78,15.95-67.66,3.93-5.5,11.55-10.54,14.54-15.57,12.41-20.93,15.74-40.28,46.07-37.3,3.36.33,6.7,1.97,10.05,2.3,8.41.83,18.04-.49,26.64,0Z"/>
    <path class="cls-9" d="M837.36,562.45c.12-3.5,6.74-20.16,9.74-20.19.84-.01,9.57,8.26,10.62,9.61.46,5.35,1.49,10.49,3.1,15.42,9.42,8.33,15.99,14.65,19.52,27.35,3.31,3.62,7.09,6.7,11.34,9.23.46.78.12,1.9-1.03,3.35l.73,1.72c-2.33,4.22-3.56,8.94-4.44,13.64l-1.7.84c-.5,23.16-6.14,46.85-12.81,68.99l-1.87,2.78c-.13.44-1.83,1.79-2.28,3.51-1.07,4.11-4.38,24.42-5.82,25.82-2.5,2.44-6.55.72-9.25.72s-13.97.51-15.14-.3c-1.44-1-.56-17.08-.69-20.14-.21-4.68-1.31-10.35-1.58-15.02-.3-5.15-.46-10.83-.77-16.21-2.23-.76-2.17-3.05,0-3.86-.12-2.19-1.51-3.35-1.54-3.86l-1.21-1.33c-1.07-14.78.36-29.15,4.3-43.12l2.32-1.85c2.02-2.99,5.71-7.64,3.86-10.8l-1.92-.06c-1.66-1.45-13.09-13.25-13.03-14.22,1.93-11.03,5.11-21.7,9.54-32.02Z"/>
    <path class="cls-33" d="M919.24,364.13c2.06,1.19,1.74,3.16,1.34,5.29-2.33,10.12-4.91,20.18-7.74,30.18-2.21,11.77-5.53,32.15,8.23,37.2,6.3,2.31,26.8-6.79,32.97-11.2,2.8-2.42,7.83,3.26,8.4,5.31.27.98-5.91,13.88-6.92,15.86-1.41,5.99-6.27,11.08-11.56,13.83-.67-.22-.66-.48,0-.77-.4-1.33.23-2.65,1.89-3.94,4.04-7.81,8.04-15.57,11.99-23.28-.13-5.12-3.74-4.71-10.82,1.22-48.06,24.85-42.84-20.97-32.6-54.3l1.08-8.38c5.37-6.25-2.42-6.64-3.23-2.5-2.75,22.77-13.68,45.9-32.18,60.19-11.73,6.7-17.96,16.22-24.01,27.76-5.39,6.29-9.28,13.09-11.69,20.42,6.57,14.67,13.6,29.23,21.11,43.67l-1.09,1.65c2.2.9,1.46,3.09-.77,3.09-6.45-13.26-14.41-35.93-22.4-47.07-2.03-2.65-3.25-6.21.77-6.95,2.53-4.7,21.46-34.16,23.94-36.27.08-2.66,4.02-5.46,6.18-3.86,25.72-18.36,30.74-35.27,37.07-65.22.3-1.4.49-2.4,1.55-3.46,3.17.18,5.48.18,8.5,1.54Z"/>
    <g>
      <path class="cls-9" d="M964.03,355.64l.59,1.7c-13.58,9.83-7.11,21.23,7.5,20.12,9.99-12.86,32.19-4.35,14.21,9.63,2.29,1.89,5.8,1.11,8.36-.08,15.56-10.07,21.72-.84,25.87,13.65,1.36,3.16,2.48,3.23,5.41,1.73,9.42-4.83,6.37-24.97,2.76-33.12l.94-2.05c4.66,8.65,6.64,15.63,4.55,25.77-.98,4.75-3.08,11.1-8.39,12.46-2.41.62-4.61,0-6.94.78-2.7.89-6.89,6.49-9.86,7.9-2.69,1.28-5.89.98-8.98,2.61-5.33,2.8-10,9.96-15.08,13.52.12,7.56,2.42,15.62,2.24,23.05-.14,5.86-1.57,13.92-2.64,19.79-.25,1.37-.76,2.41.29,3.7l-1.22,1.56c-7.42-2.47-8.29,7.73-.99,6.3l1.44,1.4c-1.78,9.04.11,18.29.03,27.43-.02,2.06-.95,3.98-.88,6.15.03,1.1,2.16,10.14,2.58,11.39,1.08,3.2,7.24,5.22,9.81,7.18,15.78,12.02,20.29,23.86,18.57,43.92-.47,5.5-2.54,11.23-3.07,17-.89,9.65-.69,20.42-1.56,30.08-1.94,21.57-5.55,42.92-8.13,64.42-1.93,4.35-10.19,1.7-13.85,1.54s-12.19,1.27-14.24-1.98c-1.14-1.81-1.18-8.27-1.85-11.27-5.66-25.4-10.41-40.13-7.49-67.35.4-3.68,4.13-19,3.73-20.7-.32-1.36-1.96-1.95-3.22-2.21l-24.46-4.5c3.63-.31,5.01-2.97,4.16-7.99-.33-5.25-.17-10.31.48-15.16.14-2.69.65-5.26,1.54-7.72-1.37-.63-1.06-2.29,0-3.09l1.72-1.12c11.37,3.37,26.02,5.72,31.52-7.68-7.32,9.48-18.83,8.25-28.49,2.98-1.88.15-3.21-.23-3.98-1.12-.69-2.59-1.46-5.17-2.32-7.72-4.48-7.38-2.43-18.92,1.15-26.19,4.68-7.28,4.19-11.19-.86-18.13-1.84-3.2-2.2-5.66-1.06-7.39l-1.41-1.04c1.55-5.16,1.54-5.37-3.9-5.35-2.96.43-3.63-9.54-3.03-10.86,6.43-5.79,12.57-11.84,18.41-18.16,2.17-6.07,4.67-12.02,7.51-17.85,2.37-3.4-3.97-10.73-7.91-7.75-8.44,5.33-17.98,9.56-27.77,11.11-15.44,2.45-16.92-20.35-13.58-30.36.19-.37.39-.72.67-.99,1.81-1.77,7.27,6.07,8.32,7.88.31-9.97,6.05-18.84,12.04-26.6-5.18,5.08-9.39,10.94-12.63,17.57-.76.73-8.15-.11-7.63-2.48-.52-1.27-.43-2.71.25-4.31,1.9-8.86,4.88-20.73,7.44-29.35.05-.16.39-.24.81-.29,3.61-4.86,11.43.12,17.39.06,2.91-.03,11.04-1.51,13.69-2.57,1.5-.6,8.74-7.87,11.4-9.83Z"/>
      <g>
        <path class="cls-16" d="M944.72,564c.08-2.6-.74-5.96,1.54-7.72-.24,2.35-.58,5.62-1.54,7.72Z"/>
        <g>
          <path class="cls-8" d="M921.55,367.99c-.43,4.55-3.73,14.76-4.97,20.11-1.04,4.48-2.65,8.83-3.53,13.84,2.03,1.19,1.49,4.13-.77,4.63-.86,6.87-1.48,17.75,2,23.85s6.42,6.07,13.05,5.46c7.03-.64,15.36-4.54,21.66-7.68,3.11-1.55,5.94-5.4,9.65-3.51,1.32.67,1.43,2.78,2.28,3.92.6.81,2.23.88,2.39,1.61.14.63-2.46,7.35-2.97,8.54-1.71,3.99-4.42,7.55-5.06,12.69-2.16,4.51-17.94,15.74-18.89,18.93-.48,1.62-.38,6.59.79,7.76,1.63,1.63,6.18.23,7.2,1.68,1.45,2.06-.43,5.54-.43,7-.11,2.29-.86,2.54-2.32.77.19,1.18-.58,1.74-2.32,1.71l-.11,12.41c-.06,1.36-.79,2.57-2.2,3.63l1.43,1.03-1.23,6.73c1.74.87,2.7,1.89,2.89,3.04.71-.46,1.23-.46,1.54,0,2.19.76,1.51,2.19-.77,1.54-.24.66-.49.66-.77,0l-1.67-.69c-5.53-.12-5.56-1.93-5.1-7.03,1.8-12.08,2.05-24.65.29-37.12l1.08-3.77c-.04-1.94,1.2-3.24,3.72-3.9,1.65-2.48,3.5-4.01,5.55-4.59,3.18-3.17,6.33-6.25,9.14-9.77.27-3.04,8.81-18.73,8.54-19.77-.48-1.83-3.99-5.55-6.42-5.19-2.01.3-12.16,6.71-15.91,8.1-5.19,1.92-7.94,1.7-12.59,2.73-.62.14-.19,1.38-1.63,1.59-1.05.15-3.53.15-4.54-.08-.48-.11-.44-1.05-1.17-1.43-.56-.29-1.66-.04-2.42-.49-1.66-1.01-4.69-6.62-5.24-8.68-5.66-21.14,5.42-39.47,8.25-59.3.21-1.47.06-2.88-.74-4.15,2.22,1,2.63.53,2.32,3.86Z"/>
          <path class="cls-16" d="M947.04,546.25c4.4-1.95,6.28,1.13,9.83,2.14,1.34.38,8.75,1.85,9.85,1.77,2.02-.15,7.03-2.38,8.69-3.64s3.97-6.45,6.39-3.72c-6.06,17.19-21.1,14.49-35.53,10.4.19-2.36.76-4.55.77-6.95Z"/>
          <path class="cls-5" d="M940.09,418.15c-.2-.21-.2-1.89.46-2.38,1.68-1.23,8-2.21,10.29-3.47,5.41-2.97,3.2-13.75,7.26-18.6.98-1.17,9.41-5.97,10.57-5.26,1.29,1.06.89,1.28.02,2.34-1.29,1.58-4.25,2.7-5.78,5.03-2.49,3.79-5.65,13.62-5.85,18.14-.14,3.13,2.55,6.87-1.8,8-1.73-1.4-4.05-4.12-6.38-4.34-1.44-.14-8.04,1.31-8.79.54Z"/>
          <path class="cls-13" d="M912.28,406.58c.21-1.64.49-3.04.77-4.63l6.86,1.45c3.46-8.13,8.55-14.92,15.53-20.36l2.3.78c-6.05,7.3-12.1,15.48-14.48,24.88-.34,1.34.16,7.18-2.11,7.13-.65-.01-5.55-9.63-8.88-9.24Z"/>
          <path class="cls-24" d="M943.95,486.83c0,5.07,6.95,12.07,6.98,16.58.03,4.18-4.05,8.35-4.47,12.57-4.93,4.45-3.89,16.48-1.74,22.55h-.77c-2.24.94-3.27-2.11-3.79-4.01.04-5.62.24-11.45.7-16.82.65-.36.56-1.06.77-1.54.78-6.16,1.11-12.48.97-18.98l-2.19-8.15,1.21-1.42c.82-.14,1.6-.32,2.32-.77Z"/>
          <path class="cls-14" d="M979.88,488.38c3.59-.71.3,8.31.31,10.41.03,5.26,5.17,11.91,1.22,17.35-1.11-1.96-9.46-11.64-9.4-12.71.05-.78,5.22-6.78,6.09-9.1.57-1.53.45-5.69,1.78-5.95Z"/>
        </g>
      </g>
    </g>
    <path class="cls-1" d="M894.52,604.89c-2.16-.12-2.73.67-3.86,2.32.85-4.07-2.87-3.92-5.34-5.85-8.78-6.87-6.77-7.23-10.59-16.43-3.42-8.25-7.94-8.89-13.15-14.26-6.08-6.26-3.18-11.16-5.06-17.71-.58-2.02-5.55-5.14-7.25-6.68-1.13-1.03-1.06-4.06-3.87-1.64-2.35,2.03-6.76,14.26-8.04,17.82-.58-.36-.58-1.39,0-3.09,1.41-3.77,2.77-7.67,4.51-11.31,1.04-2.18,5.08-7.29,4.65-8.97l-23.07-19.07c10.87,7.4,20.24,15.12,30.07,23.59,1.65,1.42,6.24,4.66,7.04,6.08,1.59,2.82,1.17,12.31,2.67,15.85,1.17,2.74,11.83,11.23,14.91,16.74,1.41,2.52,2.21,7.06,4.08,9.04,1.54,1.63,4.32,1.67,4.95,2.77,1.11,1.93-.2,5.07,3.06,7.75,1.28,1.05,3.61.93,4.26,3.07Z"/>
    <path class="cls-20" d="M872.12,431.27c-1.83,1.31-4.38,2.33-6.18,3.86-1.14-2.91,2.35-11.73,3.96-14.18.67-1.02,8.96-7.43,9.56-7.41.93.84,1.48.96.78,2.31-.83,1.6-4.06,3.55-5.36,6.22-.54,1.1-.37,2.54-.89,3.74-.71,1.64-3.21,3.44-1.87,5.47Z"/>
    <path class="cls-26" d="M842,471.4c-1.11,2.06-1.88,4.75-.77,6.95-3.61-5.03-7.94-4.02-12.34-7.33,3.69-2.9,9.29-1.3,13.11.39Z"/>
    <path class="cls-9" d="M941.63,487.6c1.07,4.03,3.15,10.17,3.14,14.28,0,1.26-2.68,13.24-3.14,14.28-.49-.06-1.09.09-1.54,0-.33-3.47-.93-7.01-1.81-10.62l-1.28-.19c.18-1.69.68-3.28.8-4.98.22-3.04-.71-9.16.07-11.5.61-1.82,2.46-1.05,3.76-1.27Z"/>
  </g>
  <g>
    <path class="cls-23" d="M947.04,546.25c2.36,1.15,1.64,6.12-.77,6.95-.08,1.02.1,2.08,0,3.09-.89,2.46-1.4,5.03-1.54,7.72-.14,4.67.95,18.75-.11,21.89-.62,1.86-3.06,1.15-4.53,1.26-1.27.1-2.59-.11-3.86,0-.91.08-1.8.72-2.32.77l-1.33,1.15c-10,.58-19.73,1.64-29.21,3.2-.64-3.48-1.02-6.99-1.14-10.53-.8-3.78-1.59-10.33-2.47-13.35-.7-2.39-7.01-5.74-7.57-9.03,2.13-1.43,7.99,4.34,9.14,6.43,1.19,4.77,2.38,9.51,3.58,14.22,1.17.8,24.76,4.57,27.83,4.82.81.06,8.4.14,8.67-.2-.28-13,.83-25.69,3.35-38.06.08-2.44-.86-4.47-1.89-6.63l1.07-1.43c.22-.67.48-.66.77,0,1.27,3.61,2.34,2.82,2.32,7.72Z"/>
    <path class="cls-19" d="M799.52,485.29c3.39,3.74,4.96,9.68,7.32,13.91,4.81,8.6,8.41,15.22,16.62,20.82,8.58,6.25,16.76,12.95,24.55,20.08l-1.37,3.13c-4.05,4.22-7.15,9.6-9.28,16.14-3.31,10.85-6.4,21.65-9.27,32.41-1.51,1.29-2.15.45-3.48.05-15.42-4.66-34.87-14.75-44.4-27.83-13.84-19-8.81-46.77,4-65.06,3.53-5.04,9.26-11.79,15.3-13.65Z"/>
    <path class="cls-19" d="M914.6,513.84l4.74,4.49c4.89-1.52,9.96-2.43,15.21-2.72,1.63.91,3.48,1.6,5.55,2.1.26.07.59-.09.77,0,2.71,1.35.2,12.83.81,16.55.34,2.1,1.68,2.82,2.28,4.29,1.2,2.95,2.49,4.73,2.36,8.12-.14,3.71-2.01,7.75-2.34,11.57-.73,8.31-.22,17.79-.78,26.23-.73,3.91-7.3.32-10.32,1.89l-29.09-4.95c-1.39-.98-2.45-11.96-3.47-14.28-1.1-2.49-6.2-6-8.09-7.74-5.07-4.65-17.56-13.6-20.86-18.13-2.55-3.5-5.58-11.44-7.72-15.83.09-.94.83-2.26.77-3.09,6.23-3.88,12.41-8.09,18.53-12.64,1.21-.92,2.12-1.04,3.09.29,1.52-1.32,2.46-1.6,2.84-.86,7.92,1.03,17.43,2.4,25.26,3.81.21.04.35.42.47.91Z"/>
    <g>
      <path class="cls-3" d="M984.89,476.8c1.47-.08,3.91.57,4.53-1.26,1.27-3.79-.41-16.25.11-21.49,1.34-13.33,9.42-10.28,19.97-10.32,3.08,8.9,5.08,18.52,4.75,28.05,2.03,13.87,2.26,28.11-.76,41.7-1.23,1.24-13.68,2.41-16.49,2.56-2.13-.74-4.54-10.33-4.97-12.79-.55-3.21-.59-15.03-2.07-17.22-1.17-1.73-4.23-.14-5.84.04-4.18.48-8,.73-7.77-5s4.46-4.04,8.55-4.26Z"/>
      <g>
        <path class="cls-28" d="M1008.83,445.93c.68,3.39,1.56,6.67,2.32,10.03,1.17,6.39,1.9,12.8,2.32,19.29.04,1.28-.02,2.57,0,3.86.75,8.17.77,16.53,0,24.69,0,.26,0,.51,0,.77.05,9.07-1.57,9.19-10.4,9.16l-2.73.87c-1.1.15-.6,1.08-2.32,0l-.85-3.24c3.21-19.07,1.48-40.62-2.26-59.59-7.53-6.97,10.76-8.44,13.92-5.85Z"/>
        <path class="cls-4" d="M998.02,514.61c-1.55-.97-2.44-2.73-2.91-4.43-1.07-3.87-2.08-10.43-2.49-14.48-.13-1.32-.84-8.69-.7-9.12.44-1.38,3.32-1.75,3.62-3.3.08-.4-.76-5.46-.96-5.74-.76-1.11-3.02-.15-3.52-2.65-.65-3.23-.37-17.88.08-21.56,1.35-11.05,8.25-8.35,17.24-8.95.86-.08.35,1.02.46,1.56-2.28-1.79-14.93-.23-15.44,1.94l2.97,3.2c2.84,20.98,6.85,42.62,1.67,63.54Z"/>
        <path class="cls-4" d="M1013.47,503.81c.2-8.17.16-16.52,0-24.69,1.28.8.77,2.93.79,4.23.07,5.4.06,10.83,0,16.23-.01,1.3.49,3.43-.79,4.23Z"/>
        <path class="cls-4" d="M1013.47,475.25l-2.32-19.29c1.77,7.87,2.08,11.16,2.32,19.29Z"/>
        <path class="cls-4" d="M1000.34,514.61c2.52-3.26,8.66-.18,11.27-2.24,2.29-1.8-.06-5.74,1.86-7.79-.07,2.21.62,6.74-.75,8.12-1.25,1.26-9.61,1.54-12.38,1.91Z"/>
      </g>
    </g>
  </g>
  <path class="cls-33" d="M879.84,784.69c4.49,9.22-.19,12.7-9.05,14.36-10.21,1.91-20.06.38-27.25-7.42-.27-.25-.51-.52-.77-.77-6.97-6.99-7.73-8.35-7.89-17.97-.06-3.35.13-6.93.42-10.26.27-3.1,1.69-18.48,2.45-19.89,4.03.1,8.02-.06,11.97-.49,5.71-2.89,2.81-9.19,10.41-7.69,4.47.88,2.37,9.76,2.81,13.39,1.17,9.72,12.51,26.79,16.91,36.74Z"/>
  <path class="cls-33" d="M846.63,795.5c-.81-.6-2.2-3.04-3.09-3.86,3.16,1.06,8.18,6.35,11.21,6.93,6.2,1.19,18.22,1.16,23.17-3.06s2.13-5.72,1.92-10.81c1.92,4.35,5.67,8.56-.06,11.9-8.54,4.98-25.09,4.82-33.15-1.1Z"/>
  <path class="cls-33" d="M849.72,742.25c-3.34,1.69-7.84.37-11.59.77.24,5.75-1.82,11.87-2.3,17.38-.46,5.24-1.21,17.37.41,21.95,1.12,3.17,5.78,5.08,6.53,8.52-3.05-2.99-6.63-5.64-8.34-9.81-.06-13,.62-26.01,2.97-38.77l12.32-.04Z"/>
  <path class="cls-32" d="M916.92,450.56c.86,4.77,2.43,9.47,3.08,14.29,1.28,9.52,2.41,23.65,2.38,33.18,0,2.68-1.25,17.78-1.96,18.93-1.4,2.27-3.11-2.26-5.82-3.11-4.68-1.48-8.48-.92-12.73-1.55s-11.72-3.14-15.85-2.3c2.25-.82,1.04-3,2.32-4.63,1.36.24,2.12,1.35.96,1.93,8.21,1.33,16.47,2.47,24.76,3.41-2.51-10.03-3.88-20.29-4.12-30.78l1.58-.8c.2-1.06,2.16-2.29,2.3-4.28.1-1.45-.8-3.39-.79-5.33.03-5.95.96-11.72.78-17.66.25-1.06,2.35-.88,3.12-1.28Z"/>
  <g>
    <path class="cls-34" d="M306.74,689.78c-5.68-1.31-11.6-1.47-17.32-2.38-59.11-9.33-118.87-19.75-177.89-28.31-7.2-1.04-16.86-2.91-23.79-3.28-1.07-.06-4.22-.06-4.22,1.17v22.38c0,3.06,15.27-.84,17.47-1.06,7.14-.72,21.46-1.39,27.58,2.35,1.74,1.06,1.82,8.31,1.18,10.19-.4,1.19-1.91,1.4-2.95,1.68-12.93,3.48-30.73,4.39-44.38,6.59-13.14,2.12-26.17,4.28-39.37,6.19-3.01.44-9.98,4.1-11.14.14-.78-2.67,2.02-5.98-1.7-7.53-3.65-1.53-9.73,1.18-13.09-2.33,1.37-1.77,3.26-2.52,5.36-3.12,11.04-3.18,23.69-4.68,34.97-7.35,1.09-1.7,3.36-2.19,3.67-4.2l-.1-97.11-1.15-1.16-28.87-4.34c-2.19-1.44-2.38-17.17,0-18.54.73-.42,11.02-2.32,12.84-2.6,19.02-3,44.06-6.52,63.23-4.71,19.66,1.85,39.08,4.78,58.72,6.92,4.61.5,10.72-.53,15.27.82,11.54,3.44,26.1,3.34,38.78,4.6,10.48,1.05,21.19,3.1,31.67,3.87,2.46.18-.34-3.08-1.16-4.65.2-.64.71-.38,1.54.77,2.21-.79,3.09.13,2.32,2.32,2.01,2.8,1.64,4.32-1.11,4.57-27.42-2.98-54.85-5.86-82.29-8.64-2.71-1.68-6.23-2.13-10.56-1.35-38.63-5.28-76.39-9.73-114.41-1.35-1.41,0-2.75-.33-4.02-.95l-.67,1.64-8.17.56c-.58,1.97-.89,13.84.11,14.48,33.1,4.65,66.87,9.12,101.32,13.43,60.68,6.37,120.7,12.8,180.06,19.28,4.97.22-.53,11.26-3.86,11.58-2.24,1.01-4.95.9-8.13-.31-75.41-8.99-148.39-16.98-218.95-24l1.54.71v37.73l-1.54.92c1.57-1.02,3.68-.87,6.31.46,71.18,10.06,142.19,19.52,213.03,28.38l2.33,1.65c2.23-.34,2.52.91.77,2.32l-1.25,1.13-8.72-1.83c-68.21-8.59-136.38-17.44-204.54-26.39-2.73-.36-10.97-1.68-9.47-4.94l-1.54-.71v-40.43l1.54-.92-.98,1.35c-3.61-.34-7.15-.66-10.6-.97l1.54.54v90.35l-1.54.94c1.62,2.09-.3,2.78-2.47,2.3l-6.23-1.71-34.32,7.46c2.14.29,4.36.58,6.33,1.51,25.04-3.97,50.06-7.9,75.07-11.79,4.11-2.33,7.79-3.35,12.67-2.67-8.67-1.41-17.59-.97-26.76,1.33-2.3.19-13.14.88-13.06-1.37.01-.42.17-.83.35-1.23-.59-.07-1.36-.2-1.54-.69-.4-1.03-.19-19.63,0-22.12l1.54-1.11c-5.76.79-13.21-14.48-4.47-15.8,14.12,1.04,28.21,3.06,42.25,6.08,62.58,8.43,124.06,17.16,184.44,26.19-.05-2.2.55-3.7,1.78-4.5,3.05,5.61,3,15.59.77,21.61Z"/>
    <path class="cls-34" d="M781.75,567.08c6.31,5.1-5.22,4.22-8.99,3.84-37.07-3.74-74.16-8.05-111.19-13.06-29.11-5.06-57.66-1.94-86.27,1.49l-2.1-.76c-3.67,1.64-7.45,2.73-11.32,3.27-.31,1.69-.59,13.39-.11,13.9.26.27,6.18,1.62,7.21,1.75,90.71,11.37,184.16,21.96,273.78,31.24,4.72.42-.12,11-3.86,10.8l-2.62.8c-74.27-8.99-148.33-17-222.19-24.02l-.73,37.39.72,1.22,218.67,29.25.75,1.66c2.49-.66,3.72,2.48,1.54,3.86-1.23.34-2.6-.06-4.1-1.19-70.86-8.49-147.55-18.42-217.19-28.99-2.07-.54-4.42-1.21-2.7-3.38l-1.54-.71v-40.43l1.54-.92-.8,1.48c-3.25-.7-6.48-.9-9.67-.58l.04,89.99c-.68,4.01-3.88,4.81-9.61,2.39-11.38,1.82-24.44,3.92-35.44,7.33-.54.17,10.13.58,11.38.47,23.73-2.14,48.74-6.83,72.1-11.62,3.07-1.63,5.95-2.62,9.46-2.37-8.16-.97-16.5-.46-25.02,1.54-2.27.2-12.89.93-12.8-1.33.02-.42.17-.83.36-1.24-.6-.07-1.51-.26-1.54-.69-.19-2.47-.4-21.09,0-22.12.22-.58.94-.87,1.54-1.11-6.34,3.04-13.46-15.56-5.46-16.57l228.71,32.27.73,1.66c2.64,4.2,2.97,11.72.77,16.21l-222.06-33.98-1.16.03c.77,3.11-1.06,23.68-.03,24.34,2.54,1.64,14.46-1.57,18.2-1.95,7.94-.81,18.94-1.25,26.08,2.47,3.72,1.94,2.05,7.82.57,11.03l-95.3,15.86c-2.42-2.64.2-7.28-3.14-9.36-1.83-1.15-13.63-.91-13.55-2.65,1.37-1.77,3.27-2.52,5.36-3.12,11.21-3.22,24.63-4.22,35.77-7.34.27-.08,3.76-3.47,3.65-4.22l-.1-97.11-1.16-1.16c-6.9-1.11-14.66-1.35-21.44-2.5-1.58-.27-6.94-1.41-7.86-2.17-1.83-1.5-1.8-16.92.44-18.2.65-.37,10.49-2.37,12.07-2.6,19.68-2.9,44.28-6.52,64-4.72,29.88,2.73,59.86,6.66,89.59,10.03,17.1,1.94,35.68,4.86,52.79,5.98,1.5.1,2.61.51,3.22-1.36Z"/>
    <path class="cls-36" d="M573.21,558.59c22.25-2.97,42.5-6.35,65.18-4.55,32.65,2.59,64.29,8,96.64,11.48,12.44,1.34,25.36,2.83,37.85,3.85,1.38.11,9.29.35,9.64,0,.81-.79-.37-1.77-.77-2.31-.23-.32-.98-.78-1.54-1.54-.48-.8-.48-1.32,0-1.54l2.47.69c11.6,13.99,29.02,21.05,45.41,27.09,2.6,5.72-2.59,4.32-5.93,1.81-84.93-10.5-169.66-20.51-254.19-30.03-2.11-2.45-.37-4.11,5.24-4.97Z"/>
    <path class="cls-25" d="M409.47,586.37c.88-1.97,1.44-1.97,2.32,0,.66.2.64.46,0,.77-1.64.17-3.97-.39-5.41.77-.64,5.19-1.4,10.37-2.28,15.54l-1.15,1.38c-9.31,1.63-18.94,3.18-28.4,4-1.3.4-2.01,1.45-2.19,2.76,5.59,45.28,11.66,90.51,18.2,135.69,2.28,5.31-12.26,12.26-15.21,10.54-.7-.41-1.02-1.08-1.2-1.83l-17.26-122.59.05-10.76c.79-5.24,1.96-11.94,5.41-16.21-1.13-3.76,1.08-2.91,3.86-1.54.1,0,.53.75,1.18.76,1.95.02,5.11-4.71,5.73-6.59,1.3-3.91.49-12.87.04-17.32,2.47-.21,3.53,1.8,3.17,6.03l.96.59c10.67-1.21,21.4-1.87,32.17-1.98Z"/>
    <path class="cls-2" d="M936.23,587.15c-1.87,3.75-1.25,16.51-4.33,18.44l-29.1,4.1-1.99,1.87,19.6,139.15c-.89,1.99-12.38,8.32-14.78,8.49-1.98.14-13.79-2.41-15.93-3.26-3.19-1.27-3.74-2.29-4.38-5.66-3.09-16.38-3.82-33.62-7.2-49.91-.82-3.96-3.68-5.36-7.55-5.19,6.81-23.37,11.03-47.54,14.68-71.77,2.63,4.51,4.1,9.61,4.4,15.29,5.45,38.76,10.99,77.61,16.63,116.55.24,1.33,10.24-4.14,11.38-5.61-5.93-42.23-12.01-88.11-17.75-131.71-4.25-9.09-.03-11.48,8.55-12.04,7.45-.52,14.75-1.56,21.9-3.12,1.05-4.61,1.69-9.32,1.91-14.13l1.63-.73c-.66-1.29,1.48-1.75,2.32-.77Z"/>
    <path class="cls-2" d="M341.5,695.18c6.56-25.16,11.53-46.64,15.45-72.54l18.69,132.95c.85,4.49,10.55-1.7,12.59-3.31,2.57-2.03,2.4-7.35,1.96-10.46-.32-2.28-1.92-4.23-2.27-7-4.43-35.82-10.16-71.88-14.68-108.03-.4-3.17-1.97-13.85-1.64-16.08.63-4.22,6.59-2.36,9.59-2.83,3.3-.51,6.79-1.58,10.22-2.14,2.97-.48,11.63.1,12.49-2.95s.2-13.05,2.47-14.9c.09,3.88-.13,15.7-3.42,17.8l-28.5,3.93-1.31,1.81,18.17,140.05c-.37.76-12.64,7.57-13.97,7.7-1.12.11-8.96-1.35-10.55-1.72s-7.98-2.07-8.68-2.91l-9.05-56.55c-.74-2.58-5.3-2.3-7.57-2.85Z"/>
    <path class="cls-25" d="M933.91,587.92c-.34,2.64-1.07,14.61-2.29,15.85-2.55,2.58-26.27,2.96-30.94,5.35-2.4,2.93.38,5.97.75,8.55,5.66,39.28,10.26,78.59,15.58,117.93.48,3.55,2.86,11.86,2.06,14.59-.58,1.96-11.11,7.12-13.71,7.48-.09-.71-.47-1.38-.59-2.09-3.65-21.22-6.66-43.03-8.8-64.55-4.49-22.4-5.9-45.29-10.72-67.61.72-4.78,2.67-12.22,5.41-16.21.23-3.24.67-4.52,3.86-2.32.7.04,1.47,1.28,3.08.43.55-.29,4-4.99,4.29-5.8,1.72-4.75-.44-12.61.36-17.79.05.23.64.8.81,1.85.27,1.64-.85,7.02,1.13,7.41.77.15,2.53-1.34,3.88-1.51,8.29-1.02,17.44-.75,25.84-1.58Z"/>
    <path class="cls-25" d="M41.82,559.37l1.21,1.51c80.75,9.63,161.72,19.22,242.9,28.76l8.09,1.78c1.91,1.59,3.83,1.97,5.78,1.12.14.87.26,1.19.73,1.94,2.16,3.48,10.67,10.53,13.95,14.27.37,2.45-.99,1.45-2.47,1.32-17.62-1.54-35.19-4.08-52.76-5.95-70.22-7.44-140.53-13.46-210.16-24.62-5.71-.92-12.21-.62-18.04-2.43.27-2.57-.98-16.5,1.25-16.98s6.76-.32,9.53-.74Z"/>
    <path class="cls-11" d="M41.82,559.37c19.62-2.96,38.49-6.51,58.32-5.41,20.23,1.12,40.1,3.89,60.25,6.17,3.48.39,9.19-1.42,10.94,1.54,27.27,2.72,54.57,5.26,81.79,8.46,2.07.24.82-1.94,1.1-3.05,12.25,12.26,24.46,19.16,41.07,24.17,2.4.72,2.13,2.59,4.5-1.02-.09.59-.09,1.74,0,2.32-3.42,3.47-3.95-.02-5.95-.62-3.96-1.19-8.24-.49-11.39-.89-78.12-9.93-156.74-18.06-234.84-28.58-2.25-.3-8.21,1.22-5.79-3.09Z"/>
    <path class="cls-25" d="M305.97,668.17c.27.56.09,4.78-.34,5.44-1.29,1.94-10.88-1.2-13.23-1.53-57.51-8.06-115.29-15.94-172.86-24.07-12.45-1.76-28.04-5.78-40.25-6.13-5.53-.16-4.75,2.8-3.25,7.15,1.27,3.67,5.94,6.71,5.94,7.18v23.92c0,1.64,9.5,1.32,11.23,1.18,9.26-.71,21.85-4.98,30.72-.65.88.43,1.9,1.04.55,1.8-1.78,1-6.37.09-8.83.44-2.79.39-4.67,2.38-7.19,2.85-24.58,4.57-50.05,6.94-74.77,11.63-3.5-1.24-6.65-1.76-10.41-1.42v-2.29s37.81-8.15,37.81-8.15c1.86-1,9.31,3.62,9.31.8v-91.83c0-2.14,9.72-.93,11.59-.39v42.06c0,1.34,7.97,3.15,9.72,3.41,67.78,10.1,136.58,16.94,204.53,26.39,1.43.2,9.53,1.77,9.75,2.22Z"/>
    <path class="cls-25" d="M573.21,558.59c-2.07,2.19-5.54.17-4.64,3.86,14.11-.04,28.13,2.95,42.11,4.62,64.69,7.74,129.76,14.99,194.42,22.59,5.81.68,12.27.67,17.6,2.47,1.72.58,2.96,2.68,5.38,1.95.04-.77-.03-1.54,0-2.31.35-8.16,6.25-24.32,9.27-32.41v3.09c-3.6,10.03-6.26,20.19-8.51,30.44.53,3.14,11.77,12.19,13.91,15.86-.21,1.96-.14,2.08-2.1,1.76-2.97-.49-6.06-1.43-9.11-1.75-87.7-9.16-174.55-17.64-261.63-29.53-2.99-.41-6.67-1.66-9.75-2.23.06-2.62-.79-15.82.77-16.77,4.15-.14,8.15-1.1,12.25-1.65Z"/>
    <path class="cls-30" d="M835.05,673.57l-229.79-32.43c-4.21.34.26,10.72,1.55,12.37.99,1.26,4.25,2.09,4.25,2.7v23.92c0,1.63,8.71,1.3,10.46,1.19,7.93-.52,15.62-3.07,23.9-2.33.82.07,10.55,1.77,8.12,3.84-2.85.22-6.01-.34-8.81.07-2.34.34-3.71,1.83-5.54,2.18-21.84,4.11-49.3,9.41-71.1,11.53-4.68.45-9.9.17-14.55-.67-1.09-.2-2.05-.63-1.95-1.91l31.37-7.26c3.07-.28,6.07-1.25,9.21-.88,2.77.33,4.93,3.09,6.92.02l-.04-91.87c1.33-1.92,9.61-.08,12.02.05v42.06c0,2.61,13.41,3.21,15.74,3.57,65.25,9.93,133.06,19.12,198.5,26.24,3.38.37,7.87.71,9.75,3.76.07,1.28-.07,2.58,0,3.86Z"/>
    <g>
      <path class="cls-10" d="M414.1,648.88c3.34,1.75,21.6.49,22.83,2.26.93,1.34.65,5.71-1.2,6.61-4.78.04-10.07.98-14.68,1.15-.59,2.75-3.74,1.07-5.51-.21l-2.21.21c-2.02,2.35.09,5.92.03,8.14-.05,1.69-.74,3.11-.8,4.6-.15,3.82.53,18.29-3.08,20.06-1.65.81-14.41.72-15.9-.35-3.88-2.78-2.83-9.06-3.46-12.75-2.68-15.59-4.88-38.13-2.1-53.87.26-1.47,1.2-3.66,2.47-4.48,1.69-1.09,13.09-1.15,15.1-.31,3.34,1.38,4.72,11.13,5.33,14.74.67,3.99-.39,12.31,3.18,14.18Z"/>
      <path class="cls-28" d="M389.39,624.19c0-3.68,14.8-3.25,15.01-2.48s.53,1.51.89,2.25c-2.89,21.8-1.97,44.15,3.61,64.84-1.3,2.57-12.33,2.35-14.88.98-3.58-3.58-2.66-9.36-3.09-13.89-.89-2.46-1.4-5.03-1.54-7.72-.02-.51.01-1.03,0-1.54-.9-12.36-.9-24.71,0-37.04,0-1.99-1.02-2.46,0-5.4Z"/>
      <path class="cls-21" d="M394.02,689.78c2.38-.39,13.49,1.02,13.91-1.18.08-.45-2.5-6.64-2.89-8.68-1.11-5.8-2.13-15.46-2.51-21.41-.78-12.07-.18-24.72,1.54-36.64-5.03.55-10.9-1.73-14.68,2.31.28-.82.19-1.72,1.08-2.38,1.37-1.01,11.15-1.07,13.19-.69,4.04.76,5.05,9.35,5.61,12.92.44,2.83,2.08,12.93.22,14.46-2.69,2.22-6.12-.04-4.62,7.69.79,4.05,4.53,1.94,6.2,3.06,1.17.78.85,12.42.71,14.71s-1.36,13.85-1.92,15.06c-1.35,2.91-11.05,2.8-13.92,2.3-1.62-.28-1.31-.92-1.92-1.53Z"/>
      <path class="cls-21" d="M389.39,666.63l-1.62-23.54,1.62-13.5c-.06,12.31-.25,24.73,0,37.04Z"/>
      <path class="cls-21" d="M390.93,675.89c-2.29-1.76-1.46-5.12-1.54-7.72.95,2.09,1.33,5.39,1.54,7.72Z"/>
    </g>
  </g>
  <g>
    <path class="cls-19" d="M500.61,366.45c2.51,6.71,4.75,13.14,4.69,20.46-.03,3.56-2.21,12.95-4.65,15.47-2.27,2.35-7.49,3.14-9.5.13-3.86-5.78-2.62-15.68-11.38-17.95-8.04-2.08-11.31,5.43-16.6,5.73-.94.05-6.53-1.55-7.01-2.21-1.31-1.79,2.81-3.44,3.92-4.63,7.36-7.89-.09-13.28-9.06-9.82-3.13,1.21-5.88,5.61-8,5.95-3.38.55-13.57-3.05-14.84-6.75-3.4-9.91,2.07-10.84,7.54-17.18,9.74-7.16,25.99-18.31,38.56-12.68,1.56.7,3.47,3.27,5.43,3.84,2.23.65,4.34.05,6.44.51,4.52,1,12.07,14.81,14.45,19.13Z"/>
    <g>
      <path class="cls-33" d="M461.77,704.59c2.69-.8,8.93.65,11,2.58s3.48,6.25,5.25,8.65c5.3,7.19,21.63,13.26,29.55,20.63,6.24,5.8,10.21,11.75.69,16.91-10.58,5.74-31.36,3.64-42.57.24-6.04-1.83-6.54-1.36-12.49-2.19-1.94-.27-10.27-1.8-11.27-2.63-2.04-1.69-1.63-8.19-1.55-10.78.07-2.31.5-6.92.82-9.21.24-1.7,2.21-10.97,2.67-11.99,1.85-4.17,10.55-1.31,13.53-3.46,1.21-.88.11-7.48,4.37-8.75Z"/>
      <path class="cls-33" d="M461.73,706.11c3.24-1.08,7.98.03,10.34,2.53,1.87,1.98,2.99,5.64,4.6,7.76,7.01,9.26,24.61,14.12,32.88,23.48.32.37,3.22,4.94,3.31,5.24.61,2.11-3.76,6.86-5.31,7.53-11.06,4.79-28.07,2.86-39.59.22-1.54-.35-2.38-1.69-4.1-2.08-3.5-.81-19.33-1.86-20.87-3.07-1.66-1.3-1.27-9.55-1.07-12.02s2.68-16.69,3.5-18.11c1.52-2.65,5.78-1.28,8.39-1.65,8.58-1.2,4.41-8.66,7.92-9.83Z"/>
    </g>
    <path class="cls-35" d="M455.81,621.1c2.6-.34,11.57-.51,13.24.93.35.3.52.72.6,1.16-2.37,20.13-.77,41.54,2.53,61.78.89,1.86,1.93,4.06.09,5.79-.55.52-11.65.4-13.37-.21-3.25-1.21-4.25-20.48-4.64-24.3-1.13-11.01-2.41-21.94-1.52-33.18.15-1.89,1.67-11.47,3.08-11.97Z"/>
    <path class="cls-22" d="M473.58,690.55c-.22.24-.55.62-.77.77-4.43-.45-9.76.98-13.9-.77.65.24,10.71.2,12,0,2.83-.42.08-3.69-.21-5.23-3.55-19.01-4-38.34-3.33-57.7.07-1.96.94-3.77.81-5.75l-12.36-.77c2.33-1.7,13.43-.37,14.73,1.11.21.24,2.77,5.33,2.85,5.64.6,2.39-.11,5.01.27,7.45,2.26,14.58,3.25,30.15,2.27,44.8-.22,3.37-.97,7.43-2.35,10.45Z"/>
    <path class="cls-9" d="M468.94,692.86c-2.58.54-6.11,1.89-8.5,0,2.66-.31,5.76.22,8.5,0Z"/>
    <g>
      <path class="cls-33" d="M327.37,733.16c12-3.55,7.91,14.03,9.7,20.85,2.66,10.12,14.82,24.31,17.4,35.08.48,2,.46,4.24-.57,6.06-2.51,4.43-17.1,6.89-22.04,6.51-9.38-.72-17.46-7.71-23.19-14.65-6.35-7.69-3.92-10.11-3.47-18.92s.82-17.83,2.7-26.63c1.4-1.84,10.85-.04,13.77-.91s2.46-6.44,5.72-7.4Z"/>
      <path class="cls-33" d="M327.33,734.66c9.43-3.31,6.74,9.97,7.3,14.84,1.38,11.98,15.14,26.9,18.27,38.85,1.88,7.18-3.61,9.62-9.81,10.66-3.54.6-14.67.92-17.84-.01-4.6-1.35-18.09-13.38-19.11-17.94-2.54-11.33,3.11-26.41,2.49-38.08,1.47-2.1,12.14,2.08,15.89-3.42,1.04-1.52,1.2-4.32,2.82-4.89Z"/>
    </g>
    <path class="cls-33" d="M335.32,522.33c-.95-5.01-10.48-23.67-13.33-29.51-1.89-3.86-6.57-10.22-7.88-13.74-.57-1.54-.57-2.43-.25-4.03.56-2.8,10.38-17.77,12.68-21.3s9.18-14.97,11.54-17.03c3.26-2.84,9.77-5.97,13.83-9.34,12.71-10.54,21.57-26.51,26.44-42.27.92-2.97,4.08-20.26,4.87-20.99.23-.21,5.86.88,6.2,1.13.93.66.82,2.11.81,3.12,0,1.28-2.1,10.26-2.58,12.15-2.2,8.7-6.06,16.52-6.75,25.66-.4,5.29-.08,21.31,1.94,25.82.15.34,4.15,5.75,4.45,5.97.62.46,6.18,1.66,7.19,1.69,5.71.15,16.55-4.56,22.1-7.08,2.34-1.06,9.41-5.73,11.07-5.99,1.26-.2,3.47,3.77,3.43,4.95-.05,1.58-6.62,16.36-7.86,18.48-2.77,4.73-10.24,12.82-14.53,16.35-13.81,11.34-31.6,8.07-45.21,24.28-5.07,6.04-4.21,11.09-5,18.54-1.11.27-7.01,3.5-8.39,4.35-4.63,2.84-8.98,8.21-14.78,8.77Z"/>
    <g>
      <path class="cls-19" d="M279.71,501.49c3.9,8.22,11.07,14.78,18.11,20.61l21.21,16.75.22,1.49c-2.99,4.46-5.87,9-8.65,13.63-3.13,8.46-5.71,16.94-7.72,25.47-.87,3-2.67,7.98-3.09,10.8-.45,3.28-2.45,3.65-6,1.12-14.84-2.48-27.83-11.07-38.65-21.22l-.92-3.06c-.76-.76-1.56-1.58-2.32-2.32-13.71-19.45-10.23-45.02,2.32-64.05,1.39-2.72,3.19-5.3,5.41-7.72,1.08-1,1.53-1.91,3.09-3.09,1.33-1,4.31-2.97,5.79-3.89.8-.5.78-.99,1.93-.4,3.11,1.58,6.97,12.23,9.27,15.87Z"/>
      <path class="cls-11" d="M254.22,500.72c-5.29,9.2-10.44,25.32-10.85,35.86-.38,9.83,3.92,19.78,8.53,28.18-.33-.32-1.11-.47-1.54-.77-11.52-21.99-10.33-42.11,3.09-63.28.24-.36.5-.35.77,0Z"/>
      <path class="cls-19" d="M414.1,518.47c.25.05.52-.05.77,0,1.22,1.91,3.8,11.96,3.49,14.24-3.26,17.31-4.45,34.75-3.56,52.33-.14,1.56-1.79,2.05-3.02,1.34-.77.01-1.55-.02-2.32,0-5.14.25-31.32-1.38-34.11-3.31-.55-.38-1.18-1.22-1.53-1.84.16-12.55-6-19.3-15.33-26.49-5.26-4.99-12.22-9.31-16.99-14.66-2.38-4.5-4.18-9.13-5.41-13.89-.44-1-.36-1.97,0-3.01l5.98-2.53c5.52-4.94,11.63-8.63,18.32-11.08,17.71,2.73,35.62,5.69,53.73,8.89Z"/>
      <path class="cls-18" d="M360.81,509.21c4.38-.05,7.99,1.66,12.05,2.23,9.7,1.36,19.19,2.3,28.88,3.94.17.03.91.62,1.86.81,3.1.61,7.52-.53,10.49,2.28-14.75-2.68-28.79-4.57-43.56-6.25-2.87-.33-7.6-2.61-10.09-2.26-.51.07-8.08,4.12-9.16,4.79-2.82,1.77-5.81,4.81-8.77,6.67-2.21,1.39-7.13,1.8-6.43,4.77-1.06.13-1.5-.76-.77-1.54-.43-1.01-.43-1.78,0-2.32.94-1.54,2.67-2.73,5.18-3.57,5.09-4.25,10.62-7.81,16.6-10.67l1.38,1.12c.3-2.33,1.7-2.16,2.32,0Z"/>
      <path class="cls-7" d="M358.49,554.74c1.52-.02,2.15,1.04,3.1,1.92,1.87,1.72,8.98,8.54,9.92,10.16,2.5,4.32,1.61,9.99,3.16,14.59l34.8,4.97c-3.62.08-8.62,2.01-12.75,2.31s-8.25-.18-12.34.02c-2.49.13-7.74,2.66-9.3,0-1.07-1.83.58-5.44-1.92-6.95-.29-2.94-1.44-11.9-2.49-14.1-.5-1.05-10.52-11.33-12.18-12.91Z"/>
      <path class="cls-11" d="M310.6,554.74c-1.52,8.42-5.3,16.34-7.72,24.69-.37-4.29,1.39-8.32,2.69-12.36,1.4-4.35,3.16-8.74,5.04-13.1v.77Z"/>
    </g>
    <g>
      <path class="cls-9" d="M380.89,362.59c-.4,7.99-2.2,15.45-5.41,22.38.29.44.54.9.66,1.39.67,2.67-8.3,22.26-10.82,24.45-.34.29-.86.38-1.43.4-1.07,3.96-16.6,19.46-19.48,18.86-.27-.06-.45-.52-.6-1.11-2.27-4.85,2.82-10.44,6.51-13.74-5.55,4.08-10.91,8.57-10.68,16.06l-1.23,1.54c.25.84-.38,1.64-1.9,2.4-8.52,13.02-16.78,26.08-24.77,39.18-.1,3.54,1.21,6.95,3.92,10.23,9.11,18.48,17.73,36.96,25.84,55.45l2.45.35c2.23,1.62,14.3,11.74,14.5,12.87.08.47.08.95.04,1.44.63.2,1.13.6,1.62,1.03,8.45,7.53,14.78,14.2,13.06,25.98.82,2.05,1.21,4.3,1.17,6.74,2.67,4.73.28,15.24-4.69,17.87-2.17,1.14-4.34,1.37-3.43-1.46-4.82-.85-9.17-4.34-8.44-9.65-5.26-2.48-8.89-7.25-10.88-14.3-5.79-5.51-10.54-11.55-14.26-18.1-.31-4.81-1.36-9.13-3.16-12.97-9.86-9.79-19.5-19.32-31.22-27.42-7.22-5.93-14.42-12.44-18.55-20.96l-2.04-.45c-2.04-4.98-4.62-9.62-7.71-13.91l-5.38,3.35-1.86-.56c.31-1.95,6.95-5.38,7.01-5.86.16-1.24-1.4-2.74-1.65-4.52-2.53-17.82,7.16-53.84,18.26-68.27,3.58-4.65,10.89-9.89,13.78-14.79,5.5-9.31,7.41-17.64,15.49-26.19,13.73-14.53,25.59-8.86,42.46-7.68,7.21.51,15.46-.06,22.81-.03Z"/>
      <path class="cls-9" d="M362.35,606.44l.52,1.89c-2.56,3.99-3.47,8.72-4.21,13.33l-1.72.99c-.63,23.73-7.38,47.63-13.82,70.37l-1.63,2.17c-.83,3.17-2.48,6.48-3.33,10.17-.71,3.07-2.87,18.38-3.93,19.23-.77.61-1.46.61-2.36.73-3.33.44-17.81.52-20.87-.06-.81-.15-1.5-.39-2.03-1.06-1.5-1.9-.5-15.69-.67-19.4-.21-4.66-1.36-10.39-1.58-15.02-.33-7.01-.09-14.53-.77-21.61-.08-.84-.77-1.95-.77-2.32l-1.56-2.51c-.67-7.4.47-38.09,5.54-42.16.43-.34.92-.61,1.43-.86,1.25-3.21,6.16-8.96,3.86-11.58-.34.21-.68.37-1.03.39-1.19.07-14-12.34-14.91-15.23l1.26-1.37c-.95.09-.95-.68,0-2.32-2.48-1.3.49-10.62,3.09-10.8,1.97-8.4,4.54-16.63,7.72-24.69l4.73-9.02c1.87-7.84,12.98,3.75,14.18,6.97-.51,10.14,2.35,16.49,11.12,21.69,4.88,4.21,7.28,10.25,9.36,16.17,3.12,5.65,7.64,10.39,13.54,14.23l-1.19,1.66Z"/>
      <path class="cls-29" d="M279.71,501.49c10.34,16.37,24.86,24,39.03,36.25,2.55,2.2,5.25,5.05,8.45,7.76,7.78,6.57,4.77,7.98,6.78,16.37,1.67,6.95,11.03,12.92,14.81,19.15,1.84,3.03,2.76,8.03,5.07,10.37,1.4,1.41,5.13,2.56,5.28,2.82.45.76-.1,2.67.3,3.93,1.13,3.55,4.36,4.55,6.77,6.75-.81,0-1.76-.19-2.51.01-.68.18-.94,1.02-1.35,1.53-.15-2.91-3.21-3.17-5.02-4.63-11.43-9.2-7.68-13.09-14.41-22.64-5.13-7.28-11.93-6.63-14.33-17.32-.65-2.91-.06-7.02-.52-8.68-.43-1.57-6.96-7.46-8.56-8.54-4.51-3.05-5.48,8.62-8.9,10.1v-.77c2.24-5.21,5.48-9.95,7.68-14.94-12.72-11.03-28.13-19.32-37.22-33.88l-1.35-3.66Z"/>
      <path class="cls-33" d="M375.48,384.97c2.1.45,1.49-1.06,1.9-2.31.54-1.65,1.34-3.69,1.73-5.25.69-2.73,1.86-12.53,2.9-14.07,1.18-1.73,9.31.99,9.63,2.05-1.3,5.29-1.95,11.51-3.22,16.7-1.04,4.22-3.22,9.14-4.22,13.54-2.13,9.45-5.43,34.32,3.97,40.34,1.05.67,2.13.44,2.9.8.7.33.66,1.31,1.16,1.43,1.05.24,4.08.26,5.11.01.57-.14.47-1.36,1.06-1.51,3.95-.93,7.61-1.01,11.98-2.56,6.63-2.36,12.49-7.15,19.1-8.98.45,3.42,4.04,4.15,2.99,7.86-.72,2.55-6.4,15.26-7.84,17.67-2.77,4.63-12.31,14.22-16.72,17.64-11.47,8.9-26.26,8.47-38.63,18.9-7.25,6.11-10.54,12.28-8.49,22-.71,0-1.74-.14-2.32,0-2.23-1.81-1.13-8.76-.3-11.63,3.04-10.43,13.42-17.16,23.16-20.86,17.53-4.51,30.03-11.52,40.08-26.69,1.43-2.16,8.09-16.64,8.14-18.52.01-.54-1.68-3.31-1.93-3.32-8.06,4.61-16.35,9.2-25.48,11.7-27.52,7.56-23.9-24.8-21.37-42.2.77-2.23,9.51-30.2,7.8-31.17-.21-.12-4.03-.86-4.21-.75-5.16,27.97-16.34,56.5-43.23,70.56-7.39,7.6-13.73,18.19-19.22,27.44-3.2,4.24-5.44,8.71-6.73,13.42,7.98,13.98,15.07,28.46,21.27,43.43l-1.15,1.71c.13.69-.09,1.58,0,2.32-6.66-12.94-13.1-26.06-19.32-39.37-2.85-3.35-4.32-6.84-4.42-10.46,8.01-13.21,16.32-26.79,24.98-39.66,10.53-6.05,21.32-13.16,27.34-23.95,5.6-7.61,8.92-17.19,11.59-26.24Z"/>
      <path class="cls-33" d="M335.32,524.64c.24.53.54,1.04.77,1.54,2.02,4.48,3.86,9.22,5.41,13.89-2.61-2.93-3-6.14-4.74-9.54-7.72-14.97-13.83-30.56-21.4-45.76-2.03-4.08-6.26-6.77-3.58-12.6,1.19-2.59,5.7-7.85,7.32-10.43,4.23-6.72,14.04-25.04,19.31-28.94-.29-2.08,3.71-3.98,5.41-3.86,1.77.31,2.54-.16,3.91-1.11,4.68-3.28,12.72-11.94,16.18-16.64.02,2.35-2.43,4.85-3.88,6.54-6.6,7.66-14.14,13.25-23.19,17.73l-24.67,39.45.34,3.45c8.69,14.8,15.73,30.65,22.82,46.26Z"/>
      <path class="cls-31" d="M343.82,428.95c-2.04,3.43-3.65,2.56-5.41,3.86-1.13-2.99.84-8.48,2.43-11.08,1.04-1.69,8.21-7.87,9.93-8.61,1.38-.6,1.42-.23,2.3.78-1.49,3.27-5.53,5.33-6.99,8.44-1.03,2.18-.85,4.24-2.26,6.61Z"/>
      <g>
        <path class="cls-9" d="M435.73,355.64l.48,1.78c-13.04,9.48-7.87,19.64,6.57,20.64,10.65-13.77,33.18-4.93,14.88,9.11,4.57,2.41,9.02,1.47,13.35-2.81,13.48-6.6,17.8,6.08,20.86,16.34,4.66,5.39,8.07.75,9.96-4.22,3.49-9.17,1.54-18.7-2.01-27.69l.78-2.35c3.19,5.8,6.05,12.61,6.24,19.68.11,4.16-3.22,15.83-6.75,18.02-3.8,2.36-7.56.82-10.29,2.06-3.33,1.51-5.78,6.93-9.49,8.27-2.94,1.06-6.45.62-9.34,2.24-2.05,1.14-13.42,12.49-13.64,14.22,1.84,9.14,1.77,18.46,1.61,27.78-.21,12.13.03,26.69-.82,38.54-.34,4.74-2.02,9.91-2.34,14.64-.43,6.43.53,12.8.95,19.18,10.6,8.16,23.49,14.92,27.45,28.91,4.68,16.52-.79,26.28-2.09,41.47s.41,30.01-3.8,44.05l-1.62,20.38c-.12-13.39-1.22-26.65-3.31-39.79-1.52-8.65-22.19-9.56-20.57,1.6l-.84.37c-2.51,5.36-3.69,1.19-4.25-2.34-3.76-6.92-3.99-14.59-.7-22.98,5.09-20.51,9.98-41.22,14.14-62.05-2.31-9.65-4.91-1.92-7.8,23.2-5.28,16.82-8.83,33.8-10.66,50.95.08,7.69,4.19,13.77,8.5,19.39.82,1.72,1.3,12.87.46,14.45-7.38,2.79-7.07,7.39.64,8.94.69,10.72,2.29,21.22,4.81,31.5,1.4,1.45,2.26,2.7,2.59,3.75-1.46,4.49-14.81,3.28-15.16-1.75-1.04-7.83-3.01-15.36-5.91-22.6-2.8-2.1-6.53-3.08-11.18-2.91-3.65-.38-11.24-3.6-6.37-6.68l1.77-1.65,12.35-.97c1.6-3.59,1.07-4.74-3-4.54-5.89,0-11.75-.36-17.58-1.07l-.49-1.81c3.06-2.5.96-8.03,1.72-11.79,1.7-8.33,7.1-8.86,6.03-21.81-.36-4.32-3.8-21.04-5.38-24.72-1.5-3.48-4.25-2.11-4.69-3.42,1.66-.37,2.66-1.04,3-2.02-.34-13.13,0-26.17,1-39.09,2.62-9.31,3.44-19.07-.91-27.56-.26.67-.51.67-.77,0-4.37-1-8.49-2.03-12.36-3.09l.59-1.1c3.79-.59,7.8-.4,12.02.57-.9-8.53-.83-16.48.37-24.98-1.98-5.72-3.91-11.46-5.79-17.22-.81-2.31-.38-3.76,1.3-4.34-.55-.34-.67-.66-.21-.97,8.97-6.93,15.22-15.18,18.75-24.78,4.84-7.43,6.41-12.48.17-18.18-10.1,5.66-20.59,9.86-31.45,12.6-16.06,2.63-16.85-20.86-13.52-31.18,3.51-.2,6.49,3.77,7.98,6.92,2.33-9.34,6.38-17.76,12.15-25.28.99-1.82-12.6,17.15-12.64,17.39-2.54,1.93-6.35-.19-4.39-2.89,1.81-1.02,2.77-2.77,2.9-5.26,3.68-6.18,8.28-11.69,13.45-16.64.13-1.66-6.67-3.82-8.22-4.08-3.05-1.9-3.1-7.3,1.06-6.96,5.23,2.81,8.31,2.51,13.51,0,4.43.27,8.86.13,13.3-.4-.17-1.58.44-2.56,1.84-2.92,1.89-4.52,7.21-7.39,10.81-10.03Z"/>
        <g>
          <path class="cls-37" d="M421.05,658.91c-1.02,7.64,8.94,5.33,13.96,6.5,9.02,2.11,8.71,25.98,11.52,27.85.79.52,6.11,1.26,7.35,1.22,2.51-.08,3.83-1.4,5.79-1.62.25-.03.52.03.77,0,2.79.76,5.68.4,8.5,0,.7-.15,1.7.2,2.56-.15,1.04-.43,1.1-1.26,1.3-1.39-.69-.95-.3-1.35.77-.77,2.33-2.57,2.09-2.34,3.09-6.17-.08,1.81.36,3.62-.4,5.39-.17.4-5.1,6.69-5.52,6.83-1.72.58-12.02.32-14.58.16-2.26-.14-10.01-.87-11.16-1.97-1.57-1.52-2.15-9.01-2.86-11.81-.62-2.45-3.08-13.27-4.03-14.49-1.53-1.98-5.16-.66-7.37-1.13-1.89-.4-12.08-3.69-13.03-4.54-1.24-1.1-.75-4.58-4.39-3.91,1.4-1.63,5.47.08,7.72,0Z"/>
          <path class="cls-7" d="M411.79,587.15c.05-.25-.09-.7,0-.77.25-.19,1.47,0,1.94-.73,1.13-1.78.12-25.1.38-29.74.44-7.8,1.77-15.69,3.82-23.22l-3.05-14.21c.98.19,1.82,0,2.2,1.26-.46,4.41,1.79,8.8,1.72,13.01-.09,5.42-2.72,12.81-3.14,18.54-.81,11,.58,22.85,0,33.94-.23,2.47-2.13,1.75-3.87,1.93Z"/>
          <g>
            <path class="cls-9" d="M424.92,365.68c-.33.79.14,4.32-1.28,4.66-3.17-.54-6.18.38-9.14.59-1.09.07-2.37-.75-3.79-.62-2.3.21-4.45,2.37-7.79,2.37s-5.01-2.07-8.11-2.37c-.92,5.7,2.23,3.99,5.59,5.59,9.1,4.35,2.35,6.3-1.28,10.67-1.65,1.99-6.68,8.76-7.75,10.78-1.2,2.28.67,5.34-4.29,4.59-1.89,1.29-2.28.58-2.32-1.54l-.56-1.01c3.18-11.06,5.88-22.28,8.07-33.67l.98-.82c11.58,3.19,19.89,3.71,31.67.77Z"/>
            <path class="cls-12" d="M476.67,665.86c-.02,6.13.28,12.4,0,18.52.11,3.61-.92,5.67-3.09,6.17l-.59-.91c3.25-17.93,1.61-36.96-.97-55.11,1.09-3.17-1.59-11.72-4.01-13-1.9-1.01-9.84-.56-12.2-.43.85,1.24.72,2.99-.38,5.25-2.84,20.17-.54,43.01,3.91,62.61l-.44,1.6c4.27.66,9.42,1.04,13.45-.3l.46,1.07c1.34,1.9-3.05,4.88-3.86,1.54-2.8.39-5.71.78-8.5,0-.19.69-.45.67-.77,0-4.44-2.86-5.25-10.08-6.09-15.14-.53-3.22-1.21-17.66-2.32-19.14-.76-1.02-7.27.44-6.25-6.17.75-4.85,5.16-2.81,6.01-5.62s-.15-9.04.15-12.58c-2.69-1.7-.99-4.48.77-6.17.42-2.39.91-7.53,3.63-8.34,1.48-.44,12.01-.46,13.74-.13,2.15.41,4.44,4.75,4.87,6.71,2.83,13.16,2.54,26.12,2.49,39.57Z"/>
            <path class="cls-33" d="M393.25,364.9c-2.02,6.04-2.52,12.57-4.07,18.7s-3.28,10.32-4.43,16.8c1.75,1.46,1.66,4.95-.77,5.4-.78,7.99-2.09,16.54,1.73,24.12,3.22,6.39,6.43,6.66,13.25,5.89,10.01-1.12,17.34-6.21,25.71-10.58,6.6-3.45,4.72-1.39,6.86,2.13.67,1.1,2.24,1.82,2.55,2.92.38,1.37-1.48,6.87-2.17,8.36-.83,1.81-2.2,2.47-2.93,4.01-1,2.11-1.08,5.72-2.19,7.85-2.32,4.49-15.99,15.4-16.55,17.8-.32,2.22-1.72,2.1-2.32,0,9.96-9.35,19.13-19.88,23.04-33.58,1.12-3.91.9-7.31-3.67-8.43-8.87,5-19.55,9.99-28.2,11.83-21.89,4.64-18.31-24.66-16.39-38.65,3.11-9.85,5.69-19.86,7.74-30.05,2.08-5.38-3.97-6.3-7.87-5.62l-4.86,20.95c-.61,2.1-1.43,2.28-2.23.21.83-2.82,2.32-6.55,2.9-9.06.97-4.21.52-9.21,2.51-13.32,7.24.04,6.11.6,12.36,2.32Z"/>
            <path class="cls-16" d="M451.18,634.22c-5.3-.99-9.57-12.6-9.94-17.46-1.14-14.84,7.05-36.96,10.34-51.99,1.92-8.76,2.68-18.98,4.58-27.07,1.47-6.24,6.9-1.12,6.6,2.65-.12,1.54-1.25,3.1-1.47,4.79-1.74,13.1-3.84,20.88-6.79,33.34-1.41,5.92-9.12,35.65-8.57,38.93.6,3.58,4.61,7.88,3.72,12.16l2.31-1.54c-.3,1.75-.62,4.38-.77,6.17Z"/>
            <path class="cls-15" d="M383.98,405.8c.2-2.03.42-3.43.77-5.4.68.56,1.72.97,2.32,1.54.87.84,1.18,2.92,3.09,1.97,1.45-.72,8.51-12.99,11.19-15.87.65-.7,5.97-6.58,6.57-3.45-3.07,4.89-6.99,9.11-9.56,14.35-1.77,3.59-4.16,13.69-5.5,15.34-1.62,1.98-3.36-3.31-4.23-4.26-1.24-1.36-3.64-2.2-4.65-4.23Z"/>
            <path class="cls-27" d="M416.42,416.6l8.41-5.86c1.51-4.03,2.02-13.15,4.34-16.5,1.18-1.69,8.05-5.8,10.02-5.41,1.23.24,1.05.94.4,1.93-1.27,1.94-4.43,3.78-5.76,5.82-4.28,6.54-4.13,12.6-5.01,19.68-.7,5.62-3.32,1.93-6.02,1.3-2.03-.48-4.36-.08-6.38-.96Z"/>
          </g>
        </g>
      </g>
    </g>
  </g>
  <polygon class="cls-6" points="1001.47 693.61 1001.47 700.31 1001.96 704.66 1002.14 709.07 999.74 706.7 997.02 705.52 993.45 705.1 989.94 705.64 988.56 706.77 987.79 709.6 987.56 711.41 986.75 713.26 984.08 714.58 980.99 714.58 978.42 714.95 975.23 715.47 973.7 716.37 972.71 718.12 971.79 714.25 971.79 710 971.79 705.1 972.58 700.31 973.18 696.1 973.73 693.61 976.84 695.03 980.29 695.32 984.46 695.21 988.38 695.21 991.91 696 996.52 696.1 998.89 695.56 1001.47 693.61"/>
  <path class="cls-6" d="M862.48,724.51l.23,2.3.35,2.08.35,1.73.4,1.93v2.88l-1.31-1.83-1.18-.53-2.15-.45-1.59-.07-1.25.28-1.45.87-.56.63-.84,1.43-1.02,2.23-.98,1.37-1.11.69-1.72.46-2.19.14-2.48-.07-2.12-.06-2.2.14-1.88.6-.88.68-.43.6-.89-2.37-.69-3.12.24-3.53s.1-3.45.15-3.79.84-2.77.94-3.02,1.29-1.53,1.29-1.53l.6-.24,2.17.15,2.42.31s3.36.04,4.05-.02c.4-.03,4.1-.09,4.25-.09s3.57.08,3.77.08,3.85.46,3.85.46l2.42-.25,1.46-1.06Z"/>
  <polygon class="cls-6" points="472.63 692.11 472.63 698.81 473.12 703.16 473.3 707.57 470.9 705.2 468.18 704.02 464.61 703.6 461.1 704.14 459.72 705.27 458.95 708.1 458.72 709.91 457.91 711.76 455.24 713.08 452.15 713.08 449.58 713.45 446.39 713.97 444.86 714.87 443.87 716.62 442.95 712.75 442.95 708.5 442.95 703.6 443.74 698.81 444.34 694.6 444.89 692.11 448 693.53 451.46 693.82 455.62 693.71 459.54 693.71 463.07 694.5 467.68 694.6 470.05 694.06 472.63 692.11"/>
  <path class="cls-6" d="M334.33,725.13l.23,2.3.35,2.08.35,1.73.4,1.93v2.88l-1.31-1.83-1.18-.53-2.15-.45-1.59-.07-1.25.28-1.45.87-.56.63-.84,1.43-1.02,2.23-.98,1.37-1.11.69-1.72.46-2.19.14-2.48-.07-2.12-.06-2.2.14-1.88.6-.88.68-.43.6-.89-2.37-.69-3.12.24-3.53s.1-3.45.15-3.79.84-2.77.94-3.02,1.29-1.53,1.29-1.53l.6-.24,2.17.15,2.42.31s3.36.04,4.05-.02c.4-.03,4.1-.09,4.25-.09s3.57.08,3.77.08,3.85.46,3.85.46l2.42-.25,1.46-1.06Z"/>
</svg>