<?xml version="1.0" encoding="UTF-8"?>
<svg id="Layer_1" data-name="Layer 1" xmlns="http://www.w3.org/2000/svg" viewBox="0 0 1080 1080">
  <defs>
    <style>
      .cls-1 {
        fill: #ebba97;
      }

      .cls-2 {
        fill: #f9cba8;
      }

      .cls-3 {
        fill: #efdbc9;
      }

      .cls-4 {
        fill: #2a2a2a;
      }

      .cls-5 {
        fill: #d84140;
      }
    </style>
  </defs>
  <path class="cls-1" d="M373.68,310.43c2.72-.36,6.85-2.38,9.38-2.73,7.12-.99,29.21,1.02,35.74,3.49,6.17,2.33,15.07,1.39,22.34,2.02,3.82.33,6.89,1.17,11.12,1.37,1.33.06,2.77-.71,2.39,1.39-11.55-.76-24.11-.99-35.57-2.15-3.59-.36-7.19-2-11.14-2.7-11.29-1.98-18.8-2.81-30.29-.5-2.53.51-2.31.98-3.97,2.58v-2.77Z"/>
  <path class="cls-3" d="M575.75,417.61c.39,2.1-1.06,1.33-2.39,1.38s-2.83.05-4.22,0-2.78.71-2.39-1.38c2.99.1,6.01-.05,9,0Z"/>
  <path class="cls-3" d="M687.16,713.56c-.97,1.17-1.61,2.76-3.46,2.77.78-.98.47-3.27,3.46-2.77Z"/>
  <path class="cls-3" d="M665.71,733.61c-.08,1.61-1.13,2.68-2.77,2.77,1.65-2.75.94-1.34,2.77-2.77Z"/>
  <path class="cls-3" d="M660.86,739.15c-.82,1.16-1.21,1.67-2.08,2.77-1.44-1.29.59-2.69,2.08-2.77Z"/>
  <path class="cls-3" d="M646.33,752.98c.2,2.24.16,2.28-2.08,2.07.14-.28-.03-.94.32-1.41.56-.74,1.22-.47,1.75-.67Z"/>
  <path class="cls-3" d="M375.07,839.41c-.78-.58-2.56,0-2.08-2.77.75.77,2.21,1.02,2.08,2.77Z"/>
  <path class="cls-3" d="M640.1,757.82c.08,1.4-.7,2.04-2.08,2.07.51-.52-.72-1.04,2.08-2.07Z"/>
  <path class="cls-3" d="M379.22,843.56c-2.64-1.09-.61-.55-1.38-2.07.98.33,1.39,1.05,1.38,2.07Z"/>
  <path class="cls-3" d="M581.97,416.92c-.11.09.07.98,0,1.38-.72.28-1.3-.68-1.38-.69l1.38-.69Z"/>
  <path class="cls-3" d="M597.2,415.53c-.12.12.08.98,0,1.38-.74.28-1.29-.68-1.38-.69l1.38-.69Z"/>
  <path class="cls-3" d="M629.03,764.73c.25,1.26-.14,1.6-1.38,1.38.64-.9-1.11-.78,1.38-1.38Z"/>
  <path class="cls-3" d="M543.22,416.23c-.08,0-.65.97-1.38.69-.08-.4.1-1.3,0-1.38l1.38.69Z"/>
  <path class="cls-3" d="M625.57,766.8c.25,1.26-.14,1.59-1.38,1.38.64-.85-1.13-.69,1.38-1.38Z"/>
  <path class="cls-3" d="M620.73,769.57c.24,1.26-.13,1.6-1.38,1.38.53-.66-1.17-.83,1.38-1.38Z"/>
  <path class="cls-3" d="M530.77,414.15c-.08,0-.93,1.12-1.38.69-.16-.15.15-1.21,0-1.38l1.38.69Z"/>
  <path class="cls-2" d="M1009.63,829.04c-3.43.96-8.41,2.34-11.76.69.13,0,.56-.61,1.1-.64,3.44-.19,7.78-1.18,10.66-.05Z"/>
  <path class="cls-2" d="M984.03,829.73c1.15,2.09-5.28,1.58-5.54,1.38-.11-.08.07-.99,0-1.38,1.84-.03,3.69.04,5.54,0Z"/>
  <path class="cls-2" d="M971.57,829.73c-.83.06-3.93,2.29-3.46-.69,1.22-.08,2.45-.23,3.46.69Z"/>
  <path class="cls-2" d="M966.04,829.04c-.85.11-3.14,2.21-2.77-.69,1,.09,1.97-.22,2.77.69Z"/>
  <g>
    <g>
      <path class="cls-3" d="M370.91,833.88l-4.67-5.33c-15.27-25.54-20.7-52.78-24.54-81.99-8.81-7.83-20.51-19.67-18.49-32.6.33-2.08,1.98-3.87,2.06-6.29.12-3.68-2.65-7.21-2.09-10.99.38-2.53,3.48-5.4,3.98-7.11,1.78-6.02-7.1-21.5-9.16-27.89-9.52-29.5-6.45-57.6-14.57-87.12-2.22-8.07-8.89-17.92-12.15-26.54-2.73-7.21-4.07-15.7-6.83-22.9-2.24-5.85-8.15-14.36-8.99-20.06-.49-3.34,2.65-12.98,6.87-11.02,5.39,2.51,10.46,18.01,13.97,22.71,1.07,1.44,1.95,2.87,4.04,2.54v-13.48c0-.17,2.1-2.29,2.38-2.46,5.78-3.42,5.79,7.18,6.99,9.68.8,1.66,4.23,3.71,5.44,5.63,3.47,5.53,5.46,18.48,10.43,22.77,3.26,2.82,8.02,5.49,10.2,9.86,3.27,6.58.09,11.88,4.41,18.41,10.51,15.88,30.03,28.71,42.85,42.92,9.14,10.13,14.25,19.28,20.92,30.96,13.61,23.87,25.43,42.5,33.03,69.33,1.6,5.65,9.39,9.9,7.83,16.77-.45,2-2.63,3.05-2.64,5.66,0,1.79,1.57,10.98,2.45,12.12,1.66,2.15,10.49,2.29,13.65,2.96,8.73,1.84,15.99,4.78,23.61,8.9l5.98,4.74c-5.09-1.17-5.05.91-9.34,1.38-19.27,2.14-34.99-3.89-53.26-4.87-6.17-.33-13.46.72-19.4.03-3.63-.43-10.53-5.74-8.01,2.48l8.35,4.44c-1.29-.21-3.7.07-4.15,0-3.42-.55-7.68-.66-8.17-4.65-.39-3.18,3.39-7.2,6.46-7.16,2.03.03,2.36,1.63,4.16,2.1,7.78,2.06,15.74-.85,23.44.09,7.89.96,17.86,3.93,25.66,4.79,6.08.67,12.29-.62,18.34-.7-.66-6.78-6.12-5.7-10.57-6.94-.63-.18-.57-1.18-.99-1.34-5.31-2.09-9.96-1.1-14.93-2.23-1.82-.41-2.63-2.13-3.95-2.63-.45-5.07-1.77-9.31-1.38-14.52.31-4.22,1.39-3.39,1.99-5.34.3-.97-1.66-5.97-2.36-7.08-1.84-2.93-7.6-4.18-6.55-8.55.14-.59,1.94.1,1.34-3.52s-3.98-6.86-4.64-9.22c-.41-1.49-.01-2.93-.17-4.32-.57-5.17-11.83-23.77-15.22-29.73-1.17-2.05-2.48-3.84-3.46-5.53-7.16-12.43-12.78-26.4-21.57-37.6-10.58-13.48-24.82-23.58-35.87-35.7-1.27-1.39-2.4-4.04-4.15-4.15-.27-.54-.46-1.68-.82-1.94-.46-.33-1.08-.04-1.26-.13-.06-2.13-2.22-2.92-3.46-4.15-3.54-3.53-6.57-6.17-7.61-11.06-.64-3.01-.91-6.13-1.38-8.99-.24-1.46-.24-3.45-.69-4.84-.89-2.7-1.75-2.5-3.46-4.15-5.55-5.33-6-4.28-10.38-11.06-1.98-3.7-2.95-7.86-4.57-11.7-.41-.97-1.48-1.7-1.66-2.13-.24-.57.22-2.08,0-2.77-.51-1.61-3.6-3.62-4.84-4.84-3.61-3.54-1.23-4.53-2.61-8.8-.3-.93-1.53-3.71-2.94-2.63-1.29.99-2.72,19.41-2.06,20.42-3.59,2.15-3.54-1.47-4.84-3.11-4.31-5.45-4.38-9.17-7.73-14.41-.87-1.36-6.2-8.02-7.19-8.1-1.84-.17-4.69,2.67-4.5,4.5.14,1.34,1.7,2.13,2.26,3.34,4.45,9.68,7.5,18.65,10.6,28.82.51,1.67.26,3.55.96,5.27.91,2.23,2.89,2.24,3.7,3.91,1.49,3.08,1.8,8.57,2.76,11.76,1.41,4.69,7.39,12.76,8.5,17.09.47,1.81.03,3.57.46,5.07.33,1.16,2.07,1.95,2.48,3.74.74,3.23.36,9.01.93,12.9.71,4.88,2.87,10.78,3.39,15.28,1.18,10.17-.84,24.67,2.4,34.25,1.22,3.59,1.62,4.33,2.61,8.45,1.59,6.61,3.6,8.14,5.5,13.18.86,2.28.69,5.49,1.61,7.38.59,1.21,2.26,1.73,2.9,3.32,1.6,3.97,1.66,8.95,2.25,12.62-1.78-.3-2.02.44-2.95,1.55-4.72,5.63-1.03,10.18-1.15,16.08-.06,3.19-2.13,6.79-2.13,9.69,0,5.78,5.14,15.02,9.02,19.34.92,1.03,7.34,6.91,8.04,7.18.45.17,1.58.41,1.63-.24.32-2.6-.67-5.03-.75-7.59-.05-1.83.76-3.7.74-4.51,2.49-.6,2.57,1.07,2.06,2.97-.19.69-1.75-.15-1.37,3.58.31,3.07.48,6,.77,8.93,1.54,16.12,7.8,53.28,17.22,65.59,1.66,2.16,5.18,4.08,6.82,6.52,3.82,5.68,9.45,14.63,15.78,18.12,1.92,1.06,4.55,1.17,6.75,2.25,2.43,1.19,5.26,3.88,7.85,4.61,6.21,1.74,14.4.56,20.47-1.38,1.63-.52,1.7-2.47,2.56-2.97,1.14-.67,3.16-.16,4.82-.71,1.06-.36,6.89-5.65,7.28-6.55,1.24-2.89-.51-5.23-.21-7.76.32-2.74,3.62-5.29,3.84-7.17.23-2.01-1.08-6.04-1.22-8.25-.09-1.48.72-2.76.72-4.12,0-3.13-7.01-19.37-9.09-22.03-.76-.97-7.88-6.9-8.9-7.36-.47-.21-1.28.05-2.44-.65s-3.62-3.45-3.79-4.88c30.06,8.32,40,65.27,6.26,75.06-16.22,4.7-31.44-.87-43.28-12.14-2.08-1.98-7.56-9.44-9.7-10.36-.83-.36-1.35.19-1.02,1.02.93,2.37,4.05,7.78,5.53,10.04Z"/>
      <path class="cls-2" d="M301.71,524.79c.04.06,1.21-.27,1.4.45.88,3.42-.34,6.45,2.46,10.56,5.13,7.55,4.14-12.65,8.6-12.4.18.42,1.25,1.16,1.66,2.13,1.62,3.85,2.58,8,4.57,11.7-.04-.06-.89.15-1.16-.24-.7-.99-.24-2.8-2.99-2.52.6,2.69-1.41,5.54.08,7.88.48.75,1.59.95,2.02,1.6,4.97,7.59,3.25,18.34,5.88,26.45.99,3.06,3.82,8.11,5.36,11.24,7.27,14.71,16.67,28.57,23.89,43.2,3.63,7.36,6.77,19.21,11.21,25.1-2.08.15-2.84-.99-2.8,1.73.06,3.46,2.91,5.17,2.8,7.26-.04.64-1.18,1.93-.73,3.76.2.8,1.28.25,1.42.39,1.32,1.24,1.06,2.63,1.38,4.15.52,2.47.42.76,1.38,1.38.75.48.56,2.64.69,3.46.2,1.22-.59,1.6,1.38,1.38,1.68,3.41,1.43,4.54,4.15,7.61.14.16-.32,1.2.34,1.4,2.38.72,1.49-.97,1.73-1.4,2.02-3.48,7.7-7.35,11.07-8.99,1-.49,3.23-1.05,3.8-2.08,1.04-1.89-.89-5.33,1.73-4.83.15,1.45-.43,3.6.34,4.85.72,1.17,10.84,6.25,12.75,8.01,2.82,2.59,5.93,9.36,8.01,11.36s7.67,2.75,10.26,4.26c1.99,1.16,1.76,4.51,5.32,2.63.15,1.4-.24,2.84.17,4.32.65,2.36,4.01,5.45,4.64,9.22s-1.2,2.92-1.34,3.52c-1.05,4.37,4.71,5.62,6.55,8.55.7,1.11,2.66,6.11,2.36,7.08-.6,1.95-1.68,1.12-1.99,5.34-2.92-.44-3.21,2.44-4.82,3.83-2.71,2.35-7.24,4.64-10.83,5.08-4.36.54-21.46-.68-25.35-2.18-.94-.36-4.64-4.19-3.96-.2.35,2.01,4.49,6.57,6.23,7.62,5.27,3.19,24.61,1.66,31.41,1.01,2.99-.29,4.8-2.09,8.7-.64,1.32.49,2.13,2.21,3.95,2.63,4.97,1.13,9.63.14,14.93,2.23.42.16.36,1.17.99,1.34,4.45,1.23,9.91.16,10.57,6.94-6.05.07-12.26,1.37-18.34.7-7.8-.86-17.77-3.83-25.66-4.79-7.7-.93-15.66,1.97-23.44-.09-1.8-.48-2.13-2.07-4.16-2.1-3.07-.04-6.84,3.98-6.46,7.16.49,3.99,4.75,4.1,8.17,4.65l21.12,25.57,1.72-.33c.68-5.02-4.03-12.05-5.54-16.94,1.02.46,8.14,6.4,8.9,7.36,2.09,2.66,9.1,18.89,9.09,22.03,0,1.36-.81,2.64-.72,4.12.14,2.22,1.45,6.25,1.22,8.25-.22,1.88-3.52,4.44-3.84,7.17-.3,2.53,1.45,4.87.21,7.76-.39.91-6.21,6.2-7.28,6.55-1.67.56-3.68.04-4.82.71-.87.51-.93,2.45-2.56,2.97-6.06,1.94-14.25,3.11-20.47,1.38-2.59-.72-5.42-3.41-7.85-4.61-2.2-1.08-4.82-1.19-6.75-2.25-6.33-3.49-11.95-12.44-15.78-18.12-1.65-2.44-5.17-4.35-6.82-6.52-9.42-12.3-15.67-49.47-17.22-65.59-.28-2.93-.46-5.86-.77-8.93-.38-3.73,1.19-2.89,1.37-3.58.52-1.9.43-3.58-2.06-2.97-.02-1.31-.65-2.99-.69-4.84,0-.09.62-.47.6-1.01-.08-1.5-.32-4.98-.55-6.22-.14-.77-1.64.06-2.16-.83-1.52-2.6,2.39-6.79-2.74-5.77-.06-.9-.04-1.86,0-2.77.16-4.05,1.76-5.16-3.46-7.61-.5-2.3-.49-3.33-.69-5.53-.12-1.34.48-1.57-1.38-1.38-.62-1.78-1.08-3.68-1.38-5.53-.6-3.67-.65-8.64-2.25-12.62-.64-1.59-2.31-2.11-2.9-3.32-.92-1.88-.76-5.1-1.61-7.38-1.89-5.04-3.91-6.57-5.5-13.18-.99-4.12-1.39-4.86-2.61-8.45-3.24-9.58-1.23-24.08-2.4-34.25-.52-4.51-2.68-10.4-3.39-15.28-.57-3.89-.19-9.67-.93-12.9-.41-1.79-2.15-2.59-2.48-3.74-.43-1.5,0-3.26-.46-5.07-1.11-4.33-7.09-12.4-8.5-17.09-.96-3.19-1.27-8.68-2.76-11.76-.81-1.67-2.79-1.68-3.7-3.91-.7-1.71-.45-3.59-.96-5.27-3.1-10.17-6.15-19.14-10.6-28.82-.56-1.22-2.13-2.01-2.26-3.34-.19-1.83,2.67-4.67,4.5-4.5.98.09,6.32,6.74,7.19,8.1,3.34,5.24,3.42,8.96,7.73,14.41,1.3,1.65,1.25,5.27,4.84,3.11Z"/>
      <path class="cls-1" d="M364.69,649.94c-4.44-5.88-7.58-17.74-11.21-25.1-7.22-14.63-16.62-28.5-23.89-43.2-1.55-3.13-4.37-8.17-5.36-11.24-2.62-8.12-.91-18.87-5.88-26.45-.43-.65-1.54-.85-2.02-1.6-1.49-2.34.52-5.19-.08-7.88,2.75-.27,2.29,1.54,2.99,2.52.27.39,1.13.18,1.16.24,4.38,6.79,4.83,5.74,10.38,11.06.01,2.27.82,4.51,3.46,4.15.46,1.39.45,3.38.69,4.84-1.17,1.89-1.54,9.18,1.38,8.99,1.04,4.9,4.07,7.54,7.61,11.06-.23,2.93,1.59,3.15,3.46,4.15.18.1.8-.2,1.26.13.36.26.55,1.4.82,1.94.97,1.93.8,4.47,4.15,4.15,11.05,12.11,25.29,22.22,35.87,35.7,8.79,11.2,14.41,25.17,21.57,37.6-.2,2.45.83,5.28,3.46,5.53,3.39,5.96,14.66,24.56,15.22,29.73-3.56,1.87-3.33-1.47-5.32-2.63-2.59-1.51-8.13-2.21-10.26-4.26s-5.18-8.77-8.01-11.36c-1.91-1.75-12.03-6.83-12.75-8.01-.77-1.25-.19-3.4-.34-4.85-2.62-.5-.69,2.94-1.73,4.83-.57,1.03-2.8,1.6-3.8,2.08,1.67-3.46,4.05-2.65,2.22-7.41-2.89-7.53-12.71-7.9-19.52-7.11-.8-1.38,2.66-1.5,1.39-2.76-.11-.11-2.01-.14-3.03-.78-2.02-1.28-2.81-2.63-3.9-4.07Z"/>
      <path class="cls-4" d="M330.78,690.05c.3,1.85.76,3.76,1.38,5.53.27.76-.63,1.74,1.38,1.38.2,2.2.2,3.24.69,5.53.27,1.26.87,2.14,1.22,3.27.66,2.1-.97,3.77,2.24,4.33-.04.9-.06,1.87,0,2.77.23,3.69,1.12,3.29,1.76,5.5.81,2.78.44,6.05,3.08,8.33.04,1.85.67,3.53.69,4.84.01.81-.8,2.68-.74,4.51.08,2.56,1.07,4.99.75,7.59-.04.66-1.17.41-1.63.24-.71-.27-7.12-6.15-8.04-7.18-3.87-4.32-9.02-13.56-9.02-19.34,0-2.89,2.07-6.49,2.13-9.69.11-5.9-3.58-10.45,1.15-16.08.93-1.11,1.17-1.85,2.95-1.55Z"/>
      <path class="cls-1" d="M309.33,515.8c-.17,2.4,2.35,4.99,4.84,4.84.22.69-.24,2.2,0,2.77-4.46-.25-3.47,19.95-8.6,12.4-2.8-4.11-1.58-7.15-2.46-10.56-.19-.72-1.36-.39-1.4-.45-.66-1.01.77-19.43,2.06-20.42,1.41-1.08,2.64,1.7,2.94,2.63,1.38,4.27-1,5.26,2.61,8.8Z"/>
      <path class="cls-2" d="M336.31,566.28c-2.93.19-2.56-7.1-1.38-8.99.47,2.86.74,5.98,1.38,8.99Z"/>
      <path class="cls-2" d="M414.51,666.54c-2.63-.26-3.66-3.09-3.46-5.53.98,1.69,2.29,3.48,3.46,5.53Z"/>
      <path class="cls-2" d="M314.17,520.64c-2.5.15-5.01-2.44-4.84-4.84,1.24,1.22,4.33,3.23,4.84,4.84Z"/>
      <path class="cls-2" d="M334.24,552.45c-2.64.36-3.45-1.88-3.46-4.15,1.71,1.64,2.57,1.45,3.46,4.15Z"/>
      <path class="cls-2" d="M349.46,583.56c1.75.11,2.89,2.76,4.15,4.15-3.36.32-3.18-2.22-4.15-4.15Z"/>
      <path class="cls-2" d="M347.39,581.49c-1.87-1-3.69-1.22-3.46-4.15,1.24,1.23,3.4,2.02,3.46,4.15Z"/>
      <path class="cls-3" d="M364.69,649.94c1.08,1.44,1.87,2.79,3.9,4.07,1.01.64,2.91.67,3.03.78,1.27,1.26-2.19,1.38-1.39,2.76-2.04.24-2.94,1.32-4.84,1.38h-.69c.12-2.09-2.74-3.8-2.8-7.26-.04-2.72.71-1.58,2.8-1.73Z"/>
      <path class="cls-3" d="M337.7,712.87c5.12-1.02,1.22,3.17,2.74,5.77.52.89,2.02.06,2.16.83.23,1.24.46,4.72.55,6.22.03.53-.6.92-.6,1.01-2.64-2.28-2.27-5.55-3.08-8.33-.64-2.21-1.53-1.81-1.76-5.5Z"/>
      <path class="cls-3" d="M334.24,702.5c5.22,2.45,3.62,3.55,3.46,7.61-3.21-.56-1.58-2.24-2.24-4.33-.35-1.13-.95-2.01-1.22-3.27Z"/>
      <path class="cls-1" d="M365.38,658.93v4.15c-.15-.14-1.23.41-1.42-.39-.45-1.82.7-3.11.73-3.76h.69Z"/>
      <g>
        <path class="cls-1" d="M701,846.32c-6.47,11.6-22.95,25.12-35.3,30.08-24.19,9.71-52.32,7.08-76.85.05-2.54-.73-3.71-2.22-6.88-2.46-.08-.43.11-1.04,0-1.38,10.74,2.46,21.16,6.34,32.19,7.6,32.33,3.7,58.2-2.84,80.27-26.95,2.06-2.26,3.4-6.18,6.57-6.92Z"/>
        <path class="cls-1" d="M735.6,777.87c-.11,1.18-.26,2-.65,3.13-6.3,18.27-18.34,42.48-28.69,58.48-1.25,1.94-1.56,5.66-5.26,6.15,4.2-8.12,10.51-16.36,14.81-24.96,6.52-13.05,10.99-28.28,17.84-40.98.52-.96.26-2.19,1.95-1.82Z"/>
        <path class="cls-5" d="M487.86,764.04c4.37,1.01,4.93,3.1,8.12,4.67,15.26,7.52,33.68,8.2,50.36,11.91,15.05-.05,32.15,3.53,47.02,2.81,3.87-.19,11.32-5.47,15.6-6.95.39,1.9-.15,1.68-1.27,2.52-3.92,2.94-13.13,4.72-14.96,8.57-.47.99-1.57,4.9-1.97,6.33-6.01,21.2-6.73,39.32-8.1,61.05-.39,6.19-2.63,11.77-.69,17.64.11.35-.08.95,0,1.38-4.74-.36-8.13,1.54-12.16,2.02-53.07,6.28-98.14,1.73-148.24-14.27-13.21-4.22-28.43-8.86-40.05-16.34-.78-.5-.27-.99-2.31-1.83,0-1.03-.41-1.74-1.38-2.07-.12-.25-2.24-1.68-2.77-2.07.13-1.75-1.33-2-2.08-2.77-1.18-1.21-1.22-1.46-2.08-2.77-1.48-2.26-4.6-7.67-5.53-10.04-.33-.83.19-1.38,1.02-1.02,2.14.92,7.62,8.38,9.7,10.36,11.84,11.27,27.06,16.84,43.28,12.14,33.75-9.78,23.81-66.74-6.26-75.06-.21-.06-.47.05-.69,0,.42-1.8-1.35-1.71-2.77-2.07-.98-.25-2.44-.53-3.46-.69l-8.35-4.44c-2.52-8.22,4.37-2.9,8.01-2.48,5.95.7,13.23-.36,19.4-.03,18.27.98,33.99,7.01,53.26,4.87,4.29-.48,4.25-2.56,9.34-1.38Z"/>
        <path class="cls-3" d="M688.54,712.18c21.77-24.5,57.77-73.64,96.55-57.41,10.35,4.33,20.92,19.13,27.43,27.91,12.95,17.45,27.51,34.29,41.42,51.27,21.05,25.69,39.14,49.17,64.69,70.89,22.4,19.04,48.57,24.69,77.49,22.82,5.28-.34,13.82-3.82,16.99,1.7,2.32,4.03-.04,6.44.19,9.63.12,1.67,1.61,2.93,1.88,4.89.54,3.87-.53,7.95-2.8,11.09-.93,1.29-10.82,12.22-11.58,12.63-2.27,1.24-14.32,4.81-17.34,5.49-18.52,4.16-36.17-1.69-54.49-.52-10.25.66-18.85,4.65-29.55,3.31-11.23-1.41-18-6.65-19.12-18.24-.35-3.65.57-8.84-.4-12.04-4.14-13.62-28.39-26.22-40.06-33.96-16.76-11.13-34.07-21.86-49.94-33.77-12.26-9.2-19.89-18.45-25.04-33.06-1.12-3.16-1.62-8.2-4.66-4.92-8.13,8.77-14.92,24.95-22.31,35.11-.64.87.25,2.03-2.31,1.48-.27-4.38-1.34-3.04-3.82-5.51-3.19-3.17-6.36-6.32-9.32-9.7,5.42-1.81,7.34,6.61,11.94,8.46,5.61,2.26,4.69-2.02,6.45-4.96,5.64-9.47,12.59-19.16,18.29-28.4.42-.68,3.04-1.59,3.46-2.07,1.6-.03,1.88.85,2.43,2.07,1.4,3.13,2.09,7.52,3.32,10.51.86,2.1,3.11,3.6,3.59,4.71,1.12,2.61.53,4.34,2.83,7.55,6.47,9.06,13.42,14.73,22.52,21.06,6.8,4.73,16.87,9.6,23.13,14.23,1.41,1.05,1.97,3.02,3.43,4.18,1.7,1.35,4.74,1.9,6.55,3.13,12.49,8.51,26.36,16.59,38.74,25.6,4.69,3.42,12.82,11.61,13.72,17.41,1.25,8.12-1.79,15.42,3.94,22.34,9.34,11.27,31.29,3.49,43.6,2.71,15.09-.96,29.58,3.66,44.23,2.02,6.33-.71,22.64-5.04,27.47-8.5,1.69-1.21,3.89-5.39,5.48-7.32.25-.3,3.01-1.85,3.77-3.49,2.6-5.62-.11-8.95-.35-13.47-.12-2.37,1.76-7.93-.13-9.85-.36-.37-.97-.05-1.21-.15-2.88-1.13-7.23-.14-10.66.05-.54.03-.97.63-1.1.64-4.58.21-9.25-.1-13.84,0-1.84.04-3.69-.03-5.54,0-2.29.04-4.65-.15-6.92,0-1.01-.92-2.24-.77-3.46-.69-.68.04-1.41-.08-2.08,0-.8-.91-1.77-.6-2.77-.69-25.52-2.41-50.5-24.21-68.16-41.49-12.54-12.27-21.35-25.69-32.2-39.05-19.21-23.64-38.77-46.05-56.73-70.55-10-13.64-20.56-22.76-38.06-22.47-18.49.31-34.28,13-47.02,25.27-6.53,6.29-12.87,13.07-18.72,20.02-2.19,2.6-8.63,8.8-9,12.1-1.53-1.12-3.19-.53-4.84,0Z"/>
        <path class="cls-1" d="M406.21,767.5c1.02.16,2.48.44,3.46.69-.43,1.75,1.35,1.77,2.77,2.07.23.05.48-.06.69,0,.17,1.44,2.64,4.18,3.79,4.88s1.97.44,2.44.65c1.51,4.89,6.22,11.92,5.54,16.94l-1.72.33-21.12-25.57c.45.07,2.86-.21,4.15,0Z"/>
        <path class="cls-3" d="M409.67,768.19c1.41.37,3.19.28,2.77,2.07-1.42-.31-3.19-.33-2.77-2.07Z"/>
        <path class="cls-2" d="M768.12,654.79l13.18,9.31c7.24,6.04,10.13,15.12,15.19,22.16,2.14,2.99,8.66,7.82,11.79,11.04,28.96,29.74,52.83,64.05,81.28,94.41,2.61,2.79,7.25,8.19,9.7,10.36,5.81,5.17,15.52,9.79,22.28,13.7,19.45,11.24,36.37,21.96,60.06,20.18,5.51-.41,17.69-3.89,22.49-1.71,4.32,1.96,2.94,5.71,3.51,8.94.23,1.28,1.13,2.29,1.32,3.54.49,3.36-1.03,6.1-1.35,9.29-1.59,1.93-3.79,6.11-5.48,7.32-4.83,3.46-21.14,7.79-27.47,8.5-14.65,1.64-29.15-2.98-44.23-2.02-12.3.78-34.26,8.57-43.6-2.71-5.73-6.92-2.69-14.21-3.94-22.34-.9-5.8-9.02-14-13.72-17.41-12.38-9.01-26.25-17.09-38.74-25.6-1.81-1.23-4.85-1.79-6.55-3.13-1.46-1.15-2.02-3.13-3.43-4.18-6.25-4.63-16.32-9.5-23.13-14.23-9.1-6.33-16.05-12-22.52-21.06-2.29-3.21-1.71-4.94-2.83-7.55-.48-1.11-2.72-2.61-3.59-4.71-1.23-3-1.92-7.38-3.32-10.51-.55-1.23-.83-2.1-2.43-2.07,2.49-2.85.63-4.46.19-6.77-.4-2.13-.6-5.25-1.21-7.09-.94-2.83-2.81-2.83-3.17.34-.38,3.36-.02,8.24.02,11.8.01,1.17-.44,3.07.7,3.79-5.7,9.24-12.65,18.93-18.29,28.4-1.75,2.94-.84,7.22-6.45,4.96-4.6-1.86-6.52-10.27-11.94-8.46-.9-1.03-1.01-1.6-1.38-2.07v-3.46s-2.77.69-2.77.69c-.15-.25-.59-.45-.69-.69-.19-.45.22-1.82,0-2.08-.15-.17-1.13.16-1.38,0-.06-.04.02-.46,0-.69-.09-.96.14-1.8-.19-2.89-1.11-3.74-2.91-3.86-6.04-5.4-.04-.22.04-.47,0-.69-.53-3.17-.35-7.33-4.84-7.61-.21-.44-.97-1.34-1.38-2.07,4.49-1.12-.18-1.14-.69-1.38-.13-.06-1.86-1.69-2.01-1.95-1.64-2.64-6.45-13.67-7.36-16.72-.21-.7-.4-1.33-.31-2.07.37-3.3,6.81-9.5,9-12.1,5.85-6.95,12.18-13.73,18.72-20.02,12.74-12.28,28.53-24.96,47.02-25.27ZM839.4,780.63c-.62-10.73-8.19-24.07-16.79-30.58-1.47-1.11-9.41-6.11-10.88-4.68-1.67,1.63,6.14,5.64,7.28,6.89,5,5.52,10.85,13.34,14.74,19.84.36.59,4.2,10.25,5.65,8.52Z"/>
        <path class="cls-3" d="M710,743.99c-3.17-.52-3.86-5.51-4.84-7.61,4.5.27,4.31,4.44,4.84,7.61Z"/>
        <path class="cls-3" d="M710,744.68c3.13,1.54,4.93,1.67,6.04,5.4.32,1.1.1,1.93.19,2.89-2.36-1.24-3.17-4.02-4.4-5.98-.48-.77-1.44-.22-1.83-2.31Z"/>
        <path class="cls-3" d="M718.3,756.43l2.76-.69v3.46c-.66-.84-1.84-1.21-2.76-2.77Z"/>
        <path class="cls-3" d="M703.08,732.92c.51.24,5.18.26.69,1.38-.23-.41-.74-.75-.69-1.38Z"/>
        <path class="cls-3" d="M716.22,753.67c.26.16,1.24-.17,1.38,0,.22.26-.19,1.63,0,2.08-.96-.35-1.39-1.05-1.38-2.07Z"/>
        <path class="cls-1" d="M440.11,734.31c-.38,5.21.93,9.46,1.38,14.52-3.9-1.45-5.71.35-8.7.64-6.79.65-26.13,2.18-31.41-1.01-1.73-1.05-5.88-5.6-6.23-7.62-.69-3.99,3.02-.16,3.96.2,3.89,1.49,20.98,2.72,25.35,2.18,3.59-.44,8.12-2.74,10.83-5.08,1.6-1.39,1.9-4.27,4.82-3.83Z"/>
        <path class="cls-1" d="M963.27,828.35c-.37,2.9,1.91.8,2.77.69.67-.08,1.4.04,2.08,0-.47,2.98,2.63.75,3.46.69,2.27-.15,4.63.04,6.92,0,.06.39-.12,1.3,0,1.38.26.2,6.7.71,5.54-1.38,4.59-.1,9.26.21,13.84,0,3.35,1.65,8.33.27,11.76-.69.24.09.85-.22,1.21.15,1.9,1.93.01,7.48.13,9.85.24,4.52,2.95,7.85.35,13.47-.76,1.64-3.52,3.19-3.77,3.49.32-3.19,1.84-5.93,1.35-9.29-.18-1.25-1.09-2.25-1.32-3.54-.57-3.23.81-6.98-3.51-8.94-4.8-2.18-16.98,1.29-22.49,1.71-23.69,1.78-40.61-8.93-60.06-20.18-6.76-3.91-16.46-8.53-22.28-13.7-2.45-2.18-7.09-7.57-9.7-10.36-28.46-30.37-52.33-64.68-81.28-94.41-3.13-3.21-9.65-8.05-11.79-11.04-5.06-7.04-7.95-16.12-15.19-22.16l-13.18-9.31c17.5-.29,28.06,8.83,38.06,22.47,17.96,24.5,37.52,46.91,56.73,70.55,10.85,13.36,19.66,26.77,32.2,39.05,17.66,17.29,42.64,39.08,68.16,41.49Z"/>
        <path class="cls-1" d="M762.59,734.31c-.42.49-3.04,1.4-3.46,2.07-1.15-.72-.69-2.62-.7-3.79-.04-3.56-.4-8.44-.02-11.8.36-3.17,2.23-3.16,3.17-.34.61,1.84.8,4.95,1.21,7.09.44,2.31,2.29,3.92-.19,6.77Z"/>
        <path class="cls-1" d="M839.4,780.63c-1.45,1.73-5.3-7.93-5.65-8.52-3.89-6.5-9.74-14.33-14.74-19.84-1.14-1.25-8.95-5.26-7.28-6.89,1.47-1.44,9.42,3.57,10.88,4.68,8.6,6.52,16.17,19.85,16.79,30.58Z"/>
        <path class="cls-4" d="M692.64,711.77c4.45,3.16,5.59,11.04,8.45,15.53,7.08,12.9,14.64,24.37,24.59,35.19,10.35,10.43,13.23,12.94,6.29,26.54-6.89,16.21-13.42,33.76-23.32,48.46-10.61,18.09-24.67,30.54-40.85,38.01-17.34,8-38.01,9.18-59.76,5.32-5.63-.99-11.06-2.12-16.47-3.61-3.32-.88-6.31-1.97-9.61-3.46-1.34-.61-.9-4.67-1.16-6.29-.89-5.43.43-11.32.7-16.85,1.42-19.4,2.37-38.31,8.35-57.08,2.64-8.41,11.08-11.9,17.88-16.29,9.54-6.39,19.62-11.64,29.25-17.76,4.06-2.51,7.85-5.26,11.52-8.29,4.75-3.87,9.5-9.3,13.76-14.23,6.07-6.71,13.42-13.25,19.92-19.54,2.61-2.48,5.7-7.75,8.82-5.85l1.64.2Z"/>
        <path class="cls-4" d="M370.22,657.55c6.82-.79,16.64-.43,19.52,7.11,1.83,4.77-.55,3.96-2.22,7.41-3.38,1.64-9.06,5.51-11.07,8.99h-2.08c-2.73-3.07-2.47-4.2-4.15-7.61-.26-.53.6-1.79-1.38-1.38-.14-.82.05-2.98-.69-3.46.23-1.31-.07-1.62-1.38-1.38-.32-1.52-.06-2.9-1.38-4.15v-4.15c1.91-.06,2.8-1.15,4.84-1.38Z"/>
        <path class="cls-1" d="M376.45,681.06c-.25.43.64,2.12-1.73,1.4-.66-.2-.2-1.24-.34-1.4h2.08Z"/>
      </g>
      <path class="cls-3" d="M332.16,695.58c1.86-.19,1.26.04,1.38,1.38-2.02.35-1.12-.62-1.38-1.38Z"/>
      <path class="cls-1" d="M368.84,672.07c1.98-.41,1.12.85,1.38,1.38-1.98.22-1.18-.16-1.38-1.38Z"/>
      <path class="cls-1" d="M366.76,667.23c1.32-.24,1.61.07,1.38,1.38-.97-.62-.86,1.09-1.38-1.38Z"/>
    </g>
    <g>
      <path class="cls-1" d="M633.18,396.17c-4.04,7.14-19.41,15.53-27.5,17.81-1.27.36-7.84.92-8.48,1.55l-1.38.69c-1.05-.12-13.3.26-13.84.69l-1.38.69c-1.59-.11-3.24.03-4.84,0-2.99-.05-6.01.1-9,0-7.25-.24-16.78-1.89-23.53-1.38l-1.38-.69c-.49-.36-9.75-1.48-11.07-1.38l-1.38-.69c-1.97-2.08-10.23.93-12.87,1.31-60.14,8.69-123.46,6.6-184,5.59-10.64-2.35-27.05-1.07-37.03-4.14-5.57-1.72.08-3.48,3-4.29,1.2-.33,2.05-1.13,3.23.14-.92.34-3.97,2.21-2.77,3.45,8.53-.53,16.94,2.11,25.27,2.76,24.25,1.89,50.42.9,74.7.67,39.28-.37,76.5-.15,115.42-5.68,2.77-.39,8.06-2.44,10.21-2.59,2.72-.2,8.89,2.2,12.19,2.68,25.09,3.69,63.4,5.86,85.19-8.75,3.98-2.67,6.93-6.53,11.26-8.45Z"/>
      <path class="cls-1" d="M628.34,246.81c.61-.12,1.43.1,2.08,0,.02.46-.03.92,0,1.38.08,1.28.49,1.41.69,2.07,4.88,15.85,23.56,37.56,35.62,49.11,1.89,1.81,8.4,6.18,9.36,7.59.58.85.67,1.76.69,2.77.09,4.1-1.39,4.63-2.58,7.44-2.89,6.8-6.41,13.83-9.39,20.37-.92,2.03-5.33,11.75-5.33,12.98l-.69,1.38c-1.59.88-10.23,24.35-12.88,27.58-3.74,4.87-6.29,12.5-12.03,15.29,15.7-24.16,25.03-47.64,36.37-73.94.84-1.94,3.51-5.58,4.14-7.62.5-1.64.74-3.81-.33-5.27-14.75-12.22-28.12-26.43-37.98-42.95-1.76-2.95-5.88-9.64-6.91-12.47-.33-.9-.11-2.01-.14-2.96-1.18-1.27-6.54,4.74-7.63,5.86-12.42,12.82-21.8,28.8-36.04,39.36-12.21,9.06-34.42,22.42-48.51,27.45-.74.26-.44,1.96-3.31,1.32-1.46-.32-3.89-2.16-6.04-2.61-18.5-3.84-46.36-3.8-65.93-5,.72-1.15,2.63-.69,3.8-.7,19.77-.24,45.65,1.45,64.99,4.92,1.11.2,1.91,1.14,2.89,1.3,2.08.35,5.45-1.27,7.44-2.21,3.3-1.57,7.41-3.96,10.69-6.04,8.4-5.32,18.23-9.8,27.11-15.63,16.85-11.07,24.57-24.7,37.74-39.05,1.44-1.57,10.22-11.2,10.94-11.55.55-.27.82-.12,1.18-.2Z"/>
      <path class="cls-5" d="M373.68,310.43c2-.88,1.21-1.16,3.91-1.94,6.33-1.81,19.44-1.49,30.73.49,3.96.69,9.74,1.6,11.07,2.41,1.13.69,23.77,2.34,35.31,3.1,2.28.15,4.73.45,7.02.59,19.57,1.2,47.58.81,66.07,4.65,2.15.45,5.6,1.04,6.85,2.36-1.21,6.76-5.47,14.7-7.14,21.37-5.42,21.66-1.42,47.19-2.38,69.39-2.15.16-7.01,1.68-9.78,2.08-38.91,5.53-77.11,6.01-116.39,6.38-24.28.23-50.52,0-74.77-1.9-8.34-.65-17.47-2.94-26.01-2.41-1.2-1.24,2.61-4.6,3.53-4.94,1.4-.52,3.08-.37,4.15-.69,1.54-.46,4.58-.91,4.15-2.77,6.36-1.63,14.17-10.54,17.42-16.13,4.38-7.53,6.81-15.39,5.38-24.28-.96-5.96-12.67-13.09-17.94-15.26-2.57-1.06-14.01-3.25-14.54-3.79-.59-.6,1.44-1.16-2.08-1.38-.91-.06-1.86,0-2.77,0-.98-.85-2.9-1.25-4.15-1.38-1.04-.11-2.38-.04-3.46,0,.39-2.25-1.14-1.15-2.42-1.36-2.46-.4-7.06-.65-6.58-4.17,9.2.63,18.23-.7,27.34-1.38,25.84-1.92,40.62-2.84,60.54-20.06,2.61-2.26,3.69-7.57,6.92-8.99Z"/>
      <path class="cls-4" d="M534.71,321.46c3.45-.68,3.89-1.15,4.57-1.54,13.49-7.56,32.81-18.26,45.01-27.32,14.24-10.56,23.91-26.01,36.33-38.83,1.09-1.12,6.54-8.22,7.72-6.96.03.95,1.74,4.67,2.07,5.57,1.03,2.83,3.92,9.68,5.68,12.62,9.85,16.52,25.85,31.27,40.6,43.48,1.07,1.46.35,3.48-.49,4.98-1.39,2.49-3.31,6.65-4.15,8.59-11.34,26.31-19.89,47.85-35.59,72.01-.28.42-2.52,2.98-2.77,3.43-3.36,3.36-7.46,5.92-11.44,8.59-21.79,14.61-60.46,12.53-85.55,8.85-3.3-.49-8.86-2.27-11.57-2.08.97-22.2-3.04-47.73,2.38-69.39,1.67-6.67,6-15.25,7.21-22.01Z"/>
      <path class="cls-3" d="M628.34,246.81c1.54-2.74,4.11-6.39,6.23-8.64,13.65-14.46,29.59-27.16,44.94-39.46,3.55-2.84,23.34-9.41,28.15-9.9,17.21-1.76,27.5,11.25,37.98,22.72,37.63,41.17,69.92,88.04,108.96,127.61,26.17,26.52,52.93,30.01,88.95,27.99,3.3-.19,4.62-2.4,8.59-.29,5.83,3.09,2.5,7.06,2.75,11.02.14,2.2,2.12,6.5,2.07,9.75-.11,7.59-5.39,8.76-8.94,13.05-1.05,1.27-1.61,3.77-2.41,4.51-.99.91-17.49,6.6-19.81,7.17-18.08,4.47-35.92-1.87-53.57-.98-11.25.57-23.6,5.72-35.25,3.47-1.82-.35-2.05-1.85-3.15-2.38-1.17-.56-2.64-.32-3.93-.91-5.83-2.67-8.44-12.55-8.52-18.51-.08-5.25,2.42-13.39-.97-18.34-3.71-5.41-21.32-20.84-27.14-24.74s-11.2-5.5-17.51-8.09c-1.56-.64-4.35-3.66-6.47-4.6-2.85-1.28-6.7-1.59-9.66-2.79-18.09-7.34-34.44-21.21-44.39-37.93-3.25-5.46-5.98-13.98-9.27-19.09s-4.44-1.97-7.34,1.92c-5.42,7.3-10.7,15.47-15.74,22.99l-6.12,7.37c-.02-1-.11-1.91-.69-2.77.81-3.23,4.85-5.04,6.54-7.64,2.22-3.41,12.55-21.3,14.91-22.79.26-.16,1.29.19,2.39-.7.5-.4,3.02-4.16,3.15-4.83,2.14-.43,4.29,2.63,5.12,4.22,4.5,8.59,7.89,19.49,13.95,27.55,17.22,22.88,37.11,26.38,60.76,38.17,15.99,7.97,27.4,21.28,40.63,32.7,2.22,8.68-2.77,30.23,6.83,35.36,4.29,2.29,10.04,3.62,14.89,3.79,8.2.28,16.58-2.98,24.91-3.51,25.68-1.65,42.53,7.14,68.66-4,5.74-2.44,4.19-3.12,7.44-6.4,1.71-1.73,3.16-1.44,5.24-4.1,3.51-4.5,4.06-7.77,2.72-13.31-.42-1.73-1.42-1.79-1.33-6.05,0-.08.67-.12.69-1.38.14-7.51-5.63-4.88-10.01-4.81-12.15.18-27.33.9-39.13-.72-.08-.01-.21-.52-1.38-.69-.44-.06-.94.07-1.38,0-.08-.01-.21-.51-1.38-.69-1.32-.2-3.76-.74-4.84-.69-.56-.75-1.46-.49-2.08-.69-3.06-.99-7.43-3.25-10.38-3.46-.78-1.41-2.5-1.5-3.46-2.07-20.3-12.25-36.08-29.16-52.59-47.71-.16-.18-.54-1.11-1.38-2.07-2.42-2.75-5.41-5.71-7.61-8.3-.22-.26-.59-1.13-1.38-2.07-12.83-15.11-24.91-30.65-38.07-45.98-2.4-2.8-3.51-5.39-6.91-7.96-.03-1.38-.89-2.22-2.08-2.77-1.69-3.93-5.75-6.59-8.3-9.68-.25-.3-.59-1.13-1.38-2.07-8.86-10.54-17.17-19.9-26.99-29.73-.13-.13-.14-.97-1.38-2.07-3.42-3.04-8.01-6.17-12.46-6.91.19-1.87-.05-1.25-1.38-1.38-4.38-.43-10.96-.23-15.22.69-22.67,4.92-45.79,28.19-61.92,44.27-1.8,1.79-4.09,3.02-5.91,5.15-1.44,1.69-2.54,4.95-4.14,5.2-.65.1-1.46-.12-2.08,0Z"/>
      <path class="cls-3" d="M211.06,269.63c-4.34,5.88-3.16,2.1-7.3,1.42-5.71-.94-14.03-.34-20.02-.74-6.81-.45-13.5-1.04-20.43-1.37-7.93-.38-17.66-4.43-24.9-7.28s-6.69.26-14.55-5.86c-5.33-4.16-20.68-18.29-26.01-19.32-1.05-.2-3.58-.77-3.06,1.34-2.75-.43-7.18,0-9.89-.84-1.7-.53-3.12-3.71-5.3-4.39-3.52-1.09-11.15-1.83-14.07-3.23-2.41-1.16-4.52-5-6.76-6.39-1.68-1.04-3.27-.88-4.66-1.58-2.57-1.31-2.07-3.87-7.41-3.66-7.98.32.86,5.02,2.78,6.92,5.67,5.63,11.61,15.34,17.37,19.98,10.12,8.16,24.88,12.06,34.82,21.22,1.11,1.02,1.32,3.02,2.41,3.82s2.48.54,3.54,1.3c.54.38,6.63,7.37,8.28,9.01,2.21,2.19,4.95,5.94,6.89,7.64,4.43,3.89,3.48,2.63,7.27,7.26,4.83,5.89,10.63,9.92,15.53,14.9,1.47,1.49,1.65,3.71,3.5,5.49,1.47,1.41,9.5,7.42,11.16,8.21,2.39,1.13,5.34,1.04,7.81,2.57,1.49.93,2.42,2.73,3.97,3.64,4.28,2.51,11.38,4.28,15.02,6.43,11.57,6.81,32.25,20.67,40.88,31.06,3.28,3.95,4.66,10.6,9.05,14.47,4.7,4.15,3.43,4.12,6.62,7.9,2.65,3.13,10.32,9.27,13.86,11.73,12.65,8.8,23.55,12.98,39.41,9.79,3.54-.71,5.58-1.22,8.96-1.77v2.07c-1.08.32-2.75.18-4.15.69-1.18-1.27-2.03-.47-3.23-.14-2.92.81-8.57,2.57-3,4.29-.67,1.19-2.55.74-3.64.54-25.92-4.92-40.52-12.75-57.24-33.4-6.37-7.86-8.02-14.73-16.29-21.75-19.23-16.34-39.61-24.96-61-37.24-8.18-4.7-13.05-10.87-19.23-17.43-12.27-13.02-24.78-26.86-38.43-38.36-12.19-10.27-29.11-14.85-39.81-26.6-5.13-5.63-9.85-13.08-15.52-18.37-2.48-2.31-5.25-1.87-5.55-6.28-.14-2.02.44-2.94,2.12-3.99,3.29-2.06,3.2-.13,5.47.63,9.25,3.13,11.19,6.28,18.73,11.01,5.2,3.26,11.53,2.96,16.96,5.18,2.23.91,3.24,3.52,5.63,4.06,4.33.97,10.01-.98,14.23.99l28.23,22.27c7.27,1.53,14.27,4.42,21.4,6.28,14.95,3.9,32.52,3.39,48.1,4.49,3.66.26,7.72,1.12,11.42,1.38Z"/>
      <path class="cls-1" d="M249.12,258.57c.17.46-.12,1.47,0,2.07-2.05.49-3.72,6.64-4.56,8.24-3.26,6.14-6.29,8.26-4.11,16.68,1.66,6.43,11.28,5.95,15.95,8.96,1.9,1.23,8.68,9.37,8.65,11.45s-2.03,1.29-2.92,1.76c-.72.39-.37,1.2-1.54,1.36-5.36.77-4.28-1.55-5.66-2.03-3.1-1.1-3.04,1.13-4.25,2-2.88,2.06-4.94,2.23-3.49,7.11,1.06,3.54,11.45,7.95,14.68,7.39,1.95-.34,2.17-2.18,5.21-1,1.66.65,6.59,6.87,7.93,8.67,2.64,3.53,1.98,6.88,7.65,7.57s17.2-.27,23.54-.72c13.3-.95,43.94-5.03,52.95-14.51,2.01-.24,2.87-1.61,4.15-2.77.46-.42,1.61-.43,2.08-1.38h1.38c-19.92,17.22-34.7,18.14-60.54,20.06-9.11.68-18.14,2.01-27.34,1.38-.49,3.52,4.12,3.77,6.58,4.17,1.28.21,2.81-.89,2.42,1.36-1.6.07-1.51.2-2.77.69-.43.17-1.98-.46-1.38,1.03.2.48,1.21,1.1,1.52,1.94.71,1.88,1.08,3.75,1.92,5.69.5,1.15,6.05,9.57,1.75,8.63-.5-.11-6.59-5.91-7.65-6.89-2.14-1.97-6.25-5.5-7.93-7.29s-2.87-6.2-4.45-7.31c-1.71-1.19-7.19-.86-7.89-1.46-.24-.21-.29-1.79-1.09-2.7-.9-1.02-4.12-3.3-5.44-4.26-17.77-12.85-43.54-23.73-58.3-38.52-10.19-10.21-16.23-16.88-28.73-24.56-1.74-1.07-4.39-.39-4.13-2.45,6.92.33,13.62.92,20.43,1.37,5.99.4,14.31-.2,20.02.74,4.14.68,2.96,4.46,7.3-1.42,7.09-9.6,16.09-19.41,29.38-18.65.72.04,3.83,1.32,4.47,1.76.95.66,3.84,4.83,4.21,5.82ZM262.23,305.54c1.14-1.65-3.78-7.09-5.16-8.24-5.36-4.43-13.61-2.78-17.45-9.53-1.4-2.46-2.67-7.25-2.1-10.04.84-4.09,9.58-16.35,9.52-18.85s-5.58-5.64-8.05-5.81c-5.14-.35-15.29,4.96-19.25,8.27-4.66,3.89-11.22,13.91-13.64,19.56-2.23,5.21-3.36,10.83-5.4,16.11-.11.6.05,1.11.31,1.64,1,2.03,16.19,9.89,19.3,11.86,10.22,6.49,20.83,13.33,31.27,19.93,7.99,5.06,14.24,11.91,24.54,11.77-.59-2.17-.41-4.89-1.01-6.94-.73-2.47-7.26-10.87-9.68-10.94-2.24-.07-4.6.94-7.59.53-6.17-.85-16.09-8.41-12.7-15.34,3.6-7.34,15.85-2.21,17.09-4.01Z"/>
      <path class="cls-3" d="M249.12,258.57c6.5.39,16.43-.19,22.09,3.16,2.6,1.54,4.2,4.87,8.17,5.67,4.51.92,15.62-.77,19.26,1.49,3.17,1.96.72,6.48,2,8.37.53.78,4.54,1.64,5.85,2.46,1.39.86,2.22,2.44,3.57,3.35,3.47,2.34,12.97,6.7,12.28,11.64-.43,3.1-6.6,10.85-5.96,13.82.48,2.25,10.13,13.64,12.13,14.23,2.9.84,20.15-5.89,24.38-7.18,3.75-1.14,9.13-1.55,12.92-2.97,1.18-.44,1.89-2.43,3.54-2.73,1.34-.24,2.79.75,4.34.54v2.77c-2.53,2.45-4.31,3.97-6.92,6.22h-1.38c.21-.43.92-3.63.34-4.16-8.19,1.77-16.38,3.65-24.41,6.03-6.74,2-10.87,6.81-17.67.78-.69-.61-5.07-5.11-5.3-5.42-.12-.16.09-1.34-.38-2.01-.6-.85-3.68-3.95-3.77-4.21-1.91-5.86,6.65-13.13,5.21-16.58-.21-.51-6.42-6.55-7.33-7.24-4.33-3.24-11.6-5.62-14.47-10.43-.83-4.56,2.2-5.43-4.49-5.89-7.88-.54-13.53,1.58-20.7-3.51-2.93-2.08-2.68-3.53-7.74-4.71-2.93-.69-13.01-2.03-15.52-1.43-.12-.6.17-1.62,0-2.07Z"/>
      <path class="cls-3" d="M659.48,350.54c0,.08,1.08,1.01.69,1.38-.19.18-1.11-.15-1.38,0l.69-1.38Z"/>
      <path class="cls-3" d="M287.87,346.39c1.08-.04,2.42-.11,3.46,0-.33,2.85,3.32,1.39,4.15,1.38.91,0,1.86-.06,2.77,0-.32,1.85.44,1.41,2.08,1.38.53.54,11.97,2.73,14.54,3.79,5.27,2.18,16.98,9.3,17.94,15.26,1.43,8.89-1,16.76-5.38,24.28-3.25,5.59-11.06,14.5-17.42,16.13-.38.1-.94-.07-1.38,0-.03-3.4,2.55-2.85,4.39-4.26,2.95-2.26,3.43-2.62,6.62-4.44,3.61-2.06,1.61-6.72,2.13-7.2.36-.33,3.12.99,4.76-1.81,1.12-5.06,4.96-10.66,4.97-15.87,0-.83-1.43-5.76-1.8-6.49-.22-.44-4.14-6.36-4.42-6.64-1.67-1.62-3.5-1.37-5.27-2.34s-3.32-3.25-4.49-3.81c-6.26-3.01-16.09-5.09-23.19-6.56-2.52-.52-5.89,1.2-7.23-2.11,1.26-.49,1.17-.62,2.77-.69Z"/>
      <path class="cls-1" d="M308.63,408.62c.44-.07,1,.1,1.38,0,.43,1.85-2.61,2.3-4.15,2.77v-2.07c.76-.12,1.68-.53,2.77-.69Z"/>
      <path class="cls-1" d="M295.49,347.77c-.83,0-4.48,1.47-4.15-1.38,1.26.13,3.17.53,4.15,1.38Z"/>
      <path class="cls-1" d="M298.25,347.77c3.52.23,1.49.78,2.08,1.38-1.64.03-2.4.46-2.08-1.38Z"/>
      <path class="cls-2" d="M702.38,192.19c-.49,3.58,3.39,2.63,5.74,3.6,14.81,6.09,20.46,16.31,30.58,27.53,26.98,29.93,53.99,60.38,79.94,90.92,6.63,7.8,12.74,16.62,19.39,24.18,13.28,15.08,20.61,18.39,38.74,26.29,4.87,2.12,12.48,6.19,17.12,7.79,8.25,2.84,23.64,3.64,32.35,2.93,5.38-.44,13.9-3.49,19.24-1.93,3.65,1.07,2.81,5.8,3.56,8.19.52,1.66,2.8,2.83,3,3.84.41,2.06-2.25,5.51-2.58,7.56-.36,2.24.31,1.72,2.05,1.69-2.08,2.67-3.53,2.38-5.24,4.1-3.24,3.27-1.7,3.95-7.44,6.4-26.13,11.13-42.99,2.34-68.66,4-8.34.54-16.71,3.79-24.91,3.51-4.85-.17-10.6-1.5-14.89-3.79-9.6-5.13-4.6-26.68-6.83-35.36-13.23-11.41-24.64-24.73-40.63-32.7-23.65-11.79-43.54-15.3-60.76-38.17-6.06-8.06-9.45-18.96-13.95-27.55-.83-1.59-2.98-4.64-5.12-4.22.8-4.27-2.76-8.21-4.31-11.95-.82-2,.08-5.3-3.3-4.65-.3,7.48.91,14.81,2.07,22.12-2.36,1.49-12.68,19.38-14.91,22.79-1.69,2.6-5.74,4.4-6.54,7.64-.96-1.41-7.47-5.78-9.36-7.59-12.06-11.55-30.74-33.26-35.62-49.11,2.46.36,2.05-2.89-.69-2.07-.03-.46.02-.92,0-1.38,1.6-.25,2.7-3.51,4.14-5.2,1.82-2.13,4.12-3.36,5.91-5.15,16.13-16.08,39.25-39.36,61.92-44.27ZM762.35,289.23c-2.6-2.25-12.83-7.34-15.92-6.38-.64.2-1.31.89-1.14,1.63,11.41,11.02,24.13,20.9,32.62,34.48,2.61,2.9,3.32.54,2.35-2.35-2.96-8.79-10.82-21.25-17.91-27.39Z"/>
      <path class="cls-1" d="M717.61,191.5c-.22,1.98.16,1.18,1.38,1.38,4.44.75,9.04,3.87,12.46,6.91-.11,1.52-.36,2.43,1.38,2.07,9.82,9.84,18.13,19.2,26.99,29.73-.11,1.52-.36,2.43,1.38,2.07,2.56,3.09,6.61,5.75,8.3,9.68.16.38-.21,1.33.33,2.09s1.53.5,1.75.67c3.4,2.57,4.51,5.16,6.91,7.96,13.16,15.32,25.25,30.86,38.07,45.98-.11,1.52-.36,2.43,1.38,2.07,2.21,2.59,5.19,5.54,7.61,8.3-.14,1.48-.31,2.42,1.38,2.07,16.51,18.55,32.29,35.46,52.59,47.71.56,3.95,2.68,2.02,3.46,2.07,2.95.2,7.32,2.47,10.38,3.46-.26,2.93,1.88.7,2.08.69,1.08-.04,3.52.49,4.84.69-.26,1.56.31,1.97,1.38.69.44.07.94-.06,1.38,0-.25,1.58.27,1.94,1.38.69,11.8,1.62,26.98.9,39.13.72,4.38-.06,10.15-2.7,10.01,4.81-1.59-.24-1.94.27-.69,1.38-.09,4.26.91,4.32,1.33,6.05,1.34,5.54.79,8.81-2.72,13.31-1.74.03-2.41.55-2.05-1.69.33-2.05,2.99-5.5,2.58-7.56-.2-1.01-2.47-2.18-3-3.84-.75-2.39.09-7.12-3.56-8.19-5.34-1.57-13.86,1.48-19.24,1.93-8.71.72-24.1-.08-32.35-2.93-4.64-1.6-12.25-5.66-17.12-7.79-18.12-7.9-25.46-11.21-38.74-26.29-6.65-7.56-12.76-16.38-19.39-24.18-25.94-30.54-52.95-61-79.94-90.92-10.12-11.22-15.77-21.44-30.58-27.53-2.35-.97-6.23-.02-5.74-3.6,4.26-.93,10.84-1.12,15.22-.69Z"/>
      <path class="cls-1" d="M703.08,271.02c-.13.67-2.65,4.43-3.15,4.83-1.1.89-2.13.54-2.39.7-1.16-7.31-2.37-14.64-2.07-22.12,3.38-.66,2.48,2.65,3.3,4.65,1.54,3.74,5.11,7.68,4.31,11.95Z"/>
      <path class="cls-2" d="M883,362.29c-.78-.05-2.9,1.87-3.46-2.07.96.58,2.68.66,3.46,2.07Z"/>
      <path class="cls-2" d="M771.58,246.12c-.22-.17-1.22.08-1.75-.67s-.17-1.72-.33-2.09c1.19.55,2.04,1.39,2.08,2.77Z"/>
      <path class="cls-2" d="M895.45,366.44c-.19,0-2.34,2.24-2.08-.69.61.2,1.51-.06,2.08.69Z"/>
      <path class="cls-2" d="M826.94,312.5c-1.7.35-1.52-.6-1.38-2.07.85.96,1.22,1.89,1.38,2.07Z"/>
      <path class="cls-2" d="M732.83,201.87c-1.74.36-1.5-.56-1.38-2.07,1.24,1.1,1.26,1.95,1.38,2.07Z"/>
      <path class="cls-2" d="M761.2,233.68c-1.74.36-1.5-.56-1.38-2.07.79.94,1.14,1.78,1.38,2.07Z"/>
      <path class="cls-2" d="M817.95,302.13c-1.74.36-1.5-.56-1.38-2.07.8.94,1.17,1.82,1.38,2.07Z"/>
      <path class="cls-2" d="M953.58,374.05c-.02,1.26-.69,1.31-.69,1.38-1.25-1.11-.89-1.63.69-1.38Z"/>
      <path class="cls-2" d="M904.45,368.51c-1.11,1.25-1.63.89-1.38-.69,1.17.17,1.31.68,1.38.69Z"/>
      <path class="cls-2" d="M717.61,191.5c1.34.13,1.58-.49,1.38,1.38-1.22-.21-1.61.59-1.38-1.38Z"/>
      <path class="cls-2" d="M901.68,367.82c-1.07,1.27-1.64.87-1.38-.69,1.18.18,1.31.68,1.38.69Z"/>
      <path class="cls-2" d="M305.87,409.31c-3.38.54-5.42,1.05-8.96,1.77-15.86,3.19-26.75-.99-39.41-9.79-3.54-2.46-11.22-8.6-13.86-11.73-3.19-3.78-1.92-3.75-6.62-7.9-4.38-3.87-5.76-10.52-9.05-14.47-8.63-10.39-29.31-24.25-40.88-31.06-3.65-2.15-10.74-3.92-15.02-6.43-1.55-.91-2.48-2.71-3.97-3.64-2.46-1.53-5.42-1.45-7.81-2.57-1.66-.78-9.69-6.8-11.16-8.21-1.85-1.77-2.04-4-3.5-5.49-4.91-4.98-10.71-9.01-15.53-14.9-3.79-4.63-2.85-3.37-7.27-7.26-1.94-1.7-4.68-5.45-6.89-7.64-1.66-1.64-7.74-8.63-8.28-9.01-1.06-.76-2.5-.54-3.54-1.3-1.09-.8-1.3-2.8-2.41-3.82-9.94-9.16-24.69-13.06-34.82-21.22-5.77-4.64-11.7-14.35-17.37-19.98-1.92-1.9-10.76-6.6-2.78-6.92,5.34-.21,4.84,2.35,7.41,3.66,1.38.7,2.98.55,4.66,1.58,2.24,1.38,4.35,5.23,6.76,6.39,2.92,1.4,10.55,2.13,14.07,3.23,2.17.68,3.59,3.86,5.3,4.39,2.71.84,7.14.41,9.89.84,8.43,1.31,6.04,2.56,10.39,7.94s4.59,4.45,10.31,6.99c2.8,1.24,4.66,3.98,8.36,3.05,7.86,6.12,7.29,3.01,14.55,5.86s16.97,6.9,24.9,7.28c-.26,2.06,2.38,1.38,4.13,2.45,12.5,7.68,18.55,14.35,28.73,24.56,14.76,14.79,40.53,25.68,58.3,38.52,1.32.96,4.53,3.23,5.44,4.26.81.91.85,2.49,1.09,2.7.7.6,6.18.26,7.89,1.46,1.59,1.11,2.76,5.51,4.45,7.31s5.79,5.32,7.93,7.29c1.06.98,7.14,6.78,7.65,6.89,4.3.94-1.25-7.48-1.75-8.63-.84-1.94-1.21-3.81-1.92-5.69-.32-.84-1.33-1.45-1.52-1.94-.6-1.48.94-.86,1.38-1.03,1.34,3.31,4.71,1.59,7.23,2.11,7.1,1.46,16.93,3.55,23.19,6.56,1.16.56,2.69,2.83,4.49,3.81s3.6.72,5.27,2.34c.29.28,4.21,6.2,4.42,6.64.37.73,1.8,5.65,1.8,6.49-.01,5.21-3.85,10.81-4.97,15.87-1.64,2.8-4.4,1.48-4.76,1.81-.52.48,1.48,5.15-2.13,7.2-3.2,1.82-3.67,2.18-6.62,4.44-1.84,1.41-4.42.86-4.39,4.26-1.09.17-2,.57-2.77.69ZM168.85,295.21c.33-.51.05-1.9-.69-2.41-.7-.48-9.24-2.57-11.2-3.33-7.43-2.89-15.45-7.35-21.98-11.92-.7-.49-4.88-5.42-5.58-2.02s14.2,15.32,17.53,17.05c3.55,1.84,19.99,5.6,21.91,2.64Z"/>
      <path class="cls-1" d="M123.87,255.8c-3.7.92-5.56-1.81-8.36-3.05-5.72-2.54-5.93-1.59-10.31-6.99s-1.97-6.62-10.39-7.94c-.52-2.1,2.01-1.54,3.06-1.34,5.32,1.03,20.67,15.16,26.01,19.32Z"/>
      <path class="cls-2" d="M249.12,260.64c2.52-.6,12.6.74,15.52,1.43,5.06,1.19,4.81,2.63,7.74,4.71,7.17,5.09,12.82,2.97,20.7,3.51,6.69.46,3.66,1.33,4.49,5.89,2.87,4.81,10.14,7.19,14.47,10.43.91.68,7.11,6.73,7.33,7.24,1.44,3.44-7.11,10.72-5.21,16.58-2.31.58-2.47,2.5-4.81,3.84-4.88,2.8-22.15,8.66-27.34,7.87-1.22-.19-6.41-3.24-5.24.39.42,1.29,8.31,4.65,10.09,5.14,8.08,2.23,21.73-4.92,29.04-8.93,1.03-.57,1.98-.76,2.41-2.09.23.31,4.62,4.81,5.3,5.42,6.8,6.03,10.93,1.22,17.67-.78,8.04-2.38,16.23-4.26,24.41-6.03.59.53-.12,3.72-.34,4.16-.47.95-1.61.96-2.08,1.38-3.57-.86-3.3,1.87-4.15,2.77-9,9.48-39.64,13.56-52.95,14.51-6.33.45-17.62,1.44-23.54.72s-5.01-4.03-7.65-7.57c-1.34-1.8-6.28-8.02-7.93-8.67-3.04-1.19-3.26.66-5.21,1-3.23.55-13.62-3.85-14.68-7.39-1.46-4.88.6-5.05,3.49-7.11,1.21-.86,1.15-3.09,4.25-2,1.38.49.3,2.8,5.66,2.03,1.17-.17.82-.97,1.54-1.36.88-.48,2.89.31,2.92-1.76s-6.75-10.22-8.65-11.45c-4.67-3.01-14.28-2.53-15.95-8.96-2.18-8.42.85-10.54,4.11-16.68.84-1.59,2.51-7.75,4.56-8.24Z"/>
      <path class="cls-4" d="M262.23,305.54c-1.24,1.8-13.5-3.33-17.09,4.01-3.39,6.92,6.52,14.49,12.7,15.34,2.99.41,5.35-.6,7.59-.53,2.42.07,8.95,8.47,9.68,10.94.6,2.04.42,4.76,1.01,6.94-10.3.14-16.55-6.71-24.54-11.77-10.43-6.6-21.04-13.44-31.27-19.93-3.11-1.97-18.29-9.83-19.3-11.86-.26-.53-.42-1.04-.31-1.64,2.04-5.28,3.17-10.9,5.4-16.11,2.42-5.65,8.98-15.67,13.64-19.56,3.96-3.31,14.11-8.62,19.25-8.27,2.47.17,7.99,3.25,8.05,5.81s-8.68,14.76-9.52,18.85c-.57,2.78.7,7.57,2.1,10.04,3.85,6.74,12.1,5.1,17.45,9.53,1.38,1.14,6.3,6.58,5.16,8.24Z"/>
      <path class="cls-3" d="M363.3,320.8c-1.28,1.16-2.15,2.53-4.15,2.77.85-.89.58-3.63,4.15-2.77Z"/>
      <path class="cls-3" d="M630.42,248.2c2.74-.82,3.15,2.44.69,2.07-.2-.66-.61-.79-.69-2.07Z"/>
      <path class="cls-1" d="M314.17,310.43c.09.27,3.17,3.37,3.77,4.21.47.67.26,1.85.38,2.01-.43,1.33-1.37,1.52-2.41,2.09-7.31,4.01-20.97,11.17-29.04,8.93-1.78-.49-9.67-3.85-10.09-5.14-1.17-3.63,4.02-.57,5.24-.39,5.18.79,22.45-5.07,27.34-7.87,2.33-1.34,2.5-3.26,4.81-3.84Z"/>
      <path class="cls-1" d="M762.35,289.23c7.09,6.14,14.95,18.6,17.91,27.39.97,2.89.26,5.24-2.35,2.35-8.49-13.58-21.22-23.46-32.62-34.48-.17-.74.5-1.43,1.14-1.63,3.09-.96,13.32,4.13,15.92,6.38Z"/>
      <path class="cls-1" d="M168.85,295.21c-1.92,2.96-18.37-.8-21.91-2.64-3.33-1.72-18.2-13.77-17.53-17.05s4.88,1.53,5.58,2.02c6.53,4.58,14.55,9.03,21.98,11.92,1.95.76,10.5,2.85,11.2,3.33.74.51,1.02,1.9.69,2.41Z"/>
    </g>
  </g>
</svg>