<?xml version="1.0" encoding="UTF-8"?>
<svg xmlns="http://www.w3.org/2000/svg" version="1.1" viewBox="0 0 1080 1080">
  <defs>
    <style>
      .cls-1 {
        fill: #96a3af;
      }

      .cls-2 {
        fill: #fff;
      }

      .cls-3 {
        fill: #fdcca7;
      }

      .cls-4 {
        fill: #717171;
      }

      .cls-5 {
        fill: #6c6c6c;
      }

      .cls-6 {
        fill: #facba7;
      }

      .cls-7 {
        fill: #282828;
      }

      .cls-8 {
        fill: #ecbb98;
      }

      .cls-9 {
        fill: #ebb895;
      }

      .cls-10 {
        fill: #292928;
      }

      .cls-11 {
        fill: #a19b93;
      }

      .cls-12 {
        fill: #fccca7;
      }

      .cls-13 {
        fill: #e0ab87;
      }

      .cls-14 {
        fill: #292829;
      }

      .cls-15 {
        fill: #2a2a29;
      }

      .cls-16 {
        fill: #d84140;
      }

      .cls-17 {
        fill: #898989;
      }
    </style>
  </defs>
  <!-- Generator: Adobe Illustrator 28.7.1, SVG Export Plug-In . SVG Version: 1.2.0 Build 142)  -->
  <g>
    <g id="Layer_1">
      <path class="cls-2" d="M386.22,836.01s-4.16,21.1,1.8,30.36-39.22,11.48-39.22,11.48l-6.07-35.14,43.49-6.69Z"/>
      <path class="cls-2" d="M298.41,877.84s-3.53,24.19,3.01,34.01-42.25,19.54-42.25,19.54c0,0,1.1-32.4,0-46.54s39.24-7.01,39.24-7.01Z"/>
      <path class="cls-2" d="M800.07,876.13s-.34,18.06,5.19,27.5-39.96,7.83-39.96,7.83l-2.38-40.23,37.15,4.91Z"/>
      <path class="cls-2" d="M843.04,832.85s6.75,24.74,4.7,35.37,40.49-10.63,40.49-10.63c0,0-2.39-20.59-2.31-29.13s-42.87,4.38-42.87,4.38Z"/>
      <path class="cls-3" d="M903.64,636.21c.58,3.82.27,7.6-1.37,11.08-4.11,8.71-5.11,18.02-4.1,27.28,1.07,9.83.13,19.53-2.12,28.75-5.27,21.69-6.53,43.69-7.83,65.79-1.16,19.78-2.3,39.54-2.32,59.35,0,5.55-3.07,7.81-8.12,7.74-9.44-.13-18.93-.04-28.33.73-3.87.32-5.73-.6-6.42-4.09-3.49-17.61-10.78-34.28-12.79-52.24-.97-8.64-1.82-17.3-2.69-25.95-.19-1.94.3-4.39-2.16-5.02-3.1-.78-3.46,2.25-4.12,4.05-2.76,7.48-2.89,15.5-4.34,23.25-3.23,17.27-5.88,34.65-9.06,51.93-2.89,15.71-7.93,31.05-7.8,47.25.03,3.94-2.82,5.23-5.9,5.34-8.45.29-16.81-1.75-25.42-.2-3.76.68-5.28-3.64-5.58-7.18-2.41-28.28-6.16-56.41-6.46-84.9-.14-12.96-.09-25.95,3.35-38.11,3.74-13.21,7.74-26.55,13.57-39.15,3.46-7.49,2.55-15.38,2.14-23.31-.45-8.8-2.82-17.57-.71-26.44.57-.39,1.2-.52,1.88-.41,17.41,6.5,35.48,8.19,53.89,7.16,7.17-.4,14.07-2.35,20.88-4.51,2.5-.79,5.09-1.83,7.26.38,2.19,2.23.13,4.46-.51,6.62-2.16,7.23-4.78,14.31-6.55,21.67-3.41,14.21-8.75,27.68-16.77,39.91-4.06,6.2-5.19,12.41-4.11,19.75,1.65,11.16,1.84,22.53,4.56,34.79,1.53-5.5,2.24-10.08,2.87-14.55,2.58-18.47,8.66-35.86,15.77-52.93,8-19.21,12.63-39.27,15.81-59.72,1.11-7.12,2.78-8.66,9.83-9.32,5.84-.55,11.84-.21,17.43-2.5,3.02-3.52,2.73-8.35,4.86-12.22.47-.55.97-.57,1.5-.07Z"/>
      <path class="cls-14" d="M228.97,668.52c-11.11-16.18-22.9-31.89-35.62-46.8-10.52-12.33-21.13-24.62-31.03-37.42-17.62-22.77-18.64-50.96-3.63-74.46,7.4-11.59,18.2-18.74,31.3-22.17,10.78-2.83,21.82-4.18,33.03-2.78,5.38.29,6.2,3.96,5.99,8.25-.64,13.26,1,26.11,6.53,38.32,5.71,12.61,13.93,22.99,26.19,29.88,6.14,3.45,12.54,4.64,19.48,2.91,10.78-2.69,21.56-5.34,32.32-8.11,2.37-.61,4.65-1.43,6.44,1.09,2.11,6.73.95,13.75,1.77,20.63,1.6,13.34,1.27,26.87,2.46,40.29.25,2.81-1.06,5-3.43,6.5-2.03,1.28-4.23,2.4-6.56,2.76-5.8.92-9.06,3.54-11.22,9.57-2.25,6.27-8.75,10.07-13.48,14.85-12.02,12.15-26.08,20.39-43.27,23.24-7.47,1.24-13.32.43-17.25-6.56Z"/>
      <path class="cls-12" d="M333.64,426.67c9.93-7.94,21.05-13.87,32.57-19.08,1.52-.69,3.49-.37,5.24-.52,19.22-3.14,37.56,7.74,44.09,26.31,10.53,29.99,4.36,57.72-17.23,80.26-9.96,10.4-11.85,20.5-10.02,33.09-2.06,19.34-6.97,37.77-17.38,54.45-1.17,1.87-2.01,3.92-2.08,6.14-.3,9.52-.26,19.04-.03,28.56.08,3.34,1.97,6.02,3.74,8.63,8.88,13.03,14.64,27.17,15.91,43.01.28,3.53,1.25,7.09-.85,10.41-3.42.29-3.61-2.45-4.08-4.63-.89-4.07-1.39-8.2-1.52-12.4-.37-11.15-5.53-20.36-12.24-30.23-1.52,5.85-1.79,10.7-2.19,15.49-1.12,13.25-3.14,26.34-5.65,39.4-1.15,5.98-2.01,12.13-1.71,18.33.13,2.7.57,6.03-2.54,7.37-2.98,1.29-4.5-1.72-6.39-3.31-1.36-1.15-2.5-2.57-4.2-3.27-2.68-1.28-5.05-3.09-7.74-4.35-5-1.61-7.01-6.05-9.5-10.04-.43-2.9-1.38-5.54-3.23-7.92-1.25-1.6-2.81-3.39-1.4-5.77.57-.26,1.16-.42,1.76-.51,2.9-.85,1.98-3.11,1.68-4.94-2.83-17.45-3.91-35.12-6.71-52.58-.91-5.68-1.73-11.34,1.3-16.85,1.51-2.75-.11-5.84-.39-8.75-.67-7.12-.62-14.26-.8-21.39-.41-15.64-2.79-31.13-3.24-46.76-.14-16.14,3.56-31.54,9.53-46.37,2.2-5.48,1.56-9.35-2.17-14.05-9.37-11.81-9.35-25.34-4.8-38.98,2.4-7.21,6.89-13.34,12.28-18.74Z"/>
      <path class="cls-3" d="M789.29,423.76c-3.66-6.9-5.02-14.39-6.17-22.04-.48-3.18-2.5-6.23-4.22-9.11-5.93-9.93-10.39-20.47-13.54-31.59-2.36-8.31-6.75-15.93-7.28-24.9-.59-10.04-2.57-19.99-3.13-30.03-.57-10.23-3.94-20.14-2.75-30.58.93-8.2,2.08-16.9,7.04-23.01,7.96-9.81,16.81-19.69,31.04-20.73,17.92,9.76,29.59,24.14,32.77,44.66,1.77,11.42,1.97,22.86.35,34.37-1.32,9.38,1.32,18.55,2.46,27.76,1.68,13.57,3.58,27.11,3.24,40.83-.21,8.2.59,15.89,4.31,23.62,7.62,15.85,9.77,33.37,13.54,50.37,1.97,8.9,3.6,17.89,6.41,26.58.67,2.35.97,4.85,2.58,6.86,1.65,3.37,2.43,6.97,2.92,10.66-.22,4.62,2.96,7.66,5.29,11.03,5.42,7.84,11.06,15.52,16.25,23.52,7.58,11.69,3.04,26.46-8.66,34.21-3.25,2.16-6.44,1.3-9.75.96-2.39-.13-4.63-.99-6.97-1.36-3.19-.5-4.85-2.55-5.02-5.69-1.04-18.43-10.29-33.84-18.59-49.48-5.35-10.09-11.31-19.89-17.82-29.32-1.05-1.07-2.03-2.19-2.59-3.61-.69-3.16-2.81-5.65-4.11-8.52-3.83-9.05-8.95-17.53-11.82-27.01-1.87-6.17-1.73-12.96-5.78-18.45Z"/>
      <path class="cls-3" d="M307.14,808.91c-3.97,6.48-2.33,13.92-3.04,20.83-1.17,11.42-3.74,22.63-4.48,34.07-.44,6.85-1.93,13.64-.84,20.58.69,4.44-1.35,6.77-5.97,6.76-8.55-.02-17.1-.02-25.65.08-2.88.03-5.17-.78-6.11-3.66-4.66-14.24-9.3-28.48-12.18-43.24-1.59-8.14-4.05-16.11-5.51-24.27-1.7-9.51-3.1-19.11-3.97-28.73-1.82-20.03,4.8-38.17,13.33-55.81,4.35-9,5.08-18.24.91-27.53-5.02-11.2-10.6-22.08-18.88-31.32,3.37-2.75,7.62-1.48,11.37-2.07,16.53-2.61,29.88-10.75,41.67-22.03,3.86-3.7,7.55-7.57,11.36-11.32,4.5-4.43,6.23-4.15,8.82,1.84,4.1,9.48,6.8,19.42,9.12,29.46.49,2.12,1.16,4.25,1.16,6.42,0,4.84,1.62,8.81,5.18,12.16,1.49,1.4,3.38,3.03,1.92,5.61l-.25.19c-6.42-1.32-6.71-1.22-6.63,5.22.06,4.7-.84,9.42.12,14.12-.07.64-.38,1.13-.91,1.49-9.6,2.43-19.74,2.8-28.66,7.73-10.89,5.82-15.41,15.94-16.76,27.23-1.63,13.62.15,26.87,8.44,38.64,5.6,7.95,12.43,13.81,22.17,15.77,1.54.31,3.19.39,4.28,1.79Z"/>
      <path class="cls-16" d="M333.64,426.67c-.25,4.59-4.09,7.19-6.36,10.47-9.38,13.49-10.57,36.19,2.27,48.89,3.16,3.12,2.95,6.37,1.33,10.31-6.37,15.5-10.54,31.54-10.54,48.45-1.65,4.06,1.02,8.61-1.44,12.58-3.84-1.89-7.32.71-10.52,1.65-7.61,2.23-15.51,3.26-22.99,5.8-16.28,5.54-28.2-2.09-38.45-13.06-15.81-16.91-20.98-37.69-19.45-60.31.27-4.03-1.38-5.5-4.5-6.56,14.81,1.11,27.49-5.59,40.62-10.8,16.56-6.57,29.43-18.27,42.71-29.57,8.3-7.07,17.6-12.85,27.32-17.86Z"/>
      <path class="cls-12" d="M804.48,104.37c-3.44,5.85-5.74,12.55-10.82,17.2-8.66,7.93-10.25,17.63-7.9,28.33,3.39,15.45,11.28,28.78,20.81,41.15,3.64,4.73,6.39,4.74,11.11,1,6.69-5.3,8.22-12.97,3.79-20.37-2.72-4.55-3.15-9.39-2.33-14.38.68-4.16,2.85-7.62,7.18-8.65,4.24-1.01,7.09,1.63,9.55,4.73,1.47,1.85,2,4.34,3.99,5.83,4.29-4,4.79-6.96,2.57-14.89-2.84-10.13,1.28-18.94,10.13-20.9,4.04-.9,8.2-1.56,12.39-1.67.99-.03,1.99-.06,2.98-.03,4.69.15,7.11-1.9,6.76-6.8-.11-1.51-.74-3.19.79-4.44,4.05,2.86,2.32,6.77,1.53,10.23-.75,3.29-.63,5.96,1.23,8.98,2.37,3.86,4.26,8.28,4.08,12.87-.4,9.96,2.82,18.65,8.46,26.53,2.29,3.2,2.4,5.45-.75,8.02-3.31,2.7-4.23,5.94-3.32,10.54,1.02,5.16.6,10.67.28,16-.22,3.77-2.81,6.04-6.6,6.54-1.76.23-3.57.03-5.35.15-10.03.7-13.86,6.68-13.38,16.75.45,9.33,3.59,16.31,11.18,21.45,4.09,8.48,5.04,17.48,3.1,26.52-1.71,7.94-8.42,10.42-16.29,6.58-7.33-3.57-13.88-8.32-20.03-13.65-11.82-10.24-22.74-21.41-33.73-32.51-1.58-1.59-3.83-3.17-2.33-6.06,8.41-8.46,6.07-19.03,5.55-29.17-.08-1.53-1.62-3.12-2.77-4.44"/>
      <path class="cls-12" d="M792.57,118.28"/>
      <path class="cls-12" d="M573.49,376.4c7.44,6.42,10.48,15.02,11.79,24.36.44,3.11.12,6.34.09,9.51-.06,7.39-3.24,12.38-10.17,14.12-3.57.9-5.18,2.77-6.86,5.66-3.91,6.7-8.71,12.5-15.57,16.78-5.44,3.4-8.22,9.4-10.67,15.33-1.6,3.87-3.24,8.09-9.02,4.83-2.11-1.19-4.21.35-6.07,1.5-5.55,3.44-11.21,6.71-16.57,10.43-3.91,2.71-7,2.02-9.93-1.16-1.6-1.74-3.19-3.55-4.45-5.54-3.45-5.49-8.61-5.99-13.85-4.12-4.72,1.68-8.59,4.9-9.14,10.57-11.6,5.66-21.73,13.64-32.56,20.51-7.36,4.67-12.72,1.56-12.98-7.31-.23-7.86,1.41-15.52,5.15-22.34,8.28-15.11,11.31-31.47,12.68-48.32.24-2.92-.23-6.05,2.7-8.06.39-.03.78-.09,1.17-.1,10.56-.22,21.77.66,23.92-13.96,1.97,1.94,1,4.08.26,6.09-1.49,4.09.54,6.47,3.87,8.14,7.94,3.99,18.69.42,22.61-7.47,2.81-5.66,7.05-9.62,13.38-10.79,8.81-1.62,13.4,3.73,10.74,12.26-.82,2.63-2.77,4.81-3.19,8.46,6.86-.21,11.34-3.78,15.38-8.51,7.16-8.4,15.64-8.7,23.65-1.03.86.82,1.68,1.69,2.53,2.52,2.71,2.65,4.78,5.83,7.14,8.77,3.8,4.75,8.25,4.28,10.97-1.28,1.49-3.05,2.29-6.38,1.93-9.82-.92-8.74-2.43-17.29-7.74-24.7-1.07-1.49-2.7-3.14-1.19-5.34Z"/>
      <path class="cls-3" d="M470.73,485.61c1,10.58-5.94,18.1-10.4,26.53-2.96,5.6-5.8,10.88-6.65,17.52-2.49,19.38-4.35,38.87-8.82,57.97-.8,3.4-.39,7.14-.19,10.7,1.19,21.16-2.4,41.8-6.51,62.41-1.31,6.57-1.98,13.27-3.03,19.89-.37,2.32,1.25,3.64,2.28,5.28-1.8,2.76-2.03,5.83-2.02,9.03.03,9.44.72,18.93-1.91,28.19-.43,1.51-.55,3.12-1.35,4.51-1.96,3.44-4.64,3.59-6.69.25-1.33-2.17-2.11-4.67-3.8-6.64-2.25-2.09-3.5-4.89-5.25-7.34-.75-1.27-1.35-2.62-1.95-3.98-4.92-4.93-3.95-11.93-6.28-17.77-.69-.7-1.24-1.48-1.45-2.46.3-12.92-4.16-24.99-6.82-37.35-4.13-19.12-6.69-38.22-4.01-57.8,1.35-9.9.04-19.8-1.36-29.64-.87-6.11-1.07-12.24-.04-18.36,1.5-3.49,4.93-3.7,7.93-4.38,10.5-2.37,20.49-5.89,29.49-11.96,9.32-6.28,15.02-15.63,20.74-24.83,3.78-6.08,7.8-11.9,12.51-17.25,1.46-1.66,3.02-3.21,5.57-2.53Z"/>
      <path class="cls-17" d="M407.53,690.59c.77.13,1.54.26,2.31.39,1.01.93.81,2.19.66,3.27-.88,6.19.84,11.45,5.38,15.78.45,1.1.9,2.21,1.35,3.31-2.95.98-4.52-1.29-5.85-2.99-6.95-8.89-15.76-10.61-26.03-7.27-.18,1.99-.25,2.1.99,2.83,10.72,6.24,17.12,15.75,20.45,27.43,5.09,17.87,3.17,34.5-9.36,49.05-.63.73-1.49,1.35-1.47,2.82,2.38.91,4.45-.58,6.64-1.1,5.21-.25,8.13-5.68,13.35-5.88.6.15,1.09.48,1.45.99-7.38,8.73-17.71,9.8-28.06,10.81-10.13,4-20.57,6.81-31.35,8.35-1.96.28-4.05.34-5.69,1.51-6.59,4.72-13.51,8.15-21.96,6.37-6.2.53-12.4,1.07-18.6,1.6-12.26,1.68-22.05-3.47-29.02-12.7-13.23-17.53-15.2-36.9-6.4-57.14,2.52-5.79,7.06-9.96,11.97-13.74,9.25-5.17,19.41-6.62,29.77-7.21.6-.41,1.09-.3,1.45.33.14,1.25-3.12,2.18.21,3.88,14.82,7.54,22.52,20.33,24.52,36.39,2.1,16.9-1.24,32.4-14.81,44.96,11.73.43,20.96-4.92,26.37-13.64,10.09-16.25,11-33.6.18-50.46-1.28-1.99-2.98-3.95-.63-6.32,3.3.2,4.02-1.86,3.92-4.54-.26-6.52,1.29-12.93,1.2-19.43-.06-3.99,1.97-6.2,5.78-7,6.73-1.41,13.36-3.53,20.39-2.81.89.09,1.42-.54,1.98-1.08,5.49-4.53,11.2-8.44,18.92-6.74Z"/>
      <path class="cls-7" d="M573.49,376.4c.59,3.01,2.85,5.09,4.34,7.59,5.43,9.13,6.5,19.02,5.57,29.34-.29,3.22-2.01,5.54-4.38,7.49-3.7,3.06-6.96,3.18-9.99-1.13-2.62-3.73-5.46-7.33-8.49-10.74-7.97-8.94-15.57-9.04-23.48-.18-3.82,4.28-7.98,7.71-13.78,8.66-1.73.28-3.88,1.02-5.03-.52-1.11-1.48.7-2.89,1.46-4.2,1.69-2.92,3.65-5.7,3.74-9.26.13-4.91-2.26-7.39-7.14-7.46-5.7-.09-13.93,4.76-15.25,10.7-1.51,6.79-5.86,8.08-11.41,9.17-3.83.75-7.41.79-11.12-.44-7.3-2.42-8.53-4.85-5.95-12.31.45-1.29,1.08-2.59.57-4.02,6.37-9.47,10.21-20.43,17.2-29.54,6.23-8.12,13.23-17.25,23.49-17.78,13.8-.71,28.81-4.06,41.08,7.14,6.28,5.74,12.55,11.47,18.57,17.49Z"/>
      <path class="cls-15" d="M875.48,110.47c.32,1.72.91,3.45.91,5.17,0,4.5-1.52,7.66-6.87,7.66-3.96,0-7.93.41-11.88.82-12.42,1.28-17.62,8.97-13.37,20.66,1.97,5.42,1.06,10.03-1.19,14.84-.61,1.31-1.3,2.57-2.87,2.71-1.81.17-2.2-1.35-2.7-2.64-.07-.18-.1-.39-.19-.56-2.31-4.62-4.24-9.96-10.89-9.09-4.48.59-6.73,6.34-6.08,13.98.26,3.07,1.35,5.82,3.05,8.29,5.73,8.38-.73,22.88-10.84,24.29-1.96.27-3.57-.15-4.77-1.7-12.9-16.63-24.73-33.72-24.25-56.13.07-3.44.36-6.94,2.37-9.71,6.05-8.33,12.37-16.47,18.58-24.68,13.77-4.47,27.55-8.68,42.37-7.68,11.48.77,20.92,5.38,28.63,13.78Z"/>
      <path class="cls-16" d="M824.89,969.1c-11.58-.14-22.85-1.32-33.66-6.08-6.81-3-14.37-2.47-21.69-2.95-11.51-.76-14.21-4.07-12.91-15.57,1.12-9.96,1.61-20.01,5.84-29.45,1.62-3.61,3.72-4.57,7.22-4.67,10.59-.32,10.52-.42,14.12-10.43,1.26-3.5,3.44-5.57,7.73-4.46,6.77,1.76,12.57,4.29,15.49,11.46,3.45,8.47,11.17,12.46,18.71,16.59,8.71,4.76,17,10.19,24.62,16.6,1.21,1.02,2.42,2.05,3.55,3.16,9.97,9.81,8.25,17.58-5.03,22.45-2.6.96-5.26,2.04-7.97,2.35-5.31.6-10.68.69-16.03,1Z"/>
      <path class="cls-17" d="M952.41,488.02c8.16,2.89,16.44,5.49,22.55,12.21,21.65,23.76,13.39,66.4-17.03,76-9.16,2.89-18.58,2.61-27.23-1.78-3.76-1.91-5.78-1.24-8.03,1.63-2.42,3.09-5.57,5.1-9.47,5.68-3.46.52-4.4,2.56-4.48,5.81-.19,7.91-.75,15.8-2.33,23.58-3.26-4.14-1.25-8.93-1.68-13.41.02-.67.13-1.34.28-2,1.22-3.24.86-6.64.89-9.99.03-3.64,1.64-6.1,5.09-7.15,12.01-3.66,15.95-12.89,16.24-24.17.42-16.54-3.23-32.2-11.5-46.66-.59-1.03-1.26-2.02-1.46-3.22,1.52-3.83,5.61-5.55,7.47-9.11,8.85-8.18,19.34-9.63,30.7-7.43Z"/>
      <path class="cls-16" d="M323.61,979.43c-11.71-.36-23.31-1.32-34.36-5.82-5-2.04-10.38-2.46-15.78-2.52-3.76-.04-7.51-.04-11.18-1.27-4.26-1.42-6.39-3.82-6.53-8.62-.35-12.03,2.17-23.63,4.51-35.29.74-3.67,2.69-5.41,6.64-5.16,2.73.17,5.51-.42,8.27-.61,2.98-.2,4.66-1.93,5.56-4.6,1.21-3.58.54-9.01,5.6-9.4,5.54-.43,11.04,1.37,15.08,5.71,1.73,1.86,3.26,4.02,4.4,6.29,2.97,5.94,7.7,9.85,13.35,13.08,11,6.29,22.03,12.62,31.5,21.13,4.2,3.77,9.5,7.79,7.8,14.36-1.61,6.19-7.63,8.25-13.1,10.01-7.03,2.27-14.35,2.96-21.76,2.69Z"/>
      <path class="cls-16" d="M906.98,920.88c-10.3-.49-20.56-1.18-30.4-4.77-7.05-2.58-14.47-2.02-21.79-2.27-9.1-.3-11.34-2.84-11.58-12.01-.27-10.41,2.33-20.45,3.65-30.66.52-4.03,2.87-6.36,7.31-6.15,6.96.33,12.72-.8,13.11-9.75.11-2.53,2.46-4.75,5.42-4.62,6.06.25,12.53.98,15.52,6.96,4.84,9.69,13.09,14.9,22.15,19.64,9.14,4.78,18.06,10.01,26.05,16.6,11.48,9.48,10.12,17.37-3.71,23.04-2.99,1.23-6.06,1.88-9.15,2.45-5.46,1-10.97,1.78-16.57,1.53Z"/>
      <path class="cls-16" d="M344.11,908.38c.46-9.13,1.68-18.15,3.39-27.14.74-3.89,2.54-5.46,6.32-5.55,2.77-.07,5.52-.59,8.28-.84,2.97-.27,4.36-1.74,5.11-4.76,2.57-10.34,11.2-12.46,19.59-5.02.44.39,1,.78,1.22,1.3,6.21,14.49,20.14,19.44,32.47,26.45,7.08,4.03,13.88,8.53,19.48,14.6,7.03,7.62,6.07,13.75-3.33,18.24-11.04,5.27-22.88,6.43-34.9,5.4-8.48-.72-16.92-1.59-25-4.88-6.93-2.82-14.57-1.27-21.83-2.27-9.88-1.35-10.79-2.4-10.79-12.54,0-.99,0-1.99,0-2.98Z"/>
      <path class="cls-6" d="M952.41,488.02c-11.25-.67-21.76,1.21-30.56,8.94-.5-.31-.9-.72-1.21-1.22-7.28-11.51-15.88-22.04-24.34-32.67-1.61-2.02-3.28-3.96-3.5-6.7.88-19.32,1.55-38.63,4.2-57.83,1.29-9.36.43-18.94,1.54-28.4.85-7.24,1.39-14.54,1.64-21.86.09-2.74-.29-6.55,3.56-8,4.43,9.69,9.81,19.15,10.95,29.89.98,9.2,5.7,16.58,9.37,24.62,5.43,11.92,7.8,24.82,9.69,37.78,2.19,15.03,4.85,30,6.82,45.06.86,6.58,3.2,10.39,10.43,9.5.43-.05.94.59,1.42.9Z"/>
      <path class="cls-8" d="M330.33,806.24c7.88-1.02,15.45-2.73,21.65-8.26,2.06-1.84,4.97-1.19,7.47-1.42,10.25-.96,19.6-5.94,29.9-6.56-2.44,1.73-3.28,3.95-3.24,7.05.19,14.05,0,28.11.14,42.16.04,4.15-.76,6.36-5.65,6.99-11.07,1.42-22.14.44-33.19.88-3.03.12-4.19-1.88-4.67-4.39-1.95-10.23-6.64-19.85-6.76-30.47-.04-3.83-1.68-5.94-5.64-5.99Z"/>
      <path class="cls-4" d="M439.7,687.3c2.91,1.38,6.48,1.52,8.51,4.55,14.6,11.75,21.81,26.97,20.72,45.7-.83,14.29-6.56,25.92-19.89,32.86-3.22,1.68-6.81,1.96-10.17,3.09-2.58.86-3.72-.69-2.8-3.34.33-.95.93-1.75,1.58-2.51,14.67-17.29,12.26-40.83.5-57.48-4.62-6.54-4.01-13.41-3.02-20.52.38-2.77,1.93-3.78,4.59-2.36Z"/>
      <path class="cls-16" d="M903.73,340.27c-3.54,8.04-2.3,16.74-3.09,25.1-2.53,26.9-4.26,53.88-6.22,80.83-.29,3.94-.11,7.92-.14,11.88.04,3.69-.37,7.4-.43,11.05-.16,9.22,2.12,17.58,11.31,22.39,3.49,1.83,6.77,4.19,7.72,8.5-.06.62-.35,1.12-.86,1.5-6.54-4.8-15.99-6.12-18.71-15.54-1.2-3.39-3.57-6.19-4.87-9.53.3-11.89,1.62-23.72,2.42-35.58,1.24-18.4,2.81-36.77,4.23-55.16,1.31-16.81,3.26-33.56,4.99-50.33,1.98-19.28,3.41-38.9-5-57.49-3.74-8.26-9.08-15.22-16.2-21.6-1.22,2.73-.57,5.02-.2,7.25.52,3.17.75,6.31.05,9.47-2.61,11.94-11.19,15.77-21.94,10.01-10.12-5.42-18.5-13.04-26.72-20.82-8.37-7.93-16.35-16.26-24.52-24.39-1.81-1.8-3.48-3.82-7.23-5.19,2.38,3.49,4.8,5.41,7.04,7.34,14.52,12.5,20.42,28.72,21.54,47.4.58,9.77.14,19.38-.99,29.05-.77,6.61,1.36,13.01,2.29,19.47,2.32,16.15,3.8,32.34,3.34,48.67-.14,4.87.82,9.39,2.83,13.85,5.82,12.94,9.23,26.61,11.89,40.49,2.1,10.93,4.12,21.87,7.05,32.62.52,1.93.94,3.86.78,5.88-.16,1.39-.44,2.72-1.81,3.48-5.1-14-7.11-28.76-10.25-43.22-2.94-13.55-6.38-26.88-12.32-39.46-1.2-2.53-2.4-4.96-2.28-7.89.91-23.08-2.05-45.84-5.6-68.58-1.51-9.65,1.11-19.33,1.09-29.06-.05-23.77-7.8-43.34-28.42-56.69-1.62-1.05-2.8-2.78-4.19-4.19,3.82-4.18,8.73-2.23,13.27-2.37.54,1.03.88,2.26,1.65,3.06,14.07,14.45,28.2,28.85,44.01,41.43,3.36,2.68,7.4,4.59,11.3,6.49,7.81,3.8,13.75.39,14.59-8.34.62-6.36-.46-12.61-1.67-18.83-.3-1.54-.41-3.12-.6-4.68,8.78,2.61,14.09,9.49,18.82,16.46,12.18,17.91,14.47,38.25,12.82,59.23-.42,5.35-.62,10.69-.75,16.04Z"/>
      <path class="cls-17" d="M439.7,687.3c-1.58.14-3.04.12-3.57,2.27-1.62,6.58-1.94,12.8,2.52,18.62,13.03,17,16.09,44.11-1.22,61.99-.48.5-.62,1.32-.99,2.14,15.1-.95,25.79-10.19,29.58-23.86,5.86-21.12-.23-38.86-15.75-53.79-.83-.8-1.38-1.87-2.06-2.82,9.29,4.9,14.33,13.23,18.26,22.49,7.49,17.64,3.42,39.8-9.38,51.93-5.65,5.35-12.79,6.96-19.92,8.65-6.55,1.56-13.17,2.85-19.76,4.26-.54-.06-1.08-.13-1.61-.19-.3-1.91,1.02-2.77,2.34-3.65,6.86-5.26,7.62-13.18,9.41-20.79,2.3-9.8-.76-18.58-4.26-27.37-.49-2.5-3.14-4.62-1.37-7.54,3.05,1.16,3.03,4.41,4.45,6.67.69,1.1.52,3.17,2.24,3.04,1.7-.13,2.48-1.77,2.73-3.45,1-6.82,2.95-13.49,2.52-20.52-.29-4.73.03-9.5-.07-14.25-.05-2.71.73-4.65,3.63-5.21.91.22,1.9.31,2.28,1.4Z"/>
      <path class="cls-13" d="M318.9,557.37c1.26-4.11-.68-8.59,1.44-12.59.11,19.59,3.05,39.01,2.86,58.65-.08,8.32.81,16.54,0,25.02-1.1,11.34,2.55,22.62,3.62,33.99,1.01,10.76,2.91,21.43,4.31,32.15.19,1.45.73,3.42-1.17,4.21-2.06.86-3.06-1.39-4.62-2.07-10.91-10.2-8.47-25.11-13.25-37.48-1.99-5.16-3.64-10.45-5.64-15.61-2.31-5.95-2.57-5.96-7.26-1.21-10.71,10.87-21.33,21.79-35.7,28.06-9.19,4.01-18.73,6.08-28.73,6.17-2.74-2.14-4.72-4.83-5.78-8.16,4.99,6.92,11.66,6.05,18.92,4.69,15.61-2.94,28.45-10.6,39.54-21.62,3.94-3.92,7.86-7.86,11.78-11.8.7-.7,1.88-1.44,1.92-2.21.59-11.17,10.34-10.63,17.31-13.42,3.11-1.25,4.36-2.92,4.15-6.19-1.28-20.19-2.47-40.39-3.69-60.59Z"/>
      <path class="cls-16" d="M470.73,485.61c-7.64,5.08-12.06,12.76-16.62,20.36-7.92,13.18-17.04,25.11-31.79,31.5-8.54,3.7-17.62,5.45-26.47,8.04-2.71,1.62-5.42,3.22-8.56.92-1.68-10.54-3.41-20.38,6.03-29.41,20.51-19.62,28.95-43.98,23.94-72.28-3.65-20.6-17.54-36.45-39.98-36.59-1.94-.01-3.87-.7-5.81-1.08,2.86-3.6,7.21-3.23,10.93-3.37,20.28-.81,40.19,2.35,59.98,6.4,2.22.46,3.97,1.7,5.68,3.06-2,10.67-1.98,21.61-4.58,32.23-2.03,8.29-4.89,16.15-8.88,23.68-3.86,7.29-5.7,15.14-5.54,23.41.06,2.82.28,5.98,3.23,7.13,2.94,1.15,5.78-.46,8.27-2.16,6.86-4.68,13.68-9.42,20.55-14.1,3.62-2.46,7.36-4.7,11.96-4.67.37,2.7-1.01,4.8-2.34,6.93Z"/>
      <path class="cls-5" d="M776.35,662.43c-.43-.09-.86-.17-1.29-.26-.81-.82-1.62-1.65-2.43-2.47-1.1-7.92-.33-15.89-.56-23.83-.45-5.53,1.02-11.17-.96-16.61-.51-3.46-.11-6.95-.24-10.42-.06-4.04.38-8.13-.99-12.06-.73-3.84.51-7.8-.71-11.6-4.1-17.21-4.24-34.86-5.5-52.36-1.1-15.34.11-30.52,5.39-45.18,3.38-9.39,8-18.07,14.07-26,1-.61,1.8-1.79,3.24-1.11,1.67,1.56,4.86,2.63,1.85,5.71-3.6.11-5.76,2.27-7.47,5.14-6.69,11.26-10.66,23.44-12.33,36.4-2.69,20.92.31,41.59,3.02,62.22,2.38,18.12,4.4,36.26,4.05,54.55-.19,9.76,1.76,19.38,1.36,29.12-.12,2.87,1.91,5.21,2.08,8.02-.53,1.38-1.54,1.09-2.57.74Z"/>
      <path class="cls-8" d="M288.29,724.26c-6.84,6.75-12.18,14.35-14.6,23.86-5.17,20.33,2.84,47.9,22.54,56.5,5.02,2.19,10.16,3.02,15.51,3.21-1.25,1.6-3.06.73-4.6,1.07-14.06-.29-22.64-8.65-29.67-19.68-9.56-15-9.82-41.28.05-55.31,2.78-3.95,5.67-8.13,10.76-9.66Z"/>
      <path class="cls-16" d="M785.51,460.45c-.79.4-1.59.79-2.38,1.19,3.5-12.39,3.94-25.28,6.16-37.88,5.55,1.32,4.76,6.48,5.42,10.1,1.87,10.27,6.12,19.49,10.88,28.59,1.08,2.07,1.66,4.41,2.46,6.63-.8.62-1.64.62-2.51.18-7.18-9.64-10.93-20.8-14.41-32.82-.56,6.6-2.13,12.39-3.02,18.3-.31,2.07-.5,4.37-2.6,5.71Z"/>
      <path class="cls-5" d="M906.18,596.55c.07,4.86.15,9.72.22,14.59.41,8.5-2.26,16.66-2.75,25.06-.32,0-.64-.01-.97-.03-2.89-3.72-2.05-8.01-1.34-12,1.25-7.05,2.07-14.08,2-21.26-.02-2.36-.6-5.37,2.84-6.37Z"/>
      <path class="cls-3" d="M772.22,635.85c.49,7.94.97,15.89.41,23.85-2.11-7.83-.94-15.77-.79-23.68l.38-.17Z"/>
      <path class="cls-13" d="M772.22,635.85s-.39.17-.39.17c-.21-5.29-.43-10.59-.64-15.88-.22-.52-.08-.76.5-.68,1.23,5.43.96,10.91.52,16.4Z"/>
      <path class="cls-3" d="M769.17,585.17c1.78,3.83.79,7.96,1.3,11.93.32,1.07.89,2.19-.51,2.96-1.59-4.89-.74-9.92-.78-14.89Z"/>
      <path class="cls-3" d="M771.69,619.46c-.16.24-.32.47-.5.69-1.58-3.78-.82-7.67-.58-11.54l.47-.2c.2,3.68.41,7.36.61,11.05Z"/>
      <path class="cls-13" d="M771.08,608.41s-.47.2-.47.2c-.22-2.85-.44-5.69-.66-8.54.17-.99.34-1.99.51-2.97,1.4,3.71,1.01,7.51.62,11.31Z"/>
      <path class="cls-7" d="M906.18,596.55c-2.13,7.82-.23,16.03-2.29,23.86-1.36,5.17-1.71,10.43-1.2,15.75-.39,4.55-.84,9.09-3.8,12.89-5.44,2.08-11.26,1.79-16.88,2.23-4.38.34-8.57,1.11-12.79,2.12-1.84.44-3.53,1.27-4.31,2.9-3.03,6.36-9.14,7.89-15.01,9.45-23.57,6.26-46.96,4.92-70.12-2.3-.57-.18-.83-.82-1.13-1.33-2.84-2.53-3.6-5.64-3.7-9.46-.93-34.43-2.92-68.74-7.7-102.96-3.47-24.82-3.28-49.92,8.75-73.22,1.63-3.15,3.58-6.14,5.3-9.25,1.85-3.35,4.27-4.17,7.54-2,4.44-.68,8.16,1.94,12.29,2.65,5.55.93,8.98,4.3,10.88,9.43.77.94,1.55,1.87,2.32,2.81,5.36,9.91,11.53,19.35,17.08,29.14.66,1.16,2.06,2.2.94,3.66-1.18,1.53-2.95,1.3-4.34.5-5.54-3.21-11.01-1.91-16.71-.41-4.97,1.31-10.01,2.39-15.16,3.06-8.18,1.05-13.03,6.89-14.28,14.15-4.47,25.88,0,49.63,19.06,69.24,3.59,3.7,7.84,4.89,12.47,3.42,6.64-2.11,13.38-3.76,20.21-5,9.34-1.71,13.86-7.75,15.64-16.51.32-1.56.46-3.14.52-4.72.49-11.33.67-11.49,11.65-10.42,3.38-.33,5.53,1.62,7.17,4.14,3.22,4.96,7.4,9,11.83,12.84,3.65,2.82,7.61,2.72,11.72,1.29.37-.13.73-.28,1.1-.41,12.74-4.32,15.27-2.91,12.99,11.33-.07.37-.09.74-.05,1.12Z"/>
      <path class="cls-13" d="M778.65,662.13c21.91,7.06,44.15,8.88,66.71,3.75,7.42-1.68,15.47-2.73,18.42-11.75.57-1.74,2.48-2.28,4.4-2.53,10.2-1.32,20.44-2.14,30.71-2.54-.55,2.29-2.38,2.31-4.2,2.43-5.52.38-11.03,1.07-16.55,1.12-4.42.04-5.94,2.41-6.42,6.18-3.05,24.04-9.63,47.01-19.06,69.4-6.49,15.41-11.16,31.6-13.32,48.39-.48,3.7-.84,7.44-1.45,11.13-.21,1.28-.76,2.9-2.47,2.95-2.07.06-1.74-1.71-1.9-3.02-1.57-12.91-3.19-25.82-4.69-38.73-.58-5.03.24-9.57,3.36-14,13.04-18.52,17.49-40.48,23.7-61.67.76-2.6,5.25-5.29,1.83-8.1-2.57-2.12-5.5,1.17-8.29,1.9-23.87,6.29-47.39,4.7-70.65-2.99-.89-.29-1.63-1.06-2.43-1.6.77-.1,1.54-.2,2.3-.3Z"/>
      <path class="cls-9" d="M387.29,697.83c.71.15,1.42.31,2.13.47-7.5,1.49-14.95,3.26-22.5,4.36-4.22.62-5.79,2.54-5.93,6.57-.25,6.91-.97,13.81-1.1,20.73-.08,4.16-2.03,4.05-4.91,2.96-4.54-1.13-7.08-4.39-8.92-8.4.03-.6.28-1.09.73-1.48,3.57.44,4.9,3.79,7.38,5.65,1.01.76,1.66,2.63,3.35,1.66,1.39-.8,1.1-2.43,1.11-3.8.06-5.34.13-10.62,1.08-15.95,2.08-11.59,3.79-23.25,5.32-34.92.97-7.42,1.29-14.91,2.01-22.37.17-1.79-1.11-4.38,1.65-5.05,2.21-.54,2.85,1.74,3.76,3.19,6.34,10.13,11.68,20.46,11.49,33.05-.07,4.38-.35,9.56,3.35,13.34Z"/>
      <path class="cls-11" d="M318.08,716c4-2.07,8-4.14,11.99-6.2.86.41,2.41.75,2.47,1.26.54,4.43,4.31,5.92,7.15,8.26-.4.46-.9.75-1.5.87-.78-.16.13.33-.57-.01-5.79-2.78-11.76-4.33-18.21-2.9-.45-.07-.91-.14-1.36-.21.02-.35.03-.7.02-1.05Z"/>
      <path class="cls-17" d="M338.47,719.51c.41-.07.82-.13,1.23-.2,2.79.42,4.73,2.46,7.09,3.7-.1.43-.21.85-.32,1.28-3.99.62-6.7-.91-8-4.78Z"/>
      <path class="cls-5" d="M862.16,566.68c-.79.06-1.58.16-2.37.16-8.21.06-8.41.06-8.26,8.11.09,4.92-1.2,9.43-2.91,13.87-2.96,7.68-9.84,9.9-16.94,11.23-5.86,1.1-11.62,2.41-17.29,4.29-5.32,1.76-9.96.61-14.26-3.27-12.14-10.96-17.17-25.35-20.25-40.72-1.89-9.42-1.83-18.85-.11-28.36,1.53-8.46,8.72-18.23,18.52-17.84,4.41.17,9.03-1.29,13.34-2.68,6.09-1.96,11.89-3.39,17.48,1.14.46.37,1.74.41,2.14.05,1.27-1.14-.02-2.1-.57-3.05-5.02-8.56-10.04-17.12-15.13-25.64-.74-1.23-1.45-2.36-1.2-3.85,8.72,12.43,16.52,25.4,23.27,39,4.98,10.04,10.67,19.8,12.53,31.11.22,1.36.79,2.66,1.02,4.02q1.59,9.7,11.09,11.45c.33.24.42.46.3.67-.12.2-.24.3-.36.3Z"/>
      <path class="cls-17" d="M862.16,566.68c0-.32.02-.64.07-.96,9.63,1.24,19.15-7.78,20.32-18.13,1.15-10.23-4.9-17.05-9.97-24.46-4.46-6.52-9.01-12.98-13.61-19.39-1.37-1.91-1.92-3.85-1.44-6.11.67-.29,1.25-.16,1.75.37,1.31,1.89,2.38,3.21,5.25,1.77,9.73-4.88,17.4-2.61,24.07,6.77,7.74,10.89,12.02,23.18,14.52,36.18,1.94,10.08,1.95,20.14-.68,30.08-3.19,12.06-12.5,16.23-23.79,10.89-4.61-3.99-8.94-8.21-11.91-13.63-.99-1.82-2.52-2.97-4.58-3.37Z"/>
      <path class="cls-10" d="M858.5,497.84c-.3-.21-.63-.28-.98-.21-.88-3.58-1.77-7.16-2.65-10.74-2.32-7.9-1.06-9.69,6.72-9.97,6.06-.22,12.18.73,18.19-.78,3.37-.54,6.74-.96,9.98.63,2.16,2.66,3.46,5.76,4.65,8.92,1.15,6.87.59,7.94-5.91,9.41-5.54,1.25-11.04,2.84-16.84,2.64-2.12-.07-4.45.12-6.03,1.85-3.55,3.89-5.58,2.21-7.13-1.75Z"/>
      <path class="cls-5" d="M879.62,477.6c-5.09,1.89-10.38.71-15.57.87-8.87.28-8.87.11-9.18,8.41-3.2-.99-1.83-3.96-2.61-6,.17-1.27.35-2.54.52-3.8,8.99-2.24,17.95-3.02,26.83.52Z"/>
      <path class="cls-5" d="M812.02,477.34c-2.89-3.43-5.03-7.82-10.4-8.04,1.16-1.78,2.8-1.06,4.34-.83.7.21,1.4.41,2.1.62,1.41,2.71,4.46,4.62,3.96,8.25Z"/>
      <path class="cls-5" d="M421.91,719.65c.8,2.33,1.61,4.67,2.41,7,2.63,8.82,5.23,17.68,3.48,27.01-1.55,8.26-3.18,16.56-9.48,22.9-.84.82-1.69,1.63-2.53,2.45-4.72,1.16-7.26,6.94-12.93,6.07-4.88.75-5.06-1.78-3.39-5.16,1.39-2.82,3.43-5.27,4.96-8.06,11.31-20.62,2.89-52.65-16.09-64.57-1.93-1.21-5.18-2.08-3.42-5.69,6.89-2.27,13.52-2.1,20.35.86,3.47,1.51,4.27,5,7.05,6.82,1.78,1.16,2.67,3.44,4.92,4.07,2.71,1.25,2.72,4.5,4.68,6.31Z"/>
      <path class="cls-9" d="M415.88,710.02c-8.25-4.38-5.25-12.31-6.03-19.05.37.42,1.1.89,1.06,1.27-.73,6.61,1.56,12.35,4.97,17.78Z"/>
      <path class="cls-5" d="M338.47,719.51c2.67,1.59,5.33,3.19,8,4.78,2.83,2.87,5.67,5.73,8.5,8.6.05,1.42.29,2.76,1.36,3.82,12.43,12.38,10.86,41.98-.42,55.2-5.66,6.63-13.37,12.52-23.49,12.2-2.12-.07-4.26.32-6.57.51.09-.64-.04-1.41.27-1.67,23.71-20.61,23.15-57.02-1.24-77.27-2.31-1.92-4.95-3.27-7.93-3.86-1.38-.27-3.14-.43-3-2.16.16-2.01,2.21-.95,3.38-1.4.72-.28,1.39-.67,2.09-1,7.08-5.43,12.94-.53,19.05,2.25Z"/>
      <path class="cls-5" d="M398.15,752.29c.1,12.17-3.08,23.27-11.39,32.23-5.6,6.03-13.33,8.32-21.42,8.77-4.31.24-2.6-2.59-1.38-4.2,2.37-3.14,4.96-6.04,7.13-9.41,9.56-14.86,6.71-43.93-5.92-56.6-4.8-4.81-3.12-10.42-2.38-15.64.49-3.43,3.95-2.39,6.36-1.18,18.89,9.55,28.31,25.06,29,46.03Z"/>
      <path class="cls-4" d="M384.91,701.59c-.06,2.47,1.92,3.22,3.58,4.29,20.44,13.12,29.92,46.21,15.76,69.01-1.14,1.84-2.6,3.48-3.76,5.31-1.76,2.79-.95,4.47,2.36,4.88-1.23.58-2.42,1.28-3.69,1.72-2.09.73-5.06,1.54-6.14-.14-1.48-2.3,1.69-3.57,3.08-4.98,19.22-19.58,13.55-58.66-7.42-72.35-1.82-1.19-3.59-2.47-5.37-3.73-1.08-.76-3.04-1.13-2.54-2.81.61-2.03,2.69-.93,4.13-1.19Z"/>
      <path class="cls-5" d="M858.5,497.84c1.98,2.3,3.19,3.67,6.95,1.21,6.49-4.26,14.8-3.46,22.26-5.2,4.8-1.11,7.69-2.77,6.69-8.16,1.74,4.56,4.54,7.8,9.58,9.13,3.5.93,5.29,4.49,8.04,6.65,1.51.01,2.27.84,2.48,2.27,8.18,9.76,10.93,21.68,13.16,33.73,1.48,7.97,1.82,15.93.3,24.08-1.73,9.3-6.48,15.51-15.54,18.04-3.71,1.04-5.14,2.83-5.08,6.67.05,3.04,1,6.35-1.13,9.18-.05-.79-.15-1.57-.14-2.36.15-10.65-1.5-11.78-11.76-7.7-5.58,2.22-10.95,3.43-15.69-1.7,16.14,3.22,22.84-2.21,23.96-20.06,1.29-20.55-3.97-39.45-15.53-56.51-3.88-5.72-9.02-9.29-16.45-8.28-1.81.25-3.37.56-4.87,1.76-4.85,3.89-5.79,3.48-7.26-2.76Z"/>
      <path class="cls-1" d="M914.5,503.74c-.83-.76-1.65-1.51-2.48-2.27,0,0,.38-.41.38-.41,3.32-1.27,5.59-4.49,9.32-4.98.05.29.09.58.13.88-1.39,3.42-3.63,5.9-7.35,6.78Z"/>
      <path class="cls-16" d="M879.62,477.6c-8.95-.17-17.89-.35-26.83-.52-7.41-27.63-9.15-56.76-22.11-82.91-.93-1.87-.92-3.86-.84-5.83.84-22.29-1.59-44.3-5.63-66.18-.36-1.92-.43-4.01-.09-5.93,2.15-12.2,1.27-24.3.19-36.59-1.66-18.94-11.95-32.2-25.73-43.69-1.49-1.24-4.92-2.05-3.01-4.42,1.65-2.04,4.74-1.32,6.86.81,7.42,7.47,14.78,14.99,22.3,22.36,9.89,9.7,19.83,19.3,31.95,26.4,11.25,6.59,20.16,2.05,20.84-11.05.3-5.67-2.15-11.24-.59-17.7,11.44,8.99,19.16,19.93,22.82,33.45,4.85,17.93,4.03,36.07,1.28,54.26-1.3,8.61-2.24,17.29-2.91,25.97-1.8,23.49-3.32,47-5.06,70.5-.99,13.42-2.18,26.82-3.28,40.22-3.38.28-6.76.55-10.14.83Z"/>
      <path class="cls-4" d="M418.32,776.56c5.94-11.32,9.53-23.14,8.43-36.16-.4-4.7-3.75-8.8-2.42-13.75,7.8,14.03,6.57,28.25.64,42.43-1.29,3.09-2.02,7.14-6.64,7.48Z"/>
      <path class="cls-16" d="M466.86,484.35c-11.46,10.2-15.69,25.24-25.69,36.28-9.4,10.37-20.91,16.8-34.42,19.87-4.82,1.1-9.74,1.79-14.5,3.06-3.7.99-4.5-.54-4.76-3.78-.67-8.28,1.33-14.82,7.6-21.26,16.86-17.34,27.18-37.89,25.64-62.97-.97-15.91-5.45-30.18-18.07-41.13-3.77-3.27-8.94-3.83-13.16-7.88,7.48-1.37,14.01-.25,20.6.42,10.06,1.02,19.99,2.74,29.91,4.6,3.37.63,4.76,2.22,4.63,5.62-.67,17.54-3.06,34.55-11.92,50.24-4.62,8.18-6.88,17.26-6.06,26.86.6,7.03,4.3,9.63,10.87,7.02,7.03-2.8,12.71-7.86,18.78-12.25,3.08-2.23,5.77-5.36,10.54-4.69Z"/>
      <path class="cls-16" d="M805.96,468.47c-1.45.27-2.9.55-4.34.82-4.45-.73-8.73-1.99-12.77-4.05-1.12-1.6-2.23-3.2-3.34-4.8,1.19-8.42,3.68-16.65,3.95-25.22.03-.92-.18-2.22,1.08-2.46,1.55-.3,2.02.98,2.21,2.16,1.93,12.16,7.7,22.79,13.21,33.54Z"/>
      <path class="cls-17" d="M779.71,544.77c1.76-6.17.95-13.18,4.12-19.71,4.18-8.62,16.22-11.47,23.03-3.75,11.14,12.62,16.07,27.2,18.44,43.36,1.32,9,.53,17.68-1.48,26.3-1.23,5.26-3.65,10.12-9.69,11.64-5.9,1.49-10.57-.25-14.77-4.74-11.26-12.06-16.65-26.52-18.36-42.63-.35-3.33-.81-6.64-1.28-10.47Z"/>
    </g>
  </g>
</svg>