<?xml version="1.0" encoding="UTF-8"?>
<svg id="Layer_1" xmlns="http://www.w3.org/2000/svg" viewBox="0 0 1020.52 714.47">
  <defs>
    <style>
      .cls-1 {
        fill: #dcae89;
      }

      .cls-2 {
        fill: #bebdbd;
      }

      .cls-3 {
        fill: #c5bfb3;
      }

      .cls-4 {
        fill: #bcbebd;
      }

      .cls-5 {
        fill: #d9ad88;
      }

      .cls-6 {
        fill: #ecbc9a;
      }

      .cls-7 {
        fill: #c2bfbc;
      }

      .cls-8 {
        fill: #525755;
      }

      .cls-9 {
        fill: #fdcca7;
      }

      .cls-10 {
        fill: #deac87;
      }

      .cls-11 {
        fill: #5a5f5d;
      }

      .cls-12 {
        fill: #4f5552;
      }

      .cls-13 {
        fill: #bfbfbe;
      }

      .cls-14 {
        fill: #f8caa5;
      }

      .cls-15 {
        fill: #282828;
      }

      .cls-16 {
        fill: #dbaa84;
      }

      .cls-17 {
        fill: #d7a882;
      }

      .cls-18 {
        fill: #8f8f8f;
      }

      .cls-19 {
        fill: #bbbaba;
      }

      .cls-20 {
        fill: #e9eae9;
      }

      .cls-21 {
        fill: #8f8f8e;
      }

      .cls-22 {
        fill: #5c605e;
      }

      .cls-23 {
        fill: #292928;
      }

      .cls-24 {
        fill: #fccca7;
      }

      .cls-25 {
        fill: #e9eae6;
      }

      .cls-26 {
        fill: #5c5e5a;
      }

      .cls-27 {
        fill: #eebc9b;
      }

      .cls-28 {
        fill: #e9e9e9;
      }

      .cls-29 {
        fill: #ecbc9b;
      }

      .cls-30 {
        fill: #5a5e5c;
      }

      .cls-31 {
        fill: #e8e9e9;
      }

      .cls-32 {
        fill: #dba984;
      }

      .cls-33 {
        fill: #7d8380;
      }

      .cls-34 {
        fill: #ebbc97;
      }

      .cls-35 {
        fill: #d84140;
      }

      .cls-36 {
        fill: #7b8380;
      }

      .cls-37 {
        fill: #8f908f;
      }

      .cls-38 {
        fill: #90908f;
      }

      .cls-39 {
        fill: #c6a185;
      }

      .cls-40 {
        fill: #c1c1be;
      }

      .cls-41 {
        fill: #1d1d1d;
      }

      .cls-42 {
        fill: #ecbd9a;
      }

      .cls-43 {
        fill: #5c5f5d;
      }
    </style>
  </defs>
  <path class="cls-41" d="M588.44,408.53c-2.34.18-4.69.32-7.03.55-19.48,1.88-19.25,1.82-24.85-16.94-11.02-36.89-23.23-73.46-33.25-110.61-10.24-37.99,17.36-76.47,56.16-80.71,5.19,1.55,5.14,6.49,6.45,10.36,9.62,28.38,28.4,42.97,58.67,43.25,17.28.16,34.3,3.4,51.58,2.86,4.01-.12,8.98-.61,10.6,5.04-1.53,15.64,5.77,29.01,12.12,42.19,9.41,19.53,15.89,39.8,19.91,60.95.79,4.13.25,8.5.32,12.76-4.03,4.09-9.28,3.49-14.27,3.56-13.23.17-26.46.01-39.69.09-5.53.03-11.02.2-14.43,5.65-2.28,2.84-5.23,4.65-8.8,5.27-19.2,3.31-37.7,9.37-56.34,14.79-5.81,1.69-11.47.28-17.17.94Z"/>
  <path class="cls-24" d="M368.14,61.38c2.85,11.06,5.22,22.09-1.12,32.87-.55.93-.93,2.52-.51,3.39,9.48,19.92-10.23,32.27-13.04,49.14-1.27,7.6-9.52,5.56-15.46,2.72-9.24-3.18-16.94-8.31-21.65-17.2-4.66-6.01-7.59-12.7-7.94-20.4.25,7.87,3.19,14.67,8.16,20.68,3.13,6.89,9.83,10.68,14.28,16.43-4.35.11-8.29.59-11.86,3.92-5.12,4.78-8.16,8.09-1.8,15.06,17.52,19.2,13.05,41.75,6.01,63.2-4.89,14.9-4.45,29.99-6.24,45.01-3.65,30.63,8.08,60.59,4.3,91.2-3.18,25.79-1.91,51.66-2.23,77.51-.06,4.6-1.01,9.46,1.73,13.76,1.49,1.84.86,3.75-.13,5.4-8.19,13.54-11.73,27.94-8.52,43.72.47,2.31-.19,4.66-1.41,6.77-11.18,5.71-20.12,2.91-24.87-7.85-2.78-6.29-3.13-12.82-2.16-19.6,1.66-11.64,4.16-23.2,3.7-35.05-4.72-23.5-10.22-46.81-16.92-69.83-5.77-19.84-7.81-39.92-5.87-60.59,1.1-11.7-.78-23.49-2.03-35.2-1.25-11.71-2.79-23.44,1.29-34.96,5.03-7.01,12.42-10.85,19.84-14.65,6.21-1.39,12.33-.77,18.59.68-6.19-1.5-13.15-2.14-13.82-10.61,3.8-15.96,11.25-31.27,8.21-47.72-2.31,10.44-3.09,22.23-11.73,31.14-10.51,10.84-21.73,10.22-30.84-1.83-7.16-9.46-10.4-20.44-10.9-31.93-.53-12.39-3.5-23.95-7.42-35.6-2.35-7-7.33-14.51-1.3-22.26,11.32-4.38,24.36-.06,35.17-6.99,3.4-2.21,7.62-1.76,11.16-3.35,8.82-3.95,17.02-8.45,15.99-20.32-.23-2.7.51-5.47,1.6-8,2.09-4.87,5.22-9.15,10.79-9.72,5.99-.61,9.09,3.52,11.01,8.69.5,1.33.53,3.06,3.21,3.71,6.79-9.36,2.25-27.75,20.02-28.9,8.78-.57,17.94.36,24.73,7.58Z"/>
  <path class="cls-9" d="M134.02,153.63c14.27-18.58,32.52-29.68,56.5-29.98,3.06,2.01,6.71,2,10.07,2.97,24.94,7.23,35.95,20.85,36.59,46.72.66,26.89-2.32,53.23-15.08,77.58-2.29,4.37-3.18,8.79-1.8,13.59,1.14,20.65,1.33,41.18-1.56,61.83-2.82,20.1.86,40.4.7,60.62-2.07,19.5-3.69,39-3.25,58.67.22,9.95,1.32,19.55,5.15,28.75,1.5,6.96-2.8,12.67-4.11,19.04-2.46,11.95-.03,23.91-.28,35.86-4.22,7.86-10.55,6.81-16.98,3.65-11.49-5.66-15.19-16.05-16.15-27.89-.9-11.24.91-22.57-1.14-33.72-2.81-2.65-5.02-.06-7.36.9-2.65,1.09-5.23,2.2-6.66-1.64-1.07-15.26,5.05-30.36.95-45.68-4.48-22.11-4.8-44.59-6.17-66.97-.92-26.77-11.87-51.31-17.32-77.07-4.84-21.54-6.04-43.37-5.08-65.33,1.57-9.9,2.4-19.97,4.7-28.97-4.81,3.31-1.67,14.57-12.15,14.28-9.43-15.83-9.58-31.57.43-47.21Z"/>
  <path class="cls-41" d="M149.06,281.84c6.49,24.92,17.2,48.89,16.97,75.32,2.02,10.7,2.4,20.46-11.37,23.79-3.6.87-4.91,4.86-7.12,7.57-2.3,2.28-5.15,3.57-8.25,4.18-19.94,3.91-39.25,10.39-59.15,14.49-3.78.78-7.6,2.21-11.36-.1-6.01-1.38-12,.92-17,2.77-9.73,3.61-12.07-1.44-15.21-8.47-11.42-25.55-12.83-53.92-22.98-79.8C6.29,303-.36,284.27.01,263.79c.56-30.87,19.71-56.04,49.87-65,3.39,1.92,4.26,5.48,5.6,8.7,16.95,40.77,45.53,66.98,90.68,72.49,1.18.14,2.13.91,2.89,1.85Z"/>
  <path class="cls-35" d="M706.78,262.33c-19.45-1.46-38.89-4.05-58.34-4.13-34.56-.15-62.53-18.99-67.42-54.25-.15-1.09-1.02-2.08-1.54-3.12,13.94-7.64,27.73-15.56,41.83-22.86,18.83-9.75,33.19-24.25,45.47-41.14,2.47-6.57,6.24-11.53,14.14-11.39,4.42.11,8.49,1.31,12.09,3.95,2.45,2.13,3.71,4.87,4.19,8.02,1.39,29.86,16.31,38.28,43.54,24.53,1.75-.88,3.53-1.72,5.36-2.42,7.32-1.73,11.45-7.42,15.85-12.79.86-.73,1.84-1.24,2.9-1.61,6.87-.41,12.27.57,9.11,9.64-1.12,3.2.56,6.13.92,9.19.71,4.69.34,9.41.58,14.12.62,12.63,8.21,16.5,18.83,9.3,10.6-7.18,18.76-16.6,24.3-28.26,2.35-4.95,4.76-10.08,10.49-12.14,1.72-.62,3.77-1.54,4.81,1.16-7.1,34.07-26.56,58.61-57.68,73.76-15.5,7.54-31.1,14.67-43.62,27.01-7.17,7.06-17.03,9.27-25.8,13.43Z"/>
  <path class="cls-27" d="M667.79,387.4c-.89-7.12,1.07-10.42,9.41-10.07,20.62.87,41.29.67,61.94.91,2.42,4.88,4.55,9.91,7.3,14.6,11.57,19.77,12.35,40.47,10.45,63.12-3.6,42.93-10.72,85.08-19.91,127.02-.58,2.65-1.55,5.21-2.34,7.81-11.37,5.92-23.03,4.36-34.75,1.41-6.18-7.55-5.98-17.07-5.96-25.67.05-24.27-3.62-48.33-3.02-72.63.38-15.26,0-30.58,2.96-45.58,2.11-10.73-.33-19.14-8.56-26.21-3.26-2.8-5.4-6.67-8.05-10.04-6.42-6.96-9.44-15.24-9.45-24.67Z"/>
  <path class="cls-24" d="M667.79,387.4c5.38,6.24,3.98,15.69,10.17,21.54-.19,16.86-1.47,33.64-7.13,49.63-5.02,14.18-7.45,28.74-8.44,43.61-1.73,25.88-10.39,50.52-13.32,76.21-1.04,9.14,1.73,18.96-3.96,27.45-10.93,3.16-21.79,8.45-33.1,1.19-4.85-32.07-13.1-63.59-14.55-96.21-.76-16.98,2.93-32.92,10.24-47.81,4.71-9.59,4.81-17.61-.95-26.45-6.1-9.35-8.54-21.07-18.33-28.02,26.46-7.05,52.91-14.1,79.36-21.14Z"/>
  <path class="cls-9" d="M68.78,407.1c25.95-6.54,51.9-13.08,77.86-19.61,5.56,6.59,6.83,14.79,8.64,22.82-.26,17.77-3.49,34.95-9.57,51.66-8.26,22.71-5.74,47.25-11.71,70.4-5.58,21.63-8.93,43.63-10.18,65.95-.15,2.75-.88,5.41-2.82,7.57-10.89,4.88-21.84,8.05-33.13,1.14-4.12-25.79-7.7-51.68-12.51-77.33-4.36-23.22-1.82-45.24,8.83-66.13,5.16-10.12,4.69-18.61-1.51-28.38-5.54-8.73-11.62-17.58-13.92-28.08Z"/>
  <path class="cls-24" d="M833.88,148.13c-6.56.04-9.19,4.33-11.47,9.74-5.75,13.62-14.72,24.86-27.33,32.71-13.59,8.45-22.31,3.51-22.53-12.38-.06-4.68.11-9.36.18-14.04,1.75-16.4,3.95-32.73,7.85-48.8,3-12.32,4.02-24.55-2.28-36.37-1.23-2.31-2.58-4.94-.57-7.64,6.36-4.87,14.87.4,21.23-4.49,6.62,2.43,4.17,8.39,4.86,12.98,1.53,10.11,5.17,12.18,14.22,7.34,6.87-3.68,12.54-8.24,11.18-17.42-.47-3.14.7-6.24,2.13-9.08,2.31-4.59,4.54-9.6,10.65-9.76,5.45-.14,8.31,3.75,10.56,8.14.71,1.38,1.03,3,3.18,4.38,4.47-3.02,4.61-8.21,5.66-12.92,2.94-13.28,9.47-18.04,22.7-15.58,6.31,1.17,13.5.61,18.11,6.66,2.56,14.06-.2,27.83-2.31,41.64,7.38,7.64,6.85,15.16-.25,22.67-2.42,2.56-4.4,5.51-6.84,8.05-1.72,3.42-4.05,6.67-5.03,10.28-2.63,9.73-8.27,10.69-16.2,6.42-8.61-3.53-16.94-7.41-21.41-17.71,1.74,6.38,9.32,8.63,7.34,15.55-5.83,9-15.17,13.79-23.63,19.62Z"/>
  <path class="cls-24" d="M748.32,161.03c-6.44,2.77-11.61,7.98-18.71,9.5-23.49,5.01-37.62-8.51-34.34-32.91,12.47-4.27,11.06,7.15,13.99,11.85,3.37-12.6-9.34-13.27-16.19-18.87l-12.81-2.88c-3.53-.94-7.28-2.37-7.17-6.5.44-16.62-4.98-33.02-1.76-49.71,10.39,1.35,19.72-4.53,29.77-4.63,19.7-.2,39.4,3.28,59.11-.21,5.16-.91,8.67,2.84,12.82,4.76,14.4,21.34,9.15,59-10.49,75.19l.05.03c-3.31,6.24-8.24,10.86-14.27,14.39Z"/>
  <path class="cls-35" d="M149.06,281.84c-29.25.26-52.72-12.82-71.92-33.35-13.08-13.98-22.72-30.64-27.24-49.7,28.96-13.36,57.73-27.06,84.14-45.16-3.67,15.99-7.2,31.97,1.96,47.43,4.34,3.2,6.08,8.08,8.2,12.71-.15,22.82,1.33,45.52,4.87,68.07Z"/>
  <path class="cls-35" d="M713.24,681.18c-2.93.69-5.87,1.38-9.48,2.24,2.01,2.74,3.7,4.77,5.08,6.98,5.7,9.15,3.79,16-6.31,19.14-24.1,7.52-48.24,7.02-70.38-5.51-10.97-6.21-21.79-11.94-33.84-15.34-5.65-1.6-9.2-4.63-7.72-10.9,3.94-16.67,6.92-33.76,19-47.17,3.1-.22,3.73,2.16,4.59,4.32,4.05,10.11,6.5,10.82,13.37,1.86,7.64-9.97,16.69-13.45,28.61-9.87,8.97,7.06,9.31,19.7,17.63,27.17,12.08,10.59,22.89,23.01,39.46,27.08Z"/>
  <path class="cls-35" d="M184.53,690.26c6.66,10.67,5.51,15.88-5.7,19.27-26.74,8.08-52.7,6.71-76.45-9.39-8.35-5.66-17.67-8.28-26.95-11.19-7.25-2.28-10.26-5.85-7.95-13.84,4.42-15.37,7.04-31.38,17.99-44.05,3.26-.63,3.72,1.93,4.54,4.02,3.98,10.08,6.29,10.69,13.31,1.96,7.63-9.49,16.44-15.16,29.06-12.88,4.54,1.69,6.61,5.51,7.21,9.81,1.14,8.27,5.82,14.16,11.76,19.39,1.09,1.66-1.09,3.22,2,5.9,7.75,6.74,17.51,11.93,22.08,22.12,1.76,3.91,5.45,6.54,9.1,8.88Z"/>
  <path class="cls-35" d="M184.53,690.26c-12.91-6.97-20.76-19.37-31.19-29-2.28-2.11-6.57-2.97-2.43-7.07-3.47-14.79,7.31-34.31,21.14-38.31,2.36,1.52,2.3,3.93,2.16,6.29-.29,4.73.55,8.8,6.04,9.84,4.85.92,8.35-1.39,10.97-5.27,3.09-4.57,4.72-10.02,8.13-14.33,2.64-3.34,4.98-8.63,10.92-4.53,6.48,14.74,13.99,28.27,27.84,38.14,10.79,7.68,22.93,11.79,34.4,17.63,4.98,2.54,12.08,3.38,11.33,11.46-.76,8.18-6.39,12.12-13.5,14.6-14.16,4.94-28.1,1.62-41.7-1.94-16.26-4.26-32.18-9.75-49.26-5.12,1.4,2.07,3.27,4.84,5.15,7.62Z"/>
  <path class="cls-35" d="M713.24,681.18c-16.99,5.06-22.78-11.63-33.82-17.97-2.65-1.53-7.24-3.14-8.22-7.48,1.73-9.61,3.3-19.33,8.79-27.66,3.56-5.4,6.62-11.84,14.74-11.64,1.8,1.71,2.23,4.01,2.61,6.3.73,4.42,2.06,8.48,7.23,9.29,5.92.93,9.35-2.56,11.99-7.25,2.1-3.72,3.07-7.99,5.36-11.57,3.03-4.74,6.43-9.32,12.82-4.16,8.9,27.3,29.6,42.05,55.04,51.79,1.82.7,3.59,1.6,5.29,2.56,5.18,2.92,13.36,3.42,12.45,11.85-.9,8.33-7,12.65-14.81,14.78-18.83,5.14-36.52-.85-54.14-5.95-8.43-2.44-16.61-4.3-25.33-2.88Z"/>
  <path class="cls-23" d="M902.21,41.6c-6.49-1.34-12.96-2.74-19.46-4.01-10.97-2.15-17.08,2.15-18.62,13q-1.75,12.34-10.75,20.88c-.82-3.18-1.59-5.88-2.21-8.61-1.08-4.74-2.38-9.73-8.27-9.81-5.57-.07-7.81,4.46-9.32,9.11-1.08,3.34-2.88,6.93-1.21,10.26,3.26,6.48-1.33,9.11-5.17,12.42-6.4,5.52-14.03,11.38-21.96,8.1-6.3-2.6-3.84-11.78-4.66-18.19-.34-2.66-1.07-5.27-1.62-7.89-.31-8.59.05-17.08,1.3-25.66,2.04-13.95,8.81-22.59,20.57-31.45,19.66-14.81,38.35-9.67,58.1-4.61,10.22,2.62,17.61,9.22,23.8,17.8,4.93,6.83,5.43,12.59-.52,18.66Z"/>
  <path class="cls-15" d="M368.14,61.38c-3.73-1.1-7.44-2.26-11.19-3.28-18.55-5.04-23.52-1.89-26.49,17.27-1.05,6.74-4.76,11.17-10.6,15.58-.43-2.57-.56-4.05-.92-5.48-1.5-5.91-1.66-14.3-10.12-13.11-7.68,1.08-9.29,9.11-9.67,15.84-.94,16.86-12.72,26.48-29.51,23.5-2.05-15.11-3.92-30.24-2.8-45.53,1.15-15.66,6.6-26.51,21.04-37.06,22.88-16.7,42.95-9.03,64.49-2.25,8.09,2.55,13.36,9.3,18.12,16.12,4.78,6.83,4.32,13.02-2.36,18.4Z"/>
  <path class="cls-35" d="M218.12,262.78c-5.29-5.05-1.07-9.26,1.23-13.61,13.76-25.95,15.69-53.99,14.07-82.5-1.09-19.25-12.38-30.43-30.24-36.29-4.38-1.44-10.78-.22-12.66-6.74,14.67-1.46,28.93-6.51,43.94-4.96.62,4.64.26,9.7,2.04,13.84,7.37,17.18,9.64,35.31,11.31,53.63.55,5.98,2.7,11.43,5.83,16.44,3.97,6.35,8.1,13.18,16.9,12.68,9.44-.54,14.17-7.62,17.75-15.21,3.2-6.79,4.38-14.18,4.48-21.71.05-3.94-.25-9.07,5.29-8.33,4.64.62,2.34,5.72,2.6,8.78,1.44,17.28-4.06,33.2-10.13,48.97-1.52,4.21-1.7,9.24-6.91,11.16-5.7,4.16-11.4,8.33-17.1,12.49-14.57,10.42-31.36,11.42-48.39,11.35Z"/>
  <path class="cls-36" d="M333.07,451.37c11.62-3.81,23.62.6,31.18,11.47,12.1,17.39,12.34,47.19.32,64.43-5.32,7.63-12.41,12.76-22.02,13.66-16.61-6.23-22.8-19.79-23.91-35.94-1.31-18.98-1.44-38.01,16.12-51.34,1-.76-1.34-1.31-1.69-2.28Z"/>
  <path class="cls-18" d="M272.07,536.15c-6.98,7.01-13.01,15.39-23.98,16.66-17.86-4.78-24.74-18.17-26.24-34.91-1.15-12.88-1.22-25.86,5.23-37.89,4.61-8.61,10.49-15.59,20.3-18.33,4.62-1.17,8.86-.1,12.87,2.26,3.71,2.49,6.73,5.7,9.41,9.25,11.79,17.09,12.33,35.61,6.98,54.89-.89,3.05-2.32,5.8-4.57,8.07Z"/>
  <path class="cls-14" d="M641.91,106.71c-4.69-2.01-9.36-.54-13.72.78-12.58,3.81-25.37,4.77-38.38,3.94-2.2-.09-3.06-1.63-3.75-3.39-1.35-7.74-3.4-15.32-5.09-23-.33-3.84-.7-7.69,2.32-10.8,7.31-22.77,31.09-27.24,51.63-14.55,7,14.98,9.25,30.67,6.99,47.02Z"/>
  <path class="cls-34" d="M892.82,113.96c-.11-3.18-.2-7.22,2.37-8.69,10.11-5.79,7.05-13.88,4.72-22.03,13.69.49,27.29-2.25,41.11.12,12.93,2.22,25.2,5.94,37.08,11.28,2.85,6.44,7.28,11.51,13.31,15.19,2.6,3.07,5.78,6,2.91,10.57-9.39,1.53-18.61,4.63-28.33,2.85,1.47-8.89-4.7-10.05-11.11-10.96-3.48-.5-6.89,1.69-10.4.29-5.11-3.62-10.61-3-16.19-1.42-3.6.62-6.85,2.62-10.59,2.63-8.33-6.06-16.58,1.42-24.88.16Z"/>
  <path class="cls-18" d="M671.33,71.52c3.02,14.53,4.97,29.17,4.35,44.04-.2,4.79-.37,9.4,4.59,12.17-6.89-.49-8.36,7.04-13.51,9.1-.51-.37-.81-.86-.9-1.48-3.69-2.49-6.17-5.85-7.6-10.08-8.8-26.03-15.4-52.44-14.25-80.22.21-5.02-.2-10.38,5.35-13.3,8.26-.87,10.61,5.87,12.78,11.22,3.75,9.24,6.2,19.01,9.19,28.55Z"/>
  <path class="cls-29" d="M224.11,543.23c-6.7,6.36-4.22,15.43-6.6,23.08-2.41,7.76-3.3,15.99-4.85,24.01-12.1,6.85-24.6,4.94-37.17,1.72-6.74-12.54-3.7-26.23-4.6-39.45,2.28-4.64,6.15-3.51,9.72-2.34,3.62,1.18,7.19,2.17,11.01,1.79,7.42-.65,12.78-4.81,17.63-10.07,2.76-2.99,4.83-7.32,10.09-6.67,3.28,1.63,6.3,3.41,4.78,7.93Z"/>
  <path class="cls-33" d="M274.18,529.27c4.37-19.82,3.4-38.98-7.05-56.97-.05-12.71,8.4-18.2,18.75-22.09,1.83-.27,3.47.02,4.69,1.57,1.77,12.95-2.29,25.31-3.98,37.9-2.57,19.12,7.6,29.16,23.69,23.1,3.14.69,3.18,2.5,1.75,4.84-7.3,8.74-12.52,20.08-26.14,20.93-4.31-2.58-10.44-2.86-11.71-9.28Z"/>
  <path class="cls-37" d="M583.29,74.24c.04,3.81.08,7.62.12,11.43-.71,1.84-2.1,3.09-3.47,4.46-7.68,7.67-6.64,12.6,3.44,16.45,1.81.69,3.58,1.29,4.89,2.8.52.68,1.04,1.37,1.55,2.05.56,9.76,2.12,19.53-.86,29.21-1.28,4.16-1.92,8.68-7.7,8.83-5.14-2.75-7.93-7.44-9.88-12.59-10.22-27-14.07-54.96-12.2-83.73.18-2.79,1.11-5.32,2.99-7.45,9.43-1.21,11.51,6.49,14.59,12.49,2.63,5.12,4.39,10.69,6.53,16.05Z"/>
  <path class="cls-25" d="M734.74,609.02c-7.54-3.11-9.73,2.48-11.63,7.59-2.06,5.52-3.65,11.25-7.95,15.5-4.42,4.37-10.08,4.58-15.38,2.57-8.73-3.3-3.78-11.66-5.74-17.53-.63-9.36-2.05-18.87,5.32-26.63,11.76.08,23.52.16,35.28.24.83,6.08-3.42,12.18.1,18.24Z"/>
  <path class="cls-31" d="M175.25,590.48c12.47-.05,24.94-.1,37.41-.16-2.77,5.58-2.03,11.64-2.39,17.55-7.48-.93-9.05,4.94-11.05,9.94-2.04,5.13-3.7,10.46-7.83,14.33-4.88,4.57-10.66,4.88-16.32,1.84-7.9-4.25-3.92-10.75-2.63-16.67-4.66-9.53-2.08-18.3,2.81-26.83Z"/>
  <path class="cls-30" d="M649.36,31.74c-4.78,17.49-2.04,34.97,1.06,52.2,3.17,17.64,7.89,35,15.45,51.41-10.91,1.21-14.78-6.83-18.59-14.52-2.22-4.49-3.6-9.39-5.36-14.12-3.46-15.51-5.56-31.22-6.99-47.03.12-4.6.11-9.2.37-13.79.51-8.8,4.37-14.4,14.06-14.15Z"/>
  <path class="cls-11" d="M562.17,45.7c-.87,27.53.63,54.72,9.25,81.25,2.58,7.93,6.41,15.08,9.84,22.52-9.84,2.25-15.12-4.24-18.3-11.38-11.56-25.94-14.17-53.53-12.72-81.55.34-6.6,5.38-10.04,11.92-10.84Z"/>
  <path class="cls-28" d="M656.76,628.28c-12.46-1.18-23.19.58-29.23,13.82-2.23,4.89-8.1,6.64-13.34,4.92-5.32-1.75-1.55-6.78-2.33-10.25-.49-2.19.38-4.78-2.28-6.14,4.18-7.52,1.42-15.74,2.43-23.59,11.11,1.75,21.81-2.5,32.81-2.22,1.62,9.02,9.74,14.74,11.93,23.47Z"/>
  <path class="cls-20" d="M132.59,625.96c-11.58,0-21.41,2.82-27.19,14.34-2.84,5.67-8.61,8.64-14.83,6.73-5.58-1.71-1.93-7.36-2.78-11.16-.42-1.86-.04-3.92-2.32-4.82,3.97-7.69,1.5-16.03,2.42-24.03,11.07,1.14,21.95-.57,32.84-2.18,3.33,7.39,5.54,15.41,11.87,21.12Z"/>
  <path class="cls-12" d="M312.02,517.62c.26-1.92-.03-3.64-1.75-4.84-5.63-19.8-2-37.81,10.48-54.11,4.02-2.57,7.13-6.67,12.31-7.3,2.31.17,4.62.35,8.04.61-24.37,17.57-22.08,41.36-17.02,65.77,2.24,10.8,12.11,15.62,18.47,23.18-16.26.2-24.4-10.24-30.53-23.32Z"/>
  <path class="cls-18" d="M982.56,57.33c4.61-4.88,8.95-2.38,11.98,1.4,15.79,19.77,24.45,42.42,25.96,67.71.22,3.75-1.01,7-5.22,8.11-13.02-10.19-17.48-25.53-23.56-39.79-5.08-11.91-7.45-24.63-9.16-37.44Z"/>
  <path class="cls-26" d="M224.11,543.23c-1.52-2.14-3.04-4.28-4.57-6.43-2.13-1.99-3.88-4.17-3.81-7.31-5.79-18.7-4.5-36.78,4.75-54.17,1.93-8.13,8.38-11.39,15.28-14.19,4.42-.73,8.84-1.45,12.45,2.26-30.72,15.9-33.45,66.41-4.65,85.92,1.57,1.07,3.02,2.33,4.52,3.5-9.75,1.19-17.3-3.08-23.97-9.58Z"/>
  <path class="cls-22" d="M982.56,57.33c1.35,1.33,3.74,2.55,3.88,4,2.7,27.16,14.9,50.53,28.84,73.23-11.6,2.12-14.89-8.07-20.97-14.15-.58-3.48-2.02-6.52-4.5-9.05-6.36-5.66-6.76-13.37-7.23-21.05-1.6-6.64-3.57-13.23-4.68-19.96-.81-4.9-.74-10.06,4.65-13.02Z"/>
  <path class="cls-35" d="M762.55,146.62c17.09-23.17,18.1-48.57,10.48-75.19,1.57-.02,3.13-.05,4.7-.07,8.12,12.88,10.78,26.38,6.71,41.5-4.56,16.92-5.93,34.62-11.71,51.3-1.23-2.74-3.88-5.8-2.36-8.5,6.18-10.96-3.12-7.89-7.82-9.05Z"/>
  <path class="cls-38" d="M928.23,109.41c5.88-3.31,11.63-5.56,16.27,1.88-7.33,9.56,1.15,11.49,7.07,14.66,1.37,8.09,5.31,15.66,4.96,24.11-.41,9.98-4.35,12.42-14.27,8.86,2.3-4.25-.35-7.39-2.25-10.82-4.37-7.89-8.73-15.81-11.79-24.31-1.68-4.67-4.19-9.6,0-14.38Z"/>
  <path class="cls-22" d="M928.23,109.41c1.16,16.28,9.43,29.68,18.13,42.65,4.58,6.83,1.27,6.97-4.09,6.85-15.59-11.01-18.25-29.05-24.57-45.11,1.49-6.32,6.44-4.31,10.53-4.39Z"/>
  <path class="cls-40" d="M951.57,125.95c-5.78.65-11.62,1.98-13.42-6.38-1.24-5.78.77-8.17,6.35-8.27,8.12-5.26,16.08.41,24.13.45,3.92.02,4.58,2.61,1.92,5.31-1.86,1.89-4.62,2.95-4.57,6.2-5.59-3.31-10.34-2.12-14.41,2.69Z"/>
  <path class="cls-1" d="M857.51,128.51c-2.9-6.98-10.12-11.45-10.87-20.06,7.49,8.48,15.14,16.61,24.94,22.22-4.69-.72-9.38-1.44-14.07-2.16Z"/>
  <path class="cls-3" d="M982.59,90.3c2.41,7.02,4.82,14.04,7.23,21.06-6.56-3.71-14.18-6.68-11.73-16.72,3.42.54,4.12-1.73,4.5-4.34Z"/>
  <path class="cls-5" d="M330.86,149.01c-7.31-3.11-13.29-7.39-14.13-16.16l.03-.02c7.09,5.56,14.17,11.11,21.26,16.67-2.38-.16-4.77-.33-7.15-.49Z"/>
  <path class="cls-22" d="M274.18,529.27c3.77,3.26,9.07,4.59,11.71,9.28-4.93,1.06-9.42-.37-13.81-2.4-.11-2.54-.46-5.16,2.11-6.88Z"/>
  <path class="cls-39" d="M283.61,238.94c1.97-3.93,3.37-8.21,6.92-11.16,1.82,7.5,10.74,4.96,15.24,11.16h-22.16Z"/>
  <path class="cls-10" d="M316.73,132.86c-9.09-5.29-10.36-13.65-8.88-25.13,3.39,9.56,6.15,17.33,8.91,25.11,0,0-.03.02-.03.02Z"/>
  <path class="cls-21" d="M215.73,529.49c1.27,2.44,2.54,4.87,3.81,7.31-9.27,5.11-13.47,17.43-25.84,18.12-20.16-4.02-25.11-20.24-27.27-36.8-2.58-19.77,1.81-38.25,18.07-52.03,5.61,12.25,1.83,25.18,2.57,37.77.66,11.14,3.07,20.61,13.82,26.38,5.38,2.89,10.09,3.66,14.83-.75Z"/>
  <path class="cls-6" d="M217.87,387.53c14.79,17.87,18.53,38.66,16.38,61.1-.48,5-.19,10.08-.26,15.13-4.5,3.86-9,7.71-13.49,11.57-7.37-3.12-6.83-10.73-7.15-16.16-1.36-22.99-.94-46.04,2.45-68.91.15-.99,1.36-1.82,2.08-2.72Z"/>
  <path class="cls-43" d="M184.5,466.09c-5.64,10.95-12.91,20.86-14.75,33.87-3.45,24.42,3.5,41.98,23.95,54.96-7.47,1.94-13.67-1.93-20.17-4.4-21.81-25.57-22.83-51.86-3.06-78.51,4.56-2.26,7.62-8.07,14.03-5.92Z"/>
  <path class="cls-42" d="M172.6,426.08c-6.27-5.78-12.53-11.56-18.8-17.34-5.17-6.15-6.09-13.72-7.16-21.25.97-3.46-2.52-9.31,4.79-9.39,14.77-.15,15.5-9.95,14.61-20.94.45.63,1.31,1.26,1.29,1.88-.57,22.53,3.03,44.73,5.27,67.04Z"/>
  <path class="cls-16" d="M144.18,213.77c-4.78-2.92-7.06-7.45-8.2-12.71,2.78-7.58,5.71-15.08,12.65-24.12.26,14.33-2.98,25.51-4.45,36.83Z"/>
  <path class="cls-17" d="M693.08,130.61q17.85,4.98,19.78,25.87c-9.21-3.26-4.63-19.3-17.58-18.86-.73-2.34-1.46-4.68-2.2-7.02Z"/>
  <path class="cls-35" d="M748.32,161.03c4.76-4.8,9.52-9.59,14.28-14.39-1.31,8.21-6.27,12.81-14.28,14.39Z"/>
  <path class="cls-32" d="M702.51,116.99c11.29,3.2,18.23,9.59,27.38,9.89-9.88,2.09-19.07,2.04-27.38-9.89Z"/>
  <path class="cls-4" d="M347.18,486.72c5.45.75,6.96,4.87,7.12,9.27.17,4.83-1.2,10.54-6.6,10.87-5.94.36-6.76-5.76-7.06-10.34-.29-4.46,1.36-8.48,6.53-9.8Z"/>
  <path class="cls-13" d="M245.67,507.32c.44-4.28-.5-10.23,5.49-9.9,5.45.3,6.76,5.59,6.57,10.72-.16,4.51-.47,9.42-6.45,8.98-5.89-.43-5.28-5.72-5.61-9.81Z"/>
  <path class="cls-8" d="M259.82,465.45c6.12-9.48,14.19-15.25,26.1-13.7-8.43,4.88-15.45,11.04-18.8,20.55-3.28-1.39-5.69-3.7-7.31-6.85Z"/>
  <path class="cls-7" d="M588.27,109.38c-9.31.49-17.22.08-16.76-13.03.31-8.79,7.63-7.54,11.9-10.68,3.31,7.56,5.13,15.42,4.86,23.71Z"/>
  <path class="cls-2" d="M666.26,86.81c-.93,2.55,1.15,8.37-3.23,6.92-6.64-2.19-3.13-10.4-5.81-15.47-1.1-2.07.89-6.03,2.81-5.28,6.01,2.36,5.84,8.39,6.23,13.82Z"/>
  <path class="cls-19" d="M1007.44,103.31c-1.38-1.09-2.71-1.6-3.02-2.47-1.6-4.52-6.64-8.12-3.88-13.76.19-.38,2.49-.4,2.99.16,4.01,4.42,6.37,9.35,3.91,16.07Z"/>
</svg>