<?xml version="1.0" encoding="UTF-8"?>
<svg xmlns="http://www.w3.org/2000/svg" version="1.1" viewBox="0 0 1080 1080">
  <defs>
    <style>
      .cls-1 {
        fill: #181818;
      }

      .cls-2 {
        fill: #e1ab84;
      }

      .cls-3 {
        fill: #1d74ba;
      }

      .cls-4 {
        fill: #1d73ba;
      }

      .cls-5 {
        fill: #fdc9a1;
      }

      .cls-6 {
        fill: #909192;
      }

      .cls-7 {
        fill: #efb58f;
      }

      .cls-8 {
        fill: #e1a882;
      }

      .cls-9 {
        fill: #e1aa83;
      }

      .cls-10 {
        fill: #eeb58f;
      }

      .cls-11 {
        fill: #929191;
      }

      .cls-12 {
        fill: #e8eeee;
      }

      .cls-13 {
        fill: #929292;
      }

      .cls-14 {
        fill: #282828;
      }

      .cls-15 {
        fill: #939393;
      }

      .cls-16 {
        fill: #fcc9a1;
      }

      .cls-17 {
        fill: #1d73bb;
      }

      .cls-18 {
        fill: #ecb893;
      }

      .cls-19 {
        fill: #a3a3a3;
      }

      .cls-20 {
        fill: #fefefe;
      }

      .cls-21 {
        fill: #fdc9a0;
      }

      .cls-22 {
        fill: #d84140;
      }

      .cls-23 {
        fill: #eeb690;
      }

      .cls-24 {
        fill: #a2a2a2;
      }
    </style>
  </defs>
  <!-- Generator: Adobe Illustrator 28.7.1, SVG Export Plug-In . SVG Version: 1.2.0 Build 142)  -->
  <g>
    <g id="Layer_1">
      <path class="cls-20" d="M764.4,328.1s19.1-4.1,27.3-4.8-13.7,54.6-13.7,54.6h-20.7l-19.1-30.2,26.1-19.6Z"/>
      <path class="cls-13" d="M260.6,193.5c21.3-1.6,42.7-3.3,64-4.9,2.2-1.2,3.7,0,4.4,1.8,4.5,10.9,10.6,21.1,14,32.5.1,2.6,0,5.2-.8,7.7-1.2,3.5-3.3,5.3-7.1,5.1-22.2-1-44.4-.2-66.6-.5-2.8,0-5.7.2-8-1.9,0-13.3,0-26.5,0-39.8Z"/>
      <path class="cls-13" d="M260.6,193.5c21.3-1.6,42.7-3.3,64-4.9,2.2-1.2,3.7,0,4.4,1.8,4.5,10.9,10.6,21.1,14,32.5.1,2.6,0,5.2-.8,7.7-1.2,3.5-3.3,5.3-7.1,5.1-22.2-1-44.4-.2-66.6-.5-2.8,0-5.7.2-8-1.9,0-13.3,0-26.5,0-39.8Z"/>
      <path class="cls-24" d="M260.6,233.2c21.9,0,43.8,0,65.7,0,1.2,0,2.4,0,3.6,0q11.7.1,11.5-11.9c3.3.2,3.1,3.1,2.7,4.8-2,8.9,0,16.3,6.8,22.7,2.4,2.2,2.2,5.9,1.3,9.1-.4,1.6-1.2,3.1-3.4,1.9-12.6-3.6-25.5-5.1-38.5-5-16.6.1-33.2-1.7-49.8.1v-21.7Z"/>
      <path class="cls-24" d="M260.6,233.2c21.9,0,43.8,0,65.7,0,1.2,0,2.4,0,3.6,0q11.7.1,11.5-11.9c3.3.2,3.1,3.1,2.7,4.8-2,8.9,0,16.3,6.8,22.7,2.4,2.2,2.2,5.9,1.3,9.1-.4,1.6-1.2,3.1-3.4,1.9-12.6-3.6-25.5-5.1-38.5-5-16.6.1-33.2-1.7-49.8.1v-21.7Z"/>
      <path class="cls-14" d="M573.2,920c-6.2,4.4-12.5,8.6-18.6,13.2-3,2.3-5.3,2.5-8.6.4-17.2-10.7-34.9-20.9-50.1-34.2-12.9-11.3-26.4-20.8-42-28.1-12.8-6-22.4-16.9-27.4-30.7-2.9-8-2.2-16.6-3.2-24.9-1-11.3-1-11.3,8.9-15.9,13.4-6.2,27.4-11.4,40-19.4,6.2-4,12.4-8,17.6-13.4,1.8-1.8,3.7-3.9,6.8-2.7,13.1,10.9,26.6,21.2,42.2,28.5,4.9,2.3,8.9,6.2,12.8,9.9,22.1,20.8,42.5,43.1,59.1,68.6,2,2.1,2.8,4.4,1.4,7.1-8.9,17.6-21.7,31.6-38.7,41.7Z"/>
      <path class="cls-14" d="M573.2,920c-6.2,4.4-12.5,8.6-18.6,13.2-3,2.3-5.3,2.5-8.6.4-17.2-10.7-34.9-20.9-50.1-34.2-12.9-11.3-26.4-20.8-42-28.1-12.8-6-22.4-16.9-27.4-30.7-2.9-8-2.2-16.6-3.2-24.9-1-11.3-1-11.3,8.9-15.9,13.4-6.2,27.4-11.4,40-19.4,6.2-4,12.4-8,17.6-13.4,1.8-1.8,3.7-3.9,6.8-2.7,13.1,10.9,26.6,21.2,42.2,28.5,4.9,2.3,8.9,6.2,12.8,9.9,22.1,20.8,42.5,43.1,59.1,68.6,2,2.1,2.8,4.4,1.4,7.1-8.9,17.6-21.7,31.6-38.7,41.7Z"/>
      <path class="cls-14" d="M595.1,356c-7.5,5.7-16.6,7.1-25.5,8.1-24.4,2.6-47.8,9.6-71.5,15.3-13.1,3.2-26.6,4.3-40.1,3.2-18.4-1.6-30.6-11.5-36.3-28.7-4-12.1-6.4-24.7-9.5-37.1-1.2-5.3.9-7.7,6.2-9.3,23-7.2,45-16.7,64.6-31.2,1.7-1.3,3.5-2.8,6-2.3,4.3,4.1,9.1,4.6,15,3.5,20.1-3.9,39.7-9.7,59.4-15.2,7.9-2.2,7.9-2.3,6.3-10.7-.2-.8-.2-1.6,0-2.4l-.3-.2.2-.3c2.4-.7,4.2.5,4.6,2.5,1.1,6.6,6.5,10.7,9,16.4,6.3,14.2,10.7,28.9,12.1,44.5.4,4.7-.8,9.1-1.1,13.7-.5,8.8,1.7,17.5,1.4,26.3,0,1.4.2,2.8-.5,4.1Z"/>
      <path class="cls-14" d="M595.1,356c-7.5,5.7-16.6,7.1-25.5,8.1-24.4,2.6-47.8,9.6-71.5,15.3-13.1,3.2-26.6,4.3-40.1,3.2-18.4-1.6-30.6-11.5-36.3-28.7-4-12.1-6.4-24.7-9.5-37.1-1.2-5.3.9-7.7,6.2-9.3,23-7.2,45-16.7,64.6-31.2,1.7-1.3,3.5-2.8,6-2.3,4.3,4.1,9.1,4.6,15,3.5,20.1-3.9,39.7-9.7,59.4-15.2,7.9-2.2,7.9-2.3,6.3-10.7-.2-.8-.2-1.6,0-2.4l-.3-.2.2-.3c2.4-.7,4.2.5,4.6,2.5,1.1,6.6,6.5,10.7,9,16.4,6.3,14.2,10.7,28.9,12.1,44.5.4,4.7-.8,9.1-1.1,13.7-.5,8.8,1.7,17.5,1.4,26.3,0,1.4.2,2.8-.5,4.1Z"/>
      <path class="cls-21" d="M348.9,259.8c4.2-3.1,3.4-7.7.7-10.1-7.2-6.4-9.7-13.6-7-22.9.5-1.7.8-4-1.1-5.5-4.4-9.8-8.8-19.5-13.1-29.4-.8-1.8-1.7-3.1-3.7-3.4,2.1-3.8-.5-7.1-1.8-10.1-7.1-17-10.2-34.7-11.5-52.9,0-.8,0-1.6-.1-2.4-1.3-9.6,1.7-14.1,11-16.4,8.5-2.1,17.4-2.5,26.1-3.5,3.7-.4,4.9-1.8,5.5-5.4.7-4.3,0-8.8,2.1-12.8,2.4,2.5,1.6,5.6,1.6,8.6,0,6.3,0,6.3,6.4,5.4,1.6-.2,3.1-.6,4.8-.7,2.1-.1,4.2,0,5.3,2.1,1.2,2.3-.8,3.6-2.3,5-.7.7-1.6,1.2-2.4,1.8,0,.2.2.3.7,0,8-6.4,16.4-8.1,26.7-4.8,9.5,3,19.7,2.6,29.7.8,5.3-.9,10.8-.4,16.2-.2,18.8,7.9,32.7,20.9,34.9,41.6,2,18.6-4.7,35.1-21.1,46.3-2.3.9-4.7,2-7.3,1.2-5.1-4.1-7.5-10.2-11.6-15.1-1.7-2-3.1-4.1-4.7-6.2-3.8-4.9-7.9-8-14.7-5.2-3.2,1.3-7.1.3-10.7.2-7.2-3.2-15-4.1-22.4-6.6-5.6-1.7-10.7-4.4-16-6.9-5.5-2.5-7.6-8-10.1-13.1-.5.9,0,1.7.3,2.4.3,1,1.1,1.6,1.7,2.5,1.1,1.6,2.6,3.2,1.1,5.4-1.2.8-2.2,1.8-2.4,3.2-1.3,7.4-3.5,14.7-3.2,22.4.2,5.1,1.6,9,7.5,9.4.5.3.8.8.9,1.4-.6,1.8-2.4,1.7-3.8,2-2.3.4-2.6,1.9-2.4,3.8,0,3.5,0,6.9,1.8,10,1.9,14.6,11.5,22.6,24.1,28.2,2.4,1.1,4.6,2.4,6.4,4.4,3.5,3.9,3.8,8.7,1.9,12.9-2.5,5.5-4.8,10.9-6.3,16.7-.6,2.2-2.1,4.3-4.2,5.7-4.6-3.6-11.2-1.7-12.2,3.5-3.3-1.2-5-4.6-8.7-5.4-2.4-.5-4.6-1-6.9-.3-1.1-3.1-3.1-5.3-5.7-7.2Z"/>
      <path class="cls-21" d="M348.9,259.8c4.2-3.1,3.4-7.7.7-10.1-7.2-6.4-9.7-13.6-7-22.9.5-1.7.8-4-1.1-5.5-4.4-9.8-8.8-19.5-13.1-29.4-.8-1.8-1.7-3.1-3.7-3.4,2.1-3.8-.5-7.1-1.8-10.1-7.1-17-10.2-34.7-11.5-52.9,0-.8,0-1.6-.1-2.4-1.3-9.6,1.7-14.1,11-16.4,8.5-2.1,17.4-2.5,26.1-3.5,3.7-.4,4.9-1.8,5.5-5.4.7-4.3,0-8.8,2.1-12.8,2.4,2.5,1.6,5.6,1.6,8.6,0,6.3,0,6.3,6.4,5.4,1.6-.2,3.1-.6,4.8-.7,2.1-.1,4.2,0,5.3,2.1,1.2,2.3-.8,3.6-2.3,5-.7.7-1.6,1.2-2.4,1.8,0,.2.2.3.7,0,8-6.4,16.4-8.1,26.7-4.8,9.5,3,19.7,2.6,29.7.8,5.3-.9,10.8-.4,16.2-.2,18.8,7.9,32.7,20.9,34.9,41.6,2,18.6-4.7,35.1-21.1,46.3-2.3.9-4.7,2-7.3,1.2-5.1-4.1-7.5-10.2-11.6-15.1-1.7-2-3.1-4.1-4.7-6.2-3.8-4.9-7.9-8-14.7-5.2-3.2,1.3-7.1.3-10.7.2-7.2-3.2-15-4.1-22.4-6.6-5.6-1.7-10.7-4.4-16-6.9-5.5-2.5-7.6-8-10.1-13.1-.5.9,0,1.7.3,2.4.3,1,1.1,1.6,1.7,2.5,1.1,1.6,2.6,3.2,1.1,5.4-1.2.8-2.2,1.8-2.4,3.2-1.3,7.4-3.5,14.7-3.2,22.4.2,5.1,1.6,9,7.5,9.4.5.3.8.8.9,1.4-.6,1.8-2.4,1.7-3.8,2-2.3.4-2.6,1.9-2.4,3.8,0,3.5,0,6.9,1.8,10,1.9,14.6,11.5,22.6,24.1,28.2,2.4,1.1,4.6,2.4,6.4,4.4,3.5,3.9,3.8,8.7,1.9,12.9-2.5,5.5-4.8,10.9-6.3,16.7-.6,2.2-2.1,4.3-4.2,5.7-4.6-3.6-11.2-1.7-12.2,3.5-3.3-1.2-5-4.6-8.7-5.4-2.4-.5-4.6-1-6.9-.3-1.1-3.1-3.1-5.3-5.7-7.2Z"/>
      <path class="cls-4" d="M455.9,189.7c15.7-12.3,22.9-28.5,19.6-47.9-3.2-18.6-16-30.2-32.9-37.5-5.7-1.5-11.5-.5-17.2-.5-1.6,0-3.5.7-4.2-1.1-.6-1.6.8-3,2-4.1,2.3-2.1,5-3.3,7.9-4.2,4.8-1.3,9.8-2.1,14.5-3.8,2.9-1,5.1,0,6.6,2.5,3.9,4.8,9.9,6.5,14.7,10.2,6.7,5.1,11,11.4,13,19.5,2,7.9,4.2,15.8,6,23.8,1.2,5.5,3.4,10.6,6.4,15.4,1.4,13.6-.5,26.3-9,37.5-4.1,5.4-5.7,11.6-5.7,18.5,0,16,4.7,30.7,11.4,45,1.4,2.9,3.9,4,6.8,4.1,3.8.2,7.6.2,11.4.3-1.2,4-4.7,2.5-7.1,2.4-4.6-.2-8.5.9-11.6,4.3-21.3,16.8-45.6,27.7-71.5,35.3-4.5,1.3-4.6,4.1-4.8,7.5-2.2-11.7-5.3-23.3-9.4-34.5-5.3-8.9-7.5-18.9-10.7-28.6-1.1-3.4.6-6.7,1-10,.5-3.6.2-6.8-2.8-9.3-5.2-4.1-4.6-10.4-5.8-16-3.6-17.7-.9-35.5-1.2-53.3-.1-5.9,1.1-6.6,6.8-5.3,1.4.3,2.8.5,4.1.7,8.3,1.3,14.6,4.6,16.3,13.9.8,4.6,4.2,8.1,6.7,12,5.1,8.1,12.9,9.6,21.5,8.3,5.9-.9,11.8-2.1,17.2-5.1Z"/>
      <path class="cls-22" d="M455.9,189.7c15.7-12.3,22.9-28.5,19.6-47.9-3.2-18.6-16-30.2-32.9-37.5-5.7-1.5-11.5-.5-17.2-.5-1.6,0-3.5.7-4.2-1.1-.6-1.6.8-3,2-4.1,2.3-2.1,5-3.3,7.9-4.2,4.8-1.3,9.8-2.1,14.5-3.8,2.9-1,5.1,0,6.6,2.5,3.9,4.8,9.9,6.5,14.7,10.2,6.7,5.1,11,11.4,13,19.5,2,7.9,4.2,15.8,6,23.8,1.2,5.5,3.4,10.6,6.4,15.4,1.4,13.6-.5,26.3-9,37.5-4.1,5.4-5.7,11.6-5.7,18.5,0,16,4.7,30.7,11.4,45,1.4,2.9,3.9,4,6.8,4.1,3.8.2,7.6.2,11.4.3-1.2,4-4.7,2.5-7.1,2.4-4.6-.2-8.5.9-11.6,4.3-21.3,16.8-45.6,27.7-71.5,35.3-4.5,1.3-4.6,4.1-4.8,7.5-2.2-11.7-5.3-23.3-9.4-34.5-5.3-8.9-7.5-18.9-10.7-28.6-1.1-3.4.6-6.7,1-10,.5-3.6.2-6.8-2.8-9.3-5.2-4.1-4.6-10.4-5.8-16-3.6-17.7-.9-35.5-1.2-53.3-.1-5.9,1.1-6.6,6.8-5.3,1.4.3,2.8.5,4.1.7,8.3,1.3,14.6,4.6,16.3,13.9.8,4.6,4.2,8.1,6.7,12,5.1,8.1,12.9,9.6,21.5,8.3,5.9-.9,11.8-2.1,17.2-5.1Z"/>
      <path class="cls-4" d="M496.4,764.2c-1.6.3-2.9.9-4.1,2.1-13.2,13.6-29.6,21.9-46.8,29-6.6,2.7-12.7,6.6-19.8,8.2-2.1.5-2.4,2.4-2.4,4.3,0,2.6,0,5.2,0,7.7-1.9-19-16.6-30.9-25.4-46.1-7-6.2-12.7-13.4-17-21.6-2.3-4.4-1.6-9.4.9-13.9,12-12.3,18.4-27.6,22.6-43.9,1.3-5,4.1-8.5,7.6-11.9,11.8-11.6,15.6-25.8,12.5-41.9-2.2-11.4-9.4-19.3-19.6-23.7-9.2-4-18.9-3-28,1.4-4,1.9-7.8,4.1-11.2,7.1-1.4,1.3-3.4,3.4-5.3.3,3-7.5,7.1-14.3,13.3-19.6,8.9-3.3,17.9-1.9,26.6.3,13.6,3.3,25.8,9.7,36.3,19.1,11.7,12.5,18.6,27.9,25.3,43.3,2.2,5.1,2.8,10.4.8,15.8-2,5.5-.9,10.8.5,16.4,4.6,17.4,14.3,32.1,23.4,47.1,3.9,6.5,6.8,13.4,9.7,20.4Z"/>
      <path class="cls-22" d="M496.4,764.2c-1.6.3-2.9.9-4.1,2.1-13.2,13.6-29.6,21.9-46.8,29-6.6,2.7-12.7,6.6-19.8,8.2-2.1.5-2.4,2.4-2.4,4.3,0,2.6,0,5.2,0,7.7-1.9-19-16.6-30.9-25.4-46.1-7-6.2-12.7-13.4-17-21.6-2.3-4.4-1.6-9.4.9-13.9,12-12.3,18.4-27.6,22.6-43.9,1.3-5,4.1-8.5,7.6-11.9,11.8-11.6,15.6-25.8,12.5-41.9-2.2-11.4-9.4-19.3-19.6-23.7-9.2-4-18.9-3-28,1.4-4,1.9-7.8,4.1-11.2,7.1-1.4,1.3-3.4,3.4-5.3.3,3-7.5,7.1-14.3,13.3-19.6,8.9-3.3,17.9-1.9,26.6.3,13.6,3.3,25.8,9.7,36.3,19.1,11.7,12.5,18.6,27.9,25.3,43.3,2.2,5.1,2.8,10.4.8,15.8-2,5.5-.9,10.8.5,16.4,4.6,17.4,14.3,32.1,23.4,47.1,3.9,6.5,6.8,13.4,9.7,20.4Z"/>
      <path class="cls-21" d="M595.1,356c-1.6-30.1,0-60.7-13.5-88.9-2.8-7.8-2.4-8.6,5.3-10.9,8.4-2.5,17-4.6,25.4-7,8.6-2.5,17.3-1.8,26-1.4,17.9,16.9,39.5,28.4,60.3,41.1,11.2,6.9,21.1,15.9,32.3,23,10.5,6.7,21.1,13.1,33.4,16.2,4.9,1.3,6.5,8.4,2.5,11.8-2.6,2.2-2.9,4.5-2.9,7.3,0,8.4.7,16.9-4.5,24.3-.8,1.1.1,2.3.8,3.3-.1,1.8-1.1,2.7-2.8,3-.4-3.3-2.1-5.5-5-7.5-18.7-12.2-39.2-19.6-60.7-25.2-23.4-6.2-45-16-59.2-37.1-1.5-2.3-2.9-4.3-6.2-2.5-9.1,4.7-18.2,9.3-27.4,13.7-3,1.4-4.1,3.4-3.9,6.6.6,8.6,1,17.2,1.6,25.8.1,1.8,1.1,3.6-1.4,4.5Z"/>
      <path class="cls-21" d="M595.1,356c-1.6-30.1,0-60.7-13.5-88.9-2.8-7.8-2.4-8.6,5.3-10.9,8.4-2.5,17-4.6,25.4-7,8.6-2.5,17.3-1.8,26-1.4,17.9,16.9,39.5,28.4,60.3,41.1,11.2,6.9,21.1,15.9,32.3,23,10.5,6.7,21.1,13.1,33.4,16.2,4.9,1.3,6.5,8.4,2.5,11.8-2.6,2.2-2.9,4.5-2.9,7.3,0,8.4.7,16.9-4.5,24.3-.8,1.1.1,2.3.8,3.3-.1,1.8-1.1,2.7-2.8,3-.4-3.3-2.1-5.5-5-7.5-18.7-12.2-39.2-19.6-60.7-25.2-23.4-6.2-45-16-59.2-37.1-1.5-2.3-2.9-4.3-6.2-2.5-9.1,4.7-18.2,9.3-27.4,13.7-3,1.4-4.1,3.4-3.9,6.6.6,8.6,1,17.2,1.6,25.8.1,1.8,1.1,3.6-1.4,4.5Z"/>
      <path class="cls-21" d="M573.2,920c7.4-6.7,15.6-12.5,22.3-20,5.6-6.3,10.2-13.3,14.5-20.5,1.7-2.9,2-5.4.6-8.3,7,7,13.5,14.6,20.5,21.6,13.2,13.2,29.6,22.5,44,34.3,21.6,17.6,46.1,29.8,71,41.8,4,1.9,7.5,3.2,11.7,2.2.3,1.8.7,3.6.2,5.4-2.1,4-1.9,7.3,1.5,10.8,3.3,3.3,3.4,8,2.6,12.5-1.4,7.7-5.3,14.2-10.8,19.7-1.5.9-3,1.9-4.7,2.4-2.8-.8-.4-3.8-2.1-5.1-14.6-7-28.7-15-44.1-20.3-10-3.4-20.1-6.5-30.2-9.8-18.2-6-33.3-16.3-43.6-32.8-8.6-13.8-20.9-22.5-36.1-27.2-5.9-1.8-10.9-6-17.3-6.6Z"/>
      <path class="cls-21" d="M573.2,920c7.4-6.7,15.6-12.5,22.3-20,5.6-6.3,10.2-13.3,14.5-20.5,1.7-2.9,2-5.4.6-8.3,7,7,13.5,14.6,20.5,21.6,13.2,13.2,29.6,22.5,44,34.3,21.6,17.6,46.1,29.8,71,41.8,4,1.9,7.5,3.2,11.7,2.2.3,1.8.7,3.6.2,5.4-2.1,4-1.9,7.3,1.5,10.8,3.3,3.3,3.4,8,2.6,12.5-1.4,7.7-5.3,14.2-10.8,19.7-1.5.9-3,1.9-4.7,2.4-2.8-.8-.4-3.8-2.1-5.1-14.6-7-28.7-15-44.1-20.3-10-3.4-20.1-6.5-30.2-9.8-18.2-6-33.3-16.3-43.6-32.8-8.6-13.8-20.9-22.5-36.1-27.2-5.9-1.8-10.9-6-17.3-6.6Z"/>
      <path class="cls-16" d="M360.4,621.5c2.1,1.6,3.3-.2,4.5-1.4,9.9-9.4,21.9-13.2,34.9-10.7,12.9,2.5,21.7,11.2,25.2,23.9,5,17.9.8,33.7-13,46.4-5,4.6-6,10.6-7.9,16.4-4.7,14.3-10,28.3-22,38.5-2.8,4.2-2.3,8.9-1.1,13.1,1.8,6.5-.3,11.8-3,17.3-8.6-1.6-12.6-6.9-12.8-15.5,0-2.8-.5-5.8,2.2-7.7,2.9-2,4.7,1.2,7.2,2.3,1.4-2.6-.4-5.2.6-8.1-2.8,2.2-5.5,4.8-8.4,1.6-2.7-3-1.3-6.1,1.1-8.6,1.9-1.9,3.7-3.7,4.6-6.2.6-1.7,1.7-3.4,3.8-3.3,2.2,0,3,1.7,3.5,3.6.2.8.3,1.6,1.4,2.5,3.6-1.7,3.6-5.8,5.3-8.7,1.7-2.9,5.1-5.7.4-8.9-.4-.3-.6-1.3-.3-1.7,4.4-4.7,1-8.2-1.3-12.4-1.7-3-.2-6.4,3.8-7.4,1.8-.4,3.5-.8,4.3-2.7.6-1.4,1.1-2.4-1-3.3-6.3-2.8-8.1-5.8-6-9.7,1.9-3.4,6.4-3.8,11.8-.9.5.3.9.8,1.6.8-1.4-7.2-1.2-7.6,5.9-10.4,1.3-.5,2.6-1.2,3.4-2.4,2.7-4.1,5.9-5.5,10.3-1.6-1.6-3.9-5.1-6.3-4.8-10.9.4-4.2,4.3-6.7,4.7-11.4-4,.8-4.4,3.6-5,6.2-.6,2.6-.1,5.2-.7,7.8-.5,2.4-1.8,4.1-4.4,4.3-2.7.2-4.2-1.5-4.7-3.8-1.8-7.3-2-14.3,4.2-20.4-4.8-2.1-8.8-4.9-12.5,1.2-1.3,2.2-4.3,1.7-6.6.2-1.6-1-2.6-3.9-4.9-2.6-2.9,1.7-6.8,2.3-8.5,5.4-2.3,4.1-6.1,8-2.1,13.7,2,2.9.4,6.7-1,9.8-.8,1.8-2.5,2.6-4.5,2.5-2.6-.2-3.8-2.2-4.4-4.3-.9-3-.9-6.4-3.9-9.7,1.2,5,1.6,9.2,4.9,12.6,2.5,2.6,1.9,6.1,0,8.9-1.7,2.5-1.8,5-1.7,7.9.4,6.4-1.9,12.6-1.8,19.1,0,.6-.2,1.3-.6,1.7-6.9,4.9-5.1,12.1-4.9,18.7.1,6-2.1,11.4-2.8,17.2-.2,1.8-1.2,3.7-.6,5.3,3.8,10.5,1.2,21.5,2.9,32.2,1.2,7.5-1.5,14.7-.9,22.2.3,3.5.4,6.6,3.5,9.1,3.9,3.1,2.5,7.8,2.5,11.9,0,4.8.5,9.2,5.2,11.9,1.4,3,.2,5.7-.8,8.5-1.1,2.8-.5,5.8-.6,8.7,0,3-.1,6-.6,9-1.2,7.7.7,11.5,7.7,15.1,3.9,2,8.1,3.5,12.2,5.3,6.8,2.9,9.9,9.6,6.3,16.2-2.3,4.2-3.6,7.8-2,12.3.3.9-.3,1.9-1.2,2.6-.6-1-1.1-2.5-1.9-2.8-1.7-.5-1.7,1.4-1.8,2.4-.4,4.6-7.2,4-7.2,8.8-.8.3-1.6.2-2.3-.2-5.3-2.5-9.4-1.1-12.3,3.9-.8-3.9-1.4-7.8-7.1-7.6-2.1,0-3.6-2.3-4.7-4.3-2.9-6.8-6.7-12.9-12-18.3-2.7-2.7-1.6-6.8-1.7-10.4,0-2.4,0-4.8-.2-7.2,0-6.3,0-12.7,0-19,0-5.1,2-10.9-4.1-14.3,5.1-.6,6.1-3.6,5.9-8.3-.3-14.3.2-28.5-.2-42.8-.5-15.2,1.5-30,6-44.4,3.3-10.6,2.5-21.4,3.7-32.1,1.1-9.1.6-18.3.4-27.5-.3-15.3,2.6-30.6,9.3-44.7,1.6-3.4,1.9-7.2,3.4-10.6Z"/>
      <path class="cls-16" d="M360.4,621.5c2.1,1.6,3.3-.2,4.5-1.4,9.9-9.4,21.9-13.2,34.9-10.7,12.9,2.5,21.7,11.2,25.2,23.9,5,17.9.8,33.7-13,46.4-5,4.6-6,10.6-7.9,16.4-4.7,14.3-10,28.3-22,38.5-2.8,4.2-2.3,8.9-1.1,13.1,1.8,6.5-.3,11.8-3,17.3-8.6-1.6-12.6-6.9-12.8-15.5,0-2.8-.5-5.8,2.2-7.7,2.9-2,4.7,1.2,7.2,2.3,1.4-2.6-.4-5.2.6-8.1-2.8,2.2-5.5,4.8-8.4,1.6-2.7-3-1.3-6.1,1.1-8.6,1.9-1.9,3.7-3.7,4.6-6.2.6-1.7,1.7-3.4,3.8-3.3,2.2,0,3,1.7,3.5,3.6.2.8.3,1.6,1.4,2.5,3.6-1.7,3.6-5.8,5.3-8.7,1.7-2.9,5.1-5.7.4-8.9-.4-.3-.6-1.3-.3-1.7,4.4-4.7,1-8.2-1.3-12.4-1.7-3-.2-6.4,3.8-7.4,1.8-.4,3.5-.8,4.3-2.7.6-1.4,1.1-2.4-1-3.3-6.3-2.8-8.1-5.8-6-9.7,1.9-3.4,6.4-3.8,11.8-.9.5.3.9.8,1.6.8-1.4-7.2-1.2-7.6,5.9-10.4,1.3-.5,2.6-1.2,3.4-2.4,2.7-4.1,5.9-5.5,10.3-1.6-1.6-3.9-5.1-6.3-4.8-10.9.4-4.2,4.3-6.7,4.7-11.4-4,.8-4.4,3.6-5,6.2-.6,2.6-.1,5.2-.7,7.8-.5,2.4-1.8,4.1-4.4,4.3-2.7.2-4.2-1.5-4.7-3.8-1.8-7.3-2-14.3,4.2-20.4-4.8-2.1-8.8-4.9-12.5,1.2-1.3,2.2-4.3,1.7-6.6.2-1.6-1-2.6-3.9-4.9-2.6-2.9,1.7-6.8,2.3-8.5,5.4-2.3,4.1-6.1,8-2.1,13.7,2,2.9.4,6.7-1,9.8-.8,1.8-2.5,2.6-4.5,2.5-2.6-.2-3.8-2.2-4.4-4.3-.9-3-.9-6.4-3.9-9.7,1.2,5,1.6,9.2,4.9,12.6,2.5,2.6,1.9,6.1,0,8.9-1.7,2.5-1.8,5-1.7,7.9.4,6.4-1.9,12.6-1.8,19.1,0,.6-.2,1.3-.6,1.7-6.9,4.9-5.1,12.1-4.9,18.7.1,6-2.1,11.4-2.8,17.2-.2,1.8-1.2,3.7-.6,5.3,3.8,10.5,1.2,21.5,2.9,32.2,1.2,7.5-1.5,14.7-.9,22.2.3,3.5.4,6.6,3.5,9.1,3.9,3.1,2.5,7.8,2.5,11.9,0,4.8.5,9.2,5.2,11.9,1.4,3,.2,5.7-.8,8.5-1.1,2.8-.5,5.8-.6,8.7,0,3-.1,6-.6,9-1.2,7.7.7,11.5,7.7,15.1,3.9,2,8.1,3.5,12.2,5.3,6.8,2.9,9.9,9.6,6.3,16.2-2.3,4.2-3.6,7.8-2,12.3.3.9-.3,1.9-1.2,2.6-.6-1-1.1-2.5-1.9-2.8-1.7-.5-1.7,1.4-1.8,2.4-.4,4.6-7.2,4-7.2,8.8-.8.3-1.6.2-2.3-.2-5.3-2.5-9.4-1.1-12.3,3.9-.8-3.9-1.4-7.8-7.1-7.6-2.1,0-3.6-2.3-4.7-4.3-2.9-6.8-6.7-12.9-12-18.3-2.7-2.7-1.6-6.8-1.7-10.4,0-2.4,0-4.8-.2-7.2,0-6.3,0-12.7,0-19,0-5.1,2-10.9-4.1-14.3,5.1-.6,6.1-3.6,5.9-8.3-.3-14.3.2-28.5-.2-42.8-.5-15.2,1.5-30,6-44.4,3.3-10.6,2.5-21.4,3.7-32.1,1.1-9.1.6-18.3.4-27.5-.3-15.3,2.6-30.6,9.3-44.7,1.6-3.4,1.9-7.2,3.4-10.6Z"/>
      <path class="cls-17" d="M746.2,1021.2c.6-2.3,2.3-2.5,4.3-2.1,1,0,2,.2,3,.3,12,1.6,16.5-3.2,12.3-14.7-3.4-9.6-4.9-19.6-8.1-29.2-1.9-1.5-2.7-3,0-4.5,21.8-5.5,43.3-11.7,61.4-25.9,1.6-1.2,3.4-2.1,5.1-3.1,3.9-2.1,7-3.2,7.9,3.3.6,4.3,5,7,6.5,11.2,5.2,14.6,1.7,27.8-8.3,38.4-13.9,14.7-25,31.8-40,45.5-2.9,1.7-5.9,3-9.2,3.9-4.9,1.4-9.6.9-13.3-2.8-5.3-5.3-10.6-10.6-17.3-14.2h0c-2.5-1.3-3.8-3.5-4.5-6.1Z"/>
      <path class="cls-22" d="M746.2,1021.2c.6-2.3,2.3-2.5,4.3-2.1,1,0,2,.2,3,.3,12,1.6,16.5-3.2,12.3-14.7-3.4-9.6-4.9-19.6-8.1-29.2-1.9-1.5-2.7-3,0-4.5,21.8-5.5,43.3-11.7,61.4-25.9,1.6-1.2,3.4-2.1,5.1-3.1,3.9-2.1,7-3.2,7.9,3.3.6,4.3,5,7,6.5,11.2,5.2,14.6,1.7,27.8-8.3,38.4-13.9,14.7-25,31.8-40,45.5-2.9,1.7-5.9,3-9.2,3.9-4.9,1.4-9.6.9-13.3-2.8-5.3-5.3-10.6-10.6-17.3-14.2h0c-2.5-1.3-3.8-3.5-4.5-6.1Z"/>
      <path class="cls-16" d="M436.7,621.3c-4.2-.7-7.1-3.7-10.4-5.9-15.1-9.9-31.5-14.6-49.6-13.2-1,0-2-.2-3-.3,2.9-3.5,6.4-6.7,8.7-10.5,3.3-5.5,5.1-11.7,3.1-18.3-.6-2-1-3.8-.6-5.8,3.3,1.2,4.9-.6,6.4-3.2,1.7-2.9,3.2-5.6.7-8.8-2.2-2.9-4-5.9-4-9.8,0-4.9,2.3-7.9,6.5-9.9,3.9-1.8,6.4.7,9.1,2.9,2.5,2.1,3.8,5.1,5.6,7.8,2.3,3.5,4.6,3.5,6-.3,2.5-6.7,7.2-12,10.2-18.3,3.7-7.7,11.1-11.6,19-13.6,6.5-1.7,13.4.8,20-.7-2.4,3.2-3.2,6.6-2.5,10.8.8,5.2,1.5,10.6.3,16-1.2,5.6,1.4,10.5,3.5,15.5,1.9,4.4,2.6,8.7-3.7,10.4-2.1.6-2.2,2.5-2.4,4.3-.7,4.7-1.3,9.5-2.5,14.1-1.1,4.2-3.2,8.3-8.4,7.8-5.1-.5-8.7,1.5-12,4.9-.9-3.3-3.2-4.9-6.2-6.6-8.1-4.5-16-9.6-21.9-15.3,2.4,9.3,10.8,15.4,18.2,22.4,2.1,2,4.8,2.7,7.6,3.3-1.7,3.7-.9,7.4.7,10.7,1.5,3.2,1.8,6.4,1.7,9.7Z"/>
      <path class="cls-16" d="M436.7,621.3c-4.2-.7-7.1-3.7-10.4-5.9-15.1-9.9-31.5-14.6-49.6-13.2-1,0-2-.2-3-.3,2.9-3.5,6.4-6.7,8.7-10.5,3.3-5.5,5.1-11.7,3.1-18.3-.6-2-1-3.8-.6-5.8,3.3,1.2,4.9-.6,6.4-3.2,1.7-2.9,3.2-5.6.7-8.8-2.2-2.9-4-5.9-4-9.8,0-4.9,2.3-7.9,6.5-9.9,3.9-1.8,6.4.7,9.1,2.9,2.5,2.1,3.8,5.1,5.6,7.8,2.3,3.5,4.6,3.5,6-.3,2.5-6.7,7.2-12,10.2-18.3,3.7-7.7,11.1-11.6,19-13.6,6.5-1.7,13.4.8,20-.7-2.4,3.2-3.2,6.6-2.5,10.8.8,5.2,1.5,10.6.3,16-1.2,5.6,1.4,10.5,3.5,15.5,1.9,4.4,2.6,8.7-3.7,10.4-2.1.6-2.2,2.5-2.4,4.3-.7,4.7-1.3,9.5-2.5,14.1-1.1,4.2-3.2,8.3-8.4,7.8-5.1-.5-8.7,1.5-12,4.9-.9-3.3-3.2-4.9-6.2-6.6-8.1-4.5-16-9.6-21.9-15.3,2.4,9.3,10.8,15.4,18.2,22.4,2.1,2,4.8,2.7,7.6,3.3-1.7,3.7-.9,7.4.7,10.7,1.5,3.2,1.8,6.4,1.7,9.7Z"/>
      <path class="cls-3" d="M757.3,377.9c.4-1.5,1.3-2.5,2.8-3,10.7,1.3,19.8-9.1,20.4-17,.3-3.4-2-5.6-3.7-7.9-1.9-2.6-2.5-4.8.4-7.1,3.4-2.7,2.6-5.5.4-8.9-3.8-5.8-2.6-8.1,4.4-8.9,17.9-2.1,33-10.6,47-21.2,4.5-3.4,8.6-7.3,14.8-7,7.4.3,10.5,4.6,8.7,11.7-.6,2.5-.6,5.2-.5,7.8.6,17.3-6.6,31.3-19.5,42-9.2,7.6-16.3,15.9-21.3,26.9-8,17.5-21.7,19.7-36.4,7.2-5.8-4.9-11.8-9.6-17.7-14.3Z"/>
      <path class="cls-22" d="M757.3,377.9c.4-1.5,1.3-2.5,2.8-3,10.7,1.3,19.8-9.1,20.4-17,.3-3.4-2-5.6-3.7-7.9-1.9-2.6-2.5-4.8.4-7.1,3.4-2.7,2.6-5.5.4-8.9-3.8-5.8-2.6-8.1,4.4-8.9,17.9-2.1,33-10.6,47-21.2,4.5-3.4,8.6-7.3,14.8-7,7.4.3,10.5,4.6,8.7,11.7-.6,2.5-.6,5.2-.5,7.8.6,17.3-6.6,31.3-19.5,42-9.2,7.6-16.3,15.9-21.3,26.9-8,17.5-21.7,19.7-36.4,7.2-5.8-4.9-11.8-9.6-17.7-14.3Z"/>
      <path class="cls-5" d="M492.3,161.9c-6.3-3.5-6.6-10.1-8.2-15.9-2-6.9-3.7-13.9-5.1-20.9-2.4-12.3-10.4-19.8-20.8-25.5-2.6-1.4-5.5-2.5-7.1-5.2-.8-4.1,1.7-5.3,5.1-5.6.6,0,1.1.2,1.7.4,3.4,1.6,6.7,2.3,10.2.4,4.3-1.3,6.2-3.4,2.8-7.7-1.1-1.4-1.8-3.2-2.3-4.9-1.4-4.7.4-8.3,4.3-10.9,3.9-2.6,7.6-1.9,11.1,1,2,1.7,3.3,4,4.7,6.2,1.1,1.6,1.7,4,4.2,3.7,2.1-.3,2-2.7,2.9-4.2,5.1-8,8.3-17.3,16-23.7,9.1-7.5,19.2-6.5,29.5-4.1-.5,1.8-.1,3.4,0,5.2.6,6.1,2.1,12.1.6,18.5-1.3,5.3,0,10.6,3,15.5,2.5,4,3,8-2.7,10.1-3.4,1.3-3.4,4.7-4,7.5-.6,2.7-.7,5.6-1.3,8.3-2.5,10.7-6.6,13.3-17.5,11.4-2.5-.5-5.2-.4-7.8-.5-8-6.4-18.4-9.9-23.5-18.7,1.7,6.3,5.7,13.2,11,19.3,2.1,2.4,4.1,3.8,7.1,1.6.9-.6,1.9-.6,2.8.2-1.5,4-6,5-8.3,8.4-3.2,4.8-4.5,10.2-5.5,15.5-.9,4.9-2.1,9.6-2.9,14.5Z"/>
      <path class="cls-5" d="M492.3,161.9c-6.3-3.5-6.6-10.1-8.2-15.9-2-6.9-3.7-13.9-5.1-20.9-2.4-12.3-10.4-19.8-20.8-25.5-2.6-1.4-5.5-2.5-7.1-5.2-.8-4.1,1.7-5.3,5.1-5.6.6,0,1.1.2,1.7.4,3.4,1.6,6.7,2.3,10.2.4,4.3-1.3,6.2-3.4,2.8-7.7-1.1-1.4-1.8-3.2-2.3-4.9-1.4-4.7.4-8.3,4.3-10.9,3.9-2.6,7.6-1.9,11.1,1,2,1.7,3.3,4,4.7,6.2,1.1,1.6,1.7,4,4.2,3.7,2.1-.3,2-2.7,2.9-4.2,5.1-8,8.3-17.3,16-23.7,9.1-7.5,19.2-6.5,29.5-4.1-.5,1.8-.1,3.4,0,5.2.6,6.1,2.1,12.1.6,18.5-1.3,5.3,0,10.6,3,15.5,2.5,4,3,8-2.7,10.1-3.4,1.3-3.4,4.7-4,7.5-.6,2.7-.7,5.6-1.3,8.3-2.5,10.7-6.6,13.3-17.5,11.4-2.5-.5-5.2-.4-7.8-.5-8-6.4-18.4-9.9-23.5-18.7,1.7,6.3,5.7,13.2,11,19.3,2.1,2.4,4.1,3.8,7.1,1.6.9-.6,1.9-.6,2.8.2-1.5,4-6,5-8.3,8.4-3.2,4.8-4.5,10.2-5.5,15.5-.9,4.9-2.1,9.6-2.9,14.5Z"/>
      <path class="cls-14" d="M464.4,513.3c-2.7,2.4-5.6,2.9-9.3,2.4-14.4-1.9-23.6,3.5-30.1,16.3-2.7,5.5-7.2,9.9-8.9,16.2-.9,3.5-5.3,3.5-7.5.4-1.8-2.6-3-5.7-5.1-8-2.4-2.7-4.8-6.2-9.6-3.3-4.9,2.9-5.5,7-4.1,11.9.2.7.7,1.5,1.3,2,6.5,5.6,4.1,11.1-.2,16.4-1.1,1.3-.9,4.1-3.1,3.8-2.2-.2-1.5-3.1-2.9-4.2-3.3-14.7-5.9-29.3-5-44.6,1.1-18.4,12.5-27.5,27.7-34.1,9.7-4.2,18.9-.6,28.3,1,5.3.9,10.6,2.3,15.9,3.2,9.5,1.7,15.5,11.4,12.5,20.6Z"/>
      <path class="cls-14" d="M464.4,513.3c-2.7,2.4-5.6,2.9-9.3,2.4-14.4-1.9-23.6,3.5-30.1,16.3-2.7,5.5-7.2,9.9-8.9,16.2-.9,3.5-5.3,3.5-7.5.4-1.8-2.6-3-5.7-5.1-8-2.4-2.7-4.8-6.2-9.6-3.3-4.9,2.9-5.5,7-4.1,11.9.2.7.7,1.5,1.3,2,6.5,5.6,4.1,11.1-.2,16.4-1.1,1.3-.9,4.1-3.1,3.8-2.2-.2-1.5-3.1-2.9-4.2-3.3-14.7-5.9-29.3-5-44.6,1.1-18.4,12.5-27.5,27.7-34.1,9.7-4.2,18.9-.6,28.3,1,5.3.9,10.6,2.3,15.9,3.2,9.5,1.7,15.5,11.4,12.5,20.6Z"/>
      <path class="cls-14" d="M541.5,45.1c-3,0-6,0-9-.3-13-.9-22.2,4.1-27.7,16.3-2.5,5.5-7.4,9.7-8.9,16.1-.9,4-4.9,3.9-7,0-1.8-3.3-3.4-6.8-6.3-9.3-2.6-2.3-5.5-3.3-8.6-.8-3,2.4-5.3,5.2-4,9.2.8,2.4,1.9,5,3.7,6.8,4.8,4.7,1.8,5.9-2.7,6.9-1,.2-1.9.6-2.9.9-3.8,1.6-7.4.7-10.8-1.3h0c-4.6-3-2.9-6.2-.3-9.5,4.7-11.3,3.2-23.5,4.9-35.2.7-4.6,2.1-8.6,5-11.9,6.7-7.7,14.6-13.4,24.7-16.2,7.8-2.1,15.1.6,22.5,1.7,5.5.8,10.9,2.6,16.5,3.4,8.2,1.2,11.7,7,14.3,13.7,1.5,3.9-1.5,6.7-3.7,9.5Z"/>
      <path class="cls-14" d="M541.5,45.1c-3,0-6,0-9-.3-13-.9-22.2,4.1-27.7,16.3-2.5,5.5-7.4,9.7-8.9,16.1-.9,4-4.9,3.9-7,0-1.8-3.3-3.4-6.8-6.3-9.3-2.6-2.3-5.5-3.3-8.6-.8-3,2.4-5.3,5.2-4,9.2.8,2.4,1.9,5,3.7,6.8,4.8,4.7,1.8,5.9-2.7,6.9-1,.2-1.9.6-2.9.9-3.8,1.6-7.4.7-10.8-1.3h0c-4.6-3-2.9-6.2-.3-9.5,4.7-11.3,3.2-23.5,4.9-35.2.7-4.6,2.1-8.6,5-11.9,6.7-7.7,14.6-13.4,24.7-16.2,7.8-2.1,15.1.6,22.5,1.7,5.5.8,10.9,2.6,16.5,3.4,8.2,1.2,11.7,7,14.3,13.7,1.5,3.9-1.5,6.7-3.7,9.5Z"/>
      <path class="cls-11" d="M387.1,900.7c.4-2.1,0-3.9-1.3-5.6-1.8-2.3-.9-4.6.7-6.6,6.3-8.3,4.7-14.2-4.9-18.2-5.2-2.1-10.5-3.8-15-7.4-4.4-3.4-5.6-7.7-4.3-12.8.8-3.2.9-6.3,1-9.5,1-1.5.4-3.1.5-4.7.2-5,1.5-5.9,5.7-2.9,7.2,5.2,15.3,7.3,23.9,8.8,9.7,1.7,11.2,4.2,9.8,13.8-.3,2.2-.5,4.3-.1,6.5,2.7,43.8,5.4,87.6,9.3,131.3.3,3.5-1,6.5-4.2,6.9-3.1.4-3.1-3.2-3.6-5.4-4.5-23.4-9.5-46.6-12.9-70.2-1.2-8.1-3-16.1-4.5-24.1Z"/>
      <path class="cls-11" d="M387.1,900.7c.4-2.1,0-3.9-1.3-5.6-1.8-2.3-.9-4.6.7-6.6,6.3-8.3,4.7-14.2-4.9-18.2-5.2-2.1-10.5-3.8-15-7.4-4.4-3.4-5.6-7.7-4.3-12.8.8-3.2.9-6.3,1-9.5,1-1.5.4-3.1.5-4.7.2-5,1.5-5.9,5.7-2.9,7.2,5.2,15.3,7.3,23.9,8.8,9.7,1.7,11.2,4.2,9.8,13.8-.3,2.2-.5,4.3-.1,6.5,2.7,43.8,5.4,87.6,9.3,131.3.3,3.5-1,6.5-4.2,6.9-3.1.4-3.1-3.2-3.6-5.4-4.5-23.4-9.5-46.6-12.9-70.2-1.2-8.1-3-16.1-4.5-24.1Z"/>
      <path class="cls-7" d="M457.2,80.1c.2,3.2-2.7,6.4.3,9.5-3.2,0-5.5,1.4-6.3,4.7-1.2-2-2.2-3.7-5.3-2.2-5.9,2.9-12.9,2.5-18.8,5.6-2.1,1.1-4.4,1.9-5.4,5,7,1.8,14.2-1.4,20.9,1.6-11.8-1.1-23.4,2.3-35.2,1.2-5.4-.5-10.8-.8-15.9-2.6-5.7-2.1-10.7-2-15.4,2.2-2.2,2-5,3.3-7.6,4.7-1.1.6-2.6.7-3.3-.4-.8-1.3.5-2.1,1.5-2.8,1.3-.9,2.7-1.7,4-2.6,1.2-.9,3.3-1.5,2.3-3.5-.8-1.7-2.8-1.3-4.4-1-4.2.7-9.5,3.7-12.3.9-2-2.1-.3-7.8-.3-11.9,0-1.2,0-2.4,0-3.6,5.1-7.4,12.2-10.8,21-10.7,12.2.1,24.5-.7,36.7.9,3.9.5,7.7,1.4,10.8,3.3,9.7,5.8,19.8,3.3,29.8,2.2,1-.1,2-.3,3-.5Z"/>
      <path class="cls-7" d="M457.2,80.1c.2,3.2-2.7,6.4.3,9.5-3.2,0-5.5,1.4-6.3,4.7-1.2-2-2.2-3.7-5.3-2.2-5.9,2.9-12.9,2.5-18.8,5.6-2.1,1.1-4.4,1.9-5.4,5,7,1.8,14.2-1.4,20.9,1.6-11.8-1.1-23.4,2.3-35.2,1.2-5.4-.5-10.8-.8-15.9-2.6-5.7-2.1-10.7-2-15.4,2.2-2.2,2-5,3.3-7.6,4.7-1.1.6-2.6.7-3.3-.4-.8-1.3.5-2.1,1.5-2.8,1.3-.9,2.7-1.7,4-2.6,1.2-.9,3.3-1.5,2.3-3.5-.8-1.7-2.8-1.3-4.4-1-4.2.7-9.5,3.7-12.3.9-2-2.1-.3-7.8-.3-11.9,0-1.2,0-2.4,0-3.6,5.1-7.4,12.2-10.8,21-10.7,12.2.1,24.5-.7,36.7.9,3.9.5,7.7,1.4,10.8,3.3,9.7,5.8,19.8,3.3,29.8,2.2,1-.1,2-.3,3-.5Z"/>
      <path class="cls-23" d="M402.9,862.1c-3.9-2.7-1.8-6.3-.9-9.2,1.7-5.3-.8-7.7-5.3-8.7-10.3-2.3-21-3.2-29.4-10.8-1.8-1.6-2.8-.8-3,1.5-.2,1.9.5,4.1-1.1,5.7-1.7-6.3,2.8-11.9,2.3-18.1-1.1-1.1-1.2-2.5-1-3.9,1.6-11.9,2.9-23.9,7-35.2,2.2-6.2,2.5-13,6-18.7,1.9-7.6,3.6-15.3,2.5-23.3-.3-2.4-.8-5.3,2.2-6.8-2.9,8.2-.3,15,5.3,21.2,3.8,4.2,7.8,8.5,10.2,13.8-5.7,15-10,30.3-11.7,46.3-.7,6.7,2.7,10.9,8.2,12.2,8.8,2,13,8.8,18.3,14.6,2.1,2.2,1.2,4.6,0,7.2-2.4,4.8-6.4,8.2-9.6,12.3Z"/>
      <path class="cls-23" d="M402.9,862.1c-3.9-2.7-1.8-6.3-.9-9.2,1.7-5.3-.8-7.7-5.3-8.7-10.3-2.3-21-3.2-29.4-10.8-1.8-1.6-2.8-.8-3,1.5-.2,1.9.5,4.1-1.1,5.7-1.7-6.3,2.8-11.9,2.3-18.1-1.1-1.1-1.2-2.5-1-3.9,1.6-11.9,2.9-23.9,7-35.2,2.2-6.2,2.5-13,6-18.7,1.9-7.6,3.6-15.3,2.5-23.3-.3-2.4-.8-5.3,2.2-6.8-2.9,8.2-.3,15,5.3,21.2,3.8,4.2,7.8,8.5,10.2,13.8-5.7,15-10,30.3-11.7,46.3-.7,6.7,2.7,10.9,8.2,12.2,8.8,2,13,8.8,18.3,14.6,2.1,2.2,1.2,4.6,0,7.2-2.4,4.8-6.4,8.2-9.6,12.3Z"/>
      <path class="cls-19" d="M361.6,912.9c.8-2-1.1-5,2.5-6,4.4-1.1,8.6-1.4,12.1,2.2,2.1,14.6,4.3,29.2,6.4,43.9,2.4,17.2,4.8,34.4,7.2,51.6,1.8,13.3,3.6,26.6,5.5,39.8.7,5,.5,10,.6,15,0,1.5-.3,3-1.8,3.6-1.9.8-3.1-.9-3.8-2.1-2.5-4.1-4.4-8.5-5.3-13.3-7.3-37.9-13.5-76-19.5-114.1-1.1-6.9-2.5-13.8-3.8-20.6Z"/>
      <path class="cls-19" d="M361.6,912.9c.8-2-1.1-5,2.5-6,4.4-1.1,8.6-1.4,12.1,2.2,2.1,14.6,4.3,29.2,6.4,43.9,2.4,17.2,4.8,34.4,7.2,51.6,1.8,13.3,3.6,26.6,5.5,39.8.7,5,.5,10,.6,15,0,1.5-.3,3-1.8,3.6-1.9.8-3.1-.9-3.8-2.1-2.5-4.1-4.4-8.5-5.3-13.3-7.3-37.9-13.5-76-19.5-114.1-1.1-6.9-2.5-13.8-3.8-20.6Z"/>
      <path class="cls-24" d="M337.7,866c0,1.8.3,3.6,0,5.3-1.1,6.9,1,12.4,6.7,16.5,4.6,3.3,4.5,8.4,5.4,13.2-21.9-2.7-43.9-3.5-66-3.4-5.8,0-11.6.4-17.4.7-3.6.2-5.1-1.3-5-4.9.4-16.6,0-33.2-.9-49.8-.2-4.5,1.1-6.3,6-6.6,21.8-1.4,43.5-3.3,65.3-5,4.8-.4,6.7,1.7,6,6.5-.3,2.3-.1,4.7-.2,7-3.3-.7-2.6-3.6-2.9-5.8-.4-3-1.8-4-4.8-3.9-20.3.7-40.4,3.1-60.6,4.3-3.4.2-4.5,1.9-4.5,5,0,8.6,0,17.2,0,25.9,0,3.5,1.4,5.1,5.1,4.8,19.2-1.7,38.5-.6,57.8-.6,4.5,0,7.5-.4,7.4-5.8,0-1.5.4-3.3,2.6-3.4Z"/>
      <path class="cls-24" d="M337.7,866c0,1.8.3,3.6,0,5.3-1.1,6.9,1,12.4,6.7,16.5,4.6,3.3,4.5,8.4,5.4,13.2-21.9-2.7-43.9-3.5-66-3.4-5.8,0-11.6.4-17.4.7-3.6.2-5.1-1.3-5-4.9.4-16.6,0-33.2-.9-49.8-.2-4.5,1.1-6.3,6-6.6,21.8-1.4,43.5-3.3,65.3-5,4.8-.4,6.7,1.7,6,6.5-.3,2.3-.1,4.7-.2,7-3.3-.7-2.6-3.6-2.9-5.8-.4-3-1.8-4-4.8-3.9-20.3.7-40.4,3.1-60.6,4.3-3.4.2-4.5,1.9-4.5,5,0,8.6,0,17.2,0,25.9,0,3.5,1.4,5.1,5.1,4.8,19.2-1.7,38.5-.6,57.8-.6,4.5,0,7.5-.4,7.4-5.8,0-1.5.4-3.3,2.6-3.4Z"/>
      <path class="cls-24" d="M354.6,267c.4-2.3,2.4-3.1,3.9-2.3,4.2,2.1,10.2,1.9,11.7,8.1,3.5,23.4,7.1,46.7,10.4,70.1,2.9,20.4,5.4,40.9,7.9,61.3.5,4,1.7,7.9,1,11.9-.3,1.6-.7,3.3-2.6,3.7-1.6.3-2.4-1.1-3.2-2.3-3.3-4.7-4.9-10.1-6-15.6-6.8-35.6-12.7-71.3-18.2-107.1-1.4-9.3-3.3-18.5-4.9-27.8Z"/>
      <path class="cls-24" d="M354.6,267c.4-2.3,2.4-3.1,3.9-2.3,4.2,2.1,10.2,1.9,11.7,8.1,3.5,23.4,7.1,46.7,10.4,70.1,2.9,20.4,5.4,40.9,7.9,61.3.5,4,1.7,7.9,1,11.9-.3,1.6-.7,3.3-2.6,3.7-1.6.3-2.4-1.1-3.2-2.3-3.3-4.7-4.9-10.1-6-15.6-6.8-35.6-12.7-71.3-18.2-107.1-1.4-9.3-3.3-18.5-4.9-27.8Z"/>
      <path class="cls-15" d="M391.1,234.4c2.9,1.9,3.9,4.9,3.1,7.8-2.9,10.7,2.3,19.8,5.5,29.4,1.2,3.6,2.8,7,3.1,10.8-2-.6-2.4.5-2.3,2.2,1,16.5,1.4,33,4.5,49.3,1.1,5.7,1,11.5,1.4,17.3.3,3.7-2.8,5-5.3,5.6-3.3.8-2.7-2.6-3.1-4.5-5.9-26.1-10.7-52.4-14.7-78.8-.2-1.4-.7-2.7-1-4.1,3.7-6.6,4-14.5,8.3-21.1,2.8-4.3,2.6-9.4-1-13.8.4-.6.9-.7,1.5-.1Z"/>
      <path class="cls-15" d="M391.1,234.4c2.9,1.9,3.9,4.9,3.1,7.8-2.9,10.7,2.3,19.8,5.5,29.4,1.2,3.6,2.8,7,3.1,10.8-2-.6-2.4.5-2.3,2.2,1,16.5,1.4,33,4.5,49.3,1.1,5.7,1,11.5,1.4,17.3.3,3.7-2.8,5-5.3,5.6-3.3.8-2.7-2.6-3.1-4.5-5.9-26.1-10.7-52.4-14.7-78.8-.2-1.4-.7-2.7-1-4.1,3.7-6.6,4-14.5,8.3-21.1,2.8-4.3,2.6-9.4-1-13.8.4-.6.9-.7,1.5-.1Z"/>
      <path class="cls-1" d="M488.6,274c.9-5.1,3.7-6.7,8.8-6,3.2.4,6.7.9,9.9-.7,19.6-6.2,39.3-12,59.2-17,1.1-.3,2.2-.7,3.2-1.1,2.7,2.6,2.2,6.3,3.2,9.5.6,2.2-1.2,3-3.1,3.5-23.2,6.5-46.4,13.5-70.2,17.7-4.7.8-9.2-.5-11-5.9Z"/>
      <path class="cls-1" d="M488.6,274c.9-5.1,3.7-6.7,8.8-6,3.2.4,6.7.9,9.9-.7,19.6-6.2,39.3-12,59.2-17,1.1-.3,2.2-.7,3.2-1.1,2.7,2.6,2.2,6.3,3.2,9.5.6,2.2-1.2,3-3.1,3.5-23.2,6.5-46.4,13.5-70.2,17.7-4.7.8-9.2-.5-11-5.9Z"/>
      <path class="cls-18" d="M638.4,247.8c-.2,1.7-1.1,2.5-2.9,2-9.7-2.4-18.9-.1-28.1,2.5-6.3,1.8-12.6,3.7-19,5.1-5.6,1.2-9.1,3.3-6.8,9.7-3-5.6-8.9-9.4-9.1-16.6,0-1.3-1.9-1.2-2.9-1.8,16.6-3.9,33.5-6.3,50.5-8.3,7.7-.9,13.6,1.5,18.3,7.4Z"/>
      <path class="cls-18" d="M638.4,247.8c-.2,1.7-1.1,2.5-2.9,2-9.7-2.4-18.9-.1-28.1,2.5-6.3,1.8-12.6,3.7-19,5.1-5.6,1.2-9.1,3.3-6.8,9.7-3-5.6-8.9-9.4-9.1-16.6,0-1.3-1.9-1.2-2.9-1.8,16.6-3.9,33.5-6.3,50.5-8.3,7.7-.9,13.6,1.5,18.3,7.4Z"/>
      <path class="cls-9" d="M434.4,600.8c-1.5.1-2.3,2.7-4.2,1.2-10.4-8.8-21.8-16.8-23.8-32.2,3.4,7.9,11.7,9.9,17.5,15,2.7,2.3,5.6,4.4,9.3,5.3,3.8.9,5.5,3.1,3.6,7-.8,1.3-1.6,2.5-2.4,3.8Z"/>
      <path class="cls-9" d="M434.4,600.8c-1.5.1-2.3,2.7-4.2,1.2-10.4-8.8-21.8-16.8-23.8-32.2,3.4,7.9,11.7,9.9,17.5,15,2.7,2.3,5.6,4.4,9.3,5.3,3.8.9,5.5,3.1,3.6,7-.8,1.3-1.6,2.5-2.4,3.8Z"/>
      <path class="cls-2" d="M509,123.5c-7.7,3.9-7.6,3.9-13.1-3.6-5-6.7-9.4-13.7-10.4-23.1,4.3,2.8,4.7,7.5,8.1,10.1,4.6,3.6,9.7,6.4,14.4,9.8,1.6,1.2,3.7,1.8,3.7,4.3-.9.8-1.7,1.6-2.6,2.5Z"/>
      <path class="cls-2" d="M509,123.5c-7.7,3.9-7.6,3.9-13.1-3.6-5-6.7-9.4-13.7-10.4-23.1,4.3,2.8,4.7,7.5,8.1,10.1,4.6,3.6,9.7,6.4,14.4,9.8,1.6,1.2,3.7,1.8,3.7,4.3-.9.8-1.7,1.6-2.6,2.5Z"/>
      <path class="cls-12" d="M750.6,1027.3c5,1.7,9.2,4.5,12.7,8.5,8.4,9.5,12.6,10.3,24.1,5.4.9-.4,1.9-.5,2.9-.8-7,7-20.5,7-25.6-.5-3.6-5.3-9.8-7.9-14.1-12.5Z"/>
      <path class="cls-12" d="M750.6,1027.3c5,1.7,9.2,4.5,12.7,8.5,8.4,9.5,12.6,10.3,24.1,5.4.9-.4,1.9-.5,2.9-.8-7,7-20.5,7-25.6-.5-3.6-5.3-9.8-7.9-14.1-12.5Z"/>
      <path class="cls-12" d="M746.2,1021.2c1.5,2.1,3,4.1,4.5,6.2-5.5-1.6-6.2-5.9-6.2-10.7,1.9,1,.8,3.2,1.7,4.5Z"/>
      <path class="cls-12" d="M746.2,1021.2c1.5,2.1,3,4.1,4.5,6.2-5.5-1.6-6.2-5.9-6.2-10.7,1.9,1,.8,3.2,1.7,4.5Z"/>
      <path class="cls-6" d="M391.1,234.4c-.5,0-1,0-1.5.1-6.5-4.6-14.2-7-20.4-12.3-6.5-5.6-8.9-12.4-9.8-20.4-2.1-3.3-1.3-7.3-2.3-10.8-1.7-7.3,4.6-3.7,7.2-5.3,2.3-1.3,4.2-.6,6,1,1.2,1,2.3,2.2,3.7,3.1,4.3,2.5,6.4,1.5,6.6-3.5.3-7,0-14,.1-21,0-3.4.5-6.5,4.1-7.9,7.5,2.8,15.9,2.8,22.9,7.3,2.7,2.7,2.7,6.5,4.4,9.7,1,1.9,1.6,4.1,2.7,6,7.3,12.1,14.1,15,27.9,11.8,1.9-.4,3.8-1.3,5.9-.9,2.4-.5,4.7-1,7.1-1.5-9.4,7.5-20.2,8.7-31.2,5.6-7.2-2-9.9-9.5-13.7-15.4-1.7-2.6-2.4-5.9-3.6-8.9-1-2.4-.5-5.7-4-6.9-5.5-1.9-11.1-3.5-16.9-4-1.8-.2-1.7,2-1.7,3.3-.2,21.2-1.7,42.4,2.6,63.4.6,2.8,1.8,5.3,3.6,7.5Z"/>
      <path class="cls-6" d="M391.1,234.4c-.5,0-1,0-1.5.1-6.5-4.6-14.2-7-20.4-12.3-6.5-5.6-8.9-12.4-9.8-20.4-2.1-3.3-1.3-7.3-2.3-10.8-1.7-7.3,4.6-3.7,7.2-5.3,2.3-1.3,4.2-.6,6,1,1.2,1,2.3,2.2,3.7,3.1,4.3,2.5,6.4,1.5,6.6-3.5.3-7,0-14,.1-21,0-3.4.5-6.5,4.1-7.9,7.5,2.8,15.9,2.8,22.9,7.3,2.7,2.7,2.7,6.5,4.4,9.7,1,1.9,1.6,4.1,2.7,6,7.3,12.1,14.1,15,27.9,11.8,1.9-.4,3.8-1.3,5.9-.9,2.4-.5,4.7-1,7.1-1.5-9.4,7.5-20.2,8.7-31.2,5.6-7.2-2-9.9-9.5-13.7-15.4-1.7-2.6-2.4-5.9-3.6-8.9-1-2.4-.5-5.7-4-6.9-5.5-1.9-11.1-3.5-16.9-4-1.8-.2-1.7,2-1.7,3.3-.2,21.2-1.7,42.4,2.6,63.4.6,2.8,1.8,5.3,3.6,7.5Z"/>
      <path class="cls-8" d="M448.8,191.2c-13.9,8.4-31.4,2.1-37-13.6-1.5-4.3-3.9-8.3-3.9-13.1,5.3-1.1,11,.3,16.2-2.3,1.6-.8,3.6.2,4.9,1.6,7.6,8.4,14.6,17.2,19.9,27.3Z"/>
      <path class="cls-8" d="M448.8,191.2c-13.9,8.4-31.4,2.1-37-13.6-1.5-4.3-3.9-8.3-3.9-13.1,5.3-1.1,11,.3,16.2-2.3,1.6-.8,3.6.2,4.9,1.6,7.6,8.4,14.6,17.2,19.9,27.3Z"/>
      <path class="cls-10" d="M385,157.3c-1.9,2-2.5,4.4-2.5,7.1.2,7,.2,14,0,21,0,2.6,1.7,6.4-1.6,7.6-3.5,1.3-7.2-.3-9.7-3.1-1.9-2.1-3.7-4.2-6.8-4.2,0,0,0-.3,0-.3,2-3.2,1.1-6.4.3-9.8-.9-3.7-1.8-7.3-1.9-11.1.4-4.7-1.3-9.3-1.4-13.9,0-.7.2-1.2.6-1.8-1.3-4.6-7.4-7.6-4.2-14.5,4.1,5.1,4.8,12.3,10.3,15.5,5.3,3.1,11.3,5,16.9,7.5Z"/>
      <path class="cls-10" d="M385,157.3c-1.9,2-2.5,4.4-2.5,7.1.2,7,.2,14,0,21,0,2.6,1.7,6.4-1.6,7.6-3.5,1.3-7.2-.3-9.7-3.1-1.9-2.1-3.7-4.2-6.8-4.2,0,0,0-.3,0-.3,2-3.2,1.1-6.4.3-9.8-.9-3.7-1.8-7.3-1.9-11.1.4-4.7-1.3-9.3-1.4-13.9,0-.7.2-1.2.6-1.8-1.3-4.6-7.4-7.6-4.2-14.5,4.1,5.1,4.8,12.3,10.3,15.5,5.3,3.1,11.3,5,16.9,7.5Z"/>
      <path class="cls-10" d="M357.2,191c1.5,3.5,1.6,7.2,2.3,10.8-3.4-3.1-2.2-7.1-2.3-10.8Z"/>
      <path class="cls-10" d="M357.2,191c1.5,3.5,1.6,7.2,2.3,10.8-3.4-3.1-2.2-7.1-2.3-10.8Z"/>
      <path class="cls-12" d="M757.7,975.5c4.4,2.4,4.2,7.3,4.7,11,.5,4.7,1.7,8.9,3.5,13.2,1.2,2.7,2.2,5.7,2.7,8.6.7,4.1,1.9,8.7-3,11.2-5,2.5-10.1,3.5-15-.4,3.8-6.1,8.8-11.4,9.9-18.9.8-5.5.8-10.2-4.3-14.3-4-3.2-1.6-7.3,1.6-10.3Z"/>
      <path class="cls-12" d="M757.7,975.5c4.4,2.4,4.2,7.3,4.7,11,.5,4.7,1.7,8.9,3.5,13.2,1.2,2.7,2.2,5.7,2.7,8.6.7,4.1,1.9,8.7-3,11.2-5,2.5-10.1,3.5-15-.4,3.8-6.1,8.8-11.4,9.9-18.9.8-5.5.8-10.2-4.3-14.3-4-3.2-1.6-7.3,1.6-10.3Z"/>
      <path class="cls-21" d="M377.6,764.6c.5,4.9-1,9.6-2.7,13.9-5.5,14.2-6.9,29.2-9.4,44-2.4,1.6-3.4.3-4.6-1.8-2.2-3.8-1.3-7.8-1.4-11.8-.2-4,1.3-8.7-4.6-10.2-1.4-.4-1.5-2.3-1.4-3.7.4-6.2-.9-12.4.9-18.5.5-1.5.6-3.3.2-4.8-2-7.9.7-16.2-1.4-23.7-4.5-16.3,4-31.9,1.5-47.9-.2-1.4.1-3.2,1.6-3.6,5.4-1.3,4.5-5.4,4.3-9.1-.3-6.1,3.8-12,.5-18.2-.2-.4.8-1.7,1.5-2.4,3.5-3.8,4.5-6.7-.2-11-3.3-3-2.7-8.8-3.7-13.3,0-.4.9-1.4,1.5-1.6.8-.3,1.3.5,1.7,1.3,1.4,3.3,4,5.9,3.8,9.9-.2,2.4.6,5.1,3.9,5,3-.1,2.7-2.6,3.4-4.8,1.1-3.6,1.1-6.6-2.1-9.1-.6-.5-1.2-2.4-.9-2.6,4-3.5,2.4-11.4,9.7-12.4,1.1-.2,2.2-1,3-1.9,2.7-2.9,4.5-3.9,6.9.8,1.9,3.9,5.9,3.2,7.3-1,1.5-4.2,3.6-3.2,6.9-2.4,7.3,1.9,9,4,2.8,10.1-3.1,3-1.4,8.5-.8,12.8.2,1.9.5,4.8,3.8,4.4,3-.4,3.1-2.7,3.1-5,0-4.6-.3-9.3,3.2-13,1.4-1.6,2.9-3,5-.8,1.7,1.8,1.9,3.4.2,5.2-.3.3-.6.6-.8.9-5.3,6.3-5.2,8.3.3,14.6,1.5,1.7,3.1,4,1.2,5.9-2.1,2.1-2.9-.9-4-2-2.7-2.8-4.9-2.4-6.4,1.1-1.2,2.5-2.6,4.1-5.8,4.3-5,.3-6.2,3.3-3.5,7.8.7,1.2,3.2,2.2,1,3.8-1.5,1-2.9-.2-4-1.6-1.3-1.7-3.1-2.6-5.2-2.7-3.1-.3-6.2-.4-6.4,4.1-.2,3.8,1.3,5.7,5.2,5.4,1.4,0,2.8,0,4.7,0-.5,3-2.8,5-2.9,7.8,0,1.5-1.4,2.1-2.6,1.5-2.5-1.1-4.2-.7-5.2,2-.9,2.4-.3,4.5,1.7,5.8,4.5,2.8,5.6,5.3.5,9-2.6,1.9-.7,3.5,1.6,4,3.4.7,3.9,2.6,1.3,4.2-3.3,2.1-4.1,5.3-5.2,8.5-.6,2-1.4,3.7-3,5.1-1.3,1.1-2.6,2-4.3,1.4-2.2-.8-.5-2.4-.4-3.6.1-1.7.1-3.6-1.7-4-2.5-.6-2.7,1.6-3,3.4-.3,1.8-1,3.5-2.7,4.5-3.3,1.8-6.3,4.6-3.6,8,3.3,4.3,5-1.7,8.4-2.4.2,2,.2,4,.6,6,.4,2.3,2.3,5-.3,6.6-3,1.9-3.1-2-4.7-3.2-.9-.7-1.8-1.9-3.1-1.3-1.2.5-1.6,1.7-1.7,3-.5,4.9,1,9.5,2.5,14.1.6,1.8,2.1,1.5,3.5,1.7,2.2.3,4.5.7,4.9,3.6Z"/>
      <path class="cls-21" d="M377.6,764.6c.5,4.9-1,9.6-2.7,13.9-5.5,14.2-6.9,29.2-9.4,44-2.4,1.6-3.4.3-4.6-1.8-2.2-3.8-1.3-7.8-1.4-11.8-.2-4,1.3-8.7-4.6-10.2-1.4-.4-1.5-2.3-1.4-3.7.4-6.2-.9-12.4.9-18.5.5-1.5.6-3.3.2-4.8-2-7.9.7-16.2-1.4-23.7-4.5-16.3,4-31.9,1.5-47.9-.2-1.4.1-3.2,1.6-3.6,5.4-1.3,4.5-5.4,4.3-9.1-.3-6.1,3.8-12,.5-18.2-.2-.4.8-1.7,1.5-2.4,3.5-3.8,4.5-6.7-.2-11-3.3-3-2.7-8.8-3.7-13.3,0-.4.9-1.4,1.5-1.6.8-.3,1.3.5,1.7,1.3,1.4,3.3,4,5.9,3.8,9.9-.2,2.4.6,5.1,3.9,5,3-.1,2.7-2.6,3.4-4.8,1.1-3.6,1.1-6.6-2.1-9.1-.6-.5-1.2-2.4-.9-2.6,4-3.5,2.4-11.4,9.7-12.4,1.1-.2,2.2-1,3-1.9,2.7-2.9,4.5-3.9,6.9.8,1.9,3.9,5.9,3.2,7.3-1,1.5-4.2,3.6-3.2,6.9-2.4,7.3,1.9,9,4,2.8,10.1-3.1,3-1.4,8.5-.8,12.8.2,1.9.5,4.8,3.8,4.4,3-.4,3.1-2.7,3.1-5,0-4.6-.3-9.3,3.2-13,1.4-1.6,2.9-3,5-.8,1.7,1.8,1.9,3.4.2,5.2-.3.3-.6.6-.8.9-5.3,6.3-5.2,8.3.3,14.6,1.5,1.7,3.1,4,1.2,5.9-2.1,2.1-2.9-.9-4-2-2.7-2.8-4.9-2.4-6.4,1.1-1.2,2.5-2.6,4.1-5.8,4.3-5,.3-6.2,3.3-3.5,7.8.7,1.2,3.2,2.2,1,3.8-1.5,1-2.9-.2-4-1.6-1.3-1.7-3.1-2.6-5.2-2.7-3.1-.3-6.2-.4-6.4,4.1-.2,3.8,1.3,5.7,5.2,5.4,1.4,0,2.8,0,4.7,0-.5,3-2.8,5-2.9,7.8,0,1.5-1.4,2.1-2.6,1.5-2.5-1.1-4.2-.7-5.2,2-.9,2.4-.3,4.5,1.7,5.8,4.5,2.8,5.6,5.3.5,9-2.6,1.9-.7,3.5,1.6,4,3.4.7,3.9,2.6,1.3,4.2-3.3,2.1-4.1,5.3-5.2,8.5-.6,2-1.4,3.7-3,5.1-1.3,1.1-2.6,2-4.3,1.4-2.2-.8-.5-2.4-.4-3.6.1-1.7.1-3.6-1.7-4-2.5-.6-2.7,1.6-3,3.4-.3,1.8-1,3.5-2.7,4.5-3.3,1.8-6.3,4.6-3.6,8,3.3,4.3,5-1.7,8.4-2.4.2,2,.2,4,.6,6,.4,2.3,2.3,5-.3,6.6-3,1.9-3.1-2-4.7-3.2-.9-.7-1.8-1.9-3.1-1.3-1.2.5-1.6,1.7-1.7,3-.5,4.9,1,9.5,2.5,14.1.6,1.8,2.1,1.5,3.5,1.7,2.2.3,4.5.7,4.9,3.6Z"/>
      <path class="cls-13" d="M337.7,866c-.3.5-.8.9-.9,1.5-.8,3.3,1.5,7.8-1.3,9.7-2.1,1.4-6.1-.3-9.3-.3-16.1,0-32.2,0-48.2-.1-3.7,0-7.1,1.2-10.7,1.3-3,.1-4.4-.9-4.3-4.1.1-10.4,0-20.9,0-31.3,0-3,.8-4.4,4.1-4.4,19.6-.2,39-4,58.7-3.6,3.4,0,7.1-2.9,9.8-.5,2.7,2.4.5,6.5,1.3,9.8.1.5.6,1,.9,1.5,0,6.9,0,13.7,0,20.6Z"/>
      <path class="cls-13" d="M337.7,866c-.3.5-.8.9-.9,1.5-.8,3.3,1.5,7.8-1.3,9.7-2.1,1.4-6.1-.3-9.3-.3-16.1,0-32.2,0-48.2-.1-3.7,0-7.1,1.2-10.7,1.3-3,.1-4.4-.9-4.3-4.1.1-10.4,0-20.9,0-31.3,0-3,.8-4.4,4.1-4.4,19.6-.2,39-4,58.7-3.6,3.4,0,7.1-2.9,9.8-.5,2.7,2.4.5,6.5,1.3,9.8.1.5.6,1,.9,1.5,0,6.9,0,13.7,0,20.6Z"/>
      <path class="cls-21" d="M345.6,864.4c2.3.8,1.2,3,1.9,4.1,3.5,5.5,6.6,11.5,11.2,15.8,2.5,2.4,7.8,1.1,11.5,3.8,1.7,1.2,4.9-1.4,5.9-4,1-3-.7-5.1-3.5-6-4.2-1.3-8.4-2.4-12.7-3.5-2.1-.5-3.8-1.3-4-3.8-.4-7.1-3.4-13.9-2.6-21.2.4-4,1-9.4-6.5-8.2-2.2.4-2.8-2.6-2.9-4.6-1.3-23.2-1.8-46.4-1-69.7.2-4.4-.4-9.7,3.2-13.7,2.9,3.4,3.3,4.5,1.8,8.9-2.4,7.1-2.2,14-.1,21.2,1.7,5.6,1.7,11.6,0,17.2-2.2,7.8-2.6,15.3.2,22.9.9,2.6.5,5.2.6,7.8.1,3-.7,6.5,4.6,4.6,2.6-.9,3.1,1.8,3.7,3.7,1.8,5.4,1.3,11.1,1.3,16.7,0,8.4,2.6,12,10.5,14.7.9.3,1.9.6,2.9.9,11.1,4.2,13.6,11.7,7,21.5-1.8,2.6-3.6,1.7-5.5.2-4.5-3.7-9-6.5-15.3-4.4-2.7.9-2.7-2-3.3-3.9-1.2-3.4-2.3-7.2-7.4-4.6-2.5,1.3-3.1-.4-3.3-2.6-.3-4.8.4-9.4,1.8-14Z"/>
      <path class="cls-21" d="M345.6,864.4c2.3.8,1.2,3,1.9,4.1,3.5,5.5,6.6,11.5,11.2,15.8,2.5,2.4,7.8,1.1,11.5,3.8,1.7,1.2,4.9-1.4,5.9-4,1-3-.7-5.1-3.5-6-4.2-1.3-8.4-2.4-12.7-3.5-2.1-.5-3.8-1.3-4-3.8-.4-7.1-3.4-13.9-2.6-21.2.4-4,1-9.4-6.5-8.2-2.2.4-2.8-2.6-2.9-4.6-1.3-23.2-1.8-46.4-1-69.7.2-4.4-.4-9.7,3.2-13.7,2.9,3.4,3.3,4.5,1.8,8.9-2.4,7.1-2.2,14-.1,21.2,1.7,5.6,1.7,11.6,0,17.2-2.2,7.8-2.6,15.3.2,22.9.9,2.6.5,5.2.6,7.8.1,3-.7,6.5,4.6,4.6,2.6-.9,3.1,1.8,3.7,3.7,1.8,5.4,1.3,11.1,1.3,16.7,0,8.4,2.6,12,10.5,14.7.9.3,1.9.6,2.9.9,11.1,4.2,13.6,11.7,7,21.5-1.8,2.6-3.6,1.7-5.5.2-4.5-3.7-9-6.5-15.3-4.4-2.7.9-2.7-2-3.3-3.9-1.2-3.4-2.3-7.2-7.4-4.6-2.5,1.3-3.1-.4-3.3-2.6-.3-4.8.4-9.4,1.8-14Z"/>
      <path class="cls-21" d="M373.1,623.1c-.6-.4-1.8-.8-2.1-1.6-.6-1.4.6-2.2,1.8-2.5,4-1.2,8-2.5,11.2-5.6,1-1,3-1.2,3.7.2.9,1.6-.9,2.3-2.1,3-4.1,2.1-7.7,5.1-12.5,6.5Z"/>
      <path class="cls-21" d="M373.1,623.1c-.6-.4-1.8-.8-2.1-1.6-.6-1.4.6-2.2,1.8-2.5,4-1.2,8-2.5,11.2-5.6,1-1,3-1.2,3.7.2.9,1.6-.9,2.3-2.1,3-4.1,2.1-7.7,5.1-12.5,6.5Z"/>
      <path class="cls-21" d="M366.7,630.1c0,1.7-.2,3.8-2.1,3.7-2.3,0-1.4-2.4-1.5-3.8,0-1.4-.5-3.7,1.8-3.6,2.3,0,1.5,2.3,1.7,3.6Z"/>
      <path class="cls-21" d="M366.7,630.1c0,1.7-.2,3.8-2.1,3.7-2.3,0-1.4-2.4-1.5-3.8,0-1.4-.5-3.7,1.8-3.6,2.3,0,1.5,2.3,1.7,3.6Z"/>
      <path class="cls-21" d="M402.2,614.2c0,1.2-.7,1.9-1.8,1.8-1.5-.2-3.2-.7-3.8-2.2-.6-1.5.9-2,2-2,1.7,0,2.8,1.1,3.6,2.5Z"/>
      <path class="cls-21" d="M402.2,614.2c0,1.2-.7,1.9-1.8,1.8-1.5-.2-3.2-.7-3.8-2.2-.6-1.5.9-2,2-2,1.7,0,2.8,1.1,3.6,2.5Z"/>
      <path class="cls-21" d="M400.4,694.1c-.3,1-.4,2.5-2.1,2.1-1.4-.3-1.4-1.7-1.4-2.9,0-1.1.6-2,1.8-1.9,1.6.1,1.7,1.4,1.7,2.7Z"/>
      <path class="cls-21" d="M400.4,694.1c-.3,1-.4,2.5-2.1,2.1-1.4-.3-1.4-1.7-1.4-2.9,0-1.1.6-2,1.8-1.9,1.6.1,1.7,1.4,1.7,2.7Z"/>
      <path class="cls-7" d="M457.4,89.6c3.6.4,7.2.8,10.8,1.3-3.9,2.4-7.5,2.2-10.8-1.3Z"/>
      <path class="cls-7" d="M457.4,89.6c3.6.4,7.2.8,10.8,1.3-3.9,2.4-7.5,2.2-10.8-1.3Z"/>
      <path class="cls-21" d="M364.4,164.5c-2-4.6-2.6-9.4-2.3-14.4,1.6,4.7,2.6,9.4,2.3,14.4Z"/>
      <path class="cls-21" d="M364.4,164.5c-2-4.6-2.6-9.4-2.3-14.4,1.6,4.7,2.6,9.4,2.3,14.4Z"/>
    </g>
  </g>
</svg>