<?xml version="1.0" encoding="UTF-8"?>
<svg id="Layer_1" data-name="Layer 1" xmlns="http://www.w3.org/2000/svg" viewBox="0 0 1080 1080">
  <defs>
    <style>
      .cls-1 {
        fill: #e0ab86;
      }

      .cls-2 {
        fill: #818282;
      }

      .cls-3 {
        fill: #838383;
      }

      .cls-4 {
        fill: #a3a3a3;
      }

      .cls-5 {
        fill: #e1a77c;
      }

      .cls-6 {
        fill: #9ecca2;
      }

      .cls-7 {
        fill: #fdcca7;
      }

      .cls-8 {
        fill: #4f4e4d;
      }

      .cls-9 {
        fill: #949392;
      }

      .cls-10 {
        fill: #ccc;
      }

      .cls-11 {
        fill: #bcbcbc;
      }

      .cls-12 {
        fill: #828281;
      }

      .cls-13 {
        fill: #a0a0a0;
      }

      .cls-14 {
        fill: #282828;
      }

      .cls-15 {
        fill: #5d5c5b;
      }

      .cls-16 {
        fill: #919191;
      }

      .cls-17 {
        fill: #a4a3a3;
      }

      .cls-18 {
        fill: #e1ac80;
      }

      .cls-19 {
        fill: #81807d;
      }

      .cls-20 {
        fill: #5b5b5c;
      }

      .cls-21 {
        fill: #fccca7;
      }

      .cls-22 {
        fill: #a5a5a5;
      }

      .cls-23 {
        fill: #909090;
      }

      .cls-24 {
        fill: #fdfbfa;
      }

      .cls-25 {
        fill: #bebab7;
      }

      .cls-26 {
        fill: #a4a4a4;
      }

      .cls-27 {
        fill: #e0a77f;
      }

      .cls-28 {
        fill: #e6b591;
      }

      .cls-29 {
        fill: #eddfd4;
      }

      .cls-30 {
        fill: #5d5c5c;
      }

      .cls-31 {
        fill: #e6b592;
      }

      .cls-32 {
        fill: #d84140;
      }

      .cls-33 {
        fill: #7f7e7d;
      }

      .cls-34 {
        fill: #9f9f9f;
      }

      .cls-35 {
        fill: #e6ebed;
      }

      .cls-36 {
        fill: #bfb9b6;
      }

      .cls-37 {
        fill: #fcf9f4;
      }

      .cls-38 {
        fill: #76c17f;
      }

      .cls-39 {
        fill: #909190;
      }

      .cls-40 {
        fill: #5e605d;
      }

      .cls-41 {
        fill: #b7b7b7;
      }

      .cls-42 {
        fill: #e5e1e0;
      }

      .cls-43 {
        fill: #5c5b5e;
      }
    </style>
  </defs>
  <g>
    <path class="cls-42" d="M340.17,792.01l.97,2.15c-3.01,12.88-6.2,26.37-9.74,39.49,2.8,2.94,7.13,4.04,11.05,4.83l.98,2.28c6.51.53,7.49,2.16,6.36,8.87-6.87,21.14-2.38,24.01,19.03,23.91,21.11-1.65,42.29-1.42,63.56.7,5.5,0,11.01-.28,16.43-1.24,12.23-2.18,17.56-3.26,16.61-15.48-.07-.92.18-1.82.48-2.68,1.81,1.52,3.26-.02,4.09,5.16,2.47,15.45-27.25,17.99-38.24,18.66-14.14.86-25.87-2.82-39.01-3.02-8.59-.13-18.15,2.24-27.09,1.93-4.01-.14-13.15-1.27-16.48-3.02-14.02-7.41,0-24.48-4.08-30.59-1.69-2.53-15.64-2.6-16.84-9.21-.41-2.25,1.76-13,2.42-15.94,1.13-5.01,3.77-10.86,4.91-15.68.59-2.51-.22-10.06,2.42-11.12.79-.5,1.66-.83,2.17,0Z"/>
    <path class="cls-24" d="M812.75,553.7c.43-1.15,2.36-2.99,3.79-3.26,7.3-1.39,22.01.21,30.4.05,5.08-.1,19.62-3.7,22.76,1,1.56,2.33-.38,2.21-1.67,3.29l-.14,1.51c-4.59,1.49-6.94,4.45-7.06,8.88-16.93.86-33.68,1.36-50.25,1.52.99-3.58,1.1-10.15,2.17-13Z"/>
    <g>
      <path class="cls-14" d="M713.03,555.87l1.39-2.06c23.33,1.4,46.36,7.39,68.76,13.44,9.49,3.7,18.26,4.24,26.32,1.61l1.37-1.31c15.93-1.33,31.73-1.97,47.4-1.94.8,3.98,1.63,8.26,2.49,12.83,2.41.78,4.42,1.87,6.02,3.28l-3.1,8.8c2.53,2.09,1.26,9.25-2.17,9.75l-8.43,42.37c1.46,2.45,1.12,7.22-2.41,7.46-28.16,2.82-57.13,2.15-85.22,1.37-15.77-.44-31.6-2.32-45.93-7.87-1.09,1.91-2.18,1.19-3.25-2.17-2.41,2.46-3.09.77-3.25-2.17-24.85-18.62-19-41.96-8.33-67.36,2.08-4.95,6.76-11.46,8.33-16.05Z"/>
      <path class="cls-32" d="M794.33,359.81c16.24,13.2,41.84,42.33,44.35,63.46,1.37,11.57-6.06,40.42-8.58,53.53-.39,4.57-4.06,31.95-6.82,33.05l-41.45-19.6c1.94-11.64,3.44-21.39,2.04-33.18-7.02-18.72-2.1-31.1,5.63-48.08,4.24-17.87,1.88-26.26-9.46-39.13-2.05-2.33-4.12-5.04-5.23-7.89-5.5-7-10.94-11.99-19.51-15.7-.75-1.42-.34-2.66,1.09-3.31,5.24-2.41,32.39,13.3,37.94,16.85Z"/>
      <path class="cls-32" d="M911.39,780.09c2.39,9.17,8.74,16.86,18.93,16.26,4.16-.24,8.83-3.32,11.85-3.23,15.91.49,7.14,22.19,11.96,26.05.72.58,3.56,1.45,4.96,2.08-1.65,2.62-2.37,6.32-2.09,10.31.25,3.62,1.3,8.77,5.94,7.4l1.57,1.79c-1.51.9-2.99,1.5-2.08,3.67,2.76,6.59,22.73.05,24.78,13.19,3,19.2-28.67,17.2-40.46,15.51-24.01-3.45-22.91-8.6-39.17-21.51-9.16-7.27-23.47-13.87-29.78-24.94-.2-.34-2.86-6.8-2.99-7.3-.88-3.23-2-11.69-1.11-14.68.08-.28,2.78-4.93,3.02-5.1.03-2.21,2.07-4.02,6.12-5.42l17.7-18.56,9.78-.94c.72,1.45,1.08,3.26,1.08,5.42Z"/>
      <path class="cls-14" d="M792.16,212.49c1.19,14.15-.38,12.85-12.59,15.04-5.77,1.03-8.28-1.08-13.96,3.38-11.95,9.39-1.27,15.87-1.7,25.37-.09,1.88-3.97,14.31-6.47,10.81-1.92-2.68-3.98-10.17-7.56-11.8-10.57-4.81-12.14,8.74-10.78,16.18.72,3.93,6.39,7.45,6.43,9.77s-6.08,14.87-8.08,16.86c-3.98,3.97-11.9,5.94-15.75,1.05-9.94-18.59-26.53-41.24-18.87-63.82,2.35-6.94,7.32-7.68,9.88-11.25,4.28-5.98-.77-10.18,10.1-15.37,13.18-6.29,34.77-11.15,49.02-7.86,5.03,1.16,17.41,7.54,20.33,11.64Z"/>
      <path class="cls-32" d="M718.45,471.38c2.86-.64,2.07,1.49,2.75,3.15,6.9,16.9,15.42,39.87,23.55,55.59,6.88,13.32,35.27,17.42,49.17,19.1,4.5.55,8.99-.14,13.65.46,2.89.37,6.24,0,5.18,4.02,2.4,2.64,1.66,11.74-2.17,13,1.02.54.66,1.26-1.08,2.17-.11.09.15,1.66-1.07,2.67s-4.24,1.58-5.85,1.56c-7.33-.1-33.19-7.03-41.45-9.47-10.25-3.04-22.16-4.05-33.57-6.56l-14.52-1.2c1.26-3.67,2.26-12.54,2.99-17.05,3.21-19.7,3.97-47.42,2.43-67.44Z"/>
      <path class="cls-32" d="M959.08,821.26c.91.41,1.69,1.36,2.97,1.86,2.85,1.1,8.6,0,10.23,3.98,2.45,5.99-2.18,11.76-7.78,13.66-6.03,2.05-8.49-1.41-9.51-7.3-.84-4.86,1.86-7.56-1.34-11.64l5.43-.55Z"/>
      <path class="cls-32" d="M910.3,774.68l-1.09,6.5c-3.31-3-1.21-6.24-7.55-3.76l-16.39,17.19c-1.63,2.8-7.48,4.21-8.56,4.99-5.98-6.08-3.21-16.37-5.5-24.17,5.33-4,10.18-8.9,14.78-13.71,1.25-1.31,1.41-3.13,1.55-3.28.35-.37.73-.71,1.08-1.08.99-1.03,6.53-6.06,7.27-6.28,8.45-2.54,6.06,3.95,7.86,9.03,2.36,6.66,5.25,6.49,6.54,14.58Z"/>
      <g>
        <path class="cls-7" d="M773.73,361.97c3.17,2.75,4.98,5.64,5.42,8.67,3.71,3.47,7.48,14.09,4.34,17.87.93-.08,1.55.32,2.17.95s.21,16.32,0,18.11l-2.17,1.52c.9.26,1.64.76,2.08,1.62.74,1.46-3.27,12.05-4.24,14.09l1.12.76c-2.83,10.58-2.27,21.59,1.68,33.03.88,8.23,1.15,18.85-2.8,25.79-1.83,2-5.07,3.12-9.72,3.35,4.38-.92,7.26-.23,8.63,2.07.77-1.06,1.54-.7,2.29,1.06l37.89,17.8c2.02,1.51,3.8.99,5.34-1.53,1.95-.49,2.97-.55,4.9-.06,19.03,4.76,31.73,14.85,53.11,10.86,2.87-.53,3,1.18,2.69-3.22,9.26-.69,18.65-1.06,28.18-1.08-.11,3.58,4.76,2.89,6.57,5.89,2.49,4.13-.09,6.25-.07,9.82.05,10.01,1.29,12.52-4.33,22.21.79.68.43,1.04-1.08,1.08,2.82,3.56-4.1,10.54-7.59,6.5-4,4.84-15.97,4.52-19.51,0,.1,1.26-1.35,1.26-4.34,0-2.75.56-5.94-.28-9.55-2.54-3.11.37-5.35-.23-6.71-1.79l-.84-2.69c-16.55-.09-33.24.05-50.07.43-1.45,1.25-2.9,1.64-4.37,1.18l-2.75-1.59c-13.47-.52-27.08-1.26-40.24-4.98-20.64-5.82-24.08-9.1-32.94-28.66-6.88-15.16-13.61-32.96-18.37-47.1-.91-11.9-5.22-23.56-7.59-34.66l1.13-2.48c-.52-10.57-2.29-21.11-5.47-31.1-1.55-2.41-1.84-1.99-2.17-5.42l1.7-.55c-1.14-17.33,2.09-36.28,16.77-47.45,17.77-13.52,39.85-5.35,50.9,12.25Z"/>
        <path class="cls-7" d="M944.99,724.85c-2.31,12.52-2.99,25.24-3.47,37.93-.11,3.12-.25,4.6-2.4,6.62-1.05.99-26.95-1.05-28.53-1.53-2.57-6.27-3.41-13.27-2.52-21.01-1.92-1.12-3.52-2.37-4.81-3.75-1.44-17.73-3.81-34.41-9.21-51.85l-2.79-2.28c-5.89-18.98-7.62-37.02-2.61-55.76-9.7,1.35-19.28,3.57-28.6,6.59l-5.01-.54c.97-13.06,3.13-26.05,6.5-39,.72-3.05,1.08-6.76,2.17-9.75.35-3.6,1.43-5.77,3.25-6.5,20.32,2.57,40.55,2.21,60.7-1.08-.38-3.02,1-3.08,3.25-1.08,4.15-.15,5.89-2.91,5.21-8.28l1.29-.39c-2.58,9.27,4.79,9.19,7.64,13.49,2.45,3.68,3.99,15.81,4.33,20.59,3.13,43.9.2,74.61-4.38,117.57Z"/>
        <path class="cls-32" d="M787.82,354.39c1.58,1.01,4.74,3.98,6.5,5.42-4.15.54-6-2.98-8.97-4.57-1.44-.77-3.44-.66-5.02-1.48-7.36-3.83-14.78-10.4-23.94-9.1,2.33,3.99,7.61,4.4,10.9,6.97s5.15,7.45,7.53,10.35c-.33.57-.69.55-1.08,0-24.95-30.42-60.85-17.3-65.86,20.29-.43,3.22.28,16.92-.26,17.61-1.11,1.43-2.99-1.45-3.25-2.16-.85-8.82.17-18.78,2.48-27.31,1.4-5.17,9.32-24.94,13.78-26.85,2.19-.94,12.93-2.99,15.73-3.24,17.88-1.61,36.49,4.5,51.48,14.07Z"/>
        <path class="cls-29" d="M944.99,724.85c-.81,7.6-1.5,15.64-2.16,23.3-.42,4.89,1.01,17.65-1.61,21.13-2.25,2.99-25.09-.3-29.82-1.11v11.92c-.61-2.32-.72-3.09-1.09-5.42l-2.36-.88c-1.89-4.67-4.06-9.28-6.49-13.8-.6-10.86-3.85-8.24-10.32-2.06l-2.51-.59c-3.82-5.46,6.1-10.65,11.4-10,.49-18.35-3.34-35.58-7.84-53.12l1.85-2.96c2.11,8.67,5.86,17.61,7.3,26.83.78,4.99,1,22.04,3.02,24.06,1.6,1.6,4.86,1.17,5.74,4.01,1.38,4.49-1.99,18.34,2.36,20.39,3.43,1.61,8.94.31,12.51.71,2.79.31,3.49.86,7.43,1.03,2.5.11,5.03,2.36,7.28-.57,1.97-14,1.61-28.94,5.32-42.88Z"/>
        <path class="cls-32" d="M774.82,361.97c11.11,13.55,18.98,18.07,17.33,38.44-1.2,14.82-12.07,25.66-10.7,38.9.67,6.48,3.73,13.72,4.26,20.65.81,10.59-1.39,19.57-2.82,29.83l40.05,18.49c1.14-.24,1.99-5.28,2.32-6.57,2.04-8.1,3.34-17.05,4.86-24.93.42,10.26-2.59,20.27-4.34,30.33-.4,2.29.19,5-3.53,4.12-13-7.37-26.68-13.26-40.27-19.44-1.13-.51-1.6-1.97-1.73-2.01-2.75-1.29-2.09-5.42,1.08-5.42,5.83-25.06-1.7-28.36-2.2-49.34-.11-4.4,1.74-6.62,2.2-10.24,7.21-17.46,11.09-38.67-2.17-54.16-2.45-2.68-3.9-6.81-5.42-8.67h1.08Z"/>
        <path class="cls-32" d="M706.53,403.14c.49.76,1.86.94,2.74,3.2,3.63,9.26,4.4,21.76,4.32,31.48l-2.73-1.1c-1.09-5.1-1.43-11.55-2.25-16.71-.87-5.49-3.4-10.56-2.08-16.87Z"/>
        <path class="cls-5" d="M781.32,424.8c.49-3.85,2.17-12.91,2.17-15.71v-20.58l-4.34-17.87c.19.21,2.48.52,3.86,2.07,10.7,11.9,8.58,40.13-1.7,52.09Z"/>
        <path class="cls-18" d="M781.32,484.38c-.41,1.77-.52,3.67-1.08,5.42-.65-.22-10.71.35-13.56-.01-1.51-.19-3.15-.52-1.61-2.14.8-.85,13.76-4.45,16.25-3.27Z"/>
        <g>
          <path class="cls-21" d="M787.82,354.39c-14.97-6.71-24.12-10.81-40.85-11.98-8.52-.6-16.3.67-24.34,2.77l-2.01-1.62c.52-8.22,3.76-16.12,4.37-24.33.63-8.45.6-12.8-3.29-20.08,11.09,2.26,18.33-3.66,21.72-17.74-18.05-16.64,2.8-46.37,15.12-16.68,2.1-3.8,4.09-8.25,2.66-12.62-8.71-15.74,1.42-27.5,18.03-26.72,9.27.33,12.9-3.39,10.89-11.14l2.03-1.75c3.23,4.54-.42,11.46.24,15.43s6.8,9.22,7.95,14.84-.39,11.38,1.59,16.83c1.27,3.5,11.2,15.6,10.82,17.34-.45,2.05-5.51.94-6.37,3.41-1.95,5.61,1.85,25.53-.66,29.67-1.15,1.21-2.78,1.68-4.3,2.21-4.86,1.69-21.87,5.07-23.13,9.38-1.02,3.48.62,13.53,1.96,17.08,1.81,4.81,7.33,9.22,7.56,15.73Z"/>
          <path class="cls-28" d="M792.16,314.3l-16.23,3.87c-4.11-2.62-23.47-22.14-19.54-26.6,3.99.95,5.93,5.8,9.18,8.68s10.59,7.41,14.65,9.19,9.51,1.35,11.93,4.86Z"/>
        </g>
      </g>
    </g>
    <g>
      <path class="cls-30" d="M309.83,574.28c3.6-2.97,9.94,1.04,6.55,5.46-8.78,2.64-8.07,4.71,2.13,6.2l1.07,2.42c20.46,5.7,44.03,8.88,65.03,3.25.5-2.88,1.4-2.78,2.17,0-.03.36.05.73,0,1.08-1.64,6.16-4.89,9.77-9.76,10.83-13.76,2.92-33.81.04-47.98-2.42-2.99-.52-14.58-4.62-16.01-3.61-.52,1.26-1.68,2.72-2.13,3.86,1.71-5.61-2.57-5.68-3.79-7.58-.89-1.39-.9-9.38-.52-11.35.68-3.55,6.02-4.34,3.23-8.15Z"/>
      <path class="cls-12" d="M387.87,589.45c-.16,1.08.36,1.67-1.08,2.17-.73-.77-1.45-.77-2.17,0-13.89,5.93-36.11,3.21-51.21.81-3.99-.63-10.55-1.75-13.82-4.06l3-1.58c16.45,3.2,33.31,5.94,50.09,4.74,15.68-1.12-1.01-6.14-6.86-7.34-7.56,1.02-14.71-4.04-3.73-5.57l3.02-3.26c.33-.43.66-.75,1.08-1.08,8.55.23,25.92,2.99,21.68,15.16Z"/>
      <path class="cls-39" d="M369.44,573.2c3.15.29,15.91,4.24,17.94,6.44s2.61,7.33.49,9.8c1.99-13.25-12.6-12.33-21.68-15.16,1.32-1.06,1.27-1.27,3.25-1.08Z"/>
      <path class="cls-39" d="M386.78,592.7c-.09.62-.87,3.74-1.08,4.33-2.28,6.4-2.61,5.21-8.67,6.5,1.16-2.2,4.74-1.61,5.96-3.26,1.55-2.1-.05-8.12,3.8-7.58Z"/>
      <path class="cls-39" d="M320.66,569.95c6.49-.12,9.89,4.26,16.26,6.5,4.4,1.75,4.27,3.27,3.55,7.46,9.76,3.78,14.12,2.49,13.08-3.87l3.96-1.42c3.76-.33,4.68-.47,7.59-3.25-2.12,2.71-1.03,5.46-7.59,4.34,1.28,3.4,5.84,1.69,8.96,2.41,5.69,1.3,14.96,3.48,17.05,9.49-3.83.24-7.59,1.83-11.39,2.16-15.11,1.27-37.59-2.15-52.55-5.4-2.53-.55-16.53-2.62-10.33-7.61,2.93-2.36,12.54-2.71.57-6.47-7.66-2.41-12.78-1.38-20.03-2.18-5.18-.57-25.3-4.25-28.74-3.23-1.95-2.34-.37-3.1,0-4.33,18.93,4.37,39.95,6.81,58.81,4.01l.81,1.41Z"/>
      <path class="cls-36" d="M357.52,578.62c-4.08,1.41-.5,8.66-4.83,9.31-1.45.22-12.42-1.41-13.61-2.26-2.41-1.73,1.77-6.55-2.16-9.21,7.09,2.49,12.93,2.84,20.59,2.17Z"/>
      <g>
        <path class="cls-23" d="M380.28,533.12c-9.6.69-26.67,1.58-35.77,0-4.97-.86-17.76-4.4-22.76-6.5l3.13-1.89c13.35,2.79,25.48,4.93,38.92,5.43,5.86.22,19.71.16,24.75-2.14,3.12-1.42,6.63-9.14-.42-3.33-23.67,3.11-49.78.45-71.79-7.65.31,2.72-.42,4.48-2.18,5.25-3.55-6.53-.11-14.23,6.48-16.81,12.25-4.78,53.23.58,66.36,5.21,7.88,2.78,9.93,3.72,8.38,13.16-1.26,7.69-8.64,8.8-15.11,9.26Z"/>
        <path class="cls-43" d="M314.16,522.29c-.42-1.61-.26-8.53,1.62-8.64.28-.02,3.46,2.23,4.91,2.66,3.56,1.05,8.31,2.81,11.61,3.56,10.49,2.39,46.91,6.21,56.11,2.43,3.32-1.37,2.68-4.29,5.95-4.33.85,4.52-.6,9.62-4.81,11.97-4.99,2.8-29.15,2.6-35.82,2.09-10.48-.8-21.43-4.72-31.99-5.4-2.09-.88-7.05-2.27-7.59-4.33Z"/>
        <path class="cls-11" d="M362.93,520.12c-1.24,1.21-18.24-.33-20.57-3.79-.04-3.48,17.65-2.44,19.58-.1.76.93,1.53,3.35.98,3.88Z"/>
      </g>
      <path class="cls-8" d="M384.61,591.61c-.03-3.93-5.19-7.21,1.62-7.59.91.12.66,6.25.55,7.59-.58.2-1.67-.21-2.17,0Z"/>
    </g>
    <g>
      <path class="cls-14" d="M163.5,554.79c.65-.44,1.32-.84,2.04-1.11,2.22-.84,40.41,5.32,46.39,8.15,14.25,3.48,28.57,6.35,42.93,8.64,2.3-1.07,4.36-1.6,6.19-1.59l.39-1.31c15.78,2.75,31.69,4.6,47.73,5.55l.66,1.18c4.02,1.4,3.47,3.57-1.64,6.51-1.5.95.44,11.34.75,11.88,3.98,1.72,4.63,4.61,1.97,8.69l1.49,2.25c-3.02,12.68-5.23,25.52-6.64,38.54l-2.45,1.45-1.8,4.55c.48,4.03.93,8.53-5.17,8.5-38.64-1.39-77.39-3.14-115.51-9.8-4.28,2.2-11.57-1.86-14.37-5.39l-7.3-5.45c-18.04-18.58-15.05-35.94-6.25-58.78,2.75-7.15,8.72-15.71,10.59-22.46Z"/>
      <path class="cls-32" d="M275.14,506.04c-2.04,9.02-5.15,8.26-12.58,3.04-9.23-6.68-18.66-12.98-28.24-18.77.54-9.67,1.15-19.37,1.83-29.12-2.01-9.04-3.82-18.12-5.43-27.26,5.05-10.64,9.23-20.6,11.9-32.37,2.62-11.52-2.62-27.41-13.26-34.25-7.69-10.43-14.49-18.88-27.58-22.72-3.26-5.95,14.75-.04,16.84.84,32.14,13.49,67.16,49.8,69.51,85.84-3.84,18.71-7.22,37.39-9.72,56.36-.77,6.2-.54,12.26-3.25,18.41Z"/>
      <path class="cls-14" d="M243.71,223.32c-9.04,6.78-24.35.5-30.84,10.88-5.26,8.42,1.8,15.5,1.22,23.1-.06.74-2.66,8.89-3.03,9.19-4.06,3.36-4.19-2.95-5.2-4.8-7.6-14.01-18.53-7.17-16.24,8.65.81,5.62,5.2,7.11,5.43,10.93.21,3.46-4.23,13.6-6.6,16.26-3.91,4.41-12.22,6.68-16.27,1.61-9.93-19.86-32.22-49.34-14.14-71.01,1.28-1.53,3.44-2.12,4.42-3.45,2.5-3.37,2.58-9.95,6-13.21,2.06-1.96,6.83-3.28,9.67-4.42,16.13-6.5,35.78-10.97,52.05-3.24,10.47,4.97,13.49,7.96,13.54,19.5Z"/>
      <path class="cls-32" d="M262.13,561.28c2.52,1.78,1.96,3.03-1.08,3.25-.05,1.6-.05,3.04,0,4.33-.68.2-1.4,2.23-2.96,3-8.18,4-36.6-7.93-46.79-8.01-6.83-4.44-18.01-3.59-26.53-4.86-7.11-1.06-14.18-3.04-21.27-4.2,6.9-24.96,8.11-57.75,5.42-83.41,5.33,5.6,7.58,14.62,11.36,21.68,2.22,4.15,5.45,7.71,7.63,11.88,3.92,7.5,10.43,27.28,14.6,31.99,5.02,5.67,31.68,15.12,39.89,17.55,5.11,1.51,11.33,1.91,16.14,3.36,2.1.64,3.73.56,3.6,3.45Z"/>
      <path class="cls-32" d="M240.46,355.47c14.81,10.27,43.29,43.97,47.43,61.47,3.76,15.9-1.25,22.9-3.77,36.86-1.99,11.03-1.93,23.47-5.72,33.82,1.44-11.64,1.9-28.08,5.33-37.67,5.02-14.03,4.35-24.73-.74-37.86-3.79-9.78-7.67-15.25-13.42-23.41-6.5-9.23-14.81-16.28-22.5-24.11s-21.84-16.08-33.14-19.96c-1.25-.43-10.44-3.63-10.3-.51.06,1.33,10.6,4.43,12.48,5.92,3.56,2.83,9.9,11.92,13.45,15.8,1.57,1.72,4.25,1.93,5.18,2.96,5.2,5.79,12.32,26.08,9.99,33.56-.28.9-1.8.71-2.03,1.6-1.35,5.29-1.82,11.19-3.89,16.5-1.43,3.65-6.67,10.4-6.99,13.61-.54,5.25,4.82,20.08,5.38,27.04.77,9.61-1.39,15.61-2.08,23.97s4.87,7.07,10.04,10.33c7.88,4.97,15.19,11.03,23.18,15.89,3.06,1.47,5.74-2.81,6.81-5.24l-1.08,6.5c-.58.39,1.34,4.06-5.85.97-11.46-4.93-24.97-18.13-35.33-22.63-3.07-.73-3.33-5.98,0-6.5,1.03-8.67,2.92-15,2.15-24.36-.59-7.18-5.94-21.41-5.37-27.05.13-1.3,2.43-5.26,3.22-7.09l2.28-10.89c5.67-14.11,7.75-29.96-3.97-41.61l-1.56-3.82c-6.27-7.68-10.21-15.09-19.37-20.18-20.81-11.56-41.67-.09-48.92,21.26-3.9,5.53-2.91-.57-2.17-4.33,1.67-5.07,7.3-20.52,11.92-22.75,1.17-.56,13.68-3.07,15.71-3.26,18.52-1.75,38.49,4.66,53.66,15.17Z"/>
      <path class="cls-35" d="M390.03,783.34c-.31,5.11.21,10.36-.02,15.49,3.47,1.74,4.47,4.93,7.08,7.25,9.4,8.32,23.41,7.91,34.37,11.14,8.03,2.37,13.85,8.58,7.38,16.53-2.88,3.53-10.82,3.36-12.52,8.1,2.39,3.3,16.5,6.16,20.58,5.37,1.69-.33,3.29-2.39,4.34-2.14,1.44.35,1.28,3.57,1.89,4.1.98.85,8.79,2.11,10.6,2.99,1.37.67,1.57,2.17,2.16,2.67l-1.8,1.48-10.34-3.46c-6.56-.83-32.37-4.11-33.45-11.73-.19-2.31,2-3.52,6.57-3.63l-.16-1.48c8.96-4.61,17.37-9.92,3.22-14.8l-22.11-5.5c-7.28-1.57-16.25-6.53-17.81-13.96.01-5.07-3.15-13.07,0-18.41Z"/>
      <path class="cls-42" d="M357.52,800.67c-1.92,3.45-10.92-.66-9.76-4.33-2.17-3.03-2.72-5.5-1.65-7.4l-.51-6.68c.11-2.87-.02-5.79,0-8.67.36,6.87,7.69,5.23,9.23,7.56,2.43,3.67,2.27,15.08,2.69,19.52Z"/>
      <path class="cls-35" d="M345.59,782.26c2.8,4.07-1.55,11.04,5.41,11.94l-3.24,2.15c-2.15,2.58-6.12-2.37-7.59-4.33-.61-.03-1.81-.14-2.17,0,1.37-2.16,5.73-.12,7.12-2.09,1-1.42.39-5.61.47-7.66Z"/>
      <path class="cls-37" d="M262.13,561.28c2.04-3.47,7.5-2.48,11.16-1.95,1.41.21,3.15,1.95,3.47,1.95h38.48c.46,0,1.89,6.79,6.51,5.43l-1.09,3.24c-4.39.08-7.37,2.17-11.38,2.26-7.36.17-38-2.5-44.51-4.35-2.15-.61-3.83-.15-3.72-3.33.22-.73.87-2.89,1.08-3.25Z"/>
      <path class="cls-32" d="M340.17,792.01c4.87.22,5.02,2.71,7.59,4.33,3.37,2.13,5.65,3.41,9.76,4.33.18,1.9,1.02,3.93,1.08,5.42,2.84,3.36,3.49,6.69,0,9.75l.8,5.37c-6.85-2.16-9.8,3.62-8.86,17.33-.19,4.1-2.56,4.84-7.11,2.21-3.45-.13-13.76-3.15-14.14-7.04,1.55-9.71,5.24-18.89,7.39-28.41,1-4.45-.45-9.36,3.5-13.29Z"/>
      <path class="cls-32" d="M426.89,837.5l-4.41,1.09c-.08,2.27-1.49,1.97-3.39,1.16l-11.57-13.76c-4.81-4.26-10.82-5.01-18.02-2.24l-.54-15.5c-.96-.2-.92-.57,0-1.08.05-2.36,1.08-5.01,1.08-5.42,3.87,2.35,6.12,6.62,10.08,8.88,7.51,4.28,33.68,7.5,37.17,11.6,7.28,8.56-4.42,13.06-10.4,15.27Z"/>
      <g>
        <path class="cls-7" d="M229.62,369.56c9.01,17.37,8.02,37.48,3.25,56.33.74,1.4.1,3.65-1.92,6.75.58,8.29,2.15,16.54,4.7,24.74,1.16,8.69.67,19.43-2.77,27l-1.27,2.24c-12.4.61-12.34,1.18.2,1.73l1.07,2.53,1.51-.9c11.56,8.36,23.49,15.95,35.78,22.76l3.9-.2c2.56-1.74,13.3,5.24,16.61,6.69,10.79,4.7,21.87,8.54,32.91,12.6,6.35,2.33,16.21,10.39,20.93,1.29l.99-1.04c11.7.99,23.29,1.34,34.78,1.04l-16.25,1.09c-.57,4.45,5.98.6,9.31,3.15,5.04,3.86.85,8.74.49,11.52-.41,3.11.28,6.18-.3,9.44-.85,4.75-6.18,10.48-4.08,14.88-.71.8-1.79,1.16-3.25,1.08,1.34,1.56.73,2.13-1.08,1.08-1.83,2.79-4.33,4.96-7.59,3.25-5.63,4.26-16.14,3.2-20.59-2.17l-2.16,1.49-8.93-4.72c-2.76-.4-4.48-1.49-5.17-3.27-5.59-2.57-7.39-5.46-5.42-8.67,0,.84-.2,2.13-.74,2.17-4.78.32-33.93.85-36.46,0l-1.29-2.17-1.96,1.32c-3.69-1.63-7.92-2.07-12.68-1.32-21.72-3.78-41.89-11.17-60.49-22.17-6.19-10.47-11.4-21.52-15.64-33.16-7.65-10.53-12.94-22.35-17.08-34.58-1.31-12.48-5.16-25.25-7.59-37.91.88-4.1.83-8.45-.16-13.04l1.24-2.12-2.5-2.11c-2.52-14.35-5.1-29.11-.93-43.44l2.35-2.11-.9-1.52c8.6-26.31,32.6-33.76,54.94-17.97,3.65,2.58,11.96,12.76,14.71,16.74.21.3-.06.94-.47,1.67Z"/>
        <path class="cls-7" d="M377.03,603.53c4.79-1.47,6.42-2.18,8.67-6.5-.54,3.25.7,3.06,2.64,4.4,8.12,5.64,12.65,4.8,13.65,16.68-2.6,39.22-1.01,78.96-4.38,118.1-1.39,16.1-6.64,31.8-7.58,47.13-1.03,5.38-1.36,12.53,1.17,17.33l-1.17,1.08c2.14,2.21,2.12,4.67-1.08,5.42l-1.14,2.83c-1.42,1.23-26.98.89-28.16-.35l-1.05-3.57c-3.24-.66-3.78-3.41-1.08-5.42l-1.9-1.21c-.32-5.79-1.15-11.47-2.5-17.06-5.61-1.21-7.49-2.65-7.53-8.81.18-24.46-5.72-43.34-8.54-66.75-2.48-20.55,1.91-35.56,7.53-55.03-.3-2.04-14.58-1.82-16.96-1.76-1.42.04-2.48,1.13-2.62,1.13-.72.02-1.45-.02-2.17,0-3.54,2.85-17.97,3.3-21.48,1.47-.91-.48.56-7.83,1.97-9.05,2.05-11.56,3.74-32.34,7.59-42.25.32-3.83,1.34-5.89,3.07-6.17,19.52,4.83,39.93,9.08,60.29,6.64l2.76,1.69Z"/>
        <path class="cls-21" d="M236.12,316.48c-.3-1.3-.31-2.44.89-2.86-9.98-2.56-19.36-8.14-26.19-15.75,2.99,7.29,14.54,21.31,23.66,16.71l1.64,1.91c-5.07,1.93-7.78,3.22-7.61,9.15.32,10.87,5.88,21.21,11.95,29.84l-1.97.27c-14.63-10.56-27-13.41-44.16-13.56-7.49-.07-14.33,1.32-21.5,3.1l-1.74-1.73c.54-8.97,3.91-17.36,4.38-26.49.44-8.54.36-10.61-3.3-17.92.74-.59,1.59-.86,2.48-.54,12.05,4.37,16.18-7.81,18.23-17.38-15.8-18,4.45-45.95,16.6-16.12l2.48-8.87c-8.08-22.32.44-31.67,23.63-31.94,3.26-1.51,5.97-1.83,8.12-.97.04,10.01,2.81,8.35,5.84,16.37,2.72,7.19.52,12.65,2.01,18.57,1.07,4.24,12.65,15.27,10.09,19.23-.65,1.01-3.1,1.49-3.93,2.61-3.24,4.34,2.6,21.77-.48,28.76-1.74,3.95-16.71,5.93-21.11,7.61Z"/>
        <path class="cls-32" d="M159.16,366.31v5.42s2.17-1.08,2.17-1.08c-6.18,18.22-1.71,30.13,1.08,47.66,0,3.17-3.62,3.04-4.34,0-2.84-18.88-5.05-33.36,1.08-51.99Z"/>
        <path class="cls-32" d="M162.42,418.3c.05.29.98,1.14,1.13,2.62.17,1.69.33,12.06-.05,12.56-.13.18-1.56-.1-2.17,0-.92-4.78-2.57-10.62-3.25-15.16h4.34Z"/>
        <path class="cls-27" d="M232.87,425.88c-.5-11.45,2.44-23.83,1.12-35.24-.73-6.31-4.82-14.2-4.37-21.09,1.15,1.41,3.81,2.9,5.39,4.91,13.08,16.59,4.97,34.77-2.14,51.42Z"/>
        <path class="cls-1" d="M232.87,484.38c-.24,2.06.17,4.39,0,6.5-3.41-1.48-18.46-.71-18.44-1.64.08-4.06,15.22-4.66,18.44-4.86Z"/>
        <path class="cls-35" d="M358.6,806.09c3.11,4.54,11.49,2.08,15.72,2.06,5.13-.03,9.13,1.79,14.63-.98,0,.36.01.72,0,1.08l.53,13.07c3.68,4.78-8.02,12.14-12.7,12.82-8.67,1.26-17.02-5.19-19.31-13.46,1.43-.95,1.8-2.57,1.14-4.85.11-3.2.14-6.56,0-9.75Z"/>
        <path class="cls-31" d="M236.12,316.48c-1.12.29-8.25,1.2-9.13,1.09-5.92-.74-22.13-19.71-20.13-27.08l9.74,10.3c7.72,5.57,16.13,11.01,26.03,11.37.34,2.93-.13,1.7-1.63,2.16-2.01.62-4.5,2.07-4.88,2.16Z"/>
      </g>
      <path class="cls-32" d="M388.95,808.26l1.09,14.08c7.15-3.47,13.09-3.59,19,2.13,2.03,1.97,10.09,13.03,11.27,13.57s4.77-1.14,6.58-.53c-2.48.92-5.57.86-4.32,3.77.4.93,5.28,3.55,6.63,4.21,7.96,3.88,16.87,3.32,25.08,5.27,1.86.44,10.67,3.26,11.63,4.08,4.67,3.96,2.74,13.03-3.01,15.94-18.1,9.17-45.55,4.64-64.69,3.51-12.81-.76-39.06,4.69-49.28-1.66s.36-20.27-1.1-28.07c-.53-2.81-2.73-2.34-4.4-3.8,1.39.05,2.84.21,4.2-.12,2.47-2.16-1.39-28.85,10.96-20.46.06-1.44-.04-2.89.01-4.33,1.43,6.53,1.57,8.78,7.08,12.97,6.27,4.76,10,4.47,16.69.5,9.53-5.66,6.3-11.24,6.58-21.05Z"/>
    </g>
    <g>
      <path class="cls-6" d="M894.04,890.04c-.78-2.48-6.18-1.31-6.51-1.63-2.03-1.96,8.72-16.61,12.47-17.37,2.69-.02,13.76,16.13,12.46,17.37-1.52-.19-7.58-.29-7.58,1.63v39c0,2.36-10.84,2.36-10.84,0v-39Z"/>
      <path class="cls-38" d="M902.71,929.58c-2.11-.04-5.53.73-6.35-1.78-1.11-5.72,1.39-39.27-1.18-41.08-1.64-1.15-4.88.82-4.41-2.11.32-1.97,6.94-11.64,9.08-11.28.92.16,8.93,10.17,9.35,11.31.93,2.53-6.49,2.05-6.49,4.31v40.62Z"/>
    </g>
    <g>
      <path class="cls-33" d="M935.23,555.87c.3.1.67.83,1.08,1.08,1.91.7,3.08,2.54,2.17,4.33-2.25,1.09-4.06,2.53-5.42,4.33l-1.67,1.89c-5.22-2.72-10.33-4-15.33-3.84-4.81,2.75-10.09,3.95-9.01-3.47-.18-.44.18-.8,1.08-1.08,5.5-1.44,4.43-1.94,7.59-6.5,6.15-.5,13.94.67,19.51,3.25Z"/>
      <path class="cls-39" d="M937.4,573.2c-.7,2.39-1.11,6.99-1.55,7.66-1.08,1.64-3.67.68-4.95,1.01,1.79-2.6,2.43-5.46,1.92-8.6l2.41-1.15c1.13-2.97,1.49-5.9,1.21-9.11l2.04-1.72c-.2-1.75-1.15-3-2.17-4.33.4.24,1.56-.02,2.19.51,1.62,1.39,1.41,9.48,1.01,11.91-.31,1.88-1.83,2.86-2.11,3.82Z"/>
      <path class="cls-25" d="M935.23,555.87c-5.39-1.82-13.67-2.2-19.51-3.25.29-.42.88-.73,1.08-1.08,4.66-.26,9.16,1.1,13.63,2.08,1.83.4,4.06-.36,4.8,2.25Z"/>
      <path class="cls-39" d="M888.62,559.12l3.07,1.79c-1.72,6.59,2.28,8.83,12.02,6.71-.55-4.61.56-7.08,3.34-7.42,1.61,6.79,5.96,1.76,9.27,1.14,6.5-1.22,10.68,3.4,16.74,4.28,4.84-1.26,5.29,5.96,0,6.5l-2.94,2.36c-13.26,2.14-59.7,6.81-69.2-.64-2.55-2-3.76-6.39-.48-7.14,5.82-5.28,16.83-11.76,24.12-5.13l-.28-2.45c1.4.13,2.97-.19,4.34,0Z"/>
      <path class="cls-19" d="M884.29,559.12c2.34,1.45,3.97.5,3.25,4.33-4.03,1.8-5.76-2.04-6.17-2.13-9.97-2.39-13.39,5.16-20.93,5.39-1.28,2.09-1.76.93-2.17-1.08-6.62.46-46.9,1.68-48.78,3.25-.03-.86.94-1.65,1.08-2.17l48.77-2.16c-1.02-6.56,3.28-8.54,8.67-9.75,7.49-1.69,10,.44,16.26,4.33Z"/>
      <path class="cls-25" d="M908.13,559.12c-.27.41-.87.72-1.08,1.08-1.97,3.36-.19,7.95-2.1,9.28-1.6,1.11-14.22.67-15.1-.76-.98-1.6.91-7.25-1.23-9.6,7.13.99,12.24,1.9,19.51,0Z"/>
      <path class="cls-15" d="M860.44,566.7c-4.83,4.62,6.08,6.99,9.27,7.53,25.02,4.23,40.28-.8,63.35-2.11h2.17c-1.23,3.31,2.55,7.8-4.34,9.75-1.23.31-2.3.84-3.25,1.08-5.66.83-11.26,1.55-16.8,2.17-8.41.95-17.56.94-26.01,0-5.98-.75-11.95-1.11-17.88-1.08-.82.73-2.76,5.14-3.25,6.5-.54-1.92,1.92-7.63,1.04-8.62-.16-.18-3.38-.28-4.74-1.21-3.47-2.35-1.81-11.12-1.72-15.09.88-.06,2,1.09,2.17,1.08Z"/>
      <path class="cls-39" d="M927.64,582.95c-19.93,5.1-40.5,3.7-60.7,1.08,1.71-1.52,2.77-1.24,4.87-1.17,3.72.14,9.97,2.25,13.01,2.25h26.01c1.79,0,7.29-1.75,9.91-2.03,2.31-.24,4.59-.19,6.89-.14Z"/>
      <g>
        <path class="cls-23" d="M938.48,504.96c-1.8-.06-2.49-1.33-2.08-3.82-23.17,9.71-52,5.85-75.77,2.35-5.49,3.75,23.41,9.79,24.86,7.52l30.65.26c1.53.4,2.83,1.2,3.92,2.35-1.8.03-3.62-.05-5.42,0-10.8.3-15.72,2.16-28.18,1.08-5.16-.45-26.61-2.21-28.74-6.48-2.69-5.4.64-15.13,6.27-17.6,11.44-5.01,46.63-4.55,59.78-2.91,3.23.4,14.6,3.05,15.62,6.05.72,2.11.75,9.1-.9,11.19Z"/>
        <path class="cls-20" d="M920.06,513.62c-15.26-.91-31.38.57-46.87-1.36-6.66-.83-18.19-2.84-13.81-11.63.59-.55,13.3,2.83,15.83,3.11,12.68,1.42,30.47,1.3,43.21.11,3.51-.33,15.45-1.98,16.65-5.04.32-.82-.34-7.23,2.32-4.69.96.92,1.5,9.14,1.1,10.83-1.08,4.56-6.4,4.77-9.68,6.04-3.58,1.38-3.32,2.95-8.75,2.63Z"/>
        <path class="cls-41" d="M889.34,496.47c2.58-.8,17.69-.93,17.69,2.53s-14.19,3.17-16.77,2.7c-3.46-.62-3.84-4.32-.91-5.23Z"/>
      </g>
      <path class="cls-40" d="M938.48,561.28c.23,2.05.32,6.05-.22,7.91s-2.96,2.72-3.03,2.92c-.72.03-1.45-.04-2.17,0,4.57-2.17,1.06-3.91,0-6.5-.59-1.43-1.45-2.57-1.09-4.33,2.28.02,4.51-1.62,6.51,0Z"/>
    </g>
    <g>
      <g>
        <path class="cls-10" d="M661.01,642.53l-2.26-.4-29.25-182.31c-5.84.54-11.8,1.04-17.88,1.48,8.26-.95,9.85,6.98,11.08,13.49l27.8,169.47c-1.2,1.44-1.72,2.93-1.41,4.77l.49,1.96c-.9,17.64.55,18.66,18.72,19.35,44.53,1.7,88.92,2.45,133.5,1,22.74.71,44.78.11,66.12-1.81.12-2.37.42-4.52,3.36-4.25,3.71,3.99,4.19,16.78-3.12,17.52.24,13.89,1.24,27.77,3.01,41.62l-.88,5.18c2.07,13.22,2.99,26.47,2.73,39.77l-.03-.37v3c2.55,1.38,2.55,1.12,1,3-3.96,4.81,4.09-2.02-1.05,1.22.7,6.9,2.22,13.91,4.57,21.02l-.81,2.35,1.36,1.85c-4.94,6.43-1.77,16.26,1.16,23.1l-1.44,2.13-3.07.34c1.89,6.96.51,14.62.91,21.85.23,4.18,4.06,22.96,1.14,24.99-1.21.85-14.15.85-15.32,0-1.59-1.14-2.24-13.18-2.09-15.79-3.72-1.2-11.82,2.65-13.55-1.08l-12.47-118.07c-47.13,2.01-94.21,2.39-141.44,1.08l-33.66-2.96-9.32,120.35c-.95,2.87-5.26,1.3-7.76,1.99-5.6,1.56-1.04,12.46-3.94,14.48-11.05.06-17.13,5-16.37-8.78,4.95-89.01,8.59-184.95-2.14-272.91-4.97-40.74-14.02-81.73-18.3-122.52-1.17-11.17,2.84-10.79,12.48-12.21,6.08-.89,30.81-2.54,35.07-.65,2.21.98,4.78,7.61,5.18,9.99.63,3.74,1.29,12,1.39,15.94s.58,12.16-2.16,15.27c-4.08,4.63-13.18-.14-13.11,6.4l21.73,138.16Z"/>
        <g>
          <path class="cls-26" d="M661.01,642.53h51.5s.52-3.25.52-3.25c.25.19,2.82,1.9,3.25,2.17,6.62,7.08-4.4,5.18-9.23,4.23-2.54.99-4.34.66-5.4-.98,0,.84-.2,2.13-.73,2.17-8,.58-32.3,1.34-39.19,0l-1.27-2.17-1.77,1.57c-3.23-.6-6.43-.04-9.61,1.68v1.08l-18.31-111.14c-2.31-20.87-7.61-41.64-10.11-62.47-2.71-3.29-.6-10.13-4.85-11.39-5.79-1.72-10.11.7-14.41,4.11-1.7-12.57,18.63-7.66,26.59-10.89l2.74.51.79,1.38,29.48,183.39Z"/>
          <path class="cls-22" d="M830.22,683.81c.62-.72,7.81-2.06,8.64.33,2.65,11.54,3.26,23.83,4.3,35.71-.24.9-4.05,1.51-5.06,1.62-16.2,1.71-36.29-.16-53.04.09-32.8.48-65.55.81-98.54,0-10.03-.25-26.99,1.67-35.82.05-1.23-.23-2.19-.37-2.55-1.78,1.35-10.09-.07-21.5.93-31.26.58-5.66,1.82-8.24,8.11-7.04,4.78.91.76,12.28.51,16.74-.3,5.39-.11,11.53.52,16.9.5.72,13.94,2.02,16.28,2.14,42.34,2.14,95.28,1.81,137.74,0,5.79-.25,12.08-1.91,18.22-1.29,3.45-1.13-.13-13.13-.37-16.64-.15-2.2-.39-14.98.11-15.57Z"/>
          <path class="cls-17" d="M847.55,856.88c-3.74-34.42-7.33-68.87-10.97-103.31-.35-3.27-3.15-12.67-1.69-14.71,5.75-2.12,9.83-2.55,11.19,4.13,6.91,33.86,5.51,73.65,12.21,108.09,1.35,7.91-5.12,5.95-10.74,5.8Z"/>
          <path class="cls-13" d="M651.25,664.19c28.25,2.63,58.19,3.8,87.67,3.71,41.6-.12,83.55-.64,123.95-3.7l4.04-1.12c3.72-3.29,6.26-3.65,7.61-1.06-.92,1.59-2.58,2.23-3.25,3.25-1.51,2.29-.8,4.35-1.56,5.48-2.45,3.6-27.1.92-32.53,3.23-58.5-2.02-119.73,3.23-177.78-2.23-2.66-.25-7.75-.76-9.07-2.85-1.79-2.84-1.61-15.93-1.25-19.87.03-.35-.07-.74,0-1.08,3.32-1.05,3.85,3.46,3.37,6.32-2.83,2.13-2.2,6.75-1.2,9.93Z"/>
          <rect class="cls-26" x="586.92" y="792.22" width="120.63" height="9.71" transform="translate(-189.83 1391.69) rotate(-86.31)"/>
        </g>
      </g>
      <path class="cls-23" d="M719.54,643.61l15.15,4.65c30.76,3.59,61.47,4.93,92.15,4.02,4.17,1.36,8.63,1.73,13.38,1.11l.71,1.06-6.87,1.59c-60.22,1.81-120.24,1.97-180.06.48-.31,3.3-1.22,5.86-2.75,7.68-3.04-4.32.87-11.92-2.17-16.25.69-3.49,4.65-4.42,8.18-4.38,1.53.02,2.83,1.13,3.2,1.13h41.19c.65,0,3.14-1.11,5.39-1.18,3.08-.09,13.41,3.58,9.24-2.07,1.23.75,2.47,1.7,3.25,2.17Z"/>
      <path class="cls-9" d="M855.02,639.28c-.12,1.04-1.62,2.84-1.08,4.33,3.6.8,19.54,6.03,19.23,9.87-.03.34-.37.66-.8.97l-1.63,1.82c-9.21,1.35-18.48,1.47-27.79.37l-2.01-2.19c-4.29-.75-11.6,2.05-14.09-2.17,7.69-.36,15.64-1.08,23.85-2.17l10.84-49.83c-3.03,12.78-5,25.93-6.5,39Z"/>
      <path class="cls-3" d="M850.69,650.11c-2.18,3.4-19.22,2.1-23.85,2.17-24.8.35-87.72,2.96-107.31-8.67,5.26.06,9.87,3.1,14.89,4.08,12.55,2.46,30.15,3.11,43.06,3.55,24.37.83,48.9-.34,73.21-1.13Z"/>
      <path class="cls-3" d="M872.37,654.44c.98-4.09,3.76,2.68,3.25,5.42,0,.33-.79,1.65-1.08,2.17-3.22-.42-4.28,2.23-7.12,3.18-14.8,4.95-43.36,2.83-59.59,3.27-42.98,1.18-90.45,2.98-133.32.09-6.82-.46-13.56-2.89-20.55-2.22-1.41-.11-2.37-.74-2.71-2.16-.57-2.36-.82-9.84,2.71-9.75,32.32-.78,64.4.98,96.51,1.13,29.92.14,60.61-.49,90.46-1.13,5.28-.11,10.27,1.21,14.63,1.17,5.05-.04,11.59-2.83,16.8-1.17Z"/>
      <path class="cls-13" d="M875.62,659.86c0-.27-1.18-4.98-1.34-5.2-.42-.57-1.82-.1-1.91-.22-.69-.88-.12-1.95-2.38-3.55-4.79-3.36-11-4.45-16.04-7.29,8.09.74,23.83,5.94,21.68,16.25Z"/>
    </g>
    <g>
      <path class="cls-26" d="M109.31,642.53l-.99.93c-5.13-1.13-8.16.16-8.76,5.57l-12.9-75.39c-5.77-33.68-8.98-70.39-16.61-103.63-2.05-8.92-11.77-8.26-16.55-1.89l-1.63-6.48c.23-.28.95-1.05,1.08-1.08,9.45-3.03,19.88-3.55,29.87-3.61,3.45,14.1,5.99,28.75,7.61,43.94-1.29,1.34-1.33,2.97-1.09,4.72l20.98,136.02-1.01.91Z"/>
      <path class="cls-10" d="M52.94,460.55c1.23-1.97,3-1.75,4.89-2.15,8.4-1.77,31.06-3.67,38.98-2.16,2.1.4,2.58,1.22,3.66,2.84,3.3,4.93,5.62,29.44,4.26,35.36-2.08,9.05-15.89,2.37-15.03,11.05l21.88,136.92c1.94,1.65,36.96-1.37,43.24-.96.3.83.52,1.49.43,1.54-4.36,2.19-34.21,1.66-40.76,1.2-.3-.02-.58-.27-.85-.57-1.18.85-4.22.59-4.34-1.08l-27.28-183.42-.82-1.36c-1.15-.85-25.08,1.92-28.26,2.79Z"/>
      <path class="cls-16" d="M180.84,646.86c18.72,3.83,37.71,5.82,56.97,5.98,7,.11,9.43,1.72,7.29,4.83l-140.49-1.05c0,4-.97,6.88-2.89,8.65-2.23-1.12-2.44-18.02-1.25-20.05,2-3.41,10.15-1.96,13.17-.53,13.96.23,27.79-.44,41.47-2l8.38.91v-3.25c-1.59-1.43-2.86-2.81-4.34-4.33,7.41,5.03,13.49,7.57,21.68,10.83Z"/>
      <path class="cls-26" d="M163.5,643.61c-16.74.82-33.1.79-49.86,1.08-.95-.31-.93-.67,0-1.08,9.56.88,26.69.79,36.33.02,1.92-.15,3.73-.38,4.85-2.19.36.02.73-.03,1.08,0l7.38.5.21,1.67Z"/>
      <path class="cls-10" d="M163.5,640.36c1.04.93,2.97,1.55,3.25,3.24-1.08.06-2.17-.04-3.25.01-1.44-.74-6.27-2.04-7.59-2.17,2.37-.26,6.05.97,7.59-1.08Z"/>
      <path class="cls-2" d="M303.32,643.61c-.45,2.51-1.54,4.9-1.09,7.58,6.84-.16,13.76.22,20.6,0,4.93,5.12,5.01,10.33-2.17,13-2.76,3.49-7.08,5.22-12.97,5.2-67.16,2.28-137.28,4.13-205.1-.97-1.73-.39-1.82-1.62-.88-3.15v-10.84s144.15,1.08,144.15,1.08l-8.14-2.14c-17.93-1.27-40.98-.16-56.89-6.51,38.06,6.07,76.9,5.99,115.49,7.64,6.17.28,2.47-8.48,6.99-10.89Z"/>
      <g>
        <path class="cls-10" d="M99.55,649.02c-.41,7.13.62,13.58,3.08,19.36,72.2,4.93,143.75,5.49,214.66,1.67,0-3.22.24-4.36,3.38-5.87.26-1.84,1.41-3.67,3.43-5.48-1.22-2.94-1.64-5.45-1.26-7.52.61-2.08,1.56-2.07,2.17,0,2.31,2.36,3.03,7.13,1.99,10.12-.7,2-3.8,2.16-4.7,3.96-2.44,4.87.96,13.95-5.41,16.25-.2,22.07,2.44,44.48,3.78,66.63,1.68,27.82,2.79,55.59,4.36,83.39.34,6.12,4.75,39.81,1.14,42.32-1.22.85-13.04.85-14.23,0-1.41-1.01-2.08-13.18-2.09-15.78h-13s-14.06-118.65-14.06-118.65c-34.6-.15-68.98,2.37-103.6,1.71-11.35-.22-23.08-2.15-34.63-1.14l-35.83-2.96-9.38,119.2c-1.36,4.82-8.52,1.63-10.15,3.94-4.25,6.01,8.04,18.29-15.72,13.68-1.11-.77-.93-2.1-1.07-3.27-2.04-16.98.73-36.18,1.13-53.14,1.13-48.62,1.58-97.68,1.05-146.18-.72-66.57-14.48-128.66-22.59-194.07-.48-3.87-2.31-12.95-.13-15.58,2.13-.46,2.56.4,2.8,2.24,6.81-4.87,15.56-3.07,17.49,5.62,0,0,9.5,57.69,28.5,173.07-1.41,1.48-1.78,3.63-1.09,6.47Z"/>
        <g>
          <path class="cls-22" d="M293.48,720.43c-2.09,2.46-56.28,1.01-64.45,1.12-9.88.13-20.41,1.13-30.26,1.17-33.52.13-66.95-.43-100.3-2.22-.1-12.8.1-26.23,3.17-38.51,2.23-.81,6.66-1.26,7.51,1.3,2.12,6.42-3.55,24.01-.46,31.88l11.95,2.14c47.29-1.77,96.06,2.19,143.17,0,2.51-.12,16.8-1.35,17.36-2.15.64-4.27.81-9.36.52-13.65-.31-4.6-5.1-17.85.5-18.91,11.1-2.12,7.37,4.39,8.15,11.36.41,3.67,4.09,25.36,3.15,26.47Z"/>
          <path class="cls-17" d="M297.9,857.01c-.2-.21.17-4.4-.11-5.85-5.25-27.76-6.99-59.51-9.66-87.84-.39-4.19-4.06-21.89-2.03-24.27.82-.96,7.41-1.65,9.2-.22,2.8,2.25,1.16,12.72,1.61,16.8,3,27.62,6.84,55.67,9.68,83.48.36,3.53,4.2,15.27,1.14,17.42-.96.67-9.49.83-9.83.48Z"/>
          <path class="cls-34" d="M109.31,642.53c1.15.21,1.93.86,4.34,1.08v1.08c-2.79.05-11.29-.77-12.53,1.01-1.09,1.57-1,16.84.61,19.57l.6.99c2.84.41,5.76-.21,8.6.1,44.38,4.96,92.95,3.02,137.67,2.06,19.52-.42,54.29,2.37,72.07-4.24-1.67,1.47-.76,7.26-1.08,7.59-1.11,1.13-26.88.93-30.89,1.09-56.52,2.21-120.31,3.34-176.67-1.11-3.66-.29-7.36-1.76-11.34-1.12-1.35-7.1-1.36-14.38-1.13-21.61.17-5.21-.4-6.5,6.27-7.38,2.03-.27,2.51.7,3.49.88Z"/>
          <path class="cls-4" d="M106.06,737.85c-1.04,17.86-3.16,35.79-4.33,53.63-1.22,18.71-.75,40.1-3.27,58.47-.73,5.31.05,8.26-5.94,7.05-3.6-.73-2.92-3.95-2.77-7.07,1.41-31.01,4.54-62.07,6.55-93.13.63-9.8-4.53-21.89,9.77-18.94Z"/>
        </g>
      </g>
    </g>
  </g>
  <path class="cls-35" d="M911,770c.09-3.26,3.74-2.16,7-2s8.58.01,11,0c5.13-.03,6.5.77,12-2,0,.36,2.73,4.14,2.72,4.5l.48,11.82c.03.72,2.81,7.69.81,9.69-3.54,3.54-9.04,3.75-13.45,4.39-7.58,1.1-14.93-3.7-18.18-10.46-.68-1.41-2.94-3.48-2.36-4.93.29-.74.23-1.92,0-3-.1-.45-1.39-.4,0-3,1.6-2.99,0-4.78,0-5Z"/>
</svg>