<?xml version="1.0" encoding="UTF-8"?>
<svg id="Layer_1" xmlns="http://www.w3.org/2000/svg" viewBox="0 0 925.95 993.31">
  <defs>
    <style>
      .cls-1 {
        fill: #c2c1c1;
      }

      .cls-2 {
        fill: #e9e4e0;
      }

      .cls-3 {
        fill: #7c7976;
      }

      .cls-4 {
        fill: #98a6b3;
      }

      .cls-5 {
        fill: #575858;
      }

      .cls-6 {
        fill: #231f20;
      }

      .cls-7 {
        fill: #fdcca7;
      }

      .cls-8 {
        fill: #a2acb6;
      }

      .cls-9 {
        fill: #9b9a9a;
      }

      .cls-10 {
        fill: #565758;
      }

      .cls-11 {
        fill: #6c6c6c;
      }

      .cls-12 {
        fill: #282828;
      }

      .cls-13 {
        fill: #345779;
      }

      .cls-14 {
        fill: #838484;
      }

      .cls-15 {
        fill: #e0ab89;
      }

      .cls-16 {
        fill: #d3a888;
      }

      .cls-17 {
        fill: #fccca7;
      }

      .cls-18 {
        fill: #e1ac88;
      }

      .cls-19 {
        fill: #e3e4e6;
      }

      .cls-20 {
        fill: #9b9b9b;
      }

      .cls-21 {
        fill: #848585;
      }

      .cls-22 {
        fill: #585a59;
      }

      .cls-23 {
        fill: #e5b392;
      }

      .cls-24 {
        fill: #e4ae87;
      }

      .cls-25 {
        fill: #c0bfbf;
      }

      .cls-26 {
        fill: #575958;
      }

      .cls-27 {
        fill: #e1d1c4;
      }

      .cls-28 {
        fill: #d84140;
      }

      .cls-29 {
        fill: #292828;
      }

      .cls-30 {
        fill: #595958;
      }

      .cls-31 {
        fill: #bebcbc;
      }

      .cls-32 {
        fill: #c1c1c1;
      }

      .cls-33 {
        fill: #7b7775;
      }

      .cls-34 {
        fill: #a49b96;
      }

      .cls-35 {
        fill: #f3c9aa;
      }

      .cls-36 {
        fill: #9e9a96;
      }
    </style>
  </defs>
  <polygon class="cls-19" points="48.18 413.55 21.79 449.24 29.25 472.19 67.18 472.19 71.25 449.82 74.49 434.62 48.18 413.55"/>
  <polygon class="cls-19" points="366.94 894.44 346.38 928.59 367.67 945.33 399.44 924.47 399.44 903.41 366.94 894.44"/>
  <path class="cls-17" d="M398.05,396.02c-10.02,2.94-20.03.06-30.05-.04-5.22-.02-4.47-4.84-6.2-7.67-1.64-6.47-4.32-12.74-3.99-19.62,2.06-8.47,4.57-16.84,6.04-25.46-1.55-6.74-.4-13.73-1.98-20.45-.45-2.22-1.26-4.35-1.52-6.62-.89-7.89-.93-7.74-9.07-8.01-4.42-.15-9.11,1.32-13.21-1.63-.19-.81.06-1.45.74-1.93,3.92-1.94,8.14-1.23,12.22-1.18,4.84.06,6.87-1.95,6.32-6.73-2.15-18.76-.67-37.58-1.01-56.38-.19-10.55,2.27-20.94,2.46-31.49.29-16.56-2.7-32.93-2.97-49.45,2.23-15.03,3.77-30.18,7.36-45,1.65-2.89,1.41-6.78,4.68-8.81,3.73-.6,5.39,1.9,6.18,4.75,2.32,8.4,7.22,15.74,9.59,24.09,5.25,8.38,3.91,17.53,2.95,26.58-.29,2.68-1.09,5.25.14,7.9,2.95,6.32,1.7,13.02,1.56,19.6-.04,1.86-.55,3.93-2.93,4.14-2.02.17-3.76-.89-4.45-2.78-2.58-7.01-5.48-13.8-10.35-19.65-1.59-1.91.32-3.77,1.37-5.57,4.39-7.47,4.84-15.65,3.97-24.01-.11-1.02-.61-1.98-2.56-3.06-1.29,6.09-1.84,12.08-3.41,17.81-1.14,4.18-1.33,8.62-4.47,12.05-.7.77-1.31,1.9-.98,2.85,2.54,7.35,4.67,15.17,10.72,20.4,5.49,4.75,9.43,19.85,5.75,25.98-.54.9-1.13,1.99-2.12,2.17-4.98.89-6.21,5.34-8.97,8.55-6.17,7.17-5.66,14.77-3.07,22.76,2.53,7.79,2.5,15.2-.65,22.97-2.39,5.89-2.3,12.26,1.81,17.76,2.32,3.11,3.2,7.1,6.5,10.66,1.48-5.12.32-9.61.77-13.97.31-3.03-.12-6.79,4.37-6.88,3.98-.08,5.67,2.91,6.63,6.31.98,3.47-.64,7.04.7,11,1.79-4.53,3.22-8.79,3.12-13.38-.14-6.32,1.1-12.36,3.21-18.25,1.42-3.96,1.87-8.03,1.86-12.21-.05-14.5-.6-29.03.18-43.49.56-10.4-.91-20.64-.82-30.87.08-10.11,3.74-20.12,3.94-30.46.03-1.41,1.26-2.63,2.42-3.51,3.61-2.74,5.76-5.41,1.1-9.28-1.62-1.34-1.41-3.79.41-4.87,3.32-1.98,4.2-4.62,3.85-8.26-.16-1.71,1.42-2.83,2.8-3.85,5.48-4.05,6.4-8.59,2.72-14.16-1.27-1.93-2.68-3.7-2.5-6.17,2.27-6.38.93-12.84.38-19.28.07-1.91,1.06-3.03,2.93-3.39,6.26,1.29,7.89,3.86,6.7,10.58-.29,1.65-.96,3.16-1.57,4.7-1.33,3.34-2.48,6.57,3.4,4.31.56-.22,1.12.36,1.47.91,1.61,6.22-1.13,12.25-.75,18.42-1.03,7.4-4.21,14.21-5.95,21.41-.24,1.81-.64,3.66-1.67,5.13-2.17,3.08-1.46,5.89.26,8.77-5.85,3.74-7.05,9.24-7.44,15.89-.92,15.68-1.98,31.35-3.81,46.99-1.1,9.33.35,18.98.4,28.49.07,13.78-2.68,27.17-5.18,40.59-.98,5.3-1.3,10.68-2.49,15.95-.71,3.17.85,4.65,3.97,4.78,1.45.06,2.9.08,4.35.08,31.1,0,62.2.02,93.29-.03,2.2,0,4.56.65,7.07-1.35-4.96-7.35-10.91-13.93-16.56-20.68-17.02-20.34-31.95-41.89-38.7-67.97-3.98-15.39-13-28.06-20.64-41.54-3.9-6.87-9.28-13.44-8.19-22.24.64-2.17,2.35-3.34,4.22-4.27,11.95-5.94,19.82-16,26.92-26.76,1.91-2.9,4.34-5.5,6.2-10.08-4.33,2.96-6.97,5.93-9.44,9.01-3.75,4.67-7.66,9.23-11.19,14.07-3.85,5.26-9.48,6.23-15.32,6.76-1.5.14-2.86-.47-3.31-2.2.86-4.99,3.62-7.69,8.88-7.42,1.01.05,2.17.21,2.61-1.03.21-.6-.24-1.2-.76-1.57-1.03-.75-1.85-.32-2.71.45-5.88,5.25-4.56-.17-4.83-3.27,2.23-6.41,5.26-12.46,8.34-18.49.58-.28,1.18-.28,1.77-.05,2.97,3.64,5.74,7.41,7.46,13.81,3.81-8.48,11.21-11.94,14.6-19.08,2.89-6.08,6.7-6.91,12.78-3.92,9.33,4.58,17.28-.14,17.29-10.4,0-3.14,1.11-5.26,4.23-5.93,3.27-.7,5.12,1.25,6.14,3.98,1.51,4.02.37,7.74-1.9,11.16-.79,1.2-2.02,2.12-2.51,3.52-.85,2.42-1.41,5.1.73,6.95,2.27,1.96,4.52.05,6.01-1.44,4.67-4.67,9.55-8.38,16.7-7.99,2.09.12,3.98-1.55,4.24-3.88.32-2.8-1.98-3.24-4.02-3.78-.8-.21.18.13-.61-.14-3.18-1.08-7.54-.51-8.44-4.99-.46-2.33,1.75-3.58,3.61-4.55,3.83-2.02,8.54-3.71,11.52-.16,3.7,4.42,6.16,3.85,9.81.55,1.82-1.64,4.67-1.57,6.91-2.68,3.25-1.6,4.82-4.38,5.67-7.74.68-2.72,1.98-4.63,5.26-3.51,1.76,2.65,5.57,2.1,7.36,4.69-1.84,1.31-4.54.5-6.09,2.65-6.12,8.45-15.2,13.93-22.07,21.42-5.45,5.95-8.25,13.67-18.8,11.15-3.24-.77-6.52,3.01-9.48,5.29-7.25,5.57-9.86,5.14-15.77-1.74-2.51-2.92-4.88-5.9-9.66-5.73-7.44.26-7.57,1.35-9.03,8.45-5.26,25.56,5.03,48.46,10.91,72.2,2.06,8.33,6.58,15.38,9.68,23.14,6.36,15.93,11.19,32.29,15.54,48.81,3.32,12.61,9.91,23.55,17.23,34.04,3.16,4.53,8.76,5.4,14.05,5.02,15.23-1.1,29.88,2.89,44.76,4.79,1.02.13,2.51.07,2.95.69,5.76,8.06,14.29,5.36,22,5.84.79.05,1.55.47,2.33.71-1.87,2.72-4.79,2.16-7.37,2.09-11.57-.3-23.17-.31-34.72-.52-9.14-.16-18.59-.39-27.79,1.33-4.72.88-9.54.82-14.25.39-25.84-2.4-51.72-.64-77.58-1.1-13.46-.24-26.93-.09-40.39-.02-6.85.04-7.74.74-7.56,7.4.25,9.06-1.23,18.19,1.03,27.14.33.49.98,1.09.89,1.55-1.3,6.52,2.03,10.73,6.95,14.19-5.14,10.79-1.99,22.1-2.07,33.22-.48,1.6-.95,3.21-2.39,4.26Z"/>
  <path class="cls-21" d="M910.44,796.3c4.78.79,10.18-1.31,14.21,3.03.89,5.14.37,10.3.31,15.46-1.85,3.44-5.02,3.93-8.5,3.92-9.53-.04-19.07-.05-28.6,0-1.34,0-3.23-.6-3.77,1.22-.49,1.65,1.11,2.52,2.24,3.34,19.37,14.2,28.37,33.89,32.38,57.12,5.48,31.8,5.82,63.77,5.96,95.83.02,4.28-1.62,5.91-5.89,5.84-16.65-.29-13.7,1.54-14.44-13.57-1.41-28.9-2.96-57.8-8.39-86.32-2.87-15.07-9.24-28.18-20.72-38.64-3.92-3.57-8.23-6.22-13.43-7.36-2.17-1.06-4.49-.51-6.73-.52-126.4-.03-252.8-.03-379.2-.03-1.86,0-3.73.02-5.59-.02-3.25-.07-3.76-1.93-2.98-4.6.3-1.01.85-1.93,1.57-2.65,9.77-9.81,17.95-21.19,29.22-29.55,3.27-2.43,6.67-4.13,10.79-4.18,14.9-.2,29.79-.16,44.69-.04,32.48-.78,64.92,1.97,97.4,1.28,6.17-.13,12.29-1.51,18.51-1.3,50.05-.15,100.1-.13,150.15-.05,21.46,1.55,42.91,1.79,64.38.05,8.87-.72,17.68.36,26.45,1.72Z"/>
  <path class="cls-17" d="M608.46,465.66c6.66,2.7,13.81,1.56,20.69,2.26,11.67,1.19,22.79,3.16,32.4,10.34,1.84,1.38,3.91,1.16,5.94,1.14,8.27-.06,16.36,1.49,24.48,2.72,7.87,1.2,14.16,5.57,19.8,10.72,3.52,3.21,7.48,5.77,11.08,8.81.64,3.87-2.25,6.19-4.43,8.28-7.3,7-13.45,15.07-21.15,21.74-5.77,4.99-12.16,8.48-19.03,11.38-2.71,1.14-5.53,1.94-8.16-.33-2.15-5.02-.12-11.24-4.76-16.02-4.41,7.74-11.4,7.31-18.47,5.59-6.81-1.66-13.58-3.61-20-6.52-.54-.29-1.05-.65-1.53-1.03-4.39-3.75-8.91-7.34-13.34-11.06-3.85-3.23-5.96-2.66-7.19,1.94-3.33,12.55-7.18,24.92-11.51,37.16-2.78,12.25-3.17,24.46.14,36.69,1.92,7.11,4.9,14.24-.49,21.31-1.23,1.61-.82,4-.59,6.07.29,2.68.41,5.36-.02,8.04-1.18,7.36-3.28,9.14-10.68,9.1-6.1-.03-11.66-2.69-17.58-3.53-1.07-.06-2.1-.29-3.12-.64-3.51-1.49-5.79-4-6.38-7.86-.51-7.39-2.71-14.8.14-22.17,3.93-8.72,8-17.41,8.96-27.13-.05-17.54.24-35.1-.28-52.63-.4-13.32,3.31-26.04,4.48-39.11.64-7.14,4.41-11.89,11.95-12.76,2.03-.23,3.28-1.64,4.88-2.51,1.29-.25,2.59-.43,3.9-.44,4.99-.05,9.99-.07,14.98-.04,1.64-.02,3.27.14,4.89.46Z"/>
  <path class="cls-17" d="M910.44,796.3c-30.03-.43-60.06,3.35-90.09.01,4.35-5.2,4.09-4.91-1.72-10.14-22.69-20.46-44.41-41.91-55.31-71.3-4.92-13.26-12.74-24.43-20.59-35.83-8.3-12.05-11.75-25.9-13.24-40.22-.62-5.92-1.86-10.6-9.1-10.55-.83,0-1.38-.83-1.73-1.61-.27-2.1,1.41-2.7,2.75-3.63,11.17-7.76,21.29-16.58,29.65-27.45,2.56-3.33,5-7.68,10.24-7.94,4.66,9.15,3.76,19.3,4.95,29.02,1.97,16.14,7.23,31.17,13.41,46.01,1.19,2.85,2.56,5.71,3.19,8.7,1.61,7.61,5.72,14.19,9.54,20.54,8.46,14.06,13.6,29.47,20.32,44.22,6.74,14.78,14.97,28.89,24.54,42.11,2.94,4.07,6.92,6.29,12.26,5.9,14.98-1.1,29.49,2.37,44.14,4.62,3.05.47,5.81,1.11,7.45,3.7,2.28,3.62,6.52,1.88,9.33,3.83Z"/>
  <path class="cls-17" d="M857.42,493.39c3.31,1.08,4.65,4,5.9,6.76,3.34,7.38,4.6,15.41,6.16,23.23,1.53,7.67-4.97,15.42-13.16,16.78-2.64.44-4.53,1.35-6.43,3.11-5.99,5.54-10.7,12.46-18.91,15.61-3.54,1.36-5.01,5.84-6.92,9.27-2.3,4.12-4.86,7.3-10.23,4.01-2.22-1.36-4.68-1.03-7.02.48-2.94,1.91-6.07,3.51-9.08,5.31-6.54,3.93-9.77,3.13-13.58-3.44-3.9-6.71-17.15-9.55-23.44-5.1-2.07,1.47-1.71,3.57-1.92,5.58-10.83,8.77-22.75,10.19-35.61,5.3-8.27-4.66-11.99-13.17-10.16-23.18,1.17-6.41,3.72-12.16,7.55-17.5,5.67-7.9,10.95-16.08,18.05-22.84,1.63-1.55,3-3.49,5.5-3.79,5,2.27,9.73,5.42,15.75,2.85,2.43-1.04,4.25-2.21,5.52-4.56,3.37-6.17,6.7-12.38,10.43-18.34,15.44-24.7,43.62-33.89,67.94-15.85,4.58,3.39,8.33,7.81,10.79,13.13-4.76.36-6.71-3.67-9.19-6.36-7.62-8.26-16.96-12.41-28.04-12.82-15.69-.59-26.5,8.28-35.73,19.38-4.07,4.89-6.58,11.01-9.75,16.59-1.21,2.13-2.75,4.57-.69,6.89,2.43,2.74,5.81,4.03,9.4,4.25,2.01.13,1.81-1.84,1.95-3.25.68-6.73,4.61-11.43,9.85-15.12,6.23-4.38,11.62-2.36,13.6,5.1,1.13,4.27.97,8.64-.45,12.88-1.25,3.71.02,4.8,3.48,3.27,4.16-1.84,8.34-2.07,12.76-1.17,3.83.78,7.27-.55,10.69-2.34,6.84-3.56,10.32-2.58,14.82,3.69,2.43,3.38,4.33,7.06,6.35,10.67,2.37,4.23,5.5,4.56,8.97,1.17,3.55-3.46,3.66-7.91,2.62-12.2-1.99-8.2-2.75-16.84-7.78-24.08-.7-1-1.15-2.25,0-3.38Z"/>
  <path class="cls-17" d="M470.09,836.19c-5.57,0-9.63,1.48-12.32,6.35-7.73,9.15-16.64,17.18-24.6,26.16-11.47,12.94-22.29,26.35-32.62,40.17-3.49,4.67-4.36,4.48-9.55,1.74-7.46-3.94-14.02-10.27-23.66-9.16-3.34.38-3.59-3.11-.4-7.01,2.99,1.08,3.27-1.66,4.42-3.16,13.01-16.99,20.09-37.02,28.86-56.18,12.38-27.04,30.57-49.06,56.19-64.54,5.53-3.34,6.94-7.94,5.66-13.7-1.28-5.76-.91-11.55-.79-17.32.13-6.09,2.16-7.52,7.89-5.25,9.24,3.66,18.24,7.89,27.46,11.61,7.43,3.61,15.35,6.05,22.82,9.56,1.79.84,4.16.99,4.65,3.55-4.84,5.34-17.07,5.38-22.89-.38-2.89-2.86-5.33-4.74-9.68-3.4-5.4,1.66-6.91-3.16-9.44-7.16-2.86,4.64-5.91,7.96-11.27,3.98-1.26-.94-2.22.6-2.44,1.91-.48,2.84.11,5.21,2.63,7.1,6.64,4.97,7.66,15.31,1.95,21.38-5.52,5.86-10.95,12.06-20.04,12.22-1.45.03-2.91.7-3.86,1.82-3.2,3.77-7.15,4.56-11.78,3.5-3.06-.7-5.22.64-6.48,3.48-.51,1.14-.9,2.68-1.93,3.12-8.72,3.7-8.63,13.26-13.22,19.69-1.74,2.44-3.92,5.88,2.36,5.71,2.36-.07,3.45,2.07,3.64,4.34.21,2.47-.58,4.49-2.93,5.67-.95.47-1.98.54-3.02.61-2.8.18-6-2.15-8.3.41-2.2,2.45.64,5.01.94,7.57.42,3.51-1.43,5.72-4.5,6.48-4.36,1.09-6.28,3.89-6.4,8-.3,9.49-4.74,16.5-12.43,21.72-1.03.7-2.03,1.51-2.59,2.63-.94,1.9-1.6,3.89,1.81,3.35,3.99-.64,5.85,1.07,6.17,4.94.17,2.07,1.12,3.66,3.49,3.49,2.02-.14,2.74-1.7,2.92-3.46.22-2.15,1.05-3.98,2.47-5.58,2.48-2.78,2.79-6.18,1.66-9.36-2.69-7.59.76-13.82,4.15-19.93,2.6-4.69,10.79-6.53,16.8-3.31,4.69,2.52,7.17,1.14,9.83-2.5,2.69-3.68,5.61-7.18,9.08-10.18,2.93-2.54,3.45-5.85,3.25-9.58-.58-10.7,3.04-14.44,14.05-16,5.45-.77,7.77-5.81,8.76-10.14,1.4-6.1,4.78-8.82,10.38-9.89,1.43-.27,2.99-.6,3.96-1.67,3.71-4.09,7.32-7.16,13.78-5.67,3.2.74,5.59-3.04,6.8-6.3,1.31-3.53,1.67-7.23,1.74-10.99.19-9.55,7.57-13.7,16.48-9.33.32.52.48,1.08.53,1.69-.33,2.29-1.88,3.9-3.15,5.66-1.5,2.08-2.42,4.19-.18,6.37,2.36,2.31,4.99,1.18,7.58.58,7.26.29,14.41-.15,21.28-2.83,1.13-.44,2.4-.55,3.52-1.13,6.53-3.36,10.14-3,12.7,3.55,3.01,7.7,8.47,8.38,14.82,7.33,11.14-1.85,22.23.93,33.43-.25,5.71-.6,11.83,1.52,17.74,2.55,2.88.5,5.71.69,8.64.49,5.05-.34,7.27-2.59,7.27-7.88,0-7.83.3-7.91,8.29-8.09,2.36-.05,3.28-1.19,2.45-3.03-2.47-5.49-1.69-11.41-2.69-17.08-1.25-7.06-3.1-8.57-10.04-7.75-4.17.49-8.34.71-12.35-.34-7.81-2.04-14.09,2.66-20.83,4.72-3.78,1.15-1.13,4.52.92,6.26,3.64,3.1,7.44,6.04,9.62,10.41,2.16,4.36.06,8.14-4.13,6.64-13.55-4.86-27.04-10.25-34.79-23.76,2.61-3.51,5.12-.69,7.23.47,6.08,3.35,11.56,7.71,17.89,10.9-.89-2.13-2.95-3.15-4.52-4.64-1.85-1.75-4.57-3.01-4.1-6.29.75-1.35,2.54-1.57,3.36-2.97-2.7-.08-2.61,3.66-5.23,3.55-1.48-.23-2.76-.9-3.9-1.79-1.79-1.39-3.88-2.82-3.27-5.46.58-2.49,3.13-2.18,5.01-2.83,4.15-1.44,8.62-1.68,12.77-1.73,13.34-.16,26.61-3.07,39.99-1.16,1.74.25,3.25.21,4.66-.87.86-.62,1.78-1.03,2.87-.76,2.6,1.58,2.78,4.46,3.65,6.95,3.1,8.79,5.37,17.81,7.81,26.79,1.1,4.04,1.84,8.26.98,12.28-1.06,4.9-1.27,9.17,3.15,12.51-28.65,3.03-57.31.95-85.97.22-9.71-.25-19.42-.16-29.13-.22-.75-1.54-1.74-2.76-3.54-3.2-10.84-2.7-21.66-5.79-32.94-5.64-5.28.07-7.76,3.98-8.81,8.82-6.45-.4-9.97,4.59-14.17,8.02-9.33,7.62-16.1,17.78-24.94,25.92-.92.84-1.86,1.86-1.44,3.22.57,1.84,2.27,1.45,3.66,1.5,1.45.06,2.9.01,4.35.01"/>
  <path class="cls-29" d="M859.27,492.77c6.7,8.8,7.5,19.66,10.3,29.8,1.05,3.82.42,7.8-2.05,11.23-5.22,7.24-10.1,7.02-14.24-.67-1.03-1.91-2.05-3.84-3.15-5.71-6.62-11.29-7.69-11.67-19.27-6.14-2.3,1.1-4.64,1.46-6.97,1.1-6.15-.95-12.1-1.33-17.58,2.47-1.25.87-3,1.05-4.25-.17-1.55-1.51-.9-3.3.06-4.78,3.39-5.28,2.83-10.89,1.08-16.37-1.77-5.55-5.12-6.76-9.99-3.66-6.51,4.14-11.62,9.35-10.64,17.97.34,3.01-.86,4.34-3.65,3.36-3.89-1.36-7.69-3.04-11.41-4.81-2.23-1.06-3.19-3.09-2.02-5.46,7.99-16.14,16.68-31.61,34.09-39.82,13.68-6.45,33.4-3.64,44.69,6.6,4.16,3.77,7.21,8.65,12.02,11.73.52,1.54,1.64,2.55,3,3.35Z"/>
  <path class="cls-9" d="M399.18,392.45c.04-3.47.22-6.93-.87-10.32-2.81-8.68.36-16.57,3.37-24.47-.36-.52-.42-1.1-.44-1.72-.09-2.79,3.23-5.22,1.33-8.02-1.6-2.36-5.15-.57-7.23-2.47-2.91-.81-3.66-2.88-3.61-5.69.15-9.31.24-18.63.16-27.95-.03-4.01,1.72-5.5,5.63-5.5,37.5.06,75.03-.76,112.5.42,16.57.52,32.9-1.1,49.31-1.09,10.27,0,20.62.64,30.95.66,4.35,0,8.69-.14,13.03-.22,1.63.49,3.04,1.29,3.9,2.83.43.86.18,1.42-.75,1.66-13.98-2.21-28.04-.81-42.07-.91-52.3,2.58-104.59-1.48-156.89.03-3.5.1-7.05-.35-10.43.87-4.2,2.99-1.63,7.33-2.2,11.04.04,1.79.1,3.57-.02,5.36-.01,1.04.1,2.07.11,3.1.17,11.16.84,12.55,12.08,10.96,10.45-1.48,20.5-1.27,30.79.55,5.51.98,11.07-.99,16.69-.97,25.47.11,50.93.05,76.4.05,3.73,0,7.48.04,11.09,1.09,2.09.61,4.72.81,4.58,4.03-.38.84-.99,1.07-1.82.7-1.19-.07-2.38-.15-3.57-.22-1.92-1.19-4.04-.59-6.06-.6-27.54-.05-55.09-.03-82.63-.03-2.69,0-5.37.67-7.96.75-8.4.26-11.37,5.62-13.14,12.5-4.41,17.21-2.41,34.02,3.22,50.59.6,1.76,1.61,3.38,1.77,5.27.22,2.61-.65,4.66-3.57,4.75-5.16.15-10.39.79-15.47-.35-5.71-1.29-10.12-4.34-12.49-10.07-2.26-5.44-4.75-10.77-5.67-16.65Z"/>
  <path class="cls-20" d="M501.37,585.1c2.95-4.63,7.99-6.25,12.48-8.67,4.45-.92,8.45-2.38,11.75-5.96,2.52-2.74,6.13-4.13,10.2-2.98,1.58.45,3.29.13,4.92.5,13.38,3.03,13.67,4.18,7.51,16.15-8.59,16.67-10.39,34.6-8.69,53.07.6,6.53,5.44,7.43,10.32,8.52,0,4.88-3.66,4.55-6.46,3.78-6.75-1.84-13.77-2.71-20.3-5.25-7.43-2.88-12.03-8.13-13.4-16.29-2.57-15.28-.14-29.86,5.35-44.12.83-2.17,2.41-5.03-2.3-3.02-2.85,1.8-5.52,3.91-8.8,4.92-.96.16-1.84.03-2.57-.67Z"/>
  <path class="cls-1" d="M399.18,392.45c3.15,4.7,3.73,10.39,5.99,15.47,3.29,7.42,9.05,10.37,16.72,10.51,3.31.06,6.63.04,9.94.03,3.69-.02,4.22-1.93,2.83-4.87-8.47-17.83-9.16-36.44-5.32-55.4,2.06-10.18,5.95-13.14,16.58-13.16,29.83-.07,59.65-.06,89.48-.02,1.97,0,4.21-.72,5.79,1.27-29.59.03-59.17.05-88.76.1-7.51.01-7.52.44-4.71,7.19,7.99,19.2,8.35,38.92,2.21,58.59-1.62,5.19-6.14,8.77-12.31,8.82-4.55.03-9.1.05-13.66,0-12.53-.14-19.08-5.16-22.33-17.16-.76-2.81-1.78-5.47-3.57-7.8.07-1.29-.26-2.7,1.13-3.57Z"/>
  <path class="cls-25" d="M315.92,352.54c1.58-.85,2.72-2,2.16-3.94-.56-1.94-2.21-2.25-3.95-2.28-1.65-.02-3.31-.02-4.96-.02-49.18-.03-98.37-.06-147.55-.09-1.21-1.99-1.3-3.55,1.52-4.02,3.36,1.36,6.9,1.14,10.42,1.14,44.58,0,89.15,0,133.73,0,2.07,0,4.15-.04,6.22.03,7.89.27,10.09,3.01,7.08,10.13-6.46,15.24-5.92,30.7-2.27,46.32,3.1,13.26,10.68,18.38,23.98,16.75,3.03-.37,4.23-1.52,3-4.4-5.98-14-5.26-28.76-5.11-43.47.03-3.12.36-6.18,1.15-9.22,3.9-14.84,8.75-17.99,24.24-15.62-2.08,8.26-4.15,16.53-6.23,24.79-4.32.46-5.85,3.15-5.81,7.17.04,3.7-.36,7.43.31,11.07,1.01,5.47,2.73,6.12,7.37,3,.68-.46,1.28-1.03,2.09-1.26,1.56,2.44,1.28,6.06,4.68,7.32-1.28,5.15-1.43,10.56-3.85,15.46-2.86,5.79-6.78,9.8-13.79,9.57-2.89-.09-5.8-.18-8.68.02-19.06,1.36-24.2-8.16-28.24-23.59-4-15.25-2.73-30.18,2.48-44.9Z"/>
  <path class="cls-25" d="M549.78,645.94c-8.22,1.41-10.96.19-11.77-8.03-2.08-21.13-.33-41.78,12.33-59.89,2.98-4.26.86-5.49-2.39-6.63-9.15-3.2-18.27-6.18-25.87,3.39-2.07,2.61-5.45,1.27-8.24,1.65,4.7-2.33,9.26-4.71,13.24-8.36,3.26-2.99,7.97-2.08,11.87-1.36,5.38.99,11.01,2.01,15.57,5.32,3.11,2.26,5.95,2.33,9.13.65,2.87,7.82-2.71,13.94-4.33,20.85-.43,1.86-2.05,3.44-3.12,5.15-2.69-1.55-4.22,0-5.41,2.12-3.45,6.19-3.86,12.93-2.7,19.66,1,5.78,5.26,1.01,7.85,1.85.52,3.15,2.82,4.86,5.28,6.42.37,1.27-.27,2.24-.91,3.22-2.59,3.11-3.31,7.27-5.83,10.42-1.29,1.55-2.46,3.28-4.71,3.55Z"/>
  <path class="cls-28" d="M744.13,512.98c-9.48,9.55-17.81,20.03-24.79,31.52-4.53,7.46-6.42,15.43-4.05,24.24,1.23,4.57,4.13,7.45,7.58,10.13.43.62.35,1.18-.21,1.68-.88.5-1.81.6-2.78.41-10.37-6.64-11.17-18.35-8.8-28.08,1.5-6.14,4.65-11.58,8.52-16.43,5.17-6.47,9.66-13.44,15.05-19.75,1.94-2.28,5.46-4.89,1.54-8.35-3.9-3.45-9.55-3.91-12.3-.7-3.63,4.24-7.5,8.28-11.06,12.58-9.24,11.17-20.06,20.45-33.81,25.49-11.05,4.05-22.59,5-34.19,2.34-8.09-1.86-14.46-6.18-17.86-14.01-1.31-3.03-3.01-3.67-5.73-1.91-.93.32-1.84.3-2.72-.17-.23-5.02,2.88-7.02,7.19-7.93.47.07.93.13,1.4.2,2.47,2.65,4.43,5.64,6.03,8.88,4.39,8.15,12.3,9.5,20.36,10.46,2.64.32,5.32.1,7.99-.03,3.06-.38,6.06-1.58,9.22-.78,8.51.01,15.64-4.12,21.71-9.1,11.41-9.36,21.58-20.12,30.43-32.01,8.08-2.18,19.78,4.04,21.29,11.33Z"/>
  <path class="cls-6" d="M461.07,47.86c.16-.83.33-1.66.49-2.49,0,0,.34-.11.34-.11.66-.21,1.22-.05,1.68.47,1.32,1.59,2.6,3.17,4.52,4.17,6.03,3.13,7.83,2.33,9.9-4.03,1.75-5.39,4.37-10.34,9.32-13.56,5.7-3.72,11.14-2.1,13.55,4.2,1.64,4.27,2.77,8.7,1.12,13.33-.46,1.31-1.54,2.85-.37,4.08,1.28,1.34,2.72.03,3.92-.59,3.23-1.69,6.67-2.25,10.23-2.07,4.88.25,9.35-.83,13.77-2.98,6.07-2.96,9.9-1.83,14.04,3.58,2.39,3.13,4.27,6.61,6.47,9.87,2.73,4.04,4.97,4.09,8.47.6,3.09-3.09,3.56-6.61,2.7-10.84-3.48-17.13-13.37-30.04-26.65-40.61-8.22-6.54-27.02-11.51-40.46-2.75-2.19,1.43-4.21,3.53-7.26,2.92-.63-.31-.92-.81-.86-1.51,15.81-15.02,43.14-10.71,54.6,2.05,6.85,7.63,15.89,13.47,19.11,24,1.44,4.71,2.71,9.45,4.44,14.1,3.09,8.33-.11,14.18-9.4,19.67-2.84-.69-6.81.64-7.38-4.11-3.08-2.56-4.65-6.31-7.27-9.25-3.21-3.6-6.68-4.76-10.92-1.91-3.42,2.3-7.21,3.03-11.24,2.84-4.62-.22-9.03.27-13.22,2.57-2.43,1.33-5.25,1.54-7.63-.38-2.52-2.04-2.13-4.77-1.2-7.41,1.27-3.6,1.7-7.28,1.02-11.01-.95-5.24-3.66-6.29-7.71-3-3.92,3.19-5.88,7.28-5.72,12.47.21,6.71-2.69,8.99-9.16,7.33-3.2-.83-6.31-2.06-9.31-3.47-2.52-1.18-4.75-2.75-3.94-6.16Z"/>
  <path class="cls-31" d="M544.74,346.5c.5-.12.99-.23,1.49-.35,3.69-2.16,6.41.31,8.98,2.18,13.27,9.69,21.51,22.71,24.89,38.76,4.53,21.49,7.27,43.21,7.49,65.17.05,4.79,3.02,9.74-.31,14.47-1.07.15-1.99-.07-2.59-1.06-1.22-28.03-3.53-55.94-10.19-83.29-3.83-15.73-12.98-27.43-27.75-34.51-.72-.35-1.34-.91-2.01-1.38Z"/>
  <path class="cls-28" d="M761.3,587.63c-7.03,4.97-11.79,12.12-17.39,18.42-7.21,8.1-15.98,14.01-24.8,19.98-2.28,2.13-4.91,1.87-7.6,1.09-2.54-1.67-.99-2.68.71-3.3,15.41-5.67,26.62-16.69,36.84-28.92,3.85-4.6,9.92-7.74,10.14-14.84.26-.57.65-1.02,1.18-1.36,2,2.8.99,5.91.93,8.93Z"/>
  <path class="cls-28" d="M761.3,587.63c-7.03,4.97-11.79,12.12-17.39,18.42-7.21,8.1-15.98,14.01-24.8,19.98-2.28,2.13-4.91,1.87-7.6,1.09-2.54-1.67-.99-2.68.71-3.3,15.41-5.67,26.62-16.69,36.84-28.92,3.85-4.6,9.92-7.74,10.14-14.84.26-.57.65-1.02,1.18-1.36,2,2.8.99,5.91.93,8.93Z"/>
  <path class="cls-6" d="M463.1,45.2l-.6-.05s-.6.1-.59.1c5.93-13.33,11.47-26.92,24.09-35.73.09.44.19.88.29,1.33.51,1.92-.67,3.24-1.88,4.26-8.09,6.87-12.48,16.18-17.05,25.41-.93,1.88-1.34,4.5-4.25,4.68Z"/>
  <path class="cls-28" d="M722.82,580.18c.02-.44.03-.88.05-1.31,3.63-.26,6.6,2.19,10.11,2.45,6.68.51,13.11-.04,18.95-3.85,2.04-1.33,4.27-2.54,6.88-2.48.52,1.24,1.04,2.48,1.56,3.72,0,0-.24.21-.24.21-6.09.45-11.1,4.37-17.06,5.27-4.14.16-8.28.09-12.43.09-3.11-.41-6.8.29-7.81-4.1Z"/>
  <path class="cls-17" d="M924.96,814.79c-.1-5.16-.21-10.31-.31-15.47,1.89,5.12,1.49,10.29.31,15.47Z"/>
  <path class="cls-11" d="M501.37,585.1c.77-.05,1.53-.1,2.3-.15-.43,4.62-3.23,6.32-7.56,6.14.19-.71.38-1.42.57-2.13,1.56-1.28,3.13-2.57,4.69-3.85Z"/>
  <path class="cls-28" d="M234.38,83.18c12.25-1.62,24.56-2.86,36.73-4.93,18.3-3.11,35.81-9.5,53.85-13.79,13.82-3.29,27.6-6.73,41.41-10.1,1.22,3.13-.88,5.14-2.59,7.14-8.97,10.46-9.96,21.87-4.22,34.12.53,1.78,1.51,3.33,2.76,4.65,3.57,3.79,3.7,8.28,2.87,13.02-3.15,13.06-4.73,26.38-6.68,39.64-.3,2.02-.91,3.99-1.37,5.98-9.39,3.02-18.96,2.77-28.68,2.25-10.85-.58-21.66-3.09-32.59-.99-7.94-1.35-15.89-1.83-23.92-.49-3.2.53-5.47-1.52-7.29-3.91-2.56-3.35-4.15-7.21-4.83-11.31-3.26-19.52-12.13-36.7-21.95-53.51-1.43-2.45-3.28-4.75-3.48-7.76Z"/>
  <path class="cls-23" d="M338.38,305.48c-.05.23-.1.46-.15.7-1,1.33-2.39,1.34-3.9,1.29-32.23-1.02-64.48-.25-96.71-.4-4.72-.02-9.34,1.92-14.13.88-4.05-3.81-9-5.32-14.47-5.48-4.29-1.77-4.34-4.94-2.92-8.66,1.53-3.99,5.2-8.16,3.61-12.04-1.48-3.61-7.03-3.64-10.67-5.53-14.8-7.71-29.47-15.67-44.57-22.8-1.65-.78-3.54-1.27-4.41-3.16.45-2.09,2.08-2.14,3.72-2.18,12.48,4.06,23.81,10.52,35.07,17.09,5.37,3.14,10.86,6.06,16.63,8.35,5.81,2.31,7.8,1.43,10.05-4.33,1.89-4.81,3.61-9.68,5.17-14.62.7-2.23.68-5.68,4.68-5.17.33.51.53,1.08.67,1.67.56,2.4-1.96,5.76,1.32,7.12,3.17,1.32,6.77,1.19,9.93-.82.69-.44,1.32-.93,2.16-1.07,4.22,1.64,8.39,1.51,12.74.24,10.82-3.15,21.89-4.61,33.17-4.07,12.25.59,24.41-1.13,36.62-1.25,5.01-.05,7.57-2.36,8.65-6.93,3.99-.05,4.68,3.31,5.08,5.88,2.16,14.03,6.45,27.77,5.72,42.23-.23,4.62-.61,9.02-3.05,13.04Z"/>
  <path class="cls-17" d="M412.98,77.68c-1.62.04-2.45.87-2.49,2.49-5.93,2.68-4.73,7.35-3.44,12.11.67,2.46,2.11,4.46,3.44,6.55-.06,1.7.04,3.42,1.51,4.53,5.7,4.3,5.17,11.35,2,14.78-3.61,3.89-8.35,5.76-5.23,12.08-9.85,2.16-5.67,5.41-1.21,9.73,1.64,1.59-1.42,4.26-3.26,5.19-4.46,2.26-5.31,5.74-5.07,10.27.34,6.39.38,12.68-3.1,18.65-2.21,3.79.32,8.08.72,12.14.78,7.78.67,15.49.15,23.32-.75,11.14-.2,22.37-.19,33.56.01,9.91.64,19.83-3.56,29.3-1.4,3.15-1.69,6.77-1.45,10.35.45,6.81-1.47,13.04-5.13,18.83-2.24-5.33-2.3-5.33-1.63-11.31.27-2.41-.53-4.48-1.76-6.38-.93-1.44-2.35-2.35-4.22-2.07-2.34.36-2.16,2.18-2.14,3.82.05,4.97.08,9.93.3,14.89.06,1.38,1.2,2.95-1.11,3.37-1.41.26-3.34.53-3.9-1.05-3.23-9.06-11.71-16.35-9.04-27.44,1.05-4.33,4.07-7.72,4.08-12.76,0-6-2.39-11.16-3.34-16.76-1.15-6.71-1.91-13.16,4.11-18.27,1.59-1.35,2.45-3.37,2.64-5.49.25-2.88,1.91-4.05,4.57-3.86,3.44.24,4.93-1.61,5.33-4.68.76-5.84-.84-11.48-1.66-17.18-.2-1.4-1.16-2.66-2.62-3.29-9.96-4.34-9.28-15.31-14.15-22.82-.62-.95.04-2.44.94-3.42,6.59-7.15,5.62-16.59,7.53-25.13.6-2.7-.52-7.15,2.75-7.23,3.56-.09,4.55,4.14,4.78,7.59.46,6.88-1.15,13.51-2.42,20.19-.4,2.13-1.68,3.14-3.29,4.18-1.85,1.19-1.8,2.81-.18,4.07,5.67,4.42,7.46,10.97,9.48,17.32.66,2.06,1.48,3.73,3.49,3.62,2.45-.14,1.7-2.54,1.58-3.96-.55-6.64,1.99-13.7-2.72-19.8-1.55-2.01.34-3.94.6-5.9,1.2-9.2,2.97-18.45-2.79-26.92,3.48-5.75,1.56-11.26-1.19-16.44-1.57-2.95-2.87-5.89-3.79-9.1-1.34-4.69-1.19-8.6,4.06-10.77,2.2-.91,3.45-2.86,2.49-5.01-2.67-6-1.14-12.13-.93-18.47-1.54,1.12-2.06,2.87-3.7,3.4-3.06.98-6.34,1.52-8.96-.46-2.91-2.21-1.23-5.25-.31-7.97,1.46-4.28,4.72-7.26,7.66-10.41,1.85-1.98,4.4-1.94,6.96-1.13,4.73,1.51,9.34,3.38,14.28,4.21,2.21.37,3.72,1.79,4.58,3.81,1.47,3.46,3.28,2.99,5.53.7,1.75-1.78,4-2.93,6.09-4.27,3.06-1.95,5.3-.29,6.6,2.3,1.8,3.61-1.55,3.78-3.53,3.94-6.1.47-3.05,5.73-4.72,8.46Z"/>
  <path class="cls-17" d="M461.07,47.86c2.37,4.08,13.45,9.4,17.99,8.74,2.55-.37,3.89-1.75,3.22-4.21-2.15-7.87,1.79-12.86,7.45-17.44,4.19-3.4,6.61-1.36,8.06,2.34,1.77,4.49,1.88,9.28.03,13.9-.92,2.29-2.59,4.7-.24,6.82,2.62,2.36,5.51,1.17,7.95-.56,2.32-1.65,4.75-2.36,7.55-2.18,6.25.41,12.24.25,17.64-3.94,2.89-2.24,6.22-1.4,8.83,1.54,3.28,3.71,6.7,7.3,7.83,12.36-2.58-.21-3.63.88-3.8,3.56-.25,4.02-2.49,7.27-6.17,8.6-4.46,1.61-8.94,2.7-12.2,6.63-1.42,1.71-2.94,1.32-4.02-1.26-2.52-6.02-10.88-6.81-14.94-1.66-1.53,1.94-.55,3.15,1.25,3.75,2.14.71,4.38,1.16,6.61,1.48,2.97.43,6.08.67,5.83,4.76-.22,3.53-2.63,6.47-5.75,6.2-7-.62-11.51,2.47-16.04,7.2-2.17,2.27-6.14,6.33-9.34,1.74-2.45-3.51-2.3-8.1,1.44-11.79,3.23-3.2,4.63-7.12,2.43-11.62-.91-1.86-2.22-3.02-4.45-2.23-2.21.78-3.65,2.2-2.8,4.68,1.23,3.56,2.05,7.23-2.02,9.2-5.26,2.54-9.51,9.75-17.03,2.87-4.64-4.24-8.65-2.82-11.16,3.13-3.24,7.66-11.39,11.2-14.77,18.65-.58,1.27-3.43,1.98-3.14.27,1.02-6.21-5.77-8.94-5.71-14.47-2.87-3.94.29-7.49.74-11.21,1.15-9.59,2.66-19.16,2.59-28.86-.03-4.22.85-7.81,5.31-9.45,7.58-.78,14.7-2.81,20.83-7.55Z"/>
  <path class="cls-14" d="M221.47,306.23c16.67-1.11,33.36-.82,50.04-.84,18.58-.02,37.16-.06,55.74.02,3.66.01,7.33.51,10.99.78,5.79.11,11.58.29,17.37.3,4.03,0,6.08,1.74,6.32,5.89.19,3.49.84,6.95,1.28,10.42,1.49,5.69.05,11.52.87,17.27.44,3.04-2.15,3.78-4.48,3.98-5.35.46-10.71,1.1-16.08.15-2.86-.51-5.74-1.02-8.65-.8-27.06,2.03-54.13-.18-81.2.3-27.16.49-54.33.14-81.5.05-2.44,0-5.79.99-6.11-3.26.39-1.91,1.64-3.32,3.07-4.47,8.48-6.85,15.82-14.89,23.76-22.29,1.16-1.09,3.54-5.78,5.4-.11-1.23,4.58-6.17,6.56-7.9,10.82,1.88,1.96,4.06,1.26,6,1.26,51.4.04,102.8.05,154.19.02,8.29,0,8.86-.86,8.26-8.89-.31-4.16-2.17-5.71-6.22-5.93-39.13-2.09-78.3-1.3-117.44-.98-8.86.07-17.76,1.06-26.67.95-2.68-.03-5.42.2-7.87-1.29-1.73-2.69.53-3.35,2.19-4.33,6.27-.59,12.58-1.94,18.66.97Z"/>
  <path class="cls-20" d="M167.8,338.97c-.62,1.5-1.84,3.25,1.12,3.56,1.44.15,2.9.06,4.35.06,43.96,0,87.93.06,131.89-.03,9.18-.02,18.33,1.85,27.58-1,5.32-1.64,11.04.65,16.5,1.63,2.49.45,4.92.63,7.39.52,4.56-.2,7.29-1.87,6.7-7.26-.5-4.5-.11-9.11-.11-13.66,2.37,6.85.71,14.15,2.39,21.08-2.87,1.67-6.09,1.36-9.11,1.12-5.73-.46-9.27,2.59-10.97,7.27-1.8,4.96-3.6,10.01-3.54,15.57.16,14.43-1,28.92,4.73,42.77,3.22,7.78,2.97,7.88-5.38,7.87-17.13-.03-22.47-5.36-25.67-22.38-2.98-15.89-2.66-31.05,4.45-45.79,1.67-3.46-.03-5.07-3.48-5.27-1.86-.11-3.73-.05-5.59-.05-46.8,0-93.61,0-140.41-.04-2.75,0-5.96,1.08-7.8-2.25-.74-2.9,1.23-3.75,3.37-4.48.64.04,1.17.29,1.61.76Z"/>
  <path class="cls-17" d="M412.98,77.68c-2.86-8.94-2.76-9.07,7.64-10.48-3.19-4.69-5.65-5.05-10.81.96-4.63,5.39-6.69,5.68-8.25-1.52-.35-1.61-1.53-2.49-3.12-2.54-5.48-.19-10.33-2.56-15.29-4.46-2.06-.79-4.35-.53-5.07.94-1.88,3.86-6.42,5.74-7.23,10.34-.4,2.24-3.18,5.24.22,6.27,3.02.92,7.63,2.53,9.43-2.67.52-1.51.37-3.97,2.47-3.53,2.39.5,1.39,3.12,1.31,4.76-.28,5.97-2.16,11.81,1.05,17.82,1.39,2.6.52,6.05-4.02,6.67-3.48.47-4.01,2.7-3.49,6.36,1.06,7.48,7.19,12.94,7.51,20.55.13,3.15,1.64,6.93-3.47,7.75-1.68-8.63-7.72-15.6-9.22-24.34-.37-2.16-1.66-4.26-4.49-4.28.26-4.71,4.31-7.75,5.38-12.13.34-1.37,1.28-2.58,1.48-4.03.2-1.46.33-3.15-1.41-3.62-1.45-.39-2.16,1.01-2.49,2.2-.89,3.3-3.23,5.7-5.07,8.4-3.01,4.43-3.56,4.34-7.26-.52-7.29-11.88-6.1-24.93,3.4-35.59,1.78-2,3.71-3.81,4.16-6.6,4.79-.48,9.56-.96,14.34-1.44,7.82.86,15.64.77,23.47.07,1.67-.05,3.34-.09,5-.14,2.14,1.8,4.81,2.14,7.41,2.72,11.13,5.44,14.75,12.85,12.02,24.62-.79,3.42-1.32,6.91-2.31,10.26-.71,2.42-.96,5.47-4.46,5.89-2.01,1.17-2.9,5.46-6.25,2.79-2.7-2.15-.88-4.83.23-7.22,3.99-8.63,3.34-11.97-2.81-14.26Z"/>
  <path class="cls-17" d="M387.42,392.31c-6.63,0-10.28-3.85-9-10.78.91-4.92,1.37-10.02,4.77-14.46,3.82-4.99-1.03-14.99-7.4-15.68-3.47-.38-5.09-2.06-5.01-5,.26-9.32-1.89-18.39-2.53-27.6-.12-1.81-1.3-4.87,1.36-5.33,2.26-.39,2.81,2.69,3.58,4.48,1.78,4.14,3.31,8.4,4.87,12.64.59,1.6,1.26,3.75,3.24,2.65,4.83-2.67,4.35.88,4.23,3.45-.33,7.05,1.8,13.31,4.93,19.52,3.49,6.94,1.74,11.53-5.13,15.25-2.27,1.23-2.68,3.15-1.81,5.25.99,2.39,2.16,6.14,5.18,4.94,5.06-2.01,5.25.9,5.56,4.14.34,3.6-.06,6.84-4.98,6.53-.62-.04-1.24,0-1.86,0Z"/>
  <path class="cls-28" d="M421.83,148.85c-2.76-.4-5.18.82-7.7,1.58-3.9-.56-4.47-2.61-2.89-5.95,1.1-2.33,2.93-4.38,2.98-7.15,1.26-2,2.84-2.95,5.12-1.52,6,2.2,12.37.21,16.75-5.18,5.61-6.9,10.74-14.19,17.11-20.46.89-.87,1.75-1.78,2.68-2.6,1.12-.98,2.42-1.97,3.79-.65,1.11,1.07.3,2.23-.42,3.3-10.12,15.15-19.77,30.75-37.42,38.61Z"/>
  <path class="cls-28" d="M421.81,96.36c4.16-9.67,8.11-19.26,4.29-30.19-1.88-5.4-6.43-7.18-10.67-9.61-.96-.89-3.12-.7-2.8-2.73.32-2,2.09-1.68,3.45-1.61,4.3.21,8.64-.63,12.9.49l.29.15c.25.6.17,1.15-.28,1.63-1.71,1.26-3.89.88-6.51,1.44,10.06,8.21,9.08,18.64,7.36,29.18-.96,5.89-3.54,11.38-4.6,17.26-.39,2.18-.85,4.33-.47,6.6,3.71-1.98.64-8.14,6.1-8.6.07,1.6.54,3.22-.45,4.71-.71,6.97-5.36,12.39-7.44,18.82-2.06.8-3.04-.08-3.11-2.11-.06-1.78-.19-3.58.17-5.35.59-6.69,1.17-13.38,1.76-20.07Z"/>
  <path class="cls-24" d="M358.79,96.57c2.28,1.86,4.19,5.18,6.25-.7,1.13-3.24,4.51-5.63,5.18-9.53.36-2.14,2.41-3.05,4.37-2.07,3.41,1.71,2.9,5.1,1.73,7.59-2.34,4.99-4.02,10.43-8.18,14.42-.99,2.34-1.99,4.69-2.98,7.03,1.07-6.8-4.52-11.05-6.38-16.73Z"/>
  <path class="cls-17" d="M367.91,366.56c3.29,5.9,5.49,11.56,6.33,17.65.32,2.35,1.01,5.43-2.05,6.42-3.56,1.15-3.9-2.16-4.53-4.4-1.77-6.32-5.8-12.67.26-19.67Z"/>
  <path class="cls-17" d="M420.05,116.43c1.09,2.44-1.39,6.28,2.93,7.46,0,1.2,0,2.4,0,5.21,2.76-4.5,4.94-8.38,8.84-3.17.81,1.08,1.22,2.15.56,3.39-.64,1.2-1.86,2.14-3.02,1.56-5.65-2.83-7.71,1.25-10.03,4.94-1.71.5-3.41,1.01-5.12,1.51.72-7.31,4.89-13.66,5.84-20.91Z"/>
  <path class="cls-28" d="M430.42,105.08c-.01-1.69-.02-3.38-.04-5.07-1.82-6.62.93-12.94,1.45-19.4.53-6.59.19-13.18.73-19.74.26-3.14-2.35-4.64-3.5-6.97.04-.35.1-.69.19-1.02,4.09-1.02,7.37,1.47,10.97,2.54-2.98,3.17-3.85,6.85-3.77,11.22.22,12.97-2.14,25.67-4.87,38.3-.39.06-.78.11-1.18.15Z"/>
  <path class="cls-36" d="M363.32,388.66c-.73,3.56-3.74,5.51-6.52,5.54-3.41.04-4.09-3.92-4.38-6.6-.52-4.89-.7-9.91-.16-14.78.41-3.64,2.22-7.07,7.09-4.16-.1,6.95,2.69,13.32,3.96,19.99Z"/>
  <path class="cls-17" d="M410.49,98.82c-4.46-2.33-8.1-13.29-5.62-16.99,1.41-2.09,3.61-1.57,5.62-1.67,1.8,6.22,3.35,12.44,0,18.65Z"/>
  <path class="cls-17" d="M386.89,316.96c-.98,2.56,1.97,7.34-1.96,8.18-2.3.49-2.75-4.77-4.06-7.4-1.26-2.53-1.79-5.41-1.51-8.35.18-1.84-.11-3.75,2.56-4.08,2.7-.34,3.44,1.29,4.22,3.39.98,2.62.53,5.26.75,8.26Z"/>
  <path class="cls-17" d="M365.68,126.29c.06-2.21.08-4.6,2.78-4.73,2.88-.14,2.1,2.41,2.16,4.05.07,1.96.47,4.67-2.19,4.94-2.89.29-2.59-2.42-2.75-4.26Z"/>
  <path class="cls-22" d="M689.24,817.66c-70.44,0-134.1.01-197.76-.05-1.91,0-4.75,1.23-5.57-1.15-.73-2.12,1.96-3.38,3.38-4.74,3.9-3.7,8.05-7.14,11.94-10.85,1.87-1.79,3.98-1.9,6.3-1.9,36.29.06,72.58-.21,108.86.32,10.73.16,21.51,1.44,32.25.93,59.25-2.77,118.52-.53,177.78-1.17,29.98-.32,59.98.19,89.96-.21,8.53-.11,6.43,5.17,6.85,9.85.48,5.34-.89,7.65-7.04,7.79-77.91,1.86-155.82.94-226.96,1.16Z"/>
  <path class="cls-12" d="M496.1,591.08c3.22-1.18,5.65-3.35,7.56-6.14,2.54-1.63,5.07-3.25,7.61-4.88,3.75-1.44,5.54.03,4.16,3.67-3.01,7.96-4.64,16.1-5.94,24.51-1.23,8.02-.24,15.59,1.4,23.16,1.42,6.57,6.38,10.38,12.51,12.61,6.59,2.4,13.62,3.08,20.35,5.01,5.42,1.56,7.57-2.94,10.19-6.31,2.26-3.71,3.47-7.96,5.82-11.63.49-.78.98-1.57,1.47-2.35.75.04,1.51.07,2.26.11,3.61,2.38,8.46,1.38,11.86,4.34,1.6,1.97,2.03,4.48,3.07,6.72,1.69,3.65,3.88,7.01,7.62,8.62,6.05,2.59,11.9,5.49,17.53,8.89,4.95,2.32,10.3,3.15,15.55,4.34,2.98.68,6.07,1.95,5.9,5.4-.55,11.3,5.92,19.96,10.42,29.38,4.98,10.44,12.1,19.84,15.11,31.23.37,1.4.99,2.73,1.22,4.17.88,5.71-.73,7.45-6.59,7.41-9.52-.07-19.07-.55-28.53,1.05-13.52-.34-26.57,2.98-39.78,5.06-6.18.97-12.43,1.53-17.6-3.26-6.4-4.48-9.48-11.64-14.1-17.56-2.27-3.56-3.98-3.89-5.51.63-3.04,8.97-6.89,17.65-10.02,26.59-2.07,5.9-3.49,6.63-9.15,4.49-6.13-2.31-12.21-4.77-18.06-7.76-9.92-4.37-19.99-8.39-29.84-12.9-3.95-1.81-8.11-2.84-12.32-3.75-3.38-1.34-7.54-.35-10.33-3.45-1.89-1.53-1.93-3.43-1.36-5.61,10.62-40.02,22.07-79.77,38.52-117.87,2.2-5.09,5.14-9.84,9-13.93Z"/>
  <path class="cls-14" d="M587.28,466.73c-1.88-26.48-3.05-53.03-8.76-79.1-3.56-16.25-11.83-29.28-25.44-38.91-2.08-1.47-4.27-2.49-6.85-2.56-2.44-4.16-6.86-3.38-10.37-3.41-28.76-.24-57.53-.59-86.27.15-8.09.21-15.86.44-23.79-1.31-3.51-.78-7.84-.96-10.99.43-6.32,2.78-12.64-.38-18.85,1.22-2.39.62-2.84-1.87-2.84-3.81,0-4.34.07-8.68.11-13.02,2.14-1.1,4.45-.75,6.71-.75,50.09.03,100.18,0,150.27.01,3.11,0,6.2-.13,9.31-.28,1.94-.1,4.25-.77,5.21,1.94l.21.49c-1.94,3.79,2.19,4.18,3.46,6.17,11.54,9.11,21.02,19.94,26.35,33.76,3.95,10.23,5.96,21.07,7.16,31.93,2.2,19.91,3.52,39.9,3.95,59.94.05,2.48.24,4.98-1.04,7.28-5.84-.05-11.69-.1-17.53-.16Z"/>
  <path class="cls-20" d="M575.07,633.89c-3.1-3.42-8.84-.79-11.57-5.04,6.81.41,13.05,3.79,20.02,3.64,3.94-.08,6.08-1.08,6.67-5.39.48-3.53,1.08-7.02.19-10.44-.69-2.63-.56-5.84.74-7.16,6.83-6.99,1.91-13.9.31-20.65-2.97-12.52-2.78-24.86.67-37.2.99-1.33,1.97-2.67,3.93-1.57.6,1.36-.05,2.49-.66,3.64-5.16,15.14-3.44,29.82,2.81,45.08,5.94-6.52,8.91-16.21,18.76-16.06,7.05.11,14.44.98,20.4,5.84.31.61.44,1.25.4,1.93-6.05,9.21-10.8,18.92-12.82,29.91-2.42,13.16-3.88,26.19,1.32,39.05.9,2.23,1.02,4.42-.34,6.53-1.15,11.27,5.55,19.87,10.03,29.19,5.05,10.52,12.31,19.93,15.45,31.43,1.04,3.81,2.1,7.5,1.82,11.47-.42.43-.85.86-1.27,1.29-2.09,1.24-4.29.86-6.59.76-6.99-.3-14-.6-21,.23-2.38.28-4.97.81-7.08-1.12,8.96-2.16,18.06-.91,27.09-1.05,6.98-.11,7.81-1.05,5.87-8-2.07-7.43-5.31-14.31-9.18-20.97-5.83-10.02-11.01-20.38-15.41-31.11-.7-1.69-1.51-3.62-1.33-5.34.64-6.32-1.6-9.49-8.3-9.97-4.91-.35-9.75-1.87-14.05-4.57-2.58-1.75-4.87-3.77-6.21-6.67-1.1-4.37-2.73-8.67-2.65-13.25.06-3.56-1.61-3.96-4.65-3.46-3.85.63-7.78.63-11.67,0-.61-.22-1.17-.53-1.67-.95Z"/>
  <path class="cls-18" d="M670.7,542.77c-2.66,2.05-5.96,1.52-8.95,2.21-7.15-6.01-16.45-6.79-24.71-10.08-1.68-.67-3.64-.64-5-2.07-2.97-2.11-3.64-5.53-4.93-8.6,9.03,3.07,17.77,7.15,27.57,7.4,4.15.1,7.29-1.04,8.43-5.45.37-1.43.85-2.96,2.7-2.77,1.76.18,1.78,1.85,2.36,3.16,2.29,5.21,2.75,10.64,2.54,16.21Z"/>
  <path class="cls-34" d="M555.96,622.32c-2.27,1.18-4.05,4.5-6.94,2.97-2.77-1.46-2.86-4.74-2.95-7.73-.23-7.38.43-14.53,5.36-20.5,2.72-3.29,4.45-2.64,4.78,1.62-2.29,7.85-.42,15.75-.25,23.63Z"/>
  <path class="cls-17" d="M520.01,769.14c-3.9-5.07-8.35-.63-12.38-.36-3.51.24-2.62,4.18-2.5,6.72.21,4.2-.39,8.27-1.51,12.24-1.84,6.52-6.7,9.04-13.48,6.99-1.86-.56-2.76.09-3.55,1.43-2.44,4.19-5.8,6.55-10.84,7.1-4.22.45-6.68,2.79-7,7.85-.34,5.3-5.64,8.34-8.17,12.78-.46.8-1.55.66-2.12-.07-2.06-2.65-3.42-.59-5.55.2-7.75,2.89-8.74,8.08-6.94,15.25.68,2.71-.49,6.05-2.87,7.82-5.28,3.91-8.79,9.29-12.75,14.28-2.18,2.74-4.16,2.72-6.89.97-8.68-5.57-16.8-2.97-19.83,6.7-1.33,4.23-3.66,8.31-1.1,13.53,1.51,3.08,2.16,8.18-2.57,11.02-1.77,1.06-1.75,2.87-1.55,4.94.3,3.17-1.54,5.11-4.89,4.88-3.28-.23-5.71-1.7-5.05-5.46.85-4.88-1.22-5.06-4.7-3.19-1.11.6-2.18,1.53-3.39.72-1.43-.95-1.15-2.62-.86-3.99.48-2.25,1.49-4.17,3.64-5.5,7.82-4.85,12.5-11.42,12.59-21.14.04-4.31.77-8.99,7.47-9.12,3.55-.07,5.16-3.04,3.03-6.84-1.29-2.29-3.29-4.92-1.1-7.43,2.21-2.52,5.29-1.42,8.14-.71,3.12.77,6.56,1.52,7.03-3.2.29-2.96-.29-5.9-4.49-3.86-4.69,2.29-4.63-.85-3.8-3.59.82-2.7,2.69-5.08,4.02-7.64,1.35-2.6,4.2-4.68,2.24-8.38-.88-1.66.47-3.05,2.25-3.76,4.33-1.72,7.88-4.01,9.48-8.95,1.1-3.4,4.26-4.16,7.73-3.06,3.79,1.2,7.27,1.49,9.61-2.83.59-1.09,2.38-2.23,3.58-2.19,9.04.31,14.46-5.63,20.38-11.04,5.54-5.06,5.01-16.2-1.27-19.54-3.64-1.94-5.07-9.29-2.5-12.55,1.34-1.7,2.54-1.72,4.05-.17,3.66,3.77,6.71,4.99,7.39-2.06.14-1.47.91-2.21,2.39-2.28,1.8-.09,2.81,1.11,3.12,2.51,1.42,6.44,4.9,7.5,10.36,4.39,2.56-1.46,3.81.84,5.1,2.27,6.41,7.09,14.95,8.72,23.74,4.38,1.79,4.44.65,7.79-3.7,9.96Z"/>
  <path class="cls-17" d="M580.99,750.53c5.52,7.31,11.77,13.46,20.89,16.42,4.15,1.35,6.86,5.87,11.65,6.65,1.85.3,3.98,1.25,5.26-.3,1.65-2-.21-3.94-1.38-5.5-2.6-3.48-5.68-6.47-9.38-8.87-2.36-1.54-3.8-3.82-2.87-6.86.85-2.78,3.63-2.02,5.4-3,9.9-5.49,20.58-2.49,30.86-3.55,9.14-.95,12.54,1.82,12.91,12.33.18,4.99.19,9.85,2.51,14.46.65,1.29,1.86,3.03.13,4.54-1.64,1.44-3.5,1.19-5.21.23-5.03-2.85-6.03-.4-6.1,4.2-.18,10.84-4.22,13.63-15.24,11.68-9.62-1.71-19.18-3.3-29.17-2.95-10.41.36-20.91-.14-31.36.31-3.63.16-6.31-.05-7-4.69-.41-2.72-2.18-5.32-4.44-7.32-2.46-2.18-3.96-2.24-7.24-.12-5.26,3.4-11.74,5.44-18.19,5.25-3-.09-6.13-.44-9.2-.62-1.39-9.27,3.08-16.48,8.27-23.43,1.46-1.95,3.72-3.25,4.69-5.63-.65-2.47-4.29.02-4.64-2.84,2.43-4.8,7.06-4.34,11.28-4.56,5.56-.28,11.16-.18,16.04-3.5,4.49,2.64,9.59,2.68,14.52,3.5,2.81.47,5.8.9,7,4.18Z"/>
  <path class="cls-15" d="M496.31,746.91c2.08.32,4.16.64,6.24.96,5.9,2.49,11.81,4.96,17.71,7.47,3.98,1.7,6.5.89,8.01-3.58,3.17-9.39,6.77-18.64,10.1-27.98.64-1.79.95-3.96,3.21-4.01,2.55-.06,4.14,1.5,4.35,4.19-3.09.47-4.98,1.96-5.94,5.2-2.21,7.47-6.55,14.21-7.68,22.08,2.36,1.05,5.71-2.84,7.11.7,1.15,2.9-2.34,4.51-4.17,6.21-7.24,6.69-9.42,15.62-11.43,24.67-2.91,1.71-5.71,2.79-7.66-1.28-2.56-5.32,3.1-8.1,3.85-12.4,0,0,0,0,0,0,1.68-3.15,3.72-6.17,3.7-9.96-7.99-3.33-15.96-6.71-24.01-9.92-1.4-.56-2.63-1.03-3.39-2.36Z"/>
  <path class="cls-16" d="M580.99,750.53c-3.64-2.63-8.06-3.1-12.21-3.48-3.59-.32-6.19-1.64-8.56-3.99-1.35-.26-1.99-.93-1.36-2.34,11.38,7.76,22.97,1.14,34.42.33,7.98-.57,15.88-2.35,23.96-1.81,11.56.04,23.12.08,34.68.12-1.11,2.29-3,2.38-5.25,2.14-17.98-1.91-35.78.17-53.55,2.64-1.46.2-3.86-.68-4.05,1.66-.14,1.7,1.73,2.68,3.21,3.45,1.62.85,2.79,2.57,4.88,2.5h-.02c2.24,4.15,6.76,5.88,9.77,9.19.96,1.05,3.36,2.03,1.66,3.86-1.24,1.34-3.01.41-4.46-.57-5.43-3.68-10.83-7.4-16.38-10.89-2.04-1.28-4.15-2.71-6.75-2.81Z"/>
  <path class="cls-17" d="M654.2,796.34c-2.45-.11-3.47-1.47-3.42-3.59.07-2.78,1.88-4.94,4.25-5.29,1.91-.28,2.59,2.44,2.85,4.13.4,2.67-1.57,3.93-3.68,4.74Z"/>
  <path class="cls-17" d="M460.78,778.69c.08-3.36,2.76-4.34,4.24-6.16.89-1.1,2.14-2.42,3.43-.45.93,1.42.47,2.96-.9,3.8-2.01,1.24-4.03,2.68-6.77,2.81Z"/>
  <path class="cls-17" d="M597.16,751.75c-.5-4.73.9-5.55,7.01-3.88-1.8,2.46-3.89,4.05-7.02,3.87,0,0,.02,0,.02,0Z"/>
  <path class="cls-17" d="M520.02,769.13c.33,4.63-4.02,7.81-3.85,12.4-3.08-1.58-2.62-3.91-1.08-6.17,1.48-2.18,3.27-4.16,4.93-6.23Z"/>
  <path class="cls-12" d="M324.61,232.9c2.1,3.94,4.19,7.88,6.29,11.82,1.48,7.35,1.5,7.58-6.53,7.99-19.16.97-38.34,1.69-57.5,2.54-6.05.27-11.76,2.26-17.47,3.95-4.17,1.24-7.51,1.11-10.54-2.08-3.89-.68-4.5-4.45-6.18-7-2.63-3.99-4.96-4.09-7.86-.59-4.12,5.63-4.51,12.68-7.13,18.91-4.02,9.54-4.83,10.44-14.52,5.74-11.86-5.75-23.29-12.38-35-18.45-4.71-2.44-9.68-4.4-14.53-6.57-.62-.64-1.42-.92-2.26-1.14-4.55-1.92-9.2-3.61-13.5-6.08-3.41-1.96-5.2-4.6-3.92-8.66.19-1.51-.19-3.22,1.41-4.27.97-4.38,3.09-8.42,3.79-12.87,8.24-26.02,12.06-53.25,21.24-78.97,6.15-17.23,14.76-33.2,30.61-43.89,1.32-.89,2.85-1.48,4.29-2.21,3.85-2,8.12-2.91,12.06-4.68l.25-.26.34.11c7.03-1.22,13.9-3.43,21.2-3.03,3.23.17,5.48,1.29,7.06,4.05,10.19,17.92,20.15,35.93,23.74,56.62.49,2.84,1.61,5.53,2.91,8.13,3.74,7.53,5.21,8.3,13.58,7.14,1.03-.14,2.03-.39,3.06-.52,7.5-.91,14.33-.18,19.17,6.77,1.63,2.34,3.95,4.22,6.09,6.17,4.14,3.76,5.58,8.13,3.13,13.34-2.05,4.36-1.1,8.45.77,12.52,5.4,11.79,10.33,23.79,16,35.46Z"/>
  <path class="cls-7" d="M166.54,338.74c-1.5,1.07-2.98,2.17-3.72,3.95-1.51.8-1.18,2.22-1.19,3.52-3.2.6-5.66,2.6-7.75,4.8-16.95,17.81-36.38,33.01-53.33,50.79-9.66,10.12-17.67,21.64-26.05,32.82-2.51,3.34-4.53,4.68-8.66,2.27-4.24-2.47-8.78-4.5-13.18-6.71-5.47-2.76-8.24-5.8-5.66-12.01.59-1.43-.3-3.34,1.19-4.61,5.52-4.07,8.53-10.1,11.81-15.78,10.95-18.97,21.66-38.08,32.25-57.26,7.32-13.26,18.49-23.17,28.88-33.79,7.5-4.65,13.57-11.11,20.59-16.36,4.71-3.27,4.36-8.46,5.1-13.25.34-2.23.69-4.45.91-6.7,1.3-4.14.66-8.41.87-12.61.13-2.56-.35-5.32,2-7.29,14.41,5.48,27.73,13.18,41.33,20.29,5.96,3.11,11.95,6.13,18.3,8.28,2.59.88,3.39,1.31,1.86,4.11-1.95,3.58-2.94,7.67-4.74,11.34-1.44,2.95-1.03,5.07,1.59,6.88-1.64,1.82-4.42,1.96-5.9,4.02-4.13,2.44-7.19,6.1-10.54,9.39-8.4,8.25-16.48,16.83-25.94,23.92Z"/>
  <path class="cls-28" d="M87.06,522.93c-19.34.63-36.68-4.63-52.22-16.39-9.37-7.09-20.2-12.13-29.16-19.91-6.82-5.93-7.56-9.83-1.87-16.85,5.72-7.06,11.94-13.72,17.99-20.52,1.23-1.38,2.61-3.05,4.73-2.07,1.73.8,1.55,2.74,1.74,4.38.58,4.88.47,11.11,6.69,11.68,9.76.9,15.71.39,18.32-7.49.44-1.34,1.25-2.66,2.2-3.71,3.24-3.59,7.71-5.9,12.14-4.85,4.36,1.04,5.22,5.91,5.68,10.1,1.68,15.51,18.36,35.56,33.26,39.78,2.82.8,5.51,1.8,7.95,3.39,3.54,2.31,6.61,4.87,6.2,9.86-.4,4.88-3.56,7.22-7.47,8.96-8.37,3.73-17.31,3.61-26.17,3.67Z"/>
  <path class="cls-28" d="M80.73,306.04c3.58-7.6,9.4-13.44,15.13-19.38,6.46-6.7,12.29-13.88,17.03-21.96,4.71-8.03,9.83-15.77,17.89-21.04,1.29-.84,2.07-2.48,3.08-3.75,4.77,2.93,11.14,3.37,14.12,9.1.68,4.92.25,9.86.35,14.79.08,4.08-.44,7.77-4.82,9.78-2.66,1.22-3,3.95-2.6,6.41,1.34,8.29-1.93,14.22-8.78,18.62-3.45,2.22-6.29,5.26-9.61,7.67-1.41.36-2.63,1.19-4.04,1.57-10.48.98-20.98.42-31.47.33-2.27-.02-4.52-.45-6.28-2.16Z"/>
  <path class="cls-26" d="M119.45,306.54c-3.96,5.2-8.6,9.81-12.89,14.72-4.05,4.64-8.44,7.48-14.75,6.55-5.24,2.22-10.73,1.01-15.86.2-6.18-.97-12.29-1.07-18.43-.92-4.11.1-5.95-1.21-6.38-5.45-.43-4.18.3-8.15.81-12.2,3.24-3.71,7.65-2.43,11.55-2.32,5.8.17,11.53.07,17.22-1.08,12.91.16,25.82.33,38.73.5Z"/>
  <path class="cls-6" d="M324.61,232.9c-7.74-12.51-12.79-26.28-18.42-39.76-1.32-3.16-.05-6.56,1.19-9.66,1.58-3.94.76-7.27-2.19-10.2-3.82-3.79-7.62-7.62-11.47-11.38-4.05-3.96-9.15-2.35-13.6-1.74-12.89,1.76-15.02,2.76-20.36-13.26-4.24-12.7-6.98-25.9-13.3-37.87-3.93-7.45-7.92-14.87-11.93-22.28-1.38-2.55-3.84-2.6-6.42-2.85-6.94-.66-13.33,2.93-20.21,2.34,8.51-3.69,17.38-4.24,26.46-3.07,5.94,7.39,10.11,15.85,14.37,24.19,6.21,12.15,10.68,24.94,13.08,38.45.53,2.96,2.08,5.85,3.64,8.49,1.79,3.03,4.35,4.13,8.33,3.7,6.79-.74,13.88-2.67,20.45,1.3,3.97,4.22,7.82,8.55,11.94,12.63,3.68,3.65,4.7,7.87,2.82,12.49-1.99,4.88-1.06,9.24.98,13.75,4.54,10,8.95,20.05,13.4,30.09.65,1.47,1.87,2.81,1.22,4.63Z"/>
  <path class="cls-13" d="M146.75,248.08c-4.15-2.96-9.33-4.3-12.9-8.17-1.42-2.23-2.16-4.45.09-6.63-.47,5.88,4.25,7.39,8.18,9.23,3.48,1.63,7.21,2.7,10.21,5.25-1.77,1.66-3.62,1.79-5.58.33Z"/>
  <path class="cls-28" d="M428.98,52.72c-4.13.03-8.26.07-12.39.07-4.52,0-2.96,1.84-1.17,3.77-2.82,0-5.79.25-6.27-3.7,6.59-2.04,13.2-2.11,19.82-.14Z"/>
  <path class="cls-17" d="M404.16,53c-7.83,1.68-15.65,1.82-23.47-.07,7.82.02,15.65.05,23.47.07Z"/>
  <path class="cls-13" d="M139.14,216.14c.78,4.9-2.05,8.73-3.79,12.88-.34-4.77,2.26-8.66,3.79-12.88Z"/>
  <path class="cls-28" d="M415.67,993.02c-20.69,1.76-39.53-4.69-58.12-12.69-7.59-3.27-15.15-6.55-22.29-10.7-8.93-5.18-9.64-7.86-5.04-16.95,4.4-8.7,9.64-16.83,16.17-24.09,3.6-4,6.84-5.02,11.24-.34,5.58,5.94,13.79,5.3,21.86-.77,1.15-.87,2.05-2.14,3.28-2.83,4.15-2.32,8.6-5.24,13.37-3.17,4.56,1.97,4.52,6.8,4.76,11.27.79,15.07,18.29,35.49,32.97,38.73,2.22.49,4.44,1.01,6.67,1.41,4.24.75,7.67,2.82,8.08,7.27.41,4.46-2.07,7.85-6.06,10.02-5.13,2.79-10.71,2.89-16.32,2.86-3.52-.02-7.04,0-10.56,0Z"/>
  <path class="cls-28" d="M460.68,730.97c.39,9.06.62,18.13,1.23,27.17.4,5.95-1.31,10.05-6.87,13.16-9.94,5.57-18.63,12.97-26.92,20.78-1.95,1.83-3.55,4.1-6.26,4.96-8.02,3.82-14.26,3.38-18.9-1.34-.04-1.32-.08-2.64-.13-3.96,3.62-8.86,10.27-15.39,17.09-21.69,10.98-10.14,20.62-21.33,28.23-34.22,1.36-2.3,3-4.46,1.78-7.34,3.5,1.22,7.46.41,10.75,2.48Z"/>
  <path class="cls-5" d="M564.73,327.32c-3.42-1.87-6.68.49-10.08.48-51.4-.22-102.81-.16-154.22-.17-2.46,0-5.01.4-7.2-1.23,0-1.67-.01-3.35-.02-5.02,1.39-4-.49-8.29,1.1-12.28,2.45-1.59,5.21-1.12,7.87-1.12,34.83-.03,69.68-.63,104.48.24,13.64.34,27.29.54,40.93.56,5.77.01,11.53-.62,17.3-.95,10.63,1.28,21.3.31,31.95.52,8.6.17,9.07.53,9.04,9.05,0,2.69-.24,5.32-1.06,7.89-1.81,1.39-3.72,2.33-6.13,2.3-11.32-.14-22.65-.19-33.97-.27Z"/>
  <path class="cls-14" d="M604.83,325.29c-.25-16.49-.25-16.34-16.8-16.43-7.71-.04-15.51,1.25-23.13-1.03,11.78-.04,23.57,0,35.35-.19,2.74-.04,4.74,1.06,6.68,2.66-.25,5.06,1.84,10.44-2.1,14.99Z"/>
  <path class="cls-14" d="M394.31,309.1c-.55,4.08.89,8.33-1.1,12.28.2-4.11-1.43-8.38,1.1-12.28Z"/>
  <path class="cls-11" d="M554.95,642.38c-3.43,7.12-6.35,8.57-13.6,6.94-3.62-.81-7.3-1.36-10.92-2.17-20.56-4.55-21.65-12.78-22.63-28.71-.7-11.38,1.4-22.66,6.04-33.23,1.39-3.16,1.73-5.13-2.56-5.16,1.89-1.77,4.35-3.51,6.53-1.8,2.36,1.86-.32,4.06-1.12,5.99-6.15,14.82-7.96,30.13-4.96,45.89,1.11,5.84,4.94,10.14,10.45,12.05,7.16,2.47,14.58,4.23,21.94,6.06,2.16.54,4.65.58,5.65-2.32,1.23-1.3,2.46-2.6,3.7-3.9.63-.49,1.12-.38,1.48.34Z"/>
  <path class="cls-20" d="M554.95,642.38c-.49-.11-.98-.22-1.48-.34,2.43-3.46,2.42-8.32,6.29-10.95-.62,4.18-2.63,7.77-4.82,11.29Z"/>
  <path class="cls-28" d="M595.6,550.35c.55-.47,1.11-.93,1.66-1.4,2.85-1.83,5.48-3.96,8.25-5.89,6.04-2.63,9.88-8.11,15.21-11.66,4.85-4.89,4.82-4.83,7.33,1.4,4.28,10.64,13.42,14.22,23.72,14.99,19.4,1.45,36.16-4.96,50.19-18.43,6.72-6.45,12.91-13.4,18.75-20.64,4.71-5.85,13.46-6.33,18.5-.78,2.49,2.74.55,4.91-1.14,7.07-7.84,10.1-16.22,19.82-22.65,30.95-6.96,12.06-4.95,25.61,5.03,34.2,9.94,5.34,19.97,5.37,30.22.81,2.6-1.16,5.82-4.19,8.26-.79,2.37,3.32-.51,6.02-2.9,8.49-9.02,9.35-17.55,19.06-27.8,27.3-8.77,7.05-18.7,10.11-28.98,11.01-14.41,1.27-27.8,5.76-41.38,9.84-8.71,2.61-11.11.96-9.81-8.18,1.29-9.11,1.62-18.12-.31-27.14-.97-4.55-2.45-8.81-6.7-11.45-6.57-4.88-14.49-5.92-22.15-7.32-5.23-.95-9.68,1.41-12.97,5.74-1.25,1.65-2.12,3.6-3.75,4.93-3,2.47-6.02,1.81-7.28-1.79-4.53-12.9-4.5-25.88-.42-38.89.38-.8.75-1.59,1.13-2.39Z"/>
  <path class="cls-28" d="M641.95,588.84c4.65,2.51,6.4,6.97,7.32,11.69,1.76,8.97,2.15,18.01.44,27.08-.38,2.01-.26,4.13-.31,6.19-.07,2.74,1.04,3.71,3.86,2.86,9.46-2.86,18.93-5.67,28.44-8.35,6.76-1.9,13.87-2.23,20.74-2.84,19.89-1.76,31.82-15.35,44.38-28.07,3.01-3.05,5.87-6.37,8.83-9.54,1.98-2.12,4.95-4.42,2.55-7.32-2.16-2.62-5.09-.05-7.15,1.21-8.77,5.39-17.77,3.97-26.85,1.38-1.56-.45-3.1-1.25-3.76-2.99.8,0,1.59.02,2.39.02,2.02,2.23,4.65,2.6,7.46,2.46,4.61.95,9.22.92,13.83.02,3.23-1.31,6.48-2.56,9.68-3.94,2.19-.95,4.28-1.55,6.34.2.97,4.73-1.13,7.99-4.35,11.4-9.18,9.7-17.85,19.83-28.9,27.64-5.1,3.61-10.25,6.61-16.32,8-18.27,2.87-36.49,5.95-53.87,12.61-12.39,3.3-13.47,2.33-11.11-10.13,1.31-6.95,1.18-13.94.54-20.9-.63-6.95-2.82-13.28-9.12-17.34,0-.45-.01-.91-.02-1.36,1.66-1.06,3.32-.9,4.98.01Z"/>
  <path class="cls-35" d="M632.03,532.82c9.53,1.14,18.53,3.94,26.98,8.5,1.5.81,2.81,1.7,2.74,3.66-9.43.86-18.5.28-26.3-6.06-2.02-1.64-3.8-3.2-3.41-6.09Z"/>
  <path class="cls-6" d="M463.1,45.2c2.58-4.88,5.4-9.66,7.69-14.67,3.58-7.87,9.59-13.71,15.5-19.68,7.86-4.47,15.37-9.54,25.2-8.84,11.12.79,20.63,4.15,29.06,12,10.79,10.04,18.47,21.5,21.82,35.85,1.02,4.35,1.55,8.54-1.47,12.42-5.11,6.56-8.58,6.35-12.79-.79-1.26-2.14-2.59-4.24-3.98-6.3-5.64-8.31-7.86-8.87-16.76-4.05-2.44,1.32-4.9,2.18-7.7,1.91-5.87-.56-11.61-.58-16.49,3.55-1,.85-2.33,1.16-3.4.17-1.73-1.59-1.12-3.56-.12-5.11,3.45-5.32,1.34-10.47-.49-15.46-1.87-5.07-6.08-6.31-10.44-3.12-5.52,4.05-9.7,9.21-9.52,16.52.12,4.71-1.91,5.54-5.66,3.76-4.06-1.93-10.7-.69-10.45-8.16Z"/>
  <path class="cls-9" d="M568.39,333.97c-2.43-.27-3.87-2.02-5.13-3.77-1.31-1.82-.11-2.44,1.67-2.4-.39,2.92,2.95,3.76,3.46,6.17Z"/>
  <path class="cls-8" d="M744.11,582.66c-4.61,1.81-9.22,1.86-13.83-.02,4.61,0,9.22.02,13.83.02Z"/>
  <path class="cls-4" d="M146.75,248.08c1.86-.11,3.72-.22,5.58-.33.43.47.87.94,1.3,1.41-1.11.23-2.45-.04-3.06,1.33-1.1,7.04.92,14.31-1.52,21.26-5.23,3.39-6.38,8.38-5.74,14.19.22,2.03-.16,4.07-1.56,5.74-6.45,5.64-12.4,11.9-20.01,16.09.06-.71.11-1.42.17-2.12,3.43-2.98,6.56-6.45,10.36-8.83,6.1-3.82,7.82-8.96,6.99-15.72-.51-4.19-.43-8.4,5.05-9.85,2.54-.67,2.38-3.08,2.38-5.16.02-6,.03-12,.04-18Z"/>
  <path class="cls-27" d="M202.49,305.29c-.09-5,3.75-3.47,6.43-3.88,2.63.07,5.35-.25,7.86.33,2.14.5,5.85.2,4.68,4.48-6.28.04-12.56.09-18.84.14-.41-.19-.57-.41-.47-.67.1-.27.21-.41.33-.41Z"/>
  <path class="cls-30" d="M200.21,308.85c41.82-1.5,83.65-1.06,125.48-1.07,10.12,0,20.18,1.83,30.33,1.15,2.69-.18,4.34.91,4.51,3.83.22,3.91-.2,7.85.87,11.73.46,1.67-.75,2.78-2.37,2.99-1.63.21-3.31.16-4.96.16-54.3,0-108.61.01-162.91-.03-1.76,0-4.27,1.02-5.14-.89-1.07-2.36,1.84-3.28,3.03-4.8,2.75-3.53,7.26-5.6,8.62-10.3-.46-2.13.57-2.88,2.54-2.76Z"/>
  <path class="cls-23" d="M200.21,308.85c-.85.92-1.69,1.84-2.54,2.76-10.47,8.56-18.96,19.28-29.87,27.36-.42-.08-.84-.16-1.26-.23,11.21-10.91,22.41-21.84,33.66-32.71.52-.5,1.52-.51,2.3-.74.1.35.14.71.14,1.08-.99.65-2.16,1.13-2.42,2.48Z"/>
  <path class="cls-28" d="M436.35,134.79c-1.98,5.55-6.98,7.37-11.5,9.73-1.09.57-2.21,1.18-3.39,1.43-2.11.46-4.18,2.31-6.41.72-1.22-.87-.6-2.21-.08-3.34,1.16-2.55,2.69-4.74,5.88-4.59,5.53.26,10.86-.1,15.49-3.95Z"/>
  <path class="cls-28" d="M429.07,53.9c4.66.8,5.69,2.92,5.41,8.06-.7,12.79-1.01,25.55-4.1,38.05-1.29,3.65-2.55,7.3-3.87,10.94-.42,1.16-.89,2.52-2.49,2.1-1.27-.34-.97-1.66-1-2.63-.18-5.21.66-10.26,2.32-15.21,2.1-6.27,3.63-12.61,4.05-19.32.58-9.19-2.81-16-10.43-21.98h10.1Z"/>
  <path class="cls-3" d="M354.59,378.86c.72-1.82-2.07-6.54,1.75-7.01,3.06-.38,1.54,4.72,2.92,7.12,1.21,2.09,1.6,4.63,1.46,7.16-.09,1.68,0,3.46-2.33,3.59-2.19.12-3.58-1.04-3.76-3.19-.18-2.24-.04-4.51-.04-7.66Z"/>
  <path class="cls-32" d="M636.99,590.19c5.18.12,7.4,3.44,8.81,7.88,3.52,11.08,2.99,22.27,1.03,33.48-1.47,8.47-1.32,8.69,7.39,7.08.8-.15,1.64-.05,2.46-.06-1.15,1.75-3.2,1.96-4.86,2.19-4.81.65-6.93,3.84-8.45,7.85-1.01,2.67-1.99,5.34-3.03,8-2.57,6.57-8.35,8.24-14.46,9.38.09-6.1-3.73-11.14-4.19-17.28-1.59-21.35,1.24-41.34,15.3-58.52Z"/>
  <path class="cls-28" d="M575.07,633.89c.42,0,.84.01,1.26.02,1.35.41,2.82.64,3.39,2.24,2.15,6.76,6.41,11.27,13.56,12.7,1.73.66,3.08,1.71,3.68,3.54,1.66,1.94,3.32,3.88,4.97,5.82-5.44-3.56-11.64-5.61-17.27-8.69-5.9-3.23-8.64-9.04-9.59-15.63Z"/>
  <path class="cls-28" d="M641.95,588.84c-1.66,0-3.32,0-4.98-.01-3.74-1.05-7.53-1.95-11.21-3.17-14.69-4.87-17.54,2.23-24.14,11.7-.99,1.42-.29,4.4-2.75,4.22-2.32-.17-2.56-2.82-3.34-4.72-5.42-13.22-5.56-26.83-3.3-40.66.25-1.54.85-2.73,2.25-3.46-1.28,9.95-3.75,19.85-1.05,29.94.32,1.18.22,2.52.71,3.61,1.14,2.51.48,6.44,3.78,7.24,4.04.99,4.8-3.29,6.43-5.61,3.61-5.13,8.57-7.31,14.43-6.45,8.07,1.19,16.2,2.58,23.18,7.38Z"/>
  <path class="cls-28" d="M578.76,636.1c-.81-.73-1.62-1.47-2.43-2.2,4.68-.84,9.52.63,14.16-1.17,2.14-.83,4.05.44,3.94,2.6-.31,5.9,2.41,11.28,2.53,17.06-1.19-.89-2.37-1.78-3.56-2.67-2.71-5.97-7.95-10.84-14.64-13.62Z"/>
  <path class="cls-33" d="M553.66,611.64c0,1.85.03,3.71-.01,5.56-.04,1.61.36,3.88-1.62,4.18-2.14.33-3.23-1.73-3.32-3.63-.21-4.5-.62-9.06,1.15-13.42.48-1.18.91-2.58,2.32-2.45,1.66.16,1.35,1.79,1.38,2.96.06,2.26.02,4.53.02,6.8h.08Z"/>
  <path class="cls-10" d="M402.95,795.7c6.07,3.67,12.59,1.04,18.9,1.33-3.41,7.26-8.5,13.45-12.88,20.09-.97,1.47-2.89,3.08-4.75,1.99-8.34-4.85-17.39-2.29-26.11-2.68-9.14-.41-12.59-5.49-9.12-14.16,1.16-2.89,3.29-3.31,5.95-3.29,7.44.05,14.89.03,22.33,0,2.5,0,5.16.18,5.69-3.29Z"/>
  <path class="cls-2" d="M141.75,291.68c-.05-3.1.2-6.23-.21-9.28-.83-6.04.77-10.08,7.52-10.65-.6,4.85-.77,9.82-2.01,14.5-.58,2.21-2,5.13-5.3,5.43Z"/>
  <path class="cls-28" d="M578.76,636.1c.41-.01.82-.03,1.22-.04,13.35-.25,13.42-.17,13.42,13.66-8.19-.67-12.82-4.98-14.65-13.62Z"/>
</svg>