<?xml version="1.0" encoding="UTF-8"?>
<svg id="Layer_1" data-name="Layer 1" xmlns="http://www.w3.org/2000/svg" viewBox="0 0 1080 1080">
  <defs>
    <style>
      .cls-1 {
        fill: #e1c7b3;
      }

      .cls-2 {
        fill: #454746;
      }

      .cls-3 {
        fill: #313131;
      }

      .cls-4 {
        fill: #2b2929;
      }

      .cls-5 {
        fill: #dcaa84;
      }

      .cls-6 {
        fill: #636563;
      }

      .cls-7 {
        fill: #ddaa85;
      }

      .cls-8 {
        fill: #434544;
      }

      .cls-9 {
        fill: #fdcca7;
      }

      .cls-10 {
        fill: #444;
      }

      .cls-11 {
        fill: #e6b791;
      }

      .cls-12 {
        fill: #434443;
      }

      .cls-13 {
        fill: #646463;
      }

      .cls-14 {
        fill: #303030;
      }

      .cls-15 {
        fill: #656466;
      }

      .cls-16 {
        fill: #292929;
      }

      .cls-17 {
        fill: #656565;
      }

      .cls-18 {
        fill: #282828;
      }

      .cls-19 {
        fill: #dfab86;
      }

      .cls-20 {
        fill: #757676;
      }

      .cls-21 {
        fill: #2e2e2d;
      }

      .cls-22 {
        fill: #fccca7;
      }

      .cls-23 {
        fill: #929292;
      }

      .cls-24 {
        fill: #656766;
      }

      .cls-25 {
        fill: #464646;
      }

      .cls-26 {
        fill: #4e504f;
      }

      .cls-27 {
        fill: #737474;
      }

      .cls-28 {
        fill: #7e7e7e;
      }

      .cls-29 {
        fill: #959595;
      }

      .cls-30 {
        fill: #2e2b2a;
      }

      .cls-31 {
        fill: #aaafb6;
      }

      .cls-32 {
        fill: #727473;
      }

      .cls-33 {
        fill: #949494;
      }

      .cls-34 {
        fill: #4d4e4e;
      }

      .cls-35 {
        fill: #2e2e2e;
      }

      .cls-36 {
        fill: #424443;
      }

      .cls-37 {
        fill: #e9b792;
      }

      .cls-38 {
        fill: #d84140;
      }

      .cls-39 {
        fill: #737574;
      }

      .cls-40 {
        fill: #424444;
      }

      .cls-41 {
        fill: #2c2c2c;
      }

      .cls-42 {
        fill: #e0ad88;
      }

      .cls-43 {
        fill: #7f7f7e;
      }

      .cls-44 {
        fill: #f5dac4;
      }

      .cls-45 {
        fill: #d0d1cf;
      }

      .cls-46 {
        fill: #e8b793;
      }
    </style>
  </defs>
  <path class="cls-27" d="M964.47,808.54c1.26.1.84,1.34.95,2.23.76,6.09.6,21.27.02,27.55-.16,1.69-.07,1.69-.98,3.1h-.91l-1.4-2.86c.78-9.04.84-18.09.18-27.15l-75.87-.04c-1.83-.23-2.3-1.1-1.52-2.83h79.53Z"/>
  <path class="cls-9" d="M745.08,580.19c2.01-3.74,2.11-3.86,4.57-7.31l-4.57,7.31Z"/>
  <path class="cls-27" d="M905.96,766.52c-5.65.35-11.8-.48-17.37,0,4.98-1.53,12.46-1.53,17.37,0Z"/>
  <g>
    <path class="cls-9" d="M581.46,602.6c.57-3.96.69-7.94.36-11.96-.14-2.33,2.06-2.06,3.87-1.06,6.93,5.53,13.36,9.55,22.83,8.48,3.57,1.36,2.29,3.14.37,5.45l.07,2.2c-1.53.44-11.15,9.22-10.31,9.98.58.52,11.53-2.01,13.08-2.54l1.73,1.32c-4.46,5.4-15.48,2.1-19.7,4.52-14.89,16.94-24.78,36.34-41.53,51.67-10.14,9.28-21.57,17.45-31.76,26.72-2.53,1.23-5.3,1.26-8.04,1.17-15.49-.53-32.99-4.67-48.45-5.54-3.45-.19-4.6-.43-5.04,3.17-1.08,8.82-.2,23.57,0,32.97.09,4.11,3.19,14.18-1.09,16.18-2.7,1.26-19.97,1.58-21.27-1.15l-7.76-42.94,2.61,1.48c4.22,12.99,6.85,26.34,7.9,40.07,5.75.24,11.55-.03,17.42-.81l-.54-47.89c-6.11-1.57-31.85-9.4-34.04-15.04-.22-.58-.79-3.28-.68-3.41l9.16-1.81c1.16-2.22,3.74-3.71,7.73-4.46,7.32-3.88,4.16-3.12-9.46,2.27l-1.92-1.46c-2.85.9-5.86,1.39-9.04,1.49-2.79.79-2.87,1.86-.24,3.2,4.15.04,6.75,4.08,2.89,6.27-2.36-6.38-10.73-4.58-16.49-5.9-3.32-.76-8.4-2.6-11.59-3.95-1.18-.5-5.81-5.88-5.74-1.11-2.49.51-9.03-6.15-9.75-8.24-.45-1.29.89-10.14,2.38-11.44l6.92-41.09c1.08-2.13,5-4.05,6.89-5.62-3.56-8.94,7.25-19.45,12.69-6.97,3.79,7.55,9.51,13.83,17.15,18.82l8.94,9.12c1.13.69,2.51.9,4.14.66,3.48-1.4,7.54-.77,12.17,1.9l4.06,1.07c-.73-5.58-2.19-10.64-4.39-15.17,1.54-1.44,2.38-3.15,2.79-5.15,1.87,5.65,3.27,19.05,5.88,22.89s14.45,8.25,19.25,11.82c6.5,4.82,11.35,11.95,17.84,16.88,4.17.79,9.16,1.11,13.09-.58,8.06-3.48,23.49-15.77,31.78-21.22,13.39-8.81,26.64-14.92,37.42-27.5.98-1.14.75-3.08.87-3.2-.2-1.18.71-1.49,2.74-.91-2.32-1.32-.65-4.23,1.83-3.65Z"/>
    <path class="cls-38" d="M200.88,751.08c2.5-.21,2.83,6.16,5.49,7.07,4.15,1.41,18.06-1.94,19.96,1.98.83,1.71.83,31.18,0,32.89-.66,1.34-2.19,1.86-3.62,1.86l-46.21-.49c-5.54-2.71,2.2-14.31,4.6-17.34,2.76-3.48,12.97-11.58,14.17-14.21s-.92-4.38-.35-6.61c.33-1.3,4.66-5.03,5.96-5.14Z"/>
    <path class="cls-38" d="M456.68,761.95c3.16-.91,1.93-9.68,7.36-6.44,6.04,3.61,2.72,7.85,4.54,11.9,1.02,2.27,8.15,7.05,10.52,9.58,3.96,4.24,15.79,18.67,5.52,21.09-3.56.84-15.37,1.31-19.67,1.35-3.97.04-26.07-.67-27.52-2.73-.91-1.29-.84-28.28-.45-31.61.11-.92.42-3.15,1.42-3.15,3.98,0,15.49.8,18.28,0Z"/>
    <path class="cls-46" d="M426.97,669.7l.08,2.06c1.72-.51,2.84-.19,3.58,1.59-1.95.63-7.06,1.56-7.32,1.83-.76.8.5,2.82,1.34,3.68,2.53,2.61,18.15,8.96,22.43,10.47,2.5.88,9.77.7,10.82,3.8l.67,49.7-1.9.85c-4.22-1.31-16.27,2.88-18.83-.37-.97-1.24-2.95-22.37-3.78-26.37-1.14-5.54-3.09-11.22-5.28-16.19-2.65-6.02-6.78-13.34-8.23-20.09-.27-1.26.5-3.34-.41-4.61-1.48-2.07-10.28-.42-7.78-4.47.58-.94,12.18-1.44,14.59-1.88Z"/>
    <path class="cls-16" d="M271.57,571.97c1.44,1.42,2.48.21.92,2.28-2.52,3.34-7.81,7.15-10.98,10.5l-.78,3.54c-3.59,4.68-23.45,28.44-26.53,29.17-.63.15-1.28.18-1.94.17-10.03,5.48-7.79,1.25-12.82-5-3.76-4.68-7.91-4.89-5.46-12.35,4.24-9.13,9-20.38,18.86-24.54,13.47-5.69,25.22-2.59,38.73-3.77Z"/>
    <path class="cls-18" d="M410.52,575.62c24.2,1.26,31.02,8,39.31,30.14l.65,2.4c-.03.54-1.11,4.6-1.21,4.84-.38.87-8.61,11.44-9.35,11.6-1.51.33-4.3-.57-5.63-1.48l-2.38.52c-10.57-9.62-20.64-20.07-29.18-31.6-3.55-1.97-5.21-4.4-5.01-7.28-1.48-1.51-7.89-7.19-5.51-8.71,1.35-.86,15.47-.58,18.31-.43Z"/>
    <path class="cls-17" d="M38.48,589.32c2.47-.85,13.01,4.05,13.9,6.05-1.03,1.37-.32,2.11.72,3.08,2.1,1.55,14.58,11.91,14.61,13.24.04,1.85-6.66,1.42-8.21,1.37-6.49-.21-7.63-1.1-12.8-4.57-2.31-1.3-4.1-3.22-5.48-5.48-2.66-3.94-3.46-3.84-3.66-9.13-.06-1.61.01-3.16.91-4.57Z"/>
    <path class="cls-6" d="M608.88,603.02c-.42-3.99,14.46-12.11,15.93-9.66l-.39,5.1c-.57,1.85-.88,5.53-1.83,7.31-1.33,2.52-6.54,7.07-9.14,8.22s-15.87,4.08-17.36,2.74c1.61-5.88,8.06-10.27,12.79-13.7Z"/>
    <path class="cls-15" d="M88.75,598.46c-.15.57-1.59,1.37-1.83,3.65h-.91c-2.95,1.12-4.62-3.46-4.92-6.01l-.6-9.17c-2.39-2.48-1.58-5.61,2.44-9.4.09-3.41,1.12-4.65,3.08-3.74,6.34,9.46,5.6,13.89,2.74,24.66Z"/>
    <path class="cls-11" d="M450.74,607.59c.99,1.92-1.61,4.47-1.61,5.05s1.88,1.6,2.3,2.95c.55,1.77,3.48,14.29,2.96,14.84-5.31-1.03-10.38-3.17-15.34-5.25-.98-.41-2.44,0-2.94-.22-1.94,1.58-3.04.4-1.83-1.83,1.78-.07,3.3,1.52,5,.03,1.11-.98,4.6-6.79,6-8.68,2.16-2.92,5.69-3.88,4.54-8.7.19.5.65,1.02.91,1.83Z"/>
    <path class="cls-43" d="M579.63,605.76c-.91,1.27-2.59.76-2.74.91-5.81-7.8-6.87-15.66-3.66-24.66h.91l1.4,1.56c-2.85,6.47-.87,14.84,3.79,19.98l.3,2.22Z"/>
    <path class="cls-9" d="M46.71,608.5c-.83-.55-1.84-.42-3.25-1.76-1.67-1.59-1.48-2.6-2.24-3.72l5.48,5.48Z"/>
    <path class="cls-1" d="M434.29,623.12c.63.44,1.39,1.64,1.83,1.83-3.78,5.84-8.74-3.69-11.28-6.08-3.98-3.74-12.24-9.46-15.62-13.16-1.85-2.03-6.79-12.72-8.01-13.44-2.77-1.63-7.78,4.98-7.9,6.81-.08,1.2,1.53,2.23,1.71,3.56.41,3.07-3.9,4.28-5.42,6.61l-9.23,41.28c1.15-9.26,2.53-14.79,4.37-23.49.93-4.39,1.46-10.31,2.03-14.87,2.36-7.72,5.14-16.78,8.28-24.15.65-1.54.87-2.63,2.69-3.25,10.08,10.26,26.23,31.14,36.56,38.36Z"/>
    <path class="cls-13" d="M581.46,602.11c-.1.25-1.71,3.49-1.83,3.65-5.05-1.76-7.88-13.46-7.27-17.75.13-.89,1.39-4.96,1.78-5.99.95-2.55,1.87-2.94,2.74-4.57,5.15,7.28,4.82,16.18,4.57,24.66Z"/>
    <path class="cls-42" d="M430.63,673.35c-3.66-.35-9.52,2.3-12.81.47-1.39-.77-.51-1.88.6-2.17,2.6-.68,6.32.57,8.55-1.96,5.97-1.11,9.24-3.56,14.43-5.22,10.47-3.34,2.76,3.34-.98,5.41-3.22,1.78-6.41,2.37-9.79,3.46Z"/>
    <g>
      <path class="cls-9" d="M86.01,602.11c.26-.8.56-.79.91,0-.2,1.94-.17,3.33.86,5.07,1.84,3.1,13.23,11.84,16.75,14.32,10.92,7.7,23.2,14.24,34.41,21.33,4.84,3.06,10,7.71,15.15,10.44,17.6,9.33,22.41-6.67,34.75-15.54,5.22-3.75,12.67-6.76,18.26-10.07,1.24-5.72,2.58-11.42,3.88-17.13,1.18-5.17.57-5.05,2.99-10.26.98,1.32,1.54,3.28,1.68,5.87,3.8,3.49,7.04,7.36,9.43,11.95,2.9-.89,5.29-1.05,7.17-.47,1.76,2.14-.07,4.1-5.5,5.87-.42.84-.3,4.04.91,3.1l33.6-33.23c1.39-.56,2.73-.41,3.9.56l3.65,8.17c3.21,7.3,5.46,15.05,6.75,23.25l6.03,31.02c1.25,2.42,3.05,6.21-.9,6.93-1.52-3.02-1.29-1.25-2.72-.44-10.58,5.99-20.5,9.48-32.97,9.99-6.01,14.68-12.29,29.38-15.25,45.04-.78,4.13-2.02,21.21-3.43,23.06-1.88,2.48-7.63-.05-10.07-.02-3.86.05-8.44,2.57-12.36-.43-2.22-8.7.77-19.21.98-28.29.18-7.65-.08-15.46-1.81-22.93-2.34-1.63-17.58,1.94-21.56,2.32-6.7.64-13.44.47-20.08.94-6.04.43-11.92,3.58-18.09.69-5.04-2.35-22.99-18.4-28.1-23.07-6.18-5.66-11.68-12.12-17.82-17.81l-27.88-37.91-10.05-1.38c.66-1.46,2.36-2.22,5.13-2.29l-11.76-10.2.24-2.13c-3.06-2.69-2.98-4.21.25-4.56,9.33.13,17.64-.67,23.61-8.78,1.25-1.12,2.35-1.45,3.25.02l.93,11.45c.41,2.27,1.97,6.58,4.87,5.51Z"/>
      <path class="cls-37" d="M204.85,740.03l1.31-52.12c8.47-2.29,18.22-4.68,26.02-8.71,2.68-1.38,6.23-5.4,8.76-5.86,2.14-.4,1.49,1.57,1.18,3.01-1.53,7.15-6.97,16.43-9.23,23.66-3.9,12.44-5.31,25.62-7.17,38.5l-1.22,1.52h-19.65Z"/>
      <path class="cls-44" d="M261.52,584.76c2.08-.45,1.99,1.02,2.6,2.38,1.42,3.2,2.76,7.05,3.8,10.4.39,1.27.47,3.04.91,4.57-3.16-1.07-3.12-8.19-6.7-7.19l-33.52,33.23c-3.6,1.87-4.33-2.64-3.67-5.29.29-1.17,4.71-2.38,5.99-3.39.76-.6.96-1.47,1.33-1.82,9.77-9.21,19.67-22.73,29.25-32.88Z"/>
      <path class="cls-19" d="M250.55,668.79c.28,1.76-.71,2.43-2.28,2.72-1.7.32-11.05-.13-13.09-.53-3.01-.59-9.78-3.31-12.51-4.93-2.41-1.43-9.06-6.36-3.15-6.01,9.72,4.54,20.46,7.27,31.03,8.74Z"/>
    </g>
    <g>
      <path class="cls-23" d="M88.75,598.46l-1.36-2.03c1.98-6.55,2.68-13.06-1.25-19.03l-.13-3.6c-1.58.43-1.93-.1-2.43-1.32-7.62,16.92-29.88,23.2-45.57,12.64,1.43,1.56,1.58,2.97.47,4.21,1.56,1.92,1.45,3.5-.91,4.57-1.54-1.85-.62-4.31-1.31-6.46-1.2-3.72-5.47-7.52-6.7-13.4-8.21-39.35,46.71-51.79,55.31-14.17.77,3.38.49,7.84,1.58,11.2.87,2.68,3.26,4.91,4.31,7.56,2.48,6.26,2.3,14.45-2.01,19.82Z"/>
      <path class="cls-28" d="M86.01,573.8c-1.35.99-.73,3.06-1.43,4.51-.91,1.89-3.8,4.16-3.83,5.78-.04,2.48.46,10.52.94,12.75.29,1.32,2.17,5.58,4.32,5.27-2.1,2.96-4.77-2.26-5.24-4.36-.52-2.33.54-12.08-1.62-12.06-.48,0-5.17,5.43-7.13,6.56-6.67,3.85-11.4,3.03-18.48,3.47-2.73.17-1.15,1.53-.44,2.74-1.91-1.41-2.82-2.87-4.06-3.7-2.67-1.8-7.72-2.19-10.57-5.43-.57-.65-5.12-8.47-5.54-9.53-.56-1.42-1.24-2.46-.85-4.16l5.44,6.88c13.1,10.22,32.39,6.87,42.1-6.42,1.57-2.14,2.13-8.65,5.52-4.59.69.83.6,1.89.87,2.29Z"/>
      <path class="cls-45" d="M54.74,546.64c26.8-2.67,22.82,34.79-1.86,31.48-19.16-2.58-17.12-29.58,1.86-31.48Z"/>
    </g>
    <g>
      <path class="cls-23" d="M622.59,605.76c-2.21-1.37-.97-7.05,1.83-7.31.74-2.01.44-3.3-.89-3.88l1.21-5.63c-15.01,9.22-37.98,4.58-44.8-12.62-.76,1.36-1.44,1.75-3.05,1.13,1.12,2.49.07,4.51-2.74,4.57-.26.78-.57.77-.91,0,1.25-3.49,3.95-6.5,4.37-7.96,1.23-4.28.33-11.23,2.44-16.74,10.24-26.75,53.95-19.34,54.46,11.5.2,12.13-4.67,13.92-7.12,22.1-1.33,4.48-.47,11.27-4.8,14.84Z"/>
      <path class="cls-43" d="M576.89,577.45c.58-1.09,1.53-1.73,1.78-3.23.14-.85-.59-11.89,1.87-8.64-2.49,22.96,26.86,32.86,43.84,21.42l6.43-5.89c.61,3.29-3.71,6.71-4.36,8.87-.79,2.62-1.02,5.23-2.03,8.48-.18-2.02,1.15-4.44-2.13-3.51-4.06,1.15-10,5.6-13.41,8.07l.45-3.66c-4.4.16-9.02-.01-13.24-1.37s-10.53-7.46-12.34-7.77c-2.09-.36-1.28.93-1.38,2.28-.3,3.85.57,5.79-.91,9.61l-1.78-1.7c.23-7.01.2-14.37-3.41-20.61l.62-2.35Z"/>
      <path class="cls-45" d="M601.36,550.29c9.54-2.15,21.09,3.54,22.15,13.9,1.74,17.16-17.24,22.92-28.36,12.81-8.69-7.9-5.32-24.12,6.21-26.72Z"/>
    </g>
    <g>
      <path class="cls-38" d="M271.57,571.97c5.08-.45,9.71-6.33,15.19-9.02,2.86-1.41,10.97-3.34,12.02-3.99.51-.31.5-1.96,1.7-2.37,10.69-3.64,22.07.37,32.84-.1,9.88-.43,15.56-2.94,26.1.36.67.21,3.77,1.89,5.56,2.6,9.69,3.84,17.17,8.3,24.24,16.04,1.76.66,1.79.49,2.92,1.16l.86.36c1,1-1-1,.8.68,2.92,2.58,4.23,4.94,3.92,7.07-.76,4.39-2.53,8.84-5.33,13.37-.32,5.12-2.56,10.26-5.64,14.04-3.31,15.76-6.35,31.58-9.11,47.45-.43,1.54-15.38-3.1-14.65-6.35,10.19-35.1,7.71-94.25-42.96-88.6-11.06,2.79-18.17,10.17-22.41,20.54l-6.45,29.06c-3.01,13.72-4.19,26.38,2.1,39.16l-.67.76c1.26,3.26-8.49,7.94-10.29,5.39-3.41-21.16-8.21-41.83-14.39-62.02-3.15-3.3-5.28-7.56-6.4-12.79-1.97-2.28,10.31-12.26,10.35-11.42.07,1.5-.87.64-.3-1.37Z"/>
      <path class="cls-38" d="M362.99,653.26c-.14.27-2.11,1.94-2.74,2.74l-.59-3.61c10.97-31.01,8.48-89.39-36.9-85.23l-2.74-1.58c-.8-.26-.79-.56,0-.91,13.52-2.09,28.4,1.07,37.48,12.33,12.66,15.7,14.63,58.62,5.48,76.27Z"/>
      <path class="cls-38" d="M320.02,564.66v.91l-1.1,2.02c-7.31,1.31-16.92,11.57-18.86,18.36-2.51,8.8-5.08,22.3-6.67,31.54-1.98,11.5-2.94,22.58,1.73,33.66l-.7,3.02c-.56.11-1.4-.16-1.83,0-.73-5.41-5.13-10.52-5.31-15.97-.35-10.32,6.05-43.09,9.61-53.26,3.84-10.96,11.79-18.53,23.12-20.28Z"/>
      <path class="cls-18" d="M320.02,565.57c33.6-3.73,44.89,19.64,46.66,48.83.92,15.21-.88,27.53-6.44,41.6-.24.31-.19,1.55-.86,2.3-3.3,3.76-15.57,6.42-20.64,6.82-7.27.58-19.94-.12-27.32-1-7.76-.92-13.61-2.42-17.01-9.95-10.84-23.99.67-44.54,3.89-68.72,3.95-8.57,11.63-18.76,21.7-19.88Z"/>
      <g>
        <path class="cls-32" d="M277.06,687.06c-4.92-5.42-1.95-14.27,3.59-18.04,34.49,1.16,69.15,1.19,103.97.09,6.82,7.33,7.82,14.91-.76,21.52l-.4,11.52c-.21,1.13-1.38,1.2-2.2.43-1.36-2.44-2.02-11.55.91-12.79,0,.71-.19,1.82-.63,1.83-32.09.6-65.33.6-97.43,0l-1.11-1.83c.7,3.27,1.67,11.54-1.37,12.79-2.25-2.26-.03-8.82-1.08-12.16-.53-1.7-2.59-2.06-3.49-3.37Z"/>
        <path class="cls-33" d="M282.31,656.69c2.17,4.89,7.59-1.49,10.29-2.52.01-2.11.67-1.61,1.83,0l2.25.43c6.98,10.63,30.29,9.42,41.92,8.7,7.69-.48,15.55-3.27,21.65-7.3.74-1.79,1.65-2.71,2.74-2.74l13.7,5.48c1.75,1.55-3.64,1.11,1.24.36l.51,1.19.12-.59c-.37,3-.51-1.06.12,1.12.42,1.46,6.21,5.88,8.07,8.88,2.42,3.92,4.54,9.5,3.63,14.14-.62,3.17-5.46,5.05-6.19,7.51-.66,2.24.79,12.14-1.56,12.14h-23.31c.3.9-.91,1.98-.91,2.28v58.91c6.48.56,13.93-1.18,20.11.91l-1.14,1.64c-2.9.31-20.35.8-21.13-.79-2.35-4.77-2.02-24.33-1.52-30.66.19-2.4.41-3.77,2.77-4.89-.34-9.35-.68-18.82-1.02-28.42.51-2.35,20.46-2.18,23.44-1.7l1.35,1.81c.61-.03,1.22.05,1.83,0,.57-.76-.56-9.62.19-12.15.84-2.82,5.8-4.03,6.28-8.38.44-4.05-1.85-9.13-5.27-11.31-9.97.45-19.98.83-30.02.81-21.75-.04-43.88.09-65.83,0-3.82-.02-6.41-2.23-9.62.35-4.36,3.51-4.82,10.68-1.76,15.14-7.8-6.55,1.36-16.29,3.66-23.75"/>
        <path class="cls-26" d="M281.63,702.58c.27-1.97-.93-12.79,1.37-12.79h99.18c-.34,4.2.9,8.91-.91,12.79-3.54.17-22.21-.81-23.37.86-1.04,1.5-.28,23.34-.4,27.46-3.23.69-8.64,3.33-9.14-.91,1.88-2.45,8.15-2.95,8.23.91l-1.83-1.31v-24.78l1.83-1.31c-.76,2.48-7.83,2.82-8.23,0-1.98-.09-4.83-2.47-7.31-.04-2.55,2.59.05,54.5-.91,62.15-1.93.48-2.63-.42-2.73-2.21-.08-1.45-.13-2.97-.15-4.53-.2-15.97-.01-32.01.24-47.99.02-1.23.28-2.45.57-3.69s.71-2.48,1.16-3.7l-1.04,1.83c-3.01.52-12.28.82-13.58-1.83l1.83.85.09,60.55c-.13,1.9-1.04,2.39-2.83,1.62-.28.4-.59.39-.91,0l.92-63.94c-2.25.36-5.57-.55-7.57.01-.92.26-.88,2.12-1.58,1.82-3.22,1.14-5.65.84-7.31-.91.71.08,1.78.31,1.83.82.23,2.67.44,22.63,0,23.89l-1.83,1.32c1.89-1.13,6.02-1.53,7.31.46-.6,4.33-8.23,1.41-8.23.91v-28.31h-24.68Z"/>
        <path class="cls-34" d="M323.68,796.66c4.17-1.32,3.8,9.87.91,10.96,1.51-2.99,12.85-2.86,14.63,0-2.96-1.01-3.18-12.2.91-10.96.71,6.48-3.15,12.89,5.99,11.93,6.01-.64,6.66-.15,12.3-.05,25.56.46,51.22-.34,76.78,0v31.97h-210.24v-31.97l80.03.05c6.39-4.34,10.09,1.16,16.41-.05,4.15-.8,1.64-8.5,2.28-11.87Z"/>
        <path class="cls-14" d="M323.68,766.52c.39-.58,1.29-.97.97-2.19l-.05-60.84h14.63c.42,19.64-.54,39.38-.07,59.02.04,1.75.97,2.93.98,3.09,0,.3,0,.61,0,.91l1.84,1.79c-.28,8-.15,15.96.38,23.87,3.25-.59,5.74-.18,4.17,3.56-1.52.46-4.62-.63-6.4.91-2.02,1.76-.43,8.09-.91,10.96h-14.63c-.46-2.53,1.07-9.82-.91-10.96-1.38-.8-3.93-.66-5.48-.91-3.09-1.75-.34-4.07,2.72-3.81.63-7.68.36-15.55-.45-23.26.33-1.2,1.4-1.92,3.22-2.15Z"/>
        <g>
          <path class="cls-20" d="M281.63,702.58c.08-.71.32-1.79.82-1.83,6.2-.49,16.32-.48,22.53,0l1.33,1.83,1.22.27c-1.07,8.97-1.2,18.11-.39,27.44l-.83.61.48-.64c2.19,1.58,5.8,1.88,7.75-.27l-1.62-2.04c-.26-2.66-.75-20.67-.35-21.68.36-.88,1.15-1.44,1.97-1.86-3.37-4.45,7.96-4.58,9.88-3.02,1.34,1.09,1.59,2.64-.29,2.57l-.38,60.88c0,.74-.27,1.34-.98,1.68-.5,1.65-2.13,2.25-4.91,1.8-2.13.64-.31,23.86.34,27.43,1.65-1.38,5.79-2.17,5.48.91.32,3.99.66,7.86,1.03,11.61-3.8,2.61-8.78,2.76-14.96.44l-5.39,1.69-78.29-.05-1.11-1.83c.71.19,1.74.48,1.83,1.07.89,6.07.6,23.14,0,29.56l-1.83,1.34.64-1.83h208.47l1.13,1.83c-.72-.19-1.78-.5-1.83-1.07-.55-6.24-.94-23.86,0-29.56l1.83-1.34c-18.3,2.54-37.71,2.37-56.32,1.97-6.91.19-13.83.22-20.47-1.97-.8-.26-.79-.56,0-.91l75.46-.05c.94-.2,3.15.66,3.15,1.42v31.06c0,.1-1.27,1.37-1.37,1.37h-211.62c-.88-8.56.3-17.28.04-26.07-.05-1.56-2.06-7.73.42-7.73h79.53c2.71,0,2.49-8.06,2.29-10.05h-22.4c-.1,0-1.37-1.27-1.37-1.37v-29.23c0-3.16,10.55-1.22,13.3-1.34,1.61-.07,9.57-1.1,10.07-1.8.55-9.57.63-19.28.43-28.87-.04-2.16-.92-4.16-.99-6.32-.13-3.82.85-23.87-1.01-25.03-4.3-1.03-20.37,1.33-22.72-1.04Z"/>
          <g>
            <path class="cls-10" d="M306.31,795.75h-22.85v-27.86c0-.1,1.27-1.37,1.37-1.37h20.11c.1,0,1.37,1.27,1.37,1.37v27.86Z"/>
            <path class="cls-25" d="M322.76,766.52h.91c-2.74,4.11-.96,1.8-.87,6.81.07,3.67.65,16.72-.16,19.1-.92,2.7-5.14-.08-4.45,3.32-.84-.14-1.86.11-2.74,0,1.04-7.99-1.4-19.43,0-26.95.66-3.54,4.55-2.05,7.31-2.28Z"/>
            <path class="cls-41" d="M314.54,704.41c-.78,7.99,1.06,17.85,0,25.57-1.31.77-7.31,1.11-7.31-.46v-26.03c0-.3,5.74-.57,6.04-.54.94.11,1.18,1.41,1.28,1.45Z"/>
          </g>
        </g>
        <path class="cls-41" d="M348.36,703.5c2.37.11,5.66-.33,8.23,0v27.4c-2.75-1.94-5.49.14-8.23-.91-.96-8.21.71-18.08,0-26.49Z"/>
        <g>
          <path class="cls-27" d="M348.36,703.5c.92.49,1.54,1.22,1.96,2.15.45,1.01-.07,19.22-.33,22.04l-1.63,2.3c2.2,2.23,6.19,1.07,8.42.3l.72.61c-.04,1.38-.92,3.1-.95,4.98-.15,9.87-.42,19.95.99,29.68.97.95,18.02-.92,20.98.05.93.3.82.39.94,1.32.81,6.35-.18,15.25-.07,22.01.03,1.61,2.15,8.64-1.33,8.64h-19.2c-1.96,0-1.84,8.45-.46,10.05v.91l-1.12,1.8c-2.24.48-18.43.46-18.36-2.28.56-3.59.96-7.38,1.19-11.39-1.12-2.9,4.87-2.27,6.4-.91-.57-8.46-.87-17.5-.9-27.13-3.07.11-4.9-.59-5.5-2.1-.82-.17-.79-.48,0-.91-.62-20.73-.78-41.44-.47-62.14l1.38-.02c.42.85,1.04.89,1.78.33v59.53c.27.82,4.65,1.11,4.62.93l-1.83-.85v-56.5l1.83-1.11c-3.27.08-5.4-.7-6.4-2.33-.93-4.37,7.11-3.58,7.31.04Z"/>
          <path class="cls-36" d="M378.53,766.52v29.23h-21.02c1.24-6.71,1.14-13.74.96-20.6-.05-1.8-1.96-8.63.41-8.63h19.65Z"/>
          <path class="cls-12" d="M346.53,795.75c.58-3.78-4.23-.53-5.61-2.38-1.27-1.71-.72-15.8-.84-19.12-.09-2.57.13-4.99.05-7.72,2.11.18,6.39-.92,7.19,1.5.63,1.89.54,23.39.15,26.41-.12.92,0,1.04-.94,1.32Z"/>
        </g>
      </g>
    </g>
  </g>
  <g>
    <path class="cls-9" d="M883.11,367.37c-4.06-4.73-2.28-6.71,5.36-5.91l4.21-.91c8.84-6.44,13.57-5.99,14.19,1.35.15.24-.1,2.71.22,3.85,5.95,20.71,21.17,39.42,29.66,59.92,8.95,21.6,8.97,37.8,13.33,59.75,2.24,11.28,6.75,22.79,8.76,34.17,2.98,16.83,1.09,34.28,5.6,50.83.22.82,1.89,1.02,2.76,2.48l-.74,2.04c1.64,24.7-1.23,50.86-21.42,67.77l1.13,1.43c-6.35,3.67-13.43,7.84-20.11,10.96-.62-.22-1.2-.49-1.62-.9-1.11-1.09-9.07-25.32-10.29-29.31-4.8-15.6-7.42-29.05-5.3-45.4.52-4.03,3.29-15.12,4.87-18.65.17-.37.72-.57,1.38-.73l-1.42-2.77c.87-14.45,1.03-28.93.46-43.44,3.34-22.8,3.23-41.95-7.19-62.79-4.8-21.59-8.57-43.27-11.32-65.05-1.36-4.21-3.29-7.49-8.18-6.74l-1.61-1.88.03-.94c2.84.06,3.75-.84,2.71-2.71-2.66.51-6.65-3.84-5.48-6.39Z"/>
    <path class="cls-9" d="M809.98,360.06c3.5-5.22,8.06-5.2,13.67.04l4.92,1.09c8.69.21,10.55,2.03,4.26,8.92,1.29,1.31.66,1.92-.91.91-2.98,3.06-3,4.87-.06,5.43l.06.97-1.57,1.92c-5.97-.37-8.39,6.36-8.85,11.34-1.57,30.39-9.52,60.7-19.49,89,1.96,23.97,2.15,49.14,2.2,73.84,0,.94-.22,1.88-.47,2.82s-.64,1.91-1.06,2.84c1.05.6,1.49,2.09,1.34,4.48,4.74,13.48,8.54,28.66,3.66,42.56-.1.28-.65.39-1.34.46-.75,4.75-2.99,7.95-6.74,9.6,5.14,4.21-7.62,35.91-9.49,36.5-2.7.84-5.92-5.34-6.74-7.58-7.4-4.35-8.88-8.49-4.44-12.44-3.18-4.54-2.82-6.26.88-10.35.01-7.97-9.46-5.33-14.21-2.96l-1.31-.47c-6.8-13.36-1.38,2.58.38,6.87l-1.29,1.84-2.37-.29c-5.65-9.3-9.18-19.82-9.37-30.85l-.09-23.47-.97-1.1c8.55-11.65,6.02-27.22,7.32-40.63,1.6-16.44,7.59-30.55,10.55-46.09,1.59-8.36,1.62-17.33,3.25-25.98,4.06-21.56,11.82-39.19,22-58.39,5.82-10.97,16.26-23.22,17.99-36.02.24-1.79-1.3-2.94-1.7-4.79Z"/>
    <path class="cls-38" d="M749.65,761.95c1.34.85,1.33,27.85.97,31.56-.56,5.75-4.4,5.52-9.62,5.92-9.04.68-22.97.59-32.07.01-1.81-.11-9.38-.85-10.07-1.81-3.54-4.92,4.39-16.02,7.81-19.72,2.68-2.9,11.15-8.72,12.38-11.43s-2.72-8.24,4.1-11.4c4.21-1.96,5.28,6.87,7.76,6.87h18.74Z"/>
    <path class="cls-4" d="M763.36,627.69c2.47,5.7,7.95,10.76,12.8,14.61,2.56,1.61,3.47,3.14,2.74,4.57-18.21-2.91-25.81-18.88-34.91-32.26-5.8-8.52-8.81-5.73-5.32-17.07l4.57-13.7c.7-1.56,1.05-2.22,1.83-3.65l4.57-7.31c.24-.34.67-.58.91-.91,1.45.21,2.63-2.26,2.77.47.55,10.71-.9,22.24,1.1,33.57,1.19,6.74,5.07,16.06,8.92,21.68Z"/>
    <path class="cls-30" d="M967.21,572.88c5.63,9.54,8.96,20.02,12.8,30.14-.19,5.15-5.88,8.98-8.98,13.4-9.01,12.86-10.01,19.13-24.84,27.7-1.86.19-4.54,1.81-6.39.46,9.1-6.74,16.27-15.68,20.28-26.32,5.33-14.16,5.05-27.66,4.59-42.47-.07-2.25.2-2.81,2.55-2.92Z"/>
    <path class="cls-9" d="M738.68,597.54c1.76-5.51,1.85-7.6,4.57-13.7-.72,4.81-3.16,9.12-4.57,13.7Z"/>
    <g>
      <path class="cls-22" d="M778.9,646.87c.62-1.43-.29-2.95-2.74-4.57-4.36.97-12.08-8.38-13.74-12.35l.94-2.26-5.48-15.52c7.58-1.42,6.31,4.56,7.31,5.48.83.75,2.54-1.38,3.41-1.6,4.21-1.04,10.99-1.8,12.63,3.39s-2.15,5.31-2.87,8.21c-.35,1.39,2.41,3.04,2.36,5.11-.05,1.82-2.3,2.54-2.65,3.81-.89,3.22,5.17,5.47,6.75,7.6,1.21,1.64,2.13,7.84,4.57,7.29,1.18-.27,6.51-16.5,8.65-18.77-.76-4.19,1.47-8.91,1.04-12.77-.21-1.92-2.07-3.79-1.91-4.52.24-1.17,5.35-2.03,6.94-4.05,1.25-1.59,1.01-3.25,2.21-4.65.49,1,.84,1.97.66,2.83-3.08,15.02-7.99,31.43-15.28,44.67-.28-.17-2.28.2-3.6-.48-2.1-1.08-3.89-4.93-6.21-5.7-4.63-1.54-10.27-1.6-14.87-3.86,1.95,8.77,2.87,20.65,1.75,29.6-1.19,9.53-9.89,24.83-12.67,35.75-1.33,5.19-2.52,11.32-3.48,16.62-.71,3.9-.6,15.57-3.35,17.66-2.08,1.59-20.46,1.43-22.06-.96-1.27-1.9,1.29-13.43,1.45-16.89,1.46-32.41-4.25-64.43,2.01-96.64,1.17-6.01,4.79-14.54,5.68-19.75.39-2.28-.93-5.35-.22-8.6.48-2.21,2.48-3.18,2.54-3.38l1.37,1.78c-2.02,4.84-.44,9.26,4.75,13.26,5.75,10.33,12.83,19.34,21.25,27.03,4.4,2.3,8.68,4.71,12.85,7.25Z"/>
      <path class="cls-7" d="M756.96,686.14c-6.01,2.43-17.65-.65-19.7-7.25-.75-2.42-1.11-10.63,2.2-6.77,2.2,2.57,3.32,5.9,6.57,8.05,1.53,1.01,12.75,3.99,10.93,5.97Z"/>
      <path class="cls-9" d="M767.94,622.21c5.15-.97,12.72,6.25,6.4,9.63-3.94,2.11-6.96-6.61-6.4-9.63Z"/>
      <path class="cls-9" d="M776.16,642.3c1.17.93,5.09,1.48,4.57,4.56-.59-.03-1.25.1-1.82,0l-2.74-4.57Z"/>
    </g>
    <g>
      <path class="cls-22" d="M980.01,603.02c2.09,5.5,4.91,22.08,6.13,29.04,5.7,32.67.46,63.86,2.06,96.59.23,4.75,1.66,10.13,1.81,14.96-.73,1.01-18.24,1.33-20.55,1.03-5.87-.76-4.39-9.89-5.24-14.86-2.93-17.19-6.3-26.02-12.08-41.82-5.14-14.06-7.95-29.39-2.3-43.83-1.2.07-2.46-.13-3.65,0,1.21-2.8,3.63-5.2,7.28-7.18,9.01-10.55,17.23-21.64,24.64-33.25l1.9-.67Z"/>
      <path class="cls-5" d="M959.9,686.14c-.28-3.37,3.37-2.34,5.39-3.28,2.29-1.06,5.54-2.83,7.3-4.58,1.07-1.06,9.71-13.72,6.98-2.18-2.13,9.02-11.23,12.73-19.68,10.03Z"/>
    </g>
    <g>
      <path class="cls-24" d="M832.83,370.11c3.33-1.22,3.79-5.45,5.9-7.34,4.1-3.67,10.71-3.69,15.6-9.99,2.48-3.2,2.86-7.93,3.19-8.24.1-.09,2.55-.08,2.69.04.31.25,1.98,5.4,3.31,7.21,4.93,6.74,13.13,8.88,19.59,15.59,1.87,1.95,4.1,4.07,5.48,6.39l.46,1.94c-12.43,3.64-23.22-3.7-30.27-11.51-5.85,7.63-12.76,12.46-22.75,12.41-6.11-.03-8.81-.11-4.11-5.58.29-.36.7-.63.91-.91Z"/>
      <path class="cls-23" d="M831.92,371.02l-1.82,4.56c7.74.53,14.98.07,21.47-4.57,2.19-1.56,5.81-7.34,7.31-7.35,9.38,8.46,13.15,12.43,26.56,11.93,1.76-.07,3.67.94,3.16-1.83.49.82,1.41,1.13.92,2.74l-3.66.92c-6.56-.36-9.51.26-15.73-3-4.61-2.41-7.54-6.25-11.23-9.77-4.01,6.52-11.65,11.63-19.27,12.69-2.54.36-5.16-.08-7.7.08-6.92-3.37-2.43-3.39,0-6.39Z"/>
      <g>
        <path class="cls-23" d="M809.98,360.06c-1.3-6-3.89-16-4.47-21.57-2.2-21.18,22.31-36.55,40.56-25.91,2.71,1.58,9.83,8.27,10.96,10.97.9,2.16.07,8.54,4.01,2.12,4.14-6.75,9.15-14.46,18.01-15.8,20.25-3.06,36.2,10.49,33.23,31.37-.4,2.8-2.22,4.99-2.61,7.44-.7,4.47,1.01,9.25-2.8,13.19-.07-.1-1.72-.01-2.29-.89-1-1.54.58-4.05-1.83-3.7-1.91.28-5.28,3.42-7.57,4.31-3.62,1.41-9.33,2.6-12.98,1.19l.91,4.56-2.51.1c-8.1-4.95-18.76-11.89-21.67-21.13-2.53,8.39-8.75,14.23-18.66,17.53-2.36,5.07-4.84,7.16-7.43,6.25.62-.83,3.36-5.8,2.74-6.39-3.68-.19-9.68-.79-13.01-2.07-1.56-.6-6.19-4.6-7.49-4.31-1.41.32-1.83,5.5-5.09,2.72Z"/>
        <path class="cls-45" d="M828.94,319.18c15.32-2.89,26.26,13.27,17.07,26.19-5.66,7.96-14.91,9.04-23,3.96-11.87-7.44-7.77-27.57,5.93-30.15Z"/>
        <path class="cls-45" d="M881.96,319.18c19.91-3.76,27.78,22.83,11.85,31.02s-31.47-9.23-22.08-23.89c1.89-2.94,6.79-6.48,10.23-7.13Z"/>
      </g>
    </g>
    <g>
      <path class="cls-38" d="M990.66,753.82c2.82-.9,8.04,4.41,8.38,6.94.26,1.93-1.36,3.4-.32,5.72,1.31,2.93,12.46,11.59,15.46,15.67,2.35,3.2,8.58,14.23,3.31,16.79-.79.38-12.79,1.3-15.05,1.4-6.76.32-15.27.36-22.01,0-2.92-.15-13.62-.78-14.59-2.77-.83-1.71-.83-33,0-34.72,1.84-3.79,15.77-.73,19.94-2,3.07-.93,2.46-6.26,4.89-7.04Z"/>
      <path class="cls-38" d="M967.21,797.57v-34.71h17.83c4.28,0,4.02-9.45,9.18-6.44,5.58,3.26,1.27,6.95,2.68,10.06,1.12,2.46,11.09,10.51,13.74,13.72,2.46,2.97,9.79,12.84,7.34,16.49-.84,1.26-4.81,1.69-6.4,1.82-10.5.86-28.86.84-39.39,0-1.76-.14-3.31-.54-4.98-.96Z"/>
    </g>
  </g>
  <g>
    <path class="cls-38" d="M806.33,557.35c.42-4.23,7.96-7.27,11.96-8.58,5.46-1.78,11.03-2.22,16.68-1.11,17.84,8.28,31.29,6.78,49.16.22,10.82-2.28,26.31,1.92,30.97,12.21-1.13,6.34-4.02,11.6-5.22,18.08-4.74,25.63,7.6,53.19,16.18,76.91-5.7,2.66-7.74,3.61-14.63,4.57-7.98,1.11-17.4,1.21-24.68-2.74,1.02-2.13,1.93-2.74,2.74-1.83l1.03-.75c2.82,3.44,29.58,1.47,30.21.06.57-1.28-1.08-6.71-1.59-8.3-11.12-26.31-19.51-54.89-8.87-82.69,1.2-8.89-20.48-12.83-27.3-10.05-14.84,5.86-28.23,7.83-43.28.99-10.36-3.17-22.06-2.17-30.64,4.89l-2.75-.05c-1.52.29-1.52-.32,0-1.83Z"/>
    <path class="cls-31" d="M806.33,557.35c-.12.53.18,1.55,0,1.83.33,5.29,1.74,10.81,4.23,16.55,3.23,11.37,1.92,23.34-.67,34.8-3.37,14.87-8.65,29.47-14.17,43.76l2.47,1.3c6.21-.44,9.53.92,9.97,4.06-.18,3.91-2.93,7.08-4.57,10.05l2.37-9.16c-4.22-2.87-9.48-.66-13.4-4.06-.72-.62-.74-2.25-.85-2.31,6.67-15.27,11.33-31.19,14.63-47.5,1.62-8.02,3.5-11.44,2.73-20.54-.79-9.32-5.85-18.44-6.38-26.96.15-2.44,1.67-3.66,3.66-1.83Z"/>
    <path class="cls-18" d="M886.77,656.91c-11.33,8.51-34.99,6.83-48.79,5.37-6.22-.66-8.37-3.1-12.45-4.46-9.04-9.75-11.66-20.34-10.11-33.37,1.48-12.47,6.46-39.96,12.79-50.31,10.05-16.46,35.41-17.16,49.86-6.31,21.98,16.5,22.93,66.97,8.7,89.08Z"/>
    <path class="cls-38" d="M806.33,559.18c7.95-7.18,16.96-9.27,27.67-8.01,7.07.83,17.88,6.11,23.98,6.25,16.13.38,25.54-12.2,45.13-4.06,14.24,5.91,8.19,10.53,5.87,21.16-3.88,17.83-1.28,31.56,3.65,48.79,2.44,8.52,7.85,18.75,9.58,26.96.29,1.38.56,3.84.25,5.12-.62,2.61-24.4,2.95-27.97,2.48-2.54-.33-3.13-1.48-4.98-2.79l-.91-.51c9.94-22.23,10.83-52.71-.58-74.78s-45.21-26.92-59.72-5.81c-5.7,8.29-13.74,47.07-13.55,57.9.18,9.7,4.11,16.98,9.25,24.91l-.3,1.02c-5,.3-8.89,2.68-15.54,1.83-.3-.04-1.92-1.35-3.38-1.62-3.79-.7-8.64.56-11.17-3.52,3.8-9.43,7.39-19.08,10.24-28.85,4.53-15.56,8.65-29.35,5.89-45.69-.88-5.19-4.98-14.08-5.26-17.69-.2-2.59,1.37-2.37,1.85-3.1Z"/>
    <path class="cls-38" d="M889.51,655.09c-.2.33-2.1,1.35-2.74,1.83,2.73-9.34,7.46-17.97,8.26-27.83,1.95-24.23-2.71-62.93-32.56-67.09-19.54-2.72-32.99,4.62-38.2,23.78-2.92,10.74-8.92,36.61-8.87,46.92.04,8.74,5.61,17.96,10.13,25.12-.35-.12-1.31-.03-1.83,0-2.16-4.07-5.76-8.96-7.35-13.21-4.11-11.01-1.71-19.63.33-30.8,1.93-10.58,5.54-31.97,10.83-40.33,12.23-19.35,43.99-16.92,57.41-.12,11.93,14.94,14.7,48.31,9.82,66.39-.55,2.04-4.6,14.29-5.22,15.33Z"/>
    <g>
      <path class="cls-29" d="M911.45,659.65c.52,8.67,11.46,16.27,5.49,25.12-1.3,1.92-4.88,3.36-5.34,4.71-.76,2.21.99,13.1-1.52,13.1h-22.85c-.1,0-1.37,1.27-1.37,1.37v60.74h20.57c1,0,1.31,2.23,1.42,3.15.68,5.79.68,21.7,0,27.49-.11.92-.42,3.15-1.42,3.15h-20.57v9.14s78.61.91,78.61.91l-.16,1.22c-26.39-.59-52.84-1-79.37-1.22-1.4,1.19-1.91.65-.91-.91-3.24-1.48-2.83-12.21,1.83-10.96l.67-1.95c.99-.59,17.83.01,19.44,1.95.66-9.32.96-18.76.91-28.31-2.24.95-2.52,0-.91-1.83-5.75-.62-11.63-1-17.37,0-.56,1.72-1.39,1.73-1.83,0-1.8,1.3-2.35.99-3.57-.75-2.77-3.95-1.11-27.29-.19-33.26l1.93-2.53c-.72-9.31-.95-19.19-.48-28.59,0-.07.61.07,1.39.27,7.91-.4,15.85-.64,23.81-.73.81-.4.65-12.41-.29-13.71,7.51-3.82,8.18-11.97,1.36-16.56l-103.79-.03c-7.09,7.53-4.14,11.93,1.94,17.85l-.72,1.31c3.24.01,2.62,8.81,0,10.05l1.56,1.28h17.39c1.89-.12,3.19.36,3.9,1.46-3.76-.58-22.9,1.14-24.28-.86s.45-9.34-.55-12.24c-.49-1.44-3.27-2.19-4.45-3.78-3.11-4.21-1.96-10.83.55-15.03.37-.62,1.22-.82,1.3-.98,1.59-3.09,2.69-6.31,3.32-9.66l1.25-.39c1.09-1.51,2.96-2.12,5.63-1.84,4.23-1.63,7.54-1.62,9.91.01-.4-1.6.21-1.6,1.83,0l.88-.98c17.19,6.33,40.86,7.43,58.03-.53l2.34.6,2.18-.51c6.52,2.97,13.69,3.75,21.52,2.36l.98.9Z"/>
      <path class="cls-39" d="M832.83,703.5l1.98.63c.39,7.93.33,15.87-.17,23.83l-1.81,1.11c1.75.52,1.75,1.31,0,1.83,2.22.6,2.74,1.64,2.77,3.91l-.35,24.17c2.62,1.01,3.76,2.05,4.19,4.9.34-10.31.26-20.64-.22-30.97l1.83-1.09c-.81-.17-.78-.48,0-.91h.88s1.83.62,1.83.62v31.81c2.31.08,3.85.85,4.6,2.33l-.61.69c-1.4.25-6.7-.18-6.7,1.55v27.4c0,.2,1.37,1.03.91,1.36-1.74.02-4.94.12-6.18-1.12-3.26-3.24,1.16-22.43-2.56-28.17-.76-1.17-1.25.09-1.31.07l-1.63,1.35c-6.11-1.08-12.65-.77-18.85-.05l-1.46-1.3c-1.13,9.23-1,19.08,0,28.31,1.32-1.11,3.25-1.36,5.78-.75l13.08-.28,1.25,1.95c5.51.88,4.5,10.32,1.83,10.96-.13-1.87.73-10.05-1.37-10.05h-21.02c-1,0-1.31-2.23-1.42-3.15-.64-5.43-.64-20.24,0-25.67.11-.92.42-3.15,1.42-3.15h21.02c1,0,1.31-2.23,1.42-3.15,1.55-13.17,1.01-42.15,0-55.82-.09-1.27-.11-3.08-.96-4.05-1.95-2.23-18.81-.22-22.86-.92-.04-.6.04-1.22,0-1.82.3-.61.75-1.21,1.46-1.32,1.11-.17,18.2.24,19.12.5,2.85.44,6.53,1.67,4.1,4.47Z"/>
      <path class="cls-34" d="M884.02,807.62c.2.03.62.88.91.91.12.01,1.24,1.4,2.18.97l75.84.07,1.1.73c.37,10.09,1.3,21.18-.52,31.11l-212.39-.14-1.33-1.92.73-29.91c25.56-1.3,52.83,1.74,78.19.04,3.37-.23,7.19-2.14,10.04-1.94,2.57.18,10.81,5.15,12.32-.83l1.66-1.07c1.42,1.04,10.1.93,11.17.22-.9-5.05,0-7.81,2.71-8.28l1.23.35c.34,11.21.76,11.18,11.54,8.09,2.73-.88,4.26-.34,4.59,1.61Z"/>
      <path class="cls-39" d="M885.85,701.67c-.18-.75-.37-1.87.13-2.15,2.16-1.22,18.84-.82,22.28-.46l1.36,1.7c-3.02-.72-2.78-11.53,0-12.79-2.76,1.05-5.61,1.71-8.55,1.97l-68.66-.42c-8.57.75-16.66.85-24.26.28-.7-2.66-7.09-3.39-7.24-10.61-.06-2.85,3.05-9.87,5.86-10.41l104.19.03c5.45,1.92,7.87,10.26,5.1,15.1-1.07,1.87-4.87,3.16-5.39,4.67-1,2.9.87,10.2-.55,12.24s-20.52.28-24.28.86Z"/>
      <path class="cls-26" d="M808.15,689.8c1.2-3.33,3.95-.79,5.94-.91,1.83-.11,3.5-.9,5.45-.96,29.97-.87,60.1.74,90.08.04v12.79c-4.36.74-21.47-1.38-23.77.91-.89.89-.82.91-.96,2.19-.87,7.8.28,17.93.05,26.13-.74,4.25-11.27,4.5-9.14-.91,1.78-1.62,7.57-1.69,8.23.91-.71-.08-1.79-.31-1.83-.82-.23-2.93-.47-24.96,0-26.18.26-.69,1.11-1.03,1.83-1.32l-.72,2.04c-3.03-.41-5.53.13-7.51,1.61-.26.8-.56.79-.91,0,.07-4.63-6.45-5.56-7.51-1.24-.08,20.07-.32,39.97-.72,59.69l-2.04-.13c-1.43-16.2-1.57-32.57-.4-49.12.77-11.77-.1-11.83-10.32-10.8.69,4.95-.24,7.31-2.78,7.07-.09-2.58.59-7.25-1.35-9.16-1.3-1.28-6.34-1.54-7.39-.04s-.27,22.14-.39,26.14c-.04,1.35-.91,2.66-.92,3.15,0,.3,0,.61,0,.91-.91,2.83-7.31,1.78-8.23-.91-.02-.61.02-1.22,0-1.83.76-2.76,7.84-1.85,8.23.91-.71-.08-1.79-.31-1.83-.82-.23-2.93-.47-24.96,0-26.18.26-.69,1.11-1.03,1.83-1.32-.44,2.56-6.33,3.14-8.23,1.83-1.31-5.71-19.92-.71-24.68-3.65-.13-2.77.57-7.89,0-10.05Z"/>
      <path class="cls-2" d="M888.6,766.52c5.75-.99,11.61-.63,17.37,0,.16.62.81,1.29.91,1.83.03,9.53-.27,18.97-.91,28.31-4.06,1.33-15.14-.97-20.11,0,.58-7.23-2-18.67-.96-26.99.2-1.61.11-2.62,1.87-3.15.44-.13,1.24.05,1.83,0Z"/>
      <path class="cls-27" d="M905.96,796.66c.57-9.26-1.18-19.31.91-28.31.74,3.78.57,22.75.03,26.99-.12.93-.01,1.02-.94,1.32Z"/>
      <path class="cls-3" d="M866.66,763.78c.21,1.05.74,1.93.91,2.74,1.94.08,2.76.65,2.46,1.72l-.6,27.12-1.86,1.29c-.37.18-.67.58-.91.91-2.22,3.02.37,9.02-1.8,10.57-4.58-.94-9.66,1.67-13.74-1.44.28-1.09.21-5.61-.02-6.83-1.05-5.58-7.78-3.73-8.21-4.13-1.01-.95.79-24.24,0-27.8.16-1.07,7.17.93,8.22-4.65l.02-52.5c2.08-1.95-.22-7.4,1.79-8.76.55-.37,12.38-1.02,12.71,1.12,1.52,18.57-1.56,39.21.06,57.52.16,1.79.86,2.46.98,3.09Z"/>
      <path class="cls-40" d="M831.92,767.43c-.57,8.45.75,17.78.06,26.12-.15,1.84-.13,2.24-1.89,3.11-4.23-.67-17.91,1.29-20.11-.91-.98-9.27-1.11-19.03,0-28.31,1.52-1.51,15.61-1.11,18.78-.91,1.38.09,2.08.59,3.16.91Z"/>
      <path class="cls-27" d="M841.06,731.81c-.12,4.72,1.22,32.63,0,33.8-.12.11-2.56.12-3.19.02-.93-.15-.11-2.67-.87-3.73s-3.02-.39-3.31-1.41c-1.13-3.87.27-19.92.1-25.54-.05-1.72-.93-3.36-.95-4.04l8.23.91Z"/>
      <path class="cls-35" d="M832.83,703.5c2.5-1.84,5.31-1.48,8.23-1.83v28.31l-8.23-.91c-.2-6.62,1.24-20.2,0-25.57Z"/>
      <path class="cls-27" d="M809.98,795.75c-1.22-1.22-.85-1.63-.97-3.12-.46-5.76-.61-17.4,0-23.01.14-1.28.07-1.3.96-2.19v28.31Z"/>
      <path class="cls-21" d="M875.8,705.32c.46-5.41,3.65-2.28,8.23-3.65v28.31c-1.58-.02-7.66.35-8.23-.91-.48-1.08-.24-20.95,0-23.75Z"/>
      <g>
        <path class="cls-27" d="M874.88,705.32c-4.41-2.38-6.21-1.31-5.4,3.2l-.15,53.47c.21,1.52,2.03,2.4,3.35,1.77.43-17.91.64-35.96.63-54.17l1.57-4.27h.91l1.78.94-.1,21.46-1.67,1.36c-.9,3.26,6.68,1.99,9.14.91-.29,10.37-2.23,22-.98,32.48.29,2.39,1.04,2.77,2.81,4.05-.22,9.55.11,19.13.99,28.74l-1.9,1.4c-.04.51-1.6,1.79-1.79,3.22-.33,2.54.11,5.19-.04,7.74-4.01-.61-8.44,1.58-11.41,1.91-8.11.88-5.7-6.42-5.96-11.96-1.37-1.27-.78-1.84.91-.91.38-2.08,2.32-3.01,5.83-2.79.81-1.54.18-25.22-1.15-25.66-2.49.55-4.05-.01-4.67-1.69-2.59-.14-2.74-.91-.91-2.74l.03-59.8c.41-2.91,3.28-3.75,5.9-3.25,2.97.57,2.13,2.29,2.3,4.6Z"/>
        <path class="cls-8" d="M867.57,766.52c3.84.23,6.78-1.52,7.36,3.15.33,2.69.91,25.18-.04,26.08-.27.25-5.25-.08-7.32.91l.64-28.66c.05-.59-.56-1.08-.64-1.48Z"/>
      </g>
      <path class="cls-27" d="M851.12,710.8c.72.08,1.81.34,1.83.85.6,17.85.33,36.67-.91,54.29-1.51,2.47-4.24,3.28-6.97,3.38-.34,8.17-.55,16.36-.63,24.58,3.3-.07,6.15.65,7.84,3.75,1.08,1.97,1.95,8.97-1.15,9.05,3.1,6.91-8.21,4.54-12.47,2.64l-9.19,1.9c-25.7.21-51.41.27-77.12.17-.46,9.58-.54,18.92-.24,28l210.32.17,1.13,1.83c.26-.8.56-.79.91,0-.44.68-.44,1.34-1.51,1.64l-211.06.23c-.94.2-3.15-.66-3.15-1.42v-32.88c0-.76,2.22-1.62,3.15-1.42l80.03.05c1.63-3.5,1.98-8.77-1.83-10.96.22-8.84.18-17.74-.12-26.72l1.95-2.51c-.13-4.61,4.14-.76,4.27,2.86.17,7.88.4,15.73.68,23.57,2.15,1.02,5.64,2.47,4.2,1.43-.71-.08-1.79-.31-1.83-.81-.26-3.13-.56-23.52,0-25.28l1.83-1.31c-1.42-1.15.25-2.49,1.46-1.7l5.85-.54c.6-1.14.32-1.42-.87-.85l.02-59.84c.18-.94-3.64-.66-3.75-.48v25.1s-1.84,1.32-1.84,1.32c-.25.8-.54.79-.88,0-.24-.39-.09-1.45.46-3.19l.1-25.68c-1.82-4.06,6.9-4.07,9.36-1.7,1.38,1.33.56,7.85.13,10.48Z"/>
    </g>
  </g>
</svg>