<?xml version="1.0" encoding="UTF-8"?>
<svg id="Layer_1" xmlns="http://www.w3.org/2000/svg" viewBox="0 0 562.45 1027.75">
  <defs>
    <style>
      .cls-1 {
        fill: #6f6f6f;
      }

      .cls-2 {
        fill: #f1f3f3;
      }

      .cls-3 {
        fill: #818281;
      }

      .cls-4 {
        fill: #dfa985;
      }

      .cls-5 {
        fill: #2d2c2c;
      }

      .cls-6 {
        fill: #e0aa86;
      }

      .cls-7 {
        fill: #d4a585;
      }

      .cls-8 {
        fill: #848484;
      }

      .cls-9 {
        fill: #eef0f0;
      }

      .cls-10 {
        fill: #6e6e6e;
      }

      .cls-11 {
        fill: #b5b3b1;
      }

      .cls-12 {
        fill: #f2f3f2;
      }

      .cls-13 {
        fill: #dba582;
      }

      .cls-14 {
        fill: #282828;
      }

      .cls-15 {
        fill: #e1ad88;
      }

      .cls-16 {
        fill: #acacac;
      }

      .cls-17 {
        fill: #686868;
      }

      .cls-18 {
        fill: #878787;
      }

      .cls-19 {
        fill: #858786;
      }

      .cls-20 {
        fill: #deac8b;
      }

      .cls-21 {
        fill: #6d6d6d;
      }

      .cls-22 {
        fill: #696969;
      }

      .cls-23 {
        fill: gray;
      }

      .cls-24 {
        fill: #fefefe;
      }

      .cls-25 {
        fill: #b0aca9;
      }

      .cls-26 {
        fill: #e0ab86;
      }

      .cls-27 {
        fill: #e4b898;
      }

      .cls-28 {
        fill: #808281;
      }

      .cls-29 {
        fill: #676767;
      }

      .cls-30 {
        fill: #fccaa5;
      }

      .cls-31 {
        fill: #d84140;
      }

      .cls-32 {
        fill: #2c2e30;
      }
    </style>
  </defs>
  <path class="cls-24" d="M348.93,420.01s-.02,19.72-2.52,24.01,39.15,10.03,39.15,10.03l-6.44-34.04h-30.19Z"/>
  <path class="cls-30" d="M20.82,276.9c4.3-1.84,8.82-.82,13.23-.85,19.97-.14,39.96-.56,59.91.07,16.72.53,32.73-3.1,48.95-5.94,11.12-1.95,18.39-9.56,26.37-16.23,2.27-1.9,1.61-4.85,1.61-7.43-.04-14.69.32-29.4-.34-44.06-.53-11.79,3.54-22.04,8.7-32.02,3.52-6.82,4.31-13.45,3.45-21.13-1.53-13.74-2.49-27.7.69-41.41,1.66-7.15,1.66-13.96-5.37-17.76-10.57-5.71-15.56-4.51-22.13,3.99-2.45,3.17-4.71,3.78-8.72,2.35-6.81-2.44-12.66-8.84-21.24-5.3-2.48,1.02-3.83-2.23-4.91-4.28-2.51-4.79-5.87-8.34-11.15-10.42-3.3-1.3-6.85-3.31-8.63-6.6-2.41-4.48-6.42-6.42-10.69-8.24,2.99-4.26,5.87-8.59,8.71-12.96,5.63-8.67,12.83-9.88,21.43-4.14,2.54,1.7,4.76,4.23,8.34,3.27,1.39-1.99-.43-3.48-.7-5.16-.61-3.77-.85-7.51,2.8-9.88,3.49-2.27,7.03-1.26,10.36.73,2.26,1.35,4.22,3.06,6.04,4.97,7.23,7.55,13.77,7.39,20.39-.45.84-1,1.53-2.12,2.69-2.81,5.87,5.44,11.65,7.72,19.35,2.37,3.31-2.3,8.73-3.05,12.84-2.37,7.56,1.24,14.43-.51,21.54-2.09,17.99-4.01,35.54-1.04,52.51,4.86,14.58,5.06,29.06,10.18,44.14,13.71,15.59,3.66,30.04,10.48,43.84,18.55,8.82,5.16,17.87,5.44,27.07,1.34,3.2-1.43,6.44-2.56,9.88-1.98,6.41,1.08,7.77-2.38,7.43-7.65,4.07,2.51,5.85,7.7,10.76,9.24,6.28,4.44,9.31,10.42,7.99,18.08-.61,3.57,1.89,5.79,2.75,8.69-2.01,2.67-4.6,4.89-5.59,8.33-1.47,5.12-5.12,7.62-10.43,7.76-8.33-1.35-16.69.61-25.03-.24-4.93-1.08-7.76-5.01-11.09-8.23-2.82-2.72-5.62-5.42-9.31-6.96-13.65-5.85-28.34-4.1-42.54-5.86-12.26-1.52-24.28-4.23-35.93-8.17-10.76-3.64-21.48-4.15-32.5-2.41-4.94.78-9.92.59-14.88.55-5.94-.22-11.94-.84-18.5,2.24,3.73-.98,6.9-2.31,9.03.52,1.92,2.56-.31,4.84-1.61,7.04-18.87,18.12-39.53,12.78-51.78-14.48,4.63,12.22,9.94,22.34,18.55,30.65,4.49,4.33,8.07,9.59,11.79,14.64,3.43,4.65,6.81,9.28,12.68,11.23,1.79.59,3.05,2,3.28,4.06-1.11,13.46-6.97,25.78-9.26,38.97-.67,3.86-1.76,7.65-2.25,11.56-1.46,11.52-4.31,22.63-9.57,33.09-7.07,14.06-12.93,28.69-20.22,42.66-3.94,7.55-9.28,13.79-1.09,13.8,38.1.05,84.73-1.5,122.83-1.57,3.32,0,4.61-3.01,6.15-7.3.63-6.84.18-13.67.23-20.5-.01-2.41.26-4.74,1.82-6.71,6.05-1.98,7.73,2.58,9.47,6.59,1.47,3.39,1.03,7.15,1.14,10.77.38,11.95-3.46,23.47-3.72,35.38-.06,2.62-1.05,5.65-3.56,7.55-5.38-3.59-4.9-9.5-5.06-14.66-.2-6.57-3.05-8.53-9.21-8.52-39.32.12-78.65.12-117.97,0-7.31-.02-12.85,4.12-19.06,6.7-7.38,3.06-14.5,6.48-21.88-.29-2.48-2.28-6.06-.71-9.15-.43-7.66.7-15.27,1.14-21.6-4.52-3.1-1.97-6.58-1.55-9.96-1.56-24.67-.02-49.34.04-74.01-.07-3.52-.02-7.49.97-10.15-2.66Z"/>
  <path class="cls-30" d="M172.26,562.7c1.99.75,1.98,2.97,3.16,4.3,3.97,4.44,7.75,8.68,14.33,3.3,2.99-2.44,7.16-3.57,11.15-3.24,12.73,1.05,24.86-2.75,37.27-4.07,17.84-1.9,34.7,3.54,51.2,9.8,2.94,1.11,5.78,2.52,8.79,3.38,8.9,2.54,17.47,5.38,20.56,15.53,2.04,24.51,2.3,48.89-5.64,72.62-.99,2.97-2.04,5.91-2.96,8.89-.87,3.51-1.89,7.03-3.24,10.35-3.38,8.31-3.06,15.98,2.17,23.5,2.76,3.96,2.75,8.81,3.07,13.46-1.05,4.16.21,7.83,2.5,11.27-10.22,11.65-23.96,14.35-37.07,6.54-5.59-3.33-8.38-3.5-9.09,3.73-.16,1.65-.77,3.8-3.48,2.97-2.76-5.84-2.91-11.44,1.79-16.43,1.47-1.56,2.18-2.54.06-4.27-5.11-4.16-4.06-9.51-2.36-14.87q3.4.79,5.01,5.44c-.21-4.94,1.75-8.87,4.74-12.68,6.72-8.54,6.72-16.92.59-26.44-.44-.68-.38-1.48-.1-2.25,4.2-8.17.89-16.37-.32-24.39-1.28-8.5-2.61-16.97-3.42-25.52-.63-4.81-.63-9.52,2.45-13.67.55-1.08,1.48-1.92,2.03-3.14-1.63,1.32-2.25,3.19-3.22,4.82-2.25,7.41-7.24,10.19-14.9,9.6-6.26-.48-12.61.2-18.9-.15-7.5-.43-14.69-.04-20.9,4.43,4.25-.42,8.62-2.15,13.18-2.03,3.38.09,7.24-.06,7.08,5.12-.95,3.32-3.51,5.06-6.37,6.49-12.45,6.21-30.77,3.68-38.33-5.29-4.43-10.17-11.6-19.34-11.63-31.15.11-3.53,1-7.14-.88-10.46-.65-.95-1,.79-.24.07.31-.3.42-.1.67.41,1.21,2.51.52,5.15.59,7.74-1.17,9.9,3.58,18.31,6.88,27.09.36,2.79,2.06,5.67-.55,8.25-2.74-6.08-6.74-10.39-13.34-13.02-9.92-3.95-12.15-4.16-19.24,3.83-3.36,3.78-5.98,3.93-10.71,1.68-5.68-2.7-10.57-9.2-18.49-5.58-2.22,1.01-3.83-1.36-4.58-3.38-2.52-6.8-7.63-10.98-13.71-14.46-2.21-1.27-4.4-3.18-5.68-5.35-2.78-4.7-6.72-7.59-11.71-9.36,4.37-2.96,7.64-6.87,10.6-11.25,6.13-9.1,13.17-10.16,21.9-3.73,2.46,1.81,4.63,4.2,8.83,4.05-1.71-5.55-4.45-11.49,2.53-14.54,6.77-2.96,11.74,1.14,15.47,6.07,4.22,5.59,9.01,7.47,15.65,5.11,4.41-1.57,4.15-6.39,6.83-9.12Z"/>
  <path class="cls-14" d="M390.37,607.61c14.3,2.63,28.28,6.08,39.23,16.57,19.38,18.57,24.74,53.18,12.31,78.83-3.9,8.05-8.33,15.74-14.4,22.37-2.36,2.57-3.49,5.57-4.66,8.85-3.06,8.55-6.9,16.81-10.44,25.19.25.81.26,1.62.03,2.44-.77,6.43-4.44,11.63-7.36,17.14-1.82,3.45-5,4.58-8.65,3.83-3.59-.74-7.26-.9-10.82-1.77-5.14-2.42-10.93-2.66-16.18-4.76-10.65-4.06-21.04-8.71-31.43-13.4-3.3-2.17-4.15-5.52-3.46-8.99,3.07-15.56,3.31-31.19,1.91-46.92-.12-1.29.27-2.6.68-3.84.58-6.83,4.72-12.62,5.71-19.33.91-3.03,2.21-5.86,4.34-8.26,14.37-16.26,23.43-35,27.32-56.4,2.29-12.61,2.71-12.53,15.87-11.55Z"/>
  <path class="cls-16" d="M344.36,393.68c-98.26.05-196.52.1-294.78.15q-11.92,0-14.29,11.4c-2.71,13.03-5.47,26.05-8.09,39.1-.7,3.48-2.31,6.02-6,6.17-5.77.23-11.56.15-17.33.04-4.54-.08-4.05-3.64-3.55-6.3,1.73-9.23,3.8-18.4,5.79-27.58,6.97-32.13,14-64.24,20.86-96.39.53-2.47-.1-5.18-.2-7.78.56-.9,1.33-1.54,2.31-1.94,2.81-.89,5.72-.69,8.6-.69,49.12-.02,98.29-1.25,147.36.37,40.95,1.36,81.86.4,122.78,1.16,3.91.07,7.9.46,11.69-1.06,6.93,2.18,9.16,6.52,6.38,12.45-4.56,1.82-9.34,1.22-14.04,1.22-79.95.04-159.89.02-239.84.03-15.04,0-15.11,0-18.86,14.37-1.99,7.62-3.34,15.39-5.31,23.01-1.36,5.28.28,8.12,6.08,7.98,2.63-.07,5.26.03,7.89.03,87.84,0,175.67-.01,263.51.04,4.67,0,9.52-.82,13.86,1.84.85.83.92,1.72.23,2.68-4.26,2.9-9.14,2.02-13.79,2.02-88.64.06-177.28.03-265.92.07-3.87,0-7.84-.68-12.45,1.24,3,1.92,5.77,1.52,8.36,1.52,90.74.04,181.49.03,272.23.03,4.5,0,9-.01,12.56-3.44,1.85-1.27,3.16-.1,3.56,1.37,1.51,5.57,4.47,11.18.41,16.91Z"/>
  <path class="cls-16" d="M349.1,924.88c-99.37-.01-198.74.03-298.12-.16-6.15-.01-8.68,1.69-9.81,7.93-2.7,14.88-6.31,29.59-9.5,44.38-.35,1.61-.71,3.5-2.29,3.83-7.51,1.57-15.25,1.53-22.64.15-3.77-.7-2.02-5.49-1.46-8.3,2.03-10.24,4.5-20.4,6.74-30.6,6.5-29.58,12.99-59.15,19.43-88.74,1.31-6.01.61-10.59-7.47-9.15-1.53.27-3.15.04-4.73.04-13.83,0-16.7-4.85-11.15-18.84.78.7,1.34,1.54,1.68,2.52.62,1.75.83,3.59.85,5.42.04,5.1,2.94,6.95,7.59,6.78,15.25-.53,30.42,1.55,45.63,1.58,81.97.18,163.93.08,245.9.09,4.73,0,9.46-.01,14.13-.89,7.57,2.53,9.73,9.41,4.54,14.46-4.64,1.33-9.4.88-14.11.89-79.36.03-158.72.02-238.08.02-15.43,0-15.35.03-18.71,14.68-1.64,7.16-2.95,14.38-4.76,21.51-1.73,6.8-.21,8.61,6.62,9.1,2.88.2,5.78.08,8.67.08,87.5,0,175.01,0,262.51.02,4.44,0,8.95-.5,13.29,1.04,1.22.83,2.94,1.45,1.48,3.43-4.22,3.05-9.11,2.08-13.75,2.09-89.37.06-178.75.04-268.12.07-3.63,0-7.35-.58-11.64,1.04,2.71,2.24,5.5,1.71,8.03,1.71,90.95.05,181.9.04,272.86.04,4.53,0,9.03-.01,12.06-4.23.51-.53,1.06-1.56,1.83-1.05,4.3,2.83,5.8,14.64,2.5,19.05Z"/>
  <path class="cls-14" d="M440.84,159.47c-1.29,9.83-5.97,18.39-11.88,25.83-6.58,8.28-11.06,17.32-14.68,27.05-1.88,5.05-4.29,9.89-6.46,14.83.21.81.2,1.62-.02,2.43-.68,6.16-4.31,11.15-6.69,16.62-1.86,4.27-5.76,4.87-9.9,4.72-2.91-.1-5.63-1.14-8.47-1.55-.8-.14-1.58-.36-2.34-.62-5.17-2.08-10.63-3.14-16.02-4.48-14.47-5.39-28.27-12.51-43.29-16.46-6.71-1.77-6.4-6.6-4.94-11.84,6.49-21.16,15.09-41.58,22-62.59,3.89-11.55,11.25-20.55,20.78-27.94,3.66,1.14,2.66,5.77,5.63,7.43,2.52,2.01,5.47,3.05,8.51,3.94,18.95,5.52,38.39,8,58.02,9.04,13.07.69,13.63,1.19,9.75,13.59Z"/>
  <path class="cls-30" d="M317.61,216.36c-2.44,7.01,1.24,9.28,7.46,10.77,13.95,3.35,26.69,10.01,39.84,15.54,5,2.64,10.65,3.08,15.97,4.62.48-.18.95-.14,1.39.12,2.31,1.13,4.63,2.15,7.26,2.45,7.4.85,7.89,1.94,3.25,8.24-5.1,6.92-10.91,13.28-16.43,19.85-2.83,3.97-6.51,7.24-9.36,11.22-1.98,2.78-2.8,5.43-.9,8.49,1.84,4.35,4.5,8.27,6.68,12.44,1.74,4.31,5.02,7.7,7.1,11.82,7.42,15.86,12.19,32.11,7.49,49.78-2.3,7.11-1.53,14.75-3.76,21.88-4.72,6.81-4.36,14.63-4.41,22.34-.08,11.2-.04,11.34-10.79,11.1-5.71-.13-12.26,2.03-16.91-1.14-5-3.41-.75-10.52-2.78-15.4-2.27-5.48,1.36-12.36-4.35-16.82.26-6.39-.67-12.57-3.25-18.47-1.24.27-1.72-.31-1.64-1.49.07-.53.14-1.06.21-1.59-6.68-16.32-10.28-33.41-12.7-50.79-2.09-3.62-4.18-7.23-6.26-10.85-2.25-2.2-3.49-4.61-1.69-7.69,1.17-15.86,5.27-31.42,4.83-47.44-.16-5.84-1.06-11.09-7.97-12.62-3.71-7.05-2.63-14.7-2.55-22.16.02-1.96.87-4.83,4.28-4.22Z"/>
  <path class="cls-30" d="M330.16,853.42c.69-4.96-3.87-7.8-4.88-12.08-.65-.55-1.13-1.22-1.43-2.01-1.31-12.87-2.35-25.67,1.49-38.42,2.23-7.38,1.04-14.99-.33-22.51-1.51-8.28-.91-8.78,6.84-6.51,4.03,1.18,7.71,1.1,11.06-1.75,2.02-1.73,4.96-4.05,6.92-2.02,5.7,5.87,13.86,3.3,20.11,6.75,5.25,1.24,10.78,1.52,15.46,4.64,3.1,2.2,6.96,1.5,10.37,2.19,6.32,1.28,5.12,3.81,2.57,7.34-5.36,7.42-12.11,13.7-17.34,21.22-2.29,3.39-5.54,5.99-7.86,9.36-2.05,2.97-4.09,5.99-2.16,9.84,2.16,4.84,4.75,9.44,7.56,13.92.65.9,1.23,1.84,1.73,2.84,1.2,2.87,2.89,5.48,4.17,8.31,7.7,15.45,11.39,31.6,8.67,48.88-.22.83-.53,1.63-.9,2.4-.17.38-.37.76-.54,1.15-2.28,5.8-.63,12.64-4.76,17.95-2.58,4.4-1.43,9.23-1.62,13.9-1.7,5.11-.79,10.37-.65,15.53.14,5.21-2.28,7.04-6.94,7.28-3.67.19-7.34.18-11,.12-10.37-.17-11.04-.72-12.88-10.38-.1-9.08-.49-18.11-4.7-26.46,1.1-6.68-1.58-12.7-3.34-18.88l-.14-.13c-.48-.61-.95-1.22-1.43-1.83-3.36-3.98-3.65-9.07-4.76-13.79-2.88-12.33-5.62-24.7-9.28-36.84Z"/>
  <path class="cls-30" d="M369.93,774.86c-4.69.25-9.39-3-14.22.96-1.73,1.42-2.98-1.86-3.77-3.82-1.4-3.45-3.65-4.19-6.68-1.63-7.41,6.26-10.85,6.45-19.77.47,7.78,23.52-4.29,46.12-.26,68.99-3.64-.45-4.19-3.4-5.01-6.14-.09-3.69-1.44-7.17-1.83-10.82-1.15-10.7-1.18-10.77-11.67-10.78-38.57-.04-77.15.18-115.72-.17-8.16-.07-14.63,3.46-21.51,6.54-7.02,3.14-13.78,6.67-20.91-.47-2.64-2.65-7.08-1.21-10.67-.59-6.67,1.15-12.96,1.14-18.79-3.13-3.56-2.61-8-2.18-12.2-2.18-23.88-.03-47.76.04-71.64-.06-3.83-.02-7.98.77-11.11-2.53,2.47-2.31,5.52-1.22,8.29-1.23,24.72-.1,49.45.21,74.16-.19,17.66-.29,34.82-3.97,51.17-10.75,11.06-4.59,16.08-13,16.21-24.83.2-17.53-1.84-35.1,1.2-52.6,1.12-6.43,4.49-11.72,7.31-17.29,3.71-7.33,4.19-14.64,3.19-22.81-1.89-15.54-2.79-31.25,2.32-46.54,3.32-.54,3.62,2.48,4.65,4.25,3.26,5.62,7.3,10.67,10.97,16,3.31,4.82,7.48,7.76,13.35,8.21,5.11,2.49,11.24,3.33,14.44,8.91-1.44,11.77-5,23-8.83,34.15-.77,2.23-2.01,4.35-2.24,6.7-3.06,31.34-18.18,58.22-31.71,85.69-3.91,7.94-4.24,13.5,4.85,13.51,37.57.04,75.67,1.47,113.24,1.42,9.32-.01,9.8-6.83,10.04-16.08.3-12-1.39-24.16,2.76-35.87.84-1.35,1.97-1.37,3.24-.69,2.45,2.26,5.37,2.83,8.52,2.11,2.84-.65,5.54-.42,8.19.72,10.67,2.95,20.36,8.27,30.46,12.6Z"/>
  <path class="cls-28" d="M24.16,809.48c28.93,0,57.86.05,86.78,0,4.59,0,8.95.17,12.02,4.3,3.01,4.03,7.24,2.08,10.95,1.86,4.69-.28,9.36-1.1,14.01-1.82,1.66-.26,3.36-.63,3.72,1.5,1.34,7.89,6.4,5.47,10.69,3.61,5.48-2.38,11.49-3.79,16.11-7.92,2.2-1.97,4.91-1.58,7.51-1.58,42.34-.02,84.68.05,127.02-.13,5.24-.02,8.16,1.21,7.34,6.91-.92,6.4,2.78,12.28,1.96,18.65-5.78-4.4-12.44-3.86-19.2-3.87-55.45-.09-110.9.05-166.36-.13-37.57-.12-75.16.03-112.74.17-5.44.02-11.19.68-15.54-3.9-.12-.57-.23-1.14-.35-1.71,5.36-5.31,10.71-10.62,16.07-15.93Z"/>
  <path class="cls-16" d="M383.59,393.6c-2.65-7.49.28-14.48,1.95-21.58,2.99-2.82,6.78-2.51,10.43-2.53,13.14-.09,26.28.07,39.42-.08,8.26-.09,8.96-.82,9.06-9.07.11-9.18-.13-18.37.07-27.54.14-6.43-2.72-8.87-8.98-8.84-15.24.09-30.49.04-45.73.02-4.22,0-8.43.04-12.23-2.24-1.86-3.85-5.52-6.68-6.34-11.12,16.72-1.57,33.51-1.74,50.18-.29,19.44,1.69,38.73.7,58.07-.73,4.27-.32,6.03-2.47,6.07-6.54.02-2.09,0-4.19.44-6.26.26-1.47.82-2.78,2.03-3.72,3.4,5.59,1.28,11.69,1.41,17.53.08,3.82-3.53,3.03-6.03,3.13q-14.62.58-14.61,15.22c0,32.25.15,64.5-.11,96.75-.06,6.82.99,12.9,5.06,18.43,1.39,1.89,2.81,3.89,3.57,6.07,1.88,5.36,4.02,11.78-1.03,15.71-5.1,3.97-17.62-.18-20.49-5.58-4.52-8.51-11.52-15.59-14.8-24.73-2.07-5.77-5.82-12.15,3.35-16.42,4.11-1.91,2.22-7.14,2.25-10.91.11-16.37,1.31-14.34-14.17-14.44-16.28-.1-32.57-.16-48.85-.24Z"/>
  <path class="cls-16" d="M390.26,905.86c.44-.6.88-1.2,1.32-1.8,3.1-2.58,6.87-2.3,10.52-2.32,12.34-.08,24.68-.15,37.02.02,5.88.08,8.65-1.99,8.48-8.21-.27-9.69-.25-19.39,0-29.08.16-6.18-2.58-8.3-8.5-8.25-15.23.13-30.45.1-45.68.01-3.9-.02-7.96.42-11.23-2.51-1.49-2.39-3.74-4.45-3.36-7.66,2.89-3.17,6.77-2.31,10.32-2.32,23.52-.1,47.04.09,70.56-.12,9.08-.08,18.14-1.02,27.05-2.71,3.36-3.17,1.85-7.26,2.06-11.01.77-3.53-4.07-5.7-2.32-9.46,5.37,3.37,9.02,18.49,5.75,23.69-1.4,2.22-3.62,1.74-5.65,1.81-2.1.07-4.23.23-6.31-.02-7.03-.85-8.85,1.29-8.69,9,.7,34.63.42,69.29.21,103.93-.04,6.29,1.02,11.77,4.93,16.84,3.57,4.64,5.34,9.87,5.29,16.05-.04,5.78-2.35,6.62-7.48,7.06-8.72.75-14.17-1.7-17.56-10.29-2.85-7.23-7.97-13.53-11.14-20.67-2.5-5.62-6.15-12.33,2.65-16.52,2.17-1.03,1.65-3.05,1.78-4.8q1.69-21.69-20.01-21.69c-14.46,0-28.92.03-43.39.05.46-6.41.71-12.86,3.24-18.92,1.69,1.41,1.88,4.45,5.09,4.21,16.37-1.21,32.82.2,49.2-1.42-14.29-.75-28.59-.59-42.88-.71-3.86-.03-7.95.68-11.29-2.2Z"/>
  <path class="cls-31" d="M390.37,607.61c-2.34.09-4.68.36-7,.22-3.57-.22-5.26,1.26-5.72,4.8-3.29,25.01-12.68,47.21-30.32,65.65-1.19,1.25-1.68,3.17-2.49,4.78-10.57-2.47-20.93-5.95-31.83-6.88-1.84-.16-3.57-.63-4.87-2.08,1.7-10.84,6.94-20.73,7.9-31.86,1.22-14.14,1.27-28.26,1.09-42.4-.04-2.81-.92-5.82,1.63-8.13,23.31,7.85,47.16,13.27,71.63,15.91Z"/>
  <path class="cls-31" d="M386.8,980.03c7.46,11.23,6.16,23.91,5.72,36.34-.17,4.88-3.63,7.48-8.57,7.32-11.61-.38-22.92,1.62-34.37,3.17-14.91,2.02-29.99.75-44.06-5.3-11.94-5.14-12.36-10.83-1.97-18.26,9.92-7.1,21.29-11.26,32.53-15.58,5.83-2.24,11.11-4.54,12.44-11.55.53-2.78,3.39-3.83,5.3-5.57,2.89-2.64,5.89-1.85,8.47.22,4.93,3.96,10.48,5.42,16.67,5.34,3.17-.04,6.3.41,7.83,3.88Z"/>
  <path class="cls-31" d="M511.75,253.75c12-10.08,26.18-6.47,39.73-5.99,4.09.14,6.46,4.07,6.1,7.99-1.69,18.31,4.33,36.38,1.4,54.72-1.49,9.32-2.88,18.64-7.92,26.85-5,8.16-10.05,8.45-15.71.75-7.86-10.7-11.96-23.27-15.68-35.71-2.38-7.94-7.52-11.32-14.21-14-3.95-5.29-4.32-10.5.45-15.51,5.15-5.41,2.25-13.24,5.83-19.11Z"/>
  <path class="cls-31" d="M334.39,495.39c-12.59.02-24.35-.92-35.14-6.49-9.62-4.97-10.06-10.52-1.32-17.02,10.87-8.08,23.8-12.04,36.11-17.17,4.72-1.97,7.83-4.56,9.67-9.4,2.57-6.76,8.82-8.48,14.29-3.82,4.56,3.89,9.5,5.66,15.19,4.76,7.88-1.25,11.58,3.88,12.9,9.71,1.88,8.36,3.12,17.02,2.45,25.74-.49,6.38-3.19,10.7-10.33,9.89-15.11-1.7-29.45,5.16-43.82,3.81Z"/>
  <path class="cls-31" d="M560.39,783.17c-.45,20.65,3.76,41.2,1.28,61.88-.91,7.58-2.72,14.98-6.19,21.78-5.88,11.52-11.52,11.8-18.47,1.02-6.87-10.67-10.52-22.74-14.65-34.59-1.87-5.35-3.93-10.39-10.62-11.07-7.84-6.1-8.48-8.97-3-16.8,2.52-3.6,3.52-7.39,3.82-11.68.58-8.03,7.14-14.44,15.21-14.69,8.62-.27,17.26.03,25.88-.11,3.35-.06,5.46,1.3,6.73,4.25Z"/>
  <path class="cls-30" d="M407.3,228.52c-.1-.55.07-.99.52-1.33,1.55,1.31,2.77,2.9,5.26,2.82,21.74-.69,40.97,8.76,60.91,15.28,5.19,1.7,10.32,3.59,15.47,5.39,4.92,1.22,6.59,4.25,5.84,9.26-.69,4.62-.92,9.32-1.49,13.98-.72,5.83-3.31,8.31-9.27,7.46-2.82-.4-5.74-.15-8.6.26-2.27.03-4.39-.67-6.53-1.3-18.99-3.43-38.17-2.16-57.29-2.36-3.68-.04-7.35.03-11.03-.02-10.97-.16-13.86-4.56-9.94-15.05,2.9-7.76,8.87-13.56,13.14-20.45,2.75-4.43,5.75-8.48,3.01-13.94Z"/>
  <path class="cls-30" d="M411.98,760.85c-.14-.56,0-1.04.44-1.43,1.72,1.57,3.35,3.06,6.05,2.85,20.35-1.63,37.82,8.29,56.31,14.13,4.46,1.41,8.79,3.24,13.17,4.88,9.1,1.97,10.01,3.04,10.23,12.36.08,3.39.13,6.78-.05,10.16-.47,9.04-2.38,10.49-11.8,9-2.16.04-4.33.07-6.49.11-6.23,2.22-11.97-.5-17.87-1.74-11.23-2.03-22.55-.56-33.82-.89-8.41-.25-16.83.17-25.24-.14-7.07-.26-9.27-3.08-8.41-10.11.46-3.73,1.9-7.16,3.95-10.2,4.84-7.18,9.39-14.56,14.42-21.6,1.79-2.5,1.7-3.25-.83-4.53-.94-.47-.56-1.86-.07-2.84Z"/>
  <path class="cls-14" d="M170.62,35.2c-.44,6.16-4.56,9.67-9.85,10.54-5.1.84-10.72,1.63-14.13-5.1-3.23-6.37-11.82-9.39-15.07-6.13-5.57,5.6-.09,9.84,2.98,14.85-4.96,1.9-8.89,1.55-12.99-1.65-10.29-8.05-15.9-6.76-22.35,4.69-2.13,3.78-3.39,8.38-8.66,9.22-5.52-1.09-6.27-5.76-7.17-10-3.23-15.2,4.41-26.69,13.04-37.99,12.75-16.7,42.51-18.87,56.05-2,6.22,7.74,12.43,15.46,18.15,23.57Z"/>
  <path class="cls-14" d="M172.26,562.7c1.97,6.62-2.19,10.23-7.28,11.79-5.41,1.66-11.54,2.08-15.05-4.36-1.94-3.55-4.46-6.3-8.34-7.83-3.16-1.24-6.06-1.71-8.69.91-2.91,2.9-1.21,5.7.22,8.55.88,1.76,3.9,3.27,2.31,5.27-1.8,2.25-4.88.92-7.34.34-2.93-.7-4.68-3.2-6.83-5.08-6.11-5.35-12.53-4.74-17.48,1.76-2.05,2.69-4,5.51-5.58,8.49-1.76,3.32-4.38,4.06-7.74,3.58-6.02-4.62-6.26-11.59-5.52-17.8,2.05-17.13,13.19-29.13,26.51-38.18,5.56-3.77,14.48-3.44,21.88-3.44,6.93,0,12.78,4.12,18.04,8.7,8.84,7.7,14.48,17.79,20.9,27.31Z"/>
  <path class="cls-28" d="M470.58,278.88c1.56.57,3.12,1.13,4.68,1.7,4.27,1.47,5.92,5.92,9.43,8.24,1.12,1.42,2.23,2.84,3.35,4.26-.05,1.09-.11,2.18-.16,3.27-2.78,2.56-6.29,2.43-9.69,2.45-36.03.16-72.07-.13-108.1.17-1.86.02-3.67-.2-5.37-1.02-2.82-2.82-3.19-5.4-.13-8.58,3.56-3.71,6.6-7.9,9.87-11.89,3.39-2.44,7.33-3.09,11.22-2.42,19.2,3.3,38.53.92,57.78,1.52,9.1.29,18.05,1.92,27.12,2.31Z"/>
  <path class="cls-28" d="M462.56,809.64c5.76,1.09,11.52,2.17,17.28,3.26,2.22,2.51,4.43,5.02,6.65,7.53.54,3.25,4.97,4.35,4.51,8.14-5.16,2.42-10.71,2.37-16.2,2.39-28.06.09-56.11,0-84.17.06-7.07.01-14.06-2.01-21.16-.78-2.73-3.11-2.23-6.15.19-9.14,3.11-3.85,6.23-7.7,9.34-11.55,3.28-1.92,6.89-2.89,10.6-2.32,22.47,3.48,45.07.81,67.59,1.66,1.81.07,3.7-.37,5.37.75Z"/>
  <path class="cls-19" d="M419.99,71.16c-7.36,1.3-9.43-3.55-10.76-9.25-.6-.63-1.21-1.26-1.81-1.89,3.37-3.18,7.38-2.02,11.22-1.5,11,1.49,22.05.6,33.08.69,2.07.02,4.18-.24,5.54-2.1-.56-2.46-2.39-1.85-3.83-1.82-23.8.44-47.17-2.34-69.84-9.73-3.32-1.08-6.61-.83-9.85-1.53-.5-6.44,2.92-8.75,8.93-8.98,20.54-.81,40.68,1.77,60.58,6.66,4.3,1.06,8.57,2.21,12.84,3.33,5.78,1.52,7.48,5.11,7.06,11.07-.44,6.18-4.13,6.88-8.8,7.68-8.68,1.48-17.27.23-25.8-.8-6.84-.82-10.09.84-8.55,8.17Z"/>
  <path class="cls-3" d="M440.74,119.75c2.96,4.96,4.86,10.14,9.29,14.72,4.56,4.72-1.3,10.34-6.08,13.99-1.11-7.75-1.15-7.19-9.48-7.72-20.93-1.32-41.84-3.38-61.88-10-4.32-1.43-11.29-2.05-8.88-10.06,2.39-3.15,5.93-2.89,9.29-2.97,6-.16,12-.05,18-.06,3.01,0,5.86-.17,6.58-3.94,4.19-2.11,6.32-.53,6.8,3.86.19,1.8-.31,3.65.2,5.41.46,1.62,1.54,2.78,3.36,2.57,1.55-.18,1.82-1.53,2.13-2.83.67-2.83-.61-6.49,3.34-7.95,5.23,8.99,14.93,8.19,23.19,10.29,4.04,1.03,1.52-4.45,4.15-5.31Z"/>
  <path class="cls-29" d="M364.76,121.25c-1.24,2.82-.05,3.81,2.64,5.11,11.2,5.39,23.31,7.62,35.32,8.91,13.3,1.43,26.58,5.44,40.23,2.16,3.79-.91,4.07,2.05,3.92,4.95-.14,2.48-3.59,3.29-2.93,6.09,0,3.96-.12,7.89-3.1,11.01-.58-1.58-.16-3.05.46-4.53,2.16-5.22.25-6.86-5.21-6.91-21.4-.21-42.47-2.97-63.13-8.82-4.13-1.17-7.77-2.86-11.24-5.18-1.4-3.42-.51-7.14-1.38-10.64.15-.82.5-1.55,1.03-2.2,1.14-.7,2.28-.78,3.41.05Z"/>
  <path class="cls-1" d="M373.72,44.03c2.1-1.66,3.14-3.36,7.17-1.84,16.36,6.2,33.52,9.28,51.08,9.97,8.26.32,16.43,2.89,24.78.11,2.67-.89,4.42.79,4.39,3.86-.04,3.03-1.16,5.27-4.43,5.3-12.55.08-25.13.92-37.62-.64-3.91-.49-7.76-.82-11.67-.77-6.44-.96-12.83-2.13-18.92-4.55-4.22-1.86-8.9-2.48-12.99-4.71-2.46-1.75-4.31-3.66-1.78-6.73Z"/>
  <path class="cls-12" d="M486.33,812.79c7.01,1.01,10.37-1.57,9.42-9.03-.39-3.07-.33-6.29.12-9.35.98-6.69-.67-11.52-7.92-13.13,6.5-.8,11.76,3.51,17.91,4.33,3.66.49,6.56,1.12,9.72-2.11,4.34-4.44,10.1-5.92,16.53-5.5,7.3.47,14.65.13,21.98.11,3.5,0,6.33.73,6.3,5.06-2.56-2.44-5.44-3.73-9.15-3.62-7.59.23-15.21-.12-22.79.19-8.53.35-13.17,5.27-13.38,13.75-.11,4.53-.66,8.74-3.76,12.45-6.44,7.7-6.31,9.19.45,16.25-6.12-.91-8.6-8.82-15.88-7.94-3.09.37-6.75,1.41-9.54-1.45Z"/>
  <path class="cls-2" d="M386.8,980.03c-2.72-1.97-5.84-1.7-8.93-1.56-5.9.27-11.3-.97-15.5-5.44-2.4-2.56-5.37-2.75-8.54-2.43,3.26-6.42-1.69-12.84-.03-19.26,1.31,6.39,5.1,8.85,11.63,7.98,5.65-.75,12.63,2.21,16.79-1.25,4.09-3.4.96-10.39,1.7-15.73.17-1.22.89-2.36,1.35-3.54.79,13.73-1.51,27.58,1.52,41.23Z"/>
  <path class="cls-9" d="M484.69,288.82c-4.05-1.71-6.75-4.96-9.43-8.24.91-.43,1.85-1.31,2.71-1.23,13.36,1.2,13.99,1.25,14.35-11.86.15-5.44,4.98-12.48-2.87-16.81,5.29,1.54,10.79,2.6,15.79,4.81,3.26,1.44,4.63-.11,6.5-1.74-.05,8.44,1.27,17.02-6.51,23.66-3.37,2.87-.88,7.29.24,10.95-5.75-10.33-15.22-6.03-23.75-5.98-1.04,3.08,3.15,3.8,2.97,6.43Z"/>
  <path class="cls-5" d="M440.74,119.75c-1.26,2.91.83,5.48,1.16,8.86-8.56-1.95-16.71-3.71-24.82-5.69-4.36-1.06-2.56-5.06-3.35-7.81-.76-1.85.69-2.31,1.85-2.97,5.18-.41,7.97-3.01,8.5-8.36.36-3.67,2.1-6.55,6.66-5.84,4.1,6.92,8.58,13.67,10.01,21.81Z"/>
  <path class="cls-16" d="M20.82,276.9c29.06.11,58.11.17,87.17.38,2.98.02,6.35-1.24,8.86,1.64-3.23,3.15-7.36,2.35-11.21,2.36-22.07.09-44.19.87-66.2-.26-13.72-.7-24.04,3.17-31.97,14.02-3.86,10.92-2.47,13.09,8.41,13.26,3.58.06,7.25-.44,10.65,1.28.79.52,1.08,1.24.88,2.16-.22.24-.44.49-.65.74-6.52-.07-13.04-.27-19.55-.16-4,.07-5.09-1.62-5.67-5.51-2.33-15.78,9.41-22.17,19.28-29.92Z"/>
  <path class="cls-27" d="M216.66,663.08c-5.75.49-9.7-1.85-13.2-6.58-5.56-7.51-10.93-15.09-15.45-23.26-.08-.5-.11-1-.09-1.5-.47-2.71-.94-5.41-1.4-8.12,4.8-.27,4.79,4.21,6.72,6.77.41.55.77,1.14,1.11,1.73,1.93,3.34,4.91,5.74,7.61,8.4,5.78,6.95,13.28,12.78,14.71,22.55Z"/>
  <path class="cls-19" d="M375.5,50.76c4.61.8,9.23,1.57,12.99,4.71-4.79-.31-9.37-1.19-12.99-4.71Z"/>
  <path class="cls-31" d="M340.29,151.81c-.61-2.49-2-4.16-4.69-4.53-11.08-1.54-21.81-5.27-33.29-4.32-25.76,2.15-51.11-2.03-76.49-5.51-7.44-1.44-12.04-6.22-16.22-12.29-4.73-6.86-10.48-13.03-15.92-19.38-7.97-9.29-13.22-19.77-14.49-32.24,5.61,9.7,9.94,20.48,20.88,25.45,11.96,5.43,21.73.12,30.85-7.24,4.69-2.73,5.39-9.44,11.13-11.12,7.32-.43,14.74-.28,21.95-1.43,13.6-2.16,25.79,3.04,38.37,6.26,13.48,3.45,27.03,6.25,41.03,6.13,9.54-.08,18.67,1.66,27.37,5.6-1.2,8.78-2.97,17.34-9.13,24.26l.09-.12c-1.31,1.43-1.43,3.71-3.35,4.7-5.5,8.96-13.98,15.84-18.1,25.77Z"/>
  <path class="cls-28" d="M4.85,294.55c4.16-4.32,8.42-8.54,12.43-12.99,2.68-2.97,6.02-2.63,9.41-2.63,30.06,0,60.11,0,90.16,0,5.8,8.34,14.08,4.61,21.51,4.11,4.49-.3,8.94-3.25,11.52,3.58,1.13,2.98,5.08,2.25,7.83,1.21,5.15-1.95,10.96-3.24,15.06-6.57,4.94-4.01,10-3.84,15.46-3.85,39.7-.04,79.4.04,119.09-.28,6.34-.05,9.15,1.4,8.62,8.18-.46,5.98.53,11.94,3.1,17.5.56,2.57,1.12,5.13,1.69,7.7-1.11,4.74-4.98,2.99-7.75,3-36.98.1-73.99,1.18-110.92-.22-56.13-2.12-112.25-.32-168.37-1.19-2.1-.03-4.19-.22-6.28-.34-.2-.37-.33-.76-.4-1.17,2.92-3.01,6.76-2.57,10.37-2.58,87-.06,174-.07,260.99-.02,3.16,0,6.29.39,9.44.61,2.4.17,5.91,1.6,6.35-2.28.37-3.24-1.2-6.17-5-6.96-3.38-.69-6.81-.49-10.22-.49-93.04-.01-186.09.03-279.13-.1-5.2,0-11.31,1.86-14.96-4.2Z"/>
  <path class="cls-32" d="M361.65,121.46c3.54-7.9,4.59-16.74,9.14-24.26,8.04,2.48,10.8,11.31,17.93,14.89,2.79,1.95,6.46-.74,9.15,1.72,1.27,1.13,3.7,1.4,3.1,3.93-.71,2.96-3.13,2.17-5.12,2.15-7.87-.06-15.75-.23-23.62-.23-2.56,0-5.32-.54-7.46,1.59-1.04.07-2.08.14-3.11.21Z"/>
  <path class="cls-25" d="M397.87,113.81c-3.1-.32-6.42.56-9.15-1.72,8.95.14,17.91-1.75,26.86.06-.62.99-1.23,1.98-1.85,2.97-2.26,2.1-1.08,4.87-1.47,7.34-.42,2.61,1.71,7.32-3.94,6.17-3.83-.78-8.76-1.34-6.21-7.92,1.3-3.35,2.25-7.73-4.24-6.89Z"/>
  <path class="cls-6" d="M155.31,55.95c7.66,3.24,15.02,20.58,12.07,27.06-.64,1.41-1.57,2.04-3.01,1.69-2.09-.51-3.01-2.14-2.93-4.08.17-4.47-1.18-8.74-1.53-13.09-.34-4.27-3.38-7.3-4.6-11.58Z"/>
  <path class="cls-20" d="M242.06,80.63c-3.22,4.2-5.83,9.01-11.13,11.12.06-2.08,3.52-3.39,2-5.42-1.71-2.28-4.18-.65-6.35.15-1.81.67-3.44,2.62-6.02.92,5.36-8.33,13.66-6.86,21.51-6.78Z"/>
  <path class="cls-30" d="M315.91,271.22c-2.19-7.43-2.19-14.86,0-22.29,0,7.43,0,14.86,0,22.29Z"/>
  <path class="cls-31" d="M274.98,674.97c-14.85-1.79-29.71-3.58-44.56-5.37-4.55-2.26-9.7-3.23-13.76-6.52-4.01-8.3-10.69-14.66-16-22.01-2.18-3.53-5.66-5.97-7.97-9.39v.02c-.97-1.88-1.03-3.29,1.7-3.25,9.39,10.51,32.36,10.41,42.67-.18,2.09-6.27,6.07-9.13,13.02-8.55,5.69.47,11.52.64,17.24-.26,2.71-.43,4.6.36,5.76,2.84,2.1,14.82,4.16,29.65,6.34,44.46.58,3.97,1.76,8.01-4.43,8.22Z"/>
  <path class="cls-28" d="M251.11,689.91c8.59-3,11.26-1.65,12.87,6.8.77,4.06,1.17,8.19,1.73,12.29.58,5.63-4.08,13.34,6.4,15.05,1.61.26,1.58,4.04-.18,4.44-10.53,2.42-5.46,10.48-6.3,16.37-.59,4.06-.92,8.18-1.83,12.18-1.7,7.5-5.15,8.86-12.8,5.42,2.72-2.82,3.5-6.03,2.87-9.96-2.86-17.85-2.56-35.74.01-53.6.52-3.61.39-6.68-2.79-8.99Z"/>
  <path class="cls-4" d="M273.07,622.28c-9.3-3.77-18.92-1.67-28.36-1.17-3.54.19-3.6,6.26-7.66,7.14-2.66-5.45-7.08-2.51-10.92-2.26-5.04.33-13.13,4.9-14.27,1.21-1.56-5.08,7.64-3.23,11-6.63,2.3-2.32,5.12-2.17,8.53-1.94,10.43.7,20.95.1,31.42.42,7.01.22,4.98-7.18,8.78-9.53,1.13-.82,2.24-.97,3.33.06-1.08,4.16-3.87,8.08-1.85,12.69Z"/>
  <path class="cls-11" d="M311.16,721.11c4.96.68,5.71-2.08,6.54-6.36,1.51-7.79-.81-16.3,4.28-23.4,3.38,6.56,1.2,13.46.29,19.92-1.42,10.01-1.7,19.7.1,29.67.99,5.49,2.08,11.48-1.73,16.7-3-6.15-1.6-12.99-3.04-19.41-.6-2.7.18-5.81-3.36-7.03-7.55-1.39-4.79-5.9-3.07-10.1Z"/>
  <path class="cls-31" d="M194.39,628.44c-1.3.7-1.49,1.98-1.69,3.25-2.06-2.69-4.12-5.38-6.18-8.07-4.02-8.56-7.99-17.12-6.64-27,1.95-.7,2.52.77,3.22,2.04.4,8.73,4.72,16.03,8.54,23.53,1.03,2.02,2.89,3.71,2.76,6.25Z"/>
  <path class="cls-26" d="M158.16,585.98c5.4,2,7.68,4.72,7.85,9.48.12,3.33,1.49,6.66,1.32,9.93-.15,2.89,2.54,8.11-2.46,8.28-5.31.18-1.46-4.8-2.13-7.35-1.67-6.41-2.95-12.91-4.59-20.34Z"/>
  <path class="cls-31" d="M183.09,598.66c-1.07-.68-2.14-1.36-3.22-2.04.17-3.12.34-6.24.51-9.36,3.69,3.52,2.76,7.53,2.71,11.4Z"/>
  <path class="cls-15" d="M274.92,609.59c-1.11-.02-2.22-.04-3.33-.06,1.69-2.64,2.4-6.21,6.82-7.16.36,3.54-.77,5.74-3.49,7.23Z"/>
  <path class="cls-28" d="M323.33,689.68c9.68-2.64,12-1.28,13.28,7.9.28,1.97-.48,4.43,2.69,4.7-1.46,4.58-.13,9.13.03,13.7.41,11.96.46,23.91-2.19,35.7-.85,3.8-1.68,7.77,2.33,10.57-3,.61-5.99,1.69-9,1.71-2.89.02-7.12,2.16-8.07-3.18,3.86-1.28,4.95-3.63,4.22-7.78-3.13-17.87-3.23-35.83.05-53.67.79-4.29-.69-6.98-3.36-9.66Z"/>
  <path class="cls-13" d="M462.56,809.64c-27.85-.03-55.71-.06-83.56-.09,5.72-6.99,11.14-14.26,17.27-20.87,4.28-4.61,2.29-5.17-2.32-6.49-2.83-.81-6.46.41-8.56-2.69.26-.04.52-.06.78-.11,5.29-1.12,11.09,4.44,15.13,1.17,5.16-4.18,6.68-11.58,9.51-17.72.32-.69.77-1.33,1.17-1.98,5.27,3.28,4.18,6.48,1.12,11.21-4.94,7.67-11.19,14.49-14.95,22.94-4.54,10.17-2.72,13.13,8.21,13.11,16.27-.03,32.53-.04,48.8.05,2.51.01,5.32-.89,7.39,1.49Z"/>
  <path class="cls-18" d="M339.47,373.73c.55.5,1.1.99,1.64,1.49.91,5.03-1.5,6.33-6.18,6.22-10.25-.25-20.5-.07-30.75-.07-83.59,0-167.19,0-250.78,0-2.1,0-4.21,0-6.31-.03-2.83-.05-5.55-.59-5.39-4.16.14-3.09,2.68-3.48,5.19-3.52.79-.01,1.58-.01,2.37-.01,96.74.03,193.47.05,290.21.08Z"/>
  <path class="cls-21" d="M8.45,827.12c14.04,2.69,28.24,1.44,42.36,1.31,28.33-.26,56.72-.8,85-.43,56.2.74,112.38-.1,168.57.54,2.1.02,4.5.65,6.25-.14,7.03-3.16,9.74.78,11.65,6.45.99,1.66,1.97,3.31,2.96,4.97-.12.51-.1,1.01.04,1.52-.73,3.82-3.78,2.96-6.26,2.96-88.23-.05-176.46.09-264.68-.43-12.79-.08-25.66-1.39-38.48-1.02-6.25.18-8.73-1.66-7.83-7.89.37-2.58.3-5.22.42-7.83Z"/>
  <path class="cls-8" d="M345.76,905.99c1.17,5.85-1.1,7.69-7.13,7.68-94.68-.17-189.36-.12-284.05-.13-1.83,0-3.71.02-5.48-.37-2.03-.44-2.92-2.05-2.9-4.12.02-2.36,1.43-3.19,3.55-3.23,1.05-.02,2.1-.04,3.16-.04,97.57.03,195.15.05,292.72.08,0,0,.13.13.13.13Z"/>
  <path class="cls-7" d="M470.58,278.88c-32.02-2.2-64.08-1.32-96.13-1.4,5.88-7.22,11.62-14.55,17.68-21.6,3.3-3.84,2.6-5.2-2.27-5.21-2.95,0-5.65-.79-7.59-3.24q15.32,2.04,22.13-12.65c.97-2.09,1.94-4.17,2.9-6.26,7.26,3.6,3.33,7.37.77,11.98-4.33,7.81-11.06,13.94-14.63,22.24-4.37,10.13-2.57,13.04,8.36,13.15,21.24.21,42.51-1.11,63.69,1.52,1.8.22,3.72-.17,5.09,1.48Z"/>
  <path class="cls-7" d="M380.88,247.3c-5.8.09-11.34-.68-15.97-4.62,5.61.56,10.9,2.2,15.97,4.62Z"/>
  <path class="cls-32" d="M358.39,126.04c.21-2.21,1.46-3.69,3.35-4.7-.01,4.23-.02,8.46-.03,12.69-3.02-1.87-.1-6.21-3.32-8Z"/>
  <path class="cls-10" d="M364.72,297.95c2.58-1.56,5.41-1.69,8.34-1.68,38.27.06,76.55.07,114.82.09.43,15.32.32,14.28-14.64,15.93-29.61,3.27-59.09-1.26-88.63-.17-4.41.16-9.36,2.74-13.37-1.5-2.74-3.93-5.65-7.78-6.52-12.67Z"/>
  <path class="cls-10" d="M369.47,830.24c.73-4.32,4.26-3.6,6.8-3.12,15.07,2.82,30.24,1.09,45.36,1.35,18.57.32,37.16-.16,55.74.24,4.57.1,9.11-3.39,13.65-.14-.02,4.7-.04,9.4-.06,14.11-10.05,1.14-20.19,2.03-30.24,2.21-27.77.5-55.55.42-83.32-.51-3.46-4.26-5.63-9.23-7.91-14.14Z"/>
  <path class="cls-28" d="M377.38,844.38c5.87-3.27,12.24-1.78,18.27-1.33,25.25,1.87,50.46,2.04,75.7-.08,6.49-.55,13.06-.22,19.59-.29-9.47,2.97-19.41,2.62-29.04,2.9-27.67.81-55.38.39-83.08.46-.48-.55-.97-1.1-1.45-1.66Z"/>
  <path class="cls-17" d="M323.33,689.68c5.95-.17,7.39,2.14,6.1,8.17-4.08,18.97-3.98,38.09.04,57.12.49,2.31,1.44,4.9-.54,6.61-2.06,1.77-4.44.41-6.52-.78-.52-.59-1.04-1.17-1.56-1.76.02-.48-.06-.94-.23-1.4-.02-9.88-1.63-19.64-2.31-29.41-.74-10.65,1.96-21.54,3.16-32.32.17-1.52.33-3.04.5-4.56.45-.56.9-1.12,1.35-1.67Z"/>
  <path class="cls-18" d="M415.3,381.36c-8.11,0-16.22.04-24.34-.02-2.24-.02-5.09.6-5.38-2.89-.27-3.32,1.73-4.75,4.81-4.76,17.27-.03,34.54-.03,51.81,0,2.29,0,4.27.86,4.38,3.48.13,3.02-1.98,4.11-4.6,4.13-8.9.07-17.79.03-26.69.03v.03Z"/>
  <path class="cls-23" d="M390.26,905.86c18.14-.02,36.28-.11,54.42.03,2.1.02,6.08-1.95,5.98,2.49-.08,3.86-3.54,3.79-6.55,3.79-16.82,0-33.65-.15-50.47.21-6.42.14-2.6-4.17-3.51-6.41,0,0,.13-.11.13-.11Z"/>
  <path class="cls-21" d="M4.85,294.55c3.29,2.25,7.05,1.74,10.7,1.74,97.06,0,194.12,0,291.17,0,6.65,0,12.68,6.55,12.05,13.01-.31,3.19-2.77,2.78-4.72,2.64-4.16-.31-8.3-1.37-12.44-1.37-91.53-.06-183.07-.02-274.6,0-3.87,0-7.74,0-11.61-.02-13.11-.03-14.97-2.86-10.55-16.01Z"/>
  <path class="cls-31" d="M192.69,631.67c3.54,2.38,7.09,4.76,7.97,9.39-3.4-2.51-6.86-4.96-7.97-9.39Z"/>
  <path class="cls-22" d="M251.11,689.91c2.27.17,4.55.34,6.6.49-4.53,22.06-4.97,43.75-.95,65.36,1.12,6.03-.99,6.89-5.75,6.7-4.2-2.75-3.59-7.51-3.94-11.33-1.66-18.14-2.25-36.33.79-54.44.44-2.59.77-5.18,3.24-6.78Z"/>
</svg>