<?xml version="1.0" encoding="UTF-8"?>
<svg id="Layer_1" data-name="Layer 1" xmlns="http://www.w3.org/2000/svg" viewBox="0 0 1080 1080">
  <defs>
    <style>
      .cls-1 {
        fill: #3b3b3b;
      }

      .cls-2 {
        fill: #f3dfcb;
      }

      .cls-3 {
        fill: #fbcba7;
      }

      .cls-4 {
        fill: #ac9889;
      }

      .cls-5 {
        fill: #d4a47f;
      }

      .cls-6 {
        fill: #fefefe;
      }

      .cls-7 {
        fill: #a09894;
      }

      .cls-8 {
        fill: #eee;
      }

      .cls-9 {
        fill: #565553;
      }

      .cls-10 {
        fill: #515151;
      }

      .cls-11 {
        fill: #fdcca7;
      }

      .cls-12 {
        fill: #959796;
      }

      .cls-13 {
        fill: #3c3c3b;
      }

      .cls-14 {
        fill: #3b3b3a;
      }

      .cls-15 {
        fill: #555;
      }

      .cls-16 {
        fill: #d7a882;
      }

      .cls-17 {
        fill: #3c3b3a;
      }

      .cls-18 {
        fill: #eaba96;
      }

      .cls-19 {
        fill: #292928;
      }

      .cls-20 {
        fill: #565656;
      }

      .cls-21 {
        fill: #fccca7;
      }

      .cls-22 {
        fill: #585755;
      }

      .cls-23 {
        fill: #d4a583;
      }

      .cls-24 {
        fill: #daa882;
      }

      .cls-25 {
        fill: #525252;
      }

      .cls-26 {
        fill: #545655;
      }

      .cls-27 {
        fill: #99938c;
      }

      .cls-28 {
        fill: #d84140;
      }

      .cls-29 {
        fill: #fcfcfc;
      }

      .cls-30 {
        fill: #292828;
      }

      .cls-31 {
        fill: #595a59;
      }

      .cls-32 {
        fill: #cc9f7e;
      }

      .cls-33 {
        fill: #d9a782;
      }

      .cls-34 {
        fill: #dead87;
      }

      .cls-35 {
        fill: #8b8b8c;
      }

      .cls-36 {
        fill: #191918;
      }

      .cls-37 {
        fill: #d8a37c;
      }

      .cls-38 {
        fill: #535353;
      }
    </style>
  </defs>
  <g>
    <path class="cls-1" d="M916.81,352.44c1.91-2.62,3.5-5.56,4.78-8.8,1.99-1.41,16.55-4.43,18.88-3.79,6.45,1.77,8.93,4.45,11.43,9.78,7.44,15.91,6.14,19.22-11.48,21.91-2.41.3-3.51,1.35-3.31,3.17,4.53,10.58,3.18,15.94-4.04,16.08-2.48-.79-9.2-5.26-10.51-7.5-1.74-2.97-.57-4.97-1.1-6.45-2.32-6.4-3.52-9.28-4.65-16.28-.69-4.31-1.41-3.03,0-8.14Z"/>
    <path class="cls-13" d="M590.41,388.48c-6.81,3.67-8.48-1.48-5.01-15.44-5.11-2.41-10.51-4.13-16.19-5.17-6.12-1.74-.07-17.43,2.5-21.01,2.4-3.35,13.93-11.29,15.99-4.91,2.98-.71,7.11-1.41,8.72,1.63,4.52-1.51,6.78,1.44,6.77,8.85,3.01-2.31,3.49,11.52,3.22,13.51-1.98,6.32-4.6,12.29-7.86,17.88-2.48,2.34-4.9,2.92-8.13,4.65Z"/>
    <path class="cls-26" d="M603.19,345.47c1.24,3.12,1.24,5.44,0,6.98-2.16-1.19-.21-7.66-2.93-8.15-1.26-.22-4.97,3.73-6.36,2.33-.35-.35.34-3.13,0-3.49-.65-.66-5.32,1.62-7.44,1.1-1.99-.49-.96-3.04-1.28-3.42-2.22-2.7-9.89,4.09-11.47,7.1-1.15,2.19-6.2,15.89-5.27,17.22,4.04,1.76,17.38,3.33,19.14,7.1,1.11,2.38-1.66,11.17-1.82,14.52s2.84,1.31,4.66,1.74c-1.34.71-2.64,3.74-6.17,3.15-11.3-5.33-22.77-1.12-22.97-17.69-.07-5.69,4.26-24.04,8.19-27.95.55-.54,11.82-7.03,12.53-7.22,2.93-.79,12.5,1.26,15.66,2.35,2,.69,4.45,2.49,5.54,4.34Z"/>
    <path class="cls-31" d="M933.07,390.81c10.62-2.5-2.05-14.9,2.89-19.72,3.18-3.1,16.58-2.8,17.9-6.6.96-2.79-2.95-10.94-4.18-14.19-.54-1.43,0-3.37-.63-4.56-.51-.95-10.36-6.53-11.82-6.06s-1.35,3.16-2.65,3.49c-3.43.85-8.93-1.33-12.47,1.21s.13,7.78-5.31,8.06c.52-1.89,2.91-8.39,3.98-9.38.81-.75,13.54-4.52,15.19-4.65,5.44-.42,16.15,5.73,18.86,10.26,3.78,6.31,6.16,19.12,6.19,26.44,0,2.02-.88,7.04-1.91,8.65-2.29,3.56-21.67,8.45-26.06,7.06Z"/>
    <path class="cls-7" d="M606.67,364.07c.36,1.14,3.35,1.55,3.44,3.95.05,1.28-.91,6.11-1.15,8.28-.39,3.41.94,3.1-3.45,2.88-1.28-1.41-.75-3.02-3.47-2.32-.35,3.42-1.18,4.78-3.5,6.97,1.32-8.21,8.46-21.17,6.48-29.16-.27-1.08-1.76-1.95-1.83-2.23-.45-1.87.31-4.88,0-6.98,1.03,1.73,3,7.84,3.42,9.94.52,2.62-.54,6.72.07,8.66Z"/>
    <path class="cls-6" d="M247.75,502.42c-3.41,6.38-7.79,13.12-10.45,19.76-2.29,11.01-4.23,22.08-5.81,33.23l-1.16.48c-3.94-1.95-16.31-7.68-20.09-6.78-2.75.65-12.72,10.9-14.76,13.76-3.86.51-1.93-1.39-1.76-3.5,2.02-25.47,19.15-45.09,30.09-67.55,11.58-23.77,13.54-49.92,19.29-75.44,3.07,19.32,4.99,40.1,5.86,59.83.37,8.41.45,18.06-1.21,26.21Z"/>
    <path class="cls-29" d="M387.14,445.45c2.87,44.1,37,73.29,44.55,116.44.38,2.2,2.19,3.77-1.57,3.3-3.84-5.88-6.42-9.47-12.78-12.79-6.85-3.57-8.43-1.65-15.64,1.15-2.35-.5-3.56-12.39-4.11-15.1-1.02-5-1.68-10.13-2.9-15.12-2.15-8.8-8.73-22.45-9.78-29.74-1.56-10.78.89-29.71,1.04-41.77.02-1.97-.74-5.17,1.18-6.38Z"/>
    <g>
      <path class="cls-30" d="M791.36,198.98c-4.22,2.66.05,10.46-5.8,10.46.67-4.57-2.63-8.24-3.42-12.27-1.54-7.83,1.59-17.67-8.17-20.89-10.95-3.62-15.56-.56-25.1.52-4.28.48-22.56-.77-22.56,6.49v27.9c0,.24-1.95,2.11-2.31,1.74.52-3.36-2.27-4.9-3.5-6.97-3.22-5.46-3.2-23.98-2.35-30.84.6-4.88,7.48-18.43,11.74-20.81,3.03-1.7,20.25-6.41,23.79-6.52,12.47-.39,36.09,11.54,37.71,25,.89,7.39.04,18.35-.03,26.18Z"/>
      <path class="cls-28" d="M689.15,867.47q2.05,2.54,0,0c5.73-3.79,23.16-4.6,26.13,3.49.53,5.64,3.6,12.74,4.16,17.93,1.19,11.11,1.41,43.99-.03,54.78-.14,1.02-.15,1.89-.63,2.86-1.27,2.58-17.27,4.45-20.93,4.63-5.4.26-21.89-.64-26.45-2.56-3.2-1.35-3.48-10.99-3.26-14.27.86-13.05,10.21-30.72,13.72-44.5,1.94-7.63.35-17.77,7.28-22.36Z"/>
      <path class="cls-22" d="M678.69,366.39l6.41.97c1.51-2.12,3.58-1.28,4.04,1.36.77,0,1.55,0,2.32,0-.55,4.53,4.66,12.54,4.7,16.84.02,1.66-6.26,25.07-7.03,26.18-.17.25-.88.95-1.16,1.16-1.27.99-7.45,3.27-9.29,3.49-1.48-2.54.49-4.75,5.91-6.63,5.77-10.49,9.38-24,4.11-35.61-4.91,5.97-12.17,6.29-21.76.97-1.99,2.2-10.11,18.65-7.7,20.36l13.95,2.54c5.53,2.8,6.98,8.42,4.35,16.87l1.15,1.49c-.15.25.12.78,0,1.16-2.66,3.76-6.94,3.37-12.84-1.16l-11.55-3.49c-3.18-3.43-6.5-28.07-4.49-30.14.37-.38,2.53.43,3.44-.78,2.13-2.85.53-7.4,5.28-10.77,6.4-4.52,12.65-6.23,20.16-4.81Z"/>
      <g>
        <path class="cls-36" d="M696.12,501.25l1.41-2.27c42.26,2.84,84.02,2.34,127.48-4.71,4.67-3.29,7.01-2.51,7.01,2.33,9.59,15.36,18.96,74.63,21.95,94.87,4.5,30.5,5.13,61.2,10.48,91.58-.54,1.8-9.08,4.18-11.52,5.38-3.36.85-5.97,2.42-7.8,4.69-13.85,3.56-28.15,4.71-42.41,4.65-1.13-1.46-2.57-2.28-4.38-2.36-4.47-.07-17.23,1.47-19.15-2.35l-13.39-54.62c-6.48,6.94-3.9,18.67-4.65,27.31-.76,8.83-1.95,17.7-2.5,26.56-2.18,3.83-6.64,2.9-10.27,3.09-11.99,1.73-22.93,2.69-35.14,2.16-13.4-.58-25.48-2.5-38.03-6.81-2.24-.87-6.12-1.06-6.82-3.05-.15-4.19-.38-8.49-.19-12.69,1.85-41.27,8.98-81.32,12.81-122.04.97-10.32-.22-20.35,3-30.72,1.81-5.85,11.09-16.67,12.12-21.01Z"/>
        <path class="cls-28" d="M691.47,368.72l-.84-.64c16.67-24.4,24.66-52.29,20.63-82.33.77-2.67,6.82-6.57,9.24-5.38.5.12.92.27,1.02.54.41,1.05.18,20.16.06,22.53-.01.27-.48.52-1.08.76l1.15.08c4.91,41.63,62.45,45.61,69.66,3.37l1.2-.54c1.8-6.31,2.34-13.02,1.62-20.15-.28-6.33,1.91-9.12,7.21-4.27-.6,15.75.82,31.33,4.24,46.75,7.25,13.66,16.74,25.58,28.47,35.76,1.52,1.78,1.53,2.96-.89,3.52-1.74,3.47-3.68,6.96-5.81,10.46-2.27,2.76-1.82,6.03-1.16,9.3l1.3-.29c1.92,8.51,4.58,16.75,7.99,24.7,2.3,1.95,1.73,6.96-1.16,8.14-.24,11.14-1.95,22.06-2.37,33.09-.53,14.11.49,28.37.05,42.48-.35-.56-1.28-2.41-1.85-2.39-1.71.54-2.76,1.97-4.62,2.31-31.48,5.75-66.87,8.37-98.66,5.9l-30.77-1.17c1.53-6.48.39-34.08-.01-42.42-.68-14.09-4.06-29.2-4.63-43.08-.09-2.24,1.18-4.66-2.33-4.01l-.92-.78c4.19-10.58,10.27-28.84,2.92-39.04-2.86-.62-2.18-1.8.33-3.2Z"/>
        <path class="cls-28" d="M797.17,279.2c1.92.83,3.89,1.5,5.81,2.33-1,26.85-.77,48.42,18.59,68.59,2.67,4,6.25,7.41,10.28,9.99,1.69-1.86,6.9,6.69,7.11,7.29.1.28-.43.77-1.13,1.32-.39,1-.78,1-1.16,0-1.72.99-2.88.99-3.48,0,.65-3.18-1.05-3.37-2.62-4.93-5.31-5.3-12.23-11.61-16.47-17.23-1.93-2.56-5.02-11.66-7.09-13.86-1.4-1.49-3.73-.97-3.98-1.22-.4-.4,1.3-6.23,1.08-8.53-.54-5.83-3.93-15.14-4.64-21.03-.56-4.61,3.69-22.46-2.86-20.37-3.29,1.05-1.18,17.29-1.82,21.45-.4,2.62-2.19,3.84-2.26,4.12,2.03-8.23.51-16.73,1.16-25.05.28-3.57-.57-2.99,3.49-2.85Z"/>
        <path class="cls-28" d="M836.66,368.72c1.35,2.98-.51,4.82-3.48,3.49l.93,2.71c-4.38,11.14-3.12,23.04,3.79,35.7l-1.24,2.27h-1.16c-5.71-4.73-5.52-14.87-7.27-21.25-.37-1.34-1.66-2.23-2.02-3.16-.69-3.15-1.14-6.72,1.16-9.3.96-4.63,1.08-8.88,5.81-10.46,2.52-.84,3.21.06,3.48,0Z"/>
        <path class="cls-28" d="M826.21,388.48c-1.15-3-2.96-7.3,1.16-9.3-.63,3.03-1.29,6.17-1.16,9.3Z"/>
      </g>
      <path class="cls-17" d="M833.18,372.21c2.43.13,5.17.63,8.22,1.48l14.66-2.81c4.6-2.03,12.95,20.45,12.97,22.33.06,5.42-5.08,6.65-9.58,7.61-9.18-.29-12.86,2.28-11.02,7.71,3,10.44-1.61,9.67-9.45,5.53-1.18-.41-1.15-.11-2.32-1.16-2.29-2.05-8.1-22.56-8.16-26.21-.09-5.32,1.63-10.47,4.68-14.48Z"/>
      <path class="cls-9" d="M869.19,411.73c-1.31,1.08-7.21,2.9-9.29,3.49l-8.78,4.31c-3.18.95-5.65.77-7.48-1.99-1.3-1.49-3.41-1.92-4.65-3.49,2.19.76,6.73,1.31,9.29,2.31-2.28-1.62-2.87-13.7-1.82-15.18,1.53-2.16,20.57-1.57,20.41-7.45-1.75-2.4-7.19-19.24-8.06-19.85-4.84-3.42-19.48,7.62-25.63-1.67,1.02-1.34,2.18-2.44,3.48-3.49.37-.08.79.07,1.16,0,4.85-.89,9.43-3.08,14.45-2.27,2.26.36,12.13,5.76,13.3,7.63,1.38,2.2,5.64,13.44,5.94,16.15.86,7.83-1.05,14.04-2.33,21.51Z"/>
      <g>
        <path class="cls-21" d="M710.05,285.01c3.18,8.85,2.28,20.08,1.28,29.69-1.71,16.48-7.01,35.68-18.71,47.04-1.53,1.42-3.45,1.03-5.76-1.18,2.51,6.32-.21,8.27-8.17,5.83l-2.37,1.99c-12.46-.98-18.59,4.81-22.15,15.78l-2.61.99c.01,8.55,1.18,17.21,3.96,25.32l-1.22,2.43c10,1.27,17.21,5.51,21.64,12.74-.63-4.58.29-7.28,2.76-8.09-1.01-.37-1-.76,0-1.16,3.25-2.25,6.34-3.41,9.29-3.49-.67,5.78-1.29,14.43-2.86,19.81-1.37,4.7-15.18,25.08-19.82,25.55s-15.83-5.07-19.11-8.76c-14.36-16.19-12.52-20.89-15.23-40.56-1.81-13.11-18.15-9.7-22.54-16.97-1.62-2.69.05-7.65-.61-10.77-.24-1.15-1.72-1.37-2.3-2.01,2.68-5.74,2.92-9.84.72-12.32l.45-2.79c3.27.44,3.24-3.72,5.42-4.48,4.63-1.62,12.29,3.91,17.18,5.7,4.89,1.79,10.82,2.62,15.65,5.26l7.05,8.64c4.51-24.74-8.65-51.67,12.76-71.53,14.11-13.09,31.16-14.36,45.33-22.64Z"/>
        <path class="cls-11" d="M852.93,688.43c-1.02.5-6.95,3.66-6.95,4.07,0,.21,1.96,1.59,2.27,3.52,2.38,14.7,6.81,33.75,8.02,47.77,2.64,30.72-3.26,61.2-7.06,91.47-1.4,4.91-13.52,3.03-17.76,3.14-4.89.13-8.97,2.5-14.48-.64-2.87-1.64-3.12-13.37-4.11-17.98-5.19-24.19-13.92-44.62-12.25-70.37,1.27-19.64,7.92-30.44,1.26-51.12-.86-2.66-1.7-1.5-3.54-2.9,19.14.29,36.29-1,54.59-6.98Z"/>
        <path class="cls-11" d="M748.39,695.41c-3.31,3.04-10.86-.4-13.99,1.7-5.42,3.63-3.95,25.31-3.43,31.43,1.05,12.5,4.06,24.5,3.47,37.2-.74,15.87-6.69,29.3-10.33,44.3-1.51,6.22-2.44,21.5-4.44,25.79-3.29,7.06-24.3.89-31.11,2.58-4.72-.77-2.42-7.06-3.04-10.91-4.33-27.03-9.14-55-6.71-82.56.9-10.18,4.85-21.83,6.57-31.79,1.05-6.05.57-12.99,2.61-18.9-4.89-.62-8.46-1.83-12.79-3.5,24.09,4.17,48.66,5.97,73.18,4.65Z"/>
        <path class="cls-21" d="M815.76,287.34l7.06,3.69c37.64,9.78,55.42,32.1,46.14,71.71.65,4.69.34,8.62-.93,11.79-9.39-6.92-16.84-12.13-29.34-7.06-1.73-.61-3.61-4.5-3.85-6.26-5.45-1.32-9.97-6.6-13.27-11.1-2.21.12-4.05-1.12-5.5-3.73-1.72-1.98-10.06-15.59-10.77-17.52-.87-2.39-2.93-16.97-3.32-20.61-.84-7.78-1.35-17.43-.6-25.21.05-.55.74-1.05,1.61-1.52,4.25,1.83,8.44,4.04,12.78,5.81Z"/>
        <path class="cls-3" d="M916.81,360.58c3.42,1.78,7,13.08,4.65,16.28-9.16.87-6.01,8.03-6.99,13.35-1.14,6.18-17.83,8.25-20.93,12.76-3.93,5.71-1.26,20.07-4.89,28.82-2.16,5.19-13.56,19.63-18.43,22.25-16.82,9.06-21.13-2.17-29.1-14.78l-6.77-18.22c.06-2.78-.46-5.61,1.16-8.14.35-.59.74-.58,1.16,0,1.88-1.91,2.66-1.52,2.32,1.16,2.94.87,4.49,2.03,4.65,3.49,4.78.63,4.27,3.33,3.49,7.31,3.2-5.54,6.58-7.75,12.77-9.64-.31-3.46,6.99-5.81,9.29-3.49,3.59-9.93,5.53-21.83,1.16-31.39,3.67-7.38,6.69-10.21,15.09-13.54l10.47-2.74c3.81-1.45,10.18-5.33,13.35-4.7,3.61.72,2.24,3.78,4.65,5.84l2.9-4.63Z"/>
        <path class="cls-2" d="M815.76,287.34c24.39,9.95,52.96,14.91,55.74,47.1,1.16,13.49-3.73,26.13.03,38.92,4.66-2.11,9-5.95,13.91-7.56,3.14-1.03,7.14-1.45,10.47-1.73-4.32,1.65-17.8,5.72-19.62,8.85-1.81,3.11-.23,8.27-5.94,7.43-1.77.28-3.25-4.23-2.32-5.81-2.04-12.33,3.05-24.58,2.3-36.61-1.3-20.93-14.38-32.74-32.54-40.67-7.38-3.22-16.69-4.22-22.03-9.92Z"/>
        <path class="cls-32" d="M678.69,417.55c-1.05,3.32,1.35,12.67-2.89,11.62-.91-.22-6.11-9.75-9.27-11.66-3.39-2.05-9.72-1.91-12.23-4.62,8.54.26,15.73,6.06,24.39,4.65Z"/>
        <path class="cls-16" d="M692.63,361.74c-1.36,2-2.21,4.84-3.48,6.98-5.83.03-6.94-1.66-10.45-2.33h6.97s-2.31-11.62-2.31-11.62l9.29,6.97Z"/>
        <path class="cls-4" d="M821.56,350.12c1.24,1.3,9.45,9.01,10.11,9.18,3.45.89,3.95-3.66,7.31-3.36-7.31,18.03,6.26,6.97,13.03,8.37,3.17.66,14.1,7.33,16.01,10.22.74,1.12.95,4.19,2.32,5.81.92,1.08,3.18.8,3.52,1.93,1.45,4.88-.96,26.37-4.68,29.46l-1.9-2.53c6.48-19.58-2.52-47.97-27.49-38.52l-1.96-1.96c-3-8.01-13.49-10.36-16.26-18.6Z"/>
        <path class="cls-5" d="M859.9,415.22c-1.7,1.35-3.65,1.86-5.31,3.41-2.09,1.96-9.61,16.2-9.84,7.6-.11-3.95,1.86-5.27-1.11-8.68,5.35.39,11.08-.87,16.26-2.33Z"/>
        <g>
          <path class="cls-21" d="M720.51,205.96c2.26-1.21,4.2.53,5.81,5.23-2.9-4.47-3.37-20.26-2.32-26.21l2.32-1.7c-3.13-2.1-1.39-4.02,1.35-5.79,2.58-1.66,30.02-5.18,34.68-5.2,18.01-.04,22.15,6.44,22.07,24.41l2.47,6.36c.44-2.99,1.09-5.99,4.47-4.09-.05,5.11.95,12.95.65,16.34-.89,9.93-11.01,22.3-11.12,34.22-.03,2.86,2.81,20.41,3.75,23.02.67,1.84,4.94,4.77,6.72,5.49.69.48,1.23.96,1.25,1.47.47,10.47.87,24.41-3.57,33.41-3.19-4.25-9.17,6.26-3.54,1.3l2.38,1.02c-.44,11.88-14.17,20.61-25.73,21.94-34.67,3.99-44.01-29.07-40.67-56.63-2-.32-1.93-1.16.19-2.51,9.91-5.19,8.85-20.97,8.18-30.86-.91-13.56-4.83-13.89-8.63-23.92-2.33-6.16-2.33-10.96-.71-17.31Z"/>
          <path class="cls-28" d="M721.67,278.04c2.38,4.97-.14,10.01,0,15.67.32,12.43,4.8,30.54,16.34,37.15,19.24,11.01,41.98,5.66,49.87-15.61-2.72-1.67-1.98-2.68,1.16-2.33,3.3-11.44,2.24-23.09,2.32-34.88.98.4,2.9-.09,5.81,1.16-1.1,1.2-2,2.55-2.69,4.03.39,8.36-.26,16.32-1.95,23.87-1.21,4.76-1.56,8.33-3.82,13.04-12.15,25.33-52.06,23.72-63.41-.98-.96-2.09-4.79-13.53-4.79-14.97v-23.83c-12.58.91-6.75,9.66-6.87,16.86-.31,17.9-3.11,35.89-10.72,52.14-1.71,3.64-11.3,18.24-11.44,19.36-.49,2.16-1.34,1.91-2.32,0-2.72-2.07.14-8.39,3.48-6.98,6.87-10.11,11.73-18.42,14.98-30.93,3.71-14.26,3.49-31.21,2.44-45.8,4.18-2.44,6.26-4.17,11.62-6.98Z"/>
          <path class="cls-11" d="M784.01,215.64c3.56,5.08-5.69,16.84-6.35,21.39-2.02,13.88.11,32.32,6.92,44.89.92,1.7,3.48,3.23,3.84,4.19.16.44.25,8.61.14,9.43-.13.93-2.81,7.67-3.18,7.88-1.68,1-5.69-.97-7.4,1.32-.95,1.27-.59,4.42-1.65,6.2-2.99,5.03-4.69,6.28-6.73,13.32-.38,1.32.95,3.13-.15,4.42-3.65,4.28-19.21,3.1-23.46-.08-1.21-.91.05-2.7-.53-3.98-.5-1.11-2.27-1.86-2.72-3.24-1.78-5.49,6.18-7.01,6.66-9.19.08-.38-.85-3.8-1.01-3.93-.83-.64-8.4,4.97-12.51.88-.82-.82-.7-2.71-1.36-3.5-7.76-9.31-3.44-8.31-6.1-17.49-.61-2.1-6.67-5.45-4.33-8.86,1.03-1.5,10.32.48,11.55-9.94.81-6.84-1.55-11.43-1.81-16.26-.24-4.53,1.21-9.86.52-15.06-.67-4.98-5.72-14.6-5.61-18.73.05-2.05,1.99-3.57,2.08-5.73.1-2.36-1.89-5.88-1.01-8.78,1.12.19,4.34-.28,4.63,0,.96.92-2.13,8.29,2.32,6.98,1.14-9.41-7-30.4,8.71-30.33,7.22.03,11.34-1.01,17.44-1.15,3.02-.07,13.3,1.29,14.32,4.35,1.44,4.29.51,17.08,1.63,22.79.93,4.78,3.36,5.65,5.15,8.21Z"/>
          <path class="cls-11" d="M731.29,314.91c2.86,3.36,11.8,3.91,4.9,11.93-4.73-3.92-5.91-8.75-8.21-13.85-.82-1.82-3.88-2.35-2.29-4.77.32-.49,3.91-2.43,4.1-2.29,1.28,1.03-.4,6.73,1.5,8.97Z"/>
          <path class="cls-11" d="M789.04,312.92c-.07.25-.8,1.36-1.16,2.33-1.35,1.47-5.62,3.39-6.36,4.68-1.52,2.67.47,7.27-4.66,8.12-4.52.75,1.31-6.02,1.96-7.35.82-1.68.72-3.87,1.6-5.38,2.14-3.65,8.6-11.71,8.63-2.41Z"/>
        </g>
      </g>
      <path class="cls-28" d="M689.15,867.47c.97-.61,21.2-.21,22.77,1.04,7.91,20.7,4.32,43.89,6.33,65.86-1.41,10.72-27.08,9.4-35.47,8.64-13.57-1.23-14.1-3.48-11.46-16.08,1.92-9.17,6.65-17.76,9.3-26.73s3.24-17.72,5.28-26.1c.14-.56,2.94-6.44,3.25-6.63Z"/>
      <g>
        <path class="cls-28" d="M825.88,865.39c29.31-4.99,24.04,12.31,29.68,32.58,2.98,10.72,16.81,39.6,10.07,49.06-2.35,3.29-21.25,4.29-26.11,4.19-3.68-.08-17.84-1.46-20.6-2.62-1.29-.54-1.77-1.15-2.35-2.38.52-4.34-1.67-9.44-1.76-13.05-.34-14.61.5-35.26,2.96-49.15,1.03-5.8.67-16.99,8.11-18.62Z"/>
        <path class="cls-28" d="M824.7,867.7c2.22-.66,15.79-.68,18.33-.2,7.62,1.44,6.51,14.51,8.15,20.91,2.18,8.55,16.39,44.98,13.99,49.97-3.38,7.01-36.35,5.15-43.41,2.72-9.01-3.09-3.86-20.98-3.63-28.82.42-14.18-.54-27.82,3.74-41.6.41-1.47,1.36-2.54,2.84-2.97Z"/>
      </g>
      <path class="cls-1" d="M678.69,416.39c-1.51.18-3.13-.11-4.65-.01,2.62-1.37,2.4-13.33,1.3-14.62-2.61-3.06-14.59-2.25-17.58-4.53-4.81-3.66,5.69-19.59,6.95-24.55,1.72-1.23,13.08,4.56,16.87,4.18s4.77-5.92,8.72-5.81c1.21,5.19,3.69,10.17,3.59,15.69-.08,4.41-4.33,21.69-7.18,24.3-2.53,2.32-6.29,2.51-8.01,5.35Z"/>
    </g>
    <g>
      <path class="cls-19" d="M343,168.75c1.96,13.89,2.61,29.22-4.08,41.84l-3.99-11.09c.92-15.8-.95-23.91-18.08-24.91-6.7-.39-19.37,1.55-26.56,2.45-4.2.53-10.21,1.21-11.15,6.28-1.37,7.36-.12,20.55-.03,28.44-2.23,2.23-4.58-6.86-6.97-6.97-2.73-16.28-4.71-30.49,5.36-45.21,5.02-7.34,24.67-12.39,33.25-11.47,11.56,1.24,26.94,10.11,32.25,20.64Z"/>
      <path class="cls-28" d="M370.88,884.91l2.21,4.38c.78,13.47-.24,26.64-1.45,39.74-2.55,15.22,25.46,12.53,35.07,11.41,9.99-1.17,9.94-2.66,7.85-12.57-6.97-17.4-12.06-35.32-15.28-53.76-1.04-3.69-1.75-3.87-5.28-4.45-14.4-2.36-19.32-1.05-19.07,14.67-1.06,2.2-2.35,2.4-4.05.58.25-5.63-.28-16.15,6.1-18.89,5.69-2.44,21.77-1.78,25.31,4.3,2.49,4.27,4.34,21.62,6.35,28.52,4.15,14.18,11.63,25.67,11.1,41.3-.07,1.99-.8,7.08-2.39,8.14-1.26.84-15.46,2.75-18.03,2.88-4.78.24-26.13-.81-29.05-3.45-1.55-1.4-1.62-9.4-1.75-12.17-.31-6.54-.8-46.59.61-49.5.37-.76,1.54-.85,1.75-1.13Z"/>
      <g>
        <path class="cls-36" d="M383.65,495.44c6.17,13.81,10.42,28.15,12.78,43.02,1.29,5.08,2.74,10.23,4.47,15.18.47,1.34-1.88,2.04-3.31,1.1-2.19.78-3.86,2.12-4.66,4.39-2.65,7.54,1.83,28.1,6.36,35.33,1.4,2.24,3.69,4.98,5.26,6.78,3.6.06,5.15,3.54,4.65,10.46,1.67,6.97,2.45,13.75,2.32,20.35,1.2,4.48,1.36,11.42,1.14,16.69-.01.26-.51.51-1.14.75l1.18.26c.77,5.96,1.53,11.88,2.3,17.76.47,5.59.92,9.97,2.23,15.53-.63,1.89-9.01,4.17-11.53,5.39-8.22,5.14-15.41,6.67-25.07,7.94-5.73.75-22.08,2.75-26.13.61-.8-.42-1.53-.98-2.24-1.58-3.88-.06-17.45.95-19.18-1.14-1.17-1.41-5.2-16.32-6.07-19.5-2.73-10-4.05-20.64-7.27-30.5-3.63-15.44-6.29,9.31-6.49,14.43.27,12.1-.79,23.81-3.17,35.14-15.41,1.57-31.08,1.76-46.57.82-8.13-.49-38.92-2.45-41.64-7.48.62-28.74,1.82-57.62,3.61-86.65l1.33-1.6-1.93-2.05,5.59-17.94c1.83-5.95,2.16-11.69.99-17.21-2.22-1.52-2.02-4.51.62-8.98,1.18-10.37,2.91-20.56,5.19-30.55-1.79-5.88,4.93-17.36,10.45-19.76.53-1.52,1.31-2.29,2.32-2.33l7.49-1.34c40.81,5.38,81.79.54,122.28-4.26l3.81.95Z"/>
        <path class="cls-10" d="M226.84,598.91c-2.77,14.09-1.59,29.4-2.34,43.58-.65,12.46-4.48,31.13-2.31,43.03.33,1.8.97,2.48,2.59,3.22,27.89,5.62,56.73,7.16,85.01,4.47,3.13-2.3,1.09-51.7,6.45-55.4,1.18-.82,2.23-.57,3.52-.54v6.97c-.47-1.46-1.3-3.09-1.73-4.64-5.74,14.31-3.92,31.68-5.25,47.06-.87,10.07-2.51,8.41-11.6,8.74-19.66.72-42.23.76-61.56-2.33-3.7-.59-17.3-2.16-18.39-5.42l3.29-87.58c-1.12-1.28-6.62,4.41-8.12,4.64-4.51.06-17.78-1.79-21.14-4.32-1.59-1.2-6.46-12.93-2.09-11.96,1.85-1.77,3.78-2.93,5.81-3.49,3.14.6,6.45,2.23,9.9,4.87l17.49,6.25.48,2.84Z"/>
      </g>
      <path class="cls-28" d="M250.07,500.09c1.35-6.02.32-27.95-.01-35.45-.85-19.29-4.81-37.97-6.94-57-.75-6.68-3.21-30.49-1.43-35.12,2.13-5.55,10.52-14.93,14.03-21.99,6.42-12.92,9.67-27.25,10.61-41.7.3-4.64-.89-24.17.52-26.22,1.08-1.56,3.62-1.07,5.29-1.1.68,17.57.41,40.61,17.04,50.97,10.65,6.63,25.9,8.25,37.43,2.97,20.77-9.51,21.19-35.21,21.05-55.09,1.3.62,6.65.97,6.89,1.22.83.84-.17,20.07.08,23.76,1.39,20.12,8.2,35.52,22,50.11,1.23,1.3,3.33,1.41,3.55,1.63,1-.49,1.35-.05,1.16,1.16,4.56,1.88,8.86,6.4,8.13,11.63l-1.89,46.59c-2.71,26.39-4.01,52.71-3.92,78.97-44.02,7.31-89.19,11.18-133.58,4.65Z"/>
      <g>
        <g>
          <path class="cls-20" d="M149.02,540.78l2.03,11.67c.45,4.27-.42,12.8-5.52,12.74l-1.53-3.02c.65-2.66,2.6-14.78,1.65-16.18-.7-1.03-21.56-6.69-23.89-6.32-2.06.33-5.8,12.44-6.14,14.9-.88,6.24,15.56,11.9,20.57,12.83,4.11,1.73,1.44,7.58-.69,6.19l.75,2.07c-2.04,1.27-2.27,4.79-7.43,4.6-1-.04-18.18-5.47-19-6.04-2.09-1.45-4.85-13.66-4.94-16.63-.35-11.27,7.56-31.64,20.49-32.7,2.85-.23,17.32,3.8,19.47,5.56,3.37,2.77,3.34,6.89,4.2,10.33Z"/>
          <path class="cls-1" d="M136.24,575.66c-5.81.5,1.28-4.4,0-5.8-6.74-2.18-14.53-3.63-19.62-8.86-6.23-6.42-2.32-7.56-.4-14.09,1.75-5.96-1.37-10.39,10.01-9.57,3.7.27,17.34,7.68,19.3,5.77.43-2.38-1.64-6.71,2.32-5.81.11,9.77.72,18.54-2.32,27.9.6,3.22-4,7.28-6.97,9.3-.63.47-1.61.72-2.32,1.16Z"/>
          <path class="cls-35" d="M230.33,555.9c1.73,2.49-.62,3.97-3.16,2.86-13.78-7.89-19.12-6.13-28.68,6.51,5.11,2.8,2.14,16.67-3.22,18.27.7,2.7,0,4.33-2.1,4.92-.03.38-1.56,1.18-1.01,3.72.18.81,3.29,7.35,3.62,7.61.93.75,19.08,5.18,20.62,4.94-2.48,2.65-20.72-2.78-21.79-3.78-.42-.39-3.34-6.67-3.51-7.53-.45-2.27-1.39-10.87-1.42-13.11-.08-7.33,1.7-11.66,5.81-17.44-2.11-3.97,10.81-15.19,14.17-15.98,3.17-.74,17.96,3.97,20.17,6.17l.51,2.83Z"/>
          <path class="cls-27" d="M152.5,551.24c1.68,4.8,1.84,10.1,2.33,15.11-1.86.21-4.02-.28-5.81,0-3.45.53-3.84,3.99-6.94,6.47-1.47,1.18-3.03,1.3-3.51,1.66,2.99-3.41,4.78-5.46,6.97-9.3,5.07-8.88,3.42-14.39,3.48-24.41.99,3.99,2.35,7.24,3.48,10.46Z"/>
          <path class="cls-14" d="M226.84,598.91c-9.1-4.87-21.69-4.98-27.88-13.95l-1.75-2.19c2.81-3.87,3.96-8.65,3.78-13.42-3.42-6.88,4.18-7.59,9.72-6.69l17.76,4.58c.16-2.98,1.17-4.82,3.02-5.53,6.74,11.48-2.4,25.76-4.65,37.2Z"/>
          <path class="cls-25" d="M231.49,561.71c-.28,2.64.21,5.48,0,8.14-10.07-.25-18.08-6.91-29.05-4.66-.36,5.7-1.67,14.4-3.48,19.77-1.11,3.29-2.4,5.43-5.81,3.49.13-1.87-.48-4.9-.08-6.25.34-1.14,2.79-.67,4.11-1.88,2.1-1.9,4.12-9.29,2.42-11.73-1.19-1.71-4.78.16-4.09-2.76.65-2.76,11.19-12.94,13.94-13.96,6.15-2.26,12.87,2.77,18.49,4.69,1.91.65,1.37.83,2.37-.67,2.95-4.46,2.82-19.16,3.76-24.72.52-3.05,2.07-6.15,3.21-9,.29,2.44-.03,4.59-.58,6.97-2.09,9.16-4.2,22.83-5.23,32.56Z"/>
        </g>
        <g>
          <path class="cls-15" d="M475.42,537.29c.16-1.23.88-4.8,1.46-5.51,2.16-2.63,20.24-7.43,23.84-6.53,17.26,4.3,24.24,35.97,13.35,49.25-5.68-.06-15.35,6.4-20.41,5.6-3.95-.62-10.73-7.66-13.59-10.25v-2.33c1.87-1.34,3.98-.46,6.32,2.66,4.52-3.58,9.7-6.22,15.55-7.9,8.73-1.86,6.45-16.34,3.51-21.64-1.29-2.34-24.81,3.72-26.03,4.64-1.79,1.35.19,14.87,1.01,17.97l-1.52,3.1c-2.5-2.59-6.92-7.2-6.94-11.05,0-1.25,1.97-3.46,2.38-5.73.8-4.48.55-8.28,1.08-12.28Z"/>
          <path class="cls-12" d="M430.12,565.2c.65,1,1.05,1.91,2.32,2.33,3.07.82,5.61,8.07,3.48,10.46-.37.78-.77,1.55-1.16,2.33-2.44,4.77-.16,16.6-5.21,20.95-2.77,2.39-17.59,2.41-18.99,6.56-1.84,5.48,1.7,14.91,2.11,20.76.92,13.03,1.25,25.94,2.34,38.93-2.1-1.76-.93-5.73-1.31-8.57-.33-2.49-2.18-7.97-2.18-9.45v-17.44c0-5.87-2.5-12.94-2.32-20.35l-1.56-8.1c6.21-2.28,12.64-4.06,19.3-5.36,2.23-1.64,5.34-16.23-.44-15.63-3.2-5.21-4.85-12.62-1.06-17.44-2.58-3.6-5.62-6.92-9.09-9.98l.99-2.78c5.17-2.91,14.17,7.65,12.78,12.79Z"/>
          <path class="cls-38" d="M417.34,552.41c2.11,4.52,11.8,9.09,10.29,14.29-.66,2.27-3.99,2.47-3.32,7.11.11.75,2.56,6.07,2.96,6.48,1.29,1.33,3.45.93,3.83,1.35,2.12,2.34.73,16.31-2.91,18.54-2.58,1.58-18.25,3.91-18.86,4.67-.36,2.26-.06,4.58-.12,6.86-1.1-5.21-2.02-6.43-4.65-10.46-4.74-2.82-5.56-5.27.11-7.56l15.7-6.43c3.47.33-.48-19.16-1.38-19.71-.72-.44-7.1-.02-8.63.26-9.52,3.82-23.62,8.63-17.72-7.74.95-2.65,2.12-4.48,4.96-5.32.67-.98,1.22-.58,1.14-2.7-.09-2.46-1.74-10.27-2.3-13.58.33-1.02.72-1,1.16,0l2.54,1.09,2.16,10.93c4.75-1.73,14.7-5.03,15.05,1.94Z"/>
          <path class="cls-14" d="M397.59,554.73c-1.25,1.84-3.6,2.05-4.4,5.47-3.92,16.65,9.57,6.11,17.88,5.12,3.61-.43,7.3.01,10.92-.13-2.32,5.21,4.38,18.69,2.44,21.55-3.65,5.39-22.07,8.44-22.11,11.59,0,.18,1.72,2.1,2.24,2.91-3.27-.55-6.88-4.56-8.37-7.32-1.64-3.02-5.1-15.47-5.49-18.94-.45-4.07-.11-21.61,6.89-20.24Z"/>
          <path class="cls-14" d="M478.9,566.36c-2.99-9.27-2.42-18.25-2.32-27.9,4.13-1.14,1.57,3.91,2.32,4.65,5.8.11,24.16-9.79,28.53-3.57.56.8,3.75,16.87,2.94,18.12-5.87,9.04-13.91,7.73-20.33,12.33-1.92,1.37-1.36,4.08-3.56,3.32-.41-.14-5.19-4.72-6.42-5.79-.41-.36-.78-.77-1.16-1.16Z"/>
        </g>
      </g>
      <path class="cls-28" d="M370.88,884.91c.29-.37,1.7-.38,2.12-1.9.92-3.32-.14-12.68,3.67-14.98,1.48-.9,16.75-.98,19.16-.53,7.25,1.36,5.64,9.64,6.71,14.21,1.39,5.94,2.96,12.77,4.69,18.56,2.34,7.82,15.2,33.83,8.99,39.9-4.5,4.4-34.39,3.41-40.74,1.17-10.18-3.59-4.72-21.85-4.55-30.23s-.43-17.52-.05-26.21Z"/>
      <g>
        <path class="cls-28" d="M245.09,865.39c3.17-.71,13.76-.71,16.93,0,7.5,1.68,6.76,10.64,7.92,16.49,3.26,16.59,3.85,41.54,1.44,58.41-.39,2.76,2.82,6.37-2.42,8.28-5.1,1.86-20.74,2.88-26.49,2.65-3.39-.14-19.35-1.92-20.12-4.27-.44-1.36-1.46-10.8-1.42-12.62.27-11.67,11.66-35.47,14.91-49.13,1.47-6.2-.1-17.71,9.25-19.8Z"/>
        <path class="cls-28" d="M243.93,867.71c2.82-.81,18.89-.71,20.78.8,7.87,21.09,4.54,44.68,6.32,67.02-.13,6.73-12.52,7.18-18.01,7.55-5.63.38-28.89,1.04-30.67-5.52-.29-1.09,1.94-12.66,2.47-14.56,3.08-11.01,9.28-22.75,12.2-34.29,1.22-4.84.23-19.07,6.9-20.99Z"/>
      </g>
      <g>
        <path class="cls-11" d="M345.32,278.04c2.48,1.32,2.85,2.17,1.12,2.53.17,22.08.28,49.04-26.12,55.86-25.7,6.64-46.54-11.87-46.37-37.95.13-7.14-.48-13.57-1.81-19.28,12.91-7.39,11.49-16.91,10.51-30.86-1.03-14.6-8.06-17.34-10.26-26.93-1.24-5.39.75-10.71-.24-16.62,1.42-1.82,2.9-1.63,4.43.58l-.39-12.83c0-10.88.06-14.34,11.05-17.44,12.69-3.58,46.43-7.74,49.44,10.38,1.78,40.22,5.33,11.5,5.33,6.5l2,1c.97,1.92-.38,4.46,0,8,.58,5.31,1.8-11.5,1.33-6.08-.32,3.68-2.47,6.65-2.44,10.47s2.27,5.83,2.32,8.09c.12,5.26-7.33,16.23-8.9,21.24-3.03,9.69-1.73,22.93.8,32.35,1.85,6.88-.99,7.69,8.21,10.97Z"/>
        <path class="cls-11" d="M405.72,688.43c-1.02.5-6.95,3.66-6.95,4.07,0,.21,1.9,1.56,2.26,3.54,5.17,28.44,10.58,56.94,8.16,85.97-1.48,17.77-5.58,35.47-7.2,53.25-1.87,6.25-15.83,3.32-20.21,3.26-3.88-.05-8.77,3.13-12.14-.63-2.41-2.69-4.52-23.49-5.86-29.01-2.64-10.88-7.79-21.43-9.15-32.7-3.18-26.46,7.54-52.76.05-76.8-.55-1.75.2-3.01-2.39-3.99,18.82.3,35.43-1.21,53.43-6.98Z"/>
        <path class="cls-11" d="M301.18,695.41c-10.17,3.65-13.5-3.74-17.08,9.06-4.12,14.74,1.94,28.63,3.15,42.66,2.12,24.56-4.57,39.52-10.15,61.94-1.31,5.28-3.62,28.1-7.26,29.93-4.04,2.03-8.46-.47-12.23-.58-4.2-.12-15.91,1.15-18.11-1.64-4.34-29.45-10.17-59.59-8.07-89.69,1.26-18.04,9.2-35.81,8.18-54.01,20.34,1.54,41.14,2.16,61.56,2.33Z"/>
        <path class="cls-28" d="M356.94,282.69c-1.1,26.8.45,54.43,23.23,72.08,3.08.37,2.95,1.44,0,2.33-1.5,2.64-3.19,1.82-5.14.05-21.14-19.26-23.64-47.4-22.81-73.59l-2.23-.06c1.93,30.55-10.04,63.42-47.01,56.67-29.94-5.47-32.31-31.05-33.38-56.36l-.94.14c1.9,32.69-3.78,63.07-24.77,89.33-.24,23.76,2.02,47.74,6.78,71.96.5,4.87,4.24,49.84,2.02,53.22-.62.94-1.51,1.46-2.61,1.64-.34,1.53-2.13,1.97-2.32,2.33l-1.81-3.12c1.49-22.37.47-45-3.06-67.89l.22-15.02c-2.55-16.05-3.37-29.27-3.48-45.34.77-3.83,2.1-7.31,4.27-10.57l2.7.11c.47-.68,2.53-1.38,3.48-2.88,13.32-21.23,14.86-49.43,13.95-73.85,2.33-1.29,5.61-3.21,8.13-4.65,3.51-.65,2.25,1.78,2.32,4.02.37,11.64-.31,24.08,4.79,34.79,13.53,28.4,60.48,23.49,64.81-9.25l1.26-30.71c5.24,1.87,6.62,2.3,11.62,4.65Z"/>
        <g>
          <path class="cls-21" d="M475.42,537.29c.8,5.53.48,12.46-1.18,18.16.96,3.83,2.69,7.47,4.67,10.9.99-.48,1.34-.04,1.16,1.16,1.14,1.43,1.14,2.21,0,2.33-9.15-8.28-4.72,1.22-9.2,5.32-8.02,7.35-26.39,10.16-36.1,5.14-1.65-1.67-1.16-2.64,1.16-2.33,1.33-1.17,2.82-.96,4.46.61-1.85-4.4-2.94-9.09-3.26-14.06-.24,3.12-1.96,5.15-4.69,2.99-2.36,2.89-4.23.91-2.32-2.33-2.12-14.35-8.44-29.48-15.33-42.91l-16.47-31.17c-7.11-14.36-13.14-29.45-11.18-45.66l-1.37-1.32c.47-11.26,1.31-22.44,2.54-33.56,2.19-15.38,2.27-30.66.24-45.83l.93-1.83c-2.85-4.29-5.2-8.86-7.07-13.71.58,2.95-.17,4.81-2.22,5.57-.92.29-1.72.44-2.09.11-20.29-18.04-25.32-46.87-21.14-72.19,15.05,7.08,43.25,21.5,53.4,34.32,1.48,1.87,5.74,8.04,6.35,9.92,2.57,7.83.17,30.2.6,40.09.25,5.79,2.16,12.71,2.42,18.5.47,10.71-1.87,28.72.26,38.1,1.42,6.27,10.53,16.68,12.14,23.89l19.57,88.53c2.42,4.53,6.97,3.77,10.41,5.86,2.6,1.57,6.9,9.07,8.11,9.33,4.45.96,3.08-11.87,5.21-13.95Z"/>
          <g>
            <path class="cls-18" d="M432.44,567.52c.06-.5,2.05-1.06,2.28-2.02.55-2.33-1.25-9.01,3.45-6.06,1.08.68,2.1,11.87,2.71,14.17.77,2.91,3.11,4.87,3.17,7.86-3.04.61-6.19-1.29-8.13-3.48-1.57-1.78-3.7-8.6-3.48-10.46Z"/>
            <path class="cls-18" d="M445.21,555.9c.77,4.03.68,8.96,1.74,12.79,1.5,5.44,5.77,7.61,6.39,12.77-4.61,4.35-10.48-10.85-11.08-13.89-.71-3.6-2.3-11.73,2.95-11.67Z"/>
            <path class="cls-34" d="M449.87,557.06c5.06.23,4.8,7.33,6.49,10.35,1.13,2.01,10.58,10.71,5.68,11.73-3.07.64-14.68-17.51-12.17-22.08Z"/>
            <path class="cls-23" d="M380.17,354.77c0-1.27-.98-13.74,2.31-10.46,3.62,6.93,5.68,10.67,6.99,18.6l-1.47.68c-1.8-2.39-4.02-4.16-6.67-5.33-.38-.38-.79-.77-1.16-1.16v-2.33Z"/>
            <path class="cls-28" d="M389.46,362.91c1.39,8.4,1.36,16.4,1.21,25.04l-2.37,22.62c.28-12.29,2.49-29.25,1.16-40.69-.5-4.32-4.88-8.39-8.13-11.63,3.89-.62,5.18,3.04,8.13,4.65Z"/>
            <path class="cls-24" d="M395.28,434.99c2.41-.07,4.91.31,7.3-.25s6.89-6.28,7.79-2.65c1.98,8.02-13.43,10.62-15.09,2.9Z"/>
          </g>
        </g>
        <g>
          <path class="cls-11" d="M246.59,360.58c-2.63,1.25-4.32-.3-5.08-4.63-.08,5.36-.71,10.39-1.89,15.09,1.04,15.03,2.2,30.15,3.48,45.34-.96,39.63-13.96,76.47-35.64,109.19-6.43,11.44-11.18,24.7-11.98,37.29-1.25,4.98-2.41,10.2-3.47,15.68l-2.34,1.76c-13.52,5.86-35.98,1.67-40.65-13.95,3.25-2.61,3.94-6.82,2.07-12.63l1.41-2.48c4.52-1.25,5.85-6.82,10.02-9.15,4.22-2.36,7.93-.78,10.33-7.1,4.6-12.1,7.68-31.81,10.7-45.1,2.56-11.25,3.64-24.53,6.48-35.36,2.61-9.95,12.9-24.25,14.47-32.02,1.93-9.51-.12-26.37.21-36.99.44-13.6.78-27.01,1.22-40.63.54-16.67,3.3-25.37,16.35-35.95,12.82-10.4,27.62-17.3,41.72-25.09,3.41,21.86.3,45.92-9.07,66.51-1.64,3.6-4.75,10.16-8.36,10.23Z"/>
          <path class="cls-37" d="M239.62,371.04c-.03-4.3-1.49-8.03-1.2-12.18.34-4.78,3.83-7.51,3.53-12.25,1.4-1.83,2.12,0,2.32,1.73.47,3.97-1.49,9.3,2.32,12.23-2.39,3.43-3.6,7.65-6.97,10.46Z"/>
          <path class="cls-33" d="M229.16,434.99c-1.66,7.72-17.07,5.13-15.09-2.9.92-3.74,6,2.13,7.83,2.61,2.39.63,4.85.23,7.26.29Z"/>
        </g>
      </g>
    </g>
  </g>
  <path class="cls-8" d="M719.09,836.74l-3.32,1.91s-6.15.95-6.46.65-6.61-.39-6.61-.39l-4.48-.42-4.86-.44h-4.22l-2.74-.83-1.39,6.78v16l1,6,.24,4.33,2.9-2.86,5.1-1.98,4.52-.68,5.56.04,5.33,1.17,2.89,1.5,2.23,2.4.23-4.91,1-7,1-7,1-6,1.09-4.88v-3.38Z"/>
  <polygon class="cls-8" points="816 837 816.23 845.69 816.23 853.8 816.75 862.1 818 866 820 871 824.56 866.02 829.46 865.14 835.68 864.83 841.83 865.81 845.19 867.46 849 871 849 867 849.78 862.29 849.92 854.04 849.92 844.7 849.92 838.76 848.99 835.56 843.78 838.29 839 838 830.78 838.29 822.78 839.29 819 838 816 837"/>
  <path class="cls-8" d="M272.51,836.23l-3.32,1.91s-6.15.95-6.46.65-6.61-.39-6.61-.39l-4.48-.42-4.86-.44h-4.22l-2.74-.83-1.39,6.78v16l1,6,.24,4.33,2.9-2.86,5.1-1.98,4.52-.68,5.56.04,5.33,1.17,2.89,1.5,2.23,2.4.23-4.91,1-7,1-7,1-6,1.09-4.88v-3.38Z"/>
  <polygon class="cls-8" points="369.04 837.16 369.27 845.85 369.27 853.96 369.79 862.27 371.04 866.16 373.04 871.16 377.6 866.18 382.5 865.3 388.72 865 394.87 865.97 398.23 867.62 402.04 871.16 402.04 867.16 402.82 862.45 402.96 854.2 402.96 844.86 402.96 838.92 402.03 835.72 396.82 838.45 392.04 838.16 383.82 838.45 375.82 839.45 372.04 838.16 369.04 837.16"/>
</svg>