<?xml version="1.0" encoding="UTF-8"?>
<svg id="Layer_1" xmlns="http://www.w3.org/2000/svg" viewBox="0 0 818.92 897.14">
  <defs>
    <style>
      .cls-1 {
        fill: #d84040;
      }

      .cls-2 {
        fill: #e2a686;
      }

      .cls-3 {
        fill: #e3ac89;
      }

      .cls-4 {
        fill: #e4ac88;
      }

      .cls-5 {
        fill: #fff;
      }

      .cls-6 {
        fill: #e5ad89;
      }

      .cls-7 {
        fill: #e6ac88;
      }

      .cls-8 {
        fill: #bfc1c0;
      }

      .cls-9 {
        fill: #282828;
      }

      .cls-10 {
        fill: #282829;
      }

      .cls-11 {
        fill: #dca585;
      }

      .cls-12 {
        fill: #bfc1c1;
      }

      .cls-13 {
        fill: #c1c1c1;
      }

      .cls-14 {
        fill: #7f8180;
      }

      .cls-15 {
        fill: #292929;
      }

      .cls-16 {
        fill: #e3a583;
      }

      .cls-17 {
        fill: #c0c1c0;
      }

      .cls-18 {
        fill: #808180;
      }

      .cls-19 {
        fill: #e2a681;
      }

      .cls-20 {
        fill: #fccaa5;
      }

      .cls-21 {
        fill: #d84140;
      }
    </style>
  </defs>
  <polygon class="cls-5" points="105.58 778.44 99.65 808.89 133.33 833.14 147.07 811.87 138.37 773.35 105.58 778.44"/>
  <path class="cls-5" d="M265.08,768.54s-4.74,29.78-6.55,34.71,25.78,19.29,25.78,19.29l9.6-22.82,7.81,9.17s-9.76-13.25-4.8-30.11-31.85-10.23-31.85-10.23Z"/>
  <path class="cls-5" d="M565.57,777.01l-10.26,24.32,38.86,11.14s-1.32-28.85-.33-35.47-28.26,0-28.26,0Z"/>
  <path class="cls-5" d="M708.64,775.63s-.44,30.85.18,36.47,40.51-8.85,40.51-8.85c0,0-12.87-14.35-11.83-25.92s-28.86-1.7-28.86-1.7Z"/>
  <path class="cls-1" d="M701.97,159.02c1.76,2.22,4.52,2.83,6.79,4.22,1.3,2.64,1.24,5.34.77,8.22-1.9,11.77-2.65,23.66-2.86,35.56-.33,18.7,3.82,36.57,11.09,53.75,7.74,12.24,9.5,25.69,8.65,39.87-.25,4.2,1.28,8.54,1.21,12.9.05,3.13-.18,6.25-.08,9.38-.53,25.25,1.02,50.36,5.11,75.29.28,1.71.33,3.46.25,5.2-.52,3.56.52,7.32-1.35,10.71-8.08,5.88-17.88,6.38-27.13,8.4-15.34,3.34-31.05,4.44-46.65,4.89-27.97.81-55.58-2.34-82.32-11.21-1.24-.41-2.43-.96-3.38-1.92-2.11-3.87-1.62-8.08-.88-12.04.81-4.32.86-8.58.73-12.89.24-11.89,2.59-23.6,3.18-35.48.28-5.6.55-11.21.72-16.81.3-5.52.08-11.04.13-16.56-.3-12.37.79-24.76-.68-37.13-.4-3.35,1.24-6.34,2.83-9.21,2.21-4,4.35-8.03,6.13-12.24,5.72-13.13,8.23-26.76,8.98-41.17.86-16.6-.52-33.01-1.19-49.49-.14-3.4.93-5.9,3.15-8.17,2.2-1.48,4.4-2.96,6.59-4.44,5.61-.99,5.91,3.17,6.43,6.84,1.11,7.83,3.19,15.27,6.83,22.38,14.84,28.98,53.69,27.03,69.1,2.93,5.25-8.21,8.28-17.24,10.37-26.67.88-3.96,2.28-7.32,7.45-5.11Z"/>
  <path class="cls-20" d="M265.13,450.88c8.66,4.68,16.07,10.75,22.11,18.63,3.56,4.64,8.62,7.5,13.65,10.64,19.78,12.34,30.39,30.59,30.7,54.02.13,9.97,1.69,19.03,5.93,28.27,6.16,13.43,9.22,28.12,9.64,42.89.29,10.38,5.37,18.64,9.12,27.49,5.5,12.99,10.99,25.97,13.81,39.81,1.77,8.67,3.27,17.55,3.36,26.36.18,17.39,2.47,34.72,1.4,52.11-.21,3.4,1.74,5.11,3.75,7.05-1.73,1.62-3.67,1.05-5.52.41-8.91-3.07-17.9-3.32-27-.93-1.7.45-3.46.64-4.87-.86,2.48-3.14,2.49-6.49,1.8-10.39-3.3-18.64-8.79-36.65-14.88-54.51-4.7-13.78-8.48-27.79-10.7-42.2-.22-1.41.26-3.55-1.89-3.55-2.66,0-1.9,2.41-2.03,3.98-.94,11.12,1.26,22.11,1.28,33.21.05,26.94-4.6,53.06-12.92,78.59-1.81,5.57-2.69,11.38-4.96,16.86-1.31,3.15-2.87,4.68-6.19,4.36-6.69-.64-13.39-1.2-20.07-1.96-4.08-.47-5.96-2.68-5.72-7.08.97-17.11-3.08-33.59-6.39-50.19-2.03-10.19-3.78-20.48-3.83-30.92-.02-3.53-1.07-5.43-4.52-6.83-5-2.03-10.1-3.57-15.25-5.06-.34-.56-.35-1.33-.7-1.79-8.9-11.48-2.78-22.81.99-33.67,4.2-12.12,9.81-23.67,21.55-30.9,9.4-5.79,19.5-5.29,29.69-4.1,3.91.46,6.04,3.88,8.53,6.65,3.74,4.16,5.97,9.65,11.53,12.38-5.81-8.84-6.01-20.31-13.85-28.18-3.37-12.59-7.92-24.79-12.4-37-.2-.63-.27-1.28-.25-1.93.4-5.11-.87-9.94-3.02-14.46-3.58-7.54-6.16-15.26-5.82-25.24-1.71,3.36-1.72,5.53-1.78,7.68-.07,2.38.08,4.77-.07,7.15-.16,2.5.73,5.93-2.1,6.95-2.59.93-3.56-2.51-5.26-4.01-.49-.43-.93-.91-1.38-1.39-7.13-11.25-8.76-23.98-8.65-36.75.13-15.92,4.01-31.28,9.91-46.09.8-2.01,1.41-4.12,3.26-5.5Z"/>
  <path class="cls-20" d="M27.06,758.06c4.06-2.59,5.24-6.16,5.08-11.01-.38-11.31.3-22.65-.16-33.95-1.16-28.18,4.7-55.03,17.28-79.92,7.5-14.84,9.11-30.44,11.53-46.15,1.67-10.82,5.32-20.92,9.93-30.79,2.49-5.32,3.42-11.11,3.31-17.12-.21-11.38,3.44-22.01,7.41-32.44,5-13.12,15.66-21.16,27.28-27.8,3.32-1.9,6.35-3.89,8.51-6.75,6.77-8.95,14.97-16.12,24.84-21.42,4.39,4.55,4.54,10.71,5.74,16.3,3.87,17.96,3.9,36.11,1.08,54.23-.56,3.61-1.88,7.13-3.8,10.32-.67,1.11-1.59,2.03-2.54,2.92-2.39,2.25-3.79,1.35-4.47-1.49-.71-2.91,0-6.06-1.88-8.97.64,11.72-6.22,21.21-9.14,31.87-.87,3.19-1.63,6.23-1.32,9.51-3.16,8.27-4.86,17.04-8.62,25.1-.93,1.98-.63,3.76.39,5.55.03,1.05-.54,1.77-1.3,2.39-2.93,1.45-4.88,3.92-5.57,6.93-2.34,10.13-7.69,18.82-13.53,28.79,4.1-2.51,5.84-5.39,7.58-8.21,2.29-3.71,4.9-7.23,7.13-10.95,4.82-8.03,11.91-8.73,19.9-6.86,11.82,2.76,21.3,8.88,26.9,19.96,7.28,14.43,13.7,29.15,13.63,45.78-.09.58-.26,1.15-.48,1.7-1.05,1.63-1.47,3.54-2.27,5.28-1.07.19-2.17.27-3.2.58-17.35,5.19-18.62,6.97-19.02,25.15-.23,10.7-3.24,20.99-5.58,31.29-2.67,11.77-3.57,23.57-3.33,35.47.11,5.26-1.63,7.77-6.6,8.01-6.31.31-12.47,1.31-18.64,2.65-4.15.9-6.55-1.96-7.54-5.58-5.77-21.1-12.52-42.02-15.15-63.79-1.6-13.27-3.46-26.67-1.2-40.19.54-3.21,2.64-8.55-1.57-9.67-2.82-.75-2.35,4.87-2.96,7.47-3.66,15.62-11.92,29.62-15.62,45.15-2.55,10.72-5.44,21.37-7.17,32.3-.54,3.43.38,5.21,2.57,7.09-1.66,1.68-3.63,1.14-5.52.66-8.91-2.25-17.7-1.78-26.42.99-1.86.59-3.77,1.34-5.48-.39Z"/>
  <path class="cls-21" d="M142.9,532.18c3.57-6.83,5.35-14.16,5.76-21.8,1.02-19.16.31-38.13-6.36-56.43-.35-.97-.16-2.15-.22-3.23,3.58-2.27,7.15-4.54,10.72-6.81,4.53-1.71,6.43.81,7.4,4.68,1.59,6.32,3.32,12.59,5.9,18.6,1.72,4.01,3.96,7.67,6.34,11.33,12.56,19.3,38.83,20.67,54.65,2.52,8.08-9.27,14.65-19.34,18.43-31.15,1.16-3.62,2.14-7.84,7.53-7.25,3.38,3.7,8.17,5.33,12.09,8.24-2.75,9.32-5.94,18.54-8.16,27.98-4.54,19.34-4.8,38.58,3.38,57.23.4.91,1.35,1.58,2.05,2.35,3.02,7.73,10.11,11.85,15.56,17.41,2,2.04,4.31,3.67,3,7l-.26.25.21.3c-2.03,7.21-6.01,13.48-9.53,19.98-.76,1.43-1.19,3.07-2.57,4.11-13.39,3.13-26.26,7.57-38.26,14.47-5.3,3.05-9.87,7.1-15.13,10.19-8.95,5.25-17.97,5.37-27.33,1.05-8.76-4.04-16.15-10.2-24.33-15.14-9.76-5.91-19.64-10.4-31.38-6.53-.6.2-1.28-.11-1.88-.37,1.88-9.05-4.17-16.56-4.9-25.1-1.36-4.78.07-8.66,3.26-12.39,5.59-6.54,9.84-14.01,14.03-21.49Z"/>
  <path class="cls-20" d="M595.2,163.08c-1.49,3-1.23,6.09-1.06,9.37,1.2,24.01,3.39,48.07-1.87,71.92-1.4,6.36-3.28,12.54-6.61,18.2-3.25,3.12-4.68-.3-6.01-2.03-4.67-6.04-8.29-12.67-9.86-20.33-1.11,8.14.24,16.05,2.98,23.42,2.66,7.16,4.23,14.03,3.67,21.77-.82,11.42,1.15,22.9.4,34.38-4.29,10.83-5.73,22.27-7.37,33.68-4.1,28.51-11.42,56.23-20.65,83.48-2.44,7.2-6.01,14.24-4.16,22.26-9.36.22-18.73.84-28.06-.58,3.11-4.86,2.07-10.39,2.13-15.61.25-20.69-.15-41.39.21-62.08.38-21.51,2.98-42.8,8.48-63.66.28-1.04.62-2.13.59-3.18-.49-16.55,1.43-32.96,2.69-49.41,1.03-13.4.91-26.96,2.93-40.2,2.72-17.82,11.95-31.57,29.71-38.08,6-2.2,9.69-7.32,14.25-11.2,5.52-4.7,11.34-8.65,17.61-12.12Z"/>
  <path class="cls-20" d="M701.97,159.02c-3.16-.14-4.98.73-5.65,4.44-1.75,9.68-4.67,19.04-10.16,27.36-10.76,16.3-26.06,22.8-45.05,19.22-17.59-3.32-26.73-15.98-32.02-31.98-1.43-4.33-2.56-8.79-2.68-13.42-.08-3.12-1.11-5.52-4.63-5.99,6.8-1.82,11.45-6.64,16.14-11.46,2.5-2.56,1.2-5.82,2.02-8.64,3.83-13.33,2.83-26.66-.45-39.82-1.11-4.46-4.22-8.41-6.18-12.69-2.29-4.98-5.8-9.85-1.86-15.7.89-1.33-.57-2.86-.99-4.29-4.58-15.44-5.16-30.63,3.11-45.18.39-.68,1.27-1.08,1.92-1.61,2.47,3.55-.66,6.09-1.7,8.94-4.59,12.55-3.78,24.95.48,37.35,2.6-4.97,2.25-10.26,2.34-15.51.17-10.6,2.48-13.53,13.04-14.99,10.97-1.52,21.89-3.19,33.13-2.22,11.63,1,16.93,5.56,17.5,17.42.23,4.84.48,9.57,3.22,13.78,4.36-8.57,5.25-28.18,1.47-36.43-2.77-6.05-8.75-8.94-13.39-13.15-1.8-1.64-4.85-2.37-4.46-5.73,13.1,2.87,23.86,16.97,24.48,31.9.25,5.91-.51,11.67-1.78,17.42-1.15,5.23-2.52,10.29-.97,15.93,1.58,5.76-1.19,11.68-4.32,15.95-6.01,8.2-6.71,17.9-6.53,26.55.3,14.41,1.53,29.63,15.86,39.19,2.69,1.79,5.95,1.06,8.1,3.38Z"/>
  <path class="cls-20" d="M742.73,189.11c6.57.48,10.13,5.52,14.12,9.65,12.38,12.8,15.83,28.56,13.72,45.64-.67,5.39.43,10.44,1.1,15.48,3.56,26.59,3.17,53.5,8.39,80.03,4.85,24.67,5.22,50.02,4.55,75.26-.3,11.31.18,22.65-.16,33.96-.14,4.73.71,8.4,5.07,10.72-.31.31-.7.81-1.02.74-9.95-1.94-20.04-1.43-30.09-1.69.98-6.23-1.1-11.91-3.19-17.6-8.34-22.67-13.62-46.15-18.5-69.75-3.51-16.96-5.95-34.11-9.66-51.01,1.67-7,2.91-14.04,2.45-21.3-.32-5.04,2.49-8.09,6.95-9.95,2.32-.96,5.27-1.17,6.08-4.87-1.81-.54-2.93,1.27-4.42,1.35-2.7.16-4.69-.87-5.98-3.16-1.17-2.07-.28-3.83,1.28-5.24,5.18-4.68,5.24-10.89,4.43-16.93-.78-5.74-.74-11.25.84-16.8,1.27-4.47,1.18-9.07.79-13.64-.26-3.1-1.71-5.57-5.2-5.61-3.45-.04-4.84,2.26-5.41,5.41-1.81,10.21-3.75,11.31-13.74,8.01-7.48-2.47-10.16-9.74-5.52-16,2.08-2.81,1.99-5.05.3-7.7-6.88-10.83-2.64-22.43-2.24-33.75.07-1.92,1.77-2.98,3.65-3.19,2.02-.22,3.69,1.07,4.01,2.73,1.23,6.42,4.62,12.22,2.84,19.52-1.71,7-.02,14.4,3.98,20.96,2.35-6.93,2.72-13.83-.09-20.64-1.35-3.26-2.51-6.56-2.61-10.06-.1-3.27,2.16-6.79,4.91-4.55,5.49,4.48,12.57,4.49,18.18,8.16,4.05,2.65,7.99,5.28,10.42,9.65.82,1.47,1.95,2.79,4.55,3.17-1.55-3.93-4.54-5.72-6.98-8.03-2.88-2.72-7.16-4.29-7.82-8.97Z"/>
  <path class="cls-20" d="M253.04,442.64c-3.8.87-4.73,3.95-5.77,7.13-4.74,14.51-12.36,27.18-24.05,37.24-15.47,13.31-37.5,11.23-50.24-4.76-7.63-9.57-11.67-20.71-14.18-32.49-.73-3.41-1.59-6.38-6.01-5.85,1.39-1.59,3.35-1.79,5.23-2.35,10.89-3.28,15.44-11.08,13.45-22.34-.6-3.41-.78-6.91-.89-10.38-.24-7.28-4.97-12.69-7.63-18.96-.76-1.79-2.13-3.6-2.13-5.4-.05-15.27-5.13-30.15-3.15-45.61,1.55-12.08,11.95-23.95,23.43-27.52,11.3-3.51,22.4-5.65,33.59-.6,15.12,6.83,28.27,16.27,26.85,34.93-.46,6.05-.09,12.05-1.98,18.07-1.2,3.83-1.34,7.91-.02,12.49,1.9,6.59-1.64,13.73-5.04,19.07-4.4,6.9-3.71,13.75-3.19,20.62.55,7.27-.18,15.7,7.98,20.1,4.48,2.41,9.17,4.43,13.76,6.62Z"/>
  <path class="cls-20" d="M742.49,587.04c-3.82.98-5.26,3.02-5.16,7.33.38,15.7,2.36,31.14,6.15,46.35,3.47,13.88,3.23,27.78,2.33,42.01-1.06,16.69-3.49,33.22-4.46,49.9-.86,14.92-2.59,29.79-3.85,44.7-.25,2.92-1.74,3.93-4.44,4.64-6.26,1.65-12.57,1-18.85.93-4.54-.05-5.26-3.37-5.57-7.27-1.35-16.85-2.26-33.85-6.67-50.2-3.2-11.84-7.9-23.29-10.58-35.34-2-8.97-2.83-18.05-2.26-27.18,1.63-26.19-5.65-50.61-14.44-74.76,5.39-3.61,11.21-.82,16.44-.18,15.15,1.85,29.9-.23,44.74-2.31,2.4-.34,4.79-.81,6.64,1.39Z"/>
  <path class="cls-20" d="M631.25,588.28c-4.68.88-6.2,4.17-7.38,8.43-3.29,11.87-8.68,23.16-9.97,35.6-.65,6.25-2.1,12.53-1.85,18.74.84,21.09-1.95,41.4-8.5,61.6-6.03,18.58-7.68,38.21-8.74,57.74-.59,10.9-3.88,13.87-14.65,12.53-1.07-.13-2.09-.61-3.16-.78-12.14-1.94-11.58-1.97-12.46-13.9-1.62-22.05-3.55-44.1-6.14-66.05-3.07-26.09-3.23-51.83,4.19-77.33,3.24-11.12,1.46-22.91,3.3-34.28.25-1.56-.74-3.31-1.16-4.98,4.61-2.43,9.4-.76,13.89,0,15.51,2.6,31.02,2.63,46.6,1.24,2.2-.2,4.35-.47,6,1.45Z"/>
  <path class="cls-14" d="M742.49,587.04c-7.5.83-15.02,1.51-22.49,2.53-15.2,2.09-30.25.06-45.32-1.43-2.32-.41-4.67-.67-6.94-1.25-4.96-1.28-9.05-3.17-6.94-9.73.47-1.45-.43-3.34-.69-5.02-1.41-5.85.5-11.89-1.03-17.72-.09-1.51-.17-3.01-.26-4.52-1.45-5.39.52-11.01-1.07-16.4-1.84-7.6-2.14-15.58-5.58-22.78-.42-1.13-.59-2.18.9-2.68,5.14,1.87,5.77,6.75,7.08,11,2.53,8.2,2.64,16.83,2.99,25.24.41,9.79,2.09,19.52,1.6,29.33-.28,5.65,2.33,8,7.72,9.23,21.87,4.99,43.68,4.03,65.56.26,5.03-.87,6.97-3.49,6.82-8.5-.22-7.4-.19-14.82,0-22.22.12-4.94-1.54-8.57-5.33-11.93-16.86-14.98-21.33-37.99-11.79-58.39,1.97-4.22,4.83-7.8,7.85-11.21,3.69-4.18,4.33-8.67,3.18-13.96-2.72-12.54-4.49-25.28-7.62-37.74-.42-1.67-1.07-3.36-.19-5.09.06-3.27.13-6.53.19-9.8,2.47-.77,2.28,1.36,2.6,2.58,4.23,15.75,7.25,31.77,10.5,47.73,1.42,6.96,1.32,7.05,7.72,4.64,2.18-.82,4.3-2.37,6.76-.78,10.42-2.58,20.68-1.67,30.84,1.41,30.53,12.95,36.44,48.44,21.62,70.27-12.43,18.31-35.79,26.25-56.2,17.9-5.12-2.09-5.66-.29-5.7,3.85-.1,8.91-.21,17.82-.43,26.73-.1,4.22-1.34,7.78-6.32,8.44Z"/>
  <path class="cls-14" d="M631.25,588.28c-5.37.42-10.74.91-16.11,1.26-16.98,1.13-33.67-1.64-50.38-3.96-10.48-.23-11.71-1.37-11.57-11.73.1-7.39.45-14.79.78-22.18.2-4.42-.75-5.9-5.62-3.9-23.4,9.58-50.09-1.44-60.66-24.7-10.17-22.39-.76-49.67,21.12-61.07,2.5-1.3,5.18-2.27,7.78-3.39,9.4-2.41,18.81-1.54,28.23-.14,3.53-1.4,6.37.65,9.21,2.08,3.29,1.65,4.72.7,5.47-2.72,1.36-6.18,2.24-12.45,3.18-18.69,2.28-15.07,6.86-29.72,8.2-44.96.15-1.76-.42-4.53,2.94-4.35-.43,8.07-.86,16.15-1.29,24.22,1.27,4.88-.69,9.46-1.63,14.05-2.26,11.1-4,22.27-5.87,33.42-.67,3.96.21,7.02,2.84,10.15,16.93,20.2,15.95,48.2-2.6,66.7-5.35,5.34-7.86,11.26-7.83,18.58.03,5.44.1,10.88-.03,16.32-.1,4.11,1.41,6.46,5.68,7.26,22.95,4.29,45.9,7.96,69.29,3.12,3.45-.71,4.86-2.3,5.01-5.6.8-17.59,2.15-35.14,4.07-52.65.53-4.85.06-10.18,5.02-13.42,1.68.35,1.25,1.54,1.05,2.63-1.97,2.99-2.55,6.43-2.82,9.85-.67,8.64-1.12,17.3-1.66,25.95-1.28,5.45.25,11.04-.84,16.5-.47,2.77-1.6,5.61-1.3,8.29.86,7.59-1.26,12.52-9.66,13.06Z"/>
  <path class="cls-18" d="M27.06,758.06c7.45-2.17,14.81-4.24,22.79-4.05,5.16.13,9.63,2.63,14.63,2.79,13.32,5.64,23.7,14.3,28.72,28.33,9.34,26.07-4.62,52.81-31.91,61.21-26.3,8.1-53.11-7.06-59.71-33.75-5.55-22.47,3.56-41.97,25.47-54.53Z"/>
  <path class="cls-14" d="M341.22,756.77c12.63-4.03,25.08-3.3,37.39,1.37,30.47,13.57,32.8,46.57,22.57,65.78-8.79,16.52-30.96,26.7-48.3,24.22-21.12-3.02-37.08-17.85-40.81-37.54-4.41-23.33,5.75-42.1,29.15-53.84Z"/>
  <path class="cls-21" d="M559.65,897.1c-3.47-.27-7-.22-10.4-.88-15.98-3.13-21.14-11.75-16.71-27.43,2.14-7.57,5.07-14.84,8.23-22.01,3.75-8.52,5.71-17.4,5.54-26.66-.24-12.78,8.22-19.72,17.53-25.61,4.44-2.81,8.83.35,10.65,4.6,2.48,5.82,6.33,7.91,12.25,7.04,4.93-.73,7.16,1.23,7.42,6.32.31,6.12,2.17,11.92,4.58,17.61,2.98,7.04.59,13.69-2.5,20.08-2.31,4.76-4.38,9.66-3.89,15,1.9,20.73-11.73,32.75-32.71,31.94Z"/>
  <path class="cls-21" d="M290.5,896.91c-4.12-.21-8.25.07-12.33-1.03-12.79-3.43-20.47-12.69-20.59-25.96-.07-7.97-1.17-15.37-5.01-22.58-3.14-5.9-3.63-12.59-.61-18.93,3.06-6.43,3.23-13.49,4.77-20.24,1.42-6.23,1.43-5.99,6.45-2.98,3.53,2.12,7.44,1.79,10.24-2.33,4.58-6.72,13.87-8.36,20.5-3.14,4.8,3.78,9.15,8.74,9.15,15.2.01,15.65,4.97,29.88,11.07,43.93,2.34,5.39,4.21,10.95,4.5,16.94.55,11.3-3,16.18-13.93,19.59-4.69,1.46-9.43,1.48-14.21,1.53Z"/>
  <path class="cls-21" d="M112.56,896.83c-4.57-.04-9.1-.11-13.61-1.31-12.05-3.22-17.24-11.54-14.02-23.66,1.56-5.87,3.35-11.77,5.89-17.27,5.54-12.05,8.58-24.53,9.24-37.79.62-12.29,10.41-20.63,22.62-20.44,3.21.05,4.58,2,5.97,4.26,4.14,6.73,6.93,7.32,12.78,2.34,1.93-1.64,2.7-.42,3.56.8,1.72,2.42,1.95,5.28,2.09,8.12.26,5.52,1.73,10.77,3.89,15.77,2.78,6.43,2.85,12.9-.19,18.94-3.73,7.4-5.99,15.1-5.55,23.23.84,15.51-12.03,27.26-28.73,27.02-1.31-.02-2.62,0-3.92,0Z"/>
  <path class="cls-21" d="M742.68,896.81c-7.29.22-14.41-.53-20.71-4.6-8.81-5.69-11.58-14.46-11.52-24.26.05-7.4-1.71-14.12-5.04-20.67-3.44-6.77-3.56-13.59.02-20.65,2.25-4.43,3.39-9.47,3.39-14.53,0-4.39,1.63-6.56,6.25-5.96,5.99.78,10.14-.81,12.82-7.12,2.62-6.16,8.78-6.83,14.07-2.63,8.68,6.88,15.07,14.57,14.38,26.92-.79,13.99,7.06,25.82,11.8,38.38,1.78,4.73,2.92,9.61,3.34,14.59.87,10.1-3.48,15.94-13.3,18.75-5.09,1.46-10.23,2.11-15.5,1.78Z"/>
  <path class="cls-20" d="M742.73,189.11c4.75,4.11,9.52,8.18,14.23,12.33,2.18,1.92,4.7,5.33,2.75,7.06-2.41,2.14-6.31-.68-7.28-3.14-2.5-6.36-8.48-8.46-13.03-12.31-1.27-1.07-2.78-1.68-4.23-1.23-3.5,1.09-5.62-.6-7.85-2.92-1.36-1.42-2.52-4.25-5.16-2.91-2.67,1.35-1.12,3.69-.61,5.76,1.82,7.47,5.68,14.58,4.17,22.66-.12.63.05,1.31-.03,1.96-.38,2.9.13,7.15-3.32,7.5-2.92.3-3.26-3.96-4.41-6.43-2.3-4.97.05-10.89-3.34-15.68-.93-1.32.28-2.48,1.41-3.19,1.49-.95,2.37-2.53,1.7-3.87-2.2-4.34-2.2-9.12-3.38-13.65-.35-1.35-.92-3.15-3-2.77-1.69.31-2.44,1.46-2.67,3.22-1.5,11.6-3.96,23.25,4.23,33.68,2.13,2.71,1.19,6.04-1.42,7.39-3.9,2.02-3.52,5.48-2.4,7.72,1.49,3,3.94,6.34,8.16,6.2,2.19-.07,4.31-.59,6.25.85,2.58,1.9,3.46.7,3.5-1.95.03-2.18.01-4.36.04-6.54.07-5.17,3.74-6.84,7.83-6.78,3.88.05,6.31,2.89,6.47,6.86.24,5.85.51,11.76-1.41,17.45-1.43,4.25-.84,8.41-.44,12.8.63,6.97,2.34,14.72-5.55,19.53-2.03,1.24-1.47,2.92.07,4.31,1.78,1.62,3.63,2.28,5.79.56,1.44-1.15,1.71-6.09,4.67-2.38,1.86,2.32.03,7.82-1.74,7.95-15.29,1.15-10.81,12.71-11.73,21.32-.35,3.32-1.3,6.35-2.68,9.31-1.07.43.12,2.9-2.08,2.32-1.04-3-.86-6.03-.26-9.07.5-11.05-.78-22.09-.29-33.15.11-2.38-.23-4.8.84-7.06,5.03-10.6,7.37-21.77,6.86-34.12-2.29,7.6-5.03,14.53-9.35,20.66-1.89,2.68-4.05,5.67-7.74,1.98-5.54-10.89-8.45-22.58-10.12-34.57-2.79-20-.88-39.84,2.37-59.62.21-1.28.15-2.6.21-3.9.85.85,1.69,1.69,2.53,2.54,11.69,6.14,18.53,18.82,31.43,23.33h0Z"/>
  <path class="cls-2" d="M293.84,601.26c5.42,3.71,6.81,9.48,8.6,15.35,1.37,4.47,4.42,8.41,6.65,12.63.67,1.26,1.93,2.74.1,3.98-1.38.93-2.31-.37-3.4-1.04-5.98-3.64-8.76-10.05-13.02-15.15-2.92-3.49-5.98-5.02-10.42-5.48-20.38-2.09-33.41,7.3-41.73,25.25-4.09,8.84-6.41,18.18-9.23,27.38-1.08,3.52-.93,7.38,2.61,10.06,2.53,1.92,2.69,4.27.96,6.84-1.75-.16-3.5-.33-5.25-.49-.25-.62-.22-1.23.07-1.82.23-.6.62-1.26.49-1.87-5.08-23.31,5-42.07,19.13-58.76,9.73-11.5,23.89-12.14,38.02-10.13,1.93.27,3.76,1.08,5.75,1.07.47,0,.86-.15,1.35-.71-.29-3.44-5.53-4.33-4.83-8.42,1.98-1.47,3.14-.32,4.15,1.3Z"/>
  <path class="cls-20" d="M229.89,679.61c-.09.33-.15.66-.19.99-8.97-.07-17.07-3.8-25.49-6.16-3.27-.92-5.84-.96-9.14.59-6.36,2.98-12.96,5.79-20.27,5.69-.39-.67-.34-1.31.13-1.92,7.4-4.05,15.83-5.44,23.43-8.99,1.39-.65,3-.17,4.45.28,7.64,2.34,15.31,4.57,23.03,6.62,1.69.45,3.3,1.11,4.04,2.91Z"/>
  <path class="cls-20" d="M742.72,189.11c-9.32-.4-13.47-8.81-20.28-13.11-3.37-2.13-4.74-6.96-10.61-5.69-2.84.62.02-2.96-.54-4.53,3.53-.86,5.88,1.63,7.95,3.51,7.59,6.9,14.43,14.65,23.48,19.82Z"/>
  <path class="cls-20" d="M639.04,6.11c-2.68,1.9-5.75,3.04-8.91,3.41-5.21.61-8.89,3.85-12.86,6.66.18-3.37,2.78-4.75,5.3-5.72,5.31-2.04,10.6-4.36,16.47-4.34Z"/>
  <path class="cls-11" d="M174.63,679.65c.09.35.15.71.18,1.07-1.77.05-3.54.09-5.31.14-1.16-2.12-1.59-4.04,1.38-5.02,1.63.9,2.87,2.18,3.75,3.81Z"/>
  <path class="cls-9" d="M652.33,508.24c-3.62-1.26-4.25,1.49-5.17,3.84-5.69,8.26-3.98,18.04-5.15,27.12-1.74,13.57-2.16,27.32-2.93,41.01-.2,3.46-1.4,4.68-4.94,5.32-24.92,4.54-49.37,1.27-73.83-3.57-3.84-.76-5.15-2.18-4.99-5.92.34-7.83.37-15.68.6-23.52.16-5.39,1.7-9.93,6.29-13.56,20.26-16.02,21.05-50.78,2.5-68.04-1.48-1.38-2.68-2.88-2.28-5.11,3.13-17.3,4.88-34.87,10.11-51.75,10.44,1.89,20.44,5.5,30.94,7.29,26.08,4.42,52.11,5.23,78.44,2.31,16.66-1.85,32.95-4.89,48.99-9.58,4.36,10.28,4.87,21.5,7.82,32.11,3.52,12.67,1.42,22.51-7.15,33.73-13.85,18.15-7.74,45.81,10.4,60.14,3.39,2.68,4.9,5.56,4.71,9.97-.4,9.13-.39,18.29-.25,27.43.07,4.19-1.23,6.19-5.63,7.03-24.22,4.64-48.34,5.22-72.49-.52-4.26-1.01-5.29-3.37-5.44-7.44-.66-18.24-1.15-36.52-3.98-54.59-.8-5.09-2.21-10.18-6.6-13.69Z"/>
  <path class="cls-19" d="M716.3,261.33c2.54,1.03,4.23.68,5.83-2.02,3.79-6.38,7.72-12.63,8.79-20.15.33-2.28,1.04-5.01,3.53-4.45,2.61.58,1.61,3.57,1.42,5.68-1.08,11.91-2.7,23.6-8.23,34.56-1.6,3.18-.45,7.7-.71,11.6-.58,8.82,1.34,17.73-.97,26.49-1.05-7.26-1.79-14.57-1.33-21.88.52-8.2-.79-15.74-5.58-22.64-1.42-2.05-1.87-4.76-2.76-7.18Z"/>
  <path class="cls-16" d="M576.38,319.52c.24-11.94-2.12-23.8-1.11-35.74.42-4.97-.17-9.3-2.38-14.12-4.25-9.28-5.84-19.46-5.52-29.79.05-1.61-.73-4.05,1.54-4.44,3.14-.54,2.38,2.59,2.72,4.15,1.79,8.24,5.57,15.4,10.83,21.93,1.06,1.32,1.88,1.47,3.2,1.06-10.78,14.79-8.03,31.81-8,48.39,0,2.99.6,6.06-.65,8.97l-.17.15c-.19-.16-.34-.35-.46-.56Z"/>
  <path class="cls-20" d="M576.83,320.08s.17-.16.17-.16c1.14,5.45,1.29,10.9.08,16.36-.91-5.39-.58-10.8-.26-16.2Z"/>
  <path class="cls-7" d="M280.96,562.85c-.34-2.51-2.06-3.81-3.86-5.48-5.9-5.46-12.85-10.27-14.7-18.93,1.48,1.78,2.96,3.55,4.73,5.67,2.06-8.33-2.39-17.31,4.26-24.86,3.04,4.71,1.2,9.7,2.09,14.26,1.61,8.2,7.18,14.91,8.03,23.3.21,2.1,1.45,4.18-.55,6.03Z"/>
  <path class="cls-9" d="M281.75,593.43c2.84,2.19,5.69,4.38,8.53,6.57.88,2.41,3.19,3.48,4.88,5.11,1.62,1.57,3.55,3.25,2.21,5.53-1.27,2.15-3.51.68-5.32.2-13.67-3.67-26.85-3.26-38.61,5.54-9.07,6.79-13.67,16.83-17.66,26.99-2.45,6.24-4.28,12.78-5.74,19.34-.96,4.32-1.91,8.93,2.16,12.82,3.57,3.4-.21,3.45-2.31,4.08-9.17-2.65-18.36-5.28-27.52-7.97-1.96-.57-3.88-.81-5.68.26-6.83,4.09-14.59,5.49-22.06,7.75-2.06-.47-3.69-1.37-3.75-3.81,0,0,0-.02,0-.02,2.45-11.03-2.24-20.91-5.28-30.97-1.56-5.15-3.79-10.17-6.48-14.95-9.87-17.54-22.9-23.97-42.72-20.82-2.21.35-4.58.42-6.01-1.56-1.57-2.18.23-4.15,1.18-6.02.9-1.79,2.41-3.07,4.19-4,.48-.42.95-.84,1.43-1.26,3.74-3.9,7.87-6.88,13.7-6.01,12.29-4.96,22.86-.3,33.08,6.01,7.17,4.43,14.21,9.09,21.37,13.55,15.17,9.43,26.12,3.42,36.94-4.23,13.87-9.8,28.93-17.56,46.51-18.5,5.4-.06,8.78,3.97,12.96,6.38Z"/>
  <path class="cls-11" d="M115.76,597.49c-.87.94-1.78,1.84-2.6,2.82-1.58,1.88-3.18,4.21-1.95,6.43,1.23,2.25,3.95.93,5.98.64,17.17-2.48,30.91,3.21,40.28,17.79,8.43,13.13,13.06,27.8,14.72,43.32.26,2.42,1.12,5.24-1.29,7.32-.81-19.76-6.79-37.85-18.55-53.72-7.61-10.27-18.87-13.21-31.15-12.97-2.98.06-4.64,2.25-6.12,4.38-3.46,4.98-6.72,10.09-10.15,15.09-1.34,1.96-2.87,3.8-4.44,5.58-1.49,1.7-3.66,3.48-5.58,1.81-2.25-1.95.91-3.13,1.77-4.58,4.76-7.99,9.78-15.74,11.74-25.16.74-3.58,1.92-8.37,7.35-8.76Z"/>
  <path class="cls-3" d="M125.96,565.54l-.59.14s-.58-.19-.58-.2c-2.87-7.4,1.67-13.58,4.1-19.68,2.93-7.37,5.52-14.51,5.33-22.5-.03-1.37-.67-3.48,1.42-3.77,1.88-.26,2.04,1.74,2.66,3.11,1.71,3.75.89,7.71,1.17,11.68,1.96.59,1.9-2.11,3.43-2.14-1.47,8.81-7.12,15.38-12.4,21.96-2.82,3.51-4.99,6.81-4.54,11.4Z"/>
  <path class="cls-4" d="M626.08,114.83c3.07,1.31,4.81,3.54,6.43,5.82,3.06,4.32,6.41,8.1,11.76,9.77,8.38,2.61,16.05.27,21.28-6.77,2.07-2.78,4.16-5.54,6.35-8.22.79-.97,1.9-2.27,3.25-1.35,1.18.8.85,2.38.44,3.63-1.43,4.31-2.72,8.68-4.47,12.86-1.18,2.82-1.75,7.45-6.94,4.09-.59-.38-2.02.5-3.05.82-12.97,3.97-28.08-1.99-34.87-13.61-1.42-2.42-2.02-4.56-.19-7.03Z"/>
  <path class="cls-15" d="M237.86,375.34c-2.25-8.33-5.68-15.16-5.67-23.3.01-12.07-3.46-14.93-15.06-16.65-14.53-2.16-28.59,1.66-42.87,2.67-6.74.48-8.01,6.14-8.04,11.7-.03,6.69.94,13.4-1.09,19.98-.4,1.29.01,3.16-1.9,3.36-1.69.18-2.38-1.35-2.96-2.65-1.17-2.62-3.02-5.21-3.26-7.93-1.39-16.12-1.8-32.14,8.29-46.26,2.89-4.05,6.29-7.04,11.43-7.97,3.99-.73,7.95-1.88,11.76-3.29,13.98-5.18,26.1-.48,38.14,6.34,18.74,10.62,20.48,27.32,16.96,45.9-1.11,5.85-.91,12.28-5.76,18.11Z"/>
  <path class="cls-6" d="M226.92,416.78c-2.42,7.7-4.41,14.22-6.55,20.69-.31.93-1.46,2.41-1.95,2.31-8.25-1.67-16.27,4.53-24.74.24-7.99-4.05-14.77-9.09-19.08-17.08-.31-.57-.62-1.16-.8-1.79-.37-1.27-.73-2.84.45-3.63,1.35-.9,2.42.45,3.26,1.38,1.45,1.61,2.82,3.29,4.12,5.02,10.37,13.76,25.32,16.94,37.3-.14,1.83-2.61,3.59-5.16,7.98-7.01Z"/>
  <path class="cls-17" d="M779.38,504.14c-.3,3.61-2.58,6.57-7.51,6.9-4.82.32-8.29-3.07-8.21-7.9.08-4.6,2.55-7.31,7.03-7.77,4.58-.47,8.57,3.25,8.69,8.77Z"/>
  <path class="cls-13" d="M531.94,511.17c-5.27-.17-8.96-2.31-8.79-7.59.15-4.82,3.46-8.17,8.31-8.1,4.81.06,8.1,3.41,8.2,8.25.1,4.86-3.28,7.13-7.72,7.44Z"/>
  <path class="cls-8" d="M39.89,800.81c-.05-5.53,3.16-7.8,7.65-8.35,3.75-.46,8.41,4.59,7.98,8.56-.5,4.6-3.33,7.94-7.92,7.87-4.84-.07-8.02-2.99-7.71-8.07Z"/>
  <path class="cls-12" d="M365.8,801.09c.07,4.53-3.62,8.24-8.34,7.98-4.57-.25-7.14-2.97-7.3-7.53-.18-5.15,2.95-8.12,7.59-9.06,3.54-.71,7.98,4.43,8.05,8.6Z"/>
  <path class="cls-20" d="M716.27,246.45c-1.88-2.41-2.94-4.21-1.68-6.96,2.07,1.83,3.85,3.36,1.68,6.96Z"/>
  <path class="cls-10" d="M667.96,4.51c2.54,1.94,4.9,4.24,7.67,5.78,16.6,9.22,16.99,24.61,15.29,40.54-.67,6.27-1.77,12.66-4.96,19.91-3.34-8.02-6.29-14.4-6.25-22.07.07-12.1-4.43-15.8-16.26-16.78-13.6-1.13-26.81,1.7-40.15,3.05-7.37.74-7.81,7.43-7.39,12.91.59,7.87-.49,15.4-1.88,24.46-4.52-6.36-7.68-11.53-7.92-18.33-.45-13.28.06-26.29,6.83-38.23.63-1.09,1.26-2.19,1.9-3.29,5.07-7.62,13.92-7.29,21.28-10.09.62-.24,1.35-.2,1.93-.63,10.44-4.09,20.13-.04,29.93,2.78Z"/>
</svg>