<?xml version="1.0" encoding="UTF-8"?>
<svg id="Layer_1" data-name="Layer 1" xmlns="http://www.w3.org/2000/svg" viewBox="0 0 1080 1080">
  <defs>
    <style>
      .cls-1 {
        fill: #939393;
      }

      .cls-2 {
        fill: #bcbdbc;
      }

      .cls-3 {
        fill: #4a4d4c;
      }

      .cls-4 {
        fill: #0f0f0f;
      }

      .cls-5 {
        fill: #0c0d0c;
      }

      .cls-6 {
        fill: #545454;
      }

      .cls-7 {
        fill: #f5cba7;
      }

      .cls-8 {
        fill: #e7b48d;
      }

      .cls-9 {
        fill: #747474;
      }

      .cls-10 {
        fill: #575857;
      }

      .cls-11 {
        fill: #fccaa3;
      }

      .cls-12 {
        fill: #f5cba9;
      }

      .cls-13 {
        fill: #4a4c4c;
      }

      .cls-14 {
        fill: #949392;
      }

      .cls-15 {
        fill: #355b76;
      }

      .cls-16 {
        fill: #4b4b4b;
      }

      .cls-17 {
        fill: #bcbcbc;
      }

      .cls-18 {
        fill: #959494;
      }

      .cls-19 {
        fill: #c1997a;
      }

      .cls-20 {
        fill: #292929;
      }

      .cls-21 {
        fill: #4a4b4b;
      }

      .cls-22 {
        fill: #d3a785;
      }

      .cls-23 {
        fill: #282828;
      }

      .cls-24 {
        fill: #717372;
      }

      .cls-25 {
        fill: #4c4c4c;
      }

      .cls-26 {
        fill: #929292;
      }

      .cls-27 {
        fill: #717373;
      }

      .cls-28 {
        fill: #909090;
      }

      .cls-29 {
        fill: #737474;
      }

      .cls-30 {
        fill: #bbd1dd;
      }

      .cls-31 {
        fill: #282928;
      }

      .cls-32 {
        fill: #929495;
      }

      .cls-33 {
        fill: #292829;
      }

      .cls-34 {
        fill: #575958;
      }

      .cls-35 {
        fill: #595959;
      }

      .cls-36 {
        fill: #5a5a5a;
      }

      .cls-37 {
        fill: #939292;
      }

      .cls-38 {
        fill: #929191;
      }

      .cls-39 {
        fill: #d84140;
      }

      .cls-40 {
        fill: #fbcaa3;
      }

      .cls-41 {
        fill: #737574;
      }

      .cls-42 {
        fill: #c7d4d8;
      }

      .cls-43 {
        fill: #bdbcbc;
      }

      .cls-44 {
        fill: #f1bc97;
      }

      .cls-45 {
        fill: #909092;
      }
    </style>
  </defs>
  <path class="cls-11" d="M284.87,601.96c-2.11.36-6.51,1.46-9.16,2.03l9.16-2.03Z"/>
  <g>
    <path class="cls-31" d="M556.52,388.65c1.6-.17,2.58,1.01,2.94,3.55l3.71,3.05c5.46,11.08,9.24,15.77,22.06,17.64,4.96,1.63,8.63,5.82,2.73,8.88-5.87,1.57-12.31,4.79-6.35,11.03l.35,2.57c4.29-.54,18.2,2.62,17.82,7.75-.22,2.86-14.04,17.68-17.82,11.55l-23.8,2.35c-3.89,2.81-9.68,5.26-15.34,4.56.55,4.15-2.72,15.82-5.26,7.31,1.24-6.23.44-10.96-2.41-14.22-12.03-9.23-15.18-48.23-4.63-59.98,1.16-1.29,10.41-8.06,11.79-8.54,3.31-1.13,12.48-.33,14.2,2.49Z"/>
    <g>
      <path class="cls-23" d="M900.41,395.76c.9.89,4.12,6.04,4.25,6.61,1.37,6.12-2.43,37.93-5.65,42.24l-2.67,1.94c.74.26,1.83.77,1.74,1.3-.48,2.93-4.65,15.48-6.49,16.96-2.28,1.84-9.9,1.45-12.55.02-.77,6.65-1.02,13.36-.73,20.11.63,7.91-7.85,1.2-4.36-2.84,1.46-2.51,3.81-.39,1.81.66-.71-5.75-1.04-11.66-.99-17.75-2.39-1.75-29.44-2.58-32.36-.18-12.33.34-26.89.68-39.78-.71s-24.2-3.89-33.47-12.5c-5.5,1.25-15.56-2.97-19.33-7.11-3.3-1.66-1.3-3.59,5.98-5.77,24.36-8.17,33.94-32.32,20.16-53.85-9.61-1.58-12.22-3.38-7.83-5.39,6.17-1.17,13.88-3.33,19.94-3.95,12.56-1.29,29.15,11.17,42.91,12.81,11.06,1.32,23.2-.58,34.29.3,11.22.89,23.71,5.21,35.12,7.09Z"/>
      <path class="cls-11" d="M678.61,222.07c3,2.02,5.28,5.45,6.85,10.28,2.7,3.04,4.15,6.05,4.34,9.02,1.32-.32,2.35-.5,2.03,1.02.05.11-.99,1.39-.66,2.32,9.99,28.26,2.49,67.11,1.63,96.68-.28,9.85,1.14,19.65,1.06,28.99.89,11.57.28,24-.79,35.5l3.23,3.19c14.7,6.49,17.72,13.39,13.48,28.96-.92,3.38-3.17,9.52-5.75,10.56.09,3.68-2.05,5.43-5.53,6.9l-13.8,2.24c-11.66.69-23.31.59-34.94-.29-14.89-3.97-15.68-33.9-9.83-45.41l-.73-2.41c9.6-8.84,11.74-23.14,11.32-35.46l1.62-1.75-1.53-2.35c2.49-11.54,6-22.73,10.52-33.57l1.22-25.73c5.6-21.63,7.36-43.21,5.26-64.74l-15.48.25-2.02-1.84c-.22-1.36-.1-2.53,1.24-2.61l13.38-1.06c5.21.11,4.59-2.47,2.39-6.27-17.53-15.39-17.78-25.28-.74-29.67.36.25,3.21,2.05,3.41,2.03,2.34-.19,7.79-.68,8.8-3.05-.75,6.07-.75,12.17,0,18.28Z"/>
      <path class="cls-11" d="M900.41,395.76c3.83.63,1.64,1.75,3.21,4.4s14.92,5.12,18.87,6.57c9.88,3.62,20.04,7.15,23.95,17.74,6.98,18.89,2.18,75.9,1.74,98.72-.21,11.17-.07,22.44,0,33.61.02,3.13,2.63,6.64-2.55,7.57-3.79.68-7.49-2.42-10.63,0-2.39,1.93-9.32,1.48-11.19-1.02l-2.13-2.54c1.11-11.29.17-22.27-2.82-32.93-9.57-24.25-12.97-50.15-9.29-75.89-3.1-2.6-7.55-4.16-11.66-3.96l-1.58-1.5c3.9-13.37,7.81-31.35,6.16-45.25-.27-2.25-1.62-3.48-2.09-5.54Z"/>
      <path class="cls-39" d="M743.73,376.46c6.63,1.53,14.28,5.04,20.35,4.06,3.07,2.1,6.89,3.46,11.46,4.08,6.63,4.07,7.59,24.97,5.18,31.87-3.55,10.16-10.97,14.94-20.01,19.93-2.21,1.22-13.19,6.35-13.91,6.05-.41-.17-.73-.54-1.02-.98l-.99,1.09c-13.48,1.64-26.53,4.51-39.15,8.61l-.57-.68c6.78-16.18,12.94-33.49-8.08-41-3.6-1.63-6.29-6.7-2.08-8.15-.68-.1-1.21-.2-1.21-.31-.18-9.24.55-19.16,1.21-28.13-.39-2.47,8.22-3.26,11.22-3.36,12.8-.42,25.57,2.84,37.61,6.92Z"/>
      <path class="cls-40" d="M608.41,253.56c4.25-.32,7.37,1.87,2.55,4.41-1.87,20.55-4.13,41.34-6.79,62.38,1.61,21.41,2.21,43.73-3.37,64.53l3.5,3.41c2.76-1.43,5.97-2.74,5.13,1.37,1.07,1.63.45,2.4-.63,3.63,4.02-1.86,6.94-2.06,8.76-.59,18.82-3.41,14.8,12.11,9.94,23.1-3.33,12.88.3,25.46,4.31,37.75l-2.12.67c-10.79-2.33-21.1-5.7-30.94-10.12,1.25-7.58-11.18-8.43-16.8-8.73-4.74-2.23-6.51-8.35-2.42-12.08,3.7-3.37,17.37-3.6,3.72-9.02-3.11-1.23-6.91-1.36-9.67-2.54-6.91-2.94-7.86-9.68-11.97-15.19-.98-1.32-2.89-1.62-3.98-3.45-.99-1.67-.85-4-1.12-4.45,3.15-.96,7.33-.54,10.23-1.46,2.54-.81,10.79-9.27,13.21-7.25,2.12,1.76.13,5.23,6.81,6.44,4.21.76,9.37,1.61,10.79-2.96,2.06-6.62,4.76-29.68,4.81-36.9.08-11.47-1.95-23.57-1.07-35.55.51-6.9,3.19-14.76,3.95-21.45,1.27-11.21,1.96-22.68,2.14-33.93-3.03.12-6.13-.17-9.16,0-.89-.29-.88-.63,0-1.02.25-.9.59-.88,1.02,0,1.21-2.06,3.58-2.06,7.12,0,.24-1.4.83-1.83,2.03-1.02Z"/>
      <path class="cls-39" d="M923.81,563.36c3.11-.49,8.35-.26,11.19,1.02,2.05.92,4.73,4.48,7.76,4.78,3.71.37,16.9-2.21,19.42-1.02,2.16,1.02,7.77,9.13,10.97,11.48,4.67,3.42,9.95,4.77,15.56,5.8,7.11,1.3,25.21.11,21.38,12.78-3.18,10.52-30.34,8.9-39.02,8.89-15.82-.02-29.2,5.06-44.74,4.01-1.6-.11-3.03-.71-4.56-1-2.6-.08-6.69-4.31-7.65-5.98-1.07-1.85-1.84-13.13,1.55-13.32-1.32-1.25-1.66-3.28-1.02-6.09,1.45-4.21,1.45-7.93,0-11.17l2.71-7.58c1.42-2.81,3.85-5.42,6.45-2.58Z"/>
      <path class="cls-39" d="M743.73,376.46c-12.44-2.88-27.41-7.2-40.06-5.96-2.68.26-7,.69-8.78,2.41v28.44c0,.83-1.89,1.97-.56,4.57,6.78,7.1,15.89,6.06,17.61,17,1.06,6.74-.13,12.28-2.31,18.54-1.13,3.24-4.27,5.38-3.55,9.14,3.35.66,5.16-3.01,7.88-3.8,9.51-2.77,22.3-3.38,31.79-5.33,2.73-.33,3.01.11,1.02,2.03l-2.28,1.95c-10.24.99-20.25,3.31-30.04,6.98-4.59,1.67-14.92,3.52-10.41-3.85,5.24-6.61,9.66-25.63,3.11-32.06-3.06-3.01-14.05-6.42-15.16-10.33-.71-2.51.84-5.2.9-7.85.19-9.24.89-19.03.97-27.97,5.8.24,13.11-2.57,18.72-1.98s15.39,2.81,21.21,4.27c2.91.73,7.61,1.98,9.93,3.8Z"/>
      <path class="cls-39" d="M768.15,379.51l-1.03,2.56c4.79,1.21,10.71,0,12.75,5.55,3.38,9.18,4.17,25.5-.35,34.22-5.1,9.83-18.74,15.18-28.22,19.56-1.83.85-3.22.92-1.46,3.12-1.79,2.34-3.22,1.92-3.05-1.02l-1.02-2.03c13.18-2.71,32.49-14.3,35.15-28.39,1.13-6.01-.69-25.35-6.66-27.99-2.8-1.24-12.64-.55-10.18-4.57.8-.13,2.56-.73,4.07-1.02Z"/>
      <path class="cls-5" d="M842.42,464.83c-2.04-2.69.75-2.92,2.49-3.1,5.33-.55,14.96-.36,20.44,0,1.58.11,10.26,1.2,10.71,1.5,2.15,1.45.35,16.88.95,20.38l-3.06-1.52c-5.57-5.69-20.7-14.04-28.49-15.24-.33-.05-.68.04-1.02,0-.64-.54-1.36-1.72-2.03-2.03Z"/>
      <path class="cls-44" d="M627.74,248.48l-3.12,4.51c1.34,13.92,6.13,29.02,7.17,42.74,1.34,17.66-2.88,35.26,1.08,52.75l-1.07,29c-7.69,3.21-15.23,7.94-22.38,12.19-1.25-2.45-3.94,1.35-5.5.95-.38-.1-5.55-5.11-5.58-5.5-.03-.34,1.7-2.45,1.88-4.13,1.01-9.63,2.54-19.75,3.09-29.42.73-12.78-1.93-26.59-.99-38.57,1.04-13.24,4.86-27.82,6.08-41.67.44-5.01-2.57-16.26,4.08-15.75l-4.07-2.02c3.91-2.33,8.75-3.22,13.3-3.9.82-3.26,3.44-2.99,6.04-1.18Z"/>
      <path class="cls-39" d="M888.2,557.27c10.5,10.1,13.77,10.58,26.45,16.25,1.69.75,2.89.76,3.14,2.48.41,2.84.12,7.82-3.14,8.7.06.5.07.98-.08,1.41-.45,1.35-11.62,2.67-12.13-.4-7.25.42-9.47-.31-16.28-1.02-2.2-.69-2.54-1.36-1.02-2.03l-2.15-1.26c-.23-7.71-.31-15.47,1.21-23.03l1.96-1.1c.34.2,1.44-.13,2.03,0Z"/>
      <path class="cls-42" d="M914.65,584.69c3.63,1.25,1.08,4,1.02,6.09-3.99-1.25-9.12-.45-12.85-1.93-2.7-1.06-1.36-1.29-.38-3.15,3.05-.18,9.65-.33,12.21-1.02Z"/>
      <g>
        <path class="cls-34" d="M678.61,203.79c.48-2.72.29-8.19,3.06-9.64,8.1-1.26,28.35-7.48,35.14-3.62.88.5,13.24,14.04,13.52,15.01.25.86-1.63,13.84-1.99,15.9s-2.45,13.25-3.1,13.68c-11.16,1.96-22.71,3.9-33.41,7.27-.04-.1-1.13-.17-2.03-1.02l-.54-1.3c4.37-2.2,9.51-3.66,15.42-4.37l-10.54-15.09c-2.98-7.72-3.07-16.35-.25-25.9-8.87.08-13.05,3.63-12.54,10.66l-.62,15.21-2.12,1.49c-2.8-7.33-1.37-10.48,0-18.28Z"/>
        <path class="cls-36" d="M666.4,204.8c.58,2.75-1.39,2.04-2.84,2.7-23.16,10.53,10.89,21.03,6.78,33.22-1.17,3.46-17,1.51-20.22,3.7-2.17,3.34-9.12,4.6-12.21,2.03-.89-.29-.88-.63,0-1.02,1.03-1.99,3.43-3.29,7.2-3.9-4.65-5.2-8.98-10.81-12.99-16.83l4.19-19.49c-2.91-.06-5.08-.87-6.53-2.44-5.68,1.93-11.28,2.61-17.27,2.8l-2.06-1.79c-2.45,3.34-13.03,7.05-16.28,4.06-1.42,4.1-5.06,1.68-7.12,0l28.12-5.95c8.42-.51,16.38-1.23,24.32-2.13,6.05-.69,12.38-.33,18.34-2,1.96.1,6.24,5.39,8.57,7.03Z"/>
        <path class="cls-23" d="M573.82,211.91c4.51-2.53,20.01-7.12,17.05,2.19-5.29,16.64.13,25.21,9.48,38.29l-1.09,2.19c-.34.04-.68-.04-1.02,0-5.61,1.27-11.38,1.95-17.3,2.03-3.41-1.79-10.63-16.84-11.11-20.92s2.22-19.76,3.99-23.77Z"/>
        <path class="cls-6" d="M587.05,207.85c2.23-.29,4.9.3,7.12,0l1.5,2.85c-1.5,7.93-2.24,16.23-.07,24.08,1.95,7.02,5.75,13.96,10.77,17.76,2.19.12,1.63.81,0,2.03-2.08.37-4.89-.24-7.12,0-1.87-5.73-11.16-15.61-12.16-20.87-1.42-7.51,2.33-17.1,1.98-24.84l-15.26,3.04c.19-.44-.56-1.74.68-2.05,4.12-1.18,8.33-1.46,12.55-2.01Z"/>
        <path class="cls-6" d="M598.24,254.57v1.02c-4.36.25-14.37,2.55-17.3,1.02,5.61-1.56,11.57-1.42,17.3-2.03Z"/>
        <path class="cls-20" d="M678.61,222.07c.42-6.05-.11-20.29,2.57-25.37.91-1.72,14-4.81,14.73-4.09.44,7.33-3.63,16.55-1.79,23.63.99,3.82,13.53,17.9,12.98,20.54-.49,2.37-14.67,1.97-17.3,4.59-5.36-4.98-8.55-12.38-11.19-19.3Z"/>
        <path class="cls-35" d="M629.78,202.77c1.21,2.1-.33,3.51-4.65,4.24-.82.53-4.38,16.95-4.65,18.91-.71,5.15,8,23.88,15.44,17.91l1.99,1.61v1.02c-2.77.46-7.18,1.42-10.17,2.03-6.44,1.31-12.95,3.68-19.33,5.08-.62.14-1.38.9-2.03,1.02v-2.03l.76-2.15,11.31-3.01-11.83-19.57,1.69-22.75,2.14-1.27c5.94-.86,13.79-.75,19.33-1.02Z"/>
        <path class="cls-31" d="M610.45,203.79l-1.88,23.63c.88,2.72,14.23,21.07,13.07,22.07-5.17-.92-10.47,2.61-15.26,3.05-1.08.1-3,.3-3.84-.22-11.18-14.39-12.07-26.92-8.37-44.47,4.95-.66,10.5-3.22,16.28-4.06Z"/>
        <path class="cls-31" d="M629.78,202.77c3.49-.17,6.75-.15,10.17-1.01-3.64,6.74-3.27,15.29-5.98,22.63,2.07,2.85,4.95,5.56,7.01,8.35.68.92.32,2.16.98,3.04,1.34,1.79,5.49,4.65,6.12,6.11.75,1.73-.65,1.34-1.39,1.61-2.64.98-6,1.38-8.78,1.93s-7.27,2.48-9.44,1.08c-1.46-.94-9.44-13.76-9.83-15.87-1.1-6.05,1-7.83,1.87-12.23.58-2.92,1.1-9.64,2.31-11.91s5.16-1.58,6.94-3.73Z"/>
      </g>
    </g>
    <g>
      <path class="cls-17" d="M884.13,553.2c-2.5.6-12.53,1.34-13.97-1.07-.43-11.96-.43-23.94,0-35.94-.37-8.66-1.92-18.7-8.41-25.01-2.78-2.7-9.21-7.52-11.21-6.04-1.16,1.07-2.18.39-3.05-2.03-.74-.42-.97-1.69-3.19-2.38-12.81-3.96-30.73-.33-44.08.39-52.95,2.83-105.89,6.17-158.77,10.1-18.17,1.35-44.81.75-61.77,5.37-11.48,3.12-23.3,20.56-24.96,31.96-3.61,24.73-2.07,56.63-2.23,82.08-.03,4.07-2.71,5.12,2.29,7.79,5.69,3.04,35.2,10.45,36.89,14.03.93,1.96-1.9,14.38.02,18.29-1.12,1.52-14.95,1.23-17.88.98-1.29.25-1.44-.48-.44-2.18l-.08-15.73c-1.73-2.91,2.39-3.59,5.04-3.52-9.82-3.22-19.25-6.87-28.29-10.94-5.96.91-9.57-.64-10.83-4.67.24-19.79.15-39.63-.29-59.51-.63-33.47,14.95-69.84,52.8-71.5,84.31-3.08,168.89-8.68,253.73-16.8.25-.44.51-.86.84-1.23,2.29-2.53,28.88,11.9,28.16,15.07-.11.48-.3.94-.52,1.4.6.61,1.46,4.84,4.06,5.08.8-4.43-1.48-19.85,1.03-22.35l2,1.23-.75,23.18c4.38,20.12,6.08,40.77,5.09,61.94l-1.25,2.03Z"/>
      <path class="cls-38" d="M844.45,466.87c.25-.89.59-.87,1.02,0-3.15,1.03-8.41,1.83-11.71,2.02-63.89,3.73-127.44,11.22-191.22,14.27-25.35,1.21-53.8-4.19-75.78,10.69-36.97,25.04-22.52,81.85-25.55,119.84-.15,5.52,5.65,2.74,9.48,3.74,1.26.33,2.36,1.83,3.8,2.3,10.98,3.59,22.14,7.18,32.55,12.2-2.73,1.57-11.17-.85-12.78,1.45s.25,14.69-.44,18.35c-4.43-.38-4.34-1.81-5.09-2.03,2.73-.45,2.33-15.13,1.76-15.73l-65.82-24.38-1.05-2.56c3.2,2.4,3.29,14.09,0,16.25l1.64-1.53c21.03,8.53,42.06,17.06,63.1,25.59l.37,2.34c-.97-.28-2.48.04-4.03-.5-20.99-7.34-40.91-18.01-62.1-24.89v-18.28c5.38,1.52,11-.27,15.73-.05,4.46.21,7.19,3.99,11.74,3.1.41-14.03-.53-28.17-.04-42.2.53-15.21,1.48-44.06,7.79-57.23,4.72-9.85,17.08-18.74,25.8-25.01-2.57-1.3-5.69-3.39-8.12-4.57,1.5-3.35,10.09-.19,10.17,3.05,2.9.52,5.31.79,7.16-1.91,84.28-1.95,171.43-7.95,254.02-16.07,6.29-.68,12.16-.1,17.59,1.73Z"/>
      <path class="cls-37" d="M884.13,553.2c1.94-3.23,6.34,1.57,4.07,4.06-.4,2.69-1.19,2.57-2.03,0-3.78-.92-8.1-1.67-12.66-1.03l-1.58-2.02-1.11,2c-5.88-.84-11.92.03-17.2,1.05,1.36,1.49.76,2.06-1.02,1.02.63-1.47-.18-4.31,3.05-5.08.29-2.43,1.42-2.42,3.48-2.27,2.03-20.7,3.01-44.89-8.88-63l.31-2.79c-.49-2.91,1.23-2.35,3.11-1.59,26.9,10.86,15.98,45.7,18.4,67.98,1.05,3.21,9.19,1,12.07,1.67Z"/>
      <path class="cls-45" d="M854.62,577.58c4.68-1.51,14.18,1.86,17.6,5,4.97.2,9.62.91,13.94,2.11,1.9-1.89,4.94-2.23,9.13-1.01,3.45-.49,5.83.19,7.15,2.03,3.27,1.98,7.41,2.91,12.42,2.78l.8,2.3c-.24,8.11-1.86,14.78,6.1,19.3-1.09-.21-2.73.48-3.83-.22-.59-.38-1.68-3.76-2.78-3.82-2.72-.15.24,5.76-1.47,6.62-1.97.83-4.54,1.05-6.16-.54,2.76-1.54,3.67-12.38-.1-13.65-26.94-7.31-53.68-13.79-80.21-19.44-.13,3.42-.14,6.71-.02,9.9,26.32,6.05,53.16,12.83,78.62,21.19l1.71,2-82.44-20.8c-1.61-1.19-1.61-13.67,0-15.29,3.53-3.57,17.58-.85,22.4.54-.65-3.3.33-5.42,1.02-8.13,2.03.44,2.69,2.77,1.98,6.97,2.53-.23,3.9.5,4.12,2.18Z"/>
      <path class="cls-16" d="M535.16,454.68c.46.36,2.3-.25,2.9,1.65.74,2.31.04,7.2.15,10.04.05,1.37-.84,4.23,1.52,3.55,1.22-.35.17-9.26.52-11.18,6.83,2.78,10.61-.94,15.86-1.94,8.44-1.6,17.28-2.24,25.85-2.13l-2.45,2.65-13.74,1.78c2.15.25,3.93.5,4.99,2.68,3.51.76,3.56,9.02,3.43,12.6.74,7.22-1.06,10.11-8.51,8.73-3.41-.87-6.6-2.75-10.17-3.05-5.67-2.76-9.54-2.56-14.24-4.58-8.55-3.66-.6-14.66-6.11-20.82Z"/>
      <path class="cls-7" d="M847.5,483.12c1.49.85,1.28.08,3.05,2.03,12.5,13.75,12.79,44.53,11.07,62.34-.8,8.27-1.24,4.59-5.98,5.71,2.06-23.97-5.2-46.68-8.14-70.09Z"/>
      <path class="cls-39" d="M853.61,557.27l3.03-1.22c1.37.38,3.56,21.27-2.02,21.53-1.16-.45-4.43.82-5.66-.95-1.15-1.64-.14-6.03-.44-8.19.99-3.88,2.53-6.57,4.07-10.16.34-.33.74-.63,1.02-1.02Z"/>
      <path class="cls-9" d="M842.42,464.83c2.46-1.69,3.39-.54,2.03,2.03-12.28-1.39-30.56,2.21-43.2,3.09-75.25,5.27-150.15,12.36-225.95,13.12-4.45.04-4.39,1.38-9.62.04,1.87,0,5.17.68,5.97-1.66,1.2-3.56.15-15.54-.88-19.67l3.27-1.87c24.44-.48,49.21-1.36,74.29-2.63,12.79,1,25.59,1.14,38.42.44,25.14-3.06,50.38-4.42,75.72-4.06,3.24.14,5.47-.53,6.69-2.03,10.1,3.92,15.64,8.2,27.22,9.9,9.11,1.34,41.44,1.17,46.03,3.31Z"/>
      <path class="cls-26" d="M746.78,443.5c.16.01,2.02.76,3.05,1.02,6.35,1.57,13.19,4.73,19.33,7.11l4.07,4.05c-4.36-1.47-7.77-.02-11.66.06-25.04.53-50.1,1.15-74.82,1.98h-2.03c6.85-1.67,14.66-3.24,19.33-9.14-1.15,4.13,2.94,3.57,5.54,2.99,11.78-2.62,24.73-8.93,37.19-8.07Z"/>
      <path class="cls-28" d="M617.57,392.72c2-.68,1.51-2.73,6.12-1.59,15.89,3.94,6.36,16.36,4.31,25.71-.67,3.08-1.38,8.8-1.35,11.95.04,4.52,4.22,22.46,7.25,25.33,3.34,3.17,8.23,1.93,12.15,3.6.37-3.16-3.56-3.74-5.1-5.56-4.35-5.11-5.93-26.59-4.82-33.3.66-3.95,2.14-4.45,3.83-6.85-3.29,7.78-3.2,32.9,2.01,39.13.9,1.08,3.5,2.72,4.88,3.26,11.82,4.6,25.34,3.32,37.88,3.32h2.03c-25.26.85-51.36,2.37-76.77,3.09-12.44.35-27.15,1.76-39.21.97-4.14-.27-7.78-.98-11.76-2.01-1.68-.43-2.98,1.04-2.47-2.05,8.46-.62,17.42-.99,25.43-3.05,2.24-.58,4.61-.76,6.65-2,1.91-1.16,10.03-9.57,9.67-11.67-.08-.44-7.47-4.25-7.91-4.36-3.21-.81-4.89.4-8.41-1.26,3.02.24,6.5-.53,9.43.24.43.11,7.53,4.07,7.86,4.37,1.06.99.59,3.05,1.74,3.53.93.39,2.78.09,4.19.65,8.33,3.35,16.65,7.21,25.62,8.46-4.04-12.22-6.83-23.99-3.97-36.98,1.32-6.02,5.46-10.07,3.76-17.14-1.26-5.23-8.3-6.33-13-5.8Z"/>
      <path class="cls-16" d="M568.73,649.7l-65.11-26.41v-16.25l69.01,25.56.17,18.11c-.31.33-3.27-.71-4.06-1.01Z"/>
      <path class="cls-27" d="M871.92,554.22l2.02.96-.52,25.06c3.46.6,6.99.7,10.6.3l1.14,2.12c.08.57.81,1.38,1.02,2.03-13.74-1.43-18.92-2.26-31.54-7.11,1.8-5.29,1.81-11.49,1.03-16.83-.28-1.93,1.12-4.06-2.05-3.49,3.48-4.82,12.29-3.17,18.31-3.05Z"/>
      <path class="cls-3" d="M886.16,557.27c.38,2.96-.96,5.69-1.06,8.6-.12,3.57-.38,13.79.04,16.8-2.94-.49-12.28,1.12-13.8-.99l.57-27.45c3.32.07,8.68-.61,11.52.2,1.87.53,2.25,2.56,2.73,2.84Z"/>
      <path class="cls-16" d="M907.53,612.12c-9.89-3.39-20.17-5.67-30.77-8.39-16.9-4.33-33.58-9.73-50.67-13.4-4.22-20.05,2.85-12.83,15.06-9.96,20.69,4.86,46.75,9.43,66.42,15.97,1.12.37,3.03,1.54,3.52,2.58.66,1.38.98,12.76.5,13.21-.15.14-3.6.15-4.07,0Z"/>
    </g>
  </g>
  <g>
    <path class="cls-43" d="M237.06,740.1c-5.36-.21-11.41-.22-16.78.01-30.77,1.35-66.17,3.51-96.66,7.11-9.66,1.14-16.75,1.71-24.45,8.09-25.36,21.03-15.98,61.01-17.74,89.96l-2.11,27.38c.77,3.84,12.99,4.76,16.31,7.62l-1.67,1.57c-2.91-.43-23.22-6.11-24.18-7.17-.75-.83-1.37-1.62-1.57-2.76.29-20.64.06-41.28-.7-61.92-2.96-35.63,18.98-76.48,58.79-74.32,30.58-.33,61.06-1.57,91.42-3.7-.15-1.07.87-1.75,3.05-2.03,2.3,1.27,4.15,3.28,6.2,4.48,2.87,1.68,7.61,1.8,10.08,5.68Z"/>
    <path class="cls-1" d="M217.73,731.98c-32.79,5.89-68.54,1.09-100.94,5.37-25.26,3.33-44.57,30.84-46.57,55.09-2.09,25.44,1.53,53.5-.03,79.22.65,3.4,8.35,3.56,11.65,4.63,4.2,1.36,10.47,2.77,13.8,4,3.72,1.38,9.6,4.35,13.23,6.09l1.43.93c4.12.68,14.41,4.44,6.72,7.2-3.8-.78-7.61-1.19-11.44-1.22l.56,11.41c-.54,6.55-2.03,7.06-8.47,6.06-.34-.09-.72-.92-1.02-1.02-.89-.29-.88-.63,0-1.02.58-1.46,1.61-1.68,3.02-1.42l-.24-14.65-16.12-5.56-2.59-2.85-49.27-17.91.23,12.43c1.92.91,2.55,2.09,1.89,3.55-9.09,1.37-3.67-13.73-5.09-19.3h19.84c.86,0,6.23,4.07,8.64,3.04,1.08-20.38.01-41.08,1.03-61.44,1.28-25.5,2.38-40.87,21.89-58.39,1.91-1.71,11.26-7.87,11.67-8.67,1.23-2.43-7.67-2.43-8.13-5.58,3.18-1.7,5.33-1.1,7.12,2.03,6.22.74,12.56.69,19.01-.15,34.05-.84,69.14-2.72,103.51-4.77,2.18-.13,6.1.4,4.66,2.88Z"/>
    <path class="cls-17" d="M436.47,706.58l1.63,1.74c-1.44,8.62-5.33,11.76-14.07,9.74l.42,22.75c3.3,20.73,3.45,41.77,2.72,62.9l-1.89,4.45c-1.57.57-14.36,1.29-14.66.62,1.38-14.19,2.3-28.22,1.41-42.54-.84-13.49-8.06-24.58-20.33-30.19-1.84,2.51-2.27,1.53-3.05-1.02-20.51-6.11-37.8-2.1-58.51-1.03-5.75.3-11.6-.39-17.33-.03-8.21.51-20.99,3.97-28.95,2.07-3.27-.78-1.74-6.43-2.03-9.14-.61-.99.28-1.24,2.67-.74,35.07-3.56,70.13-6.02,105.18-7.38,5.07-1.75,13.98,4.23,18.72,7.45,3.5,2.38,6.94,4.82,9.86,7.91l-.09,2.92c2.91.9,3.59-1.81,2.03-8.13-3.81-.46-2.89-10.13,0-11.17,1.62-6.67,2.38-3.14,7.62-2.97,7.2.24,5.4-3.39,8.66-8.2Z"/>
    <path class="cls-16" d="M33.57,882.31c-1.02-.87-3.08-1.26-3.58-2-.8-1.19-.82-12.61-.5-14.79.22-1.53-.6-1.6,1.53-1.51,16.68,6.52,34.21,11.6,50.71,18.51,1.24.52,1.27,2.26,2.5,2.79,2.53,1.09,16.49,4.96,17.33,6.31l.17,18.11c-1.78.1-3.42-.55-5.08-1.01-18.74-6.14-37.06-13.25-54.94-21.33-3.88-2-4.79-2.23-8.14-5.08Z"/>
    <path class="cls-25" d="M122.09,698.46c3,2.14.07,4.89-2.41,6.4-1.89,1.15-14.68,4.52-17.06,4.61l-1.38-1.87c-.16.79-.49,1.85-1.12,1.9-4.04.34-11.76.21-14.65-1.9,1.85.64,3.21,1.65,4.07,3.05,3.97.42,7.9,1.06,11.79,1.94l-.6,1.62c.79.1,1.93.31,2.03.89.24,1.39.29,15.91,0,16.98l-2.03,1.43c.57.65.98,1.22.83,1.47-.59,1.04-9.36-.62-11.01-.96-2.4-.67-4.74-1.31-7.12-2.03-.66-.2-1.61-1.37-2.77-1.76-3.08-1.04-16.56-1.64-16.56-6.87v-16.25c0-.47-3.73-4.92-5.09-7.62,6.51,7.06,6.81,11.07,17.85,10.21,4.53-.36,5.06-2.32,8.14-3.04,11.96-2.81,27.51,1.53,37.08-8.18Z"/>
    <path class="cls-14" d="M391.7,736.04c.1.04.72-1.06,2-.62,13.18,4.54,19.53,18.63,20.43,31.55.91,13.03.34,28.43-2.08,41.18.66.56,10.84-.46,13.22,0,1.49-1.44,2.06-.83,1.02,1.02-3.98.64-8.21.88-12.69.71-.16.96-.35,1.72-.62,1.75-3.19.39-13.83.99-16.69.54l-1.54-1.98c-.15-.76.38-.87,1.02-1.02.43-2.05,1.83-2.88,4.2-2.48,2.72-22.38,3.5-47.22-8.81-67.38l.55-3.27Z"/>
    <path class="cls-32" d="M388.65,827.46c2.13-1.13,3.1-.09,2.91,3.11,2.21-.57,3.75-.71,4.21,1.97,1.86-.24,4.23.52,7.13,2.28,4.72.52,8.56,1.74,11.53,3.67,4.39.07,8.69.45,12.88,1.16.25-.88.59-.86,1.02,0,2.72-2.42,12.05-.66,14.24,2.03,4.27,1.53,11.72,3.16,17.3,2.03,2.23,5.57,5.27,3.35,10.17,6.09.41.74.66,2.06.2,2.21-4.12,1.27-8.33,2.34-12.53,3.06l-.03,13.02c-.9,1.03-1.87,1.37-2.9,1.02l-2.07-.81c.01-4.44-.28-8.79-.86-13.04l-84.25-21.26c-.81,3.48-.91,7.27.21,10.68l80.08,20.27c2.67,1.01,3.47,2.84.78,4.15-28.01-7.33-56.14-14.42-84.02-22.27-2.2-1.79-2.08-14.81-.5-15.89.49-.33,10.39-1.54,11.77-1.54,2.27,0,12.27,2.57,12.71,2.11.09-1.34-.11-2.72,0-4.06Z"/>
    <path class="cls-12" d="M391.7,736.04c5.71,10.51,10.27,19.85,11.18,32.01.66,8.83.96,25.86-.11,34.41s-1.62,5.46-7,6.72c4.77-25.01-5.67-49.46-7.12-74.15,1.07.32,2.01.62,3.05,1.02Z"/>
    <path class="cls-24" d="M426.3,809.17c1.54-1.3,2.08-.72,1.02,1.02-1.13,3.26-12.62,3.17-14.24,0,.79.21,1.99.55,2.03,1.16.53,6.59.52,17.72,0,24.31l-2.03,1.45c3.42-.83,11.92-1.75,13.23,1.52,1.38-1.27,1.82-.68,1.02,1.02-9.15-1.28-18.57-.06-28.06-3.99-2.29-.95-3.26-3.04-3.48-3.13l-1.62-1.78c1.49-5.82,1.34-11.29-.43-16.38l1.04-2.15c-.17-.5.11-1.4,0-2.03l31.54-1.02Z"/>
    <path class="cls-43" d="M97.67,910.75c10.5,2.08,4.66-13.11,6.1-19.3,2.61-1.32,13.69,1.48,14.24,1.02,2.5-2.12-7.2-4.25-8.03-4.65-.7-.34-.94-1.35-1.12-1.44,3.99,1.01,13.23,2.51,13.23,7.62v16.25c0,1.11-2.49,1.46-3.51,1.58-5.43.64-15.89.29-20.91-1.07Z"/>
    <path class="cls-39" d="M395.77,832.54c-3.47-1.31-6.99,3.08-6.3-4.38l-.82-.7c.47-5.46,1.63-11.25,6.1-15.24.38,1.13,1.7,1.42,2.06,4.53.52,4.51.31,11.45-1.05,15.78Z"/>
    <path class="cls-43" d="M96.65,908.72v1.02c-16.93-5.37-39.17-14.22-54.94-22.35,2.99-.24,5.6,1.38,8.25,2.43,14.48,5.7,32.19,14.92,46.69,18.9Z"/>
    <path class="cls-29" d="M284.87,691.35c-.17,3.28,1.84,2.39,3.55,3.07,10.73,4.23,32.74,15.55,41.97,17.01,5.24.83,14.79,1.99,20.07,2.31,8.27.5,21.19-1.45,28.5-.02,2.36.46,3.12,2.98,5.61,3.03,1.49-1.27,1.98-.73,1.02,1.02-34.58,3.31-69.1,5.96-103.57,7.96l-.21-1.36-1.22-18.12,1.22-.67c.09-.79.35-1.97.92-2.03,7.86-.79,20.72-.67,27.57,2.03-10.09-3.19-20.24-6.78-30.45-10.75l-.07-2.46c1.69-.16,3.51-.41,5.09-1.02Z"/>
    <path class="cls-41" d="M174.99,709.63c4.64,6.17,15.48,14.57,23.13,16.02,8.28,1.57,14.43-.25,22.66,4.3.52,3.18-.96,1.65-3.05,2.03-1.06-1.89-3.66-.91-5.29-.73-28.14,3.07-56.54,3.04-84.79,3.74-12.66.31-24.75,2.48-37.09-.97,1.87-.14,10.17,2.44,10.17-.51v-19.3c0-2.01-8.85-2.93-11.19-3.56l2.95-1.1c26.6-.11,53.14-.51,79.63-1.21l2.88,1.29Z"/>
    <path class="cls-18" d="M272.67,653.76c.53.94.92,1.96,1.02,3.05.51,5.99,3,32.51,6.1,35.55,2.05,2.01,21.39,7.68,26.29,9.84,1.72.76,4.89.9,4.24,3.37h-28.49v18.79c0,2.56,5.98.5,7.59.46,28.26-.75,53.27-5.37,81.39-7.1,4.89-.3,9.9.3,14.79.04.2.1,2.39.31,4.07,1.02l-107.85,8.13c-1.99-18.36-4.07-34.16-7.23-52.21-1.22-6.96-2.49-14.03-3.96-20.93.44-.74,1.31-.44,2.03,0Z"/>
    <g>
      <path class="cls-23" d="M355.08,632.43c20.25,6.16,31.68,2.34,51.27,4.17,5.7.53,35.22,6.74,39.28,9.03,4.22,8.47.77,43.18-4.26,49.1-.54.63-1.18,1.17-1.85,1.69,2.13,3.51.55,8.3-3.05,10.16-2.23,8.57-5.08,10.67-13.95,8.18-.72,1.19-1.5,2.19-2.33,2.99-3.95-2.74-9.27-3.8-15.96-3.16l-18.78.06-.87,2.08c-11.29-1.53-22.92-1.87-34.88-1.02-7.56-.3-34.56-4.03-39.08-9.26-.38-.44-.36-1.24-.23-2.13-2.34.48-5.29.37-4.83-2.35l-20.57-7.89c-2.18-.96-2.34-1.66-.12-2.75-.13-3.17,8.87-7.2,11.19-5.08,19.42-8.15,30.7-27.28,21.91-47.28-1.81-1.24-3.34-2.41-4.61-3.51-7.05-.47-4.01-11.66,1.92-9.67,14.17-5.17,26.99.6,39.79,6.62Z"/>
      <path class="cls-11" d="M264.53,614.15l1.55,1.73c-5.91,11.99-5.45,21.06.63,32.75l-1.16,2.08c1.88.97,3.57,1.99,5.09,3.05l1.8,2.73c1.13,13.07,3.59,25.68,7.37,37.82.99,10.78,1.67,21.64,2.02,32.59l2.07,1.16-.04,7.99c-3.41,1.65-1.26,4.58-3,7.68-3.61,6.46-19.51,4.99-25.71,3.21-7.35-2.11-9.27-6.48-18.09-6.82l-8.54-2.79c-3.34-1.42-8.09-3.77-7.74-7.36-1.22.82-2.86.65-4.91-.53-16.72-.2-30.7-3.79-41.66-17.51l.79-2.28c-2.69-.37-4.46-1.88-5.29-4.48-5.23-16.29-8.26-35.29,2.24-50.37-1.2-5.65,7.54-9.35,12.21-8.13,6.12-.77,12.38-.94,18.76-.5l1.59,2.53c.86-2.82,3.37-1.89,3.05,1.02,1.57-.35,2.25,0,2.03,1.02,5.13-1.26,15.98,12.38,16.56,16l-1.3,2.28.82,15.75c-2.95.84-6.05-.15-9.29-2.94-4.72-.34,22.78,14.33,22.63,13.14,4.96,3.46,6.73,9.67,5.32,18.63l1.88,4.18c-2.84-3.24-3.45-13.48,0-15.74-3.55-1.49-1.81-7.67,2.03-7.62l-1.37-2.03c.59-12.87.65-25.82.17-38.84-1.69-1.93-1.96-3.54-.83-4.83-2.61-.44-7.17-5.19-6.1-8.13-1.34.56-2.54-.3-3.61-2.59-14.54-15.06-14.46-17.71,4.37-25.02.46-.18.88-.49,1.27-.83,5.05,3.81,7.63.03,13.5,1.25,4.34.91,5.94,6.25,8.88.78Z"/>
      <path class="cls-11" d="M445.63,645.64c1.22.69.8,2.83,2.74,3.87,3.6,1.94,11.93,3.08,16.54,4.81,7.64,2.87,21.34,8.06,25.35,15.32,6.84,12.42,4.16,47.38,4.16,62.88,0,25.37-.89,50.7-1.02,76.18-.02,3.42,2.23,6.83-1.01,10.09l-17.26,7.65-2.28.63c-1.58-1-6.93-7.14-6.87-8.76,1.03-11.03.49-22.99-3.07-34.33-10.36-27.19-12.7-54.17-10-83.2-4.24-1.49-8.7-2.95-13.38-4.36,4.49-16.87,7.17-33.16,6.1-50.79Z"/>
      <path class="cls-23" d="M70.2,634.46c3.7-1.2,7.76-1,11.36.46,4.58,1.87,14.13,12.72,15.42,17.74,5.09,4.83,11.57,7.88,19.46,9.14,9.86,4.27-3.01,12.58-8.6,12.27-3.3,7.17,1.55,10.84,8.64,10.82,2.74-.83,6.61-1.12,6.62,2.39,1.76-2.72,5.67.08,5.09,3.05,4.22,2.55-2.36,9.16-6.1,8.13-4.87,5.15-11.56,7.79-20.07,7.93l-16.14.65c-3.69,5.94-19.11,7.45-21.56-.57l-5.31-6.99c-7.31-14.51-12.04-35.53-4.81-51.02,1.76-3.76,12.36-13.18,16-13.99Z"/>
      <path class="cls-11" d="M132.26,636.5c3.15,1.8,4.34,4.66,4.64,8.14,1.12.77,2.32.61,3.5-.02-3.31-2.61,1.81-5.58,4.07-2.03-.43-2.73.13-3.03,2.03-1.02,7.82-2.34,19.76-.05,16.76,10.4-7.55,16.79-7.45,33.92.62,50.92-.19.48-.41.93-.74,1.27-2.96,3.08-29.98-9.09-34.68-11.48l-.28-2.35c-1.57-.7-3.61-2.53-5.09-3.05-1.66-1.02-1.73-2.97-.21-5.86-5.23,7.46-20.11,2.65-15.05-7.35,2.72-3.81,12.31-5.81,10.14-9.09-1.68-2.54-17.87-3.25-22.77-11.31-1.09-1.79-.95-4.05-2.78-6.37-1.43-1.81-3.81-2.82-5.49-4.68-2.9-3.21-2.61-7.24-8.16-8.11-1.78-.28-6.98-.41-8.59-.06,7.88-4.26,13.35,2.85,20.76,1.94,6.39-.78,12.37-8.09,16.37-8.13,5.1-.06,3.91,5.27,6.24,6.05,3.01,1.01,14.89,2.65,15.63-1.38,1.05-5.71-1.72-18.72,1.02-22.86l2.18,1.58c-.37,8.42-.42,16.69-.15,24.83Z"/>
      <path class="cls-39" d="M475.13,826.44c7.13,6.41,7.16,6.96,16.15,3.43,5.28-2.08,11.22-8,16.73-6.28,1.23.38,6.96,8.02,9.37,9.94,3.86,3.08,11.68,7.14,16.5,7.91,7.54,1.2,21.67-1.31,24.21,8.34,1.68,6.39-4.48,9.99-9.71,12.21-13.38,2.17-27.09,2.7-41.14,1.58l-23.77,4.3c-3.64.42-12.96,1.47-14.28-2.16,1.96-5.96,2.25-11.25.85-15.9-4.92.45-12.53.28-10.17-6.09-2.94.25-3.46-1.36-1.02-3.05-3.17-4.66-2.96-7.72.63-9.17l.39-2c-.79-3.43,1.53-13.63,6.1-11.17,3.86,1.15,5.81,5.12,9.16,8.13Z"/>
      <path class="cls-39" d="M198.4,619.23c.88.34.88.68,0,1.02-2.23,3.93-4.19,8.81-1.54,13.01,2.84,4.09,4.67,8.31,5.49,12.66-7.12-.22-13.18.02-18.19.74-5.87,2.15-8.19,3.57-12.21,8.13-10.14,14.96-8.26,33.85-1.6,49.69-1.02,4.85-8.66,2.55-6.94-2.56-7.78-17.06-7.29-33.74.03-50.64,2.39-10-9.57-11.88-16.93-9.69-.63.18-1.34.74-2.03,1.02-2.02.31-4.03-1.23-3.64-3.47.35-2.04,18.28-12.07,21.86-13.72,5.16-2.38,10.89-4.67,16.37-5.15,5.21-1.28,13.8-.68,19.33-1.02Z"/>
      <path class="cls-34" d="M178.05,618.21l.51,1.67c-14.13,3.44-27.58,10.87-38.78,19.96l-2.43.72c-1.49-.57-3.19-1.93-5.09-4.06-.36-.52-1.63-.32-2.02-2.52-1.22-6.84.86-16.67-.02-23.89.74-1.11,18.86-13.16,20.41-13.71.79-.28,1.5-.72,2.4-.53,4.37,2.76,21.4,5.66,24.01,8.64,2.14,2.45.58,10.02,1.01,13.72Z"/>
      <path class="cls-34" d="M355.08,632.43c-8.51-2.59-19.56-8.62-27.95-8.12-6.64.4-21.15,2.13-13.76,11.16-3.57,1.91-5.5,5.93-5.79,12.06-1.74,4.94-25.94,10.12-27.58,7.44-.2-.33-.23-.76-.2-1.22-.14-2.02.68-2.3,2.4-2.3l-6.35-20.64c-.04-2.28,6.59-22.62,8.18-24.1,2.98-2.8,11.17-2.33,14.72-.74.21-.63.52-.99,1.4-.97,4.86,3.52,12.83,19.6,14.91,20.2,1.54.44,6.5-1.69,9.01-1.91,11.38-.99,21.33,3.77,31.02,9.13Z"/>
      <path class="cls-31" d="M284.87,601.96c1.65-.28,10.71.62,12.51,1.04.77.18.67,1.48,1.45,1.93.43.24,1.08-.07,1.3.08.57,3.06-1.56,1.98-3.51,2.03-2.78.08-7.85-.58-10.05.16-3.51,1.19-6.77,19.91-8.78,23.7l7.1,22.34-5.1.52c-.68,1.41-6.17,1.99-6.1,0-2.9-.36-5.8-1.2-8.14-3.05-1.52-2.11-6.03-15.01-6.18-17.74-.25-4.75,3.46-13.76,5.16-18.82.8-2.37.86-5.54,2.47-7.18,2-2.03,6.06-2.41,8.72-2.98l9.16-2.03Z"/>
      <path class="cls-10" d="M242.14,612.12c.47,4.04-.15,2.41-2.39,3.16-20.95,7.01-8.74,12-.63,22.74.69.92.72,2.2.98,2.54,2.72,3.15-2.11,5.82-5.25,7.28s-9.75,1.49-13.07.85l-2.22-1.19c-3.06-3.96-9.9-16.8-8.36-21.52l4.74-12.33c3.17-6.91.06-8.44-9.32-4.6l-2.14-1c.25-.41-.24-1.51,1.01-2.5,2.42-1.93,25.22-2.29,29.01-1.57,2.68.51,4.74,5.96,7.62,8.13Z"/>
      <path class="cls-33" d="M204.5,608.06c2.41-2.42,16.08-4.71,17.29-1.52.26.68-2.77.69-2.86,2.19.44,5.4-6.7,16.91-6.31,21.1.36,3.86,9.15,13.69,9.17,18.85-4.59.51-9.34.85-14.24,1.02-.36-.16-2.4-.82-3.05-1.02l-2.12-1.34c-1.18-5.86-3.47-11.74-6.86-17.63-.18-2.27,1.19-9.29,2.87-9.47.1-.3-.11-.72,0-1.02.48-1.35,4.92-9.23,6.1-11.17Z"/>
      <path class="cls-2" d="M470.04,849.8c.51.29,1.93-.08,2.57.94,1.82,2.9-1.22,12.57-1.55,16.32,12.54,2.09,24.32-3.06,36.13-4.04,13.44-1.12,27.63,1.71,41.19-1.03-13.96,5.93-25.51,1.42-39.21,2-10.43.44-20.87,4.8-31.53,5.13-4.98.15-8.42-2.3-12.17-2.12-7.79.38-5.93,4.95-16.8,2.11-.11-3.01,5.37-2.62,6.1,0,2.66-.86-.35-12.8,1.46-15.31.86-1.19,11.6-2.38,13.8-3.99Z"/>
      <path class="cls-39" d="M179.06,620.24c-4.21,1.03-18.24,6.56-22.29,8.72-1.63.87-13.53,8.77-13.89,9.53-.56,1.19,1.25,2.88,1.59,4.09-1.19.47-3.54-.45-4.07,2.03-2.86,5.56-5.49-1.71-3.05-4.06,1.27-5.05,6.14-4.71,9.88-6.9,10.42-6.08,14.86-10.27,27.28-13.44,1.76-.45,4.14,1.37,3.54-2.01.04.31,1.1,1.27,1.02,2.03Z"/>
      <path class="cls-39" d="M296.07,686.27c-3.03,1.68-7.93,3.82-11.19,5.08,0,1.99-1.7,2.33-5.09,1.02-.69.15-1.24.25-1.27.17-3.07-8.65-4.92-25.4-5.93-34.94-.02-.22.46-.49,1.09-.78-.06-.65-.05-1.25.22-1.7.25-.42,4.34-.37,5.31-.3,9.88.72,19.49-.07,27.78-6.41,3.32-20.34,14.02-12.38,13.74,3.89-.3,17.57-9.42,26.43-24.67,33.98Z"/>
      <path class="cls-4" d="M420.19,717.76c.39,4.28-.77,6.28,0,11.17.49,1.65,1.41,11.41-1.32,9.21-.32-.26-.53-.65-.71-1.09-6.74-7.94-19.31-14.41-28.49-18.28-1.81.08-3.17-.26-4.07-1.02-.19-.1-.65-.7-1.02-1.02-2.04-1.73-2.66-3.53.5-4.07,3.44-.59,31.73-.16,33.46,1.07,1.92,1.35,1.47,2.09,1.65,4.02Z"/>
      <path class="cls-39" d="M313.36,635.48c7.22,1.42,7.77,7.36,8.18,13.67,1.21,18.69-8.62,30.54-25.48,37.12,8.71-4.83,22.15-15.35,23.43-25.88.62-5.1,1.11-21.54-4.84-22.7-6.53-1.27-3.62,7.7-6.89,12.01-.89,1.18-7.91,4.44-9.42,4.82-2.14.54-11.99,2.13-14.09,2.2-3.3.1-7.08-2.4-10.57.1-1.74.2-2.02-1.69-1.02-3.05h1.02c1.82.25,4.16-.03,6.1,0,.4,0,1.74,1.2,4.4.96,4.55-.41,20.59-4.12,22.51-8.12,2.15-4.48-.32-12.5,6.66-11.13Z"/>
      <path class="cls-39" d="M246.21,648.69c.77,1.41,2.67,2.76,2.84,4.8-1.57,9.36,2.95,33.54-.81,40.91l-1.45,1.75c-1.12.66-20.71-7.94-21.97-9.6-1.11-1.46-1.46-2.93.5-3.46l-.48-14.09c-1.82-5.77-10.16-15.07-15.26-18.28,4.71-1.66,10.16-2.2,16.37-1.63,6.22.37,10.18-1.61,14.84-5.21,1.65,2.61,3.45,4.21,5.41,4.81Z"/>
      <path class="cls-26" d="M171.94,654.78c-9.05,17.01-8.73,39.18,3.05,54.85-28.48.52-56.97,3.75-85.46,1.02-2.29-.62-4.8-.4-4.07-3.05h15.77c1.79,0,15.88-3.63,17.73-4.65,2.81-1.56,2.34-3.54,3.13-4.5,2.54-3.07,6.33-4.55,6.1-8.13,4.69,2.08,31.85,14.62,34.59,12.18-3.32-9.86-7.11-20.21-5.99-30.87.73-6.93,7.42-20.13,5.8-25.31s-11.71-5.15-16.08-4.76c4.39-1.26,5.65-2.59,10.61-.96,14.04,4.61,4.76,14.56,2.73,22.92-3.16,13.07-.8,30.7,6.51,42.03,5.32-1.37.55-7.54-.23-10.96-3.08-13.62-3.8-28.93,5.81-39.83Z"/>
      <path class="cls-8" d="M248.25,694.39c-1.29,2.53-2.03,3.69-2.03,7.62v15.74c-7.7-1.93-1.79-13.87-5.02-18.86-1.64-2.54-18.92-8.48-23.41-12.18-1.99-1.64-8.42-10.72-2.77-8.41,1.47.6,8.31,6.49,9.83,4.91v-14.22c1.46,4.63.27,14.49,1.49,16.29.51.76,14.33,6.62,16.69,7.72,1.77.82,2.93,1.93,5.22,1.38Z"/>
      <path class="cls-39" d="M198.4,620.24c-.46,1.36-2,8.19-1.86,9.37.7,5.59,8.17,12.75,7.96,19.07-6.9-2.09-13.37-1.7-20.35-2.03-1.13-.05-3.32.7-3.05-1.01,3.33.24,6.34-1.1,9.66-1.11,3.53-.01,7.9,2.98,10.64-.4-.83-4.26-6.85-11.67-7.07-15.33-.15-2.42,1.73-3.72,1.76-6.72.03-2.81-2.3-1.98,2.31-1.83Z"/>
      <path class="cls-39" d="M246.21,648.69c-3.15,3.75-4.22-3.55-6.55-3.01-1.08.25-2.69,3.4-6.23,3.97-7.41,1.18-16.3-1.31-23.85,1.07-.36-.23-1.51-.77-2.03-1.02,4.32-2.03,9.57-.63,14.24-1.02,3.01-.25,9.29-.95,11.94-1.8,2.5-.8,6.16-3.41,6.38-6.33,2.27,2.97,3.94,4.19,6.1,8.13Z"/>
      <path class="cls-34" d="M273.68,653.76c-.33-.04-.68.04-1.02,0-.66-.09-1.43.12-2.03,0-2.14-.43-3.84-1.32-5.09-3.05l8.14,3.05Z"/>
      <path class="cls-19" d="M107.85,674.08c-.32,4.71-.57,8.59,4.8,9.93,6.98,1.75,6.32-4.48,12.49-5.86.67,3.42-1.23,6.02-2.03,9.14-5.96-2.09-23.35-1.9-15.26-13.2Z"/>
      <path class="cls-22" d="M137.35,640.56c.76,2.15-1.94,4.93,3.05,4.06-2.35,3.53,1.29,5.49.99,9.11l-9.13,4.09c.09-4.01,3.73-6.4,3.88-10.63.17-4.64-1.52-7.26-3.89-10.7,1.7-.26,4.65,2.83,5.09,4.06Z"/>
      <path class="cls-39" d="M459.87,829.49c5.27,3.68-2,3.93-2,5.58,0,.19,1.85,1.5,2.05,3.15.17,1.35-1.08,2.31-1.06,2.44-3.3,2.79-12.59,3.17-16.28,1.02-6.92.22-9.59-1.44-14.24-2.03-.99-2.23-.46-25.09.63-25.84.41-.28.89-.44,1.4-.57,4.71,3.24,11.51,7.98,16.41,10.53,4.17,2.17,9.24,3.02,13.1,5.72Z"/>
      <path class="cls-30" d="M458.85,840.66c.06.43.77,2.44,1.02,3.05-.05,5.13-11.43,1.26-14.26.47-1.69-.47-3.62.2-3.04-2.5,4.87-.16,10.88-1.96,16.28-1.02Z"/>
    </g>
    <path class="cls-23" d="M418.16,737.06c3.72.9,1.49-5.09,2.03-8.13.44,2.82,1.98,5.88.88,9.51-1.33,4.39-2.61-1.03-2.92-1.39Z"/>
    <path class="cls-21" d="M448.68,869.1c-.12-.06.29-2.19-1.37-2.22l-80.37-20.29c-2.78-1.28-2.43-14.39-.08-14.95l87.34,22.1.59,15.35c-.52.17-5.84.14-6.1,0Z"/>
    <path class="cls-15" d="M430.36,813.24l-2.03,26.41c-.33-.04-.69.05-1.02,0-.19-.39-1-.83-1.02-1.02l-2.18-1.78c.76-8.74,1.06-17.43.89-26.06l2.31-.59c1.47,1.05,2.51,2.67,3.05,3.05Z"/>
    <path class="cls-13" d="M427.31,810.19c-1.59,4.23.14,8.03.04,11.64-.14,5.31-1.77,10.81-1.06,16.8-2.34-.25-13.23.96-13.23-1.52v-26.92h14.24Z"/>
  </g>
  <path class="cls-39" d="M652.16,372.4c-.07.27,1.24,3.14.98,5.46-.52,4.68-2.9,17.85-4.32,22.19-1.11,3.39-6.59,8.7-8.88,11.96-5.32,8.27-4,34.41,2.63,40.62,15.39,7.73-12.5,8.52-11.23-1.08-6.5-16.09-6.86-31.68.15-47.68,2.36-8.79-6.4-14.15-13.93-11.16-1.75.6-10.37,3.85-11.19,3.04-1.19-1.17,1.37-5.09,3.05-6.09,3.82-6.16,15.1-12.81,22.38-12.19,6.43-2.69,13.25-5.26,20.35-5.08Z"/>
</svg>