<?xml version="1.0" encoding="UTF-8"?>
<svg id="Layer_1" data-name="Layer 1" xmlns="http://www.w3.org/2000/svg" viewBox="0 0 1080 1080">
  <defs>
    <style>
      .cls-1 {
        fill: #f3e0cc;
      }

      .cls-2 {
        fill: #928c8a;
      }

      .cls-3 {
        fill: #b99d86;
      }

      .cls-4 {
        fill: #cbc0bc;
      }

      .cls-5 {
        fill: #b1b0b0;
      }

      .cls-6 {
        fill: #edd5c1;
      }

      .cls-7 {
        fill: #e0a77b;
      }

      .cls-8 {
        fill: #ebd8c9;
      }

      .cls-9 {
        fill: #f0f0f0;
      }

      .cls-10 {
        fill: #e3a97e;
      }

      .cls-11 {
        fill: #202221;
      }

      .cls-12 {
        fill: #66564a;
      }

      .cls-13 {
        fill: #807066;
      }

      .cls-14 {
        fill: #ceb29e;
      }

      .cls-15 {
        fill: #5f554d;
      }

      .cls-16 {
        fill: #453326;
      }

      .cls-17 {
        fill: #bf9d85;
      }

      .cls-18 {
        fill: #4b3a32;
      }

      .cls-19 {
        fill: #9b9692;
      }

      .cls-20 {
        fill: #fbfaf9;
      }

      .cls-21 {
        fill: #fccca7;
      }

      .cls-22 {
        fill: #ba9e8b;
      }

      .cls-23 {
        fill: #5a4740;
      }

      .cls-24 {
        fill: #3c332e;
      }

      .cls-25 {
        fill: #3c3129;
      }

      .cls-26 {
        fill: #d84140;
      }

      .cls-27 {
        fill: #806a5c;
      }

      .cls-28 {
        fill: #acaba9;
      }

      .cls-29 {
        fill: #fdcda5;
      }

      .cls-30 {
        fill: #eabc96;
      }

      .cls-31 {
        fill: #eeb792;
      }

      .cls-32 {
        fill: #c4bfba;
      }
    </style>
  </defs>
  <path class="cls-32" d="M963.87,403.86c1.57.54,2,1.19,4.35,1.74,1.19.36,2.21.94,3.04,1.74,2.73,1.45,5.74,3.12,7.82,5.44,2.9,3.23,3.38,4.65,4.47,8.57.3,1.07,1.63,1.89,1.96,2.82,1.08,3.08,1.57,16.97,1.41,20.73-.12,2.78-1.18,6.87-.83,9.52.25,1.86,1.72,3.28,2.27,5.11,2.39,8.01,4.96,19.05,4.17,27.45-.64,6.76-3.28,11.32-9.21,14.69-.64.37-1.7.25-2.31.74-1.3,1.05-.15,5.76-1.01,7.59,1,7.11.05,15.08.82,22.2.27,2.53,4.91,12.18-.2,12.32-3.39.09-11.08-4.43-13.68-6.71-5.22-4.57-7.98-9.59-11.78-14.94-.71-1.76-1.1-3.27-.87-5.21.07.03.35.02.43,0,.61.19.61.91,0,2.17l.62.1c3.73,7.93,9.02,14.79,16.49,19.7,4.13,2.72,12.59,6.19,8.49-2.18-1.6-10.2-1.58-20.57-1.38-30.88-.51-1.73-.46-3.1.14-4.11l.16-1.06c1.32-.16,2.58-.53,3.75-1.12-.13-.42.02-.56.43-.43,2.01-.89,3.86-2.3,4.78-4.34-.15-.85.33-1.84,1.46-2.95.85-8.48,1.87-18.98-2.15-26.69l-.61-4.97c-2.61-4.44-3.24-9.51-1.89-15.21.7-12.38.25-26.28-10.37-34.54-7.98-6.21-19.34-8.99-28.56-4.19l-.51-.46c-.41.37-.66.55-.87,0,1.36-1.95,5.19-3.04,7.83-3.47.14-.02.29.01.43,0,3.6-.53,7.44-.41,10.87.87Z"/>
  <path class="cls-26" d="M810.33,436c5.92-.08,11.35-1.83,17.31-.13,8.69,2.48,17.31,3.88,25.48,8,6.59,3.32,13.06,7.76,16.8,14.28-.06.02-.44.84-.87.87l-.85-.26c-6.77-9.6-18.64-15.53-29.96-17.7-2.79-1.46-5.89-1.96-9.29-1.5l-.36-.94c-.73.54-1.87.16-3.45-1.15-6.23-.89-12.65-.75-19.27.42-1.29.24-2.13-.09-2.51-1-.12.22-.25.41-.43.53-.54.35-5.47-.12-5.83-.9-17.94-.56-35.94-.44-54.01.37l-1.06-.43c-2.13-.71-3.82.13-5.55,1.31l-.54-.44c.24-.4.38-.83.43-1.3.54-.04,1.19-.4,1.74-.43,24.03-.83,48.47-1.58,72.2.43Z"/>
  <path class="cls-4" d="M952.56,403c-1.9.26-6.33,2.37-7.83,3.47-2.38,3-5.05,5.82-7.99,8.45l-3.35,1.21c-21.12,4.01-43.94,16.2-49.26,38.46-1,1.45-1.83,2.92-2.47,4.42.46,1.1.46,1.82,0,2.17-.37-.15-1.02-.86-1.3-.87-.23-3.2,1.91-4.75,2.83-6.95,1.37-3.3,2.05-6.86,4.04-10.3,7.03-12.18,23.89-22.66,37.14-26.75,3.49-1.08,8.63-1.16,11.98-2.81,2.22-1.09,4.76-5.67,7.37-7.4,2.18-1.44,6.21-3.24,8.84-3.11Z"/>
  <path class="cls-26" d="M810.33,436c-5.68.08-12.1-.37-18.03-.42-17.51-.13-36.76-.96-54.17-.02.45-.72,1.65-.43,2.39-.44,19.08-.24,37.9-1.22,56.98-.86l12.84,1.73Z"/>
  <path class="cls-4" d="M963.87,403.86c-2.52-.86-8.2-1.14-10.87-.87,3.23-.85,7.94-.68,10.87.87Z"/>
  <path class="cls-4" d="M971.26,407.34c-1-.53-2.25-.81-3.04-1.74,1.36.31,2.25-.06,3.04,1.74Z"/>
  <path class="cls-2" d="M945.6,406.47c-.88,1.57-3.23,1.95-3.48,3.91,0,1.79-2.52,4.89-4.35,4.78-3.16,1.95-6.93,2.79-11.29,2.55-2.06,1.44-4.28,2.39-6.66,2.85-.3,1.34-1.13,1.67-2.27.92-15.5,5.88-28.69,17.13-32.88,33.49-1.61,2.03-2.21,3.42-2.15,5.79-.41-.56-.41-1.24-.87-1.74.27-3.27,1.74-3.23,2.41-5.19.48-1.39.26-3.13.97-4.67,8.74-18.7,26.32-28.58,45.79-32.89,9.27-2.05,7.67-5.21,13.89-9.79.28-.04.63.06.87,0Z"/>
  <g>
    <path class="cls-8" d="M735.95,437.3c.54.97-.68,4.17-1.74,4.56.21.04.41.09.58.2.39.25-.04,8.38-.58,8.92.22.03.4.08.45.19.2.45-1.67,7.23-3.06,6.98-.41-.76-.65-1.58-.7-2.44l1.25-13.35c-.13-2.08-.44-2.68-2.48-2.4l-6.05,1.25c-22.83,1.29-46,3.19-68.57,5.49-1.8.18-3.65.7-5.05,1.88-2.27,2.8-2.77,2.1-3.22-1.28-.66-1.17-1.46-2.19-2.39-3.04-.04.18-.09.34-.2.43-.41.36-9.88,0-10.67-.43-.08.23-.17.42-.28.43-1.45.18-7.54-.81-9.3-1.17-.1-.02-.16-.26-.21-.56,1.01.01,2.03-.02,3.04,0,5.7.1,11.94.11,17.51.54,1.53.12,2.81,1.25,4.43,1.22,4.96-.08,12.96-1.25,18.29-1.76,23.04-2.21,46.36-5.4,69.38-6.94.97.34.34.81-.43,1.3Z"/>
    <path class="cls-21" d="M526.3,499.4l.75.44c.93,3.86,2.26,7.53,3.98,11,.25,2.91.59,4.91,2.61,7.24.38,2.93,1.08,4.5,2.97,6.75-.13,2.97.93,4.27,2.67,6.4.32,2.07.89,3.86,1.72,5.37,5.13,11.67,10.76,23.43,16.91,35.29l.57,2.2c.66.43.86.75,0,.87-3.65-.47-3.64,1.94-6.4,2.51-14.36,2.93-29.17,4.46-43.78,6.23-15.95,1.93-33.16,4.07-49.19,4.74-5.07.21-10.71-.47-15.67-.01-6.47.6-13.48,2.6-20.45,3.03-18.16,1.12-36.04,1.07-54.06,3.35-23.34,2.95-46.08,4.83-69.42,6.25-9.14.56-18.19.27-27.23-.05-.26.21-.52.41-.81.55s-.55.26-.81.25c-13.04-.76-26.61-.63-39.2,3.47-2.47,1.14-4.81,2.32-7.02,3.55-2.19-.34-3.16,2.35-4.76,2.85-1.75.54-3.71-.35-5.24.63l-.73.59c-3.59-1.07-7.44-1.26-11.18-1.12l-.7-.77c-3.47-1.85-2.82-4.7-3.69-7.82-1.37-4.88-3.8-12-4.46-16.83-.37-2.7-.49-3.44,1.76-4.97,3.13-2.13,5.77-.81,8.13-2.96l4.49.16c2.96-1.32,5.96-2.53,9-3.63,6.32-1.84,12.4-4.22,18.23-7.14,1.08-1.35,2.11-1.86,3.08-1.55,4.08-2.51,9.38-2.83,13.91-5,2.92-1.4,4.92-2.36,4.83-6.07-.07-2.53-2.68-4.89-1.1-6.71,1.24-1.43,9.08-2.58,11.5-3.28,8.37-2.39,16.72-5.22,25.13-7.48,27.19-7.33,57.04-17.23,85.55-18.37,19.7-.79,34.9.03,54.6-3.68,24.2-4.56,48.19-9.44,72.3-14.23,3.2-.64,6.46-1.94,9.81-2.37,4.74-.61,6.78.75,10.97-2.29.19.78.34,1.65.43,2.61Z"/>
    <path class="cls-26" d="M272.28,601.01c-.06.41.09.94,0,1.3-.14.58-.44.68-.43,1.74-.88-.09-1.76-.49-2.66-1.19-12.56-.66-26.16,1.13-38.31,4.72-2.01.6-3.06,1.33-4.7,2.55-.18-.14-1-.14-1.3-.43-.04-.15-.44-.38-.43-.87,0-.37.45-1.03.76-1.32.46-.43,5.16-2.76,5.96-3.05,12.02-4.35,28.52-3.9,41.13-3.45Z"/>
    <g>
      <path class="cls-9" d="M626.77,442.95c-.99.17-2,.17-3.04,0l-1.09.43c-38.3-6.77-70.1,14.22-87.93,46.79-2.02,3.47-5.51,5.38-8.85,6.63-.48,1.58-1.77,2.49-3.86,2.75-5.65.09-11.06.96-16.74,2.76l-54.2,10.76c-24.21,6.18-48.33,6.8-72.85,7.17-19.01.83-37.62,5.21-55.93,10.17l-31.22,8.67c-11.93,3.47-23.41,6.81-34.43,10.01l-.27.77c3.46,7.69,1.17,10.58-6.12,13.2-3.65.94-7.19,2.11-10.64,3.53l-1.24-.29c-.21.04-.42.06-.61,0-.96-.26-2.87-12.01.49-12.79,2.86-.8,5.49-1.92,7.88-3.36-.74-5.32-8.89-6.74-13.24-5.08-7.49,2.86-25.58,18.54-30.13,25.89-1.87,3.02-1.35,4.12,1.01,6.95l-.21.54c.34,1-.28,1.66-1.85,1.98-7.22,1.27-8.28,1.84-6.53,9.19,1.74,6.52,3.54,12.94,5.39,19.26.91.65,1.33,1.36,1.26,2.13v.94c-3.94,1.89-7.68,4.12-11.22,6.7-4.31.23-8.61-.52-12.91-2.25-14.39-1.45-21.92-12.63-15.89-25.92,2.62-1.25,5.48-2.01,8.58-2.28,13.32-3.17-3.57-9.12-9.57-6.97-11.35,4.06-33.17,18.97-37.97,30.32-.94,2.21-.81,3.26.41,5.43,2.34,4.16,5.89,7.96,9.2,11.49,13.09,11.62,22.98,24.61,29.69,40.76,10.8,20.1,18.19,29.3,42.39,29.33,10.01.01,29.66-1.2,34.36-11.66,4.45-13.1-5.39-18.32-15.76-22.89-14.17-7.35-14.63-29.76-9.14-42.95,1.3-3.02,1.35-5.61.15-7.77l.31-.96c0-.46.15-.85.48-1.16,3.05.39,5.41-.43,7.07-2.47.98-.7,1.88-1.09,2.45.16,1.07-.1,1.06,0,.43.87,6.64,7.79,12.47,16.36,17.95,25.1,9.24,11.18,33.18,17.17,46.91,13.21,11.96-3.45,14.1-19.26.99-22.16-9.78-4.09-16.85-13.11-18.44-23.53-1.17-.36-1.17-.89,0-1.3.5-.21,1.01-.4,1.53-.53s1.01-.24,1.52-.24c13.9.01,26.53-.05,40.71-1.16,21.38-1.67,42.79-3.86,64-6.3,16.41-.75,32.71-1.72,48.92-2.9,9.86-2.26,19.45-2.88,29.44-2.3,31.62-2.21,63.77-5.48,94.72-11.46,1.34-1.1,4.4-3.46,5.37-1.18l.27-.34c2.54.96,4.66.82,6.27-1.47,8.9-2.72,17.68-6.33,26.34-10.85,14.76-8.41,30.88-13.82,47.13-18.75l1.34.14c.51-.18.94-.18,1.3,0-1.76.39-3.27,1.91-4.78,2.4-3.07.99-4.43,1.43-7.41,2.59-1.82.71-3.83.41-5.47,1.06-1.02.4-1.37,1.3-2.25,1.66-1.37.56-3.47.35-4.92.73-1.6.42-1.98,1.54-3.2,2.02-2.95,1.15-3.54.6-7.06,2.51-2.8,1.52-5.69,2.56-8.29,3.88-.97.49-1.43,1.43-2.49,1.86-.91.37-2.03.24-2.84.63-.97.47-1.28,2.05-2.04,2.3-1,.33-2.28-.19-3.53.39-1.01.46-1.47,2.19-2.28,2.52s-2.37-.59-4.35.41c-1.2.61-1.31,1.56-2.34,2.01-1.39.61-3,.09-4.17.61-.75.34-1.38,1.81-2.59,2.19-1.54.49-3.25-.06-4.85.38-1.17.33-1.23,1.97-2.44,2.33s-2.79-.08-4.16.19c-1.78.35-3.55,2.32-5.51,2.75-12.32,2.68-26.25,4.1-38.89,5.9-23.83,3.41-46.63,4.11-70.53,6.02-8.44.67-17.35,2.52-25.67,3.03-16.72,1.03-33,.68-49.62,3-25.81,3.61-51.75,5.57-77.83,6.1-3.85.08-7.66.7-11.72.44-1.67-.11-5.58-2.1-5.44.61.04.79,1.24,4.05,1.64,4.91,1.92,4.1,6.8,11.59,11.37,12.96,1.03.31,2.13,0,3.06.42.71.31,1.53,1.82,2.45,2.33,1.01.55,2.24.47,3.21,1.15.62.43.72,1.38,1.42,1.67,1.37.57,2.5-.8,3.36.52-1.92,3.06.16,4.18.68,6.68.5,2.36-.1,6.52-1.61,8.43-1,1.27-6.82,5.37-8.4,5.95-2.39.87-7.76,1.24-10.44,1.3-10.1.22-20.83-1.35-29.35-6.35-1.23-.72-3.23-2.03-4.52-2.87-1.79-1.15-6.35-4.69-7.28-6.3-.56-.97-.2-2.18-.64-3.17-.25-.56-1.28-1.11-1.7-1.77-3.02-4.72-4.82-7.46-8.73-11.26-1.09-1.05-4.69-6.04-6.08-5.95-.36.02-.93.78-1.51.96-1.26.38-2.9.15-3.69,1.53-.57,1-1.74,4.68-1.93,5.89-.69,4.29-.55,3.37-2,7.12-1,2.58-1.13,17.13.25,19.28.66,1.02,2.46.95,2.79,2.37.19.81-.62,2.3-.67,3.33-.19,3.79,3.51,5.67,6.08,7.38.87.58,1.58,1.88,2.62,2.19,1.61.47,3.74-.06,3.06-2,4.26.09.85,1.74.85,2.83,0,2.03,3.21,1.79,4.36,2.61.79.57,3.4,2.6,4.15,3.24,2.47,2.1,2.15,3.72,3.02,6.1,1.03,2.82,4.1,5.78,2.51,9.43-.11.25-2.66,4.05-2.96,4.42-2.97,3.77-11.79,9.4-16.55,9.97-2.23.27-4.66-.13-6.91.05-11.1.89-24.63,2.27-34.55-3.29-11.3-6.33-17.77-16.73-22.75-28.09-.49-1.11-.31-2.86-1-3.77-.81-1.07-2.45-.61-2.85-1.15-.82-1.11.1-2.32-.03-3.34-.17-1.24-1.76-1.92-2.01-2.78-.34-1.2.25-2.5-.57-3.78s-3.38-3.94-4.5-5.5c-2.84-3.96-5.35-5.13-8.53-8.54-.31-.33-.29-1.33-.84-1.65-.75-.44-1.98.04-2.64-.4-.41-.27-.42-1.31-.83-1.77-3.39-3.82-6.15-8.13-9.56-12.16-1.5-1.78-4.05-3.49-5.19-5.68-.7-1.35-.75-5.65-.3-7.13.14-.46,4.36-5.91,5.04-6.7,8.19-9.48,19.82-18.21,31.29-22.18.99-.34,2.01-1.86,3.04-2.18,4.36-1.37,9.06.06,13.07,1.34,1.8.57,4.22-.06,5.03,2.36.4,1.2.03,3.43,1.5,4.15,2.79,1.35,2.62-2.11,4.67-3.16,1.83-.94,4.11-.62,5.8-1.16,1.43-.46,2.33-2.43,3.49-3.03,1.66-.86,5.43-1.47,7.37-2.2,1.2-.73-1.18-2.7-1.31-3.95-.15-1.46,1.78-4.84,2.79-5.86.86-.86,2-1.01,3.08-2.13,1.22-1.25,1.97-3.24,3.23-4.59,1.64-1.75,4.45-3.35,6.32-4.98,6.82-5.91,9.84-9.66,18.66-13.07,2.12-.82,3.25-2.73,6.34-1.46,2.63,1.09,5.77,3.87,8.43,5.47.75.45,1.42,1.69,2.23,1.68,4.71-3.49,10.11-3.53,15.45-5,30.44-8.41,60.06-18.4,91.24-24.42,15.61-3.01,33.58-1.78,49.48-2.27,18.02-.56,34-5.17,51.43-8.58,16.4-3.21,33.17-5.4,49.01-10.13,7.79-2.33,16.07-1.32,23.33-5.8.7-.43,1.78-.49,2.39-1.09.84-.83.54-2.14,1.11-3.24.73-1.41,3.61-4.01,4.48-5.51,3.22-5.49,6.82-10.04,11.11-14.96,6.56-7.5,12.63-12.4,21.11-17.57,2.53-1.55,2.98-1.4,5.31-2.52,1.02-.49,1.66-1.75,2.71-2.07,1.33-.41,2.73-.02,4.19-.59,1.22-.48,1.62-1.64,3.2-2.02,2.09-.5,4.54-.02,6.72-.24,3.48-.35,6.61-2.24,10.06-2.55,4.75-.42,10.27.12,15.05.27l9.08,2.33Z"/>
      <path class="cls-26" d="M201.82,611c2.01-.48,10.87.14,12.61,1.3.14.09,1.16,1.41,1.21,1.61,1.17,4.09-2.93,12.48-3.71,16.96-1.32,7.62.62,17.46,3.46,24.55,3.12,7.81,15.82,10.2,21.46,15.49,4.31,4.05,5.24,13.44,1.73,18.27-7.72,10.61-29.94,10.71-41.76,9.97-25.01-1.56-32.71-24.91-42.5-43.55-7.99-15.21-20.45-22.26-29.93-35.26-1.5-2.05-3.34-4.85-3.06-7.39.18-1.59,4.02-7.2,5.23-8.68,7.32-8.91,23.32-19.86,33.93-23.88,2.78-1.05,5.89-.9,8.68,0,.95.31,6.54,2.81,6.75,3.24,2.97,6.16-10.86,5.37-13.26,7.18-2.11,1.59-2.02,9.9-1.7,12.53.47,3.88,3.58,6.94,6.77,8.87,3.91,2.37,6.1,2.27,10.16,3.32,3.62.94,7.09,2.48,11.08,2.44,2.83-.03,3.27-1.75,5.29-3.01.93-.58,6.97-3.84,7.54-3.98Z"/>
      <path class="cls-5" d="M623.73,442.95c2.63.3,7.31,1.3,9.79,1.3h10.87c1.49,0,2.04,2.23,2.39,3.04-.73.39-2.02-1.5-2.39-2.17-.07.26-.13.47-.2.47-3.34.07-7.44-.1-10.82-.25-.1,0-.19-.1-.29-.22-2.21-.1-4.45-.39-6.74-.87-.52.48-1.1.61-1.77.55-14.57-1.31-25.62-2.1-40.11,2.39-23.13,7.15-38.34,25.61-50.06,45.5-1.19,1.77-2.58,2.71-4.18,2.8-1.93.57-3.33,1.47-3.37,3.61l-.54.3c-.28-.84-.73-1.48-.43-2.61,1.77-1.29,2.47-1.48,4.21-2.53,4.05-2.43,4.76-5.62,7.17-9.35,5.95-9.19,14.69-20.07,23.45-26.96,19.82-15.58,38.25-17.83,63.03-15.02Z"/>
      <path class="cls-28" d="M649.39,537.61c-.06.61.1,1.05-.22,1.71-.74,1.54-7.45,3.69-9.34,4.37-12.58,4.5-25.89,7.72-37.81,13.71-7.71,3.88-13.92,7.15-22.09,10.51-2.76,1.13-6.91,3.7-9.59,4.75-1.38.54-3.36.26-4.57.64-.91.29-1.42,1.68-2.79,1.99-1.89.43-3-.15-4.48-.34-.06-.26.08-.71,0-.87l.46-.42c1.91,1.61,4.07.73,5.62-.89,2.28-1.21,4.84-2.31,7.31-3.25,6.25-2.39,11.99-4.83,18.05-7.67,15.41-8.88,32.45-14.78,49.62-19.9h2.01s3.91-1.74,3.91-1.74c0-.97,1.16-1.18,1.74-.43.99-.56,1.49-1.35,1.62-2.47l.56-.13v.43Z"/>
      <path class="cls-20" d="M238.8,562.36c-.51-.38-2-7.62,1.47-6.48,1.44.47-.31,7.33-1.47,6.48Z"/>
    </g>
    <g>
      <path class="cls-1" d="M732.03,531.97c1.13,0,1.33.56.43,1.3-1.14.44-2.47.89-3.7.9-19.74.26-39.79,1.15-59.6,2.55-4.75.34-13.53.54-17.73,1.84-.89.28-1.11,1.58-2.16,2.19-1.78,1.03-6.13,2.65-8.15,2.94-.41.06-.88-.04-1.3,0l.08-.63c3.1-.98,6.32-1.99,8.96-3.89l.53-1.56c.33-3.51.98-4.63,4.13-2.21,4.03.19,8.1-.46,12.21-1.96,20.46-1.56,40.71-2.7,60.75-3.44,1.76-.71,2.17-4.42,2.35-6.25.24-2.45.03-4.31-.35-6.73,0-1.37-.02-4.24,1.82-3.74l.59.17c.06,6.23.45,12.4,1.15,18.5Z"/>
      <path class="cls-26" d="M733.34,531.97c.33-.75,4.28-.99,5.09-.83,1.59.32,2.21,1.11,3.11,2.32,11.25,18.53,31.08,27.97,52.81,23.97l2.06.6c1.2-.36,1.46.63.43,1.3-.39.03-.8.43-.87.43-5.82.12-13.12.38-18.92,0-11.54-.76-23.2-8.17-30.89-16.49-2.58-2.8-4.59-6.15-6.92-9.15-1.93-1.18-4.97,1.12-6.77-.84-.29-.32-.27-.97-.43-1.3-.64-1.55.34-1.16,1.3,0Z"/>
      <path class="cls-30" d="M816.85,647.91c-1.68-.26-1.35-.3-2.61-.87-3.71-2.39-5.44-7.36-6.76-11.42-.46-3.01-1.25-5.87-2.38-8.55-.09-.35-.6-1.12-.87-2.17-1.19-7.34-2.06-14.72-2.61-22.15-.05-.72.05-1.45,0-2.17-1.68-12.58-2.56-25.12-3.08-37.78-.04-.9.13-1.77.47-2.6v-.87c1.06-2.76,7.67-3.93,10.72-4.41l1.03.5c.8,1.52,3.91.71.86.43l-.43-.86c.66-1.46,7.74-4.98,8.78-4.69.27.08.54.2.79.35-1.46,3.69,0,2.34.97,4.9.62,1.63.32,6.17.36,8.33.37,22.32.4,44.69,2.16,66.89.4,5.07,1.33,10.11,1.72,15.18-.05.8-.8,2.09-1.59,2.33-1.25.37-5.99-.11-7.53-.35Z"/>
      <g>
        <path class="cls-21" d="M784.23,488.54c-4.17-17.02-2.28-47.12,19.6-50.05,15.44-2.07,31.08,3.03,43.54,12.25,4.1,1.55,6.84,3.62,9.33,7.15,2.27.86,4.26,2.04,5.97,3.52l-.15.65c8.21,8.77,8.77,22.14,6.05,33.2-.16,1.53-.57,8.35-.14,9.35,1.72,4.06,6.59-1.27,6.18-4.19.1-4.48.69-8.19,2.68-12.19.22-9.37-1.51-19.23-6.12-27.38-.11-1.27-.08-2.5,1.36-2.27,2.91.51,3.28,1.92,4.58,2.17,1.42.27,2.6-.46,3.25-.43.42-1.04.85-.75,1.3.87,1.69,1.46,3.63,2.03,6.02,2.63,4.16,2.44,8.51,4.46,13.04,6.05,2.04,2.06,4.01,2.42,5.9,1.08l5.5-4.43c12.31-9.36,23.31-.11,10.16,10.92-1.47,3.49,6.39,3.64,8.41,3.54l10.42-1.07c1.18-.18,2.23.16,3.21.81,7.15,5.97,16.17,10.51,25.29,5.91,2.54,2.09,4.49,4.8,5.85,8.13.36.68,2.67,5.21,2.73,5.52.11.58-.05,1.12-.27,1.65s-7.32,7.23-8.27,8c-4.41,3.58-8.59,6.96-14.36,8.15-.15.03-.34-.17-.55-.44-.12.4-.27.4-.43,0-1.39-.1-2.72.38-4.01,1.45-8.89,1.86-13.29,6.56-17.92,13.84-2.99,3.24-6.52,3.01-10.59-.68-4.38-.46-8.74.68-13.07,3.41-4.88,1.75-17.44,5.47-18.46-2.15-1.08-5.94-2.85-11.71-5.31-17.31-3.41-.76-6.48-2.14-9.21-4.13-1.29-.18-4,3.67-3.53,5.21,4.42,21.76,1.82,44.31-3.97,65.74-.86,9.43-.72,18.91.39,28.45-1.21,7.54-.74,10.17,7.27,12.13,4.18,1.03,10.95,2.09,15.09,2.58,14.96,1.79,30.1,2.59,45.17,2.58,2.03,0,4.58-1.18,6.2-2.35,6.55-5.9,12.96-11.77,19.13-18.22,3.74-2.96,5-2.29,8.16.99,3.53,1.36,7.29,2.26,11.28,2.69,5.03.93,10.85,4.94,6.61,10.21-.35,5.13,3.74,8.97,7.45,12.05,1.31,2.89,2.79,5.63,4.43,8.22,7.1,4.96,7.09,7.49,1.54,13.83-6.99,8-16.12,14.8-26.25,6.95-6.8-10.22-19.87-6.21-29.27-1.87-4.69,2.44-9.46,4.44-14.48,5.77-3.91,2.91-8.55,4.78-13.92,5.61-10.55,6.75-22.59,9.74-34.8,12.59-8.23,1.92-16.8,3.81-25.27,4.09-11.55.38-21.83-4.61-23.87-16.65l-2.09-3.65c-.13-3.21-2.12-17.17-4.74-18.6-3.12-.31-6.2-.78-9.24-1.42l-.18-1.1.73-.77,4.18.37c1.89.42,3.01-.11,3.34-1.59-3.05-29.42-4.35-58.82-3.9-88.19l-.29-1.9c-2.05-2.3-2.1-4.02-.15-5.19-.38-.21-.56-.51-.54-.93,1.62-2.4,2.05-3.96-.41-5.87l.09-1.02c-.73-.5-.88-1.31-.44-2.42-.26-2.88-5.32-10.07-7.15-12.63-4.84-6.93-5-4.4-.5,7.6l-.6.93c-.88,1.05-2.14.78-3.77-.8-9.88-9.17-18.34-18.41-20.47-32.51-1.68-1.7-3.63-12.83-3.15-13.87.1-.21.26-.4.43-.58Z"/>
        <g>
          <path class="cls-6" d="M954.3,517.64c.28,1.82.57,3.56.87,5.21-.57-.8-2.06-3.06-2.82-3.05-5,2.39-9.32,2.88-13.26,7.19-2.44,2.67-7.16,11.24-10.34,11.86-3.34.65-6.74-5.13-9.9-5.15-3.47-.02-6.57,2.37-9.7,3.35-2.36.74-5.8,1.59-8.26,2.17-3.88.92-8.44,2.35-11.06-1.74l-5.97-20.53-7.41-3.04c-1.83-.57-2.6,2.11-2.62,3.5-.09,6.52,2.26,14.54,2.61,21.29.62,12.17-2.92,31.78-6.73,43.21-2.06,6.15.19,25.62.63,33.23.34,5.98,2.35,6.48,7.83,7.82,17.33,4.24,32.95,3.9,50.71,4.09,4.86.05,8.93,1.62,13.47-1.72l19.4-19.72c2.33-1.85,5.59-3.03,8.03-.71.78.74,1.2,2.12,1.93,2.85,3.65,3.59,15.54,1.51,18.87,8.94,1.62,3.6-.48,3.64-.97,5.92-.53,2.47,4.47,7.12,5.94,9.53s2.44,6.33,3.8,8.37c1.94,2.92,7.83,4.34,7.14,9.32-.3,2.12-1.97,2.95-2.95,4.45s-1.89,3.78-2.94,4.88-8.13,6.19-9.6,6.91c-4.34,2.14-9.97,1.87-14.23-.41-4.51-2.42-5.82-7.52-12.22-7.33-14,.41-23.44,6.39-35.59,11.8-18.51,8.24-39.63,16.34-59.72,19.41-7.51,1.15-15.42,2.48-22.79.28-16.77-5.01-16.56-22.67-20.04-36.88-1.62-2.05-4.02-1.23-6.07-1.76-7.26-1.87-10.66-3.27-13.47-10.43-6.79-17.31-6.57-36.16-9.55-54.3l-1.31-26.7c-.32-1.07.14-1.27.87-.43.23-1.24,1.76-1.16,2.17,0,1.16.14,1.11.54,0,.87l-.38,1.39c.26,13.1,1.26,26.1,2.99,39,1.26.43,1.22,1.72,0,2.17.55,7.42,1.42,14.81,2.61,22.15,1.25.23,1.9,1.31.87,2.17l.99,2.23c.72,7.36,3.44,13.28,8.14,17.74.82-.88,2.4-.25,2.61.87,2.58,1.82,9.17.35,10.81,2.45.69.88,3.01,8.97,3.34,10.56.52,2.56.28,5.72.84,7.85.31,1.18,1.61,2.37,2.07,3.58.68,1.78.56,3.49,1.55,5.4,3.67,7.01,10.83,10.57,18.58,10.74,8.93.19,23.45-2.67,31.97-5.18,5.8-1.71,13.63-3.31,19.06-5.29,3.04-1.1,8.27-4.85,11.96-6.3,2.88-1.14,6.77-1.5,9.56-2.61,1.65-.66,2.15-1.92,3.48-2.6,2.11-1.09,5.5-1.46,8.13-2.74,5.65-2.75,11.09-5.46,17.32-7.03,5.56-1.4,11.64-1.46,16.4,2.04,1.68,1.24,2.93,3.62,4.41,4.71,3.74,2.76,10,2.6,14.09.74,3.58-1.63,12.18-10.19,13.56-13.82s-4.03-5.96-5.76-8.02-2.18-5.54-3.91-7.7c-1.46-1.83-3.84-2.79-5.3-5.13-.63-1-2.48-5.13-2.55-6.17-.2-2.87,2.95-3.26,1.27-6.45-2.7-5.14-12.59-4.5-17.2-6.27-3.39-1.3-3.64-5.24-7.31-2.69-3.44,2.39-8.23,8.4-11.57,11.47-.72.66-1.78,1.05-2.57,1.77-4.42,4.01-6.12,7.64-12.87,8.43-17.74-.62-35.91-.18-53.15-4.17-4.88-1.13-8.54-.14-13.11-3.41s-2.05-6.34-2.18-10.84-.89-9.5-.91-14.3c-.02-4.59-.4-10.18.66-14.58,2.7-11.2,5.43-22.86,5.9-34.49.33-8.06-.04-16.28-.94-24.28-.58-5.13-2.93-7.39,1.56-11.58,2.24-2.08,3.12.52,5.37,1.63,1.61.8,5.5,1.25,6.21,2.05.45.51,4.16,11.18,4.63,12.75.94,3.09.27,8.3,4.25,8.78,2.54.31,8.93-.8,11.55-1.51,4.9-1.32,9.97-5.59,15.32-4.48,2.41.5,4.3,3.68,7.28,3.2,3.14-.51,6.25-6.76,8.26-9.17,3.76-4.53,7.9-4.96,13.05-6.95,1.22-.47,2.11-1.89,3.62-1.46.51.15.66.77.73.81Z"/>
          <path class="cls-26" d="M872.53,458.58c-1.61,2.58.76,3.9,1.49,5.68,2.6,6.39,4.41,17.07,4.14,24.03-.07,1.87-2.01,3.72-2.48,5.78-1.1,4.85,1.34,11.53-5.22,12.63-3.85.65-2.98-9.72-2.67-12.25.27-2.17,1.5-3.82,1.71-6.11.4-4.37-.81-15.17-2.68-19.07-1.19-2.48-3.32-4.6-4.3-7.22,1.84.32,3.58,2.99,4.64,4.71,3.12,5.03,3.59,13.05,3.55,18.91-.03,4.73-.22,9.47-.8,14.17l.52.29c-2.57,9.08,2.38,2.4,3.27-2.02.68-3.41,1.26-8.33,1.61-11.85.52-5.18-.04-9.46-1.05-14.64l-.59-.39c-1.05-3.95-2.54-8.04-4.73-11.48l.1-.71c-.39-1.04-.21-1.17.87-.87.13-.03,2.15.35,2.61.43Z"/>
          <path class="cls-31" d="M999.4,656.03c-.97.87-2.81.77-3.6,1.4-.51.41-1.18,2.38-1.93,3.28-3.22,3.88-12.56,5.4-16.73,2.4-1.26-.91-5.84-5.25-6.98-6.49-2.69-2.93,1.09-3.82,2.85-5.44,2.67-2.46,5.01-5.13,8.29-6.92,2.44-1.33,5.75-.84,9.09-3.09,1.07-.72.85-2.29,3.24-1.95,1.68.24,2.54,2.85,3.54,3.88,2.05,2.1,6.8,3.63,5.63,7.44-.1.31-3.17,5.27-3.41,5.49Z"/>
          <path class="cls-26" d="M828.59,438.6l.81,1.17c9.07,3.61,18,7.72,26.02,13.79,4.89,3.7,10.56,8.55,12.75,14.14,1.08,1.22,1.57,2.51,1.94,4.08,1.85,7.95,1.39,17.74.66,25.84.36,1.54.07,2.27-.85,2.21-.09-6.31.75-12.59.45-18.91-.38-8.08-1.71-13.28-7.85-18.87-2.66-2.43-3.98-1.88-6.08-3.27-1.28-.85-2.56-3.37-4.15-4.55-1.86-1.38-4.67-2.04-6.41-3.47-6.42-5.3-14.67-8.32-22.95-10.65-5.22-1.47-19.86-1.62-24.8.44-2.18.91-8.04,6.09-9.24,8.14-.72,1.23-2.36,5.36-3.02,6.97-2.18,5.37-3.2,15.07-2.96,20.92.16,3.98,1.19,7.96,1.3,11.95-.6-.12-.84-.45-.93-.99-1.2-6.86-2.13-13.77-1.24-20.72-1.06-.5-1.04-2.55,0-3.04.96-3.46,1.83-6.93,2.61-10.42-.21-.15-.39-.31-.43-.49-.6-2.62,9.76-13.66,13.24-14.33,2.46-.17,4.43-.74,5.9-1.68,6.64.84,16.1-2.74,22.48-.08.72.3,2.38,1.72,2.75,1.81Z"/>
          <path class="cls-17" d="M882.53,460.75c4.94,1.91,9.84,4.25,14.68,7.04,2.58.68,4.98,1.68,7.2,2.99,2.69-1.33,5.21-3.16,7.58-5.49,12.15-9.53,25.06.93,11.95,11.49-1.69,1.67-.85,2.7,2.52,3.09,4.95.18,9.88.04,14.79-.43,1.13-.6,2.62,0,3.48.87,7.08,4.96,15.47,10.43,24.02,5.3,3.87-.68,8.02,8.91,9.05,12.02,1.07,2.12,2.38,3.17,4.76,2.23l.44.43c-1,.84-2.57,1.47-3.91,2.17-.03,1.22-.9,1.8-2.61,1.74l-.2,1.36c-3.53,4.04-8.97,9.02-13.66,11.57-1.5.82-4.9,2.26-6.15.96-.59.95-1.17,1.53-1.74,1.74-.12-.64.08-1.49,0-2.17,4.86-1.14,11.05-5.17,14.79-8.46,1.02-.9,7.33-7.01,7.61-7.62.68-1.47-.48-2.25-.88-3.46-.94-2.83-1.01-2.59-2.4-4.98-.76-1.3-3.09-6.27-4.88-5.82-.57.14-1.1.95-1.93,1.15-5.72,1.4-12.4-.03-17.33-2.94-1.59-.93-6.17-5.07-7.41-5.23-4.59.25-9.31,1.57-13.88,1.3-1.74-.1-6.09-.56-6.66-2.48-1.11-3.73,5.85-5.35,5.95-10.38.13-6.15-5.63-6.44-10.27-4.61-.71.28-4.95,2.83-5.76,3.37-1.74,1.15-5.24,4.92-7.2,4.91-1.74,0-3.08-1.74-4.57-2.32-5.2-2.03-7.66-3.19-12.49-5.77-1.89-1.01-5.31-.57-5.77-3.14-.09-.53-.05-1.59,0-2.17.43.21.72.79.87,1.74Z"/>
          <path class="cls-26" d="M784.23,488.54c1.15,3.65.53,7.14,1.51,10.44.39,1.33,1.67,2.42,2.11,3.97,1.59,5.56,2.16,9.45,5.16,14.83,3.17,5.69,5.41,7.35,9.72,11.58,2.49,2.44,4.7,6.68,8.47,6.96l.94-.16c1.54,2.44,3.37,4.34,5.49,5.72,1.36-.24,2.12.08,2.28.95.17.04,1.27,1.06,1.49,1.33,2.33,2.87.43,3.81-.62,6.49-3.4,1.08-6.41,2.84-9.57,4.34.55.62.31.84-.43.43-2.97,1.39-5.55,1.14-8.28,1.94-1.2.35-2.4,1.72-3.46,1.97-.57.13-1.5-.05-2.17,0l-.43-1.3c-.13-.71.31-1.16,1.31-1.37,7.5-1.57,14.75-3.58,21.31-7.75l-.23-.99c.86-.62,1.06-1,.31-1.88-19.35-12.32-33.99-27.91-36.32-52.13l.57-1.89c-1.96-2.35-3.24-25.38-1.95-25.38.21,0,.43.08.64.19-.24,8.76-.45,13.42,2.17,21.71Z"/>
          <path class="cls-7" d="M895.14,487.68c-.02,3.3-2.87,5.65-4.53,8.29-2.06,3.28-6.29,9.45-6.36,13.23-.02,1.3.95,2.95.24,4.11-1.27,2.08-6.5-.94-6.76-2.85-.06-.44,1.63-6.86,1.95-7.59,1.68-3.89,5.82-7.38,8.73-10.4,1.94-2.01,3.01-5.02,6.73-4.78Z"/>
          <path class="cls-10" d="M819.9,542.82c-1.32-.33-2.17.4-3.89-.67-.38-.24-4.68-5.48-4.81-5.84-.94-2.72-1.29-4.34-2.49-7.28-.49-1.19-2.28-6.74.35-6,2.25.63,11.08,14.54,11.26,17.03.07.96-.38,1.83-.42,2.77Z"/>
        </g>
      </g>
      <path class="cls-21" d="M801.63,600.58l-3.04-21.93c-.1-3.76.11-7.54.01-11.3-.05-2.16-1.46-5.26.42-7.15,0,14.41,1.71,26.33,2.61,40.38Z"/>
      <path class="cls-21" d="M804.24,624.9c-1.68-6.61-2.17-15.23-2.61-22.15l2.61,22.15Z"/>
      <path class="cls-21" d="M814.24,647.04c-.68-.31-1.19-.2-1.96-.86-3.44-2.93-5.97-14.59-7.17-19.12,2.35,1.96,1.52,5.48,2.4,8.25.39,1.22,2,4.89,2.61,6.08,1.07,2.1,2.63,3.86,4.13,5.65Z"/>
      <path class="cls-29" d="M731.6,458.14l.45,2.4c-.61,16.79-1.02,33.58-1.22,50.37l-.53,2.38c-1.91,2.44-.39,5.91-.4,8.47,0,1.47-.93,7.32-1.77,8.26-1.65,1.85-6.81.89-9.36,1.08-17.17,1.27-34.64,1.36-51.76,3.04-4.6.45-8.6,3.1-13.48,2.16-1.86-.36-2.96-3.65-4.14,1.31.01-.14,0-.29,0-.43-.46-1.19-.58-2.41-.57-3.68.23-25.91.19-51.6-2.35-77.41-.35-3.03-.25-5.96.31-8.8.38.87.68,1.76,1.09,2.6,2.18-4.03,6.66-4.1,10.86-4.36,12.43-.78,24.56-2.42,36.97-3.47,9.22-.78,18.63-.96,27.85-1.73,5.6-.47,10.42-4.73,9.32,4.97-.48,4.26-1.02,8.47-1.27,12.85Z"/>
      <path class="cls-26" d="M742.04,436.43c-.42.64-1.32.98-2.72,1.02-2.15,1.85-3.28,4.7-3.37,8.55-.06,4.88-.71,9.72-1.96,14.52-1.61,23.07-1.9,46.14-.87,69.22.59.87.67,1.61.22,2.23-.37-.09-.72-.25-1.1-.31l-.21.31c-.04-.08-.63-.19-.78-.72-1.13-3.88-.36-10.87-.5-15.15-.03-.98-.43-1.88-.45-2.8-.45-18.12.28-37.04,1.3-55.15.3-1.67,2.61-5.88,2.61-7.17v-9.12c0-1.55.98-3.29,1.74-4.56,1.96-.55,4.12-2.28,6.09-.87Z"/>
      <path class="cls-13" d="M988.22,495.49c-.93,2.05-2.76,3.45-4.78,4.34-.16.11-.28.31-.43.43-2.44,1.27-4.97-.26-5.85-2.63-1.11-3-2.12-5.44-3.96-8.21-.31-.47-2.53-3.14-2.81-3.27-1.96-.91-2.91,1.17-5.04,1.48-10.24,1.47-13.33-2.46-20.62-7.34h.43l.66-.07c5.37,4.36,12.78,8.21,19.75,5.96,6.52-6.77,11.91,6.42,13.83,11.36,1.36,2.97,6.73-.85,7.03-3.41l2.07-2.05c.72-1.38.22-20.01-.5-22.05-1.93-2.27-2.16-4.52-2.08-7.31-.65-1.99-1.5-3.93-2.56-5.83,1.23-9.51,1.37-19.26.57-28.85-1.58-2.96-2.62-5.28-3.08-8.76l-3.52-5.01-1.35-.13c-8.14-7.84-21.34-11.32-31.18-4.6l-1.39-.05c-.19,1.27-.62,1.56-1.3.87-.3-.13-.53-.26-.52-.35.11-.91,3.03-3.09,4-3.56,2.44-.65,4.67-2.25,7.23-2.56,8.65-1.03,19.82,3.49,25.62,9.93,6.21,6.89,7.1,16.82,7.19,25.82.05,4.98-1.16,11.97-.43,16.5.21,1.31,1.44,2.38,1.92,3.72.68,1.88.44,3.49.85,5.23.36,1.51,1.45,2.78,1.86,4.22,1.23,4.28,1.37,15.23.94,19.8-.3,3.16-.69,3.98-2.55,6.35Z"/>
      <path class="cls-19" d="M979.09,502.44c.35,1.54.47,2.98.46,4.58-.1,8.5-.46,22.23,1.4,30.26.5,2.17,3.33,6.26-1.62,5.99-5.41-.29-13.81-7.42-17.19-11.53-1.67-2.03-6.99-9.71-7.41-11.93.66-1.24.53-1.28,1.74-1.74.68,3.01,2.96,6.7,4.82,9.39,3.24,4.7,8.24,9.25,13.16,12.16,3.25,1.93,7.65,3.15,4.33-2.13-1.24-10.36-1.67-20.73-1.31-31.12.02-.87-.31-1.61-.99-2.21,1.35-1.22,1.07-.94,2.61-1.74Z"/>
      <path class="cls-17" d="M983.44,499.83c1.78-1.26,3.43-2.62,4.78-4.34-.4,2.31-2.63,3.89-4.78,4.34Z"/>
      <path class="cls-26" d="M869.05,459.01c2.68,4.38,3.75,7.8,5.22,12.59.39,1.26.39,2.28,0,3.04h-1.03c-1.27-5.14-2.91-10.62-5.5-15.2l-1.15-.3c-6.1-8.38-16.92-14.33-26.94-16.44,7.16,3.02,13.58,7.23,19.95,12.12.28.22.48.54.68.89s.36.73.5,1.12c3.72,3.39,7.39,7.16,9.64,11.67l-.5.92c-.61.02-1.19-.56-1.74-1.74-4.4-8.76-19.77-18.92-28.54-22.97-2.08-.96-9.91-3.32-10.87-4.36-.6-.65-.76-1.01-.18-1.76,1.72.41,4.39-.26,6.55.19,1.2.25,2.2,1.09,3.36,1.43,11.29,3.27,24.09,8.25,30.54,18.79Z"/>
      <path class="cls-26" d="M869.92,469.43l1.08.25c1.74,9.39,2.09,18.9,1.06,28.55,1.28-7.37,2.3-14.93,1.43-22.46l.78-1.13c-.09-1,.06-2.04,0-3.04,3.21,10.46,2.6,10.74.54,21.17-.59,2.98-.12,6.41-1.34,9.08-.47,1.03-2.48,3.95-3.71,3.59-2.29-.67-.2-4.47.16-5.62,2-6.29,1.33-26.01-1.74-32.13.4.38,1.54,1.39,1.74,1.74Z"/>
      <path class="cls-26" d="M803.37,436.87c.7.81.2,1.04-.56,1.4-1.69.8-3.84.63-5.66,1.3-4.66,1.72-10.77,9.28-12.49,13.81-.77,3.49-1.64,6.96-2.61,10.42-.06,1,.03,2.03,0,3.04-.72.45-.43,1.65-.44,2.38-.09,8.62.4,14.38,1.75,22.8-.23.02-.46.03-.68,0-.16-.02-.31-.07-.43-.17-1.83-1.52-1.99-13-2.03-15.82-.08-5.68,0-12.24.78-17.73,1.41-1.41,1.73-2.79,1.69-4.7l1.11-1.54c-.27-.24-.58-.52-.62-.88-.3-2.73,9.9-12.85,12.54-13.45l-45.96-.03c-1.3.05-8.14.63-8.82,1.05-3.38,2.09-4.25,12.83-4.05,16.37-2.83,21.41-3.06,43.1-2.2,64.65-.43,3.52-.31,6.82.36,9.87,2.24-.41,4.22-.18,5.94.68,11.34,17.84,29.25,30.44,51.16,25.22l1.24.73,2.51-.76c8.01-.4,15.64-2.99,22.28-7.33.37.12.66.36.87.7-3.34,3.59-13.53,6.28-18.37,7.5-1.18.3-3.18,1.47-4.25,1.62-21.97,3.16-38.63-2.32-52.37-19.58-1.43-1.79-3.35-6.33-5.69-6.52-1.89-.15-2.52.63-5.01.04-1.08-1.28-1.21-2.94-1.32-4.54-1.09-15.37-.04-34,.47-49.51.17-5.23-.17-10.87.42-16.08.37-3.29,1.78-6.65,2.12-9.61.4-3.42-.24-13.91,3.64-15.47,1.3-.53,2.2-.19,3.37-.33,15.25-1.87,35.42-.44,51.13-.42,4.84,0,5.76.29,10.2.85Z"/>
      <path class="cls-21" d="M811.2,554.98c1.27-.06,3.52.25,2.42,1.76-.73.99-3.89.34-2.85-1.32.14-.07.27-.36.43-.43Z"/>
      <path class="cls-26" d="M782.05,463.79c.22-3.6,1.34-7.06,2.61-10.42.52,3.76-1.68,6.91-2.61,10.42Z"/>
      <path class="cls-24" d="M976.48,504.17c.97-.06,1.53-.02,1.74,1.08.37,1.96-.14,5.2-.02,7.4.35,6.7.12,18.81,1.42,24.63.44,1.97,3.29,4.85-1.2,4.69s-13.87-8.64-16.74-12.41c-1.47-1.94-2.73-4.43-3.9-6.53-.95-1.71-2.75-2.53-1.32-4.98,1.18-.44,2.52-.4,3.72-.85,6.65-2.46,11.26-8.52,16.29-13.05Z"/>
      <path class="cls-13" d="M941.25,479.42l-9.33.88c-1.85.16-3.64-.24-5.46-.45l14.79-.43Z"/>
      <path class="cls-26" d="M783.36,492.02c3.58,22.36,9.56,33.96,27.98,47.41,1.25.91,8.31,5.74,8.58,6.19,1.22,1.99.06,2.25-.9,3.29-2.89.46-5.32,2.7-7.83,3.69-7.02,2.74-10.57,2.89-17.83,3.7.1-1.48,1.39-2.28,3.87-2.4,2.59-.11,4.74-.22,7.24-.94s18.77-6.17,8.95-7.69c-3.37-3.16-6.53-5.5-10.67-7.7-1.91-3.33-3.68-4.99-6.98-6.95-1.16-3.41-3.12-5.88-5.86-7.41-5.55-12.17-9.26-26.13-10.67-39.57.18-8.93.3-17.53-.23-26.25.28-2.24,2.3-6.38,4.79-5.32-.37,1.21-.19,3.27-.54,4.45-.29.98-1.5,1.88-1.86,2.92-1.18,3.39-1.01,19.88-.63,24.11.23,2.61,1.19,6.25,2.6,8.47Z"/>
      <path class="cls-22" d="M530.21,495.49c.16.91-1.27,1.95-2.17,1.74,1.43,5.52,2.92,11.04,4.47,16.55,1.78,2.36,2.36,4.43,2.9,7.25l1.95,2.52c.02,2.59.91,4.75,2.66,6.49,5.61,14.86,12.27,29.27,19.99,43.23l1.53.81c.51-.61,2.29-2.01,3.04-1.3-1.55,2.64-3.56,2.49-6.09,1.3-4.08-7.87-8-15.83-11.56-23.85-.45-1.01-1.71-1.92-2.03-2.75-.46-1.16-.17-2.22-.56-3.35-.36-1.06-2.06-2.15-2.29-2.93-.25-.86.09-1.8-.31-2.73-.31-.72-1.82-1.44-2.16-2.19-.57-1.28-.31-3.57-.77-4.88-.34-.98-1.75-1.57-2.18-2.6-.55-1.31-.13-2.56-.52-3.82-.37-1.19-1.86-1.83-2.19-2.59-.43-.97-.18-2.4-.64-3.71s-1.76-2.18-2.09-3.13c-.43-1.22-.23-3.28-.66-4.55-.39-1.17-1.63-2.13-2.08-3.57-.81-2.56-1.21-5.22-2.15-8.06-.46-2.63,1.53-3.8,3.91-3.91Z"/>
      <path class="cls-15" d="M626.34,444.25c5.8,1.02,11.7,1.45,17.71,1.31,1.06.19,1.71,1.12,2.19,2l.4,11.91c2.42,25.71,2.65,51.87,2.27,77.63-.23,1.2-.57,2.08-1.69,2.68-.71.29-1.24.27-1.74.43l-3.91,1.74c-10.4,3.17-21.02,6.5-31.09,10.44-7.78,3.04-14.65,7.39-22.12,10.92-7.82,3.7-15.68,6.75-23.78,9.47-1.37.46-1.54,1.22-3.04,1.3-.86-.12-1.15-.41-.87-.87,1.77-1.97,4.21-3.01,7.32-3.13,2.29-1.67,4.33-2.29,7.11-2.68l12.54-6.05c11.48-6.72,23.48-11.84,35.97-15.38,2.64-1.75,5.62-2.7,8.94-2.87,4.28-2.37,8.83-4.16,13.65-5.38l.31-1.09c-.42-10-.44-20.21-.06-30.64-1.23-19.12-2.01-38.24-2.34-57.37l-.5-.64c-9.46-.41-19.07-1.29-28.85-2.64-23.4-1.34-42.49,4.81-59.27,21.35-8.69,8.57-14.49,17.56-20.34,27.97-2.27,1.46-4.35,3.05-6.24,4.75-1.06.16-.99-1.28-.87-2.17.51-.84,1.4-1.13,2.17-1.74,4.29-3.37,5.5-6.22,8.37-10.52,17.24-25.76,35.78-40.55,67.94-42.05,6.6-.31,13.26.84,19.81,1.32Z"/>
      <path class="cls-3" d="M646.78,447.29c.15,8.19.79,16.36,1.31,24.53,1.34,21.02,2.59,44.24,1.3,65.36-.84,1.76-.36,1.86-2.17,2.61,2.05-1.98.88-3.3.85-5.41-.24-15.65.68-31.25.04-46.93-.53-13.08-2.73-26.21-2.29-39.41-.31-.97-.8-1.84-1.87-2.04-3.08-.58-7.65-.21-10.86-.45l-6.75-1.3c1.9.14,5.55.87,6.74.87h11.31c.62,0,1.94,1.64,2.39,2.17Z"/>
      <path class="cls-3" d="M645.48,540.22c-1.05,1.21-2.58,1.33-3.91,1.74,1.02-1.24,2.65-1.31,3.91-1.74Z"/>
      <path class="cls-25" d="M977.35,414.29c.35,1.86,2.99,3.93,3.59,5.32.71,1.66,0,3.46.52,5.12.33,1.04,1.5,1.59,1.93,2.42.91,1.75.66,18.44.51,21.68-.07,1.58-.22,5.21-.46,6.48-.36,1.88-1.51,2.07-1.74-.41-.29-3.08-.36-7.47-.95-10.34-.8-3.88-11.17-15.17-14.46-18.13-2.43-2.19-6.34-4.27-8.29-6.93-2.4-3.27-.95-5.44-5.86-7.39-.53.58-1.4.59-2.6.02l-3.82.1c-2.02.06-4.35-.87-2.27-2.73,10.3-8.09,25.49-4.12,33.93,4.78Z"/>
      <path class="cls-26" d="M952.12,412.11c1.36,1.75,4.83,4.66,1.86,6.43-2.95-.47-6.05-.08-8.99-.4-2.7-.3-5.02-1.87-7.66-2.13.16-.13.25-.69.43-.87,1.55-1.51,2.78-3.32,4.35-4.78.35-.32.91-.56,1.3-.87-1.39,2.78,4.49,1.56,6.27,1.77.87.11,1.64.52,2.43.83Z"/>
      <path class="cls-26" d="M860.78,456.84l.86-.46c2.83,1.31,4.55,3.6,6.36,6.08-.73-1.28-.81-2.28-.25-3.02,2.65,1.36,2.53,3.93,3.47,6.31.39,1,1.18,1.78,1.53,2.81.67,1.96.29,4.39,1.52,6.08.78,9.11.47,11.34-.82,20.25-.06.44-.29,6.79-2.02,4.09-.89-1.39.2-7.04.25-8.9.11-4.34.16-17.3-1.76-20.64l-2-3.87-7.14-8.72Z"/>
      <path class="cls-26" d="M867.74,459.45c.25.5,2.55,5.34.24,4.32-.28-.12-2.9-3.85-3.92-4.77-1.08-.97-2.39-1.47-3.27-2.16-4.82-3.76-9.74-7.41-15.08-10.34-1.16-.64-7.96-3.31-7.96-4.2,0-.26.66-.62,1.07-.66.66-.06,5.13,1.09,6,1.41,7.11,2.62,19.45,9.32,22.93,16.4Z"/>
      <path class="cls-26" d="M793.36,556.28c-6.05.67-11.66,2.09-17.95.77-14.94-3.14-23.37-10.02-31.89-22.01-.54-.76-2.76-3.82-3.23-4.15-2.38-1.67-5.93,1.27-6.5-1.76-.49-2.57.11-7.1,0-9.99-.8-21.91-.67-41.27,2.1-63,.41-3.22.17-6.79.6-9.82.2-1.4,2.31-6.68,3.16-7.7,1.6-1.9,7.54-.92,9.97-1.77l47.64.02c.05,1.98-2.39,2.26-3.87,3.29-3.35,2.32-8.41,7.99-9.61,11.9-7.2,3.57-2.41,12.54-3.46,18.91-2.03,17.53,3.56,33.18,8.88,49.28,1.17,3.54,2.76,2.69,4.34,4.36,1.23,1.29,1.68,4.1,2.85,5.41.97,1.09,3.07,1.78,4.13,2.82,1.15,1.11,1.57,2.86,2.61,3.91,1.45,1.46,4.6,2.47,6.28,3.72,1.18.87,2.98,3.41,3.96,3.86s1.96.15,3.02.89c2.17,1.53.95,3.25-.99,4.21-2.13,1.07-9.59,4.08-11.82,4.7-3.35.94-7.29-.27-10.24,2.15Z"/>
      <path class="cls-12" d="M528.91,499.4c.6.02,1.13.15,1.24.73l3.59,12.96c1.69,2,2.63,4.37,2.8,7.11,1.76,1.68,2.66,3.84,2.7,6.47l1.95,2.3,3.77,10.57,15.93,32.47-.23,1.22c.23.31.62.56.87.87-.59.03-1.18.07-1.73-.22-.98-.51-3.53-6.89-4.28-8.34-4.15-8.02-8.38-16.24-12.08-24.42-1.43-3.16-2.66-7.97-4.01-10.76-.51-1.06-1.57-1.47-1.98-2.8-.36-1.17-.14-2.37-.48-3.43s-1.44-1.53-1.89-2.46c-.64-1.33-.52-3.02-1.18-4.47-.46-1.02-1.45-1.66-1.77-2.58-.47-1.36-.31-3.33-.85-4.8-1.19-3.22-1.71-3.35-2.59-7.4-.41-1.88-1.79-3.37-.68-5.19.2.78.54,1.45.87,2.17Z"/>
      <path class="cls-11" d="M559.08,575.99c-1.76-2.44-3.01-6.65-4.35-9.28-4.19-8.22-7.95-15.99-11.75-24.3-1.48-3.25-3.82-7.11-5.1-9.94-.33-.72-.97-3.08-1.44-4.27-.51-1.3-1.22-2.33-1.6-3.51-.35-1.1-.75-2.19-1.16-3.15-.54-1.26-1.32-3.55-1.87-4.97-.45-1.16-.68-2.63-.98-3.5-1.37-3.95-3.46-11.72-5.07-15.27-.14-3.25,6.24-4.45,8.17-7.2,3.4-4.86,5.06-10.39,8.82-15.28,16.7-21.7,36.67-32.89,64.68-33.4,11.35-.21,22.55.39,33.63.96,1.45.08,4.59,2.79,5.74,5.34-.44,24.72,2.93,49.36,1.88,74.11-1.29,3.59,1.13,12.73-.34,15.68-.52,1.05-2.38,4.15-3.55,4.67-3.44,1.56-4.42,1.23-7.59,2.36-.77.27-2.48.37-3.48.74-1.63.61-3.41,1.15-4.97,1.61-1.33.39-2.5.86-4.05,1.3-5.4,1.52-9.73,3.02-14.92,5.25-9.6,4.12-17.38,8.58-26.94,12.76-2.29,1-4.67,2.09-6.55,3-1.08.53-1.4,1.16-2.59,1.59-1.07.38-3.12,1.22-4.2,1.61-1.3.48-2.82,1.2-4.15,1.66-1.14.39-4.78,1.67-6.29,1.44Z"/>
      <path class="cls-18" d="M913.85,423.4c.82-.14,1.83.19,2.73-.09s1.4-1.69,2.36-1.99c1.3-.41,3.65-.16,5.02-.63,1.21-.42,1.69-2.22,3.68-2.41.66-.06,6.83.95,7.08,1.21.62.64-.4.96-.85,1.08-2.85.78-4.26-.51-6.99,2.16-1.81,1.78-3.95,9.09-5,11.94-1.76,4.75-2.73,9.06-3.76,14.05-.51,2.46-1.69,6.81-1.15,9.1.3,1.26,1.88,1.76.81,3.16-.57.75-6.73,3.35-8.03,4.15-.81,1.23-4.11,4.45-5.49,4.12-.69-.17-1.76-1.02-2.61-1.35-.77-.29-1.69-.19-2.5-.55-1.12-.5-1.94-2.14-2.73-2.49-1.02-.45-2.42-.15-3.72-.63-1.03-.38-1.8-1.49-2.84-1.94-1.96-.86-7.46-.76-6.4-4.29.29-.98,2.09-1.68,2.44-3.22.3-1.33-.1-2.8.09-4.04.14-.9,3.59-6.27,4.36-7.58,3.65-6.17,7.26-10.07,13.32-14.06,1.83-1.2,8.52-5.42,10.15-5.71Z"/>
      <g>
        <path class="cls-27" d="M937.77,415.15c.89.81.73.89-.43.87.82,1.26-3.06,3.11-3.7,1.74,0,.21-.04.41-.13.58-.16.29-5.61-.29-6.4-.58-2.45,2.51-4.8,3.09-8.29,3.33-1.71,1.53-2.65,2.16-4.97,2.32l-.09.92c-12.16,5.37-21.02,14.36-26.78,26.31l-.97.12-.6,4.27c-4.68,4.94-1.56,6.39,3.96,7.47,2.08,1.55,4.06,2.44,6.6,3.04,1.69,1.51,3.27,2.39,5.55,2.67,2.58,1.91,3.55,2.14,5.99-.23,6.9-6.77,22.62-14.33,23.18,1.47-.7,3.41-2.74,6.28-6.14,8.62,4.1.31,8.21.33,12.35.06l2.62.85c.08-.39.23-.37.43,0,1.72-.93,4.7-.54,5.22,1.3h-.43c-.9-.6-2.39-.89-3.48-.87-4.92.49-9.85.63-14.79.43-1.28-.15-3.76.52-3.93-1.54-.16-1.9,5.35-4.03,6-7.9.84-4.95-1.22-8.64-6.62-8.37-3.08.15-7.13,2.02-9.65,3.64-2.21,1.42-5.62,5.77-8.21,5.52-1.55-.15-1.59-1.12-2.7-1.67-1.31-.65-3.03-.73-4.34-1.32-2.84-1.28-5.95-3.52-8.71-4.76-2.26-1.02-4.02-.35-5.77-2.71-.86-3.11,1.11-4.05,1.96-6.08,1.43-3.42,2.02-6.65,4.04-10.3,7.17-12.98,19.87-20.18,33.59-24.65,1.49-.48,2.59-1.83,4.31-2.21,3.72-.81,7.76-.26,11.34-2.36Z"/>
        <path class="cls-23" d="M977.35,414.29c3.57,3.77,3.3,3.83,4.64,8.61.52,1.83,1.98,2.98,2.28,5.11.55,4.02.58,12.6.49,16.91-.08,3.86-1.61,9.14-.24,12.8.43,1.16,1.51,1.98,1.94,3.28.67,2.02.19,3.7.56,5.52.26,1.26,1.45,2.24,1.86,3.35.75,2.05,1.13,21.02.42,22.58-.28.62-1.61,1.45-2.15,2.2-.58.8-.58,1.92-1.3,2.61-.4.38-4.72,2.63-5.15,2.52-2.57-.67-2.75-4.48-3.6-5.99-.65-1.15-2.23-3.56-3.03-4.79-4.89-7.56-5.89-2.03-11.31-1.75-6.68.35-12.43-3.3-17.6-6.96-2.9-2.05-1.88-1.24-5.22-1.3-.26-2.96,4.37-1.67,5.97-.31,3.67,3.18,7.62,5.87,12.52,6.68,1.81.3,7.14.95,6.95-1.59-.09.34-.23.84-.5.87-1.03.11-7.49.11-7.91-.29-.15-.14-.23-.35-.29-.58-.73.79-2,.29-3.8-1.5-6.88-1.8-7.02-6.53-.23-8.15-1.37-4.46-2.65-9.11-3.83-13.94.23-1.3-4.67-12.2-5.93-11.66-.07,8.23-.36,16.53-.9,25.08-.1,1.6-2.34,3.16-3.76,3.69.95.39,1.37.96,1.26,1.71-4.44-.06-10.39.48-14.59.03s2.78-4.5,3.65-5.95c3.39-5.66-.17-13.07-7-12.2-2.98.38-8.37,2.95-10.88,4.68-1.4.96-4.69,4.81-6.2,4.81-1.4,0-1.62-1.14-2.72-1.67-1.23-.6-3.31-.63-4.62-1.47-2.62-1.67-2.22-1.36-5.18-2.65-1.15-.5-2.02-1.43-2.95-1.83-1.42-.61-5.39-.83-5.97-2.72-.85-2.75,1.03-3.06,1.88-4.91.71-1.56.36-2.97,1.08-4.35,1.45.64,1,4.07.28,5.33-3.64,2.73-2.32,4.54,3.94,5.43,2.13,1.95,3.82,2.24,6.57,2.58,1.41,1.81,3.13,2.81,5.15,3,2.41,1.98,4.88,1.08,7.41-2.71l7.79-3.96c-1.51-2.87-1.24-4.74-.69-8.05,1.31-7.93,3.93-17.75,7.13-25.17,1.97-4.56,3.28-7.54,9.13-7.27l-5.29-.74c-2.67,2.47-4.75,2.79-8.25,2.96-1.36,1.66-3.74,3.33-5.33,1.25.6-.67,1.66-.39,2.5-.76s1.27-1.37,2.18-1.73c1.35-.54,3.39-.29,4.78-.87.9-.38,2.6-2.28,3.81-2.28h6.52c.52,0,3.18-1.32,3.7-1.74.31-.43.7-.75,1.25-.67,4.67,1.85,10.19,2.59,15.21,2.4,1.61-.06-1.14-4.25-1.96-4.61l.28-1.02c2.95-1.37,4.96,3.16,5.8,5.64l1.18,1.77c5.7,4.5,10.59,8.64,15.29,14.24,6.11,7.29,8.54,11.05,8.22,21.11.63-9.02.98-18.35-.02-27.37-1.83-1.86-2.65-4.38-2.46-7.55l-3.32-4.55c0-.45.19-.82.53-1.12Z"/>
        <path class="cls-16" d="M939.94,478.99c-.14,0-.29,0-.43,0-5.26-2.47-1.31-1.84.65-3.91.47-.5.84-.92.99-1.61.24-4.6.39-9.19.53-13.8.02-.83.43-1.67.45-2.59.06-3.16-1-6.24,0-9.34,1.35-1.12,3.88,2.99,4.42,4.02,3.14,5.98,3.96,12.21,5.78,18.55.56,1.96,2.59,3.7.19,4.96-1.52.8-4.7.38-3.8,3.41.61,2.05,3.3,2.14,4.59,2.82.74.39,2.78,2.27,3.38,2.27h8.7c.37,0,.78.89.61,1.47-.49,1.61-6.01,1.22-7.45,1.02s-5.83-1.75-7.16-2.41c-2.82-1.4-6.38-5.95-9.48-5.76-.8.05-1.47.23-1.96.9Z"/>
        <path class="cls-16" d="M960.46,475.01c-1.49-2.42,2.94-1.84,3.74-2.64.92-.91.32-4.95,2.9-4.7,2.15.21,2.15,5.28,2.46,7.14.13.81.69,1.47.8,2.24.13.93.18,5.8-.17,6.3-.4.57-1.93.6-2.45.22s-.43-2.79-1.26-3.95c-.14-.2-3.18-3.14-3.52-3.43-.6-.51-2.42-1.05-2.51-1.18Z"/>
        <path class="cls-14" d="M956.25,476.2c2.22.02,4.09.47,6.01,1.56s5.77,4.75,1.39,5.17c-.97.09-5.41-.32-6.51-.49-.32-.05-5.59-2.59-5.88-2.81-3.42-2.59,3.12-3.45,4.99-3.43Z"/>
      </g>
    </g>
    <g>
      <g>
        <path class="cls-26" d="M143.38,638.51c-5.71-6.12-13.1-11.9-17.87-18.85-1.22-1.77-3.3-5.27-2.61-7.33,1.18-3.52,7.75-10.66,10.63-13.27,7.41-6.72,15.87-12.09,24.8-16.06,3.23-1.44,4.22-3.05,8.29-2.19.53.11,6.8,2.66,7.11,2.89,3.14,2.25-3.23,4.3-4.85,4.62-2.39.48-6.81-.1-8.12,2.32-1.54,2.84-1.24,12.42-.59,15.72.5,2.5,3.11,4.79,5.16,6.14,4.04,2.66,14.55,6,19.32,6.33,1.69.12,5.74.26,7.2-.19,1.11-.34,1.59-1.51,2.36-1.98,6.05-3.73,10.9-6.65,18.16-3.79,1.35.53,1.88.71,2.09,2.25.51,3.77-3.1,11.41-4.07,15.52-2.01,8.58,1.77,24.74,8.39,30.97,7.14,6.72,19.52,6.11,20.44,17.81.42,5.28-.19,8.7-4.56,11.93-10.79,7.97-38.42,8.75-50.35,3.37-19.09-8.61-22.89-35.31-35.13-50.04-1.74-2.1-3.91-4.14-5.79-6.16Z"/>
        <path class="cls-26" d="M171.35,586.22c-.79.91-7.82,1.26-9.54,1.98-3.59,1.52-3.67,9.56-3.48,13.02.28,5.08,1.27,9.14,5.68,12.14,6.41,4.35,18.17,6.52,25.83,6.78,3.98.14,2.86-.95,5.24-2.62,5.21-3.65,9.99-5.06,16.42-3.37,3.96,1.04.28,5.72-.34,7.71-1.62,5.19-3.46,13.07-2.78,18.43s2.96,13.44,5.77,17.69c1.73,2.61,5.07,5.8,7.71,7.5,3.84,2.48,8.57,3.42,12.36,6.34s5.15,11.91,2.4,15.85c-3.5,5-9.05,5.69-14.3,7.01-17.58,4.43-36.2,3.88-48.95-10.31-10.32-11.49-13.32-28.71-23.96-41.21-6.46-7.58-18.59-16.79-23.37-24.87-2.15-3.64-1.62-6.43.77-9.83,7.58-10.77,21.3-19.78,33.12-24.69,2.62-1.09,2.36-2.45,6.41-1.8,1.15.19,6.38,2.69,5,4.29Z"/>
      </g>
      <g>
        <path class="cls-26" d="M272.28,602.31c2.13,5.67,4.27,11.59,8.48,16.07,3.1,3.3,6.85,5.07,10.79,7.03,2.63,1.31,6.12,2.24,7.59,5.45,3.87,8.47-2.79,16.57-11.02,18.3-12.67,2.66-34.78-2.6-44.1-11.9-3.28-3.28-6.13-9.66-8.95-13.65-2.73-3.86-9.08-9.87-10.19-13.92.76-.91,1.25-.78,1.3.43l1.09-.21c3.86,5.13,7.72,10.26,11.56,15.4,5.41,17.35,37.53,27.26,52.79,20.3,7.21-3.29,9.28-13.02,2.14-17.33-5.45-1.06-10.79-4.71-14.73-8.66-1.81-1.82-9.05-13.44-7.73-15.11.15-.19.34-.33.55-.47-.87-1.39-.72-1.97.43-1.74Z"/>
        <path class="cls-26" d="M271.85,604.05c0,3.36,5.38,12.33,7.82,14.99s7.44,5.91,10.76,7.49c1.2.57,2.58.39,3.77,1.02.39.2,3.95,3.44,4.08,3.74,1.07,2.6.6,8.64-1.01,10.94-5.11,7.27-18.62,6.98-26.37,5.55-13.87-2.57-27.17-8.17-32.78-21.99-3.91-3.63-8.15-12.62-11.93-15.66.03-2.82,5.38-3.54,7.74-4.21,6.47-1.85,13.78-3.06,20.75-3.6,3.64-.28,10.53-.85,13.92-.45,1.73.2,2.25.88,3.25,2.18Z"/>
        <path class="cls-26" d="M246.94,605.22c3.76-1.69,6.56-.89,10.77-1.17,2.5-.17,10.06-1.54,11.78-.46,1.34.85.81,2.12,1.27,3.08,3.39,7.09,6.64,13.87,13.75,17.97,2.38,1.37,6.5,2.58,8.82,3.79.42.22,3.81,3.53,3.96,3.86.79,1.73.18,6.95-.88,8.66-1.92,3.09-8.58,6.24-12.15,6.55-11.86,1.02-32.86-4.85-40.43-14.38-.79-.99-1.29-2.17-2-3.22-2.86-4.26-5.55-8.62-8.25-13.04-.9-1.47-6.34-5.3-6.04-6.88.25-1.31,5.78-2.41,7.24-2.75,2.74-.64,10.48-1.25,12.15-2Z"/>
      </g>
      <g>
        <path class="cls-26" d="M238.36,566.27c-7.8,4.8-12.09,6.63-21.31,8.68.96-1.56,2.6-2.61,4.94-3.14l9.95-3.57c3.48-.84,4.48-3.16,2.99-6.95-.23-8.31.67-9.45,9.22-11.66.13-3.5-6.83-4.03-9.72-3.52-6.41,1.13-20.16,14.41-25.08,19.28-1.39,1.38-5.06,5.22-5.68,6.99-2.57,7.35,6.75,4.5,10,2.15.97-.28,3.08-.73,3.37.42-3.26,1.7-9.94,6.43-13.48,3.47-.66-.55-2.96-4.09-2.93-4.92.07-1.92,6.66-9.02,8.36-10.72,5.22-5.23,19.6-18.2,26.58-19.06,1.11-.14,2.24-.09,3.34.07,2.42.35,8.94,3.69,8.08,6.54-.43,1.43-6.97,3.14-8.59,4.03-2.86,1.57-.89,9.21-.03,11.91Z"/>
        <path class="cls-26" d="M217.04,574.96c-1.24.27-2.47.11-3.91.66-2.17.82-6.7,4.3-9.16,1.76-3.09-3.19-1.25-5.39.9-8.27,4.13-5.51,21.38-20.9,27.52-23.33,3.49-1.38,10.27-.91,12.51,2.44,2.04,3.05-4.54,3.06-6.66,4.27-2.7,1.53-2.7,5.13-2.52,7.94.35,5.46,2.72,6.2-4.12,8.89-5.13,2.02-9.55,3.02-14.57,5.64Z"/>
        <path class="cls-26" d="M234.32,546.4c2.16-.44,6.24-.44,7.96.98,3.6,2.97-2.59,2.95-4.66,4.05-2.19,1.16-3.42,5.39-3.38,7.69.03,1.74,2.06,5.58.66,6.96-.19.18-4.15,2.09-4.67,2.29-5.92,2.17-12.05,4.21-18.08,6.27-3.44,1.17-9.19,5.19-8.25-2.16,2.22-1.99,3.73-4.73,5.75-6.85,3.86-4.08,19.91-18.23,24.69-19.21Z"/>
      </g>
    </g>
  </g>
</svg>