<?xml version="1.0" encoding="UTF-8"?>
<svg id="Layer_1" data-name="Layer 1" xmlns="http://www.w3.org/2000/svg" viewBox="0 0 1080 1080">
  <defs>
    <style>
      .cls-1 {
        fill: #7f7f7f;
      }

      .cls-2 {
        fill: #3c6282;
      }

      .cls-3 {
        fill: #84817f;
      }

      .cls-4 {
        fill: #b0adac;
      }

      .cls-5 {
        fill: #eee;
      }

      .cls-6 {
        fill: #a3a3a3;
      }

      .cls-7 {
        fill: #848484;
      }

      .cls-8 {
        fill: #fff;
      }

      .cls-9 {
        fill: #96bcd5;
      }

      .cls-10 {
        fill: #fdcca7;
      }

      .cls-11 {
        fill: #adacaa;
      }

      .cls-12 {
        fill: #676868;
      }

      .cls-13 {
        fill: #daab8b;
      }

      .cls-14 {
        fill: #535453;
      }

      .cls-15 {
        fill: #e1af89;
      }

      .cls-16 {
        fill: #282828;
      }

      .cls-17 {
        fill: #f6f5f4;
      }

      .cls-18 {
        fill: #edbd9c;
      }

      .cls-19 {
        fill: #fccca7;
      }

      .cls-20 {
        fill: #505251;
      }

      .cls-21 {
        fill: #525352;
      }

      .cls-22 {
        fill: #b3b3b3;
      }

      .cls-23 {
        fill: #deab86;
      }

      .cls-24 {
        fill: #535554;
      }

      .cls-25 {
        fill: #505150;
      }

      .cls-26 {
        fill: #a8aaa9;
      }

      .cls-27 {
        fill: #2a2a29;
      }

      .cls-28 {
        fill: #666968;
      }

      .cls-29 {
        fill: #e5d5c7;
      }

      .cls-30 {
        fill: #adadab;
      }

      .cls-31 {
        fill: #efcbb7;
      }

      .cls-32 {
        fill: #666868;
      }

      .cls-33 {
        fill: #b0b0b0;
      }

      .cls-34 {
        fill: #dfac87;
      }

      .cls-35 {
        fill: #808281;
      }

      .cls-36 {
        fill: #d84140;
      }

      .cls-37 {
        fill: #fefefd;
      }

      .cls-38 {
        fill: #acacac;
      }

      .cls-39 {
        fill: #214766;
      }

      .cls-40 {
        fill: #abaaa5;
      }

      .cls-41 {
        fill: #ddab86;
      }

      .cls-42 {
        fill: #5c5c5b;
      }

      .cls-43 {
        fill: #2c2b2b;
      }

      .cls-44 {
        fill: #808181;
      }

      .cls-45 {
        fill: #666967;
      }

      .cls-46 {
        fill: #525453;
      }

      .cls-47 {
        fill: #535353;
      }
    </style>
  </defs>
  <g>
    <path class="cls-8" d="M151.17,582.61c6.61-3.45,8.22,9.29,10.39,11.79.84.97,3.31.94,5.06,2.19s12.68,14.94,13.12,16.79-.83,3.61-.51,5.46c2.77-2.22,8.56,1.94,8.96,4.21.21,1.19-3.69,4.23-2.62,8.78.17.71,1.72.7,1.82,1.07.76,2.76-1.65,2.17-2.21,3.18-1.7,3.08-2.93,9.64-2.31,13.09.24,1.3,1.98,2.92,1.79,3.17-.07.1-1.5.07-2.21.94-3.75,4.56.54,8.16.32,9.38-.09.52-3.78,6.48-4.23,9.39-.86,5.64,1.36,9.63-2.04,14.73l-4.67-9.35c-3.47-7.05-9.63-10.51-15.19-15.66-6.61,4.82-16.24,1.17-23.98,2.41-3.46.56-5.57,4.47-9.55,3.57,1.48-3.32.47-12.25,2.24-14.5,1.15-1.46,4.89-.36,5.76-3.37.38-1.31-.49-2.76-.28-3.99.4-2.32,1.87-10.08,2.72-11.59,2.19-3.89,6.54.92,7.58-2.42,2.04-6.53-7.64-3.01-8.15-5.45-.42-2.01,1.62-4.68,1.91-7.1.64-5.44-1.39-19.67.83-23.4.81-1.36,3.35-1.29,3.66-4.74.22-2.42-3.24-.89-3.47-2.65s3.59-11.27,5.33-12.66c5.28-4.23,11.49.32,9.91,6.74Z"/>
    <path class="cls-36" d="M984.04,812.68c-.99-.06-2.28-.2-2.72.91-1.07,1.38-3.02,2.09-5.84,2.15-2.49,1.47-5.88,30.73-2.48,34.73,6.56.86,13.2,1.45,19.92,1.76l1.08,2.12v1.81c-7.11-1-14.18-1.95-21.34-2.65-3.36-1.31-4.15-3.76-4.68-7.09-.77-4.91.76-16.99,1.68-22.3.42-2.44,2.06-11.52,4.09-12.21,2.99-1.01,8.42,1.67,10.29-1.93,1.03,1.09,1.18,1.06,0,2.72Z"/>
    <path class="cls-9" d="M375.68,857.97c.04.14,1.43.18,1.8,2.26.32,1.8.24,14.11-.38,15.01l-12.28,1.76c.56,6.95,11.96,18.64,6.36,24.92-1.69,1.89-3.43,1.51-4.55,2.24v-.91c-.55-1.51.28-2.98,2.48-4.42-.66-6.21-2.97-12.15-6.93-17.81l.83-2.23c-1.7-3.96-1.1-5.17,1.81-3.62,2.84.67,7.71-.49,10.87,0v-17.21Z"/>
    <path class="cls-29" d="M773.1,429.54h-.91c-1.79-4.18-3.6-8.41-5.43-12.68-2.3,1.51-3.81-.77-1.81-2.72-.14-.47.1-1.24,0-1.81,5.22,4.67,6.79,10.63,8.15,17.21Z"/>
    <path class="cls-37" d="M389.26,780.98c.11.09.21,1.99.91,2.71-10.15-.52-21.86,4.98-28.1,13.1-4.23,5.51-5.17,9.77-6.51,16.13-.27,1.27-1.6,3.53-1.6,3.83v33.97c-7.35-4.16-3.02-13.5-4.71-19.29-.78-2.68-5.51-3.36-6.01-6.74-.23-1.55,2.51-8.6,2.48-11.67-.02-2.9-1.58-5.71-1.75-8.92s.39-24.56,1.33-25.9c.83-1.19,4.09-1.04,5.51-.89,9.44,1,19.27,2.46,28.95,3.67,1.83.23,9.03-.37,9.51,0Z"/>
    <g>
      <path class="cls-16" d="M311.4,555.44c15.46,8.22,18.24,6.13,34.74,8.26,33.08,4.28,56.18,8.49,87.47,20.72,7.03,2.37,7.28,8.18.91,10.87-8.32,18.09-12.29,38.8-11.09,58.52.04,3.39-.11,7.67-4.3,5.79-2.14-.84-4.38-1.37-6.73-1.47-12.59.69-25.31.71-37.92.56-1.88-.02-13.22-.37-13.84-.68-1.77-.89-4.1-5.49-4.88-7.47-.73-.26-1.45-.55-2.1-.95-3.27-2-15.48-24.71-18.21-30.17l-.51-4.21c-1.85-6.16-7.08-6.41-12.69-6.07-16.67,1.01-32.64,11.78-36.19,28.71.74.56.48,1.83,0,2.72-.21,4.5-.54,8.84-1,13.02-13.91-3.93-28.31-8.64-41.45-15-9.97-4.82-15.11-10.22-19.88-20.06-2.51-5.18-6.23-16.14-1.94-20.54-.39-4.15,2.08-10.35,4.05-14.52,7.99-16.95,18.9-18.6,36.29-20.33,12.64.23,24.91-1.21,36.8-4.33,3.07-2.02,6.02-3.45,8.86-4.29.83-.62,2.04-.32,3.62.91Z"/>
      <path class="cls-43" d="M177.42,351.65c1.17,3.85,3.09,7.59,2.71,11.77-6.69-2.02-13.52,1.61-19.86,3.22-4.61,1.17-13.5,1.83-16.73,5-8.87,8.74-2.76,15.21-2.54,24.21.17,7.1-4.66-1.39-6.99-2.14-9.58-3.07-6.93,7.11-3,12.05,4.15,5.21,11.24,4.69,9.28,12.9l-5.43-1.81c-8.95-10.03-16.99-21.1-18.96-34.92-1.42-9.95,1.71-9.51,5.76-15.88s2.08-6.46,9.28-11.54c12.9-9.09,34.88-18.32,46.47-2.87Z"/>
      <path class="cls-36" d="M475.26,809.96c2.24,2.32,3.11,4.87,6.03,7.1,10.44,7.98,28.2,12.56,36.52,24.15,3.06,4.27,3.22,4.47.91,8.6-2.29,5.61-23.32,11.2-27.25,8.88-7.75-18.05-16.05-35.87-24.88-53.47-.04-4.35,8.21,1.96,8.68,4.73Z"/>
      <path class="cls-17" d="M303.25,771.01c1.51-1.25,2.54-1.13,3.1.36,4.28,15.77,7.87,31.62,10.76,47.54,3.6.43,20.44,1.42,22.08-.89-.11-12.31.18-24.71.86-37.2.98-4.57,1.95-6.5,6.66-5.28.56-.09,1.22.05,1.81,0l9.05.91c1.46.18,2.99.76,5.43.91l11.77.91c3.83.28,11.24,1.08,14.48,2.72-.89,1.7-6.86,2.06-9.01,1.86-11.18-1.84-22.3-3.04-33.35-3.6-1.75,11.46-1.54,22.73.63,33.81l-2.51,11.49c5.69,4.25,7.84,10.7,6.43,19.35l2.51,6.84c-.94-1.12-1.54-2.52-1.8-3.98-.39-2.15-.46-27.54,0-28.91l1.81-1.08c-.6-.41-1.2-.95-1.25-1.67-.05-.62,3-10.51,3.56-11.79,5.41-12.55,17.61-20.86,31.35-21.02l1.65-1.29c1.46.74,4.08,2.7,1.84,4.11-.82.52-11.54,1.61-14.51,2.69-26.49,9.67-23.83,53.26-19.01,75.63.54,3.39-2.12,3.1-2.72,0-6.7-8.74-7.05-18.16-7.38-28.64-.14-5.21-7.63-6.32-10.53-2.79-1.51,4.96-4.01,7.56-7.48,7.79l-11.76.17c-.82,1.72-1.72,2.9-2.69,3.54-.79-2.99,1.56-5.33,1.43-8.16-.21-4.89-4.03-12.23-4.84-16.96-.56-3.27.51-6.08.18-8.49-.69-5.08-5.16-14.93-6.47-20.54s-1.84-11.02-2.47-16.55c-1.09-1.61-5.27-.49-7.26-.89-4.95-.98-10.03-1.76-14.98-2.68,6.63-.81,11.59.45,17.75,1.74,1.59.33,3.53-.21,4.88.07Z"/>
      <path class="cls-11" d="M165.65,675c-.28.46-.58.45-.91,0-1.56-2.06-3.6-4.09-6.34-4.53-6-.78-13.83-1.24-19.89-.32-.27.04-.48.52-.67,1.12-13.17-.71-20.89,15.13-10.95,24.49,16.39-2.01,18.88,19.96,1.6,19.37,1.65,9.55-.67,14.94-6.95,16.19,2.7,7.83,5.9,11.2,13.69,13.28,6.66,1.78,14.86,2.34,22.26,1.05,3.95-.54,5.1-3.47,8.15-5.43-1.73,2.96-3.9,6.5-7.74,7.2-3.46.64-22.7.64-26.17,0-6.28-1.15-12.54-12.29-14.08-18.07l.46-1.87c8.47,1.85,8.63-20.91.47-13.55l-1.83-1.79c-1.62-1.29-4.45-1.44-6.7-3.71-1.02-1.03-4.52-6.25-4.16-7.59.7-2.56,4.45-.39,5.89-.47,2.55-.14,10.89-.86,11.83-2.72.74-1.45-5.61-9.15-5.05-14.49.46-4.31,8.55-13.67,13.17-14.44,4.07-.68,22.09-.68,26.16,0,1.68.28,5.26,2.39,6.43,3.57s.96,2.25,1.31,2.73Z"/>
      <path class="cls-36" d="M354.86,863.4c-.27.59-.57.58-.91,0-4.28-.77-7.24-9.29-8.07-13.42l-.76-13.1c-1.7-10.11-7.65-2.65-9.47,3.17-5.02,2.32-10.66,3.15-16.91,2.48-.16,10.75-.91,21.51-2.23,32.27-2.64,18.52,23.39,36.66,40.27,30.71,1.09-2.85,7.66-3.82,9.85-2.26.79.26.78.56,0,.91-3.89,2.54-6,4.44-11.53,5.22-12.88,1.8-19.32-.85-28.73-8.87-3.96-3.38-12.49-11.6-13.2-16.69-1.24-8.99,1.01-19.26,1.84-28.13.36-3.83-.59-8.68,0-12.22.04-.24,1.73-4.28,1.93-4.42,1.3-.93,11.64.64,14.65-.28,2.64-.81,3.42-7.17,6.05-8.44,1.7-.82,6.44-.81,8.16,0,4.15,1.97,2.33,11.47,2.72,15.39.68,6.88,4.33,11.43,6.33,17.67Z"/>
      <path class="cls-36" d="M206.39,444.03c4.66.05,15.65,1.53,19.82,3.26,5.44,2.26,31.25,21.97,34.84,26.73,4.61,6.11,3.78,14.9,5.32,21.85.82,3.7,15.24,32.92,17.87,36.92v.91l-2.16.02c-10.18-16.74-20.07-33.36-21.31-53.34-2.3-7.48-36.4-34.09-44.18-31.84,4.86,2.42,20.68,11.71,15.09,18.61-.86,1.06-1.17,1.15-2.66.43,1.09-5.82-1.8-8.41-6.04-11.62-6.88-5.21-16.35-8.51-24.74-10.13,1.2-2.74,5.63-1.83,8.15-1.8Z"/>
      <path class="cls-36" d="M311.4,555.44c-.91-.48-2.77-.41-3.62-.91-1.45.94-2.3.88-1.81-.91-.86-.37-1.63-.08-2.34.67-7.48-5.03-14.39-11.07-19.92-18.22l.53-2.38v-.91c1,1.53,5.24,5.75,6.82,7.22,6.19,5.73,13.98,9.89,20.34,15.42Z"/>
      <path class="cls-36" d="M305.97,553.63c.46.28,1.17.53,1.81.91-.94,1.04-2.09,1.89-3.33,2.55-18.33,9.76-41.26,3.57-60.44,10.19-13.62,4.7-19.47,17.38-22.24,30.74l-3.98,2.68c-1.77-.35-2.01-3.24-2.36-3.59,2.01.38,3.82-.22,5.43-1.81l-1.12-2.18c5.64-19.61,12.71-28.75,33.82-31.84l28.29-1.69c8.82.21,15.97-2.12,21.46-6.98l2.65,1.01Z"/>
      <g>
        <path class="cls-10" d="M433.62,584.43c6.4,2.5,18.04,12.19,23.96,17.24,9.88,8.41,25.75,22.68,33.07,33.03.81,1.14,5.28,8.39,5.41,9.08,2.69,14.06-2.46,33.1-4.36,47.23-4.28,31.91-9.12,63.38-15.57,94.93-2.56,7.4-15.02-.07-18.08,5.91l-2.86-.34c-5.43-5.25-12.36-8.59-19.73-10.15l-1.85-2.2c.18-1.28.7-1.96,1.9-1.76-2.44-15.95-5.23-31.86-8.36-47.75-2.9-27.23,4.58-41.39,21.53-60.29-9.12-4.02-19.3-5.72-29.21-6.86l-2.15-2c4.79.4,6.82-1.75,6.11-6.44-1.11-19.67,2.66-40.55,11.09-58.78,2.2-5.74,6.57-7.12-.91-10.87Z"/>
        <path class="cls-18" d="M91.42,680.44c7.79,9.57,7.57,23.39,9.06,35.32,6.27-1.48,11.14,3.65,18.1,0,.46-.64-1.26-3.18-1.81-3.61,3.62.8,6.26-4.37,8.38.23,1.02,2.22,1.18,11.11.2,13.34-.88,2.01-5.75,3.57-7.67,3.64-1.69.07-13.28-.61-14.92-.92-3.35-.64-2.8-4.89-5.9.02,2.84-12.12,2.24-28.43-2.72-39.85-2.7-.08-4.82-3.96-3.62-6.34-.11-.55.16-1.4,0-1.81h.91Z"/>
        <path class="cls-10" d="M334.94,615.22c7.32,11.3,13.1,24.14,20.82,35.32,1.26,1.98,1.86,3.79,1.81,5.43,4.71,5.6,4.07,9.76,2.43,16.57-.7,2.88-4.06,14.92-5.11,16.94l-1.85.92c2.89,2.56,1.99,12.6-.91,14.95l1.81.78c.22,4.37-.38,8.64-1.81,12.8-.71,4.66-.41,9.04.91,13.13-1.38,10.41-3.09,20.97-5.13,31.67,1.15,1.15,1.65,2.37,1.51,3.65-5.12-1.73-9.36,8.66-2.72,8.15-5.18.82-4.92,5.69-5.32,10.53-.7,8.51-.41,16.85-.08,25.2.16,4.18,1.23,8.91-4.06,9.59-3.37.44-16.86.53-19.96-.04-3.52-.65-1.9-4.58-2.49-7.47-2.06-10.15-5.31-20.25-7.7-30.34-.59-2.48-.75-11.37-3.84-12.01,3.31,1.16.93-7.07.73-7.55-.76-1.76-3.04-.81-2.54-3.32-1.52-2.08-2.1-5.04-1.74-8.88-1.88-7.1-4.95-40.86-1.26-45.21.55-.65,1.26-1.01,2.09-1.15.08-.37.67-1.56.91-1.81,2.56-2.79,6.45-12.49,8.15-17.21,1.12-3.12,6.05-17.07,5.02-19.03-.4-.77-13.26-7.62-15.09-8.49-2.21-1.04-5.07-1.54-7.13-2.38-1.48,2.79-6.97.31-5.43-2.72-.88-5.27-.88-10.4,0-15.4.88-17.66,23.16-30.13,39.55-28.74,4.28.36,7.18,1.74,8.44,6.09Z"/>
        <path class="cls-14" d="M334.94,615.22c-1.98-3.06-3.93-5.24-7.65-5.5-16.67-1.19-37.99,10.37-40.33,28.15-.26.79-.56.78-.91,0,2.18-19.61,24.81-31.45,43.05-29.03,2.97.39,5.98,3.04,5.84,6.39Z"/>
        <path class="cls-44" d="M286.96,653.27c-1.53-2.19-1.09-9.55-.91-12.68.05-.89-.1-1.83,0-2.72h.91c-.62,4.72.45,10.53,0,15.4Z"/>
        <g>
          <path class="cls-10" d="M132.15,459.43c1.64-1.41,2.34-1.12,2.9.87,17.51,15.04,28.57,34.72,25.79,58.77-.74,6.4-2.14,15.15-6.96,19.16-3.76.24-7.49-6.28-8.36-10.1-2.67-15.48-2.62-12.87.15,7.83.21,2.07-.32,3.24-1.57,3.53-2.01,6.51-2.97,13.04-2.89,19.58,2.31-.69,2.51.04.91,1.81-4.25,1.44-4.63,9.36-6.08,13.39-3.85,10.73-5.82,11.45-5.65,23.25.43,30.07-13.56,53.61-13.71,81.58,0,1.71-.02,3.3,1.9,4.06l1.04.38c.16,5.15,2.04,10,5.63,14.55.13,3.38-14.21,4.92-17.45,3.37,1.79,4.21,4.16,7.22,8.74,8.45l.23,2.25c5.5.94,4.52,4.08-.32,6.37-1.77.84-16.58-.96-16.94-1.74l-.7-11.36c-.39-8.95-3.79-17.34-7.38-24.98,2.61.54,1.91-1.47,1.85-3.17-.56-15.7-5.44-31.06-8.1-46.28-3.79-21.64,5.58-37.63,5.3-58.75-.34-25.85-1.88-43.18,3-69.53,2.09-11.29,8.26-25.31,16.48-33.33,4.56-4.44,15.69-11.51,22.2-9.94Z"/>
          <path class="cls-13" d="M153.88,538.23c.18.31-.12,1.28,0,1.81-.54.78-.61,3.22-2.36,3.59-2.13.44-5.12-6.77-7.16-3.6-.52.81-3.33,17.73-3.16,19.03-1.51-1.29-.95-3.07-.69-4.74.8-5.13,3.1-13.73,3.34-18.42.18-3.45-3.65-19.93-1.75-22.13,1.52-.29,1.89.34,2.5,1.57,1.74,3.56,1.83,11.37,3.62,15.4.83,1.86,4.41,5.32,5.65,7.48Z"/>
          <path class="cls-34" d="M108.44,642.18c-5.96,3.47,1.12-9.27,1.73-11.37l4.32-18.3c1.59,1.06,1.31,2.42,1.42,4.02.51,7.25.12,13.74-3.49,20.15-.4.71-3.69,5.33-3.98,5.5Z"/>
        </g>
        <g>
          <path class="cls-19" d="M191.9,442.22c3.21.94,5.52,2.38,6.91,4.32,12.08,2.6,44.35,14.48,21.33,26.96-12.17,6.6-25.84,4.14-36.56-4.24-14.23-6.3-28.64-9.84-43.55-13.17l.27-1.19c3.25-4.41,3.03-10.52,2.6-15.73-.23-2.85-2.01-15.01-2.75-17.17-.12-.35-4.14-3.86-5.28-5.14l1.47-1.42c7.14,1.8-2.92-5.63-5.43-7.12-10.53-10.92-3.62-24.32,8.28-12.44l-2.25-13.77c-.15-4.57,2.25-9.26,5.77-12.14,5.28-4.33,28.26-7.76,35.6-8.82l-2.23-7.77,1.35-1.73c2.14,2.86,3.83,5.92,4.34,9.75.38,2.89-.78,4.84-.54,6.81.37,2.98,3.95,9.73,4.85,13.29,3.1,12.3,5.73,28.59,3.95,41.18-1.25,8.85-10.66,7.94-.87,18.28.96,1.01,2.42.99,2.76,1.27Z"/>
          <path class="cls-36" d="M206.39,444.03c-.63,1.18-.16,2.2.74,3.15,5.97,2.2,11.42,5.05,16.65,8.61,3.9,2.65,8.21,7.03,5.24,11.79-.23,5.21-8.35,9.19-13.07,10.84-10.27,3.59-25.73.3-33.31-7.06-1.08-2.06-46-14.53-44.62-11.97,21.52,18.18,31.51,45.42,22.79,73.07l-2.41,2.15c-.8,1.88-1.71,3.39-2.72,4.53-.44.34-1.6.59-1.81.91-2.38-.51-2.29-1.12,0-1.81,7.89-13,8.36-31.3,3.35-45.47-2.61-7.38-8.55-17.47-13.75-23.38-1.52-1.73-9.85-9.6-11.33-9.95.4-1.68,7.35-4.56,8.15-4.53.49.02,1.61,1.46,2.46,1.58,16.08,2.19,36.06,8.21,49.18,16.94,8.64,5.75,26.4,2.99,33.04-4.88,4.84-5.73,3.16-6.91-2.37-11.3-8.02-6.36-16.02-7.12-24.85-10.46-4.27-1.62-4.05-3.05-5.85-4.56,4.69.87,10.38.25,14.48,1.81Z"/>
          <path class="cls-41" d="M151.61,425.04c1.07-.1,15.97,6.56,20.17,7.05,2.22.26,11.83-2.22,11.96.62.13,3-7.02,4.92-9.53,5.02s-12.41-2.19-14.83-3.26c-.72-.32-8.98-6.63-9.11-7.19-.21-.84.93-2.19,1.35-2.23Z"/>
        </g>
      </g>
      <path class="cls-36" d="M284.24,533.7c4.8,7.05,14.45,15.48,21.73,19.93-2.19-.32-2.07,1.92-3.84,2.94-14.78,8.52-42.8,2.48-60.36,9.37-14.36,5.63-16.17,16.86-20.9,29.36-5.96,3.08-11.35-5.93-14.92-9.08-7.85-6.94-16.28-13.15-25.01-19.36-7.83-5.57-15.92-10.86-23-17.74-.78-.76-2.68-2.28-2.81-3.16.98-3.83,2.29-7.52,3.27-11.36,5.27-20.46,5.88-34.17-4.36-53.15-5.32-9.85-10.31-13.72-17.8-21.14-3.74-3.7,5.11-2.72,7-2.47,8.71,1.17,32.63,8.22,40.46,12.08.7.35.89,1.87,1.6,2.21,16.71,8.06,30.14,9.28,43.71-4.56,4.33-4.42.64-7.58-3.15-10.89-5.52-4.84-12.19-7.11-18.58-10.4,6.61-.45,15.44.9,21.24,4.11,7.12,3.95,31.39,21.85,33.74,28.74,1.92,5.63,1.46,13.23,3.51,19.13,2.91,8.38,13.39,27.98,18.46,35.42Z"/>
      <path class="cls-36" d="M353.95,863.4c2.92,5.27,6.32,10.34,9.05,15.4,2.4,4.44,9.75,16.3,7.72,20.8-.45.98-3.01,3.06-4.09,3.66-3.11,1.72-4.76,1.2-7.5,1.84-.83.19-.74,1.48-1.27,1.78-1.26.71-9.73,1.89-11.55,1.85-8.45-.2-23.7-11.82-28.55-18.61-5.83-8.15-1.74-26.27-.92-36.23.22-2.71-.78-11.58.86-12.73,1.72-1.2,11.92.26,15.73-1.47,2.78-1.26,2.74-12.7,11.49-8.44,3.01,1.47,2.23,15.95,2.93,19.71.54,2.95,4.48,9.48,6.12,12.44Z"/>
      <g>
        <path class="cls-36" d="M468.02,857.97c-7.79-5.05-19.2-3.66-28.32-4.72-4.72-1.36-4.37-10.87-4.25-14.75.25-8.14,2.35-16.35,3.75-24.32,1.15-3.59,9.74.77,11.63-3.31.14.13,1.74.04,2.46.67,6.95,6.02,19.56,33.99,17.05,42.85-.35,1.22-1.72,2.4-2.31,3.58Z"/>
        <path class="cls-36" d="M447.94,813.78c1.91.01,2.7.62,4.1,1.76.76.62,6.9,6.88,7.15,7.34,3.94,7.3,5.7,12.99,7.09,20.98.88,5.04,5.31,10.84-3.25,10.55-3.09-.11-21.95-2.14-23.35-2.95-3.53-2.03-2.59-10.88-2.48-14.81.11-3.5.58-11.07,1.16-14.24,1.06-5.8,3.56-8.67,9.58-8.62Z"/>
      </g>
    </g>
    <g>
      <path class="cls-35" d="M712.45,706.71l.96,2.1c-1.45,10.27-2.54,20.52-3.27,30.73,5.58,5.23,8.41,5.1,8.5-.4l1.53-12.73c-.02-4.48,1.33-7.13,4.05-7.94l1.75,1.4c-1,6.12-1.74,12.28-2.22,18.48,2.41-2.14,4.38-2.73,5.9-1.76,15.73-11.37,31.82-22.2,48.26-32.48l2.31.67c3.6,3.56,7.22,7.05,10.86,10.47-7.59,5.17-15.09,10.48-22.5,15.91l-1.15,3.06c-6.74,5.01-12.97,9.96-18.71,14.84l76.93,9.16.87,1.93c-.5,2.79,1.4,1.7,3.13,1.81,6.94.45,8.3-.36,7.74,8.16-2.05-.16-4.33.23-6.34,0-21.43-2.49-43.32-5.1-64.74-8.14-7.41-1.05-15.32-3.13-22.63-3.63-3.74-.26-7.56.15-11.3-.01-14.3,13.03-29.59,25.34-45.89,36.91-1.95,2.08-2.4,3.21-1.35,3.39,7.52-.41,15.06-1.37,22.62-2.89,13.39-2.61,17.64,14.45,7.1,20.53-36.67,5.49-73.47,10.3-110.4,14.42-6.61.59-4.86-3.46-1.78-7.03.51-2.98-.08-6.21-.98-9.1-8.41-3.49,1.31-5.84,5.82-6.57,15.75-1.07,31.71-2.85,47.88-5.34,8.26-7.47,16.41-15,24.48-22.6.3-.3.6-.61.91-.91l28.03-26.58c-1.53-2.71-3.61-5.43-6.25-8.18,3.29-3.87,5.08-8.58,5.39-14.15,1.28-9.33,1.89-19.05,4.53-28.08v4.53Z"/>
      <path class="cls-35" d="M938.77,768.3c2.13-1.34,2.96-.41,1.81,1.81,1.71,3.29,3.67,6.31,5.88,9.06,5.98-1.24,12.02-1.24,18.11,0,4.92.3,9.9,1.51,14.94,3.62,1.11.57,4.11,2.71,5.43,3.62l5.08,4.37c3.45,4.66,7.13,9.22,11.22,12.84,5.38,10.27,10.2,20.94,14.44,32.02,6.03,7.72,8.57,14.62,10,24.13-2.28,1.16-1.2,3.37-3.97,4.64-1.74.8-11.73,2.06-13.66,1.69-4.26-.83-2.26-6.24-6.82-9.04,3.42-8.49-2.36-22.34-6.44-30.43-2.66-5.28-6.04-10.66-10.76-13.95-.67-.89-.66-1.97,0-2.72-5.46-5.81-14.16-12.5-22.25-13.51-9.44-1.17-33.4,4.01-42.04,8.52-4.13,2.15-10.86,6.79-12.14,11.4-1.36,4.87-1.09,27.09-.51,32.98.67,6.81,4.93,17.23,2.56,24.31-1.05,3.12-6.89,2.27-9.4,2.41-1.74.1-3.63-.95-3.13,1.81-2.09,1.45-8.22-9.9-8.17-10.62.06-.79.4-1.47.93-2.07,2.58-4.52-.45-10.24-.89-14.96-1.28-13.84-1.36-33.85,4.08-46.61,4.73-11.1,14.1-15.75,25.42-18.04,2.1-.43,6.75.92,6.73-2.36s-11.15-4.62-14.08-4.97c-5.09-.62-11.37-.3-16.74-.91-.84-.1-3.11-1.47-5.08-1.71-2.33-.29-11.43.49-12.12-1.01-.8-2.32-.04-6.25,2.4-7.17,11.82,1.23,23.59,2.57,35.31,4l1.26-.93c-8.38-14.54-18.45-27.91-30.22-40.1-.34-3.35-.47-18.64,2.57-19.1,1.91-.29,23.8,23.02,27.01,26.44,8.5,9.58,16.15,19.87,23.24,30.52Z"/>
      <path class="cls-22" d="M732.37,758.33c-1.05,1.5-1.84,3.22-3.18,4.52-10.16,9.84-26.93,20.87-38.56,30.25-1.14.92-8.6,5.33-3.99,5.09,10.73-.56,34.34-10.16,34.91,7.72.34,10.84-8.64,11.75-16.9,12.99-30.16,4.53-63.59,8.76-94.05,11.87-3.41.35-10.59,1.24-13.58.95-10.55-1.04-12.69-16.28-3.64-20.9,4.35-2.22,9.33-1.2,13.66-3.54,16.03.04,31.52-4.35,47.53-4.98,7.81-6,14.45-13.36,21.66-19.99,1.12-1.03,1.86-2.27,3.63-2.25-7.98,7.84-15.37,16.33-24.17,23.37-7.13.67-14.34,1.2-21.43,2.11-3.99.51-8.45,2.09-11.96,2.53-5.03.62-16.95-.38-21.19,2.35-3.63,2.33,1.21,2.1,1.58,2.42,1.46,1.26,2.34,8.76,1.84,10.97-.44,1.92-4.22,4.69-2.54,5.64,1.25.73,2.69.53,4.06.44,20.61-1.27,44.48-6.28,65.33-8.95,11.85-1.52,23.59-2.73,35.24-4.59,4.64-.74,8.6,1.73,11.64-3.75,2.44-4.39,1.92-13.65-3.11-15.75-7.02-2.93-22.92,4.47-31.21,2.25l-.42-2.23c14.31-12.05,29.7-22.79,44.23-34.55,1.58-1.28,1.9-4.15,4.62-3.99Z"/>
      <path class="cls-22" d="M707.92,730.26c-.4,2.88,0,6.49-1.14,9.28-1.28,3.14-5.3,2.94-2.08,7.08,1.82,2.33,6.15,2.99,4.93,6.6l-28.87,25.95c9.06-8.9,18.17-17.79,27.09-26.84.36-2.08-6.3-5.52-6.3-8.03,0-2.12,3.36-3.39,4.08-5.01,1.21-2.7.06-6.55,2.29-9.03Z"/>
      <path class="cls-4" d="M991.28,790.94c2.46,2.56,4.18,6.72,6.29,8.65,3.64,3.34,11.68,3.48,11.82,11.27-4.28-4.74-2.57-3.92-8.15-7.25-6.92-4.12-10.32-11.85-16.3-17.21,2.02,1.39,4.33,2.44,6.34,4.53Z"/>
      <path class="cls-14" d="M753.19,600.73c.26-.79.56-.78.91,0-.53,2.33,5.95,19.84,7.64,22.69,9.21,15.48,40.64,22.56,56.63,28.93.04-11.07.12-20.78,8.15-28.98-4.94,7.99-8.22,19.09-6.35,28.55.37,1.88,6.79,4.73,9.07,5.87.59.21,3,1.78,1.81,2.71-1.86,1.44-41.26-.75-47.05-.47-27.12-31.38-52.76-64-79.68-95.54-1.29-.94-.95-2.56.64-2.64s13.11,8.85,15.42,10.68c11.3,8.94,22.59,18.19,32.82,28.2Z"/>
      <path class="cls-1" d="M965.93,599.83c-.28,4.76-3,9.05-4.12,13.54-3.83,15.28-5.06,31.44-4.93,47.15-2.04-.18-4.38.26-6.34,0-5.46-1.96-8.14-.56-8.03,4.18.82,6.2.48,11.75-1.03,16.65l-1.79-.88c-16.48-1.33-33.7-.84-49.82-.03,2.38-7.57,2.98-14.82,1.81-21.74-.06-.52-.78-4.12-.91-4.53,3.76,6.34,5.16,3.19,10.43,3.55,14.92,1,29.59-.31,44.26.15,3.1.1,6.89,2.64,10.5,1.74-.17-18.25,1.17-38.99,7.71-56.16.63-1.66,1.87-2.74,2.25-3.63Z"/>
      <path class="cls-4" d="M969.55,779.17c4.05.95,6.26,1.74,9.96,3.62l-14.94-3.62h-18.11c-.74,0-6.82-7.02-5.88-9.06,1.68,1.87,4.9,7.53,6.97,8.01,1.35.31,9.38-.99,12.53-.79s6.44,1.13,9.47,1.84Z"/>
      <path class="cls-4" d="M889.89,680.44l1.41,1.53-2.1,6.64c12.38-.75,24.86-.88,37.45-.4,6.13.28,10.27,0,12.72-6.39l2.13-.46c2.06-6.22-.59-16.6,1.36-20.83,1.59-3.44,5.64-.28,7.69,0-1.65-.11-5.94-.44-6.85.85-2.9,4.11,4,22.38-6.23,28.18-5.73,3.25-26.31-1.31-34.05,2.17-1.66,6.78-5.75,12.61-10.36,17.76-.93,1.04-3.47.41-1.83,2.69,17.12,17.27,36.01,34.55,47.55,56.14-8.93-10.91-17.03-22.92-26.69-33.53-2.53-2.78-21.07-21.74-22.64-21.75-4.97-.03-2.56,12.14-3.95,15.68l23.79,28.82,7.76,13.02c-1.14,4.17-18.03-.84-21.38-1.22s-7.19,0-10.74-.11c-2.06-.06-4.71-2.01-6.35,0-.57.69-1.67,4.75-1.35,5.44-1.6-.78-.46-5.34.19-6.64.86-1.71,2.44-1.39,2.53-1.51l35.3,4.52c.36-1.47-.3-2.1-.88-3.19-3.11-5.83-10.76-15.67-15.03-21.19-4.07-5.26-9.07-11.04-13.96-15.47.39-4.32.91-15.15.91-19.47v-24.46c0-1.25,3.08-8.08,3.53-10.06,1.33-5.84,2.55-12.49,1.9-18.48,1.99.73,1.82,2.32,1.89,4.04.17,4.62-2.47,12.86-3.7,17.69Z"/>
      <path class="cls-21" d="M712.45,706.71l12.68-84.23c2.08-.52,1.49.39,2.07,1.14,2.05,2.65,9.58,11.35,9.61,13.78.02,1.67-1.45,3.61-1.66,5.53-1.73,15.83-4.91,30.88-7.31,46.58-.43,9.32-1.58,18.89-3.62,28.08-.01.3.01.6,0,.91-3.37,5.23-2.52,22.09-5.36,25.88-2.15,2.86-9.47-2.5-10.51-4.15-.54-.86.37-8.57.59-10.29.97-7.7,2.63-15.43,3.51-23.21Z"/>
      <path class="cls-2" d="M693.44,548.2c3.01-3.4,4.08,1.88,4.5,4.76,19.64,13.36,38.36,28.07,56.15,44.15-.34,1.19-.58,2.42-.91,3.62-14.81-11.95-29.36-24.79-45.23-35.8-1.05-.73-2.64-2.61-3.65-.43-3.87-4.53-11.29-9.29-10.86-15.4.02-.3-.05-.62,0-.91Z"/>
      <g>
        <path class="cls-35" d="M704.3,564.5l5.4,4.49c25.6,30.1,50.72,59.84,75.38,89.22,14.67.57,29.33.86,44,.86l.15-1.27c.53.26,2.06.08,3.32.71,2.12,1.07,15.32,8.05,15.6,8.95-.6,6.66-2.96,13.12-5.34,19.32-.26.65-.57.64-.91,0-2.37-1-.68-7.91,1.81-8.15l-.61,1.81h-39.98l-1.06-1.81,1.67,1.08c.26,5.48,4.32,7.71,12.18,6.68l22.65-.75c1.29-.14,1.96.82,2.43,2.05-1.26,4.13-5.65,5.02-13.18,2.68l-19.29.2c-4.61-.17-7.8-2.68-9.25-7.04-3.93,11.07-14.71,8.65-14.21-2.92-3.78-1.05-5.51-5.71-1.1-5.14-3.26-1.57-2.33-10.35,0-13.13l-1.47,3.37c-4.26,3.34-8.66,5.7-13.63,7.22-6.97-6.96-13.44-14.44-19.3-22.36l-2.03.4c-6.66-10.36-9.78-12.7-9.36-7-1.88,13.15-4.23,26.44-6.62,39.61-.19,1.03-.64,2.02-1.12,3.02s-1.07,1.98-1.69,2.93c-.26.79-.56.78-.91,0-.32-.97-.6-1.96-.76-2.96s-.28-1.94-.15-2.85c2.26-15.31,4.79-31.07,8.05-45.96.24-.93-8.27-12.76-8.45-12.04l-12.13,80.2-1.95.82c.17-1.47-.17-3.06,0-4.53.25-2.11-.33-4.5.12-6.67l11.67-74.35-3.64-6.39-37.12-43.93c-2.59-4.44,3.99-9.64,6.34-13.59.83-3.33,2.04-6.04,3.62-8.15,1.05,1.89,2.09,4.03,3.13,6.42l8.41,7.01-.67,1.97Z"/>
        <path class="cls-20" d="M841,687.68c-9.77-1.32-24.65,1.86-33.76-.19-4.18-.94-5.95-4.88-5.17-8.87h41.64c-.12,1.84-1.09,6.74-1.81,8.15-.07.14-.62.54-.91.91Z"/>
        <path class="cls-47" d="M788.49,678.62c1.75.17,5.79-.67,6.85.85,4.27,6.14-9.2,14.63-6.85-.85Z"/>
      </g>
      <path class="cls-35" d="M724.22,717.57c.34-8.56,2.23-19,3.62-28.08h.91c-.91,5.79-.93,13.38-1.9,19.38-.44,2.7-1.28,6.31-2.63,8.7Z"/>
      <path class="cls-20" d="M889.89,680.44c1.25-1.09,2.32-1.67,4.03-1.85,11.03-1.21,34.03-.85,45.36.04,2.78.22,2.33-.45,2.22,2.72-.87,2.63-3.87,7.57-6.81,8.13-6.88,1.31-20.23-.21-28.08-.02-4.75.12-13.42,2.24-17.93.8-3.13-1,.57-7.27,1.21-9.82Z"/>
      <g>
        <path class="cls-38" d="M749.57,650.55c6.49,7.24,12.81,14.71,19.64,21.64l2.07-.33,12.69-9.54v13.13c0,.32-1.44,1.29-.54,2.31.8.91,2.79.6,3.12.99.88,1.01-.74,13.11,7.36,9.37,4.85-2.24,3.33-9.52,4.1-9.5,3.24.08,2.04,8.37,8.33,9.78,5.35,1.2,15.5,0,21.57.15,4.31.11,10.02,3.06,13.09-.87-1.13-1.35-.64-1.8.91-.91h.91c-2.06,5.38-6.55,12.6-8.15,18.12-11.9-2.72-9.88,8.5-19.88,11.36-9.19,2.62-17.6-1.64-22.89-.29-1.63.42-20.27,13.07-23.32,15.2,1.46-3.6,20.51-13.72,20.82-14.96.47-1.91-5.28-4.64-6.76-5.89-1.7-1.43-3.22-4.68-4.49-4.55-17.19,8.63-32.23,20.71-48.5,30.83-.7-.47-1.02-1.09-.89-1.89,15.05-11.54,30.76-22.21,47.13-32.01-1.98-9.76-2.25-19.71-.83-29.86-2.92,2.45-4.79,3.88-8.42,1.63-2.67-1.65-17.4-19.73-17.81-21.53l.74-2.39Z"/>
        <path class="cls-3" d="M837.38,693.12c-.54,6.99-1.73,11.67-9.95,9.96,2.26-4.37,3.65-11.33,9.95-9.96Z"/>
      </g>
    </g>
    <g>
      <path class="cls-16" d="M843.72,554.54l2.57-.42c6.59,4.82,14.24,6.48,22.23,6.8,1.89,1.7,4.79,2.59,8.7,2.67,30.98,4.01,53.67,7.15,83.29,18.12l11.2,5.92c.86,4.33-1.95,9.7-5.77,12.2-8.03,18.73-9.6,39.71-9.5,60.05-.2,1.35-9.56-.99-10.99-1.47-14.86,1.71-29.85,2.08-44.97,1.1-5.38,1.09-8.02.37-9.68-5.33l-1.25.06c-7.58-13.41-15.69-27.4-24.17-40.49-6.9-6.92-30.29,2.06-36.01,9.38l-2.84.26c-6.93,8.6-7.96,19.35-7.4,30.03-11.69-2.5-24.91-6.9-35.97-11.99-8.69-4-15.91-7.85-21.94-15.5-1.86-2.37-9.67-22.46-8.88-23.94.36-.67,1.09-1,1.77-1.25,5.8-28.43,15.27-34.76,43.29-37.55,14.94.95,28.48-1.43,40.63-7.14.89-1.86,2.18-2.36,3.89-1.51.01-.67.62-.67,1.81,0Z"/>
      <path class="cls-36" d="M889.89,865.21c2.32,4.23,5.6,9.57,7.24,12.68,2.18,4.14,9.04,17.15,8.01,21.08-.26,1.01-2.14,2.65-3.04,3.36-3.34,2.64-9.59,5.62-13.78,6.14-14.56,1.79-20.31-1.28-30.59-10.63-9.64-8.77-11.07-12.75-10.42-25.88.37-7.63,1.1-17.76,1.86-25.31,1.22-12.06,8.27-4.5,16.34-7.2,4.46-1.49,1.98-9.02,9.58-9.54,9.16-.62,5.78,15.89,7.11,21.72,1.09,4.79,5.41,9.39,7.7,13.58Z"/>
      <path class="cls-45" d="M764.96,412.33c.79.99.79,1.59,0,1.81-2.15,1.78-8.25-2.82-7.7-5.43-.09.7-.28,1.72-.81,1.81-4.86.84-14.15.15-18.66-1.81,7.67,1.23,10.07,6.62,12.55,13.6,6.94,19.58,5.75,47.01-8.93,62.49-1.16,2-8.61,1.13-11.13.44s-4.71-1.34-6.42-3.54c-1.48-3.68-3.47-6.87-5.98-9.58l-.62-1.3c5.22-5.62,9.33-11.93,12.32-18.91,8.9.14,13.83-3.43,7.54-11.68-7.19-1.37-14.2-3.42-21.04-6.16-.89-5.73,6.97-21.01,11.77-24.46,1.42-1.02,3.2-1.64,4.96-1.84,4.17-.46,23.56-.55,26.69.52,1.02.35,4.43,3.1,5.47,4.04Z"/>
      <path class="cls-27" d="M709.73,349.83c.81,2.55,5.38,11.52,4.09,13.59-2.02,1.96-3.09-1.28-6.26-.92-4.35.49-21.63,5.13-25.89,6.81-2.81,1.11-4.41,2.24-6.19,4.68-6.86,9.38-2.1,10.92-1.17,19.9,1.13,10.89-2.89,2.59-5.32.34-3.65-3.38-9.4-2.6-9.13,3.15.1,2.07,2.05,4.56,1.89,5.43-.44,2.35-2.87,1.12-4.04-.47-3.26-4.4-8.58-21.52-7.68-26.64.33-1.86,2.49-3.5,1.76-5.93,2.34-3.38,3.41-5.42,5.39-8.65,4.28-6.96,24.06-16.59,32.28-17.52,7.76-.88,14.74.56,20.27,6.24Z"/>
      <path class="cls-36" d="M1009.39,810.87c10.48,11.59,21.81,13.18,33.42,22.27,9.33,7.3,16.65,14.39,3.08,21.95-3.94,2.2-15.85,5.33-20.2,4.69-3.95-.57-2.89-7.06-4.06-10.88-1.39-4.51-4.76-7.31-6.59-10.61-3.92-7.09-6.83-17.18-10.94-25.29-.96-1.89-4.28-7.58-2.85-9.38,3.87-.24,6.91,3.73,8.15,7.25Z"/>
      <path class="cls-36" d="M984.04,812.68c2.57.15,3.95,1,5.44,3.16,6.86,9.99,13.23,21.94,14.48,34.42.24,2.34.88,6.88-2.72,6.8-.31-.19-3.99-1.59-4.31-1.64-1.54-.23-2.76.76-2.93.73-2.36-.52-2.34-1.05,0-1.81-.48-1.88,1.5-3.18,5.92-3.9l-1.78-2.84c-2.58-11.56-5.68-25.05-15.94-32.04-.67-.46-.91-1.18-.87-1.99-1.55-1.2,2.16-2.48,2.72-.91Z"/>
      <path class="cls-39" d="M841.91,554.54c-2.35.97-6.26,4.32-9.35,5.59-10.51,4.31-27.94,2.78-39.98,4.39-12.97,1.73-22.82,3.13-30.18,15.09-3.68,5.98-4.43,10.25-5.99,16.65-.45,1.87-2.23,4.09-2.32,4.48h-.91c-1.87-1.77-1.57-2.98.91-3.62-2.2-1.61-1.63-2.18.91-2.72-.08-3.57.82-6.59,2.72-9.06-2.32-2.53,1.95-9.02,4.03-11.47,7.28-8.58,16.15-10.93,26.85-12.52l26.9-1.87c7.9-.7,16.76-1.86,22.79-6.75.91.67,2.79.62,3.62,1.81Z"/>
      <path class="cls-46" d="M764.96,414.14c.41,1.35,1.25,1.82,1.81,2.72,6.64,12.64,8.11,27.73,6.34,41.67,1.22.39,1.34.93,1.46,1.83.14,1.08-7.96,17.65-9.45,19.59-3.67,4.8-6.14,6.37-12.01,6.91-3.04.28-10.19.03-11.69-2.06-1.51-1.75.08-2.05.89-3.15,13.3-17.97,13.26-48.45,2.31-67.53l-6.82-5.4h19.46c.66,0,6.57,4.53,7.7,5.43Z"/>
      <path class="cls-36" d="M776.73,460.34l.66,1.05c-2.95,4.12-4.77,8.52-5.45,13.19-4.8,8.73-8.81,14.53-19.35,15.05s-30.4.47-34.05-12.13c-2-1.48-2.82-2.97-2.45-4.47.35-.4,1.64-.62,1.81-.91,5.05.41,4.52,6.19,6.29,8.65,3.85,5.36,11.82,3.64,17.25,4.03,8.48.6,13.71,3.46,20.86-3.13,4.45-4.11,9.82-17.17,10.83-23.13.26-.79.56-.78.91,0,.94.55,1.8,1.23,2.72,1.81Z"/>
      <path class="cls-36" d="M838.29,552.73c.31,2.52-.29,2.64-2.21,3.68-19.26,10.45-56.56-.85-72.49,18.05-2.45,2.9-4.5,7.34-5.88,10.88-1.89,2.49-2.8,5.51-2.72,9.06-.23.83-.63,1.76-.91,2.72-1.8,1.4-2.19.67-3.65-.4-7.77-5.7-15.68-14.66-23.58-20.82-8.31-6.48-17.42-12.21-25.72-18.65-1.07-.83-2.77-.97-3.67-1.76-2.72-2.39-.61-7.14-4.03-7.29.4-2.18,2.84-6.29,3.41-8.82.87-3.9,2.03-9.64,2.7-13.61,2.07-12.33,1.21-34.85,7.96-44.57,1.46-2.11,6.35-5.66,8.57-8.18,7.42,3.86,3.55,10.46,13.75,12.97,4.95,1.22,23.6,2.41,28.33,1.51,2.65-.51,10.79-9.8,11.83-12.62.62-1.69.16-3.69.91-5.43,1.03-2.39,3.89-7.2,5.85-9.1,5.64,3.55,17.82,12.64,19.68,18.81,1.52,5.06,1.29,11.74,2.47,16.55,1.29,5.24,18.99,39.47,22.62,43.49,3.16,3.5,12.59,10.44,16.8,13.54Z"/>
      <path class="cls-45" d="M772.2,429.54c.54,2.48,1.61,8.85,1.8,11.33.45,5.72-.31,11.88,0,17.65h-.91c1.07-6.29-.48-23.44-1.99-30.16-.63-2.81-4.38-7.84-4.35-11.5,2.89,4.61,4.22,7.14,5.43,12.68Z"/>
      <path class="cls-36" d="M981.32,813.59c3.39.41,4.65,1.91,6.73,4.59,7.49,9.66,9.1,16.87,11.59,28.25.38,1.74,2.22,2.87,2.08,4.33-.28,2.84-5.45,1.77-7.72,3.59-6.31-1.81-15.04-.23-21.1-1.99-1.3-.37-1.69-1.21-2.2-2.33-2.18-4.72-.24-21.17.75-26.85,1.39-7.94,1.2-10.64,9.87-9.59Z"/>
      <path class="cls-2" d="M755,594.39c.11-3.42-1.14-7.47,2.72-9.06-1.18,3.03-1.86,5.95-2.72,9.06Z"/>
      <g>
        <path class="cls-10" d="M960.5,581.71c13.7,5.07,31.64,19.96,42.56,30.33,6.37,6.06,20.63,20.9,24.25,28.27,2.92,5.94,2.54,19.94,2,27-1.19,15.32-4.41,32.39-6.46,47.88-3.09,23.32-10.17,47.3-13.48,70.75-1.86,6.25-9.34,3.01-14.96,3.19-1.74.06-3.63-.93-3.12,1.81-2.1-.94-4.21-2.45-6.34-4.53-2.07,1.86-6.07-1.02-5.43-3.62-3.55-1.03-6.87-2.24-9.96-3.62-1.11-1.14-1.37-2.86-.78-5.17-2.28-14.7-4.91-29.38-7.91-44.02-.83-6.32-1.25-12.77-.45-19.12,2.23-17.74,9.13-26.2,20.01-38.99.45-.53,1.76-2.15,1.64-2.7-.33-1.52-26.5-7.87-30.24-6.78l-1.29-1.88c1.61-.48,3.51-.62,5.7-.41.29-20.45,1.59-41.68,9.69-60.28,1.72-4.08,3.67-8.05,5.36-12.14l-10.79-5.98Z"/>
        <path class="cls-10" d="M890.79,654.17c1.53,2.38,1.83,3.89.91,4.53,2.54,8.84-1.53,20.65-5.43,28.53.31.06.57.13.62.27,1.65,5.01,1.71,16.91,1.19,22.87l-1.81,1.31,1.36,1.35c-2.32,4.77-2,12.13-1.45,17.33l-.81.8,1.47,3.17c-2.15,10.26-4.01,20.45-5.57,30.57l-1.33,1.58c-1.97,2.06-3.81,4.75-2.72,8.15,3.73-1.56,16.28-2.32,17.2,2.72l-18.11-.91-2.2,43.54-1.87.85c-5.6-1.41-15.15,1.69-19.88.9-3.26-.54-3.8-5.23-4.6-8.12-3.67-13.32-5.56-27.37-9.05-40.76-1.56-3.14-5.53-.7-7.67-2.74l1.17-1.74c4.25,1.36,4.88-3.68,1.76-4.31-7.61.21-10.09-1.1-7.45-3.91.84-1.88,3.08-2.48,6.71-1.81-3.07-17.25-3.42-34.31-1.04-51.17l2.48-2.27-1.25-2.01c2-6.22,5.13-11.59,9.4-16.1,1.17-6.13,2.32-12.32,3.46-18.56-6.22-3.33-11.89-6.8-17.04-10.42-1.69,2.25-6.9-1.12-8.73-2.74-2.39-2.11-1.7-8.62-1.28-12.4.8-7.11,2.73-13.64,7.29-19.28,8.23-8.4,16.58-12.43,28.52-13.58,4.77-.46,9.36-1.04,12.07,3.3,5.05,8.08,21.4,33.77,23.68,41.07Z"/>
        <path class="cls-19" d="M709.73,349.83c6.7,6.87,3.98,11.63,5.64,19.26,1.41,6.47,4.59,13.71,6.04,20.23,1.49,6.72,3.3,14.53,1.9,21.19l4.52-.9.51,1.13c-5.22,6.48-8.72,13.77-10.52,21.87l-1.75,1.46c4.55,1.97,9.29,3.38,14.24,4.22,1.31,1.17,1.24,10.58.46,12.57-2.41,6.24-9.28,15.01-13.81,20.32-7.37,5.96-14,12.8-15.11,22.59-1.16,21.33-4.33,43.19-12.03,63.48l.65,2.28c-3.26,3.38-5.24,7.26-6.99,11.31-3.54-3.91-6.27-.41-9.3-.27-6.77.3-15.79-4.63-20.05-9.75-4.37-5.26-14.42-34.16-15.03-41.12-.76-8.66.49-36.38,3.45-43.71.94-2.32,4.16-4.63,3.82-8.4,2.93.51,4.5,4.92,2.72,7.25,2.97,3.9,5.96,7.26,11.08,8.08l.24.97c.08-.49.17-.88.27-.88,5.51-.15,11.63.39,16.93.88,1.81-.9,2.85.09,3.02,2.26.2,2.68-11.59,17.43-14.13,19.72-5.97,7.91-11,3.1-16.35-2.49,3.62,3.84,6.21,7.94,7.76,12.31,9.77-9.73,18.29-20.38,25.55-31.94l2.75-1.68c2.43-1.79,4.55-3.9,6.34-6.34l-.33-2.41c10.18-15.88,8.47-37.85,2.89-55.18l1.07-2.19c-5.57-12.86-14.57-12.55-26.82-12-5.23,3.41-8.71-.42-8.94-6.2-.21-5.27,4.78-6.34,8.6-3.54,1.06-1.15,2.27-.71,3.64,1.31-3.06-12.52-4.86-21.08,8.37-27.91,3.76-1.94,22.25-6.86,26.39-6.92,1.82-.03,3.25.32,4.76,1.37-.83-3.65-2.08-7.19-3.74-10.6l1.33-1.63Z"/>
        <path class="cls-23" d="M686.2,482.08c-7.67,16.79-22.5,27.82-33.05,42.57-1.42-3,3.54-7.52,2.98-10.29-.3-1.46-11.48-13.46-9.76-15.07,5.15-.18,9.45,10.38,14.73,8.93,2.71-.75,17.49-19.45,17.75-22.2.09-.94-.86-2.13-1.26-2.13h-17.2c-.35,0-5.61-2.22-6.35-2.7-2.33-1.51-3.84-4.01-4.97-6.35,3.67,2.35,5.05,6.18,9.72,7.03,4.36.79,14.68,1.04,19.67,1.17,2.65.07,5.22-.08,7.73-.96Z"/>
        <path class="cls-40" d="M717.88,472.11c.78,1.32.18,1.62-1.81.91l.38,2.23c-7.92,5.67-11.44,12.64-12.27,22.55-.37,17.4-3.25,33.95-8.63,49.65l-2.1.75c.76.22.73.53,0,.91-1.06,3.17-1.91,5.26-3.62,8.15,1.08-5.48,2.62-10.93,4.04-16.33,3.24-12.31,5.32-24.7,6.81-37.57.47-4.07-.56-8.16.44-12.24,3.96-16.31,26.39-24.86,28.32-43.23.21-1.95.1-7.77-.86-9.08s-12.11-2.27-12.49-4.72c3.03,0,6.21,2.13,8.7,2.62,7.67,1.51,16.92-1.41,16.67,9.64-.22,10.12-8.85,5.17-11.82,7.19-.81.55-2.49,5.65-3.61,7.25-3.07,4.4-5.31,6.66-8.13,11.34Z"/>
        <g>
          <path class="cls-19" d="M872.69,502.91c2.75-2.63,5.56-4.86,8.52-7.24,1.06-.86-1.11-1.75-1.28-2.73l1.73-1.28c4.93,1.19,9.96,1.63,15.09,1.3l1.29,1.79c.17-.81.47-.78.91,0,4.67-1.06,9.19-1.67,13.58-1.81-6.57,4.05-6.78,10.77-9.94,17.68-8.5,18.54-16.34,24.97-27.55,40.37-.84,1.16-5.69,8.17-5.83,8.68-1.34,4.74,6.04,1.82,8.01,3.92-14.47-1.87-20.82.06-33.5-9.06-21.05-10.44-34.22-33.84-42.2-55.28-.17-.46.13-1.1.56-1.78-1.16-3.08-1.76-6.4-1.81-9.96-2.09.2-3.06-6.01-1.81-7.25-1.81-8.96,2.87-5.59,6.23.02,2.73,8.63,6.12,14.29,12.42,20.84,2.96,3.07,25.75,25.5,27.6,25.97,1.28.33,2.49.06,3.47-.83,7.18-8.64,15.06-16.67,24.51-23.36Z"/>
          <path class="cls-29" d="M872.69,502.91c-3.94,3.77-8.37,7.4-12.69,11.31-3.16,2.87-9.97,11.92-12.18,13.21-4.73,2.75-7.85-3.46-10.42-5.97-9.69-9.48-25.52-22.46-31.19-34.01-1.35-2.75-1.2-7.43-4.54-9.95-3.61-2.72-3.25-.14-3.22,2.77-5.49-8.6-13.07-15.87-22.74-21.81-.65-.39-.5-1,.1-1.74,11.92,3.89,23.59,13.02,29.92,23.96,2.18,3.78,4.1,10.99,6.26,14.57,2.05,3.37,13.14,11.42,16.77,14.92,3.4,3.28,11.83,14.67,15.82,15.94,1.28.41,2.19.54,3.24-.47,6.94-8.86,15.22-16.85,24.85-22.72Z"/>
          <path class="cls-36" d="M775.82,456.71c3.62,6.66,21.56,12.81,22.63,23.55.04,4.07,1.15,4.48,1.81,7.25.07,3.55.67,6.87,1.81,9.96,10.93,26.77,17.95,40.03,41.64,57.06-.55.11-1.41-.16-1.81,0-2.61.78-3.82.18-3.62-1.81l-1.84.89c-5.25-3.23-13.8-10.05-17.56-14.9-5.77-7.47-20.11-35.06-22.09-44.11.76-16.41-7.34-24.05-20.26-32.24l.2-2.02c-2.21,1.47-3.22.78-2.72-1.81-.19-9.67.14-1.61-.29-5.77.26-.79.4-1.62.74-.84.58,2.8.23.79.47,3.46.43,4.8-1.15-2.42.89,1.34Z"/>
          <path class="cls-15" d="M857.3,543.66c-1.16-1.14.45-2.26,1.12-2.98,2.49-2.7,6.49-5.23,8.81-8.36,2.31-1.71,9.85-16.13,11.33-15.82,1.82.38,1.03,2.3.74,3.43-.68,2.66-3.74,8.62-5.32,11-1.74,2.62-13.93,15.43-16.68,12.73Z"/>
          <path class="cls-29" d="M802.07,497.47c-.07-.17-1.46-.38-1.8-2.24-.43-2.35.24-5.27-.01-7.72.79,3.3,1.73,6.53,1.81,9.96Z"/>
        </g>
      </g>
      <g>
        <path class="cls-14" d="M696.15,415.96c6.61,15.37,8.11,46.91-3.62,59.78-.77.84-6.24,5.43-6.79,5.43h-17.2c-.22,0-1.33-.84-.91-1.81.48-1.11,3.91-3.58,5.17-5.7,9.21-15.48,9.86-48.92-1.11-63.56-1.57-2.09-7.52-5.89-1.6-5.68,3.87.14,13.64.33,16.62,1.51,4.39,1.73,6.31,7.03,9.44,10.03Z"/>
        <g>
          <path class="cls-32" d="M668.99,394.22c-8.23-4.31-10.5,5.54-5.44,8.61,2.68,1.63,16.3-.38,21.04.69,6.07,1.36,9.35,7.3,11.56,12.44l-2.02.51c-4.65-8.43-12.56-11.84-23.72-10.23,16.04,18.62,15.36,57.35-1.87,74.93.09-.7.29-1.74.79-1.81,1.35-.19,14.44-.31,15.13,0s1,1.1,1.27,1.81c-1.12-2.4,4.62-6.87,6.79-5.43-.41,2.82-3.77,5.44-6.34,6.34-2.36,3.24-5.81,3.76-8.74,1.37l-17.4-.54c-4.99-.89-8.08-4.18-10.98-8.08-1.08-2.26-1.93-4.87-2.72-7.25-5.55-16.71-6.92-40.61,3.27-56.05,1.62-2.46,7.62-6.44,7.65-6.96.17-3.14-7.73-13.53-6.46-17.99-2.97-5.77-2.72-11.49.97-16.82,2.4.38,2.39,2.54-.01,6.46.43,8.52,3.24,17.7,7.43,25.1-2.27-4.31-1.23-10.1,4.16-10.87,2.68-.38,6.36.64,5.63,3.76Z"/>
          <path class="cls-6" d="M658.78,432.39c3.2-.88,6.35,2.92,6.66,5.73.79,7.18-6.09,14.86-10.97,6.42-2.06-3.57.69-11.15,4.32-12.15Z"/>
        </g>
      </g>
    </g>
    <g>
      <path class="cls-46" d="M917.95,424.11c2.72,1.3,10.28,15.14,10.81,18.62,1.31,8.68-.09,31.37-4.62,38.74-.54.88-5.21,6.73-5.67,7.01-1.66,1.01-3.35.64-4.99,1.35-.81.35-1.37,1.58-2.55,1.98-3.61,1.21-8.5,1.31-11.99,2.95-.3.01-.6,0-.91,0-.47-4.32,3.92-4.55,6.37-6.76,15.27-13.76,15.99-54.4-2.25-64.85-2.81-1.61-6.49.48-5.93-2.66,7.96-.75,11.93,0,18.84,3.36.98.48,2.47.06,2.88.25Z"/>
      <g>
        <path class="cls-28" d="M946.92,419.58c-2.94.23-5.96.53-9.05.91-.46.37-1.07.37-1.81,0l-1.15,1.81c-5.55-.82-10.53,0-14.92,2.44l-2.04-.62-1.04,1.78c-4.13-1.41-8.32-2.64-12.57-3.68,20.38,17.52,17.48,59.4-6.31,72.55-5.23.11-13.33.26-18.11-1.81-25.76-11.16-24.55-71.16,8.62-74.26,4.48-.42,12.66-.44,17.08.09,3.76.45,7.87,3.37,10.13,3.52s7.75-3.21,11.71-3.61c4.35-.44,9.98-.08,14.49-.03,1.53.02,4.02-.58,4.97.92Z"/>
        <path class="cls-6" d="M881.49,448.72c8.67-2.54,10.27,13.61,2.47,14.38-6.22.61-9.48-12.33-2.47-14.38Z"/>
      </g>
      <g>
        <path class="cls-12" d="M946.92,419.58c15.78,1.78,25.01,26.56,23.54,40.32-2.84,26.64-17.1,38.29-43.84,34.79-4.11-.54-9.64-4.8-13.21-3.1-.57.27-.7,1.24-.9,1.37-5,1.34-8.5,1.57-13.58,1.81l.13-1.37c6.21-1.98,12.35-4.11,18.41-6.39,13.07-15.34,14.41-45.46.18-60.82l.29-2.06c4.92-4.76,11.91-3.57,18.11-3.62,8.48,2.37,9.09,2.37,1.81,0,1.83-1.43,6.58-1.19,9.05-.91Z"/>
        <path class="cls-46" d="M937.87,420.48c5.81.15,10.65-.83,15.85,2.71,23.16,15.77,18.57,70.62-11.75,69.79-5.96-.16,2.3-4.84,4.03-6.85,13.44-15.6,12.81-48.06-3.15-62.02l-6.79-3.62c.6,0,1.21-.02,1.81,0Z"/>
        <path class="cls-31" d="M929.73,468.49c-.74-4.5.87-8.86.98-13.13.06-2.39-2.43-8.74.44-9.44,4.94-1.2,5.36,5.05,4.93,8.56-.31,2.52-2.44,10.93-3.8,12.5-.81.93-.87,1.91-2.56,1.51Z"/>
      </g>
    </g>
    <g>
      <path class="cls-44" d="M181.94,683.16l1.48,2.98c-1.59,17.53-3.97,35-7.13,52.41l7.23,5.39c.88-3.09,2.17-4.63,3.86-4.62,1.81,1.09,3.32,1.4,4.53.91-1.63-2.09-.54-3.06,1.81-1.81,16.55-12.49,33.74-23.76,51.55-33.82,3.81,3.26,7.8,6.34,11.97,9.22l.33,1.47-41.58,29.78c-3.35,2.34-6.23,4.83-2.06,5.83,28.53,2.64,58.23,6.64,86.8,10.59,3,1.36,5.95,9.04,1.92,8.9-34.1-3.89-67.85-8.08-101.23-12.58l-3.24.98c-3.33,3.49-6.91,6.66-10.8,9.52-2.53,2.22-5.54,4.15-8.15,6.34-8.62,6.62-17.07,13.26-25.35,19.93-.37.28-.65.74-.91.91-2.43,3.11-.35,4.04,6.23,2.79,10.51-2.52,33.13-7.07,27.45,11.66-.79,2.62-1.71,5.03-4.36,6.42-36.23,4.38-72.28,9.08-108.17,14.13-6.53.53-10.15.73-5.09-6.39.88-2.13,1.06-4.5.49-6.7-6.18-7.48-3.24-8.51,4.94-9.17,15.93-1.43,31.78-3.3,47.55-5.63,9.19-8.35,18.31-16.76,27.35-25.23.3-.3.6-.6.91-.91,3.95-2.95,7.57-6.27,10.86-9.96,4.89-4.62,9.63-9.43,14.42-14.16.36-2.08-6.3-5.52-6.31-8.03,0-1.73,2.59-2.9,3.42-4.76,3.47-7.81,5.18-35.57,6.67-45.87l2.62-13.23c.36.78.36,1.69,0,2.72Z"/>
      <path class="cls-44" d="M404.65,767.39l1.14-.49c2.63,3.11,5.4,6.28,8.32,9.51l18.52.79.99,1.97c9.36,1.57,17.93,5.6,24.44,12.68,2.51,2.73,4.47,8,8.15,9.96,1,1.33,1.47,2.01.37,3.16,9.68,17.85,17.7,36.12,24.07,54.8-1.01.93-.63,4.12-.97,4.46-.5.49-12.8,2.06-13.97,1.97-5.77-.46-4-5.02-5.41-7.38-.59-.98-1.9-.61-2.28-.86-1.08-1.18-.88-2.55.59-4.12,1.5-6.23-3.82-18.88-6.45-24.73-3.12-6.91-7-12.82-11.34-18.25-16.29-15.38-21.29-16.97-44.6-12.47-10.84,2.09-31.2,8.31-33.2,21.13-1.54,9.87-.17,28.76,2.66,38.44,1.2,1.85,1.49,15.52.76,16.8-.32.56-10.89,2.05-11.63.41l-1.91.72c-.71-.14-7.15-11.95-5.33-12.49-3.11-2.12-4.37-9.79-2.89-13.09l-.47-17.46c-.86-20.55,5.85-44.29,29.1-47.54,6.66,0,8.64-1.45,5.94-4.33l-13.67-1.59-.82-1.13-11.77-.91c-1.21,1.13-4.57.51-5.43-.91l-9.05-.91c-.12,1.29-1.46,1.26-1.81,0-4.43,1.92-6.28-.79-4.74-5.17s3.67-4.24,7.46-2.99l2.1-1.31c9.57.89,19.06,2.09,28.46,3.44-2.08-2.33-2.61-4.25-1.59-5.76-8.05-12.19-16.89-23.83-26.51-34.9-.86-1.46.12-22.5,5.75-15.9,18.01,15.74,33.78,34.44,47,54.42Z"/>
      <path class="cls-44" d="M153.88,540.05c.39-1.42.91-2.32,1.81-.91-.73,2.77-.92,5.61-.58,8.53,4.65,4.4,9.43,8.65,14.33,12.76l-.17,1.36c27.33,29.45,53.45,60.68,78.35,93.69l2.67,5.03.84-1.81h42.15l4.54,1.81c-4.33-.59-6.14-2.1-5.43-4.53l1.58-1.35c4.59,1.09,21.71,8.7,22.58,12.83.4,1.88-3.71,16.12-4.9,18.02l-2.06.39c-.26.72-.56.71-.91,0-2.41-1.23-1.09-6.94,1.81-7.25l-1.07,1.81h-39.04l-1.07-1.81c1.27,7.78,6.21,7.94,13.02,7.75,8.95.07,17.74-.1,26.36-.51-.92,5.65-5.61,7.15-14.07,4.49l-15.97.38c-6.39.26-11.93-1.08-13.38-8.04-.03,4.42-3.19,8.55-7.93,7.85-2.59-.38-5.31-3.4-2.96-5.58l1.93-.21c9.32,2.71,2.54-12.15-1.93.21-1.92-.35-2.87-1.83-2.83-4.45-1.65-.67-2.61-1.28-1.7-3.25-3.01-.87-2.77-12.18,0-13.59l-1.33.77c-3.45,3.35-8.82,8.21-13.57,8.29-9.62-10.71-18.84-21.73-27.65-33.06-2.58,4.75-3.87,10.36-3.87,16.82-.4,6.48-2.13,12.04-5.18,16.69.12,3.84-.48,7.16-1.81,9.96-2.15-.51-2.84-2.4-2.07-5.65,2.83-10.43,4.45-21.17,4.87-32.23l2.66-8.07c-2.72-3.98-5.78-7.73-9.19-11.27-2.02,18.4-4.77,36.84-8.26,55.33l-2.5,1.9c.11-.87-.11-1.84,0-2.72,2.26-17.41,6.05-34.98,8.07-52.15.87-7.39-.36-9.62-4.45-15.33l-43.46-52.08c-.17-.59-.84-1.31-.91-1.81-.91-2.78,2.39-20.54,3.64-21.45.67-.48,2.23.14,3.02.7,1.9,2.99,3.91,3.56,6.01,1.73Z"/>
      <path class="cls-38" d="M254.37,684.97c1.21,3.15,2.45,4.9,6.32,3.15,4.44-2,1.35-10.26,4.99-9.49,2.07.44.05,8.77,7.31,9.91,6.06.95,15.16-.14,21.71.02,5.24.13,11.77,3.94,13.99-2.68h.91c2.46,1.85-1.51,9.39-3.03,12.09-1.05,3.46-2.76,5.17-5.12,5.12q-1.6-2.11,0,0c1.62,1.74,1.46,2.03-.91,1.81-1.39,1.24-3.55,1.89-6.49,1.95-5.41,9.11-9.89,11.95-20.41,12.32l-14.98-1.3c-14.75,9.65-28.82,19.75-42.22,30.31l84.12,10.04.88,1.93c3.53.23,4.92,3.26,5.15,6.45s.4,7.47-3.34,4.42c-7.22,0-14.76-.6-22.63-1.81-19.59-3.64-45.55-3.62-62.87-9.13-5.27-1.68-11.09.04-16.39-1.78-3.48,0-2.94,2.26-4.73,3.68-2.72,2.16-6.14,4.84-9.26,6.33,2.4-2.11,8.47-9.44,10.9-10.37,6.07-2.33,20.74,1.29,27.59,2.2,17.34,2.29,36.17,4.9,54.43,7.13,8.04.98,15.93,1.23,23.86,2.84-.24-10.13-5.56-6.44-12.89-8.21-19.15-4.62-43.17-6.44-63.69-8.9-2.58-.31-15.38-.59-16.27-1.84-.84-1.18-.62-3.26.51-4.15l44.35-31.69c-1.13-1.92-3.51-2.03-4.96-3.17-5.98-4.72-3.64-8.19-11.95-3.8-14.37,7.59-32.06,20.47-45.54,30.07-.35-.63-.74-1.67-.34-1.97,15.71-11.6,33.64-23.42,49.36-33.51-2.13-9.62-2.66-19.57-1.57-29.82-1.84,2.58-5.94,4.09-8.45,1.46-4.56-4.77-25.59-28.77-26.78-32.65-.09-.29.08-.66.31-1.05.27-.44.64-.82,1.04-1.18l28.09,32.2c3.19,1.58,10.37-8.13,12.65-9.11.97-.42,1.81.69,1.81.91v13.59c0,.55,2.73,1.51,3.17,2.26.6,1.05.58,3.39,1.36,5.44Z"/>
      <path class="cls-33" d="M149.35,777.36c-8.87,8.77-17.49,17.82-26.89,26.08l-54.59,6.53c-.62,2.93,2.78,4.71,3.4,7.01,1.06,3.91-.08,9.02-3.38,11.56,1.08,1.59,2.31,1.44,4.02,1.38,4.71-.16,11.3-2.13,16.34-2.73,28.5-3.42,57.83-5.92,86.06-10.81,2.25-.39,4.8.37,6.99-.25,6.4-1.82,6.74-16.71.62-19.27-4.76-1.99-17.39,1.82-23.08,2.22-1.64.12-10.24.92-9.49-2.23.71-1.68,3.14-1.07,3.62-1.37-.72,1.02-2.09,2.87.45,2.73,7.28-.41,23.07-4.9,29.4-2.26,7.02,2.93,6.62,17.81-.63,21.07-24.96,3.72-50.03,6.28-74.94,9.26-13.14,1.57-29.73,5.48-42.55,5.5-12.91.02-13-18.65-4.31-21.59,2.16-.73,10.84-2.48,13.44-2.86,2.92-.43,6.11.3,8.96-.09,13.2-1.79,26.43-3.85,39.64-5.63,8.02-7.03,15.44-14.79,23.28-22,1.12-1.03,1.86-2.27,3.63-2.25Z"/>
      <path class="cls-36" d="M475.26,809.96c-.58-.6-9.15-8.39-7.24-4.09l24.84,52.16c2.26,1.49,12.6-1.49,15.7-2.53,4.08-1.37,6.92-2.79,10.15-5.69-2.46,4.39-5.96,6.27-10.85,7.71-3.2.94-14.4,2.92-17.21,2.25-3.75-.89-4.31-10.43-5.23-13.34-.67-2.13-3.16-6-4.37-8.31-4.53-8.59-7.51-18.31-11.71-27.23-1.28-2.72-5.94-4.08-3.13-9.1,3.89,2.08,7.81,1.89,9.05,8.15Z"/>
      <path class="cls-33" d="M179.23,774.64c-6.38,5.36-12.81,11.06-19.5,16.27-1.75,1.36-3.65,3.21-5.85,3.66,2.2-1.68,5.26-5.24,7.72-7.22,5.49-4.43,11.52-9.19,17.63-12.71Z"/>
      <path class="cls-33" d="M161.12,766.49c-3.09,3.41-6.5,8.26-10.86,9.96,3.61-3.61,7.43-6.72,10.86-9.96Z"/>
      <path class="cls-14" d="M215.44,597.11c1.78,2.95,3.09,3.27,5.37.42l.97.48c-1.17,5.66,1.01,13.38,3.24,18.95,2.92,7.28,8.16,13.8,14.94,17.66,13.52,7.71,30.26,11.98,44.73,17.75l1.37-11.79c.21,4.18.51,8.41.91,12.68,1.33,1.91,3.61,1.98,5.43,2.72l5.43,4.53h-47.53c-18.06-21.24-35.16-43.31-52.98-64.74-9.38-11.28-20.04-21.66-28.04-33.99l2.34.15c16.18,10.02,30.79,21.74,43.83,35.17Z"/>
      <path class="cls-21" d="M181.94,683.16c4.42-12.75,2.96-26.63,7.17-39.47l1.88-18.95c2.53-5.43,2.59-.56,4.1,1.31s8.39,8.76,8.57,10.47c.29,2.84-2.19,6.42-2.67,9.1-1.09,6.2-1.02,14.46-1.94,20.7-.79,5.37-4.21,10.48-2.64,16.83l.28,3.26c-3.08,18.36-6.19,36-9.33,52.89-1.5,1.8-.6,6.42-4.08,6.37-1.04-.01-8.6-5.8-8.7-6.82.95-11.92,3.93-23.63,5.43-35.43.83-6.55,1.08-13.87,1.92-20.27Z"/>
      <path class="cls-38" d="M198.24,673.19c-.19,3.08.34,6.4-.08,9.44-2.34,16.87-6.85,33.76-8.98,50.79-.26,2.11-1.28,8.14,2.72,6.8-3.38,2.69-4.08,5.94-4.53-.91-.47-7.31,1.54-9.22,2.48-15.18,2.15-13.66,3.95-27.55,6.57-40.98.63-3.22,1.21-6.81,1.81-9.96Z"/>
      <path class="cls-30" d="M372.96,690.4c-4.6,1.66-4.2,6.22-6.5,10.26s-6.57,6.89-8.83,10.9c16.78,17.38,35.37,34.48,47.01,55.83-12.05-15.72-29.75-40.14-45.24-52.1-8.79-6.78-6.01,8.06-7.1,13.4,9.15,11,20.08,21.99,26.09,35.07-7.57-11.24-16.73-21.19-25.35-31.7-2.51-3.06-2.01-6.66-1.84-10.45.05-1.19.94-2.35.94-2.68v-13.59c0-4.22.94-9.89.91-14.95h19.92Z"/>
      <path class="cls-10" d="M374.77,778.26c-3.79-.28-8.69.97-11.77-.91,3.85.23,8.46-.91,11.77.91Z"/>
      <path class="cls-10" d="M357.57,776.45c-2.84-.39-6.9,1.02-9.05-.91,3.8-.31,6.1.55,9.05.91Z"/>
      <path class="cls-25" d="M308.69,685.87c-1.26,1.09-2.32,1.65-4.03,1.85-5.09.6-26.23.81-30.81-.06-4.19-.8-7.9-9.04-4.55-9.04h41.19c-.77,2.04-1.21,5.46-1.81,7.25Z"/>
      <path class="cls-36" d="M158.41,534.61c1.02,3.38.57,7.1-1.36,11.16,16.43,13.34,33.22,26.46,50.39,39.35,4.06,4.69,7.37,8.5,13.43,10.18-1.39,3.68-2.06,4.73-5.43,1.81-13.26-13.26-30.84-24.64-46.17-35.32-5.62-3.92-6.84-5.79-11.28-10.91-1-1.16-3.13-1.82-3.66-2.68-1.53-2.49.39-6.5,1.35-9.06.59-1.58,1.23-3.96,2.72-4.53Z"/>
      <path class="cls-24" d="M254.37,684.97c-3-8.32,10.56-9.4,7.96-.64-1.3,4.37-6.91,3.57-7.96.64Z"/>
      <path class="cls-7" d="M301.44,703.08c-.43.21-8.09.82-7.23-1.34.38-.95,3.63-7.53,3.98-7.8,1.74-1.32,4.01-.77,5.97-.82.79.81-2.25,9.73-2.72,9.96Z"/>
      <g>
        <path class="cls-44" d="M417.32,660.51c-1.33,1.68-3.56,2.34-6.7,1.98l1.11,13.66c.87,4.92-3.25,11.71-7.12,14.45-3.48,2.46-25.09,2.34-30.03,1.63l-1.63-1.83c-5.78,1.88-11.98,2.49-18.63,1.81l-1.29-1.81c-.05-5.84,5.35-15.81,6.26-23.17.59-4.79-.29-7-1.73-11.25,2.18-.26,4.06,2.11,4.98,3.62l.28-1.21c14.76.28,30.26.44,45.28.16l.61,1.04c.97-2.93,7.49-1.02,10.41,0,1.42-.08,2.92.25,3.49-1.49,1.16-3.54-.21-14.91.14-19.79.82-11.49,4.88-28.93,9.33-39.58.57-1.36,1.27-2.53,2.43-3.45-5.53,14.41-9.66,31.21-10.85,46.66-.26,3.32.83,16.99-.86,18.16-1.23.85-3.94.28-5.49.4Z"/>
        <path class="cls-42" d="M419.13,659.61c-2.45.13-4.6-1.06-6.82-1.01-1.63.04-3.19,1.01-3.59,1.01h-46.17c-.19,0-.67.78-1.37.49-1.18-.49-1.94-3.53-3.61-4.11-.61-1.8-1.63-3.48-1.81-5.43,1.05,1.52,3.66,5.79,5.1,6.09,4.65-.96,9.7.96,14.32,1.19,12.7.64,26.39-1,38.96-.04,1.76.14,3.73.44,4.99,1.81Z"/>
        <path class="cls-20" d="M406.01,678.63c.39-.05,1.24-1.24,2.26-.9,1,3.18-5.05,11.77-7.69,11.77h-45.72c-.1-2.52,1.68-10.15,3.61-11.38.64-.41,1.19.51,1.37.51,13.91,0,32.98,1.54,46.17,0Z"/>
      </g>
      <g>
        <path class="cls-46" d="M158.41,670.48c1.87-1.21,6.45,2.21,6.34,4.53,12.16,16.58,11.95,43.66,2.72,61.59-.64,1.52-.99,2.21-1.81,3.62-2.66,4.13-5.38,5.94-8.15,5.43-2.29.5-17.23,1.15-17.93.57-1.31-1.09-.35-3.42.75-4.56,14.53-11.61,13.23-53.24,2.51-65.54-3.35-1.69-10.35-5.58-2.74-6.19,5.84-.47,12.56-.23,18.3.53Z"/>
        <path class="cls-44" d="M167.46,736.6c7.11-16.93,8.86-46.25-2.72-61.59h.91c10.81,15.03,11.77,41.73,4.57,58.47-.63,1.47-1.18,2.52-2.76,3.12Z"/>
        <path class="cls-46" d="M90.51,682.25c2,2.63,2.36,3.42,3.62,6.34,1.96,9.61,3.4,18.64,2.75,28.57-.52,7.93-5.54,32.12-15.88,32.12h-15.84c-.86-3.21,1.98-3.08,3.1-4.59,11.23-15.09,11.15-47.83,1.27-63.64-1.37-2.19-4.22-3.33-4.38-6.04h18.56c.5,0,5.94,6.13,6.79,7.25Z"/>
        <path class="cls-28" d="M158.41,670.48c-1.75-.28-19.68-.5-19.92.46-.51,2.02,3.35,1.77,4.94,3.21,7.08,6.44,10.11,29.99,9.54,39.34-.34,5.69-3.44,18.78-6.14,23.75-1.78,3.27-5.82,4.82-6.52,8.41,5.4-.51,11.97.72,17.2,0-.94,1.5-3.44.9-4.97.92-13.56.17-25.25,2.83-31.59-11.9-3.27-7.61-.76-4.14,3.04-5.79,5.28-2.3,1.13-12.13,3.13-14.99,1.49-2.13,7.52,1.35,10.34-4.14,2.04-3.97,1.07-8.16-2.53-10.81s-6.67-.29-9.1-1.76c-.93-.56-4.9-7.12-5.19-8.39-1.41-6.09,3.21-15.25,8.9-17.78s17.4-1.54,23.91-1.47c1.53.02,4.03-.58,4.97.92Z"/>
        <g>
          <path class="cls-32" d="M90.51,680.44c1.1.51,1.42,1.64,0,1.81-2.37,1.43-7.76-4.74-6.79-7.25-.19.7-.48,1.75-1.03,1.81-4.34.51-14.39.66-17.53-1.81,9.47,4.9,12.33,19.93,13.18,30.04,1.2,14.34-.58,35.56-13.18,44.23-.02-.51.02-.95.27-1.19.77-.76,15.39-1.78,15.58,1.19l.68-1.86c15.9-10.4,14.6-38.9,11.24-55.62l1.21-3.21c.59.17,1.09.38,1.24.74,3.21,7.53,3.7,17.79,4.09,25.96,1.71,4.52.27,9.58-2.62,13.15-.93,3.97-3.91,11.71-6.16,15.12-2.88,4.37-6.16,6.93-11.49,7.52-6.2.7-22.54.78-27.53-2.35-9.04-5.66-12.99-28.03-12.81-37.99.21-11.17,4.74-35.98,18.61-37.56,5.11-.58,18.45-.63,23.45.08,3.32.47,8.37,4.11,9.59,7.16Z"/>
          <path class="cls-26" d="M54.95,702.34c6.21-1.81,9.03,6.26,6.06,11.54-6.7,11.86-14.51-9.08-6.06-11.54Z"/>
        </g>
      </g>
    </g>
  </g>
  <path class="cls-5" d="M1008.91,787.08l.22,23.13-1.84-3.22-2.2-2.16-2.08-1-1.78-.19-1.51-.99-2.17-1.77-2.87-3-1.71-2.07-1.55-1.98-.61-.79-1.83-2.3,1.17-1.71,1.51.14,3.14-.06,1.38.26,1.85.26,2.17-.02s2.37.29,2.57.29,1.85-.33,1.85-.33l1.78-.26,1.25-.59,1.25-1.61Z"/>
  <path class="cls-5" d="M972.9,812.68l.54-4.47v-2.31s-.34-1.71-.27-1.98-.27-3.15-.27-3.15l1.4.9,1.58,1.1,1.6,1.21,1.67,1.36,1.8,1.58,1.21,1.14,1.09,1.08.79.82-.33.52-1.06.91-.98.4-1.47.12-1.14.04-1.51-.18-1.46-.1-1.64.07-1.55.95Z"/>
  <path class="cls-5" d="M878.75,830.97l-1.81-.9-1.86-.15-2,.35-1.73.86-1.19,1.22-1.11,2.11-.56,1.43-.92,1.9-.98,1.09-1.65.74-2.4.42h-2.32l-3.41-.34-2.33-.16-2.35.49-1.13.88-.48-4.5v-3.63l-.33-4.29v-3.96l.37-3.73,2.47.76h4.88l1.79-.23,3.73-.5,4.9-.39h1.78l2.11.37,1.87-.85,1.43,2.14.79,3.16s1.32,2.57,1.32,2.77,1.11,2.91,1.11,2.91Z"/>
  <path class="cls-5" d="M343.73,830.24l-1.81-.9-1.86-.15-2,.35-1.73.86-1.19,1.22-1.11,2.11-.56,1.43-.92,1.9-.98,1.09-1.65.74-2.4.42h-2.32l-3.41-.34-2.33-.16-2.35.49-1.13.88-.48-4.5v-3.63l-.33-4.29v-3.96l.37-3.73,2.47.76h4.88l1.79-.23,3.73-.5,4.9-.39h1.78l2.11.37,1.87-.85,1.43,2.14.79,3.16s1.32,2.57,1.32,2.77,1.11,2.91,1.11,2.91Z"/>
  <path class="cls-5" d="M439.11,812.68l.62-4.47v-2.31s-.39-1.71-.31-1.98-.31-3.15-.31-3.15l1.61.9,1.81,1.1,1.84,1.21,1.91,1.36,2.06,1.58,1.39,1.14,1.25,1.08.9.82-.38.52-1.21.91-1.12.4-1.68.12-1.31.04-1.73-.18-1.67-.1-1.88.07-1.78.95Z"/>
  <path class="cls-5" d="M475.17,785.2l.22,23.13-1.84-3.22-2.2-2.16-2.08-1-1.78-.19-1.51-.99-2.17-1.77-2.87-3-1.71-2.07-1.55-1.98-.61-.79-1.83-2.3,1.17-1.71,1.51.14,3.14-.06,1.38.26,1.85.26,2.17-.02s2.37.29,2.57.29,1.85-.33,1.85-.33l1.78-.26,1.25-.59,1.25-1.61Z"/>
</svg>