<?xml version="1.0" encoding="UTF-8"?>
<svg id="Layer_1" xmlns="http://www.w3.org/2000/svg" viewBox="0 0 1002.65 923.23">
  <defs>
    <style>
      .cls-1 {
        fill: #656666;
      }

      .cls-2 {
        fill: #cdcccc;
      }

      .cls-3 {
        fill: #060605;
      }

      .cls-4 {
        fill: #656665;
      }

      .cls-5 {
        fill: #d1cecb;
      }

      .cls-6 {
        fill: #dda682;
      }

      .cls-7 {
        fill: #f7f8f7;
      }

      .cls-8 {
        fill: #ddaa85;
      }

      .cls-9 {
        fill: #fdcca7;
      }

      .cls-10 {
        fill: #eecaac;
      }

      .cls-11 {
        fill: #f6caa9;
      }

      .cls-12 {
        fill: #cecece;
      }

      .cls-13 {
        fill: #282828;
      }

      .cls-14 {
        fill: #cdcdcc;
      }

      .cls-15 {
        fill: #dea683;
      }

      .cls-16 {
        fill: #292928;
      }

      .cls-17 {
        fill: #fccca7;
      }

      .cls-18 {
        fill: #929292;
      }

      .cls-19 {
        fill: #666;
      }

      .cls-20 {
        fill: #656766;
      }

      .cls-21 {
        fill: #afbcbe;
      }

      .cls-22 {
        fill: #666766;
      }

      .cls-23 {
        fill: #ddaa86;
      }

      .cls-24 {
        fill: #939292;
      }

      .cls-25 {
        fill: #929191;
      }

      .cls-26 {
        fill: #d84140;
      }

      .cls-27 {
        fill: #d2cec8;
      }

      .cls-28 {
        fill: #dca784;
      }

      .cls-29 {
        fill: #cfcfcf;
      }

      .cls-30 {
        fill: #daaa85;
      }

      .cls-31 {
        fill: #050505;
      }
    </style>
  </defs>
  <path class="cls-7" d="M561.35,796.27s-5.43,25.13-2.06,47.66,42.83-7.62,42.83-7.62c0,0,.06-40.56-5.24-47.63s-35.53,7.59-35.53,7.59Z"/>
  <path class="cls-7" d="M732.73,763.83s2.21,43.49,7.36,47.35,49.09-18,49.09-18c0,0-13.73-27.84-19.52-29.35s-36.93,0-36.93,0Z"/>
  <path class="cls-7" d="M13.99,797.04s-7.31,33.71-1.89,44.18,44.24,0,44.24,0c0,0-1.86-49.96-6.84-49.96s-35.5,5.79-35.5,5.79Z"/>
  <path class="cls-7" d="M187.85,767.49s-2.31,26.56,1.43,39.3,34.59-2.18,34.59-2.18l10.63-25.09s-7.42-25.56-11.92-25.56-34.74,13.52-34.74,13.52Z"/>
  <path class="cls-17" d="M205.77,236.76c2.08,16.22,7.28,31.88,7.59,48.52.1,5.48,5.61,10.84,8.56,16.3,10.69,19.85,12.34,41.79,14.36,63.57,1.22,13.23,1.7,26.53,2.31,39.8.29,6.25,2.72,10.48,9.18,11.73,11.05,5.01,17.83,14.92,26.17,23.02,1.97,1.91,2.36,4.9,2.1,7.75-.87,9.55-17.83,25.1-28.22,25.87-1.16-.73-2.32-1.46-3.49-2.19-3.91-7.39-1.06-15.27-1.56-22.91-1.26-19.11-9.41-30.43-27.46-36.84-15.53-18.57-29.14-38.27-36-61.91-5.54-15.35-8.13-31.17-7.71-47.49.19-7.49-.41-14.9-1.56-22.33-1.51-9.82-1.16-19.58,2.4-29.09,2.49-6.66,3.83-13.63,3.84-20.8.01-11.5-2.74-13.96-14.09-12.65-5.26.6-10.08,2.27-13.56,6.37-6.14,7.22-14.37,9.46-22.4,6.11-11.87-4.95-21.92-3.31-31.93,3.84-2.2,1.57-5.03,2.21-7.66,3-12.09.52-20.9,5.3-23.47,18.16-14.46,21.87-33.88,22.6-51.92,1.96C5.86,237.84.37,219.07.01,199.42c-.35-19.08,6.71-30.78,24.83-36.84,20.62-6.89,32.31-23.4,43.87-39.15,6.23-8.49,6.63-21.43,2.36-32.76,2.42-5.2-1-8.81-3.24-12.9-3.03-5.54-5.99-11.4-1.37-17.54,4.84-6.43,10.35-1.72,15.56.16,1.83-25.28,9-32.3,34.02-31.74,10.92.25,22.91-4.09,32.57,5.06-.78,25.66,3.66,51.47-4.01,76.95-2.84,9.43-6.46,14.72-16.78,13.05-8.15,5.79-14.79.08-21.72-2.95-4.69-2.05-8.51-5.51-13.05-7.89,6.04,8.31,14.23,13.69,24.06,16.76,3.29,1.03,7.1.49,9.8,3.29q1.37,21.21,22.21,19.22c19.64-1.89,38.06,3.45,56.36,9.48,1.7,3.62,0,6.92-1.12,10.18-6.54,18.83-7.44,37.49,1.06,56.04,1.29,2.81,2.52,5.84.35,8.89Z"/>
  <path class="cls-13" d="M139.2,559.09c-5.82,4.78,2.64,15.17-7.22,18.37-1.97,2.06-4.42,3.39-7.17,3.87-21.51,3.72-43.11,2.64-64.7.99-3.22-.25-5.8-2.32-8.26-4.33-10.29-1.17-12.13-7.29-11.99-16.86.57-38.13.08-76.28.3-114.41.11-19.31,3.04-38.25,9.7-56.49,13.53-6.19,27.42-2.69,40.5.32,28.99,6.68,57.5,9.16,86.1-1.08,1.83-.66,3.89-.56,5.85-.27,7.65,3.77,8.54,11.96,12.09,18.43,9.69,20.86,21.53,40.66,30.77,61.75,3.02,6.67,7.01,13.03,6.73,20.77,3.78,10.88,7.05,21.98,11.52,32.57,3.27,7.72,2.01,13.2-4.67,17.79-16.05,18.68-38.18,26.04-60.79,32.25-6.06,1.67-12.68,5.28-18.71-.61-6.04-19.65-6.67-40.13-8.94-60.33-1.77-15.8-6.8-31.55-1.9-48.04-6.86,5.5-8.08,12.62-8.04,20.35.1,21.18-.09,42.37.09,63.55.03,3.84,1.27,7.85-1.29,11.41Z"/>
  <path class="cls-13" d="M730.53,391.54c19.42,44.15,45.59,85.22,59.64,131.88,2.15,7.14,1.9,11.71-3.42,16.29-3.58,7.62-10.99,10.74-17.47,14.98-15.6,10.2-32.84,16.17-51.01,19.63-4.53.86-9.33,2.21-12.98-2.33-5.67-36.75-13.29-73.36-10.14-108.86-8.56,10.33-8.64,10.33-8.62,26.57.02,20.07-.25,40.15.17,60.22.06,3.11.69,6.32-1.4,9.11-4.91,5.21,2.91,15.31-7.12,18.56-13.78,8.4-66.83,8.59-79.94.28-3.13-1.14-6.26-2.27-9.38-3.41-3.27-14.68-.64-29.55-1.34-44.32-.12-2.58,1.89-4.18,3.4-5.96,25.59-30.12,24.2-66.18-3.71-95.66-2.13-14.17.07-27.37,8.8-39.11,12.44-4.98,24.87-.53,37.01.93,29.58,3.56,58.98,7.06,88.5-.09,3.05-.74,6.23-.7,9.01,1.28Z"/>
  <path class="cls-26" d="M730.53,391.54c-30.07,9.44-60.6,7.13-91.12,3.25-14.42-1.83-28.78-3.9-43.37-3.15-2.26-1.23-3.51-3.38-3.88-5.67-3.97-24.79-15.15-47.04-24.48-69.94.19-10.82,4.93-19.8,11.39-28.08,5.7-4.63,12.59-8.04,15.78-15.29,14.95-27.7,9.45-55.5.39-83.27-2.68-8.22-6.34-16.03-11.24-23.24-2.86-4.2-5.99-8.54-2.87-14.05,4.62-.96,6.9-7.72,12.92-5.23,6.1,3.79,8.49,10.58,12.86,15.77,1.72,2.11,3.57,4.12,5.19,6.31,8.25,11.95,18.36,22.44,26.57,34.44,8.72,12.75,22.09,17.07,36.59,18.3,11.26.95,18.25-7.41,15.99-19.01-2.27-11.65-7.46-22.25-13.12-32.62-1.99-3.64-5.37-7.13-2.5-11.86,7.36,2.6,12.7,8.13,18.57,12.87,12.32,7.65,24.32,15.63,31.15,29.17.81,2.4,1.33,4.86,1.51,7.39,2.3,9.9,3.91,19.8-.06,29.68-17.65,39.51-10.89,79.6-2.84,119.73,2.3,11.48,4.39,23,6.58,34.49Z"/>
  <path class="cls-26" d="M184,391.09c-34.04,12.72-68.23,9.07-102.69,1.68-10.19-2.18-20.95-1.76-31.44-2.54,1.38-8.48,2.79-16.95,4.14-25.43,2.59-16.33-.53-31.11-11.04-44.32-15.11-19-25.86-40.28-31.72-63.91.92-.93,1.77-1.12,2.85-.08,18.23,17.63,31.64,16.81,47.18-2.89,1.59-1.71,2.77-3.69,3.71-5.81q4.94-11.14,15.32-2.47c-6.47-8.55.56-8.85,4.62-10.97,6.53-3.53,13.32-6.67,19.51-10.73,4.12-2.71,7.22-3.04,11.82-.92,16.29,7.51,18.87,5.93,32.44-5.21,7.77-6.38,18.87-3.1,28.49-3.48,2.6-.1,2.19,3.62,2.39,5.88.94,10.73.1,21.39-3.83,31.36-2.85,7.24-3.8,14.36-2.94,21.9,2.97,26.08.48,52.85,9.71,78.16.23,8.68,3.09,16.93,4.18,25.47.64,5.02,1.84,10.23-2.68,14.32Z"/>
  <path class="cls-9" d="M581.12,152.09c-.79,4.94,3.02,7.81,5.14,11.45,16.22,27.91,24.3,57.57,18.93,89.98-1.34,8.09-3.48,16.05-9.52,22.23-3.03-2.63-2.92-6.29-3.09-9.8-.65-13.17,6.09-26.78-3.27-37.52-1.69,3.5-.92,9.16-.51,14.97,1.08,15.4.58,30.66-7.27,44.65-6.38,7.97-9.15,17.56-12.15,27.04-4.62,18.41-3.69,37.19-3.42,55.88.17,11.58-2.37,22.32-6.65,33-4.77,11.89-9.65,23.9-9.46,37.1-2.02,9.42,2.8,17.02,6.66,24.88,3.72,7.42,5.45,15.12,3.46,23.38-3.26,8.4-5.31,17.42-12.14,24.03-7.22-6.44-15.56-2.64-23.49-2.59-2.49-3.23-1.53-6.77-.73-10.19,5.48-23.23,3.4-45.33-9.58-65.87-1.06-1.68-1.58-3.59-.94-5.63,4.26-6.11,2.55-13.12,1.69-19.37-3.21-23.54-3.03-46.71,2.41-70.01,1.82-7.8,1.39-16.63-.07-24.61-4.08-22.25-.13-43.65,5.48-64.89,1.51-5.7.94-10.64-.53-16-4.42-16.09-2.96-32.16,3.42-47.18,5.06-11.92,14.44-20.41,27.8-23.3,9.99-2.16,19.89-4.53,27.81-11.64Z"/>
  <path class="cls-17" d="M51.85,577.99c26.74,4.22,53.44,3.12,80.13-.53.67,5.18-.12,10.19-1.84,15.08-10.22,29.03-15.37,60.16-36.56,84.6-6.21,7.16-7.79,17.08-10.72,26-10.17,30.95-20.37,61.89-29.84,93.05-2.02,6.66-4.79,8.56-11.33,8.41-32.61-.73-27.09,3.55-27.54-26.45-.36-23.87-3.75-47.53-1-71.7,2.18-19.18,10.28-34.83,23.9-45.69,20.38-16.25,25.77-34.34,17.82-58.37-2.52-7.64-2.1-16.24-3.03-24.4Z"/>
  <path class="cls-17" d="M706.79,572.91c25.89-2.45,48.97-12.28,70.27-26.77,3.21-2.18,6.46-4.3,9.69-6.44,5.6,22.4-.98,45.22,2.47,67.81,2.02,13.22.07,26.73-4.44,39.45-3.21,9.05-.79,17.78-.17,26.68,1.92,27.39-4.22,53.82-10.44,80.13-1.34,5.67,1.89,14.99-5.7,16.57-9.81,2.04-20.32,1.1-30.5.73-3.43-.13-4.1-4.42-5.25-7.25-8.72-21.36-18.36-42.45-20.7-65.81-2.02-20.13,1.52-39.29,12.38-56.37,7.35-11.57,6.92-21.59-1.13-32.36-8.21-10.99-15.68-22.52-23.47-33.82,1.66-2.68,4.23-2.87,6.99-2.55Z"/>
  <path class="cls-17" d="M598.24,577.88c26.66,4.46,53.31,3.14,79.94-.29,1.5,9.7-1.18,18.99-4.71,27.56-9.87,24.01-14.1,50.14-32.28,71.09-11.08,12.78-13.32,31.53-18.83,47.8-8.15,24.07-15.02,48.57-22.28,72.93-1.56,5.23-4.29,7.37-10.03,7.66-29.42,1.52-29.44,1.69-29.73-27.87-.17-18.09,1.21-36.32-.62-54.23-3.42-33.55,14.51-55.87,37.5-75.47,7.56-6.44,10.43-11.8,8.26-21.75-3.41-15.59-4.91-31.6-7.22-47.43Z"/>
  <path class="cls-17" d="M160.66,572.74c29.42-2.54,54.47-15.69,78.11-32.24,2.91,3.77,2.14,8.23,2.32,12.51.83,19.2-1.25,38.42,1.87,57.66,2.16,13.31-2.32,26.48-4.96,39.48-1.36,6.69-2.32,13.33-1.3,19.84,3.81,24.24-2.6,47.44-6.46,70.91-.44,2.7-1.06,5.38-1.67,8.06-5.18,22.58-5.2,22.21-28,22.78-8.82.22-13.42-2.47-16.42-11.07-7.21-20.64-17.37-40.16-18.93-62.7-1.55-22.47,3.12-43.17,14.95-61.91,5.15-8.15,4.33-14.06-.73-21.32-8.97-12.86-17.35-26.12-25.98-39.21,1.69-2.78,3.93-4.12,7.2-2.78Z"/>
  <path class="cls-17" d="M675.62,158.2c3.99,13.06,13.3,23.53,17.11,36.85,6.26,21.87-1.68,31.4-24.23,28.58-14.67-1.84-26.24-8.23-33.91-20.63-7.44-12.03-18.75-21.12-25.06-33.92,9.67-6.34,20.45-.72,29.03-2.99-9.93-1.06-21.65,2.54-32.85-2.02-4.97-5-9.04-10.62-11.67-17.2.91-1.26,1.55-3.01,2.78-3.71,20.77-11.81,24.69-30.77,22.48-52.4-.75-5.55-3.9-10.17-5.81-15.25-2.26-6-3.84-12.8,2.25-17.25,5.57-4.07,9.79,1.14,14.02,5.15.52-5.56.1-10.27.99-14.84,1.97-10.08,7.32-17.73,17.85-19.41,12.41-1.98,25.03-1.02,37.57-.51,4.44.18,7.24,2.56,8.32,6.9,2.52,23.03,5.32,45.95-1.4,68.92-3.1,10.61-6.12,20.25-19.06,21.77-14.56.99-25.01-7.6-35.64-15.02,7.75,13.08,21.39,17.45,35.01,21.84.92,8.37-1.1,17,2.23,25.15Z"/>
  <path class="cls-17" d="M726.8,237.32c-.91-10.18-1.81-20.35-2.72-30.53,11.18-3.03,21.97,1.46,31.84,1.15-10.08-3.2-23.72,2.14-33.08-8.58-7.01-11.99-21.15-16.76-28.64-28.28,2.3-2.93,5.75-3.29,8.59-2.19,13.08,5.07,27.08,3.77,40.53,6.3,18.13,3.41,36.63.33,53.44-4.92,20.89-6.53,40.64-5.74,61.12-1.47-2.34,17.26-1.41,34.98-7.31,51.74-31.18-2.68-59.89,9.67-89.73,15.03-11.42,2.05-22.72.78-34.04,1.75Z"/>
  <path class="cls-26" d="M264.39,858.76c-18.98,1.72-35.81-8.02-54.07-10.1-24.87-2.83-27.73,1.24-23.18-31.48.49-3.49,1.45-6.91,2.14-10.38.96-4.8,2.67-8.15,8.67-6.03,12.81,4.52,19.41-.93,22.73-13.46,2.68-10.11,13.03-12.57,17.71-3.19,9.84,19.69,29.45,26.24,44.74,38.55,7.5,6.03,18.76,11.7,16.22,22.46-2.72,11.53-15.74,11.09-25.56,13.12-3.04.63-6.26.37-9.4.52Z"/>
  <path class="cls-26" d="M807.01,858.78c-15.16,1.72-32.38-8.23-51.1-10.37-25.67-2.93-27.28-5.66-21.74-31.3.75-3.45,1.21-6.96,1.88-10.44.92-4.8,2.49-7.16,8.68-6.08,17.24,3.01,17.31,2.57,22.83-13.43,3.27-9.48,13.85-11.87,18.17-2.69,8.7,18.5,26.47,24.92,40.97,35.83,5.63,4.24,11.19,8.81,15.79,14.09,6.83,7.83,5.38,14.28-3.73,19.01-8.58,4.45-18.02,5.15-31.76,5.36Z"/>
  <path class="cls-26" d="M16.5,835.92c-.71,5.97,2.24,7.68,7.7,6.87,4.23-.63,8.91-.07,8.8-6.69-.12-7.34,1.33-14.39,8.55-18.21,5.53-2.93,12.78-3.09,12.46,4.49-1.11,26.77,16.41,45.24,27.77,66.4,12.37,23.04,8.47,31.02-17.83,34.08-31.56,3.67-56.05-19.39-53.28-51.05,1.05-12.03-1.89-24.47,3.32-36.11,1-1.76,1.84-1.69,2.51.22Z"/>
  <path class="cls-26" d="M561.09,835.13c.93,6.04,3.89,8.26,9.77,7.82,5.44-.41,8.78-1.99,8.77-8.21,0-3.06.8-6.3,1.99-9.15,2.43-5.83,6.6-9.7,13.45-9.32,7.05.4,6.81,6.82,6.6,10.6-1.03,18.32,9,32.03,17.77,46.38,3.68,6.02,7.27,12.1,10.6,18.31,10.79,20.1,8.65,24.6-14.11,30.24-21.24,5.26-47.5-6.68-57-25.94-.35-.7-.93-1.41-.95-2.13-.53-19.47-1.78-38.98,3.11-58.61Z"/>
  <path class="cls-24" d="M205.77,236.76c-12.69-24.99-13.32-50.03-.29-75.11,8.42-11.2,19.23-16.67,33.46-13.98,10.71,2.32,16.98,10.09,20.33,19.37,9.78,27.07,10.65,53.46-9.6,77.38,1.52,3.37,6.67,1.26,8.22,4.83-19.39,4.23-37.72,4.04-52.13-12.48Z"/>
  <path class="cls-24" d="M850.56,220.53c-.35-17.64-.35-35.23,7.32-51.74,5.72-8.52,12.62-14.65,23.95-11.83,5.94,2.68,10.58,6.67,13.09,12.85,9.89,24.29,8.81,48.29-2.22,71.89-1.89,4.04-4.01,8.29-10.79,10.37,8.55-1.27,15.34-3.5,21.24,1.78-29.65,9.87-45.52-.18-52.6-33.33Z"/>
  <path class="cls-24" d="M506.22,528.28c-26.55,6.96-39.89-1.02-45.29-27.14-4.46-21.6-4.08-42.82,5.51-63.16,4.03-8.54,10.17-13.89,20.48-11.71,11.37,5.29,14.41,16.12,16.95,26.77,5.83,24.45,3.05,48.05-8.43,71.15,2.95,1.88,8.19-.05,10.78,4.09Z"/>
  <path class="cls-24" d="M272.09,156.36c9.93-4.07,18.67-12.39,30.79-8.56,10.96,1.38,17.51,8.22,21.66,17.79,10.52,24.28,9.92,48.1-3.42,71.24-2.32,4.04-5.59,7.28-9.82,9.75,4.06-.28,7.99-.96,10.65,2.9-17.26,3.3-34.04,4.25-47.73-9.82-1.85-8.2,4.43-12.44,8.62-17.7,6.29-1.89,7.15-8.84,11.56-12.5,11.97-7.11,12.47-11.27,2.39-20.03-5.03-3.91-7.25-10.88-14.06-12.87-3.92-6.54-10.27-11.81-10.63-20.22Z"/>
  <path class="cls-16" d="M694.48,35.54c-2.74-3.07-5.86-4.54-10.28-4.32-9.81.49-19.66.14-29.49.44-14.59.45-21.97,8.39-21.6,22.98.12,4.73.23,9.42-2.08,13.8-.82-.24-1.84-.25-2.03-.65-2.46-5.13-6.26-11.33-11.82-8.4-6.08,3.2-3.02,10.33-.77,15.81,2.05,4.99,8.81,9.07,2.89,15.53-14.03-15.62-16.52-34.65-15.53-54.45.59-11.85,10.59-18.68,18.5-23.98,15.43-10.35,33.68-14.87,52.55-10.88,16.33,3.46,21.38,13.04,19.67,34.1Z"/>
  <path class="cls-16" d="M148.6,33.72c-15.69-4.67-31.68-2.26-47.47-1.36-8.65.49-16.07,11.55-15.23,20.55.51,5.45.2,10.56-1.9,16.12-4.82-3.63-6.83-14.07-13.85-9.38-7.39,4.94-2.25,12.9,1.44,18.68,3,4.7,5.86,8.46-.52,12.35-8.18-10.96-11.56-23.71-14.01-36.87-4.32-23.23,7.42-36.61,27.91-46.38C94.81,2.73,105.39.02,116.69.28c23.24.54,32.48,9.92,31.91,33.43Z"/>
  <path class="cls-24" d="M928.72,182.76c2.07-5.39,3.66-11.03,6.31-16.11,4.66-8.95,11.55-14.54,22.55-11.89,15.61,6.6,17.68,20.97,19.15,35,2.53,24.22.03,34.52-11.65,57.52,4.36,2.36,10.43-.51,13.92,4.41-29.09,8.61-45.24-.49-50.88-28.69,2.76-9.02,12.59-6.97,18.12-11.64,4.55-2.05,6.15-5.7,5.41-10.42-.99-6.36-6.7-5.34-10.88-6.7-5.11-2.68-8.69-6.97-12.05-11.49Z"/>
  <path class="cls-20" d="M903.16,253.86h-21.69c22.13-28.08,22.9-75.73.35-96.89,22.01-4.14,35.69,5.35,42.55,26,7.15,12.48,8.62,25.06.6,37.78-3.85,13.29-7.2,26.92-21.82,33.11Z"/>
  <path class="cls-20" d="M978.99,251.68h-20.67c21.64-29.57,21.35-79.26-.75-96.92,30.16-1.49,41.97,8.65,44.63,38.76,1.51,17.13-.6,33.66-10.56,48.28-3.08,4.51-6.86,8.61-12.65,9.89Z"/>
  <path class="cls-18" d="M553.3,466.25c-2.83-7.6-10.76-14.06-5.26-23.52,2.66-14.11,8.19-17.92,22.31-15.39,12.01,7.43,14.25,19.98,17.11,32.32,3.75,16.19,1.77,32.1-1.98,47.91-1.94,8.19-5.9,15.35-15.65,20.87,7.82-3.72,13.03-6.1,16.37,1.85-4.71-.07-9.44-.38-14.14-.16-12.42.59-19.8-5.88-24.23-16.75,1.54-8.62,6.28-15.89,9.89-23.63,13.62-9.79,12.61-15.14-4.43-23.48Z"/>
  <path class="cls-24" d="M247.81,473.33c11.94-2.27,16.35-13.17,23.39-20.87,4.32-4.72,3.03-10.08-2-14.32-7.76-6.54-15.25-13.36-21.45-21.46,6.76-10.75,15.86-16.53,29.03-13.72,13.87,5.19,24.61,23.77,23.46,42.13-.61,9.73-2.45,19.31-7.2,28.25-4.15,7.82-9.32,13.41-18.6,14-12.74,2.67-20.4-4.32-26.64-14.01Z"/>
  <path class="cls-1" d="M586.19,530.28c-3.83-5.2-9.78-.74-15.03-3.64,13.1-13.77,14.82-31.28,14.84-48.89.02-17.88-2.97-35.2-16.23-48.88,5.98-4.83,12.06-4.66,18.23-.37,10.7,2.16,15.11,10.83,18.46,19.48,8.06,20.83,7.35,41.95-.26,62.85-.79,2.17-1.69,5.03-3.42,6.03-17.87,10.38-13.75,27.63-13.95,43.53-.06,4.7.01,9.39.02,14.09-5.22-9.76-1.12-20.23-2.28-30.31-.53-4.58-.28-9.26-.38-13.89Z"/>
  <path class="cls-4" d="M506.22,528.28c-5.71-.31-11.43-.62-17.59-.95,21.4-27.87,19.01-80.2-1.71-101.06,8.82.02,17.88-2.21,26.18,2.81,19.11,21.97,18.97,47.4,13.25,73.82-.57,2.65-1.33,5.25-2,7.88-5.24,6.66-8.15,15.74-18.12,17.5Z"/>
  <path class="cls-19" d="M283.72,222.74c-3.17,5.65-6.34,11.29-9.51,16.94-5.07,3.82-9.11,9.39-16.31,9.56-4.96-.26-9.91-.52-15.22-.8,28.4-39.5,26.88-76.27-3.75-100.77,11.93-.45,24.31-2.65,33.14,8.7,5.42,5.52,9.05,12.1,11.54,19.37,8.29,11.05,8.34,34.56.1,47.01Z"/>
  <path class="cls-19" d="M321.94,249.49c-4.67-.31-9.34-.62-15.53-1.04,16.82-13.7,22.67-31.45,22.04-51.52-.64-20.34-5.62-38.71-25.58-49.13,36.27-2.4,56.91,25,48.06,64.67-3.7,16.62-8.86,32.9-28.99,37.01Z"/>
  <path class="cls-3" d="M706.79,572.91c-2.33.85-4.66,1.7-6.99,2.55-12.51,1.3-10.96-9.81-14.51-16.43-3.97-9.87-1.83-20.2-2.09-30.32-.34-13.36.89-26.83-.34-40.09-1.45-15.65,4.94-26.32,18.37-35.36-9.08,36.31,1.9,70.68,5.1,105.51.43,4.68.32,9.42.46,14.13Z"/>
  <path class="cls-31" d="M160.66,572.74c-2.4.93-4.8,1.85-7.2,2.78-12.81,1.52-11.57-9.15-14.26-16.43-4.04-10.27-1.79-21-2.07-31.51-.38-14.14.93-28.4-.38-42.43-1.29-13.76,4.88-22.05,18.46-31.26-7.48,18.17-4.89,33.52-2.61,49.12,3.38,23.14,5.44,46.47,8.06,69.72Z"/>
  <path class="cls-22" d="M274.45,487.34c27.08-10.47,31.85-65.49,2.34-84.38,23.47-1.38,32.11,5.48,37.95,28.31,2.84,11.11,2.46,21.89-1.21,32.26-7.95,22.46-17.4,26.85-39.07,23.81Z"/>
  <path class="cls-20" d="M231.91,490.15c-3.1-6.47-6.2-12.94-9.3-19.42,2.99-21.18,1.7-41.15-15.81-56.63-1.46-1.29-2.28-3.14-.88-5.15,3.07-2.12,6.01-1.01,8.95.33,18.28,2.79,28.79,14.64,30.91,35.2.92,8.93.42,17.85-1.45,26.66-3.28,6.89-5.38,14.56-12.42,19Z"/>
  <path class="cls-11" d="M924.98,220.75c2.98-12.65.7-25.21-.6-37.78,1.45-.07,2.89-.14,4.34-.21,6.42.29,8.36,6.22,12.22,9.72,5.88,5.77,8.91,12.49,6.91,20.87-5.05,6.34-14.25,4.19-19.74,9.65-1.05-.75-2.09-1.5-3.14-2.25Z"/>
  <path class="cls-15" d="M126.91,132.94c-19.47.44-35.5-10.35-38.89-27.05,13.22,7.03,23.55,19.37,39.79,17.83-.3,3.07-.6,6.15-.9,9.22Z"/>
  <path class="cls-6" d="M673.39,133.05c-18.6.15-32.05-8.61-40.64-28.98,14.18,10.81,27.23,17.54,41.26,22.16-.21,2.27-.42,4.55-.63,6.82Z"/>
  <path class="cls-21" d="M16.5,835.92c-.84-.08-1.67-.16-2.51-.23,0-8.05,0-16.1,0-24.15.84.01,1.68.02,2.51.03v24.35Z"/>
  <path class="cls-23" d="M66.38,213.57c13.93-10.42,29.1-10.9,44.94-5.98-14.98,1.99-29.96,3.99-44.94,5.98Z"/>
  <path class="cls-26" d="M84.92,234.35c1.41,3.58-8.9,1.15-3.47,6.73,1.41,1.45,5.57.47,4.53,3.86-.82,2.66-4.02,3.38-6.72,3.76-3,.43-5.36-.31-5.96-3.85-.23-1.39-.86-2.72-1.68-5.18-5,4.35-4.21,11.92-10.35,13.93,1.36-14.43,9.89-20.05,23.65-19.25Z"/>
  <path class="cls-25" d="M191.81,409.44c4.71.25,9.43.51,14.14.76,19.42,14.87,27.04,42.57,16.65,60.54-10.26-20.43-20.53-40.86-30.79-61.3Z"/>
  <path class="cls-28" d="M581.52,288.05c1.89-17.68,7.52-35.02,2.84-53.27-1.36-5.3,3.21-10.57,8.35-17.09.12,11.41,1.03,20,7.13,27.29,4.11,4.92-6.51,2.34-4.72,8.55,1.98,6.88.52,14.76.55,22.21-2.72,6.4-7.72,10.17-14.15,12.3Z"/>
  <path class="cls-30" d="M605.71,164.07c11.24-1.13,22.62,1.36,33.82-1.78,6.16-1.73,7.85,2.63,9.02,8.55-13.45-3.3-26.24-2.35-39.01-1.76-1.88-1.21-3.71-2.45-3.82-5Z"/>
  <path class="cls-8" d="M722.84,199.36c11.61,4.3,23.93,5.66,35.91,8.82-11.6-.3-23.26,2.88-34.67-1.39-.41-2.48-.83-4.95-1.24-7.43Z"/>
  <path class="cls-27" d="M553.3,466.25c7.69.78,17.21-1.81,16.8,11.6-.27,8.81-2.87,13.49-12.36,11.88.76-8.25-.06-16.21-4.43-23.49Z"/>
  <path class="cls-12" d="M226.96,189.76c5.73.65,8.84,4.07,8.87,9.32.03,5.16-1.24,11-7.5,11.61-5.65.55-8.15-4.03-8.44-9.24-.3-5.38.78-10.23,7.07-11.69Z"/>
  <path class="cls-14" d="M874.23,195.04c4.78,1.07,7,4.3,7.29,9,.33,5.5-1.13,10.58-7.24,11.32-4.98.6-5.91-4.2-6.49-7.99-.83-5.44.86-9.88,6.45-12.33Z"/>
  <path class="cls-29" d="M486.96,477.05c-.24,4.19.74,9.85-5.11,10.15-6.33.32-6.5-5.47-6.71-10.15-.21-4.72,1.62-9.51,6.4-9.69,6.04-.23,5.16,5.52,5.42,9.7Z"/>
  <path class="cls-10" d="M283.72,222.74c3.16-15.68,4.14-31.35-.1-47.01,10.1-2.32,9.07,8.37,14.07,12.02,4.63,8.16,6.07,16.03-2.16,22.98-4.09,3.85-1.31,14.45-11.81,12Z"/>
  <path class="cls-2" d="M295.53,210.73c3.98-7.36,1.48-15.32,2.16-22.98,7.85.49,9.39,6.46,9.15,12.27-.26,6.41-4.27,10.59-11.31,10.71Z"/>
  <path class="cls-5" d="M947.86,213.34c-2.31-6.96-4.61-13.91-6.91-20.87,5.62.03,12.84-2.29,13.77,6.42.6,5.64,3.02,13.29-6.85,14.45Z"/>
</svg>