<?xml version="1.0" encoding="UTF-8"?>
<svg id="Layer_1" xmlns="http://www.w3.org/2000/svg" viewBox="0 0 843.4 879.44">
  <defs>
    <style>
      .cls-1 {
        fill: #9f9e9e;
      }

      .cls-2 {
        fill: #fbcca7;
      }

      .cls-3 {
        fill: #c8a585;
      }

      .cls-4 {
        fill: #a19685;
      }

      .cls-5 {
        fill: #24211e;
      }

      .cls-6 {
        fill: #d6a57c;
      }

      .cls-7 {
        fill: #fff;
      }

      .cls-8 {
        fill: #1e1e1e;
      }

      .cls-9 {
        fill: #daa981;
      }

      .cls-10 {
        fill: #eacaab;
      }

      .cls-11 {
        fill: #daa97f;
      }

      .cls-12 {
        fill: #e1b391;
      }

      .cls-13 {
        fill: #878787;
      }

      .cls-14 {
        fill: #dbb08d;
      }

      .cls-15 {
        fill: #dcaa81;
      }

      .cls-16 {
        fill: #1d1d1d;
      }

      .cls-17 {
        fill: #9e9e9e;
      }

      .cls-18 {
        fill: #dca87e;
      }

      .cls-19 {
        fill: #fdcca7;
      }

      .cls-20 {
        fill: #292624;
      }

      .cls-21 {
        fill: #fccca7;
      }

      .cls-22 {
        fill: #2a2a29;
      }

      .cls-23 {
        fill: #292929;
      }

      .cls-24 {
        fill: #a2acb6;
      }

      .cls-25 {
        fill: #dcad84;
      }

      .cls-26 {
        fill: #d84140;
      }
    </style>
  </defs>
  <polygon class="cls-7" points="42.93 790.4 30.61 820.28 58.87 828.68 69.68 815.16 73.74 794.93 42.93 790.4"/>
  <polygon class="cls-7" points="179.83 755.77 159.81 795.18 179.83 819.68 209.03 791.07 211.77 768.52 179.83 755.77"/>
  <polygon class="cls-7" points="556.95 770.64 553.76 821.19 589.57 826.11 591.11 805.11 589.57 770.64 556.95 770.64"/>
  <path class="cls-7" d="M721.98,745.82s6.6,29.31,3.63,43.55,29.17,5.89,29.17,5.89l20.24-21.01s-12.28-22.39-13.05-37.98-39.99,9.55-39.99,9.55Z"/>
  <path class="cls-24" d="M673.5,515.87c-4.61,1.81-9.22,1.86-13.83-.02,4.61,0,9.22.02,13.83.02Z"/>
  <path class="cls-16" d="M606.25,385.53c2.89-7.81,5.78-15.63,8.66-23.44.88-3.67,1.93-7.27,4.64-10.12,3.32-2.37,6.4-.82,9.44.65,15.71,7.6,32.21,11.25,49.72,12.04,20.46.92,40.42-.02,59.76-7.47,5.79-2.23,7.11-1.06,9.79,6.54-.12,24.79,7.28,48.23,12.7,72.06,2.68,11.8,3.23,24,5.39,35.93,1.14,6.26,2.45,12.51,3.75,18.71,2.29,10.92,3.69,22.02,6.55,32.82.82,3.08-.63,4.9-3.46,6.11-2.85,1.22-6.09,1-8.82,2.56-18.87,8.47-39.24,9.47-59.34,11.56-5.02.52-8.74,1.43-12.16,5.81-4.95,6.35-13.27,6.76-20.5,8.85-5,1.44-10.43.67-15.31,2.85-22.19,2.58-44.33,2.58-66.37-1.46-7.07-1.3-8.21-3.26-7.46-10.2,2.22-20.36,4.22-40.74,6.49-61.09,3.27-29.35,5.76-58.83,11.76-87.8,1.04-5.01,2.21-10.24,4.75-14.89l.02-.02Z"/>
  <path class="cls-21" d="M619.05,313.17c-4.98.4-9.93.23-14.95,1.11-10.08,1.76-21.95-9.11-23.36-21.57-1.5-13.24-2.9-26.59-2.78-39.88.08-8.67,2.31-17.5,4.78-25.9,2.47-8.4,3.6-16.72,3.33-25.4-.51-16.36,2.36-31.76,12.94-45.04,3.65-4.58,7.95-8.2,12.72-11.39,14.78-5.17,20.79-4.42,28.29,4.99,11.57,14.52,19.59,31.07,18.08,50.43-.42,5.44-1.58,11.53-8.02,14.02-5.04-2.27-3.07-7.39-4.86-12.14-3.49,5.97-4.18,11.76-4.05,17.77.19,11.04-.52,22-3.44,32.68-1.44,5.28,1.89,6.98,5.68,8.19,10.25,3.27,20.77,2.66,31.15,1.07,10.16-1.55,20.13-4.17,29.79-7.82,6.01-2.27,6.42-3.16,2.9-8.72-2.97-4.68-5.7-9.39-7.1-14.8-.8-3.1-.93-6.13.22-9.16,1.4-3.7,3.47-5,7.19-1.45.29-5.85,2.04-11.05,1.64-16.58-.24-3.23-1.21-4.54-4.87-4.26-14.35,1.1-26.45-6.41-32.55-19.7-2.2-4.79-3.96-9.76-5.62-14.72-5.01-14.92-13.62-27.77-22.51-40.5,15.08-7.89,21.75-19.98,19.9-35.88-.4-3.42-4.33-5.23-3.88-8.97,2.82-1.06,4.56-2.48,2.52-5.78-2.28-3.68-4.01-7.62-4.41-11.99-.39-4.22-.02-8.36,4.32-10.49,4.06-1.99,6.68.95,9.29,3.43.84.8,1.54,1.86,3,1.74,2.03-2.12,1.59-4.86,1.75-7.4.84-13.68,8.22-20.73,21.9-20.8,7.16-.03,14.31-.03,21.47,0,5.42.02,10.94-.57,15.66,2.86,2.4-3.59.22-7.84,3.27-10.54,2.63,4.21,2.17,9.13.62,12.99-2.08,5.18-2.04,10.21-2.02,15.42.09,18.64-.3,37.27-7.44,54.84-2.04,5.02-3.65,10.65-10.1,13.02-5.88,2.17-9.28,18.01-5.41,23.02,2.22,2.88,4.87,6,8.28,1.04,2.67,2.11,2.1,5.16,2.13,7.92.11,10.69.68,21.43-2.36,31.9-.33,1.12-.55,2.33.27,3.5,2.21-.03,2.03-2.14,2.85-3.36,1.47-3.09,3.78-5.49,6.41-7.6,1.72-1.38,3.68-2.53,5.91-1.39,2.61,1.34,2.54,3.91,2.08,6.28-.86,4.5-3.18,8.47-5.01,12.61-1.05,2.37-2.34,4.69-2.5,8.05,3.34-4.83,5.76-9.59,9.24-13.59,2.05-2.35,4.5-5.08,7.89-3.14,3.34,1.91,2.21,5.41,1.46,8.42-.64,2.56-1.67,4.98-3.5,6.97-4.01,4.51-6.92,9.33-4.65,16.39,2.83-2.22,3.46-5.01,4.5-7.54.85-2,1.87-3.86,3.74-5.11,2.24-1.26,4.44-1.62,6.23.68,1.59,2.04.65,4.01-.61,5.76-1.11,1.54-1.8,3.25-2.47,4.99-.56,1.39-1.18,2.76-1.79,4.13-.9,1.95-1.81,3.89-1.7,6.11.49,10.2-.88,20.33-1.26,30.5,0,.81-.24,1.54-.72,2.19-1.53,1.49-3.05,2.98-4.58,4.47-4.65,5.8-9.89,10.86-16.31,14.8-11.59,7.1-23.07,14.28-35.22,20.5-16.56,8.48-34.24,11.6-52.26,13.71-7.15.84-13.93,3.28-21.05,4.07l-.04.04Z"/>
  <path class="cls-19" d="M132.17,428.86c4.11-1.06,8.22-2.15,12.33-3.18,13.11-3.28,19.31-10.66,20.64-23.86.33-3.23-3.11-4.82-2.47-7.88,3.32-2,2.65-4.67,1.23-7.44-1.75-3.41-3.51-6.83-4.23-10.63-.86-4.52-.37-8.9,3.99-11.33,3.98-2.21,6.64.98,9.26,3.45.84.79,1.49,1.92,3.09,1.8,2.35-2.19,1.49-5.22,1.62-7.94.65-12.67,8.4-20.53,20.95-20.31,11.43.2,22.95-1.41,34.28,1.14,3.6.81,3.44-1.29,3.36-3.6-.1-3.22-2.02-6.58.74-9.58,3.55,5.85,4.22,12.03,1.41,18.25-1.58,3.49-1.36,7-1.29,10.55.39,20.56.93,41.13-8.21,60.4-.86,1.81-.78,3.74.78,5.32-1.62,4.65-5.68,6.13-9.8,7.54-2.88-.96-5.54-1.16-7.15,2.15-1.37,2.81-1.24,5.4,1.04,7.71.98.99,2.14,1.83,2.62,3.23,1.03,8.29,1.44,16.55-.06,24.88-1.2,6.64-.02,13.21,1.7,19.92,3.16-1.33,3.65-4.35,4.99-6.72.6-1.04,1.34-1.98,2.24-2.76,1.84-1.59,3.78-3.18,6.35-1.63,2.38,1.43,2.67,3.82,2.29,6.29-.62,4.05-2.68,7.62-3.96,11.45-.8,2.39-2.59,4.58-1.79,7.68,3.23-3.82,5.47-8.07,8.78-11.5,2.21-2.29,4.43-4.91,7.86-2.43,3.08,2.22,2.45,5.37,1.16,8.41-1.59,3.74-3.8,7.14-5.84,10.64-1.32,2.27-2.33,4.68-2.32,8.48,3.4-2.13,4.39-5.44,6.58-7.55,2.29-2.22,4.51-6.35,8.07-4.02,3.48,2.28,2.34,6.28.19,9.54-5.11,6.02-7.65,12.99-8.22,20.86-.39,5.44-1.94,10.77-1.73,16.28.34.53.66,1.07.99,1.61.52.81.89,1.67.9,2.65-.16.27-.33.54-.49.81-3.03-.65-5.13.97-6.69,3.16-10.85,15.2-28.25,21.25-43.06,30.89-6.53,4.25-13.46,7.9-20.27,11.72-1.81,1.01-3.06,2.22-3.25,4.33-4.92,2.99-10.38,3.11-15.83,2.67-4.72-.39-8.76.27-12.64,3.45-5.5,4.51-12.4,6.05-19.26,7.13-5.49.87-9.91-1.39-10.56-7.1-1.08-9.59-8.74-14.41-14.45-20.22-4.43-4.5-6.74-8.62-6.79-14.83-.15-19.6-.11-39.2.19-58.79.14-9.17-.6-17.39-8.34-23.89-3.56-2.99-6.27-7.15-9.59-10.58,2.62-11.5,8.07-21.51,16.22-29.97,3.07-3.18,6.68-5.85,10.05-8.75,24.95-7,52.11,16.85,52.86,47.79.17,7.02,1.12,14.4-4.42,20.25-5.38,1.34-6.55-3.37-9.61-7.85-1.91,16.82.56,32.17-.24,47.46-.85,14-3.54,12.05,11.84,13.15,15.04,1.08,29.2-3.29,42.17-11.12,4.95-2.98,6.05-6.81,3.37-12.07-2.05-4.01-3.81-8.22-4.79-12.67-.56-4.05-.54-8.12-.16-12.18.25-2.72,1.07-5.53,4.33-5.74,3.36-.21,4.17,2.55,4.75,5.26.34,1.58-.2,3.4,1.33,4.92,3.99-10.47.15-22.11,5.42-32.29-1.01.25-1.31,1.06-1.46,1.67-3.09,12.23-11.77,14.38-22.64,12.65-8-1.54-14.48-5.91-20.66-10.92-2.77-2.25-3.99-5.25-4.89-8.52-3.21-11.74-6.68-23.41-11.11-34.76-3.29-8.42-7.11-16.52-13.71-22.97v.04Z"/>
  <path class="cls-21" d="M73.53,485.5c1.45-.49,2.36-1.43,4.12.58,4.09,4.67,6.93,10.32,12.37,14.06,3.57,2.46,3.32,7.55,3.33,11.84,0,23.08.09,46.16-.07,69.24-.03,4.54,1.16,7.64,5.3,9.94,2.94,1.63,4.83,5.8,6.82,7.21,6.8,4.84,8.56,11.3,10.06,18.51.44,2.13,2.81,2.6,4.76,2.29,8.23-1.31,17.02-1.39,22.52-9.33,2.41-3.48,6.89-2.08,9.03-1.62,6.58,1.43,12.72-1.38,19.05-.56,25.26-1.36,49.1,6.88,73.56,10.96,9.37,1.56,18.35,4.43,27.21,8.11,8.49,3.53,14,9.52,18.58,16.93,4.38,11.54,1.22,21.79-3.79,32.62-10.6,22.9-27.13,40.41-46.22,56.22-11.94,9.89-23.32,20.52-28.39,36.02-1.58,4.84-5.35,6.8-10.21,5.15-6.09-2.06-12.34-3.71-18.07-6.78-4.85-2.6-6.06-5.76-3.66-11.12,4.15-9.25,7.17-18.96,9.88-28.75,4.35-4.56,5.63-10.64,7.94-16.19,3.15-7.55,7.23-14.54,12.01-21.15,3.22,2.06,5.91.18,8.67-1.16,5.24-2.55,10.82-4.56,14.68-9.37-6.88,1.41-14.4.91-19.39,7.26-.58.74-1.66.83-2.58.2-1.25-6.39-6.02-4.54-9.51-3.4-4.22,1.38-8.03,3.98-12.02,6.06-8.74,1.13-17.31,3.22-26.02,4.53-8.21,1.24-10.27-.57-8.88-8.5,2.65-15.15,6.65-29.86,14.6-43.22,4.83-8.56,11.28-15.9,17.59-23.37,1.49-1.77,4.27-3.46,3.13-5.94-1.32-2.88-4.66-1.86-7.11-1.62-14.62,1.43-29.33,1.78-43.36,7.52-9.13,3.73-18.98,5.8-30.33,7.55,5.43,2.48,10,3.32,13.56,6.16,3.58,2.78,7.73,4.48,11.83,6.28,6.59,2.9,12.25,7.08,16.88,12.58,2.28,2.71,4.6,5.56,2.86,9.53-4.05,1.35-8.38.51-12.51,3.23-3.55,2.34-8.2-5.68-6.59-11.42.6-2.13,2.28-3.32,4.18-4.74-4.56-2.36-7.8-6.74-13.02-1.37-2.76,2.84-6.18.69-6.34-3.32-.18-4.29-1.97-4.3-4.95-2.8-4.89,2.47-8.24.99-10.37-3.87-.26-.6.14-1.96-.24-1.73-6.62,3.87-8.4-5.21-13.58-4.97-.55-.38-.9-.91-1.04-1.56.03-2.99,4.42-3.59,3.81-6.95.18-1,.56-1.88,1.46-2.44,4.25-.15,8.22,2.37,13.07,1.16-4.83-4.05-4.67-10.63-8.72-15.19-7.01-7.9-6.81-8.08-14.14-1.08-3.97-3.52-4.47-7.81-2.84-12.58,4.56-2.33,5.92-5.19,4.56-10.81-1.94-8-3.61-16.44-2.04-24.74,1.07-5.64-.59-9.15-5.39-11.66-1.76-4.66-1.26-9.4-.3-14.08,1.18-5.79.57-11.18-1.77-16.69-3.17-7.46-4.32-15.53-5.62-23.51.56-1.38,1.12-2.75,1.68-4.13l-.03-.02Z"/>
  <path class="cls-21" d="M657.9,560.07c8.59-1.96,17.4-2.96,25.76-5.97,3.47-1.25,7.18-2.61,8.11-6.37,1.27-5.15,4.54-5.85,9.01-6.05,21.31-.96,42.2-4.64,62.79-10.14.95-.72,1.67-.55,2.18.53-1.47.77-2.93,1.54-4.4,2.32-1.29.81-2.12,1.92-2.11,3.5.06,11.93-2.22,23.73-2.14,35.65.15,22.9-1.63,45.86.78,68.68,2.9,27.36-.54,54.88,2.81,82.18.66,5.41.86,10.94,2.06,16.2,1.21,5.32-.67,8.37-5.07,10.35-9.17,4.12-19.05,4.28-28.84,4.54-3.55.09-5.71-2.53-6.23-5.9-2.63-17.27-8.2-33.68-14.35-49.93-9.07-24.56-6.1-50.24-7.58-75.59-1.28-21.97-3.39-44-7.94-65.68-.94-4.49-2.67-4.83-6.28-3.51-8.75,3.21-17.65,5.8-27.11,5.74-.71.39-1.19.17-1.46-.57v.02Z"/>
  <path class="cls-19" d="M586.04,532.27c-.67,5.46-.97,10.97-1.89,16.38-1.02,6.01.84,8.17,7.23,9.12,22.13,3.29,44.27,3.42,66.5,2.27l.02.03c.49.19.98.38,1.46.57-10.09,1.19-10.69,10.77-13.8,17.14-5.27,10.77-11.03,21.29-16.2,32.09-6.85,14.33-18.01,26.28-22.74,41.75-2.02,6.62-3.57,13.31-3.22,20.31.51,10.25-2.41,20.33-1.53,30.6-1.86,11.55-6.56,22.33-8.94,33.76-2.1,10.11-3.36,20.21-3.31,30.55.06,11.33-2.63,13.79-14.04,13.93-17.37.21-17.1.17-19.74-17.03-2.96-19.26-5.81-38.59-7.43-57.96-1.36-16.29-.98-32.77,2.93-49.1,5.09-21.27,13.13-41.22,23.31-60.44,5.97-13.78,7.54-28.12,7.6-43.13"/>
  <path class="cls-19" d="M593.29,446.42c2.12-18.97,4.81-37.84,10.13-56.24"/>
  <path class="cls-19" d="M90.38,629.25c1.73-.5,3.78-2.49,5.18-.43,2.76,4.05,4.87,8.44,9.94,2.22.5-.62,4.16.96,2.22,2.63-3.13,2.69-1.16,3.74.5,5.46,2.36,2.45,4.37.68,6.36-.48,1.61-.94,2.96-2.78,5.08-1.75,2.28,1.11,4.18,2.52,1.86,5.45-1.13,1.43-.3,2.77,1.08,3.54,1.4.77,2.92.73,3.53-1.02,2.31-6.63,6.13-3.67,9.35-1.25,2.38,1.79,5.92,1.99,7.78,5.99-6.87-.67-7.68,3.3-6.59,8.27.45,2.05,1.15,4.42,3.35,5.22,2.25.82,3.51-1.18,4.49-2.73,3.45-5.46,6.05,1.25,9.12.54,1.27,1,1.53,2.4,1.57,3.89-2.53,7.05-4.38,8.19-11.38,6.8-1.18-.23-2.28-.69-3.45-.07-4.8,2.55-7.21,17.15-3.36,21.23,2.28,2.42,5.33,4.33,3.61,8.4-9.76,7.73-15.96,18.06-20.78,29.22-3.64,8.43-8.28,16.24-14.69,22.62-12.54,12.49-24.76,25.1-31.41,41.93-1.41,3.57-4.21,4.6-7.5,3.83-4.85-1.13-9.83-2.21-14.32-4.26-8.99-4.1-9.14-5.18-6.1-14.7,5.02-15.69,5.91-32.26,10.12-48.12,1.39-5.24,2.92-10.47,4.88-15.51,1.11-2.86.35-4.49-1.83-6.03,5.5-3.9,9.84-8.48,12.37-15.09,2.25-5.87,8.62-7.8,13.89-10.91-5.04-2.01-9.81-.05-14.5.66-5.62.85-8.21-.95-9.63-6.57-5.34-21.23,7.81-38.66,23.12-48.15,1.81-1.12,3.91-1.89,6.13-.83h.01Z"/>
  <path class="cls-8" d="M94.67,621.95c2.96,5.25-2.58,4.02-4.33,5.68-9.01,4.15-15.98,10.58-22.18,18.31-8.72,10.87-10.07,29.61-2.26,41.22,6.33,9.4,6,9.88-.29,18.74-2.78,3.91-6.08,2.82-9.46,3.09-10.87-2.28-21.67-4.76-31.33-10.59-30.94-18.16-33.98-75.88-3.3-100.73.94-.71,2-1.03,3.17-.99,17.54,10.54,36.45,17.56,56.38,22.07,3.52.8,7.01,1.4,10.58,1.7,1.15.21,2.12.76,3.01,1.49h.01Z"/>
  <path class="cls-13" d="M745.62,196.86c2.63-2.68,3.27-6.26,4.23-9.65.43-1.52.63-3.45-1.26-4.4-1.87-.95-3.2.32-4.31,1.56-4.45,5-7.74,10.77-10.96,16.58-.52.93-.72,2.35-2.66,2.29-2.59-5.69,1.22-10.29,2.95-15.15,1.18-3.32,3.14-6.36,4.45-9.65.69-1.73,1.04-4.01-.69-5.3-1.93-1.44-3.62.09-4.93,1.49-1.95,2.07-3.75,4.28-5.61,6.43-2.35,2.88-4.6,3.05-5-1.03-.48-4.87.76-9.53,4.85-12.83,2.04-1.65,4.38-2.94,6-5.08,2.11-2.79,4.13-3.91,6.54-.21,1.85,2.84,4.8,1.85,7.23,1.29,9.23-2.14,18.57-1.09,27.86-1.27,4.48-.08,8.48,1.09,11.23,5.09,2.22,3.22,5.8,4.91,8.73,7.32,7.28,6,10.73,14.46,14.95,22.46,2.26,13.93,3.3,27.73-4.88,40.4-8.89,12.44-21.19,18.7-36.22,20.13-5.28.5-10.45.54-15.45-1.49-1.39-.08-2.78-.16-4.18-.24-.08-.48-.16-.95-.24-1.43,1.71-12.83-.86-26,3.02-38.66.5-1.01,1-2.02,1.5-3.02,1.71-1.7,2.46-4.02,3.89-5.91,1.57-2.07,2.13-4.8.22-6.48-2.58-2.25-4.04.87-5.75,2.25l-2.79,4.41c-.43.84-.85,1.7-1.44,2.42-1.5,1.85-1.68,6.38-4.57,5.13-3.51-1.52-2.33-6.08-1.07-8.72,1.39-2.91,2.67-5.96,4.38-8.75l-.02.02Z"/>
  <path class="cls-26" d="M623.26,135.25c5.76-2.98,11.51-5.96,17.27-8.95,3.35-1.51,4.96.36,7.02,2.84,9.64,11.58,15.25,25.22,20.47,39.06,1.68,4.46,3.46,8.89,5.55,13.14,5.83,11.8,18.01,18.63,30.66,17.37,3.31-.33,5.08.77,5.32,4.07.3,4.07.06,8.11-.64,12.13-.23,1.34-.81,2.57-2.18,2.14-6.6-2.09-5.82,3.22-6.24,6.52-.92,7.22,1.63,13.62,5.84,19.41,5.15,7.08,4.6,10.16-3.3,12.65-17.78,5.6-35.71,10.64-54.73,7.34-2.14-.37-4.17-.99-6.24-1.57-4.85-1.37-6.37-4.29-4.96-9.24,2.23-7.83,3.19-15.91,2.82-24.04-.21-4.57,1.01-8.18,5.16-10.09,13.75-6.3,15.28-18.96,12.25-30.42-3.63-13.75-8.13-28.05-19.14-38.57-4.6-4.4-9.41-8.29-16.48-5.93-1.45.48-3.07.32-3.83-1.07-.83-1.52.44-2.63,1.49-3.62,1.22-1.15,2.38-2.36,3.88-3.16h.01Z"/>
  <path class="cls-26" d="M147.49,514.43c10.14-23.01-2.12-60.88-34.55-66.84-4.44-.82-8.99,2.61-13.14-.8,9.13-8.98,20.91-13.17,32.37-17.93,7.11,1.34,8.68,7.82,11.2,12.91,5.8,11.76,10.59,24.09,13.07,36.96,2.9,15.04,12.78,21.95,26.27,25.64,4.3,1.55,8.95-.21,13.25,1.43,3.65,1.39,4.72,5.75,1.49,6.71-6.9,2.05-5.71,7.03-5.66,11.81.03,2.31-.65,4.73.63,6.94,1.68,4.19,2.77,8.75,5.17,12.47,4.1,6.38,2.27,10.8-3.49,14.25-16.95,10.15-35.32,13.47-54.84,10.93-3.36-.44-4.4-2.3-3.9-5.45.48-3.04.85-6.1,1.27-9.15,1.27-6.13,1.11-12.44.38-18.47-1.19-9.79,2.49-16.48,10.5-21.4h-.02Z"/>
  <path class="cls-13" d="M251.35,514.36c1.7-1.43,1.57-3.41,1.46-5.31-.2-3.47-1.85-3.53-4.06-1.48-3.18,2.96-5.42,6.64-7.77,10.26-.98,1.5-2.08,3.84-4.32,2.85-2.1-.93-1.3-3.41-1.12-5.18.64-6.2,5.59-10.42,7.66-16,.41-1.1,1.41-1.97,1.83-3.06.82-2.13.94-4.33-1.24-5.77-2.22-1.46-3.28.4-4.7,1.75-4.81,4.57-7.49,10.83-12.27,16.19-3.3-6.06.77-10.23,1.92-14.77.52-2.06,1.87-3.9,2.41-5.96.73-2.81,3.49-6.18-.07-8.47-3.44-2.22-4.41,2.63-6.92,3.51-1.37,1.72-1.44,5.08-4.49,4.66-3.51-.48-3.61-4.31-4.32-6.64-1.01-3.32-.24-7,3.3-9.23,3.99-2.51,8.66-1.93,12.97-2.98.75-.24,1.51-.4,2.29-.53,9.76-.64,19.53-.22,29.3-.29,4.53-.03,8,1.78,11.15,5.28,6.34,7.05,13.99,13,17.16,22.46.49.55.97,1.1,1.46,1.64.43.57.97,1.09,1.22,1.75,5.95,15.77-.67,40.03-13.87,51.02-11.97,5.79-24.22,9.35-37.48,4.59l-.21-.17c-3.31-2.11-.57-4.81-.45-7.08.61-11.66,2.81-22.97,9.17-33.07v.03Z"/>
  <path class="cls-26" d="M67.6,877.77c-21.23,4.19-33.94-9.16-46.66-22.59-2.58-2.72-2.12-5.63-1.06-8.68,1.8-5.19,3.63-10.37,5.44-15.56,2.18-6.27,3.38-13.36,12.78-12.49,1.52.14,3.49-1.58,4.81-2.88,6.34-6.27,13.84-5.51,21.47-3.7,2.03.48,4.61,1.12,5.3,3.29,5.43,17.03,19.29,28.95,26.85,44.7,4.34,9.05,2.37,14.08-7.51,16.13-4.66.97-9.47,1.3-14.22,1.74-2.37.22-4.78.04-7.18.04h-.02Z"/>
  <path class="cls-22" d="M738.42,20.59c-.21,3.8.8,8.29-.89,11.24-2.96,5.17-5.7-1.73-9.44-1.5-10.93.66-21.95-.38-32.94-.47-8.3-.07-16.4,7.83-17,16.05-.31,4.28-.72,8.56-1.15,12.83-.11,1.12.03,2.51-1.49,2.91-1.43.37-2.14-.69-2.82-1.66-.27-.39-.45-.84-.71-1.24-2.16-3.39-4.24-8.14-9.08-6.12-5.45,2.28-3.55,7.6-2.7,11.99.74,3.83,3.05,6.93,5.02,10.21,1.27,2.11,1.65,4.86-.33,6.66-2.5,2.29-3.27-1.79-5.23-1.96-6.05-11.94-8.8-24.67-8.65-38,.12-10.26,3.18-18.04,11.65-25.94,11.46-10.7,24.7-12.41,38.27-15.1,6.12-1.21,12.42,0,18.43,1.59,9.73,2.57,16.2,8.74,19.06,18.51h0Z"/>
  <path class="cls-23" d="M241.65,330.22c-.06,4.72,1.95,9.34.89,14.09-.56,2.49-1.46,5.26-4.6,1.65-1.74-2-4.12-1.55-6.3-1.6-11.12-.22-22.24-.46-33.36-.46-8.18,0-16.8,8.07-17.27,15.78-.24,4.02-.5,8.02-.84,12.03-.12,1.36-.12,3.04-2.12,3.25-1.46.15-2.06-1.1-2.75-2.08-2.56-3.64-4.88-9.46-10.55-6.35-5.51,3.02-3.14,8.96-1.39,13.61,1.07,2.84,3.43,5.22,4.85,7.97,1,1.95.98,4.25-.4,6.12-1.55,2.1-3.07.03-4.59-.31-7.57-12.75-10.5-26.45-10.01-40.98.31-9.17,3.78-15.5,11.5-22.33,14.09-12.46,30.55-14.81,47.9-15.14,11.96-.23,22.88,3.74,29.06,14.71v.02Z"/>
  <path class="cls-21" d="M802.96,237.01c6.33-12.91,7.82-26.33,4.34-40.3-.9-1.91-1.03-3.8.08-5.68,2.13,1.25,4.19,2.8,4.15,5.42-.2,12.17,3.94,23.97,2.95,36.19-.21,2.6-.48,5.19-.83,7.78-.9,6.68-1.17,12.62,4.23,18.44,10.2,10.98,12.4,24.82,10.99,39.36-1.07,11.1-11.33,17.48-22.08,14.74-11.3-2.89-17.97-10.72-23.92-19.75,3.86-.62,5.32-2.7,5.47-6.78.43-11.15,4.49-22.05,2.1-33.42-.5-2.37,1.38-3.89,2.85-5.48,3.23-3.5,7.17-6.35,9.67-10.53h0Z"/>
  <path class="cls-1" d="M807.38,191.03c-.03,1.9-.05,3.79-.08,5.69-3.91-13.49-13.82-22.2-24.26-30.48-2.1-1.67-4.52-2.6-7.28-2.47-9.95.47-20.03-1.12-29.81,1.56-4.88,1.34-8.32.73-9.69-6.1-1.86,4.98-4.57,7.31-8.13,9.09-4.22,2.12-5.68,6.12-5.55,10.78.11,3.68,2.06,2.99,4.25,1.97-.11.7-.03,1.52-.37,2.08-1.41,2.31-2.12,6.5-5.45,5.44-2.68-.86-1.53-4.85-.91-7.1,3.69-13.39,2.35-27.01,2.26-40.57.03-.48.09-.95.11-1.43.4-15.74,5.11-22.22,20.66-25.24,9.8-1.91,20.08-2.39,29.63,1.94,6.75,3.06,11.73,7.29,12.05,15.97.29,7.64.89,15.17-.12,22.82-.9,6.86,1.18,12.44,7.49,16.54,7.17,4.66,11.95,11.6,15.21,19.51h0Z"/>
  <path class="cls-17" d="M232.61,469.75c-3.5,3-8.12.86-12.05,2.72-2.89,1.36-3.48,3.48-4.33,5.87-1.14,3.25,1.32,5.87,2.85,7.41,2.59,2.6,2.95-2.46,5.08-2.83-.13.95.04,2.1-.44,2.8-1.99,2.84-3.03,8.09-6.63,7.57-3.4-.49-.98-5.34-1.67-8.18-3.33-13.67,1.16-27.37-.11-41.05,1.06-4.52-.21-9.83,4.48-13.11,3.28-2.3,6.57-4.61,9.85-6.91,10.31-2.36,20.72-3.28,30.98-.16,10.63,3.23,13.94,8.21,13.91,19.34,0,3.09.22,6.22-.12,9.28-1.33,12.06-.08,22.84,10.94,30.82,3.53,2.56,6.31,7.13,6.17,12.35-4.9-7.19-9.88-14.23-16.34-20.25-4.34-4.05-8.74-5.92-14.65-5.7-9.27.34-18.55.05-27.83.02.61-3.69,3.73-3.11,6.12-3.36,4.25-.45,8.53-.03,12.79-.02,5.19.53,7.4-2.16,7.67-7.05.33-5.73.3-11.46.06-17.19-.1-2.52-1.14-4.55-3.39-5.95-10.15-6.3-23.17-.38-24.57,11.2.82,7.44-3.36,15.15,1.24,22.38h-.01Z"/>
  <path class="cls-2" d="M280.06,548.84c15.88-14.27,16.94-32.26,12.92-51.52,3.25,1.15,3.09,3.96,3.02,6.56-.24,8.56.31,17.09-1.14,25.69-1.82,10.77.3,20.72,6.62,30.43,6.21,9.55,2.59,22.79-5.97,30.11-6.05,5.18-19.88,4.4-28.12-1.92-4.56-3.5-7.95-8.13-10.43-13.36.29-.17.58-.33.88-.5,4.32,1.93,7.35.49,7.05-4.15-.73-11.47,4.28-18.38,15.18-21.34h0Z"/>
  <path class="cls-12" d="M802.96,237.01c-.37,1.09-.4,2.69-1.16,3.2-9.29,6.2-10.13,14.96-9,25.14.99,8.9-3.24,17.48-3.04,26.65.14,6.43-4.25,2.23-6.89,1.22-9.85-12.63-21.63-23.71-30.21-37.36,9.52.29,18.84-1.16,28.14-3,6.43-1.27,10.97-5.28,15.45-9.55,2.22-2.11,4.47-4.2,6.71-6.3h0Z"/>
  <path class="cls-26" d="M623.26,135.25c-.73,2.57-4.13,3.28-4.47,6.56,16.39-2.87,23.96,7.77,29.31,20.14,4.75,10.97,12.59,20.96,11.28,34.18-.97,9.83-3.49,18.29-12.96,23.06-4.37,2.2-6.03,5.55-5.57,10.45.68,7.2-.37,14.42-2.32,21.26-1.96,6.86,1.02,9.14,6.81,10.41,16.15,3.54,31.83.63,47.3-3.72,4.98-1.4,11.25-1.2,14.5-5.44,4.54-5.91-3.16-9.02-5-13.46-2.31-5.58-2.59-11.05-2.51-16.76.11-7.87.78-8.36,8.33-6.24.11-1.93.18-3.81.32-5.68.48-6.33,1.12-10.12-8.8-9.86-11.97.32-21.87-7.51-27.12-19.16-4.41-9.78-8.59-19.66-12.5-29.65-3.27-8.36-9.07-15.08-13.7-22.55-1.36-2.19-3.57-2.11-5.65-2.5.57-1.39,1.91-1.54,3.11-1.93,9.55,8.01,14.95,18.72,20.07,29.8,5.15,11.17,6.78,24.21,15.68,33.33,6.62,6.78,14.39,12.65,25.14,9.82,4.88-1.29,6.74.98,6.46,5.58-.31,5.23-.62,10.47-1.19,15.67-.24,2.16,1.19,5.72-1.86,6.12-3.01.39-1.99-3.79-3.49-5.52-4.32,5.4-4.03,11.78.84,20.03,8.23,13.94,8.31,14.19-7.02,19.07-15.96,5.07-32.22,8.41-49.17,6.19-3.63-.47-7-1.59-10.2-3.14-2.7-1.31-4.88-3.6-3.67-6.92,4.09-11.24,3.53-23.01,4.18-34.64,2.18-3.93,6.16-4.75,10.01-5.82,8.06-6.42,8.52-15.75,6.78-24.19-2.73-13.25-7.43-26.17-16.04-37.02-5.35-6.73-11.97-10.92-21.27-7.84-2.16.72-4.75.16-7.14.19,2.11-5.31,6.29-8.19,11.52-9.83h0Z"/>
  <path class="cls-26" d="M24.36,597.47c-.95.07-1.89.14-2.84.2,21.45-33.83,39.52-69.24,50.32-108.03,2.02,1.26,2.35,3.29,2.91,5.45,1.79,6.84,2.16,14.04,5.81,20.44,2.34,4.1,1.9,8.87.89,13.33-1.18,5.2-1.28,10.4-1.03,15.66,3.66,4.42,1.44,9.65,1.49,14.37.11,10.56,3.15,20.99,1.35,31.61-.41,4.65.26,9.06,2.83,13.07,3.38,4.94,6.04,10.25,8.39,15.73.06.89.12,1.77.19,2.66-.92-.21-1.84-.42-2.75-.62-9.15-6.03-11.34-16.24-12.6-25.52-1.78-13.17-4.15-26.39-3.82-39.88.21-8.62.24-17.29,1.98-25.66,1.78-8.54-.9-15.42-5.26-22.39-2.57,1.94-3.14,4.84-4.04,7.43-9.31,27.06-23.89,51.51-37.81,76.28-1.38,2.46-2.99,4.96-6.01,5.86h0Z"/>
  <path class="cls-21" d="M140.63,701.15c-1.03-6.22-8.88-8.29-9.1-15.2-.07-2.12-1.39-4.74,1.06-5.52,4.03-1.29,3.48-4.21,4.08-7.2.69-3.49,3.07-6.78,6.94-4.03,6.11,4.33,8.07.53,10.12-4.08,4.58,1.46,2.56,4.71,1.82,7.37-1.51,5.4-4.73,10.16-6.02,15.64-4.16,9.34-4.15,9.3,6.37,11.68,4.29.97,8.48,1.21,12.71-.24,1.97-.68,4.08-1.73,6,.23-1.64,2.71-4.51,3.67-7.24,3.91-9.03.79-17.91-.73-26.73-2.55h0Z"/>
  <path class="cls-6" d="M56.37,708.34c7.85,1.26,9.33-5.74,12.66-10.09,1.01-1.31.33-3.57-1.06-5.26-18.03-22.13-6.51-55.23,22.37-65.35.02.54.03,1.08.04,1.62-18.43,7.29-33.33,28.47-27.35,49.2,1.14,3.94,1.83,5.74,6.57,4.68,5.28-1.18,10.67-2.61,16.24-2.12,1.47.13,3.15.23,3.6,1.78.46,1.6-1.02,2.61-2.24,3.28-1.66.91-3.51,1.48-5.24,2.26-4.9,2.21-8.55,5.08-10.53,10.75-1.89,5.41-5.17,10.91-12.43,11.06-1.06-.28-2.12-.56-3.19-.84l-.08-.68.62-.28h.02Z"/>
  <path class="cls-3" d="M147.97,688.29c-.05-6.01,4.41-10.39,5.8-15.91.64-2.54,2.23-4.84-.05-7.27-.03-1.41-.05-2.81-.08-4.21-.23-7.99-6.52-11.5-11.66-15.91-5.92-5.09-14.47-5.55-19.89-11.45,3.22-1.93,6,.05,8.72,1.21,11.55,4.93,21.72,11.59,27.41,23.82,5.31-5.26,4.03-14.69,12.58-16.56-7.02,14.05-11.64,28.82-14.65,44.27-1.39,7.12,2,6.74,6.26,5.75,7.39-1.71,15.16-1.5,22.3-4.39,2.17-.88,3.68-.34,4.77,1.65-2.87,1.73-3.89,5.88-7.94,6.06-1.97.23,2.36-3.64-1.93-2.59-6.2,1.53-12.49,3.19-19.01,3.03-3.96-.1-7.83-.28-8.68-5.37-.4-2.42-2.48-1.7-3.95-2.12h0Z"/>
  <path class="cls-5" d="M147.97,688.29c2.05-.58,1.88-4.07,4.72-3.65,1.72,10.12,2.44,10.61,13.7,8.88,4.47-.69,8.9-1.63,13.37-2.37,6.18-1.02,2.15,2.38,1.78,4.19-2.31,1.48-4.62,2.96-6.93,4.44-9.95,4.7-19.93.97-29.89.1-3.65-.32-2.58-2.59-1.4-4.53,1.47-2.4,3.09-4.71,4.65-7.06h0Z"/>
  <path class="cls-11" d="M211.02,686.61c5.05-7.99,14.04-7.51,21.62-10.04,1.36-.45,2.84-1.08,3.71.72.8,1.67-.46,2.71-1.47,3.65-6.46,5.94-14.82,8.47-22.5,12.15-3.05,1.47-2.31-1.84-2.74-3.41.13-1.17.15-2.39,1.38-3.07h0Z"/>
  <path class="cls-2" d="M256.95,574.83c-4.97-5.25-9.97-10.48-12.89-17.26l.21-.21c6.4,2.34,12.77,10.78,12.99,17.22l-.32.25h.01Z"/>
  <path class="cls-26" d="M619.25,353.04c-.11-2.03,1.33-3.12,2.61-4.31,3.39-1.57,5.92.71,8.66,1.95,22.9,10.42,46.87,13.42,71.82,11.35,12.69-1.05,25.01-3.01,36.86-7.75,1.99-.8,4.15-1.19,6.17.19,1.48,2.63,1.99,5.41,1.34,8.37-1.28-5.17-3.89-5.71-8.74-3.64-17.97,7.66-36.98,8.1-56.16,7.61-19.9-.5-38.85-4.35-56.41-13.96-2.22-1.22-4.12-.55-6.14.19h-.01Z"/>
  <path class="cls-18" d="M708.77,125.89c-17.1-2.74-27.76-11.2-33.69-25.59-.51-1.24-1.73-2.69.14-3.65,1.47-.75,2.77.26,3.76,1.34,5.37,5.86,11.54,10.58,18.78,13.95,3.47,1.62,6.9,2.94,10.78,3.42,3.46.43,4.34,3.15,3.99,6.43-.38,3.49-2.73,3.97-3.75,4.09h-.01Z"/>
  <path class="cls-15" d="M649.41,213.95c-2.16,3.97-6.95,3.41-10.01,5.83-.83-6.38,1.33-12.23,3.4-18.05.52-1.45,1.75-3.17,3.72-2.67,1.82.46,1.35,2.34,1.29,3.66-.17,3.86.34,7.59,1.6,11.24h0Z"/>
  <path class="cls-12" d="M751.12,202.37c.82-3.32,2.73-6.27,6.3-5.03,4.41,1.53,1.92,5.25.86,7.83-1.16,2.82-1.21,6.79-5.52,7.34-.23-2.24.5-4.07,2.14-5.64,1.16-1.11,2.51-2.35,1.25-4.19-1.5-2.2-3.33-.58-5.03-.31h0Z"/>
  <path class="cls-12" d="M751.25,215.53c-2.72,12.75.3,25.95-3.02,38.66-2.88-4.38-.14-8.68.07-13.04.29-5.95.13-11.92.11-17.88-.01-2.96.41-5.7,2.84-7.74Z"/>
  <path class="cls-12" d="M745.62,196.86c.19,3.32-1.64,5.83-3.28,8.46-1.61,2.58-1.26,5.25-.43,8.16,3.9-1.11,3.31-5.62,6.41-6.7-.07.7.11,1.6-.26,2.08-2,2.54-1.72,8.6-6.18,7.02-4.06-1.44-2.65-7.03-1.57-10.23,1.03-3.03,1.69-7.01,5.3-8.78h.01Z"/>
  <path class="cls-14" d="M257.27,574.57c-2.94-6.79-7.84-12.1-12.99-17.22-.48-.9-.96-1.79-1.43-2.68,12.84.82,25.34-.51,37.21-5.84-.78.87-1.46,2.38-2.34,2.51-9.39,1.41-10.55,8.14-10.55,15.76,0,1.41-.23,2.85-.55,4.23-2.01,8.87-2.42,9-9.34,3.23h-.01Z"/>
  <path class="cls-4" d="M192.4,531.26c-3.2-9.16-2.18-13.95,4.13-19.16.96-.8,1.68-1.69,1.48-2.98-.27-1.75-1.84-1.83-3.12-2.4-3.9-1.76-8.56.61-12.2-2.34,1.19,0,2.39-.13,3.57,0,7.71.85,13.98-.16,16.07-9.46.8-3.58,2.92-7.33,9.06-9.03-7.83,12.46-5.32,25.38-7.38,37.58-.32,1.92.76,4.87-2.53,4.91-2.76.04-2.98-2.41-3.36-4.62-.51-3,1.67-8.53-2.6-8.33-5.23.25-2.38,6.06-3,9.43-.38,2.08-.11,4.27-.13,6.41h0Z"/>
  <path class="cls-9" d="M209.54,430.35c-.2,2.08-1.43,3.24-3.69,3.35-11.83.58-27.24-11.16-29.91-22.74-.27-1.15-.98-2.36,0-3.35,1.15-1.16,2.2-.19,3.03.62,8.37,8.17,16.83,16.19,28.7,19.13,1.18.29,1.76,1.53,1.87,2.99Z"/>
  <path class="cls-25" d="M147.49,514.43c.52,2.83-1.34,5.02-3.25,5.76-6.93,2.68-6.51,7.98-6.4,13.91.12,6.72,1.29,13.61-1.22,20.2.83-14.81-1.91-29.6-.18-44.42.28-2.38.38-4.69,2.92-6.63,3.44,3.19,1.93,10.23,8.14,11.17h-.01Z"/>
  <path class="cls-14" d="M251.35,514.36c.36,3.05-1.22,5.53-2.6,7.96-5.68,10.06-5.04,21.28-6.12,32.18-.66-.23-1.9-.52-1.88-.67,1.54-13.69.2-28.17,10.6-39.48h0Z"/>
  <path class="cls-20" d="M170.81,642.01c-5.4,4.42-7.25,10.9-9.78,16.98-.55,1.31-1.01,2.78-2.65,3-1.18.15-1.43-.94-1.74-1.83-5.72-16.39-20.2-21.4-34.53-26.62-5.13-3.32-11.98-3.07-17.39-8.32,28.17-3.93,53.38-18.05,81.87-15.58,2.47.21,5.8-1.33,7.07,1.75,1.06,2.57-1.87,4.1-3.28,5.9-6.48,8.27-13.03,16.49-19.55,24.73h-.02Z"/>
  <path class="cls-19" d="M94.49,619.3c-4.82-4.16-7.24-9.61-8.39-15.74-.32-3.76.74-6.58,4.96-7.18,3.47-.5,4.93,1.22,7.1,4.07,3.61,4.72,7.12,9.14,8.25,15.08.25,1.32,1.14,1.95,2.43,2.21,1.8.35,4.42.49,3.65,3.09-.66,2.25-3.28,1.03-5.04,1.27-4.65.64-8.91-.65-12.97-2.79h0Z"/>
  <path class="cls-19" d="M83.26,590.49c-3.01-15.2-4.38-30.5-2.84-45.98,7.39-2.76,7.38,3.58,6.88,6.97-1.61,10.99-.6,21.47,2.84,31.95,1.59,4.84-2.08,8.32-6.88,7.05h0Z"/>
  <path class="cls-19" d="M83.13,519.81c1.31.09,1.62,0,1.76.13,3.22,2.92,4.46,6.56,3.61,10.78-.26,1.29-1.67,1.92-2.82,1.14-4.62-3.16-1.43-7.78-2.55-12.05h0Z"/>
  <path class="cls-26" d="M24.36,597.47c15.2-24.69,29.2-50,40.04-76.96,1.83-4.55,3.27-9.25,4.98-13.85.47-1.28.77-3.06,2.48-3.14,2.19-.1,2.03,2.07,2.88,3.41,6.93,10.96,4.51,22.45,3.22,34.31-1.43,13.23-.71,26.65,1.41,39.93,1.6,10.06,1.7,20.29,6.43,29.8,1.82,3.66,4.62,6.61,6.13,10.35-6.51,2.72-12.2-1.25-17.99-2.7-17.58-4.41-34.98-9.59-49.57-21.16h0Z"/>
  <path class="cls-26" d="M767.97,770.64c4.69.62,7.38,3.62,9.53,6.6,11.24,15.6,27,24.59,44.39,31.47,5.98,2.37,11.66,5.47,16.64,9.62,7.24,6.03,6.34,12.59-2.25,16.67-14.25,6.76-29.02,4.86-43.58,1.74-15.21-3.26-30.29-6.79-46-6.44-3.52.08-7.14-.69-10.6-1.51-11.9-2.82-15.37-7.71-13.74-19.62,1.07-7.8,2.5-15.55,3.87-23.31.65-3.7,1.68-5.69,6.06-2.71,10.83,7.38,24.95,5.49,34.36-3.38,3.13-2.95.34-5.81,1.33-9.12h-.01Z"/>
  <path class="cls-26" d="M606.92,879.3c-12.48,1.02-24.82-3.96-36.82-10.21-6.36-3.31-12.67-6.7-19.05-9.96-8.51-4.34-10.38-8.94-7-18.15,1.4-3.81,3.19-7.47,4.67-11.25,2.78-7.13,6.31-12.77,15.59-10.91,4.18.84,6.57-2.08,7.76-5.89,2.19-7,7.67-8.16,14.08-8.66,6.32-.49,8.42,3.64,10.35,8.06,6.48,14.79,17.42,26.18,28.34,37.59,2.48,2.59,4.96,5.2,7.62,7.61,4.03,3.65,5.03,8.29,3.62,13.1-1.44,4.9-5.9,6.54-10.55,7.42-5.67,1.07-11.39,1.41-18.61,1.26h0Z"/>
  <path class="cls-26" d="M240.87,841.32c-24.22-5.56-49.22-1.29-73.45-6.41-16.12-3.41-17.92-6.45-13.55-22.06,1.67-5.98,3.88-11.81,5.94-17.67,1.1-3.14,3.65-5.7,6.33-2.74,12.23,13.47,23.38,4.21,34.69-1.2,2.89-1.38,5.25-3.33,8.2-.17,14.04,15.04,33.08,21.29,51.23,29.16,4.41,1.91,10.96,2.84,10.81,8.92-.16,6.48-6.52,7.91-11.7,9.87-6.04,2.29-12.28,1.51-18.49,2.3h-.01Z"/>
  <path class="cls-10" d="M229.7,448.44c7.69,6.56,15.38,13.13,23.07,19.69-6.65,1.02-13.57-1.29-20.07,1.61l-.09.02c-3.88-.39-4.36-3.09-4.13-6.19.37-5.04.81-10.08,1.22-15.13Z"/>
  <path class="cls-26" d="M745.37,354.48c-8.58,1.86-16.33,6.19-25.16,7.59-30.16,4.79-59.64,3.82-88.09-8.45-3.47-1.5-6.84-3.24-10.26-4.88,0-9.79.16-19.59-.06-29.38-.11-4.84,1.24-6.79,6.58-7.84,14.02-2.78,28.48-2.75,42.25-6.71,18.78-5.4,35.07-15.84,51.46-26.04,5.45-3.39,11.05-6.54,15.93-10.8,2.42-2.11,4.85-3.13,4.72,1.72-.29,10.96.08,21.9-.84,32.89-1.3,15.47,1.25,30.87,2.85,46.25.2,1.89.41,3.77.61,5.66h.01Z"/>
  <path class="cls-19" d="M145.64,683.97c.26,1.44-.67,2.31-1.84,2.33-1.94.03-2.82-1.38-2.87-3.21-.04-1.26.63-2.58,1.81-2.58,2,0,2.26,1.98,2.9,3.47h0Z"/>
</svg>