<?xml version="1.0" encoding="UTF-8"?>
<svg id="Layer_1" data-name="Layer 1" xmlns="http://www.w3.org/2000/svg" viewBox="0 0 1080 1080">
  <defs>
    <style>
      .cls-1 {
        fill: #c9c9c9;
      }

      .cls-2 {
        fill: #c2c1c1;
      }

      .cls-3 {
        fill: #aa9c8c;
      }

      .cls-4 {
        fill: #f8cda7;
      }

      .cls-5 {
        fill: #fefdfc;
      }

      .cls-6 {
        fill: #baa58d;
      }

      .cls-7 {
        fill: #c1c0c0;
      }

      .cls-8 {
        fill: #f4cca7;
      }

      .cls-9 {
        fill: #fdcca7;
      }

      .cls-10 {
        fill: #ddad83;
      }

      .cls-11 {
        fill: #3a3b3b;
      }

      .cls-12 {
        fill: #1e1e1d;
      }

      .cls-13 {
        fill: #1c1c1c;
      }

      .cls-14 {
        fill: #baaea4;
      }

      .cls-15 {
        fill: #f9cda8;
      }

      .cls-16 {
        fill: #3c3c3b;
      }

      .cls-17 {
        fill: #3d3d3a;
      }

      .cls-18 {
        fill: #3b3c3b;
      }

      .cls-19 {
        fill: #3b3b3a;
      }

      .cls-20 {
        fill: #060606;
      }

      .cls-21 {
        fill: #282828;
      }

      .cls-22 {
        fill: #3a3b3a;
      }

      .cls-23 {
        fill: #e0b082;
      }

      .cls-24 {
        fill: #bbbaba;
      }

      .cls-25 {
        fill: #4d5250;
      }

      .cls-26 {
        fill: #b1a8a4;
      }

      .cls-27 {
        fill: #202020;
      }

      .cls-28 {
        fill: #1c1d1d;
      }

      .cls-29 {
        fill: #fccca7;
      }

      .cls-30 {
        fill: #3b3a3a;
      }

      .cls-31 {
        fill: #4e504f;
      }

      .cls-32 {
        fill: #4e514f;
      }

      .cls-33 {
        fill: #1d1d1c;
      }

      .cls-34 {
        fill: #dfae83;
      }

      .cls-35 {
        fill: #3a3a3a;
      }

      .cls-36 {
        fill: #dcdcdc;
      }

      .cls-37 {
        fill: #1e1e1e;
      }

      .cls-38 {
        fill: #fccca5;
      }

      .cls-39 {
        fill: #c8b49e;
      }

      .cls-40 {
        fill: #d84140;
      }

      .cls-41 {
        fill: #f3dcc8;
      }

      .cls-42 {
        fill: #252524;
      }

      .cls-43 {
        fill: #292828;
      }

      .cls-44 {
        fill: #fefefd;
      }

      .cls-45 {
        fill: #c1c1c1;
      }

      .cls-46 {
        fill: #c0c2c1;
      }

      .cls-47 {
        fill: #facda6;
      }
    </style>
  </defs>
  <path class="cls-45" d="M184.88,648.33l-2.79.95-15.76,95.22c23.72-17.14,48.7-32.42,74.92-45.82,2.67-4.2-.57-5.94-9.72-5.23-5.42-.07-9.77-8.91-7.11-13.1-3.19-4.29,4.51-6.43,5.37-1.01-1.05,4.68-.31,7.43,2.22,8.24l41.01,4.81c6.62,1.94,13.46,3.54,19.8,1.83,4.51,3.84-3.62,15.49-5.34,20.27l-2.78,1.75c-19.53-1.28-42.94,4.43-57.79,16.98-12.22,7.19-24.57,14.54-36.17,22.68,28.36,4.65,57.22,9.48,85.76,15.24,4.01-.85,6.6-.17,7.77,2.02.58,4.45,1.47,9.37,2.14,13.87-3.4-2.74-7.16-1.71-10.95-2.4-26.34-4.84-52.42-9.94-78.6-14.35-5.21-.88-18.96-3.91-23.1-3.52-2.14.21-33.98,23.11-34.81,25.09-1.09,2.57,5.78,1.72,6.88,1.53,1.78-.31,3.16-1.58,4.59-1.82,4-.68,8.1-.76,12.05-1.91,1.24.94,4.2,16.34-.27,16.88l-124.79,24.25v-17.6c4.67-3.01,12.05-2.84,17.36-4,15.48-3.37,30.92-7.03,46.47-10.15l47.76-39.81,22.73-124.44c-.07-4.28-7.47-8.41-8.22-13.11l2.52-.4c7.18,7.68,13.73,15.88,19.67,24.59l-.82,2.48Z"/>
  <path class="cls-2" d="M418.92,793.43c6.5,1.88,15.72,8.37,20.28,13.36,2.55,2.79,2.69,6.93,7.51,6.91-.06,6.15,11.56,24.94,16.03,29.87,4.74,9.57,8.56,19.48,11.48,29.74l-1.86,2.27c-4.17-.37-18.32,1.42-19.62.97-2.36-.83-2.74-8.65-7.1-8.44-4.41-11.59-9.38-23.2-14.92-34.82-3.08-5.81-6.5-9.74-10.73-14.26-.1-1.13.08-2.02-.53-3.16-3.85-7.19-29.96-2.6-37.07-.77-8.69,2.24-19.88,6.02-23.37,15.08-2.18,5.66-2.88,18.07-3.2,24.55-.3,6.26,1.66,42.81.04,44.32-.32.3-5.13-.4-6.41,1.07-5.38-8.29-13.32-10.34-13.89-21.34-2.83-2.73-4.81-12.13-1.07-14.4-.83-.23-2.06-.57-2.14-1.22-.22-1.83-.45-17.77,0-18.59s1.28-1.25,2.14-1.53c-3.72-1.73-.64-12.81.75-16.53,4.29-11.49,13.38-18.54,22.68-24.98l-30.84-5.72-1.13-2.38c.82-4.52,2.73-9.12,3.21-11.74l1.31-1.93,25.05,4.46c-5.9-9.82-12.77-19.28-20.62-28.38l-1.47-4.02c.39-11.57-1.36-21.43,0-34.14l4.49,3.82c17.59,22.43,35.24,44.84,52.93,67.23,8.9.02,17.81.75,26.73,2.19l1.34,2.51Z"/>
  <g>
    <path class="cls-2" d="M730.97,657.93c-3.93.13-7.24-2.64-9.94-8.3l-.36.69-16.51,94.81c23.71-17.2,48.49-32.3,74.36-45.3,1.5-.38,2.57-5.12,2.22-5.55-11.99,1.35-17.99-2.04-17.98-10.19-3.66,4.43-6.34,6.22-11.75,2.92-2.2-1.34-19.46-22.79-19.33-24.34.09-1.07.59-1.93,1.42-2.61,1.71.27,3.24.93,4.59,1.99l17.95,21.06c6.95-7.9,13.9-11.31,12.7,2.52.17.95.66,1.53,1.61,1.79l44.52,5.37c5.83,1.94,11.29,3.27,16.96,1.41,4.66,2.7-1.21,11.88-2.79,15.92-.55,1.42-2.32,2.68-2.56,3.29l-3.4,2.09c-19.48.84-43.13,4.84-57.61,18.16-11.96,6.82-23.66,14.06-35.09,21.74,30.18,6.19,60.61,11.4,91.29,15.62l1.6,2.14c.47,3.82,1.48,8.72,2.14,12.8l-112.65-19.2c-12.56,6.91-23.24,16.73-34.82,25.08-.53,2.52,2.17,1.68,3.71,1.57,3.23-.22,18.84-4.59,19.86-3.8,1.47,3.93,4.08,14.12.3,16.45l-125.4,24.71v-16.54c0-3.23,24.21-6.33,28.07-7.19,12.18-2.71,24.16-5.68,36.35-8.52l46.58-38.85c5.45-21.75,8.03-43.97,11.97-65.94.97-5.38,2.95-12.02,3.92-17.42,2.47-13.8,4.3-27.74,7.64-41.37-.13-4.24-7.64-8.61-8.42-13.29l2.13-.76,27.61,34.72-.88,2.32Z"/>
    <path class="cls-29" d="M985.32,811.57c-1.11,4.85-5.94,1.51-8.34-1.36-4.94-6.56-11.38-11.68-19.32-15.36l-.12-2.48-2.41-3.39c-2.02-12.73-4.41-25.4-7.17-38.02-4.21-27.87,2.23-45.14,22.29-64.1,5.68-7.43.69-10.89-14.98-10.38l-.93-2.53c-.87-2.27-.87-5.12,0-8.54,3.38-14.09,6.67-28,12.7-41.29l-3.08-3.53c4.87,2.31,13.45,6.68,18.53,9.77,7.52,4.57,22.09,16.57,25.85,24.33,6.21,12.82,1.99,17.37.61,29.49-4.07,35.72-14.94,68.12-20.3,103.49-.47,3.1.23,6.3-.19,9.41-.58,4.26-2.96,9.85-3.12,14.49Z"/>
    <path class="cls-45" d="M957.53,792.36c.88.28,14.09,8.44,15.47,9.63,3.54,3.04,7.24,11.93,12.31,9.58-.12,3.26-.03,4.81,1.18,7.9,1.89,4.87,12.37,22.6,15.92,26.24,4.21,8.99,7.7,18.26,10.47,27.81l-1.92,2.06c-6.61-.44-13.04.61-19.59.92-.85-1.32-5.9-7.89-6.06-8.38l-2.27-1.05c-2.93-15.72-12.89-32.19-21.57-45.82l-2.88-.07c-.14-5.16.22-6.3-5.09-8.25-7.59-2.78-31.88,1.34-39.98,4.33-9.95,3.67-16.7,9.38-18.01,20.43-1.77,14.85-1.49,35.08-1.09,50.23.19,7.04,4.54,10.59-5.29,12.22-1.7-2.8-4.78-3.23-6.85-5.43-3.88-4.15-7.5-10.92-10.25-15.91.93-1.63.76-3.32-.5-5.07l1.56-1.86c-.84-.1-2.09-.37-2.14-.96-.57-7.24-.56-19.05,0-26.3l2.14-1.55c-3.75-3.63-1.04-11.34.68-16.02,4.18-11.34,13.32-20.87,24.15-25.84-10.26-2.33-20.64-4.12-31.15-5.38l-1.17-2.37c.68-3.64,1.47-8.17,2.14-11.74l1.31-1.93,24.87,4.24-21.15-27.78-.76-5.47c-2.75-5.82-.81-26.12,0-33.07l5.32,4.85c17.26,22.05,34.56,44.08,51.9,66.1,8.95.3,17.8,1.03,26.55,2.2l1.73,1.54Z"/>
    <path class="cls-11" d="M947.92,681.4l-1.11,1.02-14.63-2.19c-5.58-2.15-7.82,1.08-6.72,9.68l-1.05.02c-5.91,1.11-44.69,6.23-45.98,4.29-.52-.77.43-18.16,1.33-18.38,14.45-.22,28.63-1.22,42.52-2.98,1.73,1.06,2.62,4.43,5.02,5.12,5.23,1.5,15.06.54,20.62,3.41Z"/>
    <path class="cls-7" d="M954.33,673.93c4.01.72-.78,12-3.44,12.5-7.26-1.66-14.59-2.76-21.99-3.29-1.08,4.98-1.15,9.78-.2,14.4.34,3.14-.89,4.8-3.38,6.54-2.05,1.43-43.41,6.39-49.58,7.01l-1.54-1.94c.95-5.12,2.41-12.35,3.21-18.14,1.04-.16,1.39.85,1.05,3.04,1.73,0,2.06.22.95,1.03,15.01-1.15,30.17-2.71,45.03-5.13,3.42-1.11-2.6-9.07,1.76-10.51,4.02-1.32,15.81,1.89,21.75,1.97.12,0,.77,1.22,1.49,1.03l1.21-1c1.12-5.37,2.44-10.71,3.71-16.03-.25,2.72.37,5.91,0,8.54Z"/>
    <path class="cls-31" d="M888.07,667.53c7.07,1.39,30.27,2.94,34.2,5.33.13,3.72.67,2.96-2.62,3.2-13.06.99-26.05,1-39.13,1.53-2.01,1.39-.35,13.19-2.07,16.6l45.95-4.26c-14.49,4.83-30.41,3.36-45.47,6.13l-1.56-5.06c1.27-9.27,1.42-20.35-3.21-28.81h1.07c.22.32.01,1.4.56,2.1,2.09,2.69,8.93,2.58,12.27,3.24Z"/>
  </g>
  <path class="cls-5" d="M325.95,793.43l37.38,6.93c-.95,3.21-3.24,2.6-5.45,4.11-11.08,7.51-19.34,14.21-22.05,28.16-.33,1.7-1.32,9.2-1.32,10.42v21.34c0,3.47.84,10.09,1.07,14.4-2.52.11-2.78-1.49-3.78-3.16-14.23-23.8-10.53-56.3-5.84-82.19Z"/>
  <path class="cls-44" d="M865.63,793.43c4.73.98,34.68,4.43,35.26,6.95s-6.3,4.64-7.99,5.87c-12.29,8.93-19.79,21.2-19.79,36.79v28.81c0,1.92,3.65,7.73-1.07,6.94-14.41-26.11-13.55-54.78-8.27-83.52.24-1.31,1.83-1.71,1.85-1.84Z"/>
  <g>
    <path class="cls-9" d="M335.56,662.2c5.27,4.95,6.91,10.09,4.93,15.4l-1.2,16.91-1.59.76c2.45,4.44.63,11.71-3.21,14.94,2.99,1.08,2.16,7.2-1.07,7.47,1.66,4.61,3.32,30.47,1.46,32.78-.41.51-.92.95-1.46,1.36.71.86,1.69,2.32,1.81,3.36.45,4.09-2.46,21.1-3.75,25.62l-2.33.9c3.08,1.63-.02,11.15-3.21,11.74l1.58,3.32c-4.96,27.62-6.98,57.28,8.04,82.03l2.26,1.28c2.2,6.56,6.39,12.44,12.56,17.63l-.93,2.42c3.09,4.76,6.63,13.9-1.55,14.99-13.17,1.74-36.17,1.03-43.79-11.86-13.75-23.29-8.03-50.8-10.25-76.19-1.18-13.47-5.51-26.93-7.46-40.03-3.54-3.3-5.06-9.79-2.14-13.87l-2.54-3.12c-1.66-9.86-2.81-48.84,3.83-54.39.57-.47,1.23-.84,1.91-1.17l-1.19-.87c2.85-6.55,5.03-13.02,6.54-19.4-1.81,2.54-10.02-2.63-10.56-3.69-.88-1.71,2.71-6.59,4.15-8.05,6.07-9.51,21.93-20.55,32.89-23.18,6.07-1.45,12.87-3.39,16.27,2.91Z"/>
    <path class="cls-9" d="M428.54,622.72c10.19,5.69,21.85,11.36,31.01,19.72,10.51,9.61,13.97,16.29,12.79,30.94-2.27,28.21-10.04,51.18-15.72,78.19-4.31,20.48-6.68,41.46-9.91,62.12-2.15,3.21-3.97,1.35-6.1-.84-4.4-8.09-12.84-13.38-21.12-17.01l-.57-2.43c-1.25-.47-2.08-1.13-2.49-1.96l-9.05-54.35c.56-21.79,8.03-34.56,22.94-49.02,7.4-8.13,2.83-12.01-13.7-11.65l-.9-2.52c-.65-2.14-.65-4.63,0-7.47.95-15.04,6.71-30.1,12.82-43.74Z"/>
    <path class="cls-47" d="M300.3,479.75c-2.06,1.02-2.03,1.49-2.21,3.63-1.07,13.08,2.07,27.05,1.13,40.63-.65,9.38-3.22,28.09-5.8,36.88-.93,3.15-4.18,4.78-2.73,7.41-5.74-3.58-11.17-6.06-16.03-9.6-12.52-9.13-27.8-34.12-35.27-48.54-8.61-16.61-4.23-29.77-22.1-41.95-4.25-2.9-9.04-4.62-13.16-7.67,22.84,3.8,28.27,8.9,37.85,29.96,1.63,3.59,3.06,11.34,4.84,14.37.57.98,15.13,14.35,16.62,15.41,2.38,1.69,4.91,3.63,6.84.44,5.7-14.84,16.45-28.52,15.07-45.24-8.11.38-14.31,3.36-22.76,1.9-1.99-.35-2.87-1.51-3.96-1.89,2.07-1.71,5.07-2.13,9.01-1.27,4.13-.51,7.33-.74,11.3.2l1.24-2.58c8.67-2.27,14.15-8.66,17.39-16.75l2.74-.94,2.11-10.62c.94-2.29,2.66-1.56,2.75.88l-6.95,32.87c.05,1.18.75,2,2.08,2.48Z"/>
    <path class="cls-29" d="M445.64,868.11c-.61.03-2.04,1.07-3.69,1.08-8.81.08-27.85.91-31.83-8.82-4.03-9.86,11-28.05,9.87-41.34,2.32-.3,3.33.61,4.86,2.08,7.74,7.44,14.1,25.25,18.11,35.26,1.55,3.88,6.03,6.61,2.67,11.73Z"/>
    <path class="cls-15" d="M462.74,843.57c2.26,2.5,12.2,12.48,14.4,13.9,4.26,2.74,12.09,3.97,17,6.5,3.79,1.95,6.53,5.18,9.91,7.17,3.67,2.16,10.75,1.71,4.71,7.17s-11.3.34-16.69-.54c-4.92-.81-14.43-1.72-19.71-2.2-1.06-11.32-9.37-20.78-9.62-32.01Z"/>
    <path class="cls-8" d="M178.47,450.94c.07,2.48-.06,4.99,0,7.47,1.42.03,2.85-.03,4.28,0l22.42,21.9c3.15,4,8.95,11.78.33,13.12-4.96.77-18.91-9.83-24.48-12.49-3.85-1.83-11.25-2.07-12.16-6.53,7.7-6.66,6.55-14.6,9.62-23.47Z"/>
    <g>
      <path class="cls-21" d="M274.65,558.7c5.22-.31,14.18,4.62,16.03,9.6,3.25,2.03,7.26,5.45,10.69,7.47,22.17,8.96,45,16.17,68.49,21.63,20.52,5.73,39.5,14.88,57.33,25.36-6.34,18.64-11.49,37.9-15.46,57.77-6.01.5-12.46-.1-19.34-1.82-7.18,1.47-10.09-.48-8.73-5.85-.26.53-.54.97-.94,1.12-1.47.55-27.49-3.36-30.99-4.12l-1.2-2.33c-.26-1.9,1.07-2.62,4-2.17-15.39-28.6-40.76-48.7-67.2-66.92l-3.17-3.41c-3.73-10.98-7.57-1.14-1.02,2.9,20.48,15.16,38.41,36.73,52.24,58.36.5.78.73,1.75.94,2.76s.29,2.08.32,3.14c-.31.76-.67.75-1.07,0-1.47.59-2.96.05-4.46-1.62-12.27-3.81-35.01,11.87-42.05,21.8l-2.64.09c-1.55,1.76-5.92,6.97-3.34,8.9,11.37,4.98-3.3,3.85-8.31,1.39-6.1-3-18.15-13.31-23.29-18.33.75-1.12.73-2.02-.33-2.62-.35.44-.72.83-1.17,1.04-5.87,2.62-24.11-14.15-28.42-18.22-13.51-12.77-19.85-21.1-23.47-40.41-5.01-6.42-5.14-10.34-.37-11.76-.35-.4-.64-.82-.77-1.28-1.34-4.94,47.07-30.1,50.65-31.71,7.33-3.31,14.97-6.12,22.77-8.07,1-2.46,2.43-3.36,4.3-2.68Z"/>
      <path class="cls-40" d="M204.12,460.55c13.24,3.79,24.58,10.94,29.08,24.46,6.28,26.72,21.73,51.53,41.29,70.87l.17,2.82-2.84,4.36c-17.92,4.78-35.57,13.49-51.33,23.17-5.04,3.09-19.5,12.33-22.77,16.21-3.83,5.26-9.97-.07-13.21-3.84-9.31-12.47-20.56-22.39-33.74-29.76l-1.14-2.68-1.77-1.88c-.75-22.42-4.09-45.05-10.03-67.87-1.66-8.86-2.66-17.78-3.19-26.77-.18-3.09.6-8.08,4.3-6.97l2.52,1.33c2.44,11.32,15.54,15.08,25.26,11.47-.95-2.67.11-3.03,2.14-1.07,9.67,2.64,19.02,7.53,27.57,13.31,9.38,5.9,16.13,4.81,7.14-6.01l-21.2-20.7.39-2.6c8.51.17,13.17.77,21.37,2.13Z"/>
      <path class="cls-22" d="M251.14,671.8c5.65,2.66,15.51,14.06,23.62,18.56,3.41,1.89,7.81,4.3,11.64,3.84-.61-2.71-5.4-1.54-5.39-4.76,0-1.66,3.54-6.11,5.39-6.97-.78,1.23-3.95,7.57-3.16,8.48,2.03.76,8.4,2.25,9.57,3.25.56,3.21-1.52,2.19-3.58,2-19.21-1.7-38.39-4.67-57.59-6.55-5.97-1.04-3.68-6.95-4.02-11.45-2.33-.69-2.34,1.45-3.2,2.13.8,4.52-7.58,9.98-11.55,7.06-8.43-12.97-17.91-25.16-28.44-36.59l.45-2.48-13.43-18.07c-2.08-3.15-5.68-5.96-7.95-8.6-.32-.38-.74-.69-1.07-1.07-2.21-4.03-5.26-7.5-8.55-10.67-5.63-7.3-13.17-19.54-19.24-25.61-1.24-.4-1.27-1.38-.76-2.57,6.54-.4,10.19-2.82,13.54-8.56l1.73-.61c2.27,4.29,5.62,8.35,10.04,12.2l69.27,86.58c1.02,1.24,20.85,3.1,22.66.46Z"/>
      <path class="cls-25" d="M197.7,602.45c-3.86,4.59.77,6.63,2.36,10.98,2.95,8.05,4.5,18.89,9.41,25.82,4.08,5.76,25.86,25.54,31.99,28.88,2.97,1.61,6.78,2.31,9.68,3.67,2.14,2.83-.79,3.06-2.62,3.25-3.93.41-18.59.11-21.46-2.16-25.19-30.07-48.7-61.58-73.66-91.83-2.09-2.53-6.02-2.32-4.87-7.42-2.53,1.46-3.32,4.72-5.86,6.41-3.04,2.02-8.02.82-8.02,4.26-.19-.19-1.39-.4-2.14-1.07-.91-5.43,2.48-1.58,6.19-2.8,5.17-1.7,9.57-9.27,10.91-14.27,7.46,2.39,14.47,8.2,20.32,13.32,5.23,4.57,17.04,19.79,20.76,21.95,2.41,1.39,4.4,1.14,7.01,1.01Z"/>
      <path class="cls-18" d="M428.54,622.72c-5.76,14.25-9.4,28.82-12.82,43.74,0,5.82-1.23,11.18-3.72,16.06-7.94-.42-15.83-1.35-23.66-2.8-1.2,3.25-2.04,6.66-2.54,10.21-5.46.82-44.98,6.44-46.71,4.84-.74-.69,1.23-19.79,2.22-20.04,14.47,1.23,28.59.6,42.35-1.87,1.71,1.01,1.48,3.11,2.39,4,2.21,2.18,7.92.9,10.91,1.38,4.38.71,8.91,3.63,14.43,2.03,2.21-10.99,3.64-22.46,6.78-33.23,1.15-3.95,9.32-21.96,8.04-24.14-.71-1.21-21.78-11.59-24.89-13.03-30.78-14.22-73.99-18.77-99.96-34.1,26.61,10.67,55.52,14.89,82.44,24.92,15.32,5.71,30.49,14.06,44.73,22.02Z"/>
      <path class="cls-45" d="M162.44,620.59c-3.15-3.58-5.79-7.09-8.55-10.67,3.65,2.56,7.34,6.24,8.55,10.67Z"/>
      <path class="cls-20" d="M336.63,662.2c-12.47-19.77-27.78-39.03-44.87-54.96-6.36-5.93-21.95-12.29-10.17-20.77,3.04,2.59,2.34,5.44,5.29,8.57,6.62,7.02,21.59,15.39,29.95,22.38,10.24,8.57,19.83,18.07,27.74,28.85,2.04,2.79,11.49,16.66,12.14,18.82.26.84.3,1.59.21,2.44h-6.41c-4.19,3.87-14.14,1.51-13.89-5.33Z"/>
      <path class="cls-32" d="M350.53,667.53c5.58.89,29.82,3.38,33.13,5.33,0,2.95-1.27,2.95-3.7,3.25-12.53,1.5-25.44,1.41-38.01.42-2.43,1.74.14,14.01-2.11,17.66l45.95-4.26c.87,2.93-1.55,4.43-7.25,4.53-12.88,1.11-25.83,2.18-38.85,3.21l-2-2.41c2.18-11.62,3.92-21.86-2.14-33.07h1.07c.59.94.14,2.78,2.13,3.73,3.77,1.11,7.97,1,11.76,1.6Z"/>
    </g>
    <path class="cls-45" d="M415.71,673.93c-.31,2.67-1.25,8.74-3.98,9.45-.66.17-12.04-.75-13.6-.97-3.09-.44-6.25-3.31-10.21-2.08,1.13,3.73-1.16,9.43-.96,12.33s4.58,5.39-1.17,9.54l-51.29,8.01c.87-5.07,2.27-9.95,3.21-14.94,8.79,1.46,17.61-1.17,26.2-2.12,3.15-.35,20.85-.1,21.89-3.22.82-2.45-1.66-9.4,1.75-10.52,5.14-1.68,21.84,4.07,23.93,2.62,2.41-4.85,3.05-10.37,4.24-15.57-.19,2.42.27,5.1,0,7.47Z"/>
    <g>
      <path class="cls-30" d="M328.08,420l-2.62.45c-2.45-2.24-5.24-4.11-8.31-5.4,17.24,17.53,15.06,56.81-11.52,63.63-2.62.8-7.21,1.73-7.43-1.37l6.92-32.1c-1.21-3.4-2.83-2.2-4.84,3.59-3.99-2.21-2.42-10.04-.06-13.56-1.98-10.58-6.07-19.18-15.87-24.7l.97-2.28c4.25,1.97,3.76,2.13,8.02,2.13h22.44c1.47,0,12.92,6.14,12.29,9.6Z"/>
      <path class="cls-12" d="M281.06,406.13c2.86.99,2.93,1.51,4.27,2.13,2.45,3.86,6.6,4.24,9.62,8,2.59,3.24,7.63,15.44,7.38,19.25-.1,1.53-1.76,2.68-1.99,4.27-.42,2.91.16,6.07-.05,9.02.82,1.19.82,2.96,0,5.33-4.88,11.49-9.39,17.03-21.37,20.27l-4.27-1.59c13.61-8.53,18.93-27.17,15.52-42.18-2.01-8.81-7.38-20.02-16.59-22.39l7.48-2.12Z"/>
      <path class="cls-27" d="M328.08,420c13.75,13.81,10.48,39.78-3.21,52.28-4.93,3.55-10.75,7.53-17.1,6.4-.48.98-1.33.76-2.14,0-2.31-3.48-.15-1.47,1.63-2.09,22.32-7.71,24.57-46,7.47-60.88l-8.03-4.24c8.07-1.1,15.85,2.98,21.37,8.53Z"/>
      <path class="cls-6" d="M300.3,448.81c.45-3.02,2.02-13.14,5.34-5.86,1.18,4.8-7.73,34.46-6.41,35.73,2.13.03,4.28,0,6.41,0,.7,0,1.44.06,2.14,0,.93.3.92.66,0,1.07-2.15.12-5.47.29-7.48,0-.73-.1-1.52-.01-2.16-.49l-.85-1.95,7.31-32.24c.05-3.15-1.49-1.12-1.87.28-.91,3.33-.92,5.25-2.42,8.79.17-1.71-.24-3.68,0-5.33Z"/>
      <path class="cls-30" d="M324.88,472.28c-6.36,5.82-8.25,6.99-17.1,7.47v-1.07c7.09-.64,10.91-3.26,17.1-6.4Z"/>
      <g>
        <path class="cls-22" d="M281.06,406.13c.65,1.58.34,2.4-1.26,2.57,18.78,16.32,17.56,47.73-.96,64.16l.08,1.55c-8.11,2.19-11.73,2.49-20.3,1.07-40.92-14.14-25.93-86.05,22.44-69.35Z"/>
        <path class="cls-46" d="M256.18,430.83c6.08-1.69,10.97,9.69,4.61,15.33-8.18,7.26-14.19-12.66-4.61-15.33Z"/>
      </g>
    </g>
    <g>
      <path class="cls-29" d="M168.85,399.73c-.34,2.83-1.32,2.71-2.14,0-2.75-.67-16.69-1.27-18.15-.24-.82.58-4.98,7.66-5.97,9.41l-2.59.42c-1.71,2.8-5.64,16.05-3.34,17.36,13.41,1.7,9.41,17.33,4.41,25.31,2.89,1.93,1.38,10.16-2.14,10.67-.4,1.67-2.38,2.04-2.17,6.89.94,21.64,6.95,43.5,10.43,64.34,1.5,8.99,4.67,23.89,2.42,32.26,2.61,1.84.65,6.76-1.95,6.98-5.12,6.62-7.5,7.55-15.15,10.09-7.5-6.72-10.42-4.37-17.02-8.08-8.54-4.8-16.27-30.65-21.71-40.2-1.07-1.88-2.75-4.17-4.02-6.13.74-.31,1.32-.6,1.29-.82-.46-4.22-1.77-14.32-5.57-15.18.04-2.61,2.75-3.45,3.22-5.91.64-3.38-1.22-7.04-1.17-10.62.03-2.22.9-9.45,1.38-11.52.61-2.59,4.03-5.21,4.03-5.56.03-3.39-14.65.04-17.08-2.67l1.17-1.96c6.02,1.84,12.75,2.13,20.21.89,11.38-15.49,13.21-36.49,10.99-54.89l2.76-.4c6.33,3.05,9.72,2.48,10.19-1.7-8.8-19.5,5.53-23.8,20.96-28.36-3.57.13-2.46-3.36.64-4.45,5.91-.88,11.75-1.89,17.52-3.02.9,3.24,1.31,12.23,2.65,13.89,1.03,1.28,3.36.51,5.9,3.18Z"/>
      <path class="cls-17" d="M85.49,512.83c.78-.65,3.57-2.88,4.27-2.13.86,5.89,2.46,11.73,3.17,17.66.34,2.91-2.08,1.28-3.16.47-1.39-2.14-8.49-8.98-8.3-11.21.03-.31,3.55-4.39,4.03-4.79Z"/>
      <path class="cls-34" d="M111.14,550.17c-1.88,2.47-2.96-3.98-3.07-4.92-1.08-8.98-.07-18.43.86-26.64,1.7-14.94,1.4-30.85-1.04-45.74-.19-1.14-3.82-5.28-.47-5.91,1.68-.32,2.8,1.86,3.23,3.16,1.61,4.88,3.38,16.56,3.75,21.87,1.33,19.13-2.54,39.05-3.25,58.19Z"/>
      <path class="cls-39" d="M142.13,390.13c-2.88,3.95-14.68,3.27-19.73,9.64-7.18,9.07-.73,11.53-.51,18.68.35,11.49-10.56.61-12.88,2.62.85,6.45,4.37,11.97,1.84,18.38-3.54,8.99-3.03,16.51-6.45,25.56-1.7,4.49-2.68,8.74-7.15,10.46v-1.07c2.66-5.36,9.62-17.33,9.62-22.94v-29.87c0-4.99,11.33-.02,12.83-1.03,2.69-1.81-2.4-8.81-2.22-12.83.58-12.33,14.87-15.84,24.65-17.62Z"/>
      <path class="cls-26" d="M140,409.33c-.76,5.74-3.73,11.15-3.15,17.02,3.46-.89,5.74,2.61,8.18,3.05,1.51.27,2.99-.99,4.56-.37,4.49,1.79,5.72,12.66,2.15,16.03-2.82,2.66-8.62.16-10.68,6.95,1.18-5.68,4.98-20.07-.48-23.52-1.7-1.08-5.34-.93-5.8-2.69-.19-.73,2.72-13.15,3.33-14.66s1.82-1.67,1.89-1.8Z"/>
    </g>
    <g>
      <path class="cls-42" d="M160.3,382.66c-.06,3.04-.97,2.71-3.37,2.98s-13.78,1.78-14.73,2.47c-.44.32.11,1.78-.07,2.02-14.19,4.18-30.16,8.94-21.1,27.17.48,2.47,0,5.39-3.01,4.89-4.62-2.19-8.34-2.38-11.16-.58.62.06,1.1.15,1.14.33,1.88,9.82.97,19.98-1.14,29.55-.5,7.33-3.96,18-9.62,22.94-1.55,1.89-17.22,2.31-17.94,1.75s-.54-1.89-.29-2.87c14-14.26,11.8-42.5,6.88-60.57-1.62-5.96-3.24-9.8-9.79-9.48-.66-.43-1.2-.88-1.31-1.42-.74-3.78,12.78-2.66,15.22-2.38,3.84.08,7.02-1.23,8.29-5.05,4.32-5.65,1.92-9.05,8.62-14.33,15.67-12.35,45.86-24.42,53.36,2.6Z"/>
      <path class="cls-37" d="M166.71,399.73h2.14c11.98,12.59,9.19,35.32,9.62,51.21l-.86,6.65c1.95,4.3-2.68,18.12-8.75,16.82-.45.39-1.49.71-2.14,1.07-3.08,1.55-14.91,2.84-14.11-1.66,9.57-16.8,11.27-38.57,6.73-57.23-1.61-6.61-3.4-13.55-11.15-13.17-5.47-6.41,14.51-4.41,18.53-3.69Z"/>
      <path class="cls-35" d="M166.71,399.73c-4.78,0-9.66-.21-14.44,0-1.42.06-4.47-.88-3.74,1.59.39,1.33,5.83-1.62,9.15,4.75,9.3,17.89,7.93,52.59-3.8,69.4h12.82c-.75.42-.22,1.76-3.66,2.2-12.93,1.64-21.3-1.86-24.12-14.99.75-3.14,1.44-7.33,2.14-10.67l2.55-6.25c11.19.38,11.08-17.3.22-14.52-1.36-2.99-4.14-4.41-7.29-4.52-2.01-2.01,1.79-14.5,3.45-17.39,6.01-12.29,7.25-10.86,20.85-10.69,1.81.02,4.75-.68,5.86,1.09Z"/>
      <g>
        <path class="cls-16" d="M98.32,394.4c-.6,10.65-16.6,1.8-22.44,6.94,6.69.92,6.69-.9,9.78,5.15,7.6,14.86,8.22,47.81.06,62.28-1.49,2.64-4.09,4.12-5.57,6.7,5.7-.21,11.6.79,17.1-1.06.8.31.79.67,0,1.07-3.25,1.25-18.13,1.9-21.37,1.07-1.68-.43-4.81-4.8-5.75-6.53-7.88-14.51-7.83-49.43-.35-64.1,1.58-3.1,4.09-6.53,7.75-7.2,8.3-1.51,14.8,3.51,20.79-4.32Z"/>
        <path class="cls-36" d="M76.61,429.72c6.81-1.7,7.37,15.93.87,15.92-5.34,0-5.24-14.83-.87-15.92Z"/>
      </g>
    </g>
  </g>
  <g>
    <path class="cls-21" d="M816.47,561.91c11.05,5.3,22.19,13.88,33.65,18.15,20.57,7.66,45.53,11.34,66.78,18.68,16.47,5.69,31.42,14.42,47.04,21.85l4.97,3.47c-4.62,12.31-8.66,24.78-11.5,37.62l-3.09,3.72c-.34,5.61-1.47,10.99-3.02,16.38-.7,2.42-4.38,1.96-3.39-.37-6.98-1.6-14.2-2.34-21.32-2.76-2.84.77-4.28-1.15-4.33-5.78-.5.63-1.11,1.35-1.86,1.33-6.79-.17-23.94-2.74-30.81-4.24l-1.53-2.43c.58-2.08,2.63-2.8,6.16-2.18-16.47-29.15-42.84-49.27-69.58-68.41l-3.38-3.85c-.85-8.1-4.27-.5-3.17,1.19,21.72,17.21,39.98,38.44,55.69,61.99.52.78.78,1.75,1.03,2.76s.36,2.09.43,3.17c-.31.77-.67.75-1.07,0-1.54.44-3.24-.19-5.09-1.87-17.94-.98-34.05,12.21-44.36,25.93l-2.91.48c-1.49,2.91.04,5.47,4.59,7.66-.97,5.19-24.29-8.77-26.33-10.19-3.07-2.14-9.36-8-9.25-11.34-5.43,1.07-12.53-3.37-17.2-6.37-7.65-4.91-27.77-24.59-31.15-32.69-2.63-9.98-5.88-19.62-9.75-28.9l2.53-1.4c21.04-18.36,47.06-31.75,73.76-40.34,2.09-3.49,4.58-3.91,7.46-1.27Z"/>
    <path class="cls-40" d="M774.79,504.29c4.73,9.14,22.5,40.5,28.38,46.88,2.84,3.08,6.94,4.75,10.09,7.53-2.02,2.97-4.46,5.3-9.3,5.81-25.3,10.13-48.82,22.85-70.58,38.16-5.15-1.69-9.43-5.26-12.84-10.72l-7.48-7.12c-25.16-19.17-46.99-41.72-62.16-69.93-1.11-2.07-1.05-5.68,2.06-5.28l1.31-.68c33.2,18.96,48.41-13.25,41.43-42.73l1.09-1.42c6.03,6.82,39.86,36.35,48.56,30.39,10.65-7.29-11.87-31.77-18.76-35.82,27.62-1.2,45.58,17.98,48.2,44.92Z"/>
    <path class="cls-9" d="M874.18,662.2c3.98,4.54,7.77,10.51,4.89,16.21.17,4.72-.39,8.92-1.69,12.6,1.01,5.53,1.99,14.8-3.21,18.14,2.81,1.5.89,8.34-2.14,8.54,1.54,6.52,1.78,13.44.72,20.77.78,4.71.54,8.82-.72,12.31,1.06,4.64-.43,27.66-2.62,29.77-.48.46-1.05.83-1.65,1.17,2.87,2.4,1.4,10.5-2.14,11.74l.5,2.14c-6.99,28.51-4.2,51.9,5.8,79.05.51,1.4.7,2.72.11,4.17l2.72.51c3.27,7.7,8.16,13.65,14.69,17.86l-.31,2.96c.15.25,0,1.89.57,3.12.45.98,2.06,1.7,2.46,2.99,1.26,4.08-1.38,8.32-5.65,8.89-13.32,1.78-36,1.04-43.77-11.88-13.82-22.98-7.86-50.89-10.25-76.19-1.33-14.01-5.26-27.34-7.48-41.08-3.49-1.39-5.28-10.53-2.14-12.8-3.27.19-4.2-6.9-1.07-8-.84-.22-2.08-.59-2.14-1.24-.5-6.18-1.08-28.36,0-33.47l2.14-1.56c-.82-.17-1.9-.52-1.95-1.19-.15-2.13,3.11-14.85,6.22-14.28l-.83-2.36c3.57-4.76,6.08-11.47,6.17-16.85-3.24,2.62-12.59-2.78-9.62-7.47,7.61-11.66,22.34-24.15,36.1-27.44,6.11-1.46,12.82-3.39,16.27,2.91Z"/>
    <path class="cls-29" d="M765.17,262.1c.95-4.55,2.37-8.28,4.27-11.2-.56-.15-1-.31-1-.48-.13-4.49.24-10.76.53-15.37.01-.24.22-.46.47-.68,1.54-2.6,15.53,5.09,16.05,6.03,1.13,2.03.51,13.23-2.64,14.93-2.63,8.74-4.8,16.95-3.3,26.13,2.52.43,3.42,1.1,2.71,1.99,0,.13-1.19.74-1,2.47,1.72,16.39,6.45,32.75,7.41,49.29.79,13.64-.81,28.03-.03,41.64,1.15,20.2,6.42,36.1.6,57.06-2.15,7.75-7.89,18.29-9.04,26.18-1.61,11.01,2.03,25.06-2.42,36.03-.73,1.81-3.63,1.33-2.99,3.92-3-9.67-6.91-18.92-11.76-27.74l-.81-2.27c3.07-4.67,3-13.07-.18-2.58l-2.22,1.64-1.16.55c-7.81-4.86-15.98-8.6-24.49-11.22l-.81-2.4c4.16-11.56,9.05-22.81,14.67-33.75l2.33-26.42c6.33-23.46,6.97-44.25,3.99-68.17l7.76-43.68c.67-5.18,1.2-10.44-.15-15.49-2.93-.25-2.77-1.25,0-2.13.76-2.15,1.83-3.58,3.21-4.27Z"/>
    <path class="cls-22" d="M625.18,510.69c2.16-5.77,10.05-7.79,11.93-1.28,42.67,54.14,85.98,107.98,129.58,161.52,1.84,2.26,19.76,2.01,24.13,1.93,4.59,2.81,5.74,5.68,9.71,8.98,5.61,4.65,11.86,6.7,18.02,9.8,1.25.63,1.42,4.27,6.47,2.55-2.71-3.04-6.94-1.73-3.21-7.46-1.73,6.04,5.74,5.22,9.62,7.47.61,3.09-1.68,2.29-3.69,2.12-19.18-1.65-38.28-5.12-57.48-6.66-5.98-1.04-3.68-6.95-4.02-11.46-3.83-.94-8.76,7.78-11.07,7.38-7.88-8.07-14.53-17.15-22.06-25.53-2.52,1.48-3.21.56-2.14-2.13l-28.85-36.28-81.8-103.55c-.82-2.4,3.13-5.68,4.86-7.41Z"/>
    <path class="cls-25" d="M642.27,504.29c6.18-2.87,8.43,6.51,8.98,11.23,16.11,28.96,38.5,51.89,65.03,72.25l11.82,12.75c2.29,1.47,4.67,2.46,7.15,2.98-1.87,4.2,2.73,7.83,4.05,11.42,2.21,6,3.18,14.16,5.87,19.74,3.07,6.35,23.39,25.44,29.7,30.1,4.93,3.64,10.94,5.03,15.94,8.09-3.67,4.4-12.88,1.66-17.76,1.2-3.55-.34-3.8,2.03-7.94-1.69-28.38-35.63-57.45-70.71-85.88-106.3-14.62-18.3-29.28-36.97-43.88-55.44-.89-1.12-1.43-3.8-1.8-4.04-3.52-2.19-6.1,1.81-8.38,4.09.29-2.21,1.64-3.89,3.21-5.33,4.44-1.52,9.36-2.49,13.89-1.07Z"/>
    <path class="cls-43" d="M657.24,367.72c1.41-.63,8.82-2.93,9.62-2.14,0,1.91.18,3.87-.09,5.78-1.36,9.66-5.34,16.81-9.26,24.89-2.49,5.13-3.05,11.13-5.61,16.27l.55,1.22c-4.06,4.76-6.71,10.06-7.94,15.89-4.75,2.63-12.43-16.79-13.32-20.91-1.44-6.67-1.43-11.63,3.76-16.4.26-3.61,1.28-6.84,3.05-9.68,2.91-2.99,15.77-13.39,19.24-14.94Z"/>
    <path class="cls-38" d="M985.32,868.11c-8.75,1.36-34.35,3.33-36.27-8.06-2.54-15.07,9.93-25.38,9.55-38.88.95-1.51,1.31-2.85,3.54-2,4.35,1.66,20.09,36.11,22.67,42.51.93,2.3.04,5,.5,6.43Z"/>
    <path class="cls-4" d="M1010.97,875.58c-.78-10.62-9.02-19.14-8.55-29.87,10.76,11.02,18.78,12.04,31.05,18.61,3.34,1.78,6.14,5.14,9.17,6.85,1.81,1.03,6.33,1.2,6.79,2.85-.48,6.57-7.1,6.39-12.2,5.73-8.4-1.08-17.67-3.61-26.26-4.18Z"/>
    <path class="cls-40" d="M652.96,509.63l-1.34,5.04c12.38,17.49,23.78,37.63,40.36,51.48,10.45,8.73,19.93,14.19,29.91,24.55,2.67,2.77,5.65,9.39,9.85,10.51,5.33,1.43,17.43-10.43,22.38-13.52,14.21-8.85,33.69-18.48,49.51-24.19,1.69-.61,4.21-.25,5.4-1.04,1.49-.99-.31-5.01,4.21-3.77,1.03.91,1.84,2.47,3.21,3.2-5.45-1.5-4.1.76-7.24,1.84-27.26,9.46-51.01,22.38-73.98,39.77-4.83,2.45-9.64-3.53-12.83-6.93-17.33-18.55-38.43-32.25-53.9-52.88-7.22-9.63-19.07-26.68-22.01-37.77-.82-3.11-1.76-1.28-4.24-1.64.1,0-.2-.97,1.64-1.1,5.68-.38,5.99,4.13,9.05,6.43Z"/>
    <path class="cls-14" d="M765.17,262.1c1.91-9.58,4.15-18.93,3.2-28.81,6.09-2.05,8.18,2.62,11.7,3.8,2.07.69,4.54.1,6.47,1.01,3.94,1.85,4.28,11.26,1.58,14.38-1.4,1.61-4.07,1.42-4.78,2.96-.3.64-2.98,12.35-3.16,13.66-.52,3.89.23,8.26-.06,12.21l21.38,1.06c-5.98,2.19-12.82.62-19.24,1.07.07-1.37-2.93-.46-3.28-1.72-.16-.55-.9-8.33-.88-9.36.1-5.18,4.46-15.78,5.17-21.52.27-2.15.52-8.65.1-10.43-.18-.76-12.02-7.47-13.94-6.05v16.54c0,.81-3.44,9.84-4.27,11.2Z"/>
    <path class="cls-20" d="M875.25,662.2c-12.85-18.92-26.12-36.98-42.73-52.83-2.52-2.4-15.92-12.87-16.62-14.42-1.39-3.06,3.48-10.51,5.9-8.51.22.18.5,3.99,1.33,5.62,2.4,4.72,25.28,19.33,31.25,24.28,7.26,6.02,15.73,13.73,21.91,20.8,3.76,4.3,18.83,23.73,20.11,27.93.26.84.3,1.59.21,2.44h-8.54c-3.86,4.02-13.12.87-12.82-5.33Z"/>
    <g>
      <path class="cls-29" d="M657.24,206.62c2.62,5.41,2.51,14.82,10.69,7.47,1.35,3,3.3,3.99,6.68,4.29,17.85,3.89,13.58,16.65,8.76,28.98-1.36,6.72-3.9,21.79,4.87,23.28.91,1.42.74,2.4-.81,2.86,12.63,37.89,17.36,79.27,14.9,118.7l2.15,7.94c7.76,14.36,11.24,29.04,10.45,44.02-6.42,9.45-.67,11.92,8.57,12.1l1.07,2.16c1.98.26,2.99.9,3.01,1.92,7.32,3.98,28.69,29.5,17.29,35.11-9.61,4.73-42.65-24.17-48.72-31.55,1.67,21.21,3.55,50.85-26.23,50.32-6.4-.11-11.11-1.92-16.19-5.69-.92-.68-7.78-7.17-7.63-7.7.72-2.51,2.75,1.01-.62.26-.05-1.06.07-2.14,0-3.2l.61-2.04c-6.36-17.64-7.3-34.96-2.8-51.96-.43-11.51,1.32-20.78,9.17-30.18l-.57-1.17c-.91-3.64-.29-7.8,1.86-12.47,1.69-3.35,14.04-31.03,10.97-32.32-3.36,1.56-5.86,1.55-7.48-.02,1.3-2.95,7.85-2.88,8.48-4.92.56-1.81-6.02-24.73-6.12-30.82-.29-17.99,10.23-62.59-1.89-76.22-.39-.44-1.02-1.53-1.52-1.13.06,2.96-1.7,3.76-3.22,5.33l-.59-3.59c6.91-14.6,6.54-30.93,3.37-46.46l1.5-3.3Z"/>
      <path class="cls-40" d="M734.18,458.41c7.02.97,19.88,6.3,25.65,10.67,2.51-1.89,4.79.52,3.21,3.2,5.86,6.24,10.32,19.34,11.76,27.74.22,1.28-.15,2.91,0,4.27-4.5-8.7-4.24-18.56-9.79-27.04-5.47-8.37-26.9-18.96-37.23-17.76,10.25,8.46,23.11,18.43,20.27,33.57-1.5,8-13.37,1.78-17.61-.5-12.01-6.45-24.16-16.97-33.65-26.68,2.41,15.12,2.28,38.92-13.15,47.17-8.01,4.28-23.4,2.06-30.68-3.42l-2.6.5c-2.03-5.21-4.73-7.15-8.09-5.83-.27-.29.73-.29,1.73-1.29s1-1,1.48-1.91c.33-.62,1.07-1.38,1.09-2.12,1-.7,1.59,2.08,2.6,3.22,3.26,3.67,9.32,9.41,14.18,10.4,6.33,1.28,16.9.97,22.19-2.97,11.07-8.23,11.25-26.51,10.17-38.94-.16-1.8-4.08-11.37-.54-11.17.83.05,8.22,10.46,10.66,12.81,10.05,9.69,53.3,42.42,37.12,4.55l-18.39-18.45c1.38-3.13,9.2-3.83,9.62,0Z"/>
      <path class="cls-41" d="M638,382.66c-1.91,3.04-1.52,8.1-2.69,10.65-.74,1.62-3.15,1.99-3.7,4.84-1.83,9.54,3.41,21.61,9.29,29.03.68.86-.04,1.96,2.44,1.35-.29-6.59,4.97-11.25,8.56-16.01.96-1.27,2.9-2.19,3.68-4.33,1.79-4.88,1-11.33,6.47-14.87.8-.16.68,1.03.55,1.61-3.01,12.69-15.65,26.81-17.02,36.36-1.33,9.3-.4,12.44-3.01,22.61-2.56,9.99-1.09,21.59,1.03,31.46.77,3.6,5.86,10.48,1.89,12.52-1-14.15-8.74-27.95-6.35-44.21.49-3.31,2.84-6.59,3.14-10.76.21-2.89-1.05-6.87-.77-8.35.19-1.03,1.78-1.92,1.88-3.33.04-.58-2.16-1.05-3.1-2.27-5.86-7.61-13.78-23.29-9.49-32.69.91-1.99,2.91-2.82,3.45-4.03,1.83-4.11-.8-4.9,3.76-9.59Z"/>
      <path class="cls-3" d="M671.13,206.62l-2.14,9.6c4.9-1.11,6.65,1.6,9.44,3.08.94.5,2.55.16,3.98,1.13,5.79,3.95,11.16,9.66,8.56,17.2-1.26,3.68-4.51,2.8-5.45,4.16-.33.48-2.4,10.04-2.54,11.33-.37,3.32-.7,15.27,3.12,16.45,5.45-1.44,11.26-2.17,17.41-2.2,2.16-1.68,4.19-2.37,6.1-2.07h1.07c4.48,2.93-1.76,5.94-5.35,7.16-3.25,1.1-15.02,1.05-17.09-1.82-8.28,1.86-6.93-14.68-6.33-19.65.93-7.67,8.56-26.01-1.97-30.21-5.83-2.32-12.25,1.66-12.01-6.68.12-4.15,1.62-4.64,3.21-7.47Z"/>
      <path class="cls-10" d="M685.01,440.28c.25.19,1.99,5.18,2.09,5.93.93,6.62-4.24,14.85-4.22,21.82h-3.2c1.32-7.55.22-19,2.32-25.96.38-1.26,2.08-2.48,3-1.79Z"/>
    </g>
    <path class="cls-23" d="M763.03,472.28c-.5-.53-2.95-3.01-3.21-3.2-.29-3.5,2.18-6.33,2.96-9.31.93-3.55-1.27-8.11,3.44-9.89-.91,7.47,2.65,16.74-3.2,22.41Z"/>
    <g>
      <path class="cls-35" d="M810.06,216.22l-2.59.34c-1.33-3.7-15.99-7.6-11.22-2.99,10.74,19.31,12.66,48.05-2.36,65.59,4.38-.81,7.27-.1,8.7,2.14-.38.21-.72.94-1.07,1.07-2.89.51-20.74.62-21.83-.68-2.8-3.36,1.88-24.91,4.45-29.28,4.59-1.18,4.36-8.13,2.39-11.56-.48-.84-15.74-8.67-17.25-7.14.4,9.78-.97,19.25-4.09,28.4-.92,1.5-1.61,3.32-3.21,4.27l-1.93-1.52c5.07-12.69,7.61-27.44,2.72-40.42l2.42-1.8c.32.91,1.5,6.15,3.19,4.27.46-.51,2.4-9.3,4.92-12.71,5.69-7.7,20.64-8.43,29.12-5.79,4.58,1.42,5.58,4.48,7.65,7.83Z"/>
      <path class="cls-19" d="M711.74,202.35l-2.52.17c-3.29-4-8.78-4.87-13.69-4.6,12.25,14.71,12.52,39.75,6.99,57.4-3.46,11.04-5.97,12.95-16.42,14.24-6.67-2.91-3.81-24.45-.49-30.19,10.6-5.44-2.9-21.45-12-21.13-5.82-.17-6.64-4.05-2.46-11.63,3.01-5.39,5.62-10.69,12.39-11.64,3.97-.56,17.4-.7,21.05.13,4.5,1.02,5.28,4.45,7.17,7.24Z"/>
      <path class="cls-33" d="M645.48,192.75c6.36,3.37,8.63,7.41,11.76,13.87,3.99,18.31,4.75,36.43-4.27,53.35-1,1.04-5.43,4.97-6.41,5.33-1.92.72-12.3,2.15-12.83-.56-.13-.68,5.32-8.63,6.26-10.8,6.12-14.08,6.44-38.44-1.1-51.94-2.15-3.85-5.52-8.97-10.5-8.2-.14-2.49-.35-1.88,1.59-2.13,4.68-.59,10.95-.13,15.51,1.07Z"/>
      <path class="cls-13" d="M810.06,216.22c9.86,15.93,10.78,49.93-4.23,63.57-1.3,1.18-2.32,1-3.25,1.51h-12.28s-9.09-2.12-9.09-2.12c6.23.35,10.12.71,13.9-4.8,10.61-15.5,8.86-41.79.42-58.04-1.67-3.22-4.39-3.55-4.69-6.51,9.11-.8,13.15-.44,19.23,6.4Z"/>
      <path class="cls-33" d="M761.97,214.09c2.39,3.55,1.97,4.97,3.21,8.54-1.22,4.05,1.73,6.76,2.19,10.08.9,6.41-1.01,18.89-2.44,25.41-.57,2.61-2.74,5.14-2.96,8.25-.04.59-.11,1.97,0,2.13,2.34,2.62-2.71,7.61-5.34,5.33-5.96,2.47-14.47,2.95-20.86,2.14-1.56-.2-3.31-.81-1.58-2.13,6.63.67,8.85.32,12.19-5.44,7.87-13.58,7.35-36.77,2.46-51.35-1.89-5.64-5.78-7.49-8.25-12.56,10.21-1.43,15.79,1.31,21.37,9.59Z"/>
      <g>
        <path class="cls-35" d="M645.48,192.75c-2.46,1.59-5.84,1.86-10.15.82,15.79,18.52,14.81,50.83,1.21,70.28.02.79,7.3.06,8.43-.33l1.59,1.78c-6.9,3.41-22.98,3.89-28.9-1.55-14.82-13.63-14.77-55.86,0-69.45,4.87-4.48,18.99-4.8,25.19-3.67,2.23.41,2.29,1.93,2.65,2.12Z"/>
        <path class="cls-1" d="M619.5,221.66c6.95-1.8,7.99,15.82-.15,16.96-4.97-2.92-5.29-15.55.15-16.96Z"/>
      </g>
      <path class="cls-28" d="M711.74,202.35c3.04,4.58,3.13,11.9,4.49,16.32,1.08,3.52,3.47,4.1,3.65,10.71.34,13.04-2.41,25.43-10.28,35.92-1.36,1.81-3.63,3.81-5.94,4.2-2.11.36-16.11.52-17.58.06.09-4.39,4.87-.44,8.59-3.7,1.69-1.48,4.94-8.81,5.82-11.26,4.71-13.01,4.28-36.58-2.08-49.1l-6.98-9.55c7.47-.59,15.74-.49,20.3,6.4Z"/>
      <g>
        <path class="cls-35" d="M761.97,214.09l-2.77-.22c-3.3-4.95-8.86-8.31-14.92-7.46,13.5,14.94,12.76,44.54,4.52,62.03-5.91,6.03-4.09,7.36,5.46,4l2.36,1.4c1.66,2.2.97,2.81-1.1,4.05-2.37,1.43-10.83,1.52-13.98,1.55-16.13.14-19.8-3.85-25.13-18.9-1.41,3.15-3.33,4.73-5.75,4.76-.3.93-.66.92-1.07,0l-.17-3.46c7.23-11.98,12.32-29.89,4.77-42.51l-2.2-10.71c-1.4-2.61-1.49-4.7-.26-6.27.33.48,1.55.78,2.36,2.41.99,2.01,3.75,12.53,4.59,12.51,4.72-7.02,7.59-13.8,17.07-14.94,10.66-1.29,22.87-.08,26.21,11.76Z"/>
        <path class="cls-24" d="M727.41,233.4c5.38-1.72,7.83,6.02,6.19,10.51-5.65,15.44-13.91-8.05-6.19-10.51Z"/>
      </g>
    </g>
  </g>
</svg>