<?xml version="1.0" encoding="UTF-8"?>
<svg id="Layer_1" data-name="Layer 1" xmlns="http://www.w3.org/2000/svg" xmlns:xlink="http://www.w3.org/1999/xlink" viewBox="0 0 1080 1080">
  <defs>
    <style>
      .cls-1 {
        fill: #eed3c8;
      }

      .cls-2 {
        fill: #909497;
      }

      .cls-3 {
        fill: #a8adb3;
      }

      .cls-4 {
        fill: #dadada;
      }

      .cls-5 {
        fill: #d9d9d8;
      }

      .cls-6 {
        fill: url(#linear-gradient-2);
      }

      .cls-7 {
        fill: #f0d4c9;
      }

      .cls-8 {
        fill: #efd5c9;
      }

      .cls-9 {
        fill: #eab09a;
      }

      .cls-10 {
        fill: #ecd3ca;
      }

      .cls-11 {
        fill: #d8d7d7;
      }

      .cls-12 {
        fill: #d5beb7;
      }

      .cls-13 {
        fill: #a58980;
      }

      .cls-14 {
        fill: #e9b6a4;
      }

      .cls-15 {
        fill: #fbc4b0;
      }

      .cls-16 {
        fill: #e0e0e0;
      }

      .cls-17 {
        fill: #afb2b5;
      }

      .cls-18 {
        fill: #656565;
      }

      .cls-19 {
        fill: #ecd2c9;
      }

      .cls-20 {
        fill: #f7dbd3;
      }

      .cls-21 {
        fill: #447c98;
      }

      .cls-22 {
        fill: #f0d5ca;
      }

      .cls-23 {
        fill: #a78b81;
      }

      .cls-24 {
        fill: #fac5b0;
      }

      .cls-25 {
        fill: #b8b9bb;
      }

      .cls-26 {
        fill: #b0b0b2;
      }

      .cls-27 {
        fill: #eab19b;
      }

      .cls-28 {
        fill: #989798;
      }

      .cls-29 {
        fill: #767676;
      }

      .cls-30 {
        fill: #172029;
      }

      .cls-31 {
        fill: #fac4b0;
      }

      .cls-32 {
        fill: #d7d7d6;
      }

      .cls-33 {
        fill: #e8b19a;
      }

      .cls-34 {
        fill: #a1a5a9;
      }

      .cls-35 {
        fill: #dcdcdc;
      }

      .cls-36 {
        fill: #f2b9a5;
      }

      .cls-37 {
        fill: #1f2a31;
      }

      .cls-38 {
        fill: #d6d6d6;
      }

      .cls-39 {
        fill: #d84140;
      }

      .cls-40 {
        fill: #97999c;
      }

      .cls-41 {
        fill: #bc9e94;
      }

      .cls-42 {
        fill: #9a9a99;
      }

      .cls-43 {
        fill: #e9b49e;
      }

      .cls-44 {
        fill: #9c9a9a;
      }

      .cls-45 {
        fill: url(#linear-gradient);
      }

      .cls-46 {
        fill: #427e99;
      }

      .cls-47 {
        fill: #b7b7b7;
      }

      .cls-48 {
        fill: #e7b19b;
      }

      .cls-49 {
        fill: #1f2a30;
      }

      .cls-50 {
        fill: #c8ada2;
      }
    </style>
    <linearGradient id="linear-gradient" x1="937.28" y1="189.92" x2="817.72" y2="386.4" gradientTransform="translate(202 40) scale(.59)" gradientUnits="userSpaceOnUse">
      <stop offset="0" stop-color="#efb197"/>
      <stop offset=".95" stop-color="#f7c4b2"/>
      <stop offset="1" stop-color="#eecfc4"/>
    </linearGradient>
    <linearGradient id="linear-gradient-2" x1="831.98" y1="151.16" x2="678.6" y2="463.54" gradientTransform="translate(163 486) scale(.71)" gradientUnits="userSpaceOnUse">
      <stop offset="0" stop-color="#d9baae"/>
      <stop offset=".03" stop-color="#e9b49e"/>
      <stop offset=".13" stop-color="#eab19b"/>
      <stop offset=".39" stop-color="#eab19b"/>
      <stop offset=".62" stop-color="#fac4b2"/>
      <stop offset="1" stop-color="#f1c4b3"/>
    </linearGradient>
  </defs>
  <g>
    <path class="cls-16" d="M757.3,224.03c23.1.61,46.31-.44,69.43-.01,3.87.7,6.36,2.75,7.62,6.44.47,17.49.32,35,.31,52.5,0,4.32-.05,8.53-.05,12.84,0,5.14,1.14,16.64.36,20.82-.15.81-1.71,4.2-2.36,4.73-.31.25-4.87,2.21-5.33,2.29-7.9,1.43-19.75-.98-28.11,0-.59.07-2.02.27-2.02.91v11.72c0,2.51-7.38.81-8.5.83-3.26.06-6.8,1.18-10.25.64v26.08c0,.71,2.04,3.08,3.19,2.67l50.89.65c2.66.9,2.51,14.47,2.18,17.23-.26,2.21-2.35,2.96-4.41,3.2-7.44.89-15.44-.57-22.83-.63-7.98-.07-16.82-.16-24.64.6-.55.05-4.39-.89-4.39.89v25.2c0,1.06,4.57,1.99,5.54,2.08,13.28,1.18,29.92.21,43.35-.05,2.51-.05,14.87-.38,15.85.59,1.74,1.73.29,3.29.28,4.12-1.02-.56-2.1-1.09-3.25-1.59l-59.81-.17c-1.86.1-2.86-1.59-2.55-3.22-.81-8.95-.92-19.05,0-28.13-.25-.58.25-1.17.88-.88l.1-.52c17.24.47,34.95.73,52.21-.1l.4.62-.16-.63c3.73-1.16,2.25-14.22-.28-15.34l-45.99.24c-5.97.54-7.38-2.08-7.64-7.62-.03-8.44.13-16.87.46-25.3.46-.73.42-.98,1.46-1.16,4.24-.73,10.25.54,14.68.02.59-.07,2.02-.27,2.02-.91v-11.72c0-.06.82-.88.88-.88h29.87c.31,0,5.36-2.32,5.6-2.6,4.06-4.71-.71-21.42,1.67-27.64-2.7-19.15,1.8-42.1-.51-60.9-.56-4.55-3.7-6.62-7.9-7.33-22.75.02-45.51.02-68.26.02-.51-.17-.5-.36,0-.59Z"/>
    <path class="cls-39" d="M743.83,153.7c-1.04,16.14-5.23,36.42-14.98,49.78-3.51,4.81-8.68,9.01-12.55,13.52-.17.51-.36.5-.59,0-1.7.38-1.61.14-.59-1.17.03-.73.61-1.51,1.76-2.34-.23-2.05,3.78-6.25,5.86-5.86.96-1.54,2.13-2.91,3.51-4.1l.42-2.58c7.03-10.14,10.93-22.02,13.24-34.05l1.57-2.05c-1.65-.97-1.31-5.32.59-5.86.06-.8.53-5.68.88-5.82.26-.1.56-.09.88-.04v.59Z"/>
    <path class="cls-39" d="M662.99,239.85c.19,0,.4-.02.59,0-1.5,1.3-3.28,2.54-5.05,3.44-20.55,10.47-41.45,18.67-62.9,26.45-.51-.17-.5-.36,0-.59.19-.51.39-.51.59,0l.18-1.31c1.37-.79,10.39-4.87,10.89-4.54.24.16.45.36.65.57,16.53-6.86,32.93-14.28,49.2-22.27-.66-1.71,2.25-2.4,3.51-1.76,1.14-.77,1.92-.77,2.34,0Z"/>
    <path class="cls-26" d="M298.07,375.82c.03,2.22-1.37,5.74-.06,7.39.96,1.2,2.86.61,4.17,1.1,4.71,1.75,8.56,4.1,9.32,9.43.29,2.03.14,11.56-1.13,12.86-1.09,1.12-3.86.65-4.85,2.77-1.81,3.91,1.93,10.36-3.22,12.6-2.42,1.05-10.35,1.79-13.29,1.94-11.11.56-21.6-.03-26.68-11.16.4-.4.76-.49,1.07-.11,6.8,8.25,8.51,9.31,19.71,9.68,6.62.22,14.03-.33,20.23-2.54-.52-.73-.23-1.02.59-.59l.3-3.32c-1.68-4.34-1.99-9.34,4.38-9.57-.61-1.44,0-1.61,1.17-.59,1.28-9.44.96-19.26-10.85-20.32-4.6-1.67-2.77-7.47-1.45-10.74-.56-.67-.56-1.06,0-1.17.71,1.06.57,1.15.59,2.34Z"/>
    <path class="cls-3" d="M595.63,269.15v.59c-3.99,1.44-8.78,4.05-12.17,5.24-4.27,1.5-15.56,5.5-19.46,5.9-.77.08-1.57-.05-2.34,0,9.36-4.72,19.71-8.01,29.8-11.16.79-.25,1.6-.42,2.42-.56.97-1.34,1.56-1.34,1.76,0Z"/>
    <g>
      <path class="cls-17" d="M555.8,185.35c3.32-.39,7.64-.7,10.54.59-.18.25-.38.24-.59,0l-.42.82c-1.65-.82-3.68-.76-5.44-.23-7.4.23-14.9.66-22.26,1.17l-.54.86c-14.67,2.8-29.13,10.8-37.08,23.72-2.4,6.64-6.77,11.38-12.56,15.25-14.64,9.77-28.9,21.21-42.72,32.7-.77.64-1.84,4.39-2.13,5.53-9.85,7-10.23,12.8-7.41,24.1,1.72,6.92,7.09,25.5,14.82,26.97,4.38.83,14.01-1.88,18.39-3.28,29.27-9.39,58.2-19.32,86.52-31.4,1.63-.47,3.29-.69,4.98-.66.67-.71,1.26-.91,1.76-.59.9-.33,1.68-.33,2.34,0-7.32,3.27-14.63,6.88-22.09,9.84-24.16,9.56-54.06,20.67-79.11,26.93-4.2,1.05-12.96,3.68-16.53,1.33-5.57-3.66-12.52-22.55-13.92-29.17-.23-1.09.03-2.23-.14-3.07l-.93-8.51c-1.37-2.16-.84-4.32.93-6.14l-.04-1.44,5.31-3.84c3.64-3.64,4.29-6.69,7.93-9.95,5.42-4.86,12.83-10.03,18.73-14.66,7.99-6.27,16.25-12.76,24.68-18.68,7.55-5.3,4.74-5.11,8.97-12.13,12.23-20.31,35.88-25.83,58.02-26.05Z"/>
      <path class="cls-22" d="M437.48,266.81c-1.35,1.35-3.99,4.28-5.27,5.27-2.4,5.03-10.08,5.75-15.23,6.21-23.24-1.88-43.66,7.85-62.77,20.91l-20.72,13.64c-.84.32-1.71.4-2.61.26-1.42,1.92-3.64,2.82-5.86,3.52-.27.52-.56,1.02-.91,1.48s-.68.87-1.11,1.14c-8.85,5.69-18.32,10.79-27.44,15.55-1.46.31-2.7.55-2.76-1.17-.86.73-1.82-.98-1.76-1.76-.51-.17-.5-.36,0-.59,1.34.24,2.93.78,4.24.47,1.79-.43,11.58-6.74,14.1-8.21,18.28-10.61,36.13-23.49,54.35-34.12,17.94-10.46,36.69-14.94,57.52-14.54l16.24-8.07Z"/>
      <path class="cls-10" d="M760.23,104.47c1.52,3.74-9.54,7.82-12.78,8.75-7.25,2.08-23.67,4.28-30.84,2.5-7.6-4.17-15.83-3.89-23.84-.64l-1.66-.65c-1.2,1.85-3.19,3.03-5.97,3.55-6.02,2.8-11.1,5.82-16.75,9.2-.62.37-1.17.53-1.88.15-10.68,5.72-21.4,11.55-29.29,21.1-.32,1.68-.91,2.26-1.76,1.76.21-4.19,2.7-7.19,5.65-9.88,8.3-7.55,15.92-9.98,25.23-14.61,16.31-8.09,24.29-18.74,44.81-15.21,12.02,2.07,12.58,3.64,25.5,1.16,6.57-1.26,18.59-2.97,22.32-9.32,2.24-3.81,2.1-5.47,5.36-9.59l.6.68c-2.26,3.53-3.83,7.21-4.7,11.04Z"/>
      <path class="cls-39" d="M637.22,150.18c.61.8.02,1.78-1.76,2.93.55,1.97-2.39,3-4.1,2.93l-.59,1.89c-16.95,13.68-40.75,28.64-62.89,29.29l-1.54-1.29c-3.63-.37-6.7-.62-10.54-.59.61-.97,2.22-.58,3.21-.6,13.55-.17,17.85.95,30.22-4.92,16.48-7.83,32.53-17.77,46.23-29.64.67-.58,1.17-1.24,1.76-1.76,1.24.07,1.24.65,0,1.76Z"/>
      <path class="cls-39" d="M302.17,419.77c.68-.96,1.07-.96,1.17,0-1.46,1.35-3.59,2.12-5.56,2.35-7.84.9-22.51,1.85-28.97-2.66l-6.47-6.72c-.7-1.53-2.15-4.95-2.34-6.45-.45-3.45.12-8.06,0-11.72.17-.51.36-.5.59,0l1.23.97c.43,9.21,2.53,22.17,13.31,24.4,8.4,1.74,16.52.84,24.88-.85.8-.1,1.53.22,2.18.68Z"/>
      <path class="cls-12" d="M666.51,127.32c-7.3,4.86-13.97,11.03-21.14,16.07-2.75,1.93-5.27,2.51-8.15,5.03,2.89-7.21,14.63-14.61,21.54-18l7.74-3.09Z"/>
      <path class="cls-39" d="M288.69,331.86c5.33,2.25,1,4.29-.25,6.49-.79,1.39-.64,3.1-1.48,4.38-2,3.04-6.44,1.98-8.23,7.3-5.05,9.8,3.11,28.66,15.82,25.2.67,1.25-.22,4.67-.74,6.25-2.68,3.51-4.02,12.91-.07,15.48l6.28,2.5c3.2,1.17,3.41,3.59,3.54,6.56,2.4-1.4,4.08-1.31,5.05.28-.63.89-2,.44-2.92.89-2.57,1.25-.1,9.07-1.76,12.01-.59-.92-1-2.01-1.24-3.26-7.8,4.55-19.69,4.26-28.2,1.42-5.39-1.8-8.95-9.97-9.28-15.2.94-11.21-.81-21.27-4.66-31.97-1-4.16-3.52-15.93-1.58-19.81,1.44-2.89,10.42-8.2,13.9-6.28,1.75-1.25,3.77-1.08,6.05.53,4.33-1.21,6.72-3.14,7.71-7.61,3.15-2.38,2.22-3.51-2.79-3.4-5.38-2.23-9.32-2.22-14.27,1.04-1.94.55-4.77-.24-3.13-2.2,2.53.91,4.19-1.22,5.72-1.6,4.5-1.11,12.29-.78,16.54,1.01Z"/>
      <path class="cls-39" d="M294.55,375.23c2.31-2.6,2.78-.55,1.42,6.15-.03,2.04,1.25,3.4,3.1,4.06,11.74,1.02,11.94,11,10.71,20.27-.4.1-.83.52-1.17.59-.88.17-2.04-.22-3.09.12-1.32.42-2.13,3.11-3.09-.09-.46-1.51.17-3.16-.85-4.42-1.97-2.43-9.93-2.87-11-6.57-.39-1.32-.33-8.84,0-10.31.3-1.31,1.57-2.17,1.95-3.32.68-2.02.32-4.49,2.03-6.47Z"/>
      <path class="cls-39" d="M297.48,374.65c-.03,3.94-3.3,7.87,1.34,10.09,1.55.74,3.52.71,5.1,1.35,7.46,3.02,6.54,9.65,6.46,16.41-.01.99.38,2.6-.6,3.21-.25-6.66,1.76-13.57-4.73-17.84-2.46-1.62-3.61-1.04-5.83-1.78-5.97-1.99-2.72-6.75-2.92-11.44-.99-.41-1.43.49-1.75.58-10.35,2.94-15.48-5.73-17.41-14.52-.62-2.81-1.24-9.07,1.59-10.68-.43,1.27-1,3.75-1.1,5.05-.57,7.54,5.46,21.71,14.84,20.16,1.86-.31,2.39-3.32,5.01-.6Z"/>
      <g>
        <path class="cls-44" d="M835.21,129.08c-1.38,3.54-1.82,3.83-4.1,6.45-1.24,1.23-1.5,1.19-1.17-.59l.54-1.31c.77.63,1.57-.11,2.38-2.21l-.55-2.03c17.07-49.02-45.38-75.06-69.12-28.91l-1.79,1.05c.12,1.86.31,3.62.59,5.27-1.8,1.59-2.67-.36-1.76-2.34.26-.99-.06-2.47.4-4,.87-2.85,2.89-4.94,3.7-7.73,6.84-8.65,12.83-14.27,24.01-17.29,32.98-8.91,58.86,22.94,46.87,53.63Z"/>
        <path class="cls-39" d="M631.36,156.04l2.11-.42c9.11-6.56,18.27-13.07,27.48-19.54l2.9-.95c6.4-6.22,13.95-10.94,22.63-14.17,4.51,1.27,9.02,2.47,13.52,3.62.47,1.54-.56,2.2-1.85,2.74-11.7,3.85-22.62,9.85-32.24,17.67-7.17,4.3-14.4,8.4-21.71,12.3-14.11,9.7-26.15,18.03-18.86,36.8.64,1.64,4.73,9.12,5.62,10.45,7.12,10.59,16.65,20.56,26.11,28.88,2.42,1.92,2.5,4.76.27,6.91-6.06,2.15-12.06,4.41-17.19,8.3l-1.55,1.6c-10,5.09-20.22,9.64-30.66,13.64-3.3,1.4-8.95,4.34-11.72,5.27-.8-.16-1.35-.99-1.4-1.68-5.77-4.05-11.87-9.19-14.42-15.9-.37-.11-.69-.25-.85-.49-7.31-10.92-19.6-44.6-15.94-58.22,1.37-2.36,2.09-4.67,2.14-6.93h.59c20.84,2.11,48.35-17.61,65.02-29.89Z"/>
        <path class="cls-21" d="M565.76,185.93l1.74,2c-7.16,6.25-3.53,18.61-1.57,26.83,2.73,11.44,8.31,26.97,14.47,36.8.5.95.5,1.54,0,1.76-9.48-14.66-19.34-41.91-17.56-59.48.22-2.12,2.46-5.97,2.33-6.44-.37-1.34-4.09-.86-5.27-.89,1.39-1.25,4.02-.33,5.86-.59Z"/>
        <path class="cls-39" d="M726.84,129.67c.78.82.45,1.13-.59.59-.61-.33-10.08-2.25-11.4-2.37-15.03-1.38-27.19,5.19-39.18,13.01-3.68,2.4-7.15,5.25-10.93,7.53-10.31,5.27-26.65,14.34-34.57,22.55-5.07,5.25-5.36,14.23-3.34,20.95,2.56,8.48,11.21,18.38,17.11,25.08,4.72,5.36,15.42,14.25,18.72,19.36.78,1.2,1.3,2.14.32,3.49-.78-.01-1.56,0-2.34,0-.07-2.02-1.08-3.95-3.02-5.79-12.16-11.1-24.67-23.88-31.82-38.98-9.75-20.6,8.5-32.06,24.38-41.39,11.13-4.91,21.2-11.98,31.03-18.9,10.75-6.19,22.8-10.55,35.39-8.99,2.39.3,7.01.97,8.93,2.1.65.39,1.02,1.09,1.31,1.77Z"/>
        <path class="cls-18" d="M832.87,131.43c-1.37,3.06-2.54,3.93-4.23.42-4.31-12.45-10.44-12.65-20.2-4.75-6.8-.28-12.18,1.32-18.51,3.7-3.65,1.79-7.71-2.28-3.93-4.89,2.97-.93,5.74-2.22,8.29-3.87,4.66-13.29-12.32-7.23-17.42-2.41-6.56,2.39-15.91-12-15.46-18.08,12.94-28.68,50.69-37.73,68.91-8.87,8.51,13.48,7.57,24.22,2.55,38.76Z"/>
        <path class="cls-39" d="M729.19,127.91c1.74,1.71,1.94,2.88.59,3.52-.43,1.13-2.61-.88-2.93-1.76-11.62-4.86-24.06-3.29-35.54,1.07-8.33,3.17-14.09,8.85-21.34,13.23-10.92,6.6-22.83,11.89-33.02,19.71-10.4,7.98-14.87,12.84-11.64,26.86,2.83,12.25,19.16,29.54,28,38.79,2.78,2.91,6.96,5.25,9.09,9.06-.53.54-1.16.98-1.74,1.46-1.62,1.36-2.47,1.18-3.51,1.76-5.2,2.35-10.46,4.78-15.76,7.31l-1.23-.27c1.84-2.29,5.49-5,8.17-6.18,3.68-1.63,10.53-1.34,9.28-6.88-.63-2.8-7.19-6.59-9.55-9.21-5.36-5.93-13.47-14.63-17.79-20.88-.96-1.4-.85-3.5-1.58-4.87-1.89-3.56-4.87-4.93-5.85-10.56-1.16-6.68-.94-13.11,3.27-18.48,4.81-6.14,16.41-15.22,23.32-18.86,1.9-1,3.81-.92,5.32-1.71,6.33-3.3,14.61-10.48,20.72-14.43,3.67-2.38,10.71-5.38,14.93-7.34.97-.45,9.5-3.49,8.91-4.26-4.02-.27-10.33-3.8-14.08-2.68-1.43.43-4.15,2.73-5.82,3.56-2.7,1.33-6.46,2.51-8.76,4.13-2.13,1.5-4.2,4.85-6.18,6.12-1.54.98-3.02.81-4.36,1.5-4.94,2.54-14.65,10.41-19.92,14.06-2.43,1.68-5.64,6.41-8.82,4.36,1.17-.86,3.21-1.92,4.1-2.93,10.35-8.22,21.52-16.17,32.45-23.88,4.15-2.93,10.43-6.97,15.11-8.79,4.4-1.71,5.79-1.91,9.6,1.39,6.89,1.03,13.92,1.22,21.09.58,4.12.06,12.62,1.23,15.29,4.42.2.24.22.64.19,1.07Z"/>
        <path class="cls-39" d="M735.04,132.6c-2.57.24-4.84-2.43-5.86-4.69-12.91-9.07-22.97-2.94-36-5.3-2.51-.45-3.13-3.3-6.9-2.79-3.97.54-14.74,7.64-18.57,10.18-8.61,5.71-16.88,12.52-25.27,18.67-2.12,1.56-4.64,3.26-6.98,4.44.22-.24,1.64-2.61,1.76-2.93,16.57-10.12,30.82-24.27,48.96-31.6,5.26-.66,4.52,2.8,8.79,3.41,13.19,1.87,32.64-4.92,40.07,10.6Z"/>
        <path class="cls-39" d="M735.04,132.6c3.62,3.81,5.5,7.3,6.54,12.5.91,4.56.33,9.24.49,13.87-.4,2.2-.27,4.07-.59,5.86l-3.51.59-.64-.76c2.42-11.2,1.49-24.21-7.55-32.26v-.97s-.6-3.52-.6-3.52c1.99,1.4,4.09,2.83,5.86,4.69Z"/>
        <path class="cls-39" d="M657.14,241.61c-14.1,7.8-31.04,15.49-45.95,21.72-1.15.48-1.96.78-3.25.55,10.9-4.61,21.5-10.18,32.22-15.24,3.65-1.72,7.69-3.05,11.36-4.75,1.88-.87,3.22-2.72,5.63-2.28Z"/>
        <path class="cls-46" d="M596.22,269.15c-.18.06-.42-.06-.59,0-.41.16-1.34-.16-1.76,0,.79-1.37,1.14-1-.26-1.8-4.19-2.38-9.27-7.74-12.04-11.68-.31-.43-.66-1.56-1.17-2.34v-1.76c4.02,6.42,8.45,10.79,14.37,15.21.96.72,1.77.53,1.44,2.37Z"/>
        <g>
          <path class="cls-39" d="M741.49,164.83c-2.41,13.63-6.69,27.36-15.23,38.68-1.38,1.2-2.55,2.56-3.51,4.1-1.75,1.83-3.97,4.33-5.86,5.86-2.95,3.78-18.42,12.71-22.56,11.65-1.38-.35-14.53-19.07-14.63-20.32-.12-1.41.77-2.49,2.13-2.82,25.69,3.02,48.03-11.84,55.31-36.4l.84-.16c.45-1.68,2.69-2.28,3.51-.59Z"/>
          <path class="cls-39" d="M729.77,131.43c9.24,7.64,10.55,22.99,8.2,33.99-1.2,5.63-7.89,16.95-11.7,21.41-6.15,7.19-18.18,13.87-27.39,15.38-4.78.78-11.27.23-16.24.74-5.46,1.04,2.97,8.32,3.2,10.83,2.55,1.34,6.55,10.26,8.62,10.75,2.2.52,14.84-6.02,17.36-7.62,1.07-.68,4.28-2.78,5.07-3.42-.57.7-1.15,1.73-1.76,2.34-4.24,4.32-12.16,8.36-18.02,9.81-2.79.69-3.69.05-5.4-1.91-2.96-3.41-4.96-7.84-7.36-11.39-1.25-1.86-7.29-8.09-6.67-10.18l2.07-1.39c5.15.44,11.12.82,16.25.34,7.37-.7,17.65-5.36,23.49-9.9,14.5-11.27,25.47-38.52,13.19-54.78-.69-.92-5.68-5.74-6.44-6.15l.59-.59c.18.07,2.8,1.65,2.93,1.76Z"/>
          <path class="cls-39" d="M722.74,207.62c.26-1.79,2.12-3.07,3.51-4.1-1.43,1.9-1.84,2.34-3.51,4.1Z"/>
          <path class="cls-39" d="M728.45,198.67c-.5.48-1.6.49-2.15,1.06-5.61,5.77-9.34,10.9-16.24,15.42-2.03,1.33-6.68,4.31-8.68,5.38-6.24,3.34-6.36-.75-9.37-4.14-1.12-1.27-3.02-2.03-3.85-3.18-1.03-1.43-.98-3.62-2.04-5-.7-.92-3.74-1.75-1.16-2.33s4.53-1.88,6.58-2.22c2.45-.41,4.96.09,7.41-.2,1.62-.19,13.79-2.87,14.85-3.31.45-.18,7.15-4.75,8.05-5.42,2.04-1.51,8.38-9.74,9.38-9.96,1.89-.42,1.66,4.43,1.44,5.55-.29,1.47-1.79,2.07-2.46,3.4s-.76,3.97-1.78,4.95Z"/>
        </g>
      </g>
      <g>
        <path class="cls-25" d="M291.04,331.28v.59c-.25.58-1.03.58-2.34,0l-.63.45c-5.25-1.67-10.37-2.04-15.37-1.1-2.43,1.76-4.51,2.18-6.25,1.24l-1.03.75c-4.99-1.36-5.29,9.94-4.23,13.38.23,1.59-.53,2.81-2.08,3.25-7.51-3.63-5.45,10.23-4.64,14.44,2.72,10.08,4.57,20.18,5.54,30.3.22,1.45,1.05,10.68.72,11.13-.18.24-.44.43-.72.59-1.26-5.39-.43-11.81-1.22-17.24-.91-6.3-3.86-13.34-5.07-19.54-.78-3.98-2.2-15.64-1.2-19.07.89-3.06,5.87-2.37,6.28-3.71.14-.46-.64-3.49-.49-5.14.19-1.99,1.47-9.03,2.9-10,2.72-1.85,4.8-.02,7.25-.32,1.66-.2,2.31-1.57,4.7-1.79,7-.67,11.45.63,17.9,1.8Z"/>
        <path class="cls-39" d="M266.43,332.45c.16.1.25.89.97,1.09,2.34.66,3.94-1.46,5.95-2.08,5.02-1.56,6.16-.22,10.43.93,1.62.44,3.76.34,5.1.76,2.76.89-.68,3.35-1.22,4.42-1.28,2.54-.54,3.85-3.45,5.92-.87.62-4.35,2.27-5.27,2.29-1.39.04-2.47-1.41-3.51-1.49-.95-.07-1.62.85-2.37.95-1.2.15-2.25-.66-3.83-.38-.94.17-5.59,2.8-6.51,3.5-.39.3-3.71,3.56-3.8,3.82-.36,1.05-.23,6.69.04,7.98.65,3.13,1.31,5.93,1.89,9.25,1.17,6.73,4.56,12.94,5.04,20.16.27,4.16-.89,13.09-.04,16.32.15.58,1.2.58,1.45,1,.56.96.22,2.29.78,3.35,1.12,2.14,3.01,4.91,5.29,5.84,7.05,2.9,16.85,3.29,24.29,1.8,4.3-.86,6.64-8.52,6.28,1.31-.09.15-.41.42-.59.59-.38.05-.81-.07-1.17,0l-1.42-.81c-6.22,1.25-12.46,2.09-18.82,1.93-17.79-.46-19.14-16.91-18.34-31.18l-.55-4.78c-2.76-8.48-4.81-17.05-6.15-25.7,1.04-9.28.48-11.26-1.68-5.93,1.17,11.51,3.12,22.98,5.87,34.39.78,2.63.61,4.93-.5,6.89h-.59c-.38-11.61-5.36-21.3-6.4-31.99-.24-2.43-.44-8.89-.03-11.07.75-4,5.74-1.72,6.37-3.62.41-1.25-.61-3.46-.55-5.16.14-3.63,1.44-13.92,7.05-10.29Z"/>
        <path class="cls-39" d="M260.58,394.57c-.66-13.41-5.39-24.65-6.43-37.81-.17-2.13-.53-5.52,1.42-6.77,1.63-1.04,3.08-1.01,3.01,1.2-.11,3.6-.88,7.83-.31,11.4,1.19,7.45,5.35,16.93,6.26,24.21,1.03,8.25-1.44,17.47,3.19,24.94.77,1.25,3.74,5.08,4.84,5.71.45.26,5.93,2.05,6.61,2.18,7.61,1.45,16.7-.99,24.17-2.2l-1.17,2.34c-8.38,1.57-15.53,2.51-24.33,1.78-14.45-1.2-16.68-15.24-17.26-26.98Z"/>
        <path class="cls-39" d="M260.58,337.43c.78-4.4,6.19-6.2,6.39-2.39.03.57-1.22,9.26-1.42,9.7-.89,2.01-4.97,3.35-4.97,1.48,0-2.49-.39-6.6,0-8.79Z"/>
      </g>
      <g>
        <path class="cls-45" d="M701.66,130.84c1.9-2.5,8.21-2.23,11.54-2.02,15.17.96,24.13,11.28,23.67,26.44-.86,28.69-29.78,49.59-57.13,44.53-.58.05-3,.55-3.19.79-1.98,2.59,12.95,21.77,16,25.35,3.28.04,4.95.77,5,2.19l1.37.24c.36,4.25,1.88,7.9,4.56,10.94-.37.56-.35,1.14-.07,1.71l1.23.24c3.23,5.74,7.12,10.54,11.65,14.41l1.74-.72c5.42,1.13,10.87,2.07,16.37,2.8l1.22,1.43c5.07.17,8.94,1.57,12.95,4.63,7.83,1.69,15.62,3.66,23.36,5.92,2.53-.97,4.79-.36,6.44,1.76,8.4,2.88,2.82,10.78-4.65,9.54-5.64-.47-10.84.16-16.34.94-6.55-.37-13.08-.52-19.59-.47-.55-.73-.72-.8-.43-.06l-.18.59c-11.13.19-22.2,0-33.21-.59-1.37-.19-2.73-.78-4.1-1.76l-.8.05c-.93-3.88-2.27-7.62-4.02-11.22-6.68-6.75-13.42-13.3-20.21-19.65.12-.35.18-.65.07-.77-3.05-3.12-5.45-5.21-9.02-7.68-.51-.12-1.03-.57-1.17-.59-1.32-.13-.66-1.94.41-2.55-.99-1.33-1.13-2.44-.41-3.31.97-.35-.79-2.04-1.29-2.47-4.7-3.08-8.75-6.25-11.4-11.36-6.02-5.44-11.89-11.21-15.94-18.31l-1.24-.69c-1.01.88-1.69.25-2.51-.58-3-3.04-6.06-13.7-5.82-18.02.15-2.72,1.64-8.89,4.23-9.54,6.12-2.86,11.51-6.31,16.4-11.14.2-.84.59-1.56,1.19-2.17,10.89-5.54,21.24-11.85,31.03-18.93,1.35-2.51,4.77-4.55,7.61-4.1,5.08-1.44,9.96-3.39,14.64-5.86Z"/>
        <path class="cls-15" d="M432.2,286.74l.59.16c1.93,10.68,5.89,23.01,13.61,30.87l-.14,1.2c-2.42,1.38-4.76,3.14-7.48,3.94-5.88,1.72-13.21,2.34-19.49,3.95-32.04,8.21-67.02,22.04-97.4,35-6.93,2.96-14.16,5.35-20.72,9.15-2.43,1.41-2.21,2.36-3.11,4.8-.27-.6-.46-1.39-.59-2.34-1.53-.85-3.15-.46-4.86,1.14-11.2,1.72-18.26-18.71-12.22-26.13.68-.83,6-4.69,6.99-5.17.16-.08.43.06.72.26,1.22-4.37,3.02-5.79,5.38-4.28,2.06-3.11,5.13-4.86,9.21-5.25,9.87-5.64,19.43-11.84,28.68-18.6,23.88-16.28,48.93-30.5,78.44-29.36,6.93-.71,13.87-4.71,18.86-9.5.97-.56,2.08-.59,2.44.5l1.08,9.66Z"/>
        <path class="cls-39" d="M679.4,140.8c-3.06,2.86-6.88,6.43-10.36,8.69-7.05,4.59-14.28,7.34-21.86,12.41-4.88,4.87-10.33,8.23-16.4,11.14-1.17,1.94-3.59,8.59-3.48,10.76.13,2.54,3.73,13.29,5.25,15.3.68.9,1.96,1.57,2.33,2.07l1.17.33c4.31,7.16,9.66,13.38,16.04,18.68,2.7,4.79,6.54,8.62,11.54,11.5,1,.77,1.38,1.54,1.13,2.31.37.48,1.5,2.71,1.54,3.23.1,1.45-1.84,1.22-1.54,2.63-.37-.05-.79.04-1.17,0h-.59c-.06-1.89-.44-2.75-1.88-4.43l-17.08-17.21c-12.22-13.86-29.69-34.68-10.96-50.71,8.94-7.65,20.31-13.9,30.76-19.29.21-.11.55.02.92.22,4.67-3.29,9.55-5.83,14.64-7.62Z"/>
        <path class="cls-8" d="M743.83,153.7v-.59c-1.56-1.06.06-4.01,1.76-2.93-.09-.46-.16-1.14.15-1.28,4.45-1.99,11.99-3.18,14.3,2.38,2.13,9.19,4.17,16.33,15.98,12.61l12.75-2.59c2.51.25,4.97.78,7.39,1.59,3.84-3.51,7.95-6.56,12.34-9.16,10.23-3.19,15.74-8.79,20.94-18.01l1.67-.19c1.37-1.83,2.47-3.96,3.29-6.39l.81-.06c0,2.46-.89,4.88-2.12,6.97-2.99,5.06-8.98,14.02-14.33,16.73-2.34,1.18-5.86,1.4-8.68,3.04-3.6,2.1-9.78,9.49-12.8,10.07-3.37.65-5.64-1.83-8.58-1.62s-8.6,2.27-11.92,2.78c-7.26,1.1-12.4,2.95-16.44-4.37-1.37-2.48-3.26-10.83-4.24-11.58-3.83-2.92-8.53,1.9-12.27,2.61Z"/>
        <path class="cls-20" d="M665.92,240.44c4.88,1.13,7.54,3.82,10.54,7.92l-1.17.87c2.29-.3,2.39,1.82,3.79,2.95,5.48,4.39,6.6,6.24,11.21,11.06,1.32,1.38,5.13,3.92,5.75,4.8,1.02,1.46,3.31,9.59,3.85,11.68.52.16.51.35,0,.59l-1.17,11.14c-.15-8.36-.5-19.08-7.09-25.44s-13.16-13.15-20.17-19.68c-2.05-1.91-4.8-2.37-5.55-5.87Z"/>
        <path class="cls-1" d="M757.3,224.03v.59c-.39,0-.78,0-1.17,0-1.59,1.64-3.93,1.84-7.03.59l-.91.76c-9.3-.81-18.62-2.38-27.96-4.7l-1.59-1.34c-4.86-.12-5.84-1.1-2.93-2.93h.59c13.64,3.53,26.65,6.65,41,7.03Z"/>
        <path class="cls-33" d="M718.64,219.92c9.75.81,20.58,5.2,30.46,5.27,3.86.62,22.44,5.01,23.54,7.78,1.55,3.91-4.38,4.95-7.38,4.81-18.19.37-36.45.47-54.77.3-2.94.17-5.19.82-7.08,2.94-1.5-1.72-3.43-3.97-4.37-6.47-.68-1.8-.55-4.48-1.49-6.42-.08-.45-.09-1.06.25-1.2,5.14-2.14,10.2-4.29,15.14-7.05,1.74-.6,3.64-.59,5.71.04Z"/>
        <path class="cls-39" d="M726.26,130.25c15,8.17,14.41,29.06,7.72,43.16-10.37,21.85-30.37,31.09-54.01,28.45-.07,0-1.09.9-1.09.97-.11,2.01,14.02,21.66,15.28,22.24,7.42-1.41,14.41-4.49,20.97-9.25-.06.44.57,1.01.59,1.17.03.3-.63,1.84.06,2.28.56.36,2.42-.41,2.86.65-4.87-.4-11.94,4.66-16.4,6.74-.81.38-4.02,1.53-4.69,1.47-.47-.04-1.39-.86-2.17-1.04-1.08-.24-2.28.04-3.27-.26-.71-.21-7.22-8.99-8.28-10.47-1.84-2.6-3.14-4.69-5.04-7.26-1.2-1.63-4.34-7.3-3.24-9.1,1.46-2.4,12.66-.37,15.88-.56,25.67-1.55,49.07-26.63,43.56-53-.74-3.56-6.63-11.32-9.6-13.25-6.08-3.96-16.92-3.97-23.73-2.34-4.69,2.48-9.57,4.44-14.64,5.86-2.55,1.28-5.07,2.76-7.61,4.1-4.86,2.56-9.72,5.1-14.64,7.62l.54-1.04c17.46-12.72,39.56-26.66,60.97-17.12Z"/>
        <path class="cls-15" d="M634.88,201.17l1.75-1.17c0,.77-.03,1.61.33,2.31,3.67,7.21,10.61,12.4,16.07,17.91,2.23,2.25,3.63,5.3,6.43,7.63,2.33,1.94,4.13,1.72,5.78,4.77.55,1.02,1.36,1.55-.49,1.37-2.31-2.98-8.51-6.19-10.87-8.76-1.34-1.46-1.34-3.17-2.34-4.69-1.26-1.93-3.71-3.03-5.26-4.7-4.48-4.81-7.59-9.5-11.4-14.67Z"/>
        <path class="cls-15" d="M647.18,161.9l-5.31,5.53-5.89,3.49-5.2,2.12c1.41-2.34,2.79-1.59,4.64-2.68,2.98-1.76,8.24-6.1,11.76-8.46Z"/>
        <path class="cls-36" d="M701.66,130.84c-4.22,2.98-9.31,5.95-14.64,5.86,4-2.01,10.4-4.84,14.64-5.86Z"/>
        <path class="cls-43" d="M432.2,286.74c-.27-1.37-.84-2.93-1.1-4.47-.2-1.2.47-5.34-1.53-4.9-.33.07-1.9,2.04-2.71,2.57-13.72,8.97-14.52,6.92-30.1,7.98-23.77,1.62-44.23,15.38-63.62,27.78-9.49,6.07-18.9,13.66-29.03,19.01-2.34,1.24-5.05,1.02-7.07,2.3-1.29.82-2.53,3.45-3.46,3.6-.78.12-1.63-1.44-2.81-1.11-.35.1-1.65,3-2.68,4.09l-.78-.32c1.25-3.64,3.07-6.85,5.46-9.65,3.33.84,4.72-1.48,7.09-2.58,8.88-4.16,16.76-9.28,25.13-14.41,2.21-.73,4.43-1.59,5.86-3.52,20.07-12.49,42.88-30.91,66.51-35.13,11.52-2.06,24.71,1.98,34.82-5.89-1.1,5.06-.07,9.6,0,14.65Z"/>
        <path class="cls-41" d="M291.04,331.86c.3.09,1.66,1.35,1.76,1.76.68,2.81-5.15,6.09-4.69,9.96-2.32,2.47-6.81,4.08-8.33,7.2-3.79,7.8,3.11,25.06,12.7,23.28,1.83-.34,2.97-3.62,5-.59,0,.39,0,.78,0,1.17-.39.1-1.04-.09-1.98-.59-12.58,7.16-22.13-14.59-16.77-24.03-1.34-.75-.4-2.62.54-3.36,4.93-1.43,7.86-4.34,8.79-8.73,2.97-2.71,3.2-4.52.69-5.41l-.06-.66c.69.12,1.77-.18,2.34,0Z"/>
        <path class="cls-15" d="M330.87,313.11c-.74,2.64-3.41,3.27-5.86,3.52,1.93-1.18,3.95-2.33,5.86-3.52Z"/>
        <path class="cls-9" d="M761.99,106.81l.71.29c1.6,4.61,8.65,14.57,14.14,12.53,4.19-2.96,11.5-7.66,16.71-4.9,2.97,1.57,1.99,7.99-1.55,8.79-7.02.9-12.1,8.46-1.69,7.18,6.08-2.35,11.38-3.85,17.97-3.56,9.55-7.3,15.63-8.52,20.31,4.64.92,1.09,1.37,2.15,1.34,3.18.37.3.64.61,1.17.59-3.2,3.67-5.52,9.01-9.36,12.61s-12.05,5.51-17.2,9.17c-1.84,1.31-6.58,6.51-8.39,6.79-1.18.19-4.46-1.71-6.93-1.66s-4.93,1.41-7.46,1.37c-4.45,1.29-9.92,1.96-14.67,2.07-1.82-.42-4.84-3.86-5.6-5.53-2.55-5.58-.72-12.37-9.16-11.97-.36.02-6.43,1.64-6.74,1.8l-1.59-.58c-3.97-15.49-10.87-28.66-28.88-28.93-5.17.48-10.34.66-15.51.52-3.29-.52-9.41-2.97-8.49-6.76,6.85-2.51,12.66-4.1,20.07-2.21,2.49.64,4.69,2.49,7.75,2.79,5.67.56,22.71-1.08,28.14-2.91,1.37-.46,11.24-4.81,11.72-5.27.26-.26,1.36-2.09,1.44-2.37.02,1.16.74,1.88,1.76,2.34Z"/>
        <path class="cls-39" d="M691.11,114.43c6.28,10.11,19.06,3.73,28.95,5.32,7.05,1.14,17.19,8.5,20.12,15.03.94,2.09.77,4.65,1.5,6.71.98,2.79,2.58,6.01,3.91,8.69-.66.34-1.42,2.19-1.76,2.93-1,2.17-1.33,3.51-1.76,5.86l-1.2-1.38c.42-8.35.18-16.98-5.9-23.34l.07-1.65c-4.71-6.76-12.29-10.03-20.39-10.16-7.41.57-14.69.4-21.84-.51-4.61-4.01-6.78-3.18-12.34-.26-14.39,8.76-28.3,18.25-41.74,28.49l-1.52.02c.16-.42-.16-1.36,0-1.76,6.16-5.64,14.03-11.64,21.1-16.52l8.19-4.58c6.98-4.65,16.75-10.02,24.6-12.89Z"/>
        <path class="cls-13" d="M761.4,101.54c.32,2.02,1.71,5.25,2.63,7.04.84,1.63,2.8,5.05,4.01,6.24.42.41,5.16,4.09,5.49,4.19,3.55,1.07,5.97-2.44,8.41-3.66,2.8-1.39,11.18-3.59,13.15-.34.56.93.47,5.94-.02,7.03-1.2,2.67-8.12,3.71-9.13,4.93-.8.97-.92,2.75.44,3.2,3.42,1.13,10.46-2.92,14.02-3.38,2.36-.3,5.23.37,7.42-.19,1.46-.37,4.08-3.15,5.9-4.06,11.49-5.75,12.32,3.61,17.09,11.22l2.05-2.33c-.57,1.64-.37,3.19-2.93,3.52-5.13-4.2-3.22-14.75-13.49-12.03-2.57.68-5.15,4.27-8.02,4.87-2.38.49-5.07-.18-7.45.17-3.18.46-12.02,4.65-14.55,3.98-1.67-.44-3.26-3.67-2.69-5.38.53-1.6,8.45-3.34,10.17-5.09.92-.93,1.35-4.31.63-5.31-.25-.35-4.45-1.8-5.24-1.73-.54.05-5.09,1.58-5.79,1.9-4.83,2.21-6.58,6.96-12.43,2.79-4-2.85-7.59-7.75-9.08-12.3-.75-2.3-1.67-2.87-.59-5.27Z"/>
      </g>
    </g>
    <g>
      <path class="cls-47" d="M757.3,224.61l68.28-.32c8.96.82,8.96,8.47,8.74,16.27-.56,25.15-.48,49.91.24,74.28-.49,5.37-2.6,7.46-7.85,8.22-9.67.25-19.49.45-29.48.61l-.4-.61c.53.64-.14,1.39-.88.88.37.08.66.17.66.27.17,3.19.11,7.86-.08,11.06,0,.14-.26.27-.59.39,1.03.87-.07,1.23-1.2,1.37-5.77-.45-11.42-.23-16.96.68-.35,8.39-.5,16.81-.46,25.25.46,4.74,1.09,8.3,7.06,7.66l46.46-.25c2.74,1.2,4.22,14.42.07,15.39-16.6.72-34.23.73-50.98,0-1.16-.09-2.09.34-2.42,1.54-1,3.68-.66,23.26-.05,27.61.54,3.85,2.63,4.31,6.34,4.08,19.05-.37,38.28-.71,57.55.02.29.01,1.09.94,1.38,1.32.85,1.1.84,18.19.06,20.53.02.51-.15.62-.56.62-49.65.08-100.68.3-150.33.75-.81-.04-1.13-.41-1.54-1.07-1.19-1.92-.23-16.67.12-19.64-.39-.16-.37-.35,0-.59,1.47-1.91,3.67-2.66,6.61-2.25,16.71.32,33.43.43,50.16.36,7.56.61,8.56-1.29,8.56-7.59l-.11-23.44c-.45-3.06-4.28-2.7-6.65-2.24-.58.24-1.15.42-1.73.44-10.99.28-22.14.42-33.14.49-4.1.03-8.16.05-12.26-.26-.73-.06-2.15-.79-2.52-1.46s-.58-15.28,2.67-14.7c17.25-.48,34.55-.71,51.89-.67,2.29-1.89,2.52-28.96.66-33.06l-.18.64c-5.56-.11-10.97-.32-16.22-.64-.76.57-1.53-.03-.88-.88-.33-.05-.58-.1-.59-.17-.23-3.28-.24-8.21.59-10.96-1.86-1.16-3.56-1.36-6.28-1.47l-16.36.49c-4.01.33-7.79-.22-11.34-1.66-2.81-1.65-4.15-3.88-4.64-7.38-.9-6.56.07-16.11-.05-23.1.13-3.62.24-7.23.35-10.84l.82-.3c1.61-.07,2.29,1.11,1.17,2.34.52-.07.94.08,1.22.49-1.21,7.64-1.7,15.36-1.6,23.32.16,12.73.2,14.97,13.61,15.2,36.16.25,72.12.16,107.87-.26,2.4-.05,8.06-.91,8.9-3.45,1-3.04,1.01-6.2.96-9.55-.95-21.75-1.04-43.52-.28-65.32-.1-4.03-.21-8.11-.95-11.97s-5.97-4.38-9.15-4.49c-11.65-.38-23.25-.02-34.9.58-6.28.18-12.57.14-18.82-.51-.42-.04-.83-.28-1.25-.54s-.81-.59-1.19-.94l-3.65.39c-.63,1.54-6.13,1.31-5.72-.97.36-.44.78-.44,1.17,0Z"/>
      <path class="cls-35" d="M749.1,385.78c1.61-.37,4.86-.63,5.99.69,1.26,1.48.9,20.23.81,23.99-.04,1.58-.2,7.03-1.38,7.88-19.14.97-38.39,1.1-57.75.37-2.59-.06-4.75.05-6.25,2.24-.03.19.02.39,0,.59-.17.51-.36.5-.59,0,.1-1.83-.37-4.83,2.05-5.28,6.18-1.14,15.71.83,22.28.03,8.14-.15,16.37-.46,24.55-.64,2.85-.06,13.13.61,14.71-.52.53-.38,1.15-1.55,1.3-2.22.79-3.58.5-17.97.15-22.17-.31-3.72-.89-3.57-4.39-3.81-15.81-1.07-32.43,1.15-48.09.54-.32-.01-3.77-1.48-3.77-1.69v-14.94c0-.42,2.12-4.06,3.23-3.8h48.02c1.58.22,4.98-1.72,4.98-3.24v-25.2c0-3.43-18.74.83-18.74-2.34v-11.72c0-.64-1.43-.84-2.02-.91-8.13-.95-18.16.92-26.39.03-2.18-.24-2.73-.78-4.39-1.76,9.74,3,21.59-.17,31.37,1.14.77.1,2.61.75,2.61,1.49v11.14c0,.06.82.88.88.88h16.4c.74,0,1.39,1.83,1.49,2.61.77,5.72.4,19.16,0,25.26-.11,1.59-.37,5.72-1.78,6.43l-50.7.26c-4.87.64-3.09,6.09-3.16,9.72-.05,2.25-1.83,4.05,1.57,4.83,15.46.94,31.66-.81,47.02.13Z"/>
      <path class="cls-11" d="M843.41,420.36c-.1,6.23.53,12.92.36,18.95-.03,1.02-.3,3.48-1.32,3.83l-59.96-.51c-.89-1.06.93-1.08,1.96-1.08l57.89-.06c-.87-.04-.7-.25.49-.62.22-2.5.31-18.7-.29-19.93-.24-.49-.77-.9-1.29-1.05-11.87-.2-23.76-.13-35.64-.14-7.89,0-17.05.84-24.96.28-3.08-.22-3.16-1.85-3.42-4.66-.59-6.45-.85-21.41-.04-27.56.57-4.34,4.41-2.01,7.34-1.98,12.65.16,26.03.64,38.7-.03,1.92-.1,5.93-.33,7.58-.62,2.66-.48,2.15-3.48,2.09-5.58-.04-1.23-.44-6.1-.71-6.91-.85-2.56-4.21-.88-5.5-.95-14.78-.77-29.72-.07-44.49-.02-7.06.02-4.88-10.6-4.95-15.56-.04-2.45-.04-4.54,0-6.99.04-2.76-.62-9.57.56-11.45.73,8.22-.98,18.09-.02,26.1.13,1.08,1.27,4.44,2.01,5.02,2.73,2.12,44.81-.61,51.49.64,2.9.87,2.88,12.86,2.07,15.32-.17.52-1.63,1.56-1.96,1.56h-52.72c-.06,0-.88.82-.88.88v28.13c0,.17.91,1.6,1.17,1.76,1.26.77,11.83.22,14.37.27,14.46.26,29.15-.39,43.81.4,3.4.18,3.52-1.31,6.25,2.56Z"/>
      <path class="cls-32" d="M842.82,440.87c-.04.45.27,1.05-.35,1.24-19.18.09-38.69-.27-58-.11-1.07,0-1.88.63-1.98.63-26.98.21-54.01-.48-81.15-.03-2.3.04-9.61,1.39-10.87-.21-.31-.39-.42-.76-.51-1.24-.73-3.82-.25-15.21-.02-19.62h.59c-.22,2.23-.3,18.58.26,19.38.28.41.75.51,1.21.55l150.83-.59Z"/>
      <path class="cls-32" d="M690.53,420.95c.32-1.68,1.43-2.89,3.19-2.96,18.49-1.22,39.25,1.72,57.46.06,4.02-.37,4.06-1.8,4.39-5.57.66-7.67-.52-16.26-.03-24.04-.55-2.8-4.19-2.51-6.43-2.65,1.99-1.1,6.55-1.32,7.01,1.48-.28,4.12.81,30.9-1.12,32.25-6.36.13-12.83.55-19.17.62-13.43.15-28.22-1.36-41.52-.4-1.5.11-2.53.37-3.78,1.2Z"/>
      <g>
        <path class="cls-28" d="M701.07,282.63c-.18-2.19,1.62-2.16,3.16-.94,13.44.38,27.03.7,40.4-.29,11.76.44,23.32.07,34.69-1.12,4.48-1.41,4.1-8.52-.93-8.79-2.15-.61-4.3-1.16-6.44-1.76-8.17-2.37-16.3-4.5-24.39-6.4-3.36-3.19-7.53-3.75-11.93-4.14-5.84-1.23-13.49-1.69-19.33-3.52-2.7-1.01-12.13-14.17-11.95-15.14.2-1.08,1.31-1.56,2.26-1.77,21.14.02,42.2-.48,63.19-1.49,9.14-2.26,6.8-5.18-7.02-8.75-4.49-2.92-.4-3.3,2.72-3.33,19.06,2.65,41.25-1.55,60.04.59,3.63.41,6.39,3.07,6.77,6.7,1.59,15.02-.2,35.34-.06,51.05.09,10.49,1.61,21.69.64,32.24-.48,5.23-5.09,6.28-9.7,6.7-9.83.9-20.6-1.11-30.43.62-26.8-1.35-56.09,1.66-82.64-.59-5.35-.45-9.56-1.36-10.23-7.35s-.25-16.4-.02-22.88c.08-2.27,1.54-8,1.2-9.65Z"/>
        <path class="cls-50" d="M756.13,224.61c2.64,1.32,6.39.26,9.37.59l-3.51.59c-1.49,1.2,5.82,3.58,6.45,3.79,1.89.65,6.37.7,7.31,2.65,4.37,9.07-18.39,5.47-22.23,7.06-11.38-.81-22.61.18-33.97.59-2.46.09-12.59-.5-13.81.25-1.33.83.66,3.11,1.29,4.02,1.48,2.14,3.52,4.43,5.16,6.56,1.34,1.75,2.04,3.39,4.12,4.97-4.78-1.49-3.32-2.22-5.6-5.24s-4.74-6.49-7.28-9.41c-.56-3.12,5.21-4.09,7.35-4.12,7.3-.11,14.93.01,22.2,0,12.43-.03,24.48,1.51,36.81-.68,1.81-1.32,3.23-2.01.83-3.52-5.51-3.49-15.78-3.99-21.5-7.49,2.35.02,4.51-.58,7.03-.59Z"/>
        <path class="cls-50" d="M701.07,282.63c-.03-.13-.87-1.21-1.17-2.34-.05-.18.05-.4,0-.59,3.46-1.22,3.85,1.76,4.1,1.76h33.39l-4.68-1.17c3.7.61,8.56-.52,12.04-.03,4.95.69,9.15,1.85,14.65,1.24,2.15-.24,3.81-1.55,5.97-1.65,3.13-.14,7.59.67,10.96.41,2.55-.2,4.58.02,4.93-2.66.43-3.27.35-4.8-2.86-6.11.57.16,1.6-.17,2.49.12,2.45.81,2.69,4.35,2.07,6.49-.9,3.1-11.23,4.15-14.19,3.9-4.69-.4-6.02.18-10.58.28-16.23.37-36.21.7-52.1-.28-1.42-.09-3.89-.36-5.01.61Z"/>
        <path class="cls-50" d="M771.95,269.74c-6.67.15-12.89-3.39-19.2-5.11-2.22-.61-3.89.25-6.29-1.33-3.73-2.46-6.2-3.13-10.83-4.11,2.47.04,6.02-.04,8.33.75,2.02.69,3.49,3.18,5.11,3.68,2.42.75,6.68.89,9.45,1.68,4.33,1.24,8.89,3.16,13.43,4.44Z"/>
        <path class="cls-29" d="M707.19,284.66l119.85.57c1.6.56,4.92,1.83,5.24,3.55l-.13,28.01c-.54,2.41-4.32,4.26-6.6,4.54-12.06,1.47-30.01-.1-42.8-.04-10.27.05-20.72.05-31,0-13.71-.06-30.07,1.19-43.39.05-3.03-.26-6.71-.89-7.27-4.45-.76-4.84-.63-21.86-.05-26.94.45-3.92,3.14-3.87,6.14-5.28Z"/>
      </g>
    </g>
    <g>
      <path class="cls-37" d="M537.64,187.69c8.84-.96,17.66-1.14,26.46-.51-6.75,23.13,6.23,49.41,17.47,69.67,3.41,4.36,7.4,8.11,11.98,11.27.44.47-4.01,2.89-4.95,2.21-.84-.38-1.04-1.29-.6-2.73-6.91-5.86-12.11-13.35-15.6-22.48-1.64-1.76-2.81-3.46-2.58-5.97-3.45.42-3.41-1.12-2.88-3.89-4.21-12.42-8.14-24.79-7.77-38.58-1.96-2.78-.43-5.61,1.8-7.7-24.15-1.38-51.96,5.62-62.32,29.84-7.41,8.2-16.03,15.24-25.86,21.13l-21.99,17.83c-3.56,1.38-9.91,10.65-3.27,2.92,5.33-2.6,9.62-5.33,13.78-9.58,2.94.04,4.33-1.15,4.17-3.56,7.32-6.47,15.32-12.39,23.97-17.76,2.53-3.35,5.43-5.43,8.71-6.25.25-4.67,3.42-5.88,4.48-.83.95-2.53,2.34-3.96,4.16-4.29,18.18.49,39.67,3.91,51.18,19.36,4.55,1.85,7.45,4.77,8.7,8.75,5.81,4.54,10.84,13.85,9.01,21.3,3.81.74,2.74,3.99-.53,4.82.95-.11,1.45.12,1.71,1.19l-.35.88c-5.83,1.75-11.37,4-16.63,6.74-31.1,11.85-63.6,26.32-95.93,34.42-5.22,1.31-13.01,3.96-17.41.74-6.8-4.98-13.34-25.91-13.79-34.26-.37-6.73-.31-9.04,4.68-13.53,3.39-3.05,5.25-3.67,6.81-9.01,10.66-7.99,20.76-16.82,31.34-24.9,4.88-3.73,16.84-10.5,19.77-14.8,2.17-3.18,3.25-7.17,5.71-10.7,7.22-10.34,23.99-20.28,36.56-21.74Z"/>
      <path class="cls-30" d="M559.9,186.52c6.28-1.13,7.47.19,3.92,5.75-2.91,20.94,7.48,42.68,16.58,61.07.89-.1,1.86,1.62,1.17,2.34.37.62.37,1.01,0,1.17-10.87-15.2-22.18-44.82-19.85-63.52.29-2.35,1.74-3.91,1.69-6.22-8.35-.37-16.6.41-24.89,1.17-.96.09-.83-.59-.89-.58,7.24-1.55,14.86-1.38,22.26-1.17Z"/>
      <path class="cls-30" d="M581.57,255.67l.81-.02c3.54,4.75,7.89,8.94,12.88,12.11.37.71-.09,1.17-1.39,1.4-10.78,4.09-21.37,7.59-32.22,11.72-.59.22-1.19.37-1.76.59,1.43-2.28,5.94-3.62,8.65-4.53,3.1-1.04,5.95-2.15,8.33-3.09,2-2.84,8.41-4.41,11.72-3.52,1.49-.48,2.9-.55,4.09-2.05-5.16-3.06-7.79-6.78-11.12-11.43v-1.17Z"/>
      <path class="cls-30" d="M576.89,273.84h-3.52c-1.07-2.9,4.47-2.08,3.53-4.39-.24-.6-1.96-.09-2.32-1.24-.21-.69.72-2.53.55-3.98-.66-5.46-3.42-10.69-6.79-14.94-.65-.82-1.93-1.17-2.59-2.09-.9-1.25-.81-3.04-1.71-4.15-1.16-1.43-5.26-3.08-6.77-4.36-2.25-1.9-2.89-4.46-6.53-6.94-12.42-8.45-22.51-10.7-37.39-11.82-1.04-.08-7.02-.45-7.35-.3-.99.46-1.6,3.75-3.19,4.39-1.71.37-1.36-3.5-2.33-3.5-1.29,0-.73,3.94-.88,4.09-.13.13-2.4-.04-3.69.59-1.15.56-4.21,4.45-5.72,5.53-4.75,3.4-9.36,6.51-14.21,9.81-1.15.78-8.86,6.67-9.22,7.18-.8,1.14-.27,2.99-1.1,3.59-.71.51-2.65.16-3.73.81-1.14.69-4.58,4.43-6.29,5.57-2.01,1.33-5.17,2.39-6.94,3.6-2.18,1.49-2.6,4.55-5.32,4.34.24-5.24,3.39-6.13,6.74-8.79,7.18-5.7,14.6-12.14,22.01-17.84,9.35-7.19,20.94-12.76,26.92-22.88.6-1.02.67-2.24,1.35-3.34,11.5-18.52,32.1-24.46,52.79-25.13,1.5-.05,9.6-.41,9.67.9.05.99-3.32,2.38-3.4,5.45-.03,1.33.87,1.71.92,2.63.47,9.72.98,17.35,3.8,26.95,1.37,4.68,5.52,9.71,3.38,14.49,5.19-.46,2.76.38,3.77,3.56.37,1.16,1.68,1.95,2.21,3.06,2.78,5.75,5.71,11.2,9.22,16.56l6.79,6.13-.92,2.93c-3.83,1.24-7.97,2.03-11.72,3.52Z"/>
    </g>
  </g>
  <g>
    <path class="cls-31" d="M692.83,874.37c-1.25-5.15-.78-11.37-.73-16.76.01-1.2-.46-3.17.73-3.91-.32,6.33-.36,14.35,0,20.67Z"/>
    <g>
      <path class="cls-39" d="M294.21,894.32c.94-.08,1.18.16.71.71,2.74,1.49.52,7.92-2.14,8.55.58-1.84.31-5.65,1.42-7.83-1.82-.61-3.14.44-4.28.71-.32,2.18-3.56,3.07-4.99,1.43-4.15,2.65-8.43,5.03-12.84,7.13,1,.97.55,1.4-.71.71.4.91-.25,1.83-1.95,2.76.12,1.94-.19,3.39-.9,4.37.29,6.76-1.09,4.28-4.97,6.08-2.57,1.19-4.07,6.51-2.17,8.88,1.64.41,3.09,4.17,2.14,5.7l2.85,4.99,2.4.94c5.72,8.52,10.46,17.5,14.24,26.95,4.89,9.81,13.28,9.92,23.36,9.29,4.23-.82,8.25-1.1,12.06-.84.36-.12.98.08,1.43,0-1.06,1.3-2.35,2.33-4.08,2.69-5.47,1.13-20.25,1.67-25.29-.06-9.49-3.24-13.05-18.46-17.56-26.63s-15.24-18.4-12.81-28.95c1.04-4.53,6.01-4.54,6.67-5.44,1.59-2.19-2.06-7.4,1-11.12,1.17-1.42,5.66-2.44,7.79-3.62,8.23-4.56,8.93-5.41,18.62-7.4Z"/>
      <path class="cls-42" d="M677.14,556.55c14.81-16.38,34.95-24.54,53.84-8.55,7.84,6.64,11.49,12.82,13.9,22.8.59,5.93.7,9.85-.71,15.68,0-.95,0-1.9,0-2.85l-1.44-1.76c1.7-20.14-13.69-38.64-34.02-39.75-13.29-.73-30.12,14-34.53,25.88l-2.03,1.38c.81-5.37,2.57-8.03,4.99-12.83Z"/>
      <path class="cls-24" d="M409.02,806.67l-.74,2.66c-7.06,5.04-15.12,8.3-24.19,9.8-16.09,5.01-28.89,17.62-40.57,29.45-12.51,13.72-25.05,27.31-37.63,40.79-2.18,2.18-8.65,8.3-10.97,5.66,0-.05-.78-.2-.71-.71,2.63-.54,6.11-3.63,8.22-5.68,20.46-19.82,49.14-58.2,74.01-69.27,10.66-4.75,24.05-5.64,32.58-14.12,0,.48,0,.95,0,1.43Z"/>
      <path class="cls-40" d="M471.05,714.03c-10.48,10.09-12.19,16.79-16.02,29.95-.96,3.31-10.39,12.45-13.2,16.03-8.22,10.47-15.11,21.97-24.26,31.69v-.71c6.07-8.92,13.09-18.46,19.67-27.02,4-5.2,13.35-14.1,15.9-19.03,1.99-3.85,2.49-10.7,4.95-15.72,2.67-5.45,7.58-12.3,12.97-15.19Z"/>
      <path class="cls-18" d="M672.15,569.37c3.09-9.05,9.34-16.33,17.18-21.67,3.23-2.2,10.33-6.16,14.01-6.67,10.93-1.52,19.16,1.89,27.29,8.73,11.7,9.84,13.54,19.12,13.54,33.86l-1.77,4.98c-5.57-4.47-8.82-14.05-17.13-7.84-2.13,1.59-3.9,5.7-6.09,6.74-1.58.75-3.99.63-5.83,1.3-4.58,1.67-5.7,3.56-9.11,6.22-8.38,3.68-5.2-4.84.25-7.04,2.81-2.85,2.13-6.37-.96-8.64-3.52-1.43-4.73-.16-7.79,1.83-1.95,1.27-5.9,5.75-7.19,6.35-4.96,2.28-16.93-8.82-17.15-13.54-.06-1.36.54-3.15.76-4.62Z"/>
      <g>
        <path class="cls-47" d="M819.75,805.24v44.89c-.04,7.11,1.2,21.99-.15,28-.96,4.29-4.65,4.82-8.41,5.49-8.78.31-17.54.44-26.29.42-.42.95-.92,1.16-1.52.65.4.06.71.13.71.21.22,3.69.36,9.27-.71,12.26-4.93.58-11.03.57-16.04,0-1.33,4.89-2.2,27.07,1.22,29.87.6.49,1.35.6,2.09.7,15.63.14,31.28.24,46.94.32,1.89.4,3.89,15.7-1.24,15.08l-43-.13c-2.66-.06-4.94-.04-7.08.83l.95.12c-1.12,9.01-1.32,19.47.48,28.26l-1.43.84c2.15-.55,2.64.69.71,1.78l.49-1.43h58.9l.86,1.43c.23-.28.47-.51.73-.54,1.13-.12,1.32,18.97.34,20.49l-.12.95c-47.54.24-95.11.38-142.71.4l-.5-.64c-1.43-5.62-1.17-13.86,0-19.6-.86-1.02-.08-1.97,1.07-1.07,0-.56.15-1.42.49-1.43,17.24-.45,37.37-.93,54.49,0,2.44-.45,3.96.03,4.56,1.43l-1.39-1.15c1.65-4.35,2.98-27.18.85-29.83-8.92-.99-18.24-1.35-27.98-1.09-3.76-.6-7.65-.62-11.41,0h-10.7c-4.03-.06-2.25-13.87-.67-14.15.3-.05.65.23,1.03.61l.66-1.43h47.68l.86,1.43-.58-1.37c3.72-8.94,2.7-21.15,1.3-30.7-4.52.58-10.26.56-14.97,0-1.94.91-2.11-2.44-2.15-4.07.4-4.8.25-7.79-.44-8.95-8.55.19-17.08.02-25.58-.51-2.05-.33-4.82-.53-6.66-1.56-1.48-.83-.88-1.51-1.18-2.01,4.37,1.74,9.04,2.57,13.99,2.43,33.84.19,68.25.11,103.21-.25l2.6-.75c-.44-2.04,1.81-2.86,3.57-2.14,1.35-3.27,1.88-21.38,1.07-22.42-.38-.48-.91-.83-1.5-1.14,2.39-1.71,1.02-4.97-.31-7.39.73-16.55.74-33.07.03-49.54-.28-2.93-2.06-4.54-4.93-4.9-20.59-.76-40.81-.97-60.64-.64l-1.46.51c-.94,2.49-6.8.59-4.99-2.14-.62-.2-.61-.44,0-.71,20.56,1.26,47-2.65,66.49.19,8.57,1.25,8.06,6.98,8.39,14.07Z"/>
        <path class="cls-28" d="M817.62,879.35l-1.34-1.58,1.01-16.29c1.13-6.55-.28-10.6-4.22-12.13-37.67-.84-75.29-.92-112.87-.25-1.32.05-3.3,1.08-3.97,2.22-1.27,2.15-1.48,23.72-.47,26.02.61,1.38,1.4,2.29,2.92,2.62,34.61.84,71.13,1.09,107.1.11,2.81.16,5.56.63,8.26,1.41-.78.37-1.59,1.83-3.18,1.45-27.63.7-55.18.61-82.71-.05-10.98-.26-24.19,2.07-33.9-2.82-1.68-2.76-1.25-2.57-1.43-5.7-.71-6.83-.91-13.89,0-20.67.04-.71-.05-1.43,0-2.14,0-.09.64-.83.74-1.72.19-1.53-.71-6.5,1.06-6.83.73-.14,1.74,1.22,2.86,1.41,15.26,2.61,36.04-2.49,52.06.05,5.73-1.76,12.99.41,18.46-1.5,3.75-1.31,4.16-4.94.59-6.9-8.64-1.33-16.7-4.83-25.1-6.98-1.8-.46-3.71-.02-5.24-.46-1.41-.4-2.18-2.53-3.9-3.23-3.79-1.54-10.36-.88-14.81-2.3-5.37-1.7-8.39-6.11-9.6-11.43-5.52-9.4,3.28-9.2,11.62-8.74,11.35.54,22.67.58,33.95.13,11.59-1.69,9.88-4.22-5.12-7.57l-.52-1.64c.12-1.91.38-1.9,2.13-1.84,18.89.69,40.73-1.3,58.87.39,4.53.42,7,2.01,7.51,6.75,1.55,14.57-.26,34-.07,49.24.11,8.85,1.53,18.11.78,27.08-.17,2.06-.07,2.36-1.46,3.89Z"/>
        <path class="cls-4" d="M811.2,883.63c-8.53,1.53-17.63.34-26.38.71v12.47c0,.08-.99,1.07-1.07,1.07h-15.69c-.78,0-1.02,1.74-1.11,2.46-.4,3.4-.45,19.82.36,22.52.18.62.9,1.8,1.41,2.16,3.74,2.65,41.85-.75,49.12.8,3.54,1.06,1.96,8.73,1.88,11.65-.04,1.42.73,3.34.59,4.16-.56,3.14-10.96,1.81-13.71,1.83-12.73.1-25.48-.3-38.19.39-1.19.66-1.3,1.61-1.46,2.82-.32,2.46-.23,21.19.39,22.48.33.7,1.3,1.19,1.97,1.59,19.12,1.31,38.59.06,57.83.64,2.82.95,1.94,16.79,1.89,20.22-.01,1.2.46,3.17-.73,3.91-.61-.17-.6-.41,0-.71.32-4.54.55-13.14.04-17.49-.08-.72-.33-2.46-1.11-2.46h-60.26c.23-.7-.71-1.55-.71-1.78v-29.22c0-.17,1.23-1.41,1.75-1.49l47.76.35c2.76.2,3.27-2.99,3.26-5.28,0-1.54-.74-7.72-1.88-8.09-14.7-1.2-31.08,1.25-45.57-.07-2.21-.2-4.22-.43-5-2.84-.82-2.55-.77-23.25-.35-26.8.08-.72.33-2.46,1.11-2.46h16.04v-12.47c0-.78,1.74-1.02,2.46-1.11,7.8-.91,17.35.75,25.35.04Z"/>
        <path class="cls-5" d="M717.07,942.78c7.72,0,15.48-.06,23.21.03,1.73.02,4.43-1.39,5.68.68,1.76,2.93-.29,26.32-.37,31.36h-59.54c-.08,0-1.07.99-1.07,1.07v19.6l143.33-.71c-.02.23.04.49,0,.71-.09.51.37,1.52-.43,1.44l-142.4-.16c-1.17-.39-1.69-1.2-1.91-2.37-.52-2.78-.3-18.38.64-20.69.34-.83.69-1.61,1.48-2.12l56.67-.34c5.48-1.06,2.53-15.25,2.48-19.61-.04-3.15,2.15-5.67-1.41-7.79l-49.9-1.09c-.12-.52.36-.52,1.43,0,3.56,0,7.14,0,10.7,0,3.79-.6,7.61-.59,11.41,0Z"/>
        <path class="cls-38" d="M702.1,883.63l26.42.33c.76.47-.34,7.72.01,9.96.13.82,1.1,3.25,1.74,3.25h14.97c.78,0,1.02,1.74,1.11,2.46.43,3.62.48,24.91-.36,27.51-.17.54-1.15,2.1-1.46,2.1h-49.2c-2.38,0-1.89,9.11-1.71,11.17.13,1.41-.24,1.61,1.35,2.37h-1.43c-.94-.26-1.26-.85-1.41-1.77-.59-3.51-.85-13.92,3.34-15.18l48.4-.81c.55-.62,1.17-1.36,1.41-2.16.81-2.7.76-19.11.36-22.52-.08-.72-.33-2.46-1.11-2.46h-15.69c-.08,0-1.07-.99-1.07-1.07v-12.47c-7.52-.51-15.85.67-23.26.05-1.32-.11-1.99-.7-2.41-.76Z"/>
        <path class="cls-7" d="M819.75,850.14v-44.89c.66,14.53.09,30.25,0,44.89Z"/>
        <path class="cls-29" d="M817.62,879.35c-1.03,1.13-2.28,1.54-3.57,2.14-28.88-.09-57.77,1.34-86.67.75-2.03-.04-3.76-.73-5.64-.78-6.36-.17-17.93,1.11-23.41-.12-2.16-.48-3.83-2.3-4.11-4.45-.62-4.69-.54-18.78.02-23.57.21-1.82.64-3.12,2.2-4.21,3.47-2.42,4.97-1.06,8.12-1.08,34.25-.25,71.55-1.8,105.44-.47,3.64.14,7.63.93,8.28,5.11,1.18,7.54-.27,18.94-.67,26.68Z"/>
        <path class="cls-38" d="M717.07,942.78c-3.79,0-7.62,0-11.41,0,2.89-1.19,8.37-1.2,11.41,0Z"/>
      </g>
      <path class="cls-39" d="M271.39,905.72c2.3.78,1.14,10.82-2.14,7.84-.11-.28-.46-.52-.71-.71-.04-.92-1.32-1.99-.56-4.48.63-2.07,2.4-1.95,3.42-2.64Z"/>
      <path class="cls-39" d="M284.94,897.88c-1.08,2.59-3.94,2.5-5.96,3.66-2.19,1.26-3.4,4.21-6.87,3.46,3.76-2.5,8.59-5.53,12.84-7.13Z"/>
      <path class="cls-39" d="M266.4,938.5c-1.1-1.58-3.19-2.74-2.85-4.99,1.02,1.6,3.24,2.71,2.85,4.99Z"/>
      <g>
        <path class="cls-49" d="M501,699.78l8.65-2.07.62.65,1.43.79c-1.29,3.15-1.05,6.51-.61,9.8l-.82.46.92.32c4.37,15.17,14.86,29.73,25.32,41.57,5.18,5.86,11.19,12.43,19.29,13.09.65,1.22-.03,2.5-2.02,3.81.14,1.12-1.18,1.94-2.14,1.43-1.15,1.12-2.34,2.07-3.57,2.85-11.81,7.91-23.94,16.22-36.37,24.94-21.33,15.59-43.45,30.88-66.39,43.32-2.19,1.09-9.36,4.63-11.54,4.32-10.08-1.44-26.09-28.24-24.02-38.87,3.39-4.42,6-9.25,7.82-14.48,11.19-15.7,22.93-31.13,35.37-45.27l1.45-2.67c2.72-11.46,6.78-22.48,16.66-29.73,6.91-6.65,20.62-12.09,29.95-14.25Z"/>
        <path class="cls-2" d="M417.57,791.7c-.81,2.62-1.06,5.63-2.22,8.12-1.94,4.19-6.42,5.56-5.33,11.16,1.69,8.65,10.93,24.34,17.9,29.88,3.23,2.57,5.86,4.67,10.13,3.02,6.13-2.37,16.88-9.11,22.92-12.72,17.01-10.17,34.39-22.43,50.72-33.75.38.22.37.45,0,.71-21.08,14.56-40.85,29.27-63.57,41.58-4.48,2.43-10.57,4.27-14.15,6.16-7.4-2.05-14.52-11.15-18.41-17.58-3.06-5.06-3.24-8.36-5.12-13.06-2.81-3.15-3.29-6-1.43-8.55-.62-.19-.62-.66,0-1.43,4.32-4.3,5.52-9.79,8.56-14.25v.71Z"/>
        <path class="cls-39" d="M610.11,605v2.14c-1.05.34-2.24.82-3.57,1.43,1.01,1.13-.15,1.4-1.43,1.43l-.66,2.32c-16.99,16.68-32.78,34.6-47.38,53.75-11.16,12.61-23.58,26.61-40.22,31.21-2.02-.18-3.98-.3-5.87-.35-.38,1.93-.7,1.73-1.43,0,.44-1.46,1.82-1.33,2.97-1.66,38.84-11.04,61.57-64.04,93.49-88.28,1.47-1.12,3.29-1.43,4.08-1.98Z"/>
        <path class="cls-39" d="M638.63,704.06h.71c-.11.17.12.58,0,.71-2.73,3.13-12.69,8.95-16.74,12.13-22.39,17.56-43.07,36.52-67.18,51.87-1.39.89-2.89,1.83-4.5,2.27-.48-.39-.25-.87.71-1.43.57-.31,1.43-.98,2.14-1.43,1.45-2.77,2.88-3.72,4.28-2.85l1.37-2.08c23.41-19.18,47.11-38.01,71.1-56.47,1.43-.74,2.94-1.17,4.54-1.31.89-1.67,1.61-2.15,2.14-1.43.73-1.08,1.2-1.38,1.43,0Z"/>
        <path class="cls-39" d="M510.99,696.93c4.79-1.53,5.34.57,1.65,6.31-2.32,12.42,27.08,54.16,39.45,58.21,5.67-.08,7.66,1.21,5.96,3.89-1.46.99-2.76,1.9-4.28,2.85,3.56-4.07-1.16-3.14-3.82-4.38-11.34-5.3-39.68-42.59-39.68-54.41v-11.05c-2.75.78-6.74.84-9.27,1.43,2.38-.9,6.18-2.49,8.56-2.85.44-.07.96.02,1.43,0Z"/>
        <path class="cls-34" d="M549.49,772.46c-4.75,4.64-11.58,7.31-17.05,11.1-6.91,4.79-14.08,9.95-20.74,14.55v-.71c7.55-5.23,14.45-11.65,22.18-16.67,1.6-1.03,13.38-8.08,14.18-8.27.53-1.16,1.1-1.26,1.43,0Z"/>
        <path class="cls-39" d="M621.52,685.53c1.9-.31,3.44-.26,5.7-.71,3.64-.62,4.31.71,5.66,3.61,1.82,3.91,6.02,14.14,2.18,17.06-26.29,17.03-50.16,41.74-77.01,59.86-.26-3.34-4.28-1.7-6.93-2.69-13.53-5.05-40.97-45.21-39.89-59.57.2-2.7,2.85-3.5,2.61-6.14-.94.02-1.91-.05-2.85,0,1.74-1.2,4.07-.62,6.29-1.2,30.13-7.84,61.24-65.75,87.84-85.74,1.68-.55,15.37-.71,15.95-.13,1.24,1.26.2,2.71-1.09,3.48-16.3,10.44-31.52,23.69-31.84,44.88-.27,18.06,15.99,31.17,33.39,27.31Z"/>
        <path class="cls-39" d="M606.54,608.57c2.4-1.21,3.56.55,6.01.77,10.57.92,21.4-7.26,31.54-4.45,3.21.89,6.94,3.89,1.51,3.5-8.48-.6-15.13-.9-22.9,3.85-19.11,11.68-37.24,28.18-33.1,52.81,2.3,13.7,18.79,22.67,31.92,20.48-2.55.41-4.16,1.63-7.46,1.44-16.51-.96-27.26-14.25-26.79-30.33.43-15.01,9.84-26.96,21.06-35.96,1.8-1.44,11.3-6.98,11.7-8.27,1.11-3.54-3.27-1.7-4.49-1.77-1.16-.07-2.31-.7-3.64-.72-2.27-.02-4.37.96-6.77.07.32-.24.7-.9,1.43-1.43Z"/>
        <path class="cls-39" d="M637.2,704.06c-.12.05-1.68,1.13-2.14,1.43,2.37-4.54-.4-7.68-1.64-11.54-1.17-3.63-.78-8.8-6.2-9.12,2.03-.41,3.69-1.71,5.55,1.22.45.7,4.8,12.55,4.99,13.56.3,1.58.34,3.05-.56,4.46Z"/>
      </g>
      <g>
        <path class="cls-39" d="M289.93,896.46c.17-1.25,4.3-1.93,4.64-.88l-1.79,8.01.47.8c-15.96,10.98.07,36.51,15.39,23.39l1.5-.23c.74,4.34,1.42,8.64,2.05,12.9,13.47,3.11,16.05,8.29,13.39,21.57-.15.36-1.64.55-2.14.71-2.58,1.56-3.53,5.13-2.85,10.69-.13.38-.49,1.15-.71,1.43-.84.68-1.31.68-1.43,0-.71-.02-1.29-.29-1.35-.98-6.94,2.1-22.54,3.13-28.4-1.22-6.05-8.29-10.91-17.55-14.58-27.76-5.66-6.69-10.49-14.01-10.05-23.26-1.18,1.33-1.3,3.14-1.29,4.84l-1.37,1.34c-3.58-4.56.5-9.81,6.01-10.89.18-1.76.56-3.12,1.12-4.07,1.1-.93,1.51-.53.71.71.93,1.44,2.1,1.21,3.02-.02,3.38-4.49,6.43-6.63,12.5-6.05,3.77-.97,8.44-7.75,5.15-11.03Z"/>
        <path class="cls-24" d="M323.45,962.73c-3.72,2.43-1.39,6.49-2.85,10.69.44-2.37-1.12-9.7,1.18-10.59.56-.22,1.28.03,1.68-.1Z"/>
        <path class="cls-39" d="M308.83,930.67c1.75-.04.85,6.83,1.03,8.22.69,5.36,6.25,3.69,9.58,5.4,5.5,2.81,6.16,9.81,5.47,15.27-.45,3.51-3.13,2.01-5.74,3.57-1.84-.97-.55-2.4-.86-3.44-.93-3.19-10.78-4.45-12.31-7.67-1.74-3.66-2.77-15.06-.72-18.47.12-.2,3.31-2.86,3.54-2.86Z"/>
        <path class="cls-39" d="M261.41,927.81c-.23-3.62.12-7.63,4.27-8.55-.79,6.71.9,12.41,4.39,18.06,1.39,2.25,3.8,4.3,5.28,6.84,3.89,6.67,8.79,24,14.91,27.85,3.13,1.97,11.96,2.27,15.74,2.15,1.99-.06,7.37-.51,9.09-.89s2.36-2.08,4.06-1.99l-.71,3.56c-7.3,2.38-15.36,2.83-23.16,2.13-13.08-1.18-15.64-15.93-20.68-25.66-2.28-4.41-5.37-8.75-8.22-12.81l-2.85-4.99c-1.58-2.48-1.94-2.46-2.14-5.7Z"/>
        <path class="cls-39" d="M289.93,896.46c1.03.27,3.02-.9,2.81,1.01-.49,4.4-1.04,6.86-4.61,9.65-4.37,3.42-4.33.9-7.95,1.98-1.07.32-4.14,2.02-5.17,2.72-2.71,1.84-3.92,6.27-5.75,1.74,1.67-1.78,2.38-4.39,2.14-7.84.26-.18.45-.53.71-.71,4.4-2.1,8.67-4.48,12.84-7.13,1.55-.58,3.38-1.04,4.99-1.43Z"/>
      </g>
      <g>
        <path class="cls-6" d="M672.15,569.37l1.27.98c-1.81,4.41,1.1,7.53,4.05,10.47,7.2,7.14,10.21,7.23,17.01-.5,2.44-2,8.28-5.24,9.04-.97,4.15,2.96,3.39,7.95-1.11,9.96-4.72,3.23-4.73,9.15,1.82,5.72l-.21-1.66c4.18-4.34,8.81-6.35,14.66-7.2,8.08-11.55,14.74-11.42,23.1-.09.25-1.74,1.04-2.56,2.39-2.45v2.85c-.96,12.34-7.96,21.43-18.03,28.07-2.57,3.66-5.3,7.16-8.19,10.5-5.86-.2-10.05-.33-14.89,3.84l-5.45,2.6c-6.14,2.39-10.06,3.72-14.07-3.02-3.55-9.97-11.9-10.32-15.84-.98,3.45,25.48,8.27,50.99,14.47,76.53l-.04,3.62-.9.96c2.54,12.74,6.86,25.04,12.97,36.89,1.84,4.38,3.22,8.63,3.04,13.35,5.02,16.63,9.13,33.32,11.39,50.32.13.98.59,1.86,1.32,2.53l1.66.73c1.38,5.24,5.23,9.19,10.73,9.87,6.8-.4,12.26,1.27,16.38,5.02,7.4.82,14.79,2.68,22.17,5.59,6.43.05,16.98,5.35,8.79,10.9-2.22,1.51-16.3,1.98-20.07,2.1-14.1-.69-28.23-.45-42.39.72-4.43.31-8.49-.3-12.19-1.82.47,3.57-.26,5.83-2.19,6.79-.16-4.15.2-8.35.03-12.5-.79-18.87-10.7-31.47-18.38-47.9-8.08-17.28-12.8-30.42-18.51-48.49-3.89-12.32-9.2-24.31-14.59-36.05-.49-1.06-.38-2.21-2.03-1.86-.62-.23-.61-.46,0-.71,2.43-2.56-5.02-20.56-6.05-21.39-2.24-1.79-4.05-1.42-6.58-.42l-1.64-.99c-14.25,3.73-27-4.43-32.09-17.81-3.54-3.04-1.84-11.17-.44-15.53s5.09-12.8,9.71-12.97c6.96-8.08,16.02-14.19,24.96-19.95.39-4.32,7.73-4.98,11.53-5.21,10-.58,18.06,3.38,24.44,10.67-3.3-18.36-24.7-21.52-39.65-14.65-3.41,1.26-11.61,1.14-7.73-3.64,2.54-3.12,8.25-6.07,12.48-6.41,1.5-.33,11.24-1.37,11.66-.95.24.24.36.58.46.95l.27-.98c6.12-1.45,25.79-9.26,27.79-15.26.07-.2-.22-.51-.6-.86,2.6-4.01,1.39-4.45,2.21-8.12,1.22-5.42,3.4-9.92,7.06-13.97l.47.95c-2.38,3.68-4.46,7.57-5.46,11.87Z"/>
        <path class="cls-24" d="M312.04,934.94l-.7-.21c-.02-4.78-1.06-9.73-5.37-4.54-11.24,5.8-23.25-8.25-18.69-18.75.37-.84,7.13-9.36,7.86-10.15,13.24-12.13,25.33-25.61,37.37-39.06,13.37-14.25,27.92-29.08,47.11-34.76,9.87-2.07,15.99-3.55,23.1-11.15,2.85-4.7,5.39-8.33,7.72-1.09,4.84,11.31,11.01,24.58,23.23,29.8l.31.84c-29.7,15.74-57,33.02-84.12,52.41-9.15,6.54-18.94,13.13-27.78,19.98-1.71,1.32-9.94,7.67-10.36,8.81-.14.37.27,6.55.32,7.88Z"/>
        <path class="cls-39" d="M615.81,602.15c-.23,2.73.89,2.87,3.21,2.91,11.44.23,19.8-8.73,32.95-.93,1,.59,8.03,5.38,8.45,5.8,1.56,1.55,5.41,9.95,3.87,11.45-2.05,2.01-4.96-3.35-5.75-3.87-1.13-.75-6.97-4.34-8-4.83-7.32-3.52-17.1-2.52-23.33,2.29-9.41,5.53-17.73,12.18-24.96,19.95-7.79,6.98-11.83,18.07-9.27,28.5,1.36,1.73,2.37,3.64,3.04,5.71,6.13,10.6,17.34,14.92,29.05,12.11,4.08-.93,6.44-2.4,9.99,1.97,2.08,2.55,1.62,4.9,2.45,7.33,1.16,3.4,3.97,9.04,3.1,12.33-.23.87-1.16.99-1.28,1.18-.2.62-.44.61-.71,0,.11-4.44-3.97-17.18-6.8-20.25-.34-.37-1.28-.45-1.81-.43-32.95,9.38-52.44-20.35-32.67-48.36,5.69-8.07,18.2-18.58,27.09-23.17,7.85-4.06,14.65-3.63,23.35-3.06.77-.83,2.01-.88,3.73-.15-5.79-4.94-10.12-5.52-17.77-4.16l-11.9,3.37c-5.23,1.9-9.14,1.66-11.74-.71-1.9-.15-1.9-.86,0-2.14.24-.16.43-.52.71-.71,1.85-1.16,3.51-1.87,4.99-2.14Z"/>
        <path class="cls-7" d="M744.88,570.8c.68,2.81,1.5,5.79,1.44,8.88-.14,6.89-4.79,21.81-9.3,27.09-2.63,3.08-6.86,4.8-9.71,7.75-2.3,2.38-6.73,10.57-8.83,11.52-1.82.82-4.78-.78-7.41-.33-6.62,1.13-16.24,11.8-24.2,7.71-4.13-2.12-7.35-11.25-8.39-11.91-2.06-1.31-8.72,2.12-9.56,4.84-1.19,3.88,1.86,11.7,2.45,16.16,3.81,29.24,5.69,45.19,17.01,72.79,7.56,18.44,10.87,39.95,18.37,57.89,2.09,5,6.46,12.2,11.81,13.86,5.88,1.83,19.95,3.56,26.35,3.96v.71l-1.47,1.42c-5.93.62-25.97-2.22-30.68-5.24-5.77-3.71-10.5-16.67-12.32-23.15l.98-1.53c-1.77-3.04-2.38-6.54-2.85-9.98l-1.39-1.32c-3.68-12.01-7.8-23.88-12.35-35.62-2.84-3.46-3.73-6.35-2.66-8.67-3.89-14.69-7.02-29.18-10.04-43.77-1.17-5.67-.76-8.3-1.39-13.58-.78-6.55-3.91-16.42-4.01-22.22-.08-5.1,6.94-9.27,11.36-7.93,3.84,1.17,6.99,12.55,12.25,12.61,1.66.02,10.67-3.41,12.69-4.36s3.53-3.36,6.75-3.95c2.46-.45,6.14.4,8.03-.52.83-.41,5.01-7.02,6.4-8.57,4.16-4.67,9.17-6.25,12.43-11.09,3.88-5.76,5.97-11.25,7.55-17.75.64-4.95.68-9.93.03-14.88l.68-.8Z"/>
        <path class="cls-14" d="M410.44,815.22c-.05-.13-1.16-1.88-1.43-2.32-1.58-2.55-4.27,3.33-5.32,4.48-9.52,10.42-14.82,8.34-26.77,12.44-27.37,9.4-50.42,43.56-71.3,63.43-4.79,4.56-8.64,7.74-12.84,12.82-1.17,1.41-3.42,2.89-4.19,4.36-5.22,9.97,5.11,23.86,16.01,19.56,2.5-.98,3.16-4.01,6-3.61l1.43,8.55c.07,1.55-.53,4.32.7,5.36,1.08.91,6.64,1.62,9.07,3.05,3.19,1.88,5.26,5.31,5.26,9.06,0,2.52-.89,7.05-1.48,9.62.23-.54.15-9.72,0-11.04-1.13-9.95-11.77-7.27-13.88-10.36-1.97-2.88-.27-9.58-1.43-11.4-1.28-2-2.83,1.09-4,1.75-6.77,3.77-17.18-1.29-19.52-8.17-.61-1.78-.75-9.85-.24-11.58.47-1.58,5.53-5.3,6.27-7.63,1.03-2.15,2.37-6.25,2.14-8.55,3.54-.76,8.51-5.17,11.11-7.79,19.48-19.56,47.2-56.91,72.16-67.56,10.2-4.35,22.63-4.13,30.83-13.02-.03,3.23.3,5.52,1.43,8.55Z"/>
        <path class="cls-19" d="M667.87,578.64c3.59-.66,1.36,1.5.29,2.78-1.46,1.74-4.57,4.45-6.46,5.66-2.59,1.66-19.03,8.66-21.28,8.66h-12.12c-1.8,0-10.43,5.16-12.48,6.41-1.62.99-2.99,1.96-4.99,2.14,6.06-4.09,9.92-8.43,18.19-9.26,9.06-.91,14.61-1.53,23.33-5.19,4.63-1.94,12.8-7.01,15.52-11.21Z"/>
        <path class="cls-48" d="M682.13,707.62c1.18,4.44,2.63,5.11,4.09,8.38,5.5,12.26,8.4,24.48,12.31,37.23.48,3.43,1.07,6.94,2.85,9.98,1.59,4.58,4.16,11.92,6.29,16.16,1.49,2.96,3.87,6.62,7.01,7.96,4.4,1.88,17.68,3.84,22.8,4.29,2.46.22,4.94.05,7.4.09,1.07,2.13,3.22,1.59,4.99,2.14,2.06.64,12.95,3.39,13.55,3.91,1.72,1.46.45,4.9-1.44,5.7-1.17.49-5.84,1-7.44,1.11-13.85.98-28.82-.81-42.8,0-3.68.7-2.37,4.62-1.8,7.11-1.8.58-2.42-3.96-2.58-4.98-2.44-16.02-7.22-31.54-11.52-47.56-.46-1.71.15-3.68-.33-5.37-4.54-16.17-15.29-29.94-15.53-47.19l2.14,1.07Z"/>
        <path class="cls-27" d="M592.99,663.44c1.9,1.2.84,3.06,3.56,1.43-2.19,3.79,4.54,10.93,7.6,12.72,1.25.73,9.6,4.13,10.76,4.22,2.71.22,7.04-1.26,10.17-.56-1.45.33-2.89,1.15-4.73,1.33-11.84,1.19-24.49-7.45-27.36-19.15Z"/>
        <path class="cls-27" d="M627.22,614.98c-8.69,6.71-16.74,12.58-24.96,19.95-.02-1.4.96-1.98,1.77-2.86,6.31-6.86,14.83-13,23.19-17.09Z"/>
        <path class="cls-23" d="M703.52,579.35c4.6,1.87,4.19,6.02,1.09,9.29-2.2,2.32-5.64,2.65-4.66,7.1l4.27-.71c-1.94,1.51-5.1,2.76-5.68-.37-.47-2.54,1.52-4.38,3.35-6.07.43-.4,1.64-.46,2.3-1.06,2.62-2.36,1.13-5.78-.68-8.18Z"/>
        <path class="cls-39" d="M638.63,704.06c-.43.09-1.13-.13-1.43,0-.7-4.42-2.66-13.07-5.02-17.29-1.19-2.12-2.73-2.11-4.96-1.95-.15,2.23-5.01,2.77-5.7.71-14.85,3.69-31.23-7.06-33.01-22.44-2.68-23.12,13.45-38.38,31.49-49.79,6-7.12,16.54-6.89,25.16-6.49-4.05-1.75-8.6-1.09-12.76-.02-8.41,3.02-17.52,4.42-25.85,1.78,1.08-.79,1.07-1.97,3.57-1.43,1,.22,1.43,1.5,3.88,1.47,10.87-.18,20.07-7.78,31.65-4.54,2.3.64,12.9,6.61,12.95,8.42.08,3.01-6.4-2.11-6.96-2.3-5.44-1.81-18.35-1.8-23.66.19-2.42.91-16.26,10.95-18.93,13.15-14.99,12.33-27.24,33.77-12.84,51.32,7.69,9.37,17.65,10.67,29.21,9.22,2.21-.28,4.59-2.78,7.24-.75,1.58,5.82,5.45,12.5,6.88,18.14.37,1.44-.11,1.53-.9,2.6Z"/>
        <path class="cls-31" d="M701.38,763.2c-2.39-2.54-2.94-6.6-2.85-9.98.98,3.19,1.81,6.96,2.85,9.98Z"/>
      </g>
    </g>
  </g>
</svg>