<?xml version="1.0" encoding="UTF-8"?>
<svg id="Layer_1" data-name="Layer 1" xmlns="http://www.w3.org/2000/svg" viewBox="0 0 1080 1080">
  <defs>
    <style>
      .cls-1 {
        fill: #b2b3b2;
      }

      .cls-2 {
        fill: #757777;
      }

      .cls-3 {
        fill: #ebebea;
      }

      .cls-4 {
        fill: #e8eaea;
      }

      .cls-5 {
        fill: #beb3ab;
      }

      .cls-6 {
        fill: #5d5f5e;
      }

      .cls-7 {
        fill: #767877;
      }

      .cls-8 {
        fill: #b2b4b3;
      }

      .cls-9 {
        fill: #757877;
      }

      .cls-10 {
        fill: #282828;
      }

      .cls-11 {
        fill: #5d5e5e;
      }

      .cls-12 {
        fill: #767777;
      }

      .cls-13 {
        fill: #aeaeae;
      }

      .cls-14 {
        fill: #292928;
      }

      .cls-15 {
        fill: #b5b2b1;
      }

      .cls-16 {
        fill: #5d5e5c;
      }

      .cls-17 {
        fill: #fccaa2;
      }

      .cls-18 {
        fill: #5c5e5e;
      }

      .cls-19 {
        fill: #d84140;
      }

      .cls-20 {
        fill: #292828;
      }

      .cls-21 {
        fill: #e6b38b;
      }

      .cls-22 {
        fill: #e6b38c;
      }
    </style>
  </defs>
  <g>
    <g>
      <path class="cls-17" d="M193.79,163.5c3.95,25.51,14.64,62.44,8.92,87.75-3.24,14.36-27.75,24.24-32.02,31.52-4.58,7.81-5.51,38.14-12.21,52.51-1.59,9.34-5.51,18.71-11.77,28.11,3.52,32.19,3.97,67.09-.85,100.25-.27,1.83-1.23,3.57-2.29,5.35s-2.47,3.5-3.93,5.12c2.06.67,2.03,1.45,0,2.35-2.17,5.79-14.49,17.36-21.19,14.12-4.11-22.71-13.04-44.36-16.21-67.34-5.25-38.11-1.71-88.49,4.68-126.55,2.09-12.44,9.85-25.62,11.38-35.68,2.94-19.24-5.96-42.16,7.22-58.68,16.85-21.12,45.33-27.07,68.26-38.83Z"/>
      <path class="cls-17" d="M224.4,697.66c-6.34,17.73-8.52,36.37-12.37,54.69-8.28,39.32-5.43,74.24-11.77,112.95-3.35,20.49-12.92,41.22-15.59,62.07-1.34,10.46,2.03,21.64-2.64,31.48-2.44,4.48-14.18,11.72-18.83,7.06-3.15,1.42-5.6,3.1-9.41,2.35-.34-54.89-23.24-118.13-15.88-172.34,2.25-16.58,14.46-35.02,15.87-50.02.66-7.06-3.11-42.27-7.07-45.89,25.35-.62,52.5-.45,77.69-2.35Z"/>
      <path class="cls-17" d="M302.08,45.84c-.85,3.42,2.71,28.24,2.45,36.57-.28,9.03-1.67,25.89-3.06,34.59-1.9,11.95-6.71,33.28-20.58,34.73-2.13,2.99-3.14,4.61,0,7.06.6,9.44,4.94,11,11.77,16.47.76,34.57,16.15,86.39-38.28,77.09-34.9-5.97-39.91-66.55-51.18-93.56,3.57-2.22,15.09-10.16,16.05-13.37,2.35-7.94,2.36-23.36.43-31.33,3.24-6.03,1.83-12.86-4.22-20.51-7.35-18.05,7.38-31.8,18.66-13.2,7.68-14.19,18.94-26,30.49-37.19,2.81-1.75,36.82-4.52,37.46,2.66Z"/>
      <path class="cls-17" d="M351.52,702.37c-4.43,1.38-7.92,4.01-14.12,2.37,3.76,6.04.16,11.14-.11,17.54-.99,23.27,2.41,46.16,2.56,68.24.36,51.9-3.08,102.58-7.16,154.23-4.79,8.03-28.78,13.79-35.31,7.06.34-45.4-22.88-98.27-23.62-140.14-.18-10.14,4.03-20.61,4.75-30.5,2.09-28.49-6.18-55.92-11.73-83.5,28.07,7.91,55.97,7.8,84.75,4.71Z"/>
      <path class="cls-17" d="M302.08,182.33c12.6,6.21,27.07,8.66,39.82,17.85,31.03,22.35,23.16,52.12,26.34,84.26,6.16,62.14,16.17,123.62,20.77,186.38.35,4.74.4,5.77,4.88,8-5.04,7.43-18.05,5.68-23.54,2.35-.13,3.84-4.11,4.3-4.71,0l-5.82-3.77c-14.74-32.29-22.79-64.06-26.95-99.13l-9.6-33.58c1.03-14.62,8.19-45.48,6.92-57.39-1.16-10.86-11.38-25.12-15.18-36.72-6.75-20.64-11.28-46.69-12.93-68.26Z"/>
      <path class="cls-19" d="M339.75,954.15c1.85,1.98,7.32,17.04,11.23,22.89,8.35,12.5,34.64,38.92,37.86,51.81,4.3,17.23-48.14,25.72-64.47,12.43-3.7-3.01-5.5-8.71-8.3-10.53-5.37-3.49-23.99-3.68-27.04-8.27-6.03-9.1,4.13-42.93,5.98-54.22,4.33.66,8.66,1.56,13,2.7,1.73-20.12,15.82-22.43,31.73-16.82Z"/>
      <path class="cls-19" d="M182.02,958.86c5.31.26,9.21.66,11.31,6.35-3.9,33.55,16.78,60.41,25.79,91.38-1.14,8.06-41.82,6.95-49,4.75-9.11-2.8-23.6-23.34-23.61-33.06,0-3.4,4.51-37.7,5.19-39.73,1.42-4.23,17.65-4.91,11.48-22.64,7.41-3.35,7.93-7.6,18.83-7.06Z"/>
      <path class="cls-14" d="M302.08,45.84l-35.28,1.21c-12.91,14.5-24.93,24.62-31.81,43.46-5.96-5.19-4.85-16.07-15.27-14.06-1.28,5.16-3.13,9.11-2,14.73,1.29,6.4,18.43,18.67,1.97,22.91-2.61-10.81-8.94-21.42-10.7-32.81-4.71-30.45,9.98-61.31,42.69-65.81,7.59-1.05,40.16-1.51,46.38.29,5.09,1.47,10.21,10.34,10.65,15.39.72,8.26-5.86,11.62-6.62,14.71Z"/>
      <path class="cls-3" d="M332.69,944.74c-.21,2.66-1.67,4.62-2.37,7.04,3.74-.08,6.49-.79,9.44,2.37-15.83,1.44-29.45.99-25.89,21.19-8.49.7-14.33,1-18.84-7.07,1.01-6.18,2.3-9.02,2.35-16.47l35.31-7.06Z"/>
      <path class="cls-22" d="M280.9,151.73c.1,2.34-.15,4.72,0,7.06-5.97,3.18-26.87-10.92-28.24-9.4l-1.16,11.74-15.35-29.37c2.51-4.03,5.18.93,7.06,2.36,10.27,7.83,23.59,19.09,37.69,17.62Z"/>
      <g>
        <path class="cls-10" d="M320.92,448.23l5.39.63c6.26,14.6,12.53,29.22,18.8,43.84l-3,4.95,3.58,3.94c-9.18,24.02-8.75,44.36,6.48,65.88,4.32,7.14,4.6,11.78.83,13.93l3.23,31.56c3.35,28.24,4.49,57.08,4.81,85.5-.67,2.83-7.03,3.14-9.52,3.92-6.75.23-11.63,2.24-14.63,6.01-10.64,2.79-60.71.04-67.21-6.69-1.14-1.18-2.06-2.58-2.91-4.03-24.48-6.9-1.39-28.74-17.63-40.03-6.52,22.65,4.8,37.79-24.74,40.03-21.97,9.27-54.93,9.43-77.69,2.35-.53-.48-3.37,0-4.74-1.15-5.87-4.93-3.49-56.53-2.33-67.09,2.13-10.54,1.86-22.95-.25-33.18,8.83-4.99,14.69-9.2,21.46-15.39,17.58.81,31.69-4.17,42.35-14.96l-1.99-5.21c24.17-32.86,5.16-80.95-35.92-86.43-6.68-2.83-6.89-4-2.11-9.54-8.77-.72-5.05-22.82,2.35-23.53l2.32-4.64c50.11,1.52,100.23,3.04,150.37,4.55l2.68,4.79Z"/>
        <path class="cls-19" d="M203.21,158.79l5.46,1.01c5.74,31.42,17.12,58.84,34.15,82.25,55.34,26.53,49.59-27.24,45.23-63.88l4.62-2.92c2.73,2.19,6.55,5.65,9.42,7.06l5.26,6.13c2.92,30.56,9.56,60.7,24.44,87.28,5.59,16.65.85,49.63-3.61,66.91l-4.9,2.04c5.19,33.05,4.81,70.87-2.35,103.54l-155.37-4.71-4.48-4.41c4.08-33.2,2.3-64.81-5.34-94.82l2.76-9.01-3.4-4.03c1.81-13.28,8.27-46.52,15.91-55.69,25.87-16.77,30.94-22.37,27.91-54.72l-9.03-52.19,3.92-5.15c2.72-1.4,7.45-3.49,9.42-4.71Z"/>
      </g>
    </g>
    <g>
      <path class="cls-10" d="M857.65,448.23c2.59,11.32,11.82,25.49,15.93,37.02,18.29,51.36,19.28,138.71,21.76,194.73.63,14.17,9.79,17.73-7.09,22.38-8.12.11-14.14,2.12-18.08,6.03-21.05,1.16-42.28.43-62.89-4.31-.9-3.37-2.87-5.6-6.13-6.43-2.92-.82-5.77-2.52-9.15-2.59-.72-10.5-1.73-21.01-2.65-31.52-.26-3,2.04-10.02-3.48-8.26-5.22,1.67-1.98,30.47-7.99,38.61-2.05,2.77-12.81,1.34-16.75,3.76l-4.09,4.41c-23,1.15-46.05,1.95-69.16,2.39-1.93-2.83-4.98-4.31-9.14-4.45-1.11-.5-4.11,1.45-4.81-1.47-2.57-10.71-.66-60.89.13-74.99,3.24-57.86,22.82-118.56,25.87-175.33,1.16-1.44,2.37-2.81,3.79-3.93,14.3-11.28,120.8-3.46,145.41-1.08l8.52,5.01Z"/>
      <path class="cls-19" d="M827.05,175.27c.55.48,8.87,6.72,9.42,7.06l5.83,6.15,10.5,53.63c19.88,39.82,19.12,70.47,10.09,115.25l-5.22,6.16c-1.7,25.36-5.6,60.27,0,84.71-52.26-1.46-105.91-10.57-157.72,0,1.42-26.41-3.35-59.77,0-84.71-8.95-5.31,8.95-20.23,16.48-16.47l5.29-.56c15.48,30.35,53.46,20.79,79.64,11.48l4.52,3.2c7.89-4.11,15.11-7.92,18.83-16.47-.18-6.23,1.43-13.23,4.83-21.02-2.42-6.94-2.46-12.48-.13-16.63-9.51-9.21-21.08-15.93-34.72-20.16-.55-2.2.1-4.09,1.76-5.72-6.54-2.51,15.95-32.1,17.77-32.96s3.89-.58,5.77.02c1.94-9.49,3.8-19.26,5.59-29.33l-3.06-40.35,4.53-3.27Z"/>
      <path class="cls-17" d="M728.17,165.85l5.08,1.83,6.09,36.5-4.1,4.02c-3.09,5.7-9.17,10.43-18.27,14.2-5.47,6.65-11.15,12.11-17.05,16.39,1.08,13.33,5.41,26.62,12.99,39.88l-3.57,4.83c4.43,1.82,5,5.99,1.72,12.51,5.99-4.55,10.91-5.58,14.76-3.1,6.34-11.89,10.05-25.42,11.11-40.59,7.28-14.95,29.9-11.39,41.94-4.27,24.6-9.84,13.65,22.77,5.8,33.09l-2.66,4.82c-27.26,2.75-63.4,18.67-65.61,49.31,7.16-.04,6.59,10.41,0,11.77-5.26,5.3-15.61,9.99-16.48,16.47-18.07,7.97-36.16,28.04-57.85,18.98-9.62-4.02-15.81-35.88-14.91-45.73.73-8,5.72-13.62,6.72-19.27,2.96-16.79,6.05-30.9,9.42-47.06,3.46-16.57-.21-33.56,8.6-50.23,18.26-34.58,47.05-38.67,76.27-54.36Z"/>
      <path class="cls-17" d="M761.13,697.66c-8.67,15.14-8.63,33.99-12.35,50.01-1.62,6.98-7.61,14.8-8.69,21.91-2.94,19.42,1.35,45.17-.18,65.71-2.19,29.42-13.13,55.32-18.21,82.98-2.33,12.69-.72,28.12-5.3,40.59-2.17,5.69-10.9,7.1-16.48,7.06-16.9,7.21-10.57-10.27-11.79-19.98-5.79-46.07-22.51-112.23-13.05-156.62,2.97-13.92,11.63-27.69,13.08-41.04,1.65-15.25-3.42-29.32-2.24-44.41-.27-1.04-5.5-3.09-7.19-3.84l82.39-2.35Z"/>
      <path class="cls-17" d="M888.25,702.37c-5.24,1.44-9.52,4.01-16.48,2.38,5.97,9.84.32,20.11.02,29.41-.94,29.64,4.33,57.64,4.78,87.14l-9.51,125.79c-2.74,5.05-22.13,8.89-28.96,9.08l-3.99-4.38c-3.01-41.62-19.23-86.25-23.26-126.18-3.84-38.09,2.55-64.83-4.76-108.18-1.21-7.2,3.16-16.18-4.94-19.77,28.77,8.09,57.68,7.33,87.1,4.71Z"/>
      <path class="cls-17" d="M836.46,182.33c12.96,7.93,27.27,9.18,39.78,15.53,20.88,10.6,22.31,23.38,23.81,44.55.32,4.5-2.62,9.47,4.68,8.16,1.47,3.58-.15,7.24-4.83,10.98,2.44,4.47,4.27,8.66.12,12.56l2.87,4.16c.97,42.56,27.36,43.43,25.45-.37l6.99-3.79c-1.95-6.56,3.11-8.09,7.06-2.35,2.46-5.96,6.37-4.13,9.31,1.05,5.99-6.35,11.52-8.27,16.58-5.76,10.49,9.32,22.5,28.93,18.35,43.11-1.28,4.37-5.43,4.77-6.58,6.3l-2.41,2.62c-10.22,0-16.44,1.53-23.49,9.15l-2.03,5.76c-17.32,4.31-25,11.99-23.05,23.05l-3.17,4.13c-10,9.23-38.92,19.97-51.19,14.68-6.52-2.81-9.06-11.62-17.08-12.33,1.38-20.53,6.04-44.67,7.02-64.74,1.09-22.04-7.58-27.33-13.44-45.33-7.13-21.87-10.79-48.34-14.77-71.13Z"/>
      <path class="cls-19" d="M874.13,954.15c5.49,6,5.47,13.11,9.83,19.59,9.51,14.15,34.48,38.6,38.58,53.31,5.56,19.91-35.64,22.91-49.03,20.65-17.04-2.88-15.3-12.49-23.02-16.98-4.8-2.79-25.41-4.92-27.74-8.72-4.81-7.86,7.73-38.1,4.29-49.02,2.79-5.36,8.85-6.08,18.16-2.14-.62-19.99,12.55-22.92,28.92-16.68Z"/>
      <path class="cls-19" d="M716.4,958.86c21.76.19,11.81,22.82,14.68,38.27,1.82,9.8,26.92,58.04,22.88,62.81-13.42,2.11-34.54,4.9-47.65,1.95-9.12-2.05-24.66-24.29-25.06-33.8-.17-4.13,3.82-26.25,4.84-32.51,2.99-18.48,8.6-8.09,11.49-10.84.69-.65-.25-13.49,2.35-18.84,3.21-6.62,9.88-7.12,16.48-7.06Z"/>
      <path class="cls-20" d="M838.82,45.84c-9.76,1.62-29.63-2.79-37.69,1.15-1.35.66-18.21,20.15-19.83,22.53-4.76,6.96-5.14,15.52-11.92,20.98-5.83-4.42-3.7-19.9-13.08-13.03-3.36,2.46-2.95,14.47-1.73,18.48,1.29,4.26,8.08,7.17,8.29,9.84.28,3.54-6.04,9.11-6.42,10.64-19.45-34.58-18.57-93.74,29.57-101.04,9.13-1.38,46.82-1.64,52.74,3.46,10.98,9.46,1.42,19.36.08,26.98Z"/>
      <path class="cls-4" d="M867.07,947.09c.17.1-.42,2.9.91,3.8,1.88,1.27,4.93,1.92,6.15,3.26-4.74.79-18.32,1.29-21.3,3.42-4.76,3.41.79,15.18-6.09,17.51-8.78,2.97-12.45-7.1-19.7-2.1,1.38-8.4,8.04-7.59,7.06-21.18,6.26.17,29.29-6.85,32.96-4.71Z"/>
      <path class="cls-19" d="M725.82,292.92c-6.38,4.34-13.03,8.76-21.18,9.4-1.23-1.21,4.86-14.85,4.7-18.81,4.77-2.11,23.09,3.76,16.48,9.41Z"/>
      <g>
        <path class="cls-17" d="M838.82,45.84c-1.63,9.22,2.78,18.03,2.56,27.05-.37,15.12-4.58,56.29-11.48,68.74-3.73,6.72-11.14,7.72-12.3,13.63-2.35,11.92,2.17,13.62,9.46,20,.95,22.07,10.09,56.45-7.06,72.95-8.42,1.07-13.67-14.57-7.06-18.82-15.95-16.93-33.59-25.05-57.19-21.57l-4.02-4.31-5.23-1.36c-3.42-12.98-6.83-25.96-10.25-38.95l3.71-4.4c23.47-15.97,11.8-23.5,16.48-42.36-1.01-3.82-1.57-6.74,1.3-9.58-16.25-13.58-4.91-54.58,12.15-24.93,5.6-12.75,19.92-35.23,32.79-40.41,5.81-2.34,32.28-1.86,36.16,4.33Z"/>
        <path class="cls-19" d="M739.94,158.79l11.77,44.71c1.54,6.75-13.39,10.67-16.48,4.71l-7.06-42.36c1.43-.77,10.47-6.17,11.77-7.06Z"/>
        <path class="cls-21" d="M815.27,151.79c.78.89,2.08,7.37-3.56,7.09-9.01-.44-16.28-7.57-24.67-9.48l1.18,11.74c-3.68-2.53-18.89-29.29-17.66-30.57,9.42,3.34,15.39,11.97,24.97,16.2,4.79,2.11,19.07,4.26,19.74,5.02Z"/>
      </g>
      <g>
        <path class="cls-7" d="M812.92,229.39c2.74,6.74,2.7,13.45,7.06,18.82l-23.54,32.94c-2.06,6.05-10.17,6.72-11.77,0-3.88-7.1,7.99-27.02,4.69-30.58-1.18-1.27-8.08,2.22-10.69,2.1-3.13-.14-6-3.54-9.54-4.24-45.8-9.06-18.74,21.96-38.5,42.89-2.2,2.33-4.3,1.24-4.81,1.6-5.92-2.38-11.41-5.52-16.48-9.41-.21-4.86-9.73-18.72-11.19-27.6-1.45-8.81-.39-9.84,1.77-17.11l3.21-.11c23.93-32.64,81.54-39.64,109.79-9.3Z"/>
        <path class="cls-11" d="M812.92,229.39l-30.48-13.07c-29-5.02-66.57,3.91-80.2,31.88l-2.32-9.39c4.99-16.77,19.36-25.39,35.31-30.59,3.86-1.26,13.25-4.33,16.48-4.71,25.13-2.92,50.86.43,61.21,25.88Z"/>
        <g>
          <path class="cls-9" d="M829.4,307.04c7.72,15,5.48,19.77-1.42,35.02-.76,1.68-3.04,2.17-3.29,2.63-3.24,8.45-11.12,12.58-18.83,16.47-20.36,8.93-59.9,17.53-77.84,1.33-1.14-1.03-11.28-14.54-11.62-15.45-.21-.55.3-8.57,0-11.77,5.5-44.78,84.58-61.13,113-28.24Z"/>
          <path class="cls-16" d="M784.67,281.16c3.14-.05,9.48-.66,11.77,0,.32.09,1.06,2.85,2.59,3.33,16.26,5.09,22.41,7.09,30.37,22.55-35.82-23.76-95.51-13.04-113,28.24-.04-.41-3.15-1.78-2.34-8,3.61-27.92,45.59-45.75,70.61-46.12Z"/>
          <path class="cls-19" d="M805.86,361.16l18.83-16.47c-1.01,1.83.73,4.92-3.43,9.46-5.07,5.54-10.73,4.96-15.41,7.01Z"/>
          <path class="cls-8" d="M776.99,330.98c19.8-4.02,23.19,15.82,3.95,18.36-18.65,2.47-19.52-15.21-3.95-18.36Z"/>
        </g>
      </g>
      <path class="cls-4" d="M699.8,966.08c.21.32-.62,2.3-.79,3.16-.39,2.17-.63,4.69-.81,6.61-.17,2.47-.34,6.75-.54,8.58-.23.9-1.44,1.04-2.49.76-1.54-.3-3.36-1.19-4.79-.23-1.37.96-2.34,2.95-2.89,4.41-.15.37-.14.23-.13-.08.09-3.23.68-24.43.74-26.73,0-.09.01-.13.05-.08.31.94,1.1,3.03,2.23,3.93,2.32,1.92,5.79.76,8.41-.16.28-.09.68-.3.96-.22l.06.04Z"/>
    </g>
    <g>
      <path class="cls-11" d="M1003.6,241.15l-7.15,4.46c-32.61-1.71-59.59,9.38-86.96,23.91.06,5.2-2.71,5.04-7.12,4.58-.67,2.05-1.45,2.02-2.35,0-.37-9.16-13.2-11.01,4.71-23.53,17.4-12.17,62.52-23.3,83.71-23.65,8.97-.15,15.78,5.25,15.16,14.24Z"/>
      <path class="cls-12" d="M1003.6,241.15c-.9,12.97-21.94,15.91-30.6,21.18l-6.94,2.86c-3.84-12.69-21.93-9.34-19.16,3.73l-4.5,2.83c-2.46-.16-5.26,2.11-7.06,2.35-4.99,8.4-31.22,11.36-32.96,0l5.67-2.37c-3.92,1.34-4.54-3.19-3.29-4.65,2.27-2.66,33.88-16.41,39.49-18.2,19.13-6.1,39.28-8.9,59.36-7.73Z"/>
      <path class="cls-15" d="M942.4,271.74c-.48-.4.03-11.95.22-12.55,1.61-4.99,17.56-7.62,21.9-6.45,2.6.7.78,11.09,8.48,9.59-1.66,1.01-3.06,3.58-4.71,4.71-4.46,3.05-9.08,5.66-13.15,9.31-3.17,2.84-2.89,10.91-8.05,5.97,2.63-12.42-2.76-8.98-4.69-10.58Z"/>
      <path class="cls-5" d="M980.06,316.45c-.46.62.3,3.36,0,4.71-8.22,1.76-18.07,4.18-25.9,7.06,5.67-16.21,10.16-11.62,25.9-11.77Z"/>
      <g>
        <path class="cls-12" d="M928.27,363.52c-1.76-13.15,20.04-22.84,31.36-27.62,19.09-8.06,44.09-12.79,64.55-11.84l5.32-2.9c3.44,5.32,3.67,7.38.14,13.12-9.5,15.43-84.26,33.45-101.37,29.24Z"/>
        <path class="cls-11" d="M1029.5,321.16c1.74,15.36-2.7,5.77-12.94,6.86-30.65,3.25-68.37,10.62-88.29,35.5-1.55-.38-1.71-1.22-2.35-2.35-10.86-19.13,13.96-27.69,28.25-32.94,5.51-8.06,17.82-11.5,25.9-7.06,11.63-2.49,42.33-10.98,49.44,0Z"/>
        <path class="cls-13" d="M987.11,342.35c.83,9.6-15.46,6.55-21.17,7.02,3.84-7.94,13.79-7.35,21.17-7.02Z"/>
      </g>
    </g>
    <g>
      <g>
        <path class="cls-7" d="M393.89,478.82c46.62,5.12,64.04,64.46,32.96,98.83-61.32,40.68-116.2-63.21-56.5-96.48,8.39-2.05,14.17-3.38,23.54-2.35Z"/>
        <path class="cls-6" d="M370.35,481.17c11.86-.19-4.74,6.29-6.83,8.47-34.17,35.61-2.01,101.3,47.83,92.5l15.5-4.49c-21.77,24.07-48.32,19.38-72.95,2.35l2.33,32.94c-1.06-8.93-2.72-27.58-5.36-35.82-6.89-21.48-19.08-24.51-15.55-54.52.34-2.87,6.01-23.93,6.79-24.96,1.52-7.68,16.61-22.06,23.54-16.47,1.08-.43,3.3.35,4.71,0Z"/>
        <path class="cls-8" d="M393.22,516.79c16.03-4.44,23.26,28.87,2.36,22.76-9.94-2.91-12.63-19.91-2.36-22.76Z"/>
      </g>
      <g>
        <path class="cls-18" d="M139.65,476.47c17.16-6.33,10.58,7.26-.74,14.22-33.56,36.69,14.13,101.17,58.77,75.43l5.53,2.12c-.54.77-.26,3.5-2.18,5.95-1.76,2.24-12.7,9.11-15.72,10.28-9.48,3.67-15.5,1.04-22.81,3.08-1.14.32-18.7,12.63-19.31,13.64-3.27,5.43-.15,17.95-1.09,24.88-.4,2.98-2.4,5.28-2.45,5.69l-.02-30.59c-64.3,18.53-98.48-82.98-35.29-105.89l11.77-2.35c.61-1.17,1.8-1.64,2.35-2.35,3.24-4.15,15.67-12.97,21.19-14.12Z"/>
        <path class="cls-2" d="M116.11,492.94c-.49.94-6.73,18.94-6.92,20.14-.73,4.47-.48,29.63.79,32.93,1.04,2.69,4.75,2.69,5.41,4.04,1.48,3.02.67,6.47,2.99,9.99,9.56,14.51,19.68,21.34,35.39,28.21-42.01,18.24-76.67-24.24-67.24-64.88,2.74-11.79,11.72-17.71,19.69-25.06,5.74-5.31,2.27-2.38-1.87-3.01,3.88-1.41,6.53-3.92,11.77-2.35Z"/>
        <g>
          <path class="cls-7" d="M163.19,467.05c-1.85,6.51,9.47,5.32,16.46,8.27,34.07,14.38,45.5,51.39,30.11,84.26-.25.53-5.15,6.64-6.55,8.66-56.34,37.08-114.22-55.51-56.52-89.45.87-3.6-5.23-2.7-7.04-2.32v-2.35l2.55-5.47c7.21-1.19,14.2-1.72,20.99-1.59Z"/>
          <path class="cls-1" d="M167.2,509.72c17.78-4.36,21.45,32.35,1.36,23.82-10.71-4.55-10.47-21.58-1.36-23.82Z"/>
        </g>
      </g>
    </g>
  </g>
  <polygon class="cls-4" points="153.79 968.26 151.8 988.34 152.96 987.02 156.1 985.08 159.69 982.78 161.62 981.03 163.13 978.97 163.93 977.22 164.46 974.98 164.58 972.68 164.38 970.54 163.8 967.87 163.19 965.92 161.23 967.04 158.19 968.08 155.84 968.45 153.79 968.26"/>
</svg>