<?xml version="1.0" encoding="UTF-8"?>
<svg id="Layer_1" data-name="Layer 1" xmlns="http://www.w3.org/2000/svg" viewBox="0 0 1080 1080">
  <defs>
    <style>
      .cls-1 {
        fill: #dbdbda;
      }

      .cls-2 {
        fill: #c9c9c9;
      }

      .cls-3 {
        fill: #eecaa6;
      }

      .cls-4 {
        fill: #dcac86;
      }

      .cls-5 {
        fill: #facba6;
      }

      .cls-6 {
        fill: #e2b189;
      }

      .cls-7 {
        fill: #d9d9d9;
      }

      .cls-8 {
        fill: #e2e2e0;
      }

      .cls-9 {
        fill: #ebc5a1;
      }

      .cls-10 {
        fill: #facca7;
      }

      .cls-11 {
        fill: #3f382f;
      }

      .cls-12 {
        fill: #d5d5d5;
      }

      .cls-13 {
        fill: #ddd;
      }

      .cls-14 {
        fill: #e9e9e4;
      }

      .cls-15 {
        fill: #facba7;
      }

      .cls-16 {
        fill: #282828;
      }

      .cls-17 {
        fill: #d5d5d4;
      }

      .cls-18 {
        fill: #36332c;
      }

      .cls-19 {
        fill: #fccca7;
      }

      .cls-20 {
        fill: #dddedd;
      }

      .cls-21 {
        fill: #d8d8d7;
      }

      .cls-22 {
        fill: #3f3b32;
      }

      .cls-23 {
        fill: #dadad9;
      }

      .cls-24 {
        fill: #50473c;
      }

      .cls-25 {
        fill: #edc6a4;
      }

      .cls-26 {
        fill: #dbdbdb;
      }

      .cls-27 {
        fill: #fbcca7;
      }

      .cls-28 {
        fill: #e2b188;
      }

      .cls-29 {
        fill: #d84140;
      }

      .cls-30 {
        fill: #deb087;
      }

      .cls-31 {
        fill: #ecc5a1;
      }

      .cls-32 {
        fill: #cda784;
      }

      .cls-33 {
        fill: #2e2d2b;
      }
    </style>
  </defs>
  <g>
    <g>
      <path class="cls-19" d="M336.07,691.45c1.11,12.95-1.73,27.91.2,40.51,1.47,9.6,8.27,17.56,9.59,29.51.91,8.21-.7,70.67-3.25,73.31-.79.82-22.08.82-22.87,0-.59-.62.16-12.49-.83-17.07-9.01-41.83-17.29-79.31-31.79-119.74,19.58,6.88,32.13,3.74,48.94-6.51Z"/>
      <path class="cls-27" d="M254.5,697.96c-4.67,28.99-5.21,60.13-10.69,88.66-2.65,13.79-9.84,27.55-12.15,41.61-4.82,11.48-17.19,3.7-22.84-3.26-1.38-13.36-3.81-37.87-3.48-50.5.52-19.72,13.02-53.59,6.74-73.26,12.87-.76,30.08-.96,42.42-3.26Z"/>
      <path class="cls-29" d="M205.56,838.01c13.92-6.79,19.84-2.51,26.1,9.77,2.47,8.98,12.24,16.4,3.49,27.92-.84,1.1-19.72,17.39-21.07,18-7.3,3.27-22.95,4.6-29.47.01-9.45-6.64,9.57-26.63,12.9-32.81,4.38-8.13,5.66-18.21,8.06-22.91Z"/>
      <path class="cls-29" d="M354.63,895.02c.36,2.45-1.46,4.68-3.93,4.83-25.36,1.49-32.69,2.67-34.32-27.8-1.47-27.35,6.75-16.41,13.01-19.27,4.98-2.27,9.66-14.65,18.2-5.08l7.04,47.32Z"/>
      <path class="cls-20" d="M91.36,484.98c1.3,8.81.18,8.91-6.53,3.26-1.55-13.09.41-27.99,0-37.57-1.45-33.69-8.11-67.36-9.76-100.88-1.89-38.55,40.04-140.92,66.94-162.67l-57.18,124.29c-3.09,52.94.97,116.77,6.53,173.58Z"/>
      <path class="cls-13" d="M453.53,463.46c-1.04,8.65-4.04,8.28-6.53,0,.28-43.23.92-75.69,3.23-118.91,2.01-37.64-3.62-76.87-17.37-112.22,16.86,5.88,23.02,51.32,23.87,69.94,1.91,41.86-17.55,125.31-3.21,161.19Z"/>
      <path class="cls-33" d="M300.18,329.92l-6.49,9.76c.27-4.6-.72-20.43-3.76-22.33-1.47-.92-29.98-1.38-33.29-.6-5.26,1.24-3.19,16.42-8.67,19.69-1.12-17.3-3.65-35.79,18.19-38.95,25.09-3.63,34.49,9.63,34.02,32.44Z"/>
      <path class="cls-22" d="M453.53,463.46c.67,1.68,2.25,4.48,3.26,6.51,2.35,11.1,1.27,23.05-3.26,35.83-2.02.74-6.81-.33-9.79,0-2.61-13.38,2.86-26.86,3.26-39.08.04-1.08,0-2.17,0-3.26h6.53Z"/>
      <path class="cls-8" d="M231.66,828.24c-1.53,9.35-2.47,10.56,0,19.54-12.67,2.84-10.92-14.27-26.1-9.77l1.89-2.8c.89-1.32,1.37-2.88,1.37-4.48v-5.75s22.84,3.26,22.84,3.26Z"/>
      <g>
        <path class="cls-27" d="M241.45,388.55c-.39,27.21,1.15,49.32-19.58,68.4-3.07,1.09-5.25,3.26-6.53,6.51.22,1.03-.16,2.2,0,3.26-8.35,4.28-11.19,13.27-17.79,19.69-36.96,35.95-51.83,28.81-99.67,35.68-7.02-3.33-6.39-5.9,0-9.77-5.77-8.28-6.86-14.79-3.26-19.54,11.07-2.08,13.71,10.42,24.16,9.83,3.51-.2,43.2-19.96,46.19-22.67,1.25-1.13,14.61-26.6,15.88-29.75,3.97-9.83,2.4-20.86,8.32-30.78,7.89-13.24,38.34-25.22,52.29-30.86Z"/>
        <path class="cls-5" d="M306.71,388.55c4,1.69,11.49.86,17.01,3.47,33.97,16.06,29.37,84.12,89.81,96.69,25.64,5.33,13.26-12.16,33.48-22,4.6,1.17,2.03,31.05.73,36.6-.25,1.08-1.92,1.83-3.99,2.49-66.32,7.25-72.41,4.59-114.2-43.79-1.01-1.17-3.15,1.59-3.27,1.45-3.23-3.89-2.81-5.88-3.26-6.51,3.1-4.86,2.01-7.03-3.26-6.51-10.22-20.76-15.23-37.87-13.05-61.88Z"/>
        <path class="cls-5" d="M247.98,336.44l4-22.28c3.88-6.67,36.59-5.34,40.68-1.85,5.63,4.8,3.68,27.2,1.03,27.38-.73.05,2.22-14.34,6.49-9.76-.29,13.88-5.08,26.05-9.79,39.08-11.4,9.78-11.4,11.95,0,6.51,2.04,4.72,5.37,7.4,9.79,9.77,4.03,22.73-10.98,66.73-40.29,51.69-21.26-10.9-5.75-31.63-15.18-48.44,19.35-8.95,4.41-34.38,3.26-52.11Z"/>
        <path class="cls-25" d="M97.89,512.32c.18,2.23,3.15,5.68,0,9.77-2.45.35-4.67,4.4-9.7,1.81-11.31-5.82-14.47-28.28-3.36-37.64,5.46,6.16,9.81,14.84,13.05,26.06Z"/>
        <path class="cls-3" d="M453.53,505.8c-6.36-10.53-.03-24.8,3.26-35.83.29.58,4.7,1.44,5.91,5.43,2.29,7.53-1.65,27.66-9.17,30.4Z"/>
        <path class="cls-24" d="M94.62,492.77c.98,6.63,2.59,11.38,3.26,19.54-7.18-6.43-11.92-16.51-13.05-26.06,1.6-1.35,4.62-1.97,6.53-3.26.21,2.11,2.72,6.14,3.26,9.77Z"/>
        <path class="cls-6" d="M290.39,375.52c-3.62,9.23-21.01,14.37-26.1,3.29l26.1-9.8c-.61,1.69.63,4.92,0,6.51Z"/>
        <path class="cls-30" d="M221.87,456.95c-1.85,1.7-2.86,5.69-6.53,6.51-.84-3.95-5.91-9.48-3.23-16.28l9.76,9.77Z"/>
        <path class="cls-32" d="M319.76,450.43c6.54-1.74,4.6-10.76,9.76-9.76-.72,8.79,4.01,18.63-6.49,16.27-1.76-2.46-2.14-4.23-3.26-6.51Z"/>
      </g>
      <g>
        <path class="cls-16" d="M336.07,691.45c-3.2,18.23-40.32,23.85-48.94,6.51-2.16-6.02-8.6-31.64-11.45-32.59-10.13-3.37-2.09,26.35-5.01,29.19-.59.58-13.36,2.88-16.17,3.4-3.75,11.46-36.3,13.27-42.42,3.26-1.92-6.01-10.85-1.84-9.95-24.53,1.72-43.51,14.9-86.58,19.74-128.55l7.85-5.53c27.04,3.41,54.88,5.38,81.45-1.81l8.59,4.08c.1,1.4,6.6,10.19,7.74,16.72,6.93,39.63,13.29,79.36,21.45,118.76-.03,7.49-8.01,8.13-12.87,11.09Z"/>
        <path class="cls-29" d="M306.81,388.69c5.51,7.56,9.53,17.53,9.47,30.31,0,.05,0,.09.02.14l7,29.47,1.93,7.92,1.21,6.79c.02.14-.16.23-.18.37-2.65,23.33-3.64,46.39-3.24,69.96.07,4.13-2.85,9.24-3.22,10.92-.05.21-.19.39-.4.47-29.89,10.61-65.94,7.44-96.94,3.21-.33-.04-.56-.34-.52-.67,2.81-25.54-2.94-56.38-6.71-81.65l.16-2.57,2.88-10.51c.02-.06.04-.11.07-.16l2.28-3.63s.01-.02.02-.03c11.45-15.41,16.45-33.85,15-55.3-.01-.2.07-.39.22-.51l5.5-4.55c.07-.06.14-.1.23-.13.95-.28,2.3.43,3.14.04,7.97-2.1,9.28,3.32,9.72,10.54,0,.03,0,.07,0,.1-5.55,54.75,42.39,38.12,39.84-7.92,0-.18.06-.35.18-.47l5.4-5.19c.19-.18.48-.23.71-.1,1.78.95,4.29,2.25,5.99,2.98.1.04.19.11.25.2Z"/>
      </g>
    </g>
    <path class="cls-2" d="M933.17,893.35c-15.15,1.63-32.14,5.81-47.17,6.69-46.48,2.7-110.39,2.67-156.89,0-9.94-.57-34.29-3.2-42.63-6.29-4.53-1.68-5.58,1.03-4.53-6.86,73.67-6.21,152.66-11.66,226.34-2.87,7.15.85,21.81,2.03,24.88,9.33Z"/>
    <path class="cls-26" d="M436.22,234.73c-9.9-.55-35.8-23.37-38.39-25.6-7.65-6.59-9.23-3.82-18.07-7.12-14.69-5.48-124.14-20.55-172.48-22.62-22.9-.98-18.59-1.09-38.67,3.36-6.85,1.52-32.77,7.27-27.93,4.35,40.54-14.75,99.58-12.28,150.8-5.26,45.85,6.28,85.44,16.21,99.89,20.69l44.85,32.2Z"/>
    <path class="cls-23" d="M750.45,619.8c-31.47-8.23-82.97.28-101.18-30.91,5.91-.85,9.83,8.07,15.15,10.93,8.53,4.58,81.41,16.35,84.47,13.33"/>
    <path class="cls-7" d="M538.37,496.03c-1.48,21.99-9.87,36.51,11.4,52.14,24.43,17.95,67.77,8.18,89.75,29.26-50.72-18.95-130.03-4.84-101.15-84.65,1.45,1.01,1.41,2.09,0,3.26Z"/>
    <path class="cls-21" d="M642.78,456.95c.07,4.03-2.71,5.44-6.53,6.51,3.52,3.8,3.52,5.97,0,6.51-7.41-14.1-5.9-18.77-25.24-22.01-21.8-3.65-46.59,3.13-59.59,22.01.99-1.4.74-5.41,3.14-8.14,23.86-27.14,60.62-25.62,88.22-4.89Z"/>
    <path class="cls-1" d="M995.17,437.4c11.91-9.56,37.56-21.66,46.54-2.48,4.36,9.33.8,21.49-7.08,31.05-.09.11-.26.1-.25-.04.61-10.42,11.97-26.24-.03-33.44-12.23-7.34-23.36,2.51-32.66,4.91-1.86,6.14-4.77,6.19-6.53,0Z"/>
    <path class="cls-17" d="M982.11,522.09c-8.23,7.82-119.71,93.46-107.19,73.68,15.77-10.48,98.26-68.11,107.19-73.68Z"/>
    <path class="cls-17" d="M979.24,524.3c5.76-5.47,47.08-57.35,56.18-59.34.8-.18-11.34,15.56-29.93,35.87-9.1,7.52-17.98,18.32-26.24,23.47Z"/>
    <path class="cls-12" d="M538.37,496.03v-3.26c4.79-13.22,6.03-12.82,13.05-22.8-3.83,5.56-4.88,20.89-13.05,26.06Z"/>
    <g>
      <path class="cls-16" d="M867.92,636.08c-1.04,15.77-38.2,21.16-42.42,6.51-3.48-.74-7.72-5.49-11.43-5.36-2.86.1-5.81,4.66-8.15,5.36-10.61,12.24-38.45,22.42-45.68,3.26-2.02-6.77-8.34-8.31-9.79-26.06l-1.86-7.9,1.86-57.24c3.31-15.27,14.33-39.33,16.31-52.11l7.71-4.89c26.83,6.1,55.54,8.94,81.65-1.65l8.52,3.28c14.96,41.67,8.04,61.26,10.56,101.79,1.02,16.35,14.84,21.89-7.29,35Z"/>
      <path class="cls-27" d="M991.77,440.71l1.94,4.08c-7.98,8.21-15.15,16.62-21.52,25.24-22.41-12.92-17.17-6.71-40.5-10.05-14.51-2.08-31.58-13.1-41.16-24.05-7.64-8.74-9.22-22.7-19.48-24.52.14-2.28,8.26-17.44,9.21-17.04,3.46,1.42-7.84,18.73-15.74,13.79-1.73-2.37-7.82-4.91-11.2-9.95-13.86-20.66-11.96-44.43-11.64-68.22,12.09,5.49,33.9,8.78,42.49,17.84,12.88,13.58,16.21,49.97,26.42,64.82,1.73,2.51,25.5,23.49,29.28,26.14,24.38,17.12,26.27-.14,51.9,1.93Z"/>
      <path class="cls-10" d="M783.08,336.44c-3.18,26.74-5.38,59.77-22.84,81.42-.15.18-2.06-3.41-4.68-.29-11.89,14.17-22.26,35.83-39.8,45.46-8.13,4.46-47.77,12.52-50.14,16.71-4.06,5.01-21.72-13.21-19.58-19.54,8.74-7.44,18.46,1.73,26.98-.47,10.85-2.79,29.79-29.63,44.05-32.84,4.81-18.38,9.78-40,15.37-57.95,6.91-22.16,30.98-26.32,50.63-32.51Z"/>
      <path class="cls-19" d="M867.92,636.08c2.71,11.29-3.21,23.95-2.94,33.85.34,12.23,6.75,24.55,6.42,39.46-.42,19.13-8.16,43.02-10.01,63.48-.97,9.77-17.32,9.04-19.58,0-.22-16.61-9.79-37.88-9.79-47.23v-48.85c0-4.63-11.75-23.71-6.53-34.2,15.4,3.27,28.4,1.79,42.42-6.51Z"/>
      <path class="cls-19" d="M799.25,653.78c-7.71,37.46-7.09,63.55-18.66,102.04-1.2,3.99-.26,13.22-.79,13.79-.78.83-22.05.85-22.85.03-2.22-2.29-3.91-56.18-3.36-63.64,1.25-16.92,11.32-44.47,6.64-60.14,14.82,7.69,26.32,5.48,40.85,1.15"/>
      <path class="cls-29" d="M774.73,794.32c.75,1.27,4.6,1.54,5.06,3.69.71,3.37-10.85,44.54-12.74,47.63-5.99,9.81-30.9,8.55-29.02-11.7.58-6.28,20.15-54.19,23.82-54.46,9.1,3.19,9,8.27,12.89,14.84Z"/>
      <path class="cls-29" d="M841.81,785.9c5.39-12.83,17.69-7.3,16.31,6.51-.39,12.65,7.2,30.79,2.59,46.56-2.18,7.47-13.66,16.82-22.27,14.06-25.96-8.33.68-50.34,3.36-67.13Z"/>
      <path class="cls-31" d="M659.09,489.52c-19.78,1.73-16.74-7.94-22.84-19.54,0-2.17,0-4.34,0-6.51,7.35-4.63,32.58,19.31,22.84,26.06Z"/>
      <path class="cls-9" d="M978.85,473.23c-7.15-8.7,12.5-32.4,22.84-29.31-.11,14.37-6.75,28.6-22.84,29.31Z"/>
      <path class="cls-18" d="M1001.69,437.4c-.01,2.17.02,4.34,0,6.51-9.05,7.5-23.51,16.36-22.84,29.31-4.57.2-4.69-2.2-6.53-3.26,2.93-10.07,12.22-22.27,19.58-29.31,1.09-1.04,2.1-2.33,3.26-3.26,2.07-.31,4.72.47,6.53,0Z"/>
      <path class="cls-14" d="M861.39,772.87c-.62,6.8-3.11,14.51-3.26,19.54-3.36-7.59-8.63-7.42-16.31-6.51.59-3.68.05-8.98,0-13.03h19.58Z"/>
      <path class="cls-11" d="M642.78,456.95c1.15.86,2.08,2.28,3.26,3.26,5.74,4.74,10.9,16.22,19.58,19.54-2.4,4.23,5.74,8.7-6.53,9.77,1.62-13.96-14.18-18-22.84-26.06-.02-6.81-1.45-7.28,6.53-6.51Z"/>
      <path class="cls-4" d="M864.65,408.09l16.28-16.27c-1.65,4.58,4.76,17.87,3.27,19.52-.88.98-4.26-5.13-13.02,0-1.09.64-2.02,2.44-3.26,3.26-.24-1.32-2.31-5.21-3.26-6.51Z"/>
      <g>
        <path class="cls-15" d="M786.34,284.33l1.69-6c-7.66-27.63,50.73-36.5,47.26.03l3.26,2.71c-.97,14.85-10.18,30.49-6.66,43.51.44,1.63,7.37,4.18,9.92,5.34-8.25,14.49-5.93,33.47-15.57,47.97-7.21,10.84-16.32,13.82-28.08,7-13.16-7.63-8.98-36.71-8.55-51.71.7-24.71-.91-26.64-3.26-48.85Z"/>
        <path class="cls-33" d="M838.55,281.07c-12.09,9.21-2.07-9.46-11.1-16.59-5.97-4.72-31.46-2.67-34.23.64-3.54,4.23,5.96,21.84-6.88,19.21-2.62-24.74,5.8-49.45,34.96-39.89,19.73,6.46,18.42,18.49,17.24,36.63Z"/>
        <path class="cls-28" d="M796.17,316.9c1.93-2.1,9.93,16.5,24.16,6.21,4.59-3.32,3.39-9.67,8.41-9.46,2.37,20.99-30.59,23.15-32.56,3.24Z"/>
      </g>
      <path class="cls-29" d="M866.51,404.05c2.62,7.27,2.61,6.29,3.02,10.56-2.37,25.82-13.37,61.01-4.87,84.68-30.97,15.38-65.55,11.08-97.89,3.26,3.91-25.19-1.33-59.69-6.53-84.68l-2.12-8.11c10.97-20.97,16.24-46.23,17.26-71.01l4.38-1.32c1.61-.51,3.32-1,6.79-1.97l3.02-1.09c-4.57,72.83,40.58,43.05,45.3-7.52l6.94,3.08,7.78,3.04c-3.84,26.6.47,50.42,15.61,67.1l1.31,3.99Z"/>
    </g>
  </g>
  <polyline class="cls-12" points="549.93 472.06 552.26 467.32 553.01 467.81 550.2 472.25"/>
  <path class="cls-12" d="M637.24,575.92c9.02,4.82,11.53,6.2,15.3,16.22"/>
  <path class="cls-14" d="M319.34,854.13c.73.57,1.6-.15,2.92-.24,1.4-.12,2.95-.08,4.36-.28,5.43-.48,7.97-6.53,12.89-8.42,1.27-.47,2.61-.52,3.9-.16,1.07.27,4.34,3.62,4.16,2.67-.91-4.68-3.28-16.14-4.46-15.11-2.91,2.56-2.78,1.79-7.72,2.18-4.23.14-14.53-4.1-15.66,0-.8,2.91-.76,4.46-1.42,7.57-.46,3.2-2.31,9.95-.1,12.29l1.11-.5Z"/>
  <path class="cls-14" d="M756.96,769.64c-.05,1.91,1.48,14.22,1.48,14.22l3.39-4.38,4.75,2.34,2.81,2.66,1.86,2.97,1.26,2.61,2.2,4.26,4.77,3.02.31-27.72-22.85.03Z"/>
</svg>