<?xml version="1.0" encoding="UTF-8"?>
<svg id="Layer_1" xmlns="http://www.w3.org/2000/svg" viewBox="0 0 994.86 938.6">
  <defs>
    <style>
      .cls-1 {
        fill: #6e7774;
      }

      .cls-2 {
        fill: #d9a67d;
      }

      .cls-3 {
        fill: #060606;
      }

      .cls-4 {
        fill: #daa680;
      }

      .cls-5 {
        fill: #282828;
      }

      .cls-6 {
        fill: #9e9e9a;
      }

      .cls-7 {
        fill: #f0c8a4;
      }

      .cls-8 {
        fill: #4f5352;
      }

      .cls-9 {
        fill: #292928;
      }

      .cls-10 {
        fill: #fccca7;
      }

      .cls-11 {
        fill: #d8a47c;
      }

      .cls-12 {
        fill: #4e5452;
      }

      .cls-13 {
        fill: #0a0a0a;
      }

      .cls-14 {
        fill: #dca580;
      }

      .cls-15 {
        fill: #d8a67e;
      }

      .cls-16 {
        fill: #505350;
      }

      .cls-17 {
        fill: #9c9e9c;
      }

      .cls-18 {
        fill: #4e5350;
      }

      .cls-19 {
        fill: #9b9f9e;
      }

      .cls-20 {
        fill: #9d9e9e;
      }

      .cls-21 {
        fill: #fbcca7;
      }

      .cls-22 {
        fill: #d8a67f;
      }

      .cls-23 {
        fill: #d84140;
      }

      .cls-24 {
        fill: #6e7674;
      }

      .cls-25 {
        fill: #dba880;
      }

      .cls-26 {
        fill: #6f7674;
      }
    </style>
  </defs>
  <path class="cls-5" d="M923.64,396.81c.8,34.67,13.09,66.5,24.08,98.7,8.25,24.19,6.07,49.43,6.44,74.37.03,1.81-1.28,2.94-3.06,3.39-12.71,6.68-26.53,5.72-40.19,5.79-8.94-1.09-18.2,1.56-26.9-2.29-4.86-4.44-4.33-10.7-4.84-16.32-1.92-20.99-4.26-41.99-3.32-62.12-4.35,4.32-3.61,11.15-3.89,17.8-.8,19.52,1.97,39.14-1.66,58.59-.92,2.02-2.36,3.57-4.18,4.8-24.18,8.84-48.56,9.05-73.12,1.67-5.06-.28-8.29-1.44-7.81-8.02,2.48-34.03-6.34-67.07-8.95-100.59-2.16-27.8,7.07-54.97,16.9-81.2,13.04-6.13,26.74-3.42,40.11-2.34,13.56,1.1,27.14,2.11,40.69,3.26,14.1,8.6,28.75,9.28,43.95,3.09,1.93-.79,4.13-.21,5.78,1.41Z"/>
  <path class="cls-23" d="M875.54,393.27c-7.65,6.51-16.15,1.62-23.93.99-19.49-1.58-38.89-3.87-58.49-2.87,1.52-9.37,3.01-18.74,4.55-28.11,3.22-19.52-1.09-37.86-8.14-55.96-5.26-13.5-9.68-27.33-14.47-41.01,3.2-6.65,10.68-6.69,15.85-10.3,4.7-2.6,8.17-6.52,11.48-10.63,15.98-22.12,16.28-51.25,1.06-74.82-2.95-4.57-8.97-8.3-5.74-15.3,3.42-1.62,6.83-3.24,10.25-4.85,12.52,5.97,20.46,17,29.21,26.99,7.44,8.5,13.57,18.06,19.35,27.8,3.02,5.08,6.29,10,11.32,13.25,6.42,4.14,13.43,8.13,21.13,4.84,8.18-3.49,8.68-11.65,8.87-19.3.18-7.52.38-15.06-1.01-22.54-.76-4.04-1.95-8.34,2.13-11.57,4.58.84,8.65,2.8,12.38,5.54,6.4,10.29,12.78,20.57,21.7,29,2.12,2.01,4.22,4.63,4.49,7.43,1.78,18.89,7.67,37.95-.31,56.64-3.36,7.89-5.36,15.77-4.96,24.29-3.49,19.47-.79,39.31-3.63,58.8-2.68,5.93-8.59,5.99-13.69,7.17-6.1,1.42-12.03,3.02-17.74,5.75-12.31,5.87-21.7,13.72-21.64,28.79Z"/>
  <path class="cls-23" d="M96.57,160.3c4.69-3.28,9.39-6.55,14.08-9.83,8.93,2.01,13.49,9.47,18.75,15.71,10.76,12.76,20.94,25.97,29.27,40.55,5.06,8.87,11.65,16.23,22.35,18.72,10.51,2.44,15.83-.3,18.73-10.75,2.39-8.64.77-17.3,0-26.06-.55-6.21-5.77-13.55,2.06-19.04,4.12,2.22,9.26,3.01,11.37,8.06,7.37,9.96,16.33,19.19,22.35,29.58,10.31,17.78,9.8,38.11,4.17,57.84-1.46,5.13-4.07,9.97-5.45,15.21-1.45,18.72-3.48,37.39-3.63,56.19-.04,5.01.25,10.05-1.26,14.93-2.17,5.45-7.33,6.23-12.09,7.48-4.4,1.16-8.97,1.68-13.21,3.48-15.44,6.57-28.96,14.64-27.36,34.68-1.94,1.81-4.36,2.9-6.86,2.65-24.88-2.49-50.04-3.36-73.91-12.04-5.29-15.63-2.04-31.76.58-46.8,5.95-34.12,7.52-68.84,16.59-102.63,6.29-23.43,3.21-47.52-13.12-67.83-2.31-2.88-5.06-5.79-3.43-10.09Z"/>
  <path class="cls-5" d="M96.15,385.97c22.11,4.34,44.39,7.52,66.81,9.6,4.7.44,9.94,2.63,14.11-1.86,13.38,7.1,26.97,7.98,41.06,1.94,3.17-1.36,6.59-.59,8.12,3.36-.98,31.1,9.66,59.59,20.34,87.95,9.8,26.02,8.34,53.18,9.67,80.11.16,3.29-.51,5.73-4.24,6.24-5.21,4-11.6,4.46-17.62,4.87-16.39,1.11-32.82,1.69-49.23,2.78-2.94-.6-5.67-1.54-6.75-4.76,4.99-20.74-1.79-41.32-1-62.03.17-4.52-1.03-9.09-.36-13.72-2.59,4.77-1.68,10.11-1.95,15.24-1.03,19.88,2.18,39.9-1.97,59.71-1.1,1.96-2.66,3.42-4.66,4.43-24.82,5.6-49.64,11.44-74.73,1.29l-5.07-1.1c-2.13-2.54-1.41-5.61-1.24-8.41.43-6.97-3.24-16.08,1.69-20.37,5.04-4.38,11.82,3.49,18.27,4.62,5.04.88,9.88,1.36,14.76-.36,26.99-5.75,39.58-60.05,17.35-84.18-6.59-7.15-14.61-8.94-23.71-8.27-6.75-.54-12.81.91-18.6,4.72-3.83,2.51-8.39,6.17-12.93.54-3.78-26.82,1.57-52.81,7.29-78.74.46-2.1,2.27-3.39,4.59-3.58Z"/>
  <path class="cls-10" d="M93.74,581.11c25.04,1.51,50.02,1.72,74.71-3.81,10.34,4.49,7.02,11.29,3.07,18.19-5.37,11.66-3.28,24.54-5.95,36.57-5.32,23.97-12.79,47.42-21.92,70.14-10.84,26.97-15.75,55.09-19.94,83.52-4.14,28.04-6.53,56.26-9.04,84.47-.38,4.28.8,7.13,3.2,10.21,11.62,14.92,24.52,28.49,40.22,39.22,2.73,1.87,5.59,3.79,7.74,6.25,5,5.73,3.77,10.27-3.89,11.45-27.17,4.18-51.98-2.28-74.62-17.58-9.16-6.19-7.81-16.1-5.67-24.02,7.69-28.47-.09-56.31-2.23-84.27-2.62-34.14-7.54-68.14,1.57-102.03.97-3.61,1.7-7.57,3.75-10.54,14.7-21.3,16.79-44.57,11.28-69.04-3.63-16.15-2.04-32.47-2.28-48.74Z"/>
  <path class="cls-10" d="M184.21,577.78c22.6-1.49,45.21-2.98,67.81-4.47-5.18,35.38-7.28,71.07-14.1,106.39-5.57,28.85-5.56,58.81-10.95,87.99-3.17,17.17-4.59,34.65-7.08,51.94-2.86,19.86-.83,37.55,19.25,48.26,13.09,6.97,23.74,18.44,39.49,20.6,3.88.53,8.6,2.75,8.03,8.11-.58,5.44-5.15,5.91-9.53,5.85-13.28-.17-26.56,1.26-39.3-5.09-11.31-5.63-23.94-1.96-35.96-2.64-14.73-.83-24.17-12.46-18.17-25.7,12.08-26.66,4.85-52.29-1.39-78.09-4.1-16.97-11.92-33.22-11.5-51.03.32-13.86-2.02-28.3,5.62-41.24,14.73-25.99,9.86-53.9,8.11-81.54-.83-13.1-4.56-26.19-.33-39.34Z"/>
  <path class="cls-10" d="M911.02,575.85c13.36-.86,26.72-1.72,40.08-2.57-3.22,26.47-4.97,53.22-9.97,79.34-8.38,43.81-9.25,88.56-18.51,132.25-4.14,19.53-4.78,39.77-4.09,59.91.27,7.88,5.27,12.49,10.55,16.17,14.94,10.42,28.75,22.87,47.11,27.62,4.35,1.13,9.74,3.35,9.15,8.83-.68,6.33-6.7,5.07-11.1,5.05-12.88-.04-25.75.89-38.01-5.32-10.11-5.11-21.45-2.16-32.25-2.36-18.31-.33-26.77-10.15-20.69-27.57,10.81-31,2.58-60.41-6.18-89.45-8.29-27.44-12.94-54.19-1.25-81.58,7.56-16.99,12.11-34.37,9.17-53.29-2.69-17.35-2.33-35.01-4.26-52.47-1.32-11.92.56-13.55,12.78-13.81,5.82-.12,11.71.91,17.46-.77Z"/>
  <path class="cls-10" d="M96.15,385.97c-7.45,27.4-9.73,55.41-9.73,83.68,2.47,3.49,1.97,7.22.45,10.76-6.25,14.53-9.08,29.47-6.38,45.26.43,2.5-.16,5-2.48,6.68-2.38,0-4.76.01-7.14.02-8.85-4.52-17.51-9.28-22.16-18.79-2.58-8.86,1.14-16.83,3.53-24.98,3.46-11.23,5.67-22.67,5.97-34.44-2.7-22.77-4.91-45.61-8.34-68.26-1.34-8.81-1.63-17.51-1.5-26.25.38-26.39.1-52.64-6.92-78.39-1.18-4.32-.97-9.23-.44-13.76,2.41-20.67,3.21-41.8,8.32-61.81,6.06-23.76,26.24-35.67,47.24-45.39,27.04,29.3,26.35,62.42,15.51,98.2-4.88,16.12-4.04,33.88-7.43,50.56-5.17,25.44-6.05,51.24-8.5,76.92Z"/>
  <path class="cls-10" d="M855.65,660.9c-9.68,36.17-27.11,70.07-31.22,107.88-3.55,32.71-7.45,65.38-11.28,98.05-.68,5.77.85,10.63,4.62,15.02,12.01,13.93,23.77,28.13,39.76,37.84,4.89,2.97,9.57,6.16,7.98,12.66-1.67,6.78-7.82,4.58-12.53,5.3-23.53,3.63-44.07-3.4-63.51-16.33-6.79-4.52-10.31-9.2-9.4-17.26,2.57-22.83,3.39-45.54.74-68.59-2.37-20.67-4.55-41.43-6.32-62.21-2.69-31.67.82-61.61,16.19-89.57,4.99-9.08,6.32-17.53,5.62-28.21-1.58-24.12-5.21-48.25-3.39-72.55,5.53-1.93,9.1-3,11.29,5.39,2.53,9.69,23.33,13.2,33.63,6.98,3.13-1.9,6.26-5.39,10-2.29,3.93,3.25-.49,6.79-.73,10.43,2.82-4.59,3.95-12.26,11.02-10.25,7.33,2.09,5.24,9.49,4.8,15.1-.37,4.72-3.2,8.59-6.34,11.98-7.16,7.73-9.43,16.94-10.89,27.23-1.31,9.24,1.56,12.69,9.96,13.41Z"/>
  <path class="cls-10" d="M797.7,155.26c9.8,14.07,17.73,28.85,19.69,46.36,2.01,17.86-.36,34.1-14.34,46.94-5.86,1.27-7.77-3.64-10.69-6.9-9.67-10.82-19.13-21.88-30.77-28.7,12.43,12.44,26.15,25.15,31.77,43.97-4.88,5.52-12.28,6.12-18.31,9.39-5.28-10.87-10.86-21.61-15.73-32.66-3.07-6.96-8.89-9.95-15.26-11.8-24.46-7.13-46.3-18.78-68.31-31.87-21.58-12.84-44.14-24.49-65.84-37.44-1.57-4.34,2.25-5.94,4.46-8,5.4-5.03,8.65-11.1,10.92-18.04,1.15-3.52.43-8.99,6.62-9.03,22.76.9,43.45,6.8,60.18,23.5,10.28,10.26,25.63,5.92,37.47,11.76,22.43,11.06,45.41,2.12,68.13,2.54Z"/>
  <path class="cls-10" d="M201.8,169.58c-2.4,10.82,2.7,21.11,2.24,31.8-.46,10.78.81,22.62-11.58,27.94-8.4,3.61-25-3.4-31.37-13.79-14.45-23.58-31.31-45.17-50.44-65.07,18.72-12.54,20.32-30.53,16.05-50.38,2.92-4.17,1.79-7.74-1.46-11.16-3.2-3.37-5.23-7.41-6.77-11.82-2.19-6.25-3.57-12.77,2.36-17.17,6.16-4.57,10.54,1.33,15.05,4.53.92-.39,1.3-1.05,1.41-1.98,3.53-27.7,7.48-31.52,35.7-30.97,12.11.23,25.24-4,35.93,5.76.39,26.21,1.65,52.43-6.9,77.92-3.17,9.46-6.66,17.85-17.58,20.2-16.28,2.01-28.17-6.55-40.05-16.86,9.76,14.6,24.02,18.19,39.59,19.04-1.21,14.64,6.07,24.56,17.8,32Z"/>
  <path class="cls-10" d="M898.94,169.86c.77,11.67,1.98,23.33,2.18,35,.15,8.44-.67,17.8-9.74,21.5-9.64,3.93-19.06.61-26.78-5.93-3.74-3.17-6.85-7.39-9.39-11.64-12.98-21.74-28.97-40.98-47.26-58.39,22.37-10.72,18.76-30.76,17.89-49.82,3.3-4.67,1.94-8.52-1.99-12.05-3.15-2.83-5.45-6.35-6.89-10.3-2.21-6.07-3.35-12.38,1.65-17.59,5.36-5.6,9.73.61,14.5,2.05,3.12-2.65,1.47-6.27,2.09-9.34.58-2.89,1.23-5.67,2.75-8.23,9.95-16.79,55.54-20.65,68-5.75-.54,26.53,3.54,53.29-6.28,79.29-3.28,8.68-7.09,14.76-16.48,16.28-15.82.73-20.4-1.07-38.17-15.06,11.73,14.24,19.16,17.19,38.15,15.17-2.46,15.1,6.53,25.01,15.77,34.8Z"/>
  <path class="cls-10" d="M875.54,393.27c-4.6-10.24-1.93-17.67,7.57-23.96,13.06-8.64,26.97-14.23,42.55-15.66,11.22-5.42,14.28-17.63,21.73-26.18,6.06-6.15,11.81-12.79,21.23-13.71-9.26-.18-15.56,5.91-22.47,10.74-13.2-6.95-15-19.76-16.75-32.6-.73-4.99-1.77-10.5.84-14.76,11.22-18.3,5.92-38.08,6.11-57.41.09-8.71-5.91-13.48-11.09-18.71-7.18-7.25-13.61-14.73-13.93-25.62,27.65,11.34,45.74,28.94,54.18,60.01,6.29,23.16,17.31,45.76,25.77,68.78,7.74,21.08,3.07,37.86-15.36,51.06-18.16,13-37.12,24.83-52.26,41.56-5.98,1.64-12.26,2.61-17.89,5.06-12.71,5.55-22.01.78-30.22-8.6Z"/>
  <path class="cls-21" d="M226.25,399.01c-6.98-4.35-12.87,1-18.54,3.02-12.67,4.51-22.22,1.03-30.64-8.33-3.92-9.25-3.54-16.83,5.98-23.21,13.45-9.03,27.58-15.49,43.87-16.67,10.98-6.49,14.71-18.56,21.65-28.16,6.31-5.27,12.52-10.73,20.69-12.43-10.34-1.63-14.81,10.01-24.15,11.17-12.71-12.55-16.82-27.66-13.48-45.01,7.63-18.07,9.09-36.6,6.42-56.07-1.23-8.97-4.21-15.67-10.64-21.54-7.17-6.54-13.41-13.78-14.24-24.13,22.72,4.94,38.75,18.46,47.21,39.71,11.85,29.75,22.34,60.03,33.63,90.01,7.2,19.12-3.72,42.68-27.07,55.57-16.38,9.04-30.58,20.16-40.7,36.08Z"/>
  <path class="cls-26" d="M631.92,117.46c-4.76,13.31-8.7,27.13-22.01,35.07-4.48.58-8.28,4.54-13.27,2.7-16.93-.33-25.94-11.03-32.31-24.94-7.85-17.14-10.83-34.75-5.38-53.37,3.67-12.54,9.42-22.97,22.63-27.46,15.17-3.94,27.35.75,37.27,14.66,11.42,16.02,13.22,34.46,13.07,53.35Z"/>
  <path class="cls-24" d="M556.69,136.11c-5.85,17.18-15.97,29.7-35.32,31.7-4.43.46-9.13.91-13.1-2.17,1.03-2.41-.41-3.78-2.03-5.23-21.52-19.25-25.87-43.44-20.22-70.49,3.02-14.47,10.69-25.04,25.08-30.01,13.57-2.76,24.07,2.28,32.59,12.63,2.03,2.46,3.49,5.71,7.16,6.39,3.91,7.94,1.43,15.92.16,23.86-1.09,1.73-3.51,4.11-4.45,1.71-5.32-13.67-13.16-5.1-20.33-2.75-5.15,1.81-12.4,1.56-10.89,10.23,1.53,8.76,8.56,7.19,14.6,7.3,7.19.42,14.38-1.3,21.56.1,4.69,4.66,7.56,9.89,5.2,16.74Z"/>
  <path class="cls-9" d="M208.93,37.27c-16.9-4.6-34.22-2.95-51.27-2.3-9.92.38-16.44,7.71-16.63,18.3-.12,6.67-.93,13.04-3.06,19.4-.86-.47-1.86-.66-2.18-1.24-2.97-5.32-5.74-13.33-13.03-9.7-6.89,3.43-3.44,11.3-.95,16.87,1.8,4.04,5.2,7.44,8.18,10.87,1.67,1.92,6.77,1.23,5.28,5.35-1.22,3.38-3.78,6.67-8.56,5.24-8.93-13.71-15.04-28.36-17.26-44.8-2.56-19.01,4.44-35.9,23.15-45.13,14.4-7.1,30.24-11.84,46.94-9.08,23.68,3.91,29.89,11.71,29.4,36.21Z"/>
  <path class="cls-9" d="M905.95,39.37c-3.75-3.47-7.93-5.04-13.26-4.81-9.56.41-19.15.01-28.73.02-17.42.01-24.8,7.22-25.33,24.29-.13,4.34.92,9.02-2.01,12.96-1.08-.22-2.28-.13-2.51-.56-2.88-5.36-5.79-13.24-12.96-9.21-6.19,3.48-3.41,11.25-.51,16.89,1.86,3.62,4.1,7.85,7.36,9.8,10.85,6.5,6.08,9.26-2.15,11.81-10.09-15.07-16.04-31.26-18.2-49.65-2.39-20.31,9.36-32.35,23.3-40.39,16.51-9.52,35.94-13.38,55.56-8.27,17.02,4.43,23.44,16.97,19.46,37.11Z"/>
  <path class="cls-1" d="M58.21,454.15c7.42,12.53-.98,23.65-3.12,35.33-14.07,8.76-14.33,10.25-4.34,25.27,5.57,7.17,15.93,8.86,20.12,17.61-15.4,19.27-25.67,23.59-42.97,18.07-23.15-24.1-26.12-53.29-8.93-82.16,5.21-8.75,11.77-14.76,21.96-16.36,6.03-1.33,11.68.32,17.28,2.25Z"/>
  <path class="cls-10" d="M855.65,660.9c-4.54-1.43-7.23,7.42-12.09,2.49-3.72-3.77-.85-8.53-.98-12.88-.46-14.45,4.59-25.93,14.66-35.93,2.13-2.11,3.1-6.02,3.36-9.2.32-3.82,1.99-9.65-3.56-10.46-3.87-.57-5.88,3.96-6.26,8.05-.31,3.44-1.24,6.76-4.2,8.69-1.69,1.1-2.82-.84-3.8-2.22-3.01-4.23-.25-6.9,2.41-9.74,1.06-1.14,1.73-2.65,2.57-3.97-1.08-.84-2.16-1.73-2.19-1.71-13.91,16.13-28.43,5.93-42.8,1.01-2.77-.95-4.09-2.78-2.81-5.77,3.89-9.07-3.53-5.53-7.06-6.34-.27-.58-.25-1.16.06-1.72,18.92.49,37.84.98,56.76,1.47,5.88.15,9.56-6.84,15.98-4.93,9.36,1.94,10.22,4.77,4.75,15.63-9.73,5.71-1.46,15.23-4.73,22.31-2.9,9.83-4.67,19.84-4.88,30.11l-.02.03c-3.51,3.54-6.05,7.45-4.9,12.78.05.79-.05,1.56-.29,2.31Z"/>
  <path class="cls-16" d="M78.02,532.34c-5.94-22.07,1.4-42.36,8.41-62.7,10.02-3.09,17.6-13.48,29.82-9.97.73,5.35-3.92,6.82-6.91,9.35-18.42,15.55-23.57,52.84-11.21,73.47,6.21,10.36,17.45,10.08,25.85,15.52-12.61,6.41-22.87-1.26-35.32-6.33,0,9.85,0,19.09,0,28.33-5.41-5.05-2.64-11.6-2.37-17.21.54-11.27-1.64-21.36-8.29-30.46Z"/>
  <path class="cls-12" d="M511.08,59.9c-35.2,20.55-30.87,82.2,3.28,103.33-.98,3.49-4.34,1.05-6.1,2.41-15.51-3.06-22.54-14.88-27.81-27.89-7.51-18.56-7.99-37.44-.02-56.09,5.74-13.41,15.54-21.4,30.65-21.76Z"/>
  <path class="cls-18" d="M556.69,136.11c-1.85-5.45-3.7-10.89-5.55-16.34-6.17-3.89-6.16-8.88-2.58-14.51,1.5-8.71-1.07-17.78,2.27-26.33,4.57-18.78,13.6-27.44,30.75-29.47-32.59,23.52-25.04,72.57-3.34,96.31,5.13,5.61,12.5,5.9,18.4,9.47-18.31,4.06-29.69-6.37-39.96-19.12Z"/>
  <path class="cls-8" d="M40.93,451.91c-31.71,14.65-39.81,70.29-14.72,92.8,1.49,1.34,4.88,2.74,1.69,5.72-18.16-3.96-23.92-18.62-26.69-33.88-3.27-18.03.01-35.63,11.07-50.99,7.01-9.74,15.93-15.76,28.65-13.65Z"/>
  <path class="cls-22" d="M870.47,593.37c-1.11-5.35,4.29-12.68-4.75-15.63.92-.87,1.83-1.74,2.75-2.6,5.11-3.81,10.12-3.61,15.03.39,9.18.11,18.36.21,27.53.32-5.2,4-11.35,2.54-16.92,2.16-9.41-.64-11.44,3.31-10.34,11.79,2.94,22.64,5.74,45.42,4.49,68.24-.74,13.43-3.15,27.1-12.38,38.15,13.97-35.1,2.58-68.87-5.4-102.82Z"/>
  <path class="cls-15" d="M184.21,577.78c3.94,28.38,6.08,56.9,4.84,85.53-.56,12.83-4.12,25.1-12.61,35.35,14.1-35.14,5.46-69.19-4.91-103.17-.9-6.09,2.56-12.91-3.07-18.19,1.08-.74,2.15-1.48,3.23-2.22,2.48-1.64,4.86-1.84,7.05.51,1.83.73,3.65,1.46,5.48,2.19Z"/>
  <path class="cls-14" d="M184,137.58c-19.7,5.6-38.15-4.77-45.54-29.04,14.15,15.72,29.07,23.26,46,26.86-.12.73-.27,1.46-.45,2.18Z"/>
  <path class="cls-10" d="M860.85,645.79c-3.77-10.91-.73-20.72,4.89-30.11-.13,10.28-1.22,20.4-4.89,30.11Z"/>
  <path class="cls-10" d="M855.94,658.6c-7.41-7.72-1.12-10.2,4.9-12.78-.79,4.58-1.92,9.03-4.9,12.78Z"/>
  <path class="cls-13" d="M883.49,575.53c-5.06,1.77-10.02-.38-15.03-.39-.02-20.52.77-41.09-.38-61.54-.7-12.26,4.1-19.38,14.82-24.86-8.77,29.46.91,58.06.6,86.79Z"/>
  <path class="cls-11" d="M793.36,256.92c-12.14-15.45-20.76-33.93-38.35-44.71,9.91-1.6,12.36-.98,19.86,6.68,9.54,9.74,18.8,19.76,28.18,29.66-2.4,3.75-5.3,6.92-9.69,8.37Z"/>
  <path class="cls-1" d="M123.99,558.01c-23.83,2.47-33.09-15.51-35.07-32.45-3.11-26.66,1.25-50.98,27.33-65.89,17.41-2.93,29.65,8.48,34.42,24.19,7.43,24.45,4.43,47.62-13.82,67.13-3.43,3.66-7.61,6.45-12.87,7.01Z"/>
  <path class="cls-3" d="M178.73,575.59c-2.35-.17-4.7-.34-7.05-.51-.03-22.51.13-45.03-.2-67.54-.12-8.37,2.49-14.1,11.62-17.19-5.42,25.18.52,49.15.99,73.25.09,4.57,2.15,10.57-5.35,11.99Z"/>
  <path class="cls-6" d="M50.75,514.75c-9.47-2.15-10.8-8.83-9.91-17.14,1.02-9.62,8.59-7.04,14.26-8.13-2.14,8.31-5.58,16.38-4.34,25.27Z"/>
  <path class="cls-25" d="M55.71,254.59c11.38-1.6,12.55,6.5,15.26,16.64-6.62-6.32-9.44-12.93-15.26-16.64Z"/>
  <path class="cls-2" d="M883.17,135.06c-16.12,8.8-35.05.33-45.76-23.18,15.91,10.84,29.04,21.03,45.79,23.07,0,0-.02.12-.02.12Z"/>
  <path class="cls-4" d="M949.11,328.7c-.96-1.62-1.91-3.25-2.87-4.87,5.69-12.47,16.32-13.41,31.54-12.13-12.52,4.93-21.42,9.73-28.67,17Z"/>
  <path class="cls-15" d="M249.51,326.55c-.77-1-1.55-2.01-2.32-3.01,6.94-10.06,15.24-16.57,28.26-10.9-9.94,2.31-16.7,10.45-25.94,13.91Z"/>
  <path class="cls-19" d="M598.76,89.98c7.32.32,9.53,5.75,9.76,11.08.21,4.82-1.6,10.91-7.81,10.99-6.51.09-8.95-4.99-9.05-11.17-.09-5.38.53-10.16,7.1-10.91Z"/>
  <path class="cls-7" d="M548.56,105.26c.86,4.84,1.72,9.67,2.58,14.51-6.82,5.59-14.64,2.35-22.08,2.51-6.5-6.78-7.99-14.23-3.01-22.55,4.8-6.76,13.62-4.24,19.1-9.15,3.45,4.91-.02,10.53,3.41,14.67Z"/>
  <path class="cls-17" d="M526.05,99.73c1,7.52,2.01,15.03,3.01,22.55-5.4-1-12.25,4.16-15.82-4.61-5.04-12.4-1.71-17.39,12.81-17.94Z"/>
  <path class="cls-20" d="M121.23,512.28c0-5.61,1.79-9.96,8.27-9.77,6.07.18,7.08,4.63,6.8,9.57-.32,5.54-2.98,9.97-8.68,10.07-6.1.1-6.42-5.13-6.39-9.86Z"/>
</svg>