<?xml version="1.0" encoding="UTF-8"?>
<svg id="Layer_1" xmlns="http://www.w3.org/2000/svg" viewBox="0 0 1030.2 603.04">
  <defs>
    <style>
      .cls-1 {
        fill: #7d9363;
      }

      .cls-2 {
        fill: #d4b195;
      }

      .cls-3 {
        fill: #3a2416;
      }

      .cls-4 {
        fill: #ececeb;
      }

      .cls-5 {
        fill: #d7af8f;
      }

      .cls-6 {
        fill: #231f20;
      }

      .cls-7 {
        fill: #322519;
      }

      .cls-8 {
        fill: #fff;
      }

      .cls-9 {
        fill: #d3b7a0;
      }

      .cls-10 {
        fill: #362216;
      }

      .cls-11 {
        fill: #606657;
      }

      .cls-12 {
        fill: #ceb29b;
      }

      .cls-13 {
        fill: #c47e4d;
      }

      .cls-14 {
        fill: #c67c4d;
      }

      .cls-15 {
        fill: #d2b9a3;
      }

      .cls-16 {
        fill: #8c1d1c;
      }

      .cls-17 {
        fill: #e3f1e2;
      }

      .cls-18 {
        fill: #c57c4d;
      }

      .cls-19 {
        fill: #d84140;
      }

      .cls-20 {
        fill: #362116;
      }

      .cls-21 {
        fill: #b77047;
      }

      .cls-22 {
        fill: #986b40;
      }

      .cls-23 {
        fill: #e4ebee;
      }
    </style>
  </defs>
  <path class="cls-8" d="M117.01,31.45s3.05,20.01,24.24,17.27-35.57,47.75-35.57,47.75c0,0-24.24,3.14-32.63,3.58s-7.62-47.34-7.62-47.34l51.57-21.26Z"/>
  <polygon class="cls-16" points="353.44 531.79 311.07 542.61 329.66 574.12 435.73 597.2 487.16 564.5 353.44 531.79"/>
  <polygon class="cls-16" points="629.56 540.37 719.91 545.03 713.34 582.93 660.08 586.92 605.44 587.56 600.94 554.13 629.56 540.37"/>
  <path class="cls-17" d="M171.9,377.15s-.64,12.74,12.99,15.47-21.13,35.36-21.13,35.36c0,0-25.02-22.84-45.59-17.77s0-52.14,0-52.14l53.74,19.09Z"/>
  <path class="cls-23" d="M607.91,26.55s42.54-25.97,126.43,1.06,24.61,59.31,24.61,59.31l-51.46,36.5-81.19,9.65-65.22-40.51,43.76-62.45,3.07-3.55Z"/>
  <path class="cls-23" d="M617.6,488.67c5.38-4.66,11.88-7.68,17.15-12.55,2.27-2.09,6.04-2.73,9.11-4.11,6.57-2.95,13.48-4.98,20.52-6.64,4.39-1.03,8.38-3.34,13.15-3.49,2.69-.08,4.35-3.14,6.78-4.52,3.02-1.72,5.99-2.5,9.35-2.14.07,2.27-2.77,1.14-3.32,3.1,3.63,1.79,7.67,1.9,11.61,2.47.39.1.75.25,1.11.42,1.31.81,2.43,1.76,1.61,3.48-.81,1.72-2.5,1.81-4.07,1.76-9.74-.34-18.96,2.13-27.93,5.48-8.02,3-15.51,7.02-20.84,14.11-.84,1.61-1.5,3.34-2.91,4.59-5.35,5.48-7.37,17.65-3.99,24.39,1.78,3.55,5.02,5.82,8.14,7.83,6.94,4.48,14.71,7.14,22.95,7.82,8.23.67,15.43-2.66,22.23-6.92,4.15-2.6,7.8-5.81,11.12-9.41.89-.96,1.8-1.93,2.87-2.71,1.97-1.43,4.29-1.96,6.29-.64,2.32,1.53,1.14,3.93.23,5.71-2.68,5.27-6.01,10.19-8.93,15.34-1.18,2.08-1.87,3.98-1.55,6.28-7.31,8.06-10.31,18.73-16.81,27.39-10.64,14.19-28.03,14.62-41.05,7.83-4.87-2.54-9.76-4.81-15.15-1.2-.76.51-1.74.58-2.68.35-1.88-.83-2.71-2.44-3.07-4.31-1.52-7.73-3.1-15.45-4.88-23.12-2.71-11.64-6.61-22.94-10.63-34.17-1.86-5.2-3.26-10.55-5.45-15.63-2.01-4.66-2.8-4.98-7.4-2.93-2.4,1.07-4.92,1.84-7.34,2.89"/>
  <path class="cls-16" d="M964.83,591.14c3.63,1.86,6.67,4.56,9.68,7.21,2.17,1.91,1.11,4.21-1.8,4.64-.77.11-1.58.03-2.37.03-303.13,0-606.26,0-909.39,0-.79,0-1.58-.02-2.37,0-1.85.03-3.99.31-4.78-1.83-.7-1.89.91-3.18,2.17-4.28,7.42-6.46,14.54-13.35,22.44-19.16,11.87-8.72,22.15-19.24,33.67-28.32,3.5-2.76,6.72-5.88,10.28-8.57,2.89-2.19,6.46-2.17,9.84-1.64,2.23.35,4.43.51,6.66.51,56.52,0,113.03,0,169.55-.02,2.09,0,4.27.33,5.9-1.48,2.61-1.3,4.34-.16,5.68,2.05-.15.48-.43.87-.83,1.17-2.53,1.56-5.36,1.15-8.09,1.15-59.27.02-118.54.06-177.81-.06-5.44-.01-9.73,1.34-13.93,5.01-11.81,10.29-23.66,20.56-35.8,30.46-6.63,5.41-13.2,10.88-19.76,16.37-.81.68-1.64,1.33-2.37,2.09-.54.57-1.3,1.16-1.06,1.99.26.89,1.24.8,2,.87,1.18.1,2.37.06,3.55.06,20.28,0,40.57,0,60.85,0,278.17,0,556.34,0,834.5,0,1.45,0,2.9.03,4.35-.01,1.03-.03,2.44.35,2.97-.57.76-1.32-.99-1.87-1.49-2.84-.8-1.58-2.67-2.68-2.26-4.83Z"/>
  <path class="cls-16" d="M952.09,119.26c.21,1.04.47,2.07,1.48,2.64,6.79,3.81,12.24,9.41,18.52,13.9,1.49,1.07,3.71,2.33,2.78,4.69-.82,2.1-3.08,1.63-4.87,1.62-292.54-1.38-585.09-.21-877.64-.6-11.43-.02-22.86,0-34.3-.05-1.51,0-3.57.6-4.23-1.21-.59-1.6.97-2.97,2.1-3.92,10.97-9.17,22.18-18.05,32.95-27.45,4.48-3.91,9.94-6.94,12.81-12.54,1.04-1,2.21-.96,3.45-.44.47.29.68.7.62,1.25-.4,2.09-1.85,3.45-3.38,4.71-7.34,6-14.32,12.42-21.91,18.13-6.52,4.91-12.22,10.82-18.68,15.82-.62.48-1.22,1.02-1.38,2.77h907.85c.07-2.22-1.47-2.76-2.51-3.57-4.98-3.89-10.09-7.61-15.04-11.55-1.63-1.3-3.44-2.52-3.65-4.91,2.09-2.77,3.61-1.33,5.04.7Z"/>
  <path class="cls-9" d="M720.61,83.72c-5.42-.95-10.47-1.11-16.06.88-10.77,3.85-29.99,4.61-40.9-6.08-4.47-4.37-6.71-9.91-7.52-16.09-1.06-8.13-.57-15.99,3.69-23.26,4.3-7.36,11.52-10.91,19.13-12.9,12.25-3.21,24.6-3.37,36.6,2.07,5.02,2.27,8.48,6.6,13.34,8.99,2.26,1.11,5.21,3.68,6.88,1.66,1.84-2.21-1.65-4.11-3.15-5.96-.33-.41-.76-.73-1.09-1.14-1.05-1.3-2.92-2.7-1.86-4.35,1.13-1.76,3.09-.3,4.68.08,2.04.48,4.08.97,6.13,1.41,2.69.58,4.61-.06,6.26-2.65,5.36-8.38,15.89-11.82,25.44-8.62,2.64.88,3.49-1.43,4.63-2.78,3.18-3.76,6.79-6.89,11.13-9.23,4.91-2.64,10.18-3.84,15.66-4.71,10-1.59,19.88-1.3,29.74.79,11.07,2.34,18.69,9.29,23.97,18.86,6.26,11.34,8.97,23.72,9.37,36.6.09,2.74-.39,5.49-.55,8.24-.13,2.35.97,3.52,3.35,4.01,5.23,1.07,10.61,1.58,15.52,3.92-1.19,1.21-2.64,1.06-4.02.61-4.61-1.5-9.46-1.84-14.15-2.94-2.52-.9-3.37-2.87-3.44-5.35.7-8.7.26-17.36-1.59-25.89-2.51-11.61-7.71-21.81-16.81-29.71-2.5-2.17-5.33-3.86-8.61-4.66-13.01-3.2-26.04-2.97-39.12-.39-10.54,2.08-17.4,8.77-22.57,17.65-.6,1.02-1.07,2.11-1.78,3.08-.61.85-1.03,1.81-1.57,2.7-.82,1.36-1.76,2.88-3.56,2.56-2.1-.38-2.32-2.18-2.19-3.99.22-1.46,1.02-2.64,1.81-3.84,1.55-2.35.63-3.28-1.9-3.35-6.8-.18-12.49,2.05-16.64,7.64-2.2,5.96-7.27,4.69-12.35,4.1,1.12,2.95,3.09,4.44,4.18,6.48,1.11,2.08,1.97,4.16.13,6.2-1.87,2.06-3.89.89-5.76-.07-5.03-2.59-9.84-5.45-14.47-8.8-9.38-6.78-20.24-8.63-31.57-7.23-4.79.59-9.61,1.38-14.22,3.17-7.1,2.76-12.38,7.37-14.25,14.75-2.91,11.49-2.64,22.45,7.24,31.22,3.22,2.86,6.88,4.33,10.85,5.28,9.47,2.26,18.78,1.76,27.84-2,5.09-2.11,10.11-.74,15.13.28,1.17.24,2.1,1.07,2.52,2.31.07.43.01.84-.18,1.24-1.4,1.06-2.36.19-3.31-.75Z"/>
  <path class="cls-16" d="M627.95,114.54c.33-.32.66-.63.99-.95,3.28.04,6.58.3,9.85.08,4.36-.29,8.17,1.35,12.12,2.74,4.92,1.73,9.92,3.55,15.17,3.59,9.79.07,18.4-3.46,25.89-9.71,9.36-7.8,17.31-17.18,27.34-24.23.77-.54,1.24-1.35,1.32-2.33.92.29,1.84.57,2.77.86.8,1.54-.55,2.16-1.36,2.83-9.7,8.1-18.32,17.39-28.05,25.44-6.06,5.01-12.88,8.5-20.74,10.01-8.03,1.55-15.48-.43-22.72-3.3-3.9-1.55-7.72-2.48-11.85-2.42-3.56.06-7.12.07-10.45-1.49-.35-.32-.43-.69-.26-1.13Z"/>
  <path class="cls-12" d="M703.12,450.47c.02.85.04,1.71.05,2.56-.6,2.9-2.94,3.43-5.32,3.92-1.22.18-2.57-.14-3.73,1.01,2.32,1.35,4.82,1.69,7.31,2.05.36.12.69.3.97.55.17.36.13.71-.11,1.03-3.97.3-7.7-1.1-11.55-1.62-1.06-.14-2.25-.23-2.3-1.59-.05-1.19.96-1.78,1.93-2.2,1.05-.45,2.4.11,3.28-.95,3.43-1.04,7.63-.54,9.46-4.77Z"/>
  <path class="cls-19" d="M412.62,495.59c8.94,1.79,15.02-4.19,21.87-8.07,10.41-5.89,21.44-9.94,33.52-7.72,9.08,1.67,17.83,4.88,26.15,9.03.87.43,1.65.76,2.59.35,2.1.86,4.2,1.72,6.29,2.58,1.93.82,3.73,1.87,5.57,2.87,6.92,5.06,15.17,6.23,23.23,7.97,1.67.36,3.36.6,4.78,1.69,1.87,1.55,2.48,3.62,2.52,5.95.05,2.88-.02,5.77.04,8.65.18,9.69-.11,19.37.63,29.07.82,10.84-.87,21.7-.89,32.57-.1.49-.28.96-.52,1.4-1.21,1.86-3.05,2.36-5.12,2.41-22.34.48-44.59,3.22-66.99,2.44-12.39-.43-24.56-2.45-36.75-4.41-7.9-1.27-15.83-2.46-23.65-4.25-2.39-.55-4.2-1.46-4.85-3.97-.36-1.84-.21-3.68.18-5.48,1.72-7.96,2.89-16.07,3.86-24.1,1.24-10.29,3.06-20.54,3.65-30.92.27-4.85,1.64-9.59,1.7-14.49.02-1.55.87-2.72,2.17-3.56Z"/>
  <path class="cls-2" d="M594.03,494.71c2.5-2.03,5.73-2.43,8.52-3.86,3.07-1.58,5.3-.35,6.41,2.86,3.26,9.4,6.75,18.71,9.77,28.2,2.94,9.23,6.14,18.38,8.07,27.89,1.22,6.03,2.5,12.05,3.59,18.1.33,1.82,1.29,3.09,2.45,4.34.4,1.64.12,2.95-1.71,3.51-.94-.08-1.61-.57-2.11-1.33-2.08-4.63-2.62-9.66-3.4-14.55-3.06-19.09-9.23-37.24-16.23-55.15-.91-2.33-1.54-4.76-2.45-7.09-1.43-3.66-2.33-4.18-5.89-2.64-12.29,5.31-25.1,8.64-38.31,10.58-7.31,1.07-14.63,1.4-21.98.76-1.3-.11-3.04-.11-2.53-2.34,3.63-.68,7.28.01,10.93-.28,14.41-1.17,28.63-3.22,42.26-8.31.86-.32,1.87.02,2.61-.69Z"/>
  <path class="cls-12" d="M707.76,538.25c-1.12-2.08-.61-3.79.66-5.78,3.32-5.19,6.41-10.54,9.36-15.95.72-1.32,2.32-3.44.55-4.6-1.85-1.22-4.28-.93-6.09.96-1.73,1.8-3.51,3.56-5.3,5.3-7.35,7.14-15.93,12.06-26.14,13.5-7.36,1.04-14.23-1.62-21.02-4.08-5.27-1.91-9.76-5.19-13.68-9.05-4.23-4.15-4.76-9.88-3.57-15.13,1.08-4.75,1.07-10.39,6.02-13.59.55.41.77.99.85,1.65-.69,3.62-2.74,6.75-3.53,10.39-1.86,8.57.35,14.76,7.94,19.09,20.37,11.62,37.76,9.75,54.87-8.68,2.54-2.73,5.1-3.88,8.63-3.52,2.39.24,4.03,1.17,4.13,3.82-.96,5.34-4.44,9.47-6.86,14.11-1.09,2.09-2.07,4.3-3.54,6.15-1.48,1.86-.76,4.04-1.31,6.02-.93.69-1.45.06-1.95-.61Z"/>
  <path class="cls-5" d="M648.65,491.64c-.04-.6-.08-1.2-.12-1.81.77-1.29,1.54-2.57,2.31-3.86,8.3-9.4,19.08-14.38,30.97-17.35,6.47-1.62,12.96-3.1,19.72-2.74,1.58.08,3.67.21,4.02-1.56.38-1.93-1.85-2.12-3.22-2.74,0,0-.03,0-.03,0,.03-.3.07-.6.11-.9,2.55-.74,9.01,1.2,10.32,3.1,1.47,2.12.22,4.1-2.97,4.25-4.73.23-9.47,0-14.16.9-11,2.12-22.02,4.15-31.74,10.22-4.49,2.8-8.75,5.83-11.71,10.37-.78,1.19-1.75,2.37-3.49,2.11Z"/>
  <path class="cls-15" d="M594.03,494.71c-7.93,3.79-16.46,5.5-25.01,7.15-10.28,1.98-20.65,2.72-31.11,2.47-.21.01-.41.03-.62.04-2.67-1.1-5.54-1.51-8.32-1.94-7.56-1.19-14.64-3.49-21.14-7.54-2.12-.24-3.72-1.29-4.79-3.13,4.06-.06,6.91,2.9,10.43,4.19,11.96,4.38,23.97,7.91,37.04,6.9,10.77-.83,21.32-2.57,31.81-4.94,3.95-.89,7.4-3.6,11.7-3.19Z"/>
  <path class="cls-12" d="M702.33,461.58c.52.02,1.1-.09,1.56.09,1.57.6,3.81,1.15,3.58,3.08-.29,2.35-2.71,1.47-4.26,1.5-15.1.29-29.35,3.72-42.26,11.71-3.63,2.25-6.75,5.32-10.11,8.02,2.88-5.14,7.68-8.2,12.59-10.86,11.58-6.27,23.99-9.68,37.24-9.71,1.25,0,2.75.43,3.42-1.2.71-1.71-1.33-1.64-1.77-2.62Z"/>
  <path class="cls-16" d="M631.96,576.99c4.17-.13,7.83-2.09,11.69-3.32,2.6-.83,4.67-.48,7.04.93,12.88,7.67,31.91,6.02,41.68-8.23,4.49-6.55,7.89-13.59,11.35-20.64,1.23-2.51,2.7-4.46,5.56-5.04q3.98,5.91,9.34.57c.37-.37.8-.63,1.35-.63,1.68,1.1,3.57.73,5.39.73,54.91.02,109.82.1,164.72-.1,5.4-.02,9.42,1.63,13.52,4.85,16.61,13.06,33.41,25.87,50.16,38.74,4.35,3.34,8.56,6.89,13.39,9.57.33.41.65.82.99,1.22,1.21,1.39,4.37,1.85,3.38,4.15-.84,1.97-3.58.85-5.44.85-297.67.05-595.34.06-893.01.07-4.21,0-8.43-.02-12.64-.09-.99-.02-2.26.42-2.83-.79-.57-1.22.44-1.99,1.21-2.64,7.26-6.21,14.31-12.65,22.01-18.37,6.21-4.61,11.84-9.99,17.72-15.04,7.87-6.76,15.74-13.52,23.61-20.28,1.99-1.71,4.25-2.24,6.89-2.24,61.38.07,122.76.05,184.13.08,2.25,0,4.46-.15,6.64-.68,1.65-.7,3.1.04,4.5.73,16.23,7.95,32.8,15.17,49.28,22.57,9.33,4.19,18.44,8.85,28.01,12.52,2.24,1.63,4.96,1.69,7.49,2.16,16.14,3.01,32.28,6.26,48.68,7.37,14.69.99,29.43.72,44.15-.1,10.36-.58,20.68-1.76,31.06-1.82,1.74,0,3.41-.13,4.98-.92,6.83-.57,13.67-.2,20.51-.25,9.87-.07,19.76.35,29.61-.11,13.61-.64,27.27-1.33,40.42-5.56,1.14-.37,2.28-.66,3.47-.25Z"/>
  <path class="cls-16" d="M628.06,115.52c6.48.9,13.32-.65,19.48,1.7,5.04,1.92,9.98,3.77,15.32,4.65,9.2,1.52,17.3-1.2,25.01-5.9,9.06-5.53,15.74-13.79,23.69-20.59,4.05-3.47,7.89-7.19,11.82-10.8.11-.3.22-.59.34-.89.3-.24.63-.33,1.01-.24.53.18,1.02.43,1.52.68,3.4,1.14,6.28,3.31,9.51,4.79,1.76.8,2.66,2.47,3.35,4.24,1.94,4.93,4.55,9.48,7.87,13.62,2.13,2.65,2.87,5.88,3.72,9.06.92,3.45,1.73,3.71,4.32,1.15,2.54-2.51,4.77-5.25,6.04-8.67.59-1.59,1.17-3.24,2.69-4.29,2.04-.98,3.9-.24,5.62.76,9.79,5.69,20.64,8.28,31.46,11.03,22.34,5.67,45.14,5.12,67.86,4.56,12.33-.3,24.67-1.04,37-1.61,12.19-.56,24.34-1.97,36.55-2.15,1.67-.02,3.47-.35,4.86,1.05.16.02.32.05.47.1,1.14,4.07,5.03,5.46,7.86,7.8,4.44,3.68,9.24,6.93,13.79,10.48.92.72,2.65,1.42,1.99,2.98-.53,1.25-2.1.8-3.24.8-9.22.02-18.44,0-27.66,0-292.04,0-584.08,0-876.12-.06-2.13,0-5.27,1.2-6.21-1.01-1.09-2.59,2.43-3.28,3.95-4.58,11.99-10.2,24.18-20.17,36.24-30.28,2.7-2.26,5.57-4.4,7.52-7.44,2.81-2.26,6.07-1.3,9.11-1.05,9.16.77,18.34,1.68,27.49,1.95,13.79.4,27.56,1.32,41.32,2.02,13.82.71,27.62.2,41.42.55,11.17.28,22.2,1.48,33.23,3.58,12.13,2.32,23.97,5.99,36.13,7.87,13.45,2.09,26.94,4.34,40.65,4.46,15.5.14,30.99,1.07,46.47,1.77,9.99.45,19.99.07,29.96.7,5.33,1.24,10.83,1.1,16.1.42,7.33-.94,14.69-.08,22.01-1.27,9.3-1.51,18.83-1.07,28.14-2.97,3.69-.75,7.6-.96,11.35-.92,11.58.12,23.11-.99,34.67-.96,5.22.01,10.43,1.68,15.65.03,9.99-.16,19.86,1.33,29.78,2.17,16.22,1.38,32.47,2.31,48.76,1.63,3.38-.14,6.72-1.05,10.14-.94Z"/>
  <path class="cls-16" d="M411.46,119.31c-15,.57-29.98-.5-44.96-.98-13.25-.43-26.51-1.02-39.75-1.61-8.86-.39-17.66-2.13-26.49-3.28-12.62-1.64-24.73-5.63-37.17-8.06-12.45-2.44-25.02-4.34-37.78-4.31-10.4.02-20.81.21-31.21-.04-18.11-.43-36.18-1.81-54.27-2.56-11.36-.47-22.72-1.79-34.12-2.01-.35-.06-.7-.12-1.04-.18-.16-.76-.32-1.53-.49-2.29,3.81-2.26,7.96-1.28,11.93-.97,11.8.93,23.63,1.45,35.44,2.24,12.34.82,24.67,1.75,37.02,2.15,12.89.42,25.81.1,38.72.09,8.98,0,17.92.72,26.69,2.52,13.14,2.7,26.28,5.49,39.34,8.59,10.39,2.47,21.01,3.63,31.61,4.6,14.54,1.34,29.16,1.32,43.76,1.81,13.8.46,27.58,1.4,41.4,1.34.49.02.96.13,1.4.34.71.86.69,1.73,0,2.59Z"/>
  <path class="cls-14" d="M401.04,573.97c-6.39-1.5-12.37-4.06-18.27-6.9-5.27-2.54-10.64-4.86-15.91-7.42-12.66-6.16-25.98-10.95-38.16-18.13-2.53-1.49-5.31-2.16-8.18-2.58-6.27-3.25-12.64-6.34-18.8-9.78-12.85-7.18-24.92-15.42-35.57-25.73-3.73-3.61-8.43-6.22-12.77-9.17-9.12-6.21-17.5-13.44-26.56-19.69-13.09-9.03-25.48-18.93-38.1-28.55-13.69-10.43-27.77-20.26-42.32-29.42-7.42-4.68-7.57-4.71-3.5-12.35,2.52-4.73,5.49-9.23,8.25-13.84.88-1.59-.66-2.56-.98-3.85,1.33-.82,2.66-.85,3.98.01-.71,2.35.79,3.34,2.57,4.14,2.15.97,4.5,1.64,6.44,2.93,3.57,2.37,5.69.91,7.79-2.06,3.32-4.7,3.35-4.55,8.28-1.93,38.44,20.43,28.35,12.03,37.76,14.79,7.05,2.07,13.68,5.3,20.5,7.99,11.01,4.34,21.59,9.54,31.84,15.4,7.66,4.37,14.37,10.08,21.05,15.81,8.87,7.61,17.69,15.28,26.45,23.01,4.54,4.01,10.98,4.89,16.72,6.62,14.95,4.5,30.02,8.6,45.05,12.83,11.34,3.19,22.68,6.34,34.02,9.51-.32,1.36-1.16,2.47-1.28,4-.95,12-2.69,23.93-3.95,35.89-.83,7.81-2.51,15.48-3.2,23.31-.45,5.04-2.04,9.98-2.42,15.09-.21.29-.45.32-.72.09Z"/>
  <path class="cls-19" d="M154.15,386.57c-1.33.41-2.66.36-3.98-.01-3.43-1.64-6.84-3.35-10.31-4.9-2.57-1.15-5.09-1.3-7.24,1.01-.81.87-1.67,1.69-2.59,2.44-5.26,4.31-8.73,8.77-7.33,16.66,1.39,7.83-2.35,9.76-10.2,7.63-8.76-2.38-17.19-5.69-25.83-8.41-9.32-2.94-18.21-.92-27.18,1.29-3.96.98-7.87,2.18-11.88,2.87-5.94,1.02-8.84-1.8-8.74-7.84.09-5.18,2.22-9.52,5.63-13.13,10.6-11.2,22.87-19.82,38.26-23.05,12.82-2.69,24.8-7.63,36.78-12.7,5.07-2.15,10.43-3.63,15.61-5.54,3.12-1.15,5.16-.42,6.8,2.61,2.57,4.73,3.41,4.83,8.52,3.02,3.34-1.19,6.74-2.25,10.16-3.18,2.35-.64,4.67-.23,5.58,2.36,3.78,10.69,6.99,21.51,7.26,32.99.07,2.81-.82,4.06-3.76,2.73-6.72-3.03-10.16-2.31-15.56,3.16Z"/>
  <path class="cls-4" d="M165.01,382.41c2.37.23,4.63,1.83,5.89,4.02,1.13,1.96-1.17,3.52-2.22,5.1-.72,1.09-1.81,1.33-3.13.83-2.68-1.02-5.09-2.61-7.89-3.43-1.37-.4-2.02-1.98-.46-3.07,2.22-1.56,4.38-3.4,7.81-3.45Z"/>
  <path class="cls-13" d="M724.52,83.64c-.27.02-.54.04-.81.05-5.35-3.49-11.21-4.34-17.04-2-12,4.8-24.04,4.8-35.5-.58-6.3-2.96-10.97-8.69-12.3-16.04-1.73-9.52-1.66-18.8,4.62-27.07,4.19-5.51,10.17-7.97,16.42-9.36,5.57-1.24,11.3-2.39,17.17-1.87,9.84.87,19.05,3.06,26.79,9.88,3.93,3.46,9,5.35,13.67,7.73.95.48,1.73.39,2.5-.35,1.11-1.06,1.26-2.31.68-3.61-1.07-2.43-2.7-4.5-4.55-6.39-.81-.83-1.89-1.67-1.05-3.04.74-1.2,1.83-.6,2.85-.4.64.12,1.38-.05,1.95.19,4.07,1.75,6.4-.23,8.08-3.67,3.53,5.18,11.56,5.69,16.18,1.08.54-.54.83-1.84,2.08-.99.34,1.16-.29,2.96,1.54,3.19,1.54.19,2.16-1.22,2.75-2.41.4-.8.78-1.6,1.17-2.4,2.53,7.54,9.62,10.67,14.99,15.44,1.57,1.39,3.42,1.06,5.22.35,3.91-1.52,7.99-1.66,12.07-1.27,2.97.28,5.84,1.08,6.61,4.57.75,3.41-.81,5.85-3.57,7.69-.66.44-1.39.75-2.06,1.17-1.71,1.08-1.55,2.25-.14,3.45.4.34.82.71,1.32.85,5.37,1.54,10.2,4.11,14.69,7.43,1.71,1.27,3.74.59,5.65-.26,5.08-2.26,8.03-1.47,11.23,3,2.98,4.17,6.2,8.19,6.98,13.54.29,1.96,1.63,3.07,3.71,3.58,9.16,2.22,12.06.49,13.97-8.72.51-2.44.99-4.89.49-7.44-.25-1.26-.4-2.66,1.03-3.5.04-.03.19.05.24.12.08.1.12.23.18.35.21,1.74.35,3.53,2.25,4.41,6.41,1.78,12.76,3.8,19.24,5.29,10.73,2.47,21.49,4.95,32.34,6.75,7.48,1.24,14.86,3.04,22.59,3.12,7.81.08,15.02-2.33,22.43-3.9,4.52-.96,8.7-1.18,13.11.49,10.28,3.89,20.8,7.18,30.55,12.36,1.24.66,3.06,1.18,2.62,2.95-.44,1.8-2.33,1.34-3.72,1.38-1.71.05-3.42-.08-5.14-.08-.88,0-2-.26-2.39.87-.44,1.3.53,1.93,1.53,2.37,3.85,1.69,7.7,3.39,11.59,5,5.18,2.16,10.45,4.13,15.57,6.43,1.37.62,3.8,1.29,3.16,3.44-.63,2.12-2.28,3.97-4.85,3.97-9.22.02-18.45.2-27.66-.18-10.35-.43-20.68-1.61-31.03-2.07-6.21-.27-12.2-1.78-18.32-2.44-1.41,1.02-3.05.7-4.59.73-18.52.33-36.97,2.03-55.47,2.78-7.08.29-14.18.3-21.22,1.2-10.95-.24-21.64-2.35-32.35-4.42-1.16-.22-2.46-.14-3.45-.76-2.94-1.86-5.65-3.22-8.03.81-.42.7-1.69.73-2.61.61-3.64-.47-7.44-.22-10.92-1.44-10.91-3.83-21.99-7.06-32.75-11.42-13.02-5.28-25.46-11.63-38.07-17.7-2.86-1.38-5.79-2.51-8.89-3.21-1.84-.41-3.64-.53-5.39.35Z"/>
  <path class="cls-20" d="M864.37,65.94c-1.69,2.32.27,4.72-.15,7.17-.65,3.78-2.16,7.27-3.01,10.96-.48,2.09-2.07,2.96-4.15,2.83-3.27-.22-6.54-.47-9.8-.78-2.47-.23-3.34-2.18-3.51-4.14-.5-5.77-4.34-9.73-7.36-14.09-2.55-3.68-5.35-4.06-9.51-1.78-2.7,1.48-5.35,1.49-7.71-.51-3.57-3.02-7.5-5.23-12.12-6.13-1.05-.21-1.93-.7-2.78-1.38-3.27-2.64-3.16-4.23.71-5.75,1.42-.56,2.54-1.34,3.52-2.39,2.9-3.11,1.98-7.15-2.09-8.31-4.94-1.4-9.93-.95-14.65.99-2.27.94-4.03.73-5.82-.73-4.17-3.39-8.28-6.86-12.53-10.15-2.22-1.72-1.32-4.06-1.67-6.16,2.05-3.64,4.2-7.22,6.88-10.46,5.24-6.34,12-10.11,20.02-11.54,11.47-2.04,22.94-2.12,34.46-.04,11.02,1.99,17.6,9.25,22.83,18.27,7.95,13.71,9.56,28.67,8.43,44.13Z"/>
  <path class="cls-3" d="M766.28,27.21c-3.65,4.91-10.47,6.63-16.64,4.29-2.34-.89-1.03-2.95-1.62-4.39,4.66-7.07,11.79-8.53,19.51-8.4,3,.05,2.67,2.13,1.51,3.81-1.04,1.51-2.06,2.99-2.77,4.69Z"/>
  <path class="cls-18" d="M648.65,491.64c3.14-1.53,3.87-5.1,6.34-7.35,10.25-9.35,22.87-12.87,35.9-15.63,6.05-1.28,12.17-1.71,18.35-1.57,1.19.03,2.91.55,3.25-1.3.36-1.95-1.33-2.34-2.71-2.7-2.51-.66-4.51-2.87-7.37-2.4,0,0-.02.02-.02.02-1.51-.83-3.31-.02-4.87-.94-.87-.51-2.03-.51-1.98-1.93.05-1.48,1.38-1.29,2.21-1.75,2.43.08,3.92-1.51,5.42-3.07.22-.07.45-.11.69-.11,3.02-.17,5.68-1.24,8.02-3.13,1.24.49,2.18,2.27,3.83,1.04,1.59-1.19.21-2.67.27-4.02,8.8,1.71,14.46-4.44,20.93-8.48,1.53-.96,1.48-2.96,1.6-4.69.27-4.13,1.24-8.04,3.52-11.57,1.77-2.74,4.24-3.95,7.42-3.17,3.12.76,4.37,3.06,4.55,6.14.09,1.48-.5,3.48,1.46,4.1,1.91.6,3.15-.96,4.3-2.21,3.14-3.38,6.34-6.67,10.27-9.18,2.29-1.47,3.18-3.61,3.28-6.35.22-6.24,2.3-7.12,8.21-8.84,8.55-2.49,16.3.36,24.36,1.56-.03.4-.07.8-.11,1.2-2.75,2.93-1.62,6.63-1.13,9.7,1.01,6.41-.68,12.16-2.8,17.89-2.04,5.53-1.97,5.79,4.05,5.72.08,1.9-1.68,1.72-2.7,2.29-3.86,2.16-5.45,5.63-4.27,9.93.8,2.91,1.62,5.82,2.07,8.81.63,4.15-.9,6.19-5.05,6.8-1.16.17-2.37.1-3.49.53-.99.39-2.11.89-1.91,2.15.22,1.39,1.51,1.26,2.54,1.17,3.27-.29,6.52-.68,9.74-1.36,1.64-.34,3.36-.91,4.83.53-.54,2.2-2.56,2.03-4.1,2.38-3.97.91-8.04,1.33-12.07,1.92-1.58.23-3.46.52-3.32,2.59.12,1.78,1.93,2.11,3.36,2.1,4.88-.06,9.69.91,14.57.94,2.68.02,5.32-.41,7.62-1.72,7.67-4.35,16.06-6.39,24.59-8.21,13.74-2.93,27.44-6.12,41.27-8.48,8.42-1.43,16.79-2.93,24.99-5.24,5.93-1.67,11.84-3.46,17.4-6.22,1.43-.71,2.25-1.75,2.84-3.1.93-2.1.83-4.35.99-6.58.25-3.45-.89-5.33-4.62-4.99-.65.06-1.29-.2-1.88-.53-.92-2.1.88-2.1,1.93-2.12,3.22-.05,4.77-1.96,6.29-4.5,3.15-5.27,6.84-10.21,9.72-15.66.74-1.4,1.88-2.77,3.75-2.05,1.76.68,1.85,2.39,1.77,4-.11,2.45-1.13,4.82-.78,7.3,1.36.52,2.55-1.21,3.81-.06-1.22,2.13-3.12,3.5-5.22,4.65-.92.5-2.1,1.02-1.29,2.35.68,1.11,1.79.91,2.8.36,4.6-2.51,9.24-4.95,13.76-7.58,6.23-3.63,12.15-7.84,18.62-10.96,3.84-1.85,8.53-1.03,12.79-.33,1.26.2,2.98,1.77,2.61,3.12-1.28,4.64.75,9.65-3.08,14.17-4.3,5.08-8.29,10.51-12.43,15.76-5.83,7.39-14.03,11.23-22.33,15-19.83,8.98-39.88,17.45-59.54,26.82-16.34,7.78-33.37,13.87-50.76,18.96-11.71,3.43-23.39,6.97-35.48,8.86-15.01,2.35-30.03,1.88-45.16.93-10.77-.67-21.37-2.75-32.17-2.92-2.15-.03-3.89.36-4.96,2.37-1.06-.3-2.15.31-3.21-.08-.16-1.56-.63-2.97-2.52-2.88-2.75.12-5.62-.92-7.88,2.07-7.02,9.28-16.6,14.59-27.86,17-9.26,1.98-17.49-1.67-25.67-5.12-2.6-1.1-5.09-2.54-7.19-4.69-6.37-6.52-7.54-16.59-2.49-24.32.65-1,1.33-1.93,1.53-3.13Z"/>
  <path class="cls-21" d="M807.41,469.47c-4.77.67-9.56,1.23-14.31,2.08-1.99.36-3.57.05-4.25-1.77-.8-2.16,1.12-2.91,2.59-3.74,1.47-.83,3.09-.41,4.64-.56,3.3-.31,4.66-2.11,3.97-5.32-.61-2.81-1.21-5.62-2.04-8.37-1.9-6.34.41-10.58,6.95-12.48.34-.1.61-.45.91-.69,6.03-2.65,12.49-3.56,18.89-4.69,15.87-2.81,31.95-4.15,47.84-6.67,10.03-1.59,20.07-4,29.58-7.94,3.08-1.28,4.96-3.52,4.88-6.94-.17-7.3,2.26-13.3,8.13-17.87,2.74-2.14,4.23-5.33,6.18-8.12.53-.76,1.06-1.68,2.18-1.05.97.55,1,1.53.6,2.43-.8,1.8-1.76,3.53-2.52,5.35-1.85,4.44-.8,5.92,4.03,5.1,3.07-.52,6.06-1.67,8.99-2.77,7.24-2.72,14.44-5.55,21.63-8.38,3.69-1.46,7.3-.11,10.88.38,1.96.27,3.27,4.97,2.1,7.29-1.63,3.24-2.19,6.96-4.55,9.86-6.21,5.67-12.06,11.74-18.92,16.67-2.01-.27-2.92,3.22-4.7,1.94-2.12-1.52.47-3.79.12-5.84-.22-1.33.49-2.8.65-4.22.12-1.06,0-2.26-1.23-2.61-1.24-.36-2,.69-2.42,1.6-2.66,5.86-6.96,10.73-9.94,16.34-1.82,3.42-3.79,5.05-7.56,4.67-.55-.06-1.15.45-1.73.7-.9,2.88-3.66,2.42-5.51,2.43-4.54.01-8.41,1.95-12.41,3.47-12.73,4.86-25.54,9.53-38.15,14.72-7.78,3.2-15.7,6.03-23.72,8.36-9.41,2.74-18.88,5.39-28.48,7.42-1.18.25-2.36.18-3.31-.75Z"/>
  <path class="cls-11" d="M720.73,512.72c1.1-1.08,2.2-2.35,3.21.08-2.59,8.26-.85,17.09-3.37,25.36-.82.66-.77,1.54-.62,2.45-.91,1.25-1.73,2.59-2.77,3.72-1.2,1.3-2.36,3.11-4.51,2.39-2.22-.75-2.99-2.7-3.2-4.9-.04-.38-.14-.76-.21-1.14-.02-.57-.04-1.15-.07-1.72-.82-2.67-.09-4.85,1.33-7.29,3.62-6.18,7.64-12.18,10.19-18.95Z"/>
  <path class="cls-13" d="M411.25,116.96c-5.44,1.52-10.97.68-16.44.45-1.92-.08-3.89-.43-5.86-.47-12.22-.29-24.46-.37-36.67-.93-16.61-.76-33.2-1.68-49.69-4.38-11.79-1.93-23.22-5.22-34.88-7.56-15.19-3.04-30.34-5.83-45.94-5.41-10.4.28-20.81.31-31.21,0-17.03-.49-34.02-2.07-51.03-2.88-11.79-.56-23.54-2.27-35.38-1.78-1.48-.56-1.77-1.75-1.79-3.17-.11-7.52,1.05-14.89,2.41-22.25.36-1.95,1.53-2.94,3.52-3.07,3.93-.24,7.86-.62,11.79-.79,6.41-.28,8.45-1.65,8.19-7.88-.3-7.1,2.69-7.89,8.6-7.97,16.4-.22,32.17-4.05,47.93-8.23,17.44-4.62,34.95-7,53.29-4.07,21.63,3.45,42.88,9.06,64.67,11.35,8.07.85,16.31.37,24.46,0,8.38-.39,16.73-1.34,25.09-2.14,15.14-1.44,30.3-2.76,45.32-5.24,2.97-.49,5.98-.68,8.98-1.02.91,4.49,1.22,9.1,1.21,13.62-.02,17.72,2.64,35.25,3.42,52.91.09,2.1.77,4.12,1.04,6.2.21,1.67.61,3.42-1.03,4.71Z"/>
  <path class="cls-19" d="M411.25,116.96c.31-5.93-1.54-11.62-1.73-17.54-.45-13.49-2.73-26.87-2.68-40.4.02-5.01-.71-9.94-.94-14.91-.08-1.59-.04-3.14.72-4.59.35-.27.7-.53,1.05-.8,6.1.26,11.13-2.01,15.72-5.98,8.07-6.98,16.56-13.41,26.92-16.77,11.8-3.82,23.55-3.19,35.23.49,11.26,3.54,21.21,9.5,30.99,16.02,6.43,4.29,14.34,5.57,21.68,7.92,1.8,1.11,2.68,2.77,3.08,4.82,2.91,14.99,3.14,30.06,1.48,45.2-.74,6.79-.69,13.65-1.76,20.42-.19.47-.48.86-.86,1.19-3.5,1.99-7.16,1.79-11.04,1.31-6.78-.85-13.62-.68-20.41.02-8.23.84-16.49.24-24.75.96-5.6.49-11.15,1.3-16.73,1.9-8.45.91-16.94,1.48-25.39,2.02-8.47.54-16.98,1.52-25.52,1.04-1.89-.11-3.72-.05-4.69-2.09-.08-.14-.2-.22-.35-.25Z"/>
  <path class="cls-19" d="M64.68,100.48c-4.23-.36-8.97-.61-13.67-1.2-11.31-1.43-21.3,1.6-30.46,8.19-4.02,2.89-8.03,6.04-13.25,6.59-5.52.58-7.81-1.44-7.19-6.92,1.93-17.17,9-31.02,24.98-39.5,6.59-3.5,12.41-8.36,18.23-13.08,1.42-1.15,3-2.35,3.9-3.88,6.43-10.92,17.77-15.64,27.65-22.21.22-.14.48-.35.71-.33,8.33.5,12.95-6.24,19.04-9.98,8.02-4.94,7.86-5.24,13.93,2.19,5.66,6.92,11.51,13.69,13.67,22.78.99,4.15.77,5.45-3.4,5.21-7.78-.45-12.53,3.5-16.32,9.49-.49.78-1.33,1.53-1.07,2.46,1.32,4.8-2.04,4.09-4.9,4.58-5.25.9-10.72-.28-15.82,2.43-4.69,2.5-6.66,6.42-7.72,11.19-.52,2.33,1.03,3.62,2.47,5,2.77,2.67,4.22,10.54,2.56,13.83-1.01,2.01-2.93,2.58-4.94,2.75-2.62.22-5.26.28-8.39.44Z"/>
  <path class="cls-1" d="M865.91,119.94c19.98-1.36,39.98-2.25,59.98-3.24,7.46-.37,14.89-.59,22.34-.58-.38.52-.75,1.03-1.14,1.55-18.52-.16-36.93,1.95-55.41,2.67-19.29.76-38.58,1.96-57.86,1.18-18.11-.73-35.86-4.03-52.98-10.34-4.19-1.55-8.38-2.9-12.09-5.52-1.53-1.08-3.49-2.01-5.49-.6-1-1.03-.95-2.14-.24-3.29,1.99-1.36,3.82-.4,5.53.54,18.95,10.42,39.58,14.27,60.83,15.93,12.16.95,24.36.87,36.51,1.7Z"/>
  <path class="cls-10" d="M805.87,404.11c-1.49.68-2.68.97-4.62.46-5.57-1.47-11.26-4.08-17.18-1.02-.55.28-1.28.23-1.93.28-6.77.56-7.9,1.67-7.85,8.39.02,2.31-.51,4.24-2.41,5.47-4.79,3.1-8.83,6.99-12.51,11.3-.42.49-1,.87-1.56,1.19-2.67,1.53-4.61.51-4.72-2.6-.12-3.29.37-6.87-3.97-7.92-3.44-.83-5.7.97-7.93,6.09-1.16,2.68-1.74,5.55-1.6,8.43.16,3.41-1.58,5.39-4.26,6.89-3.67,2.05-7.53,3.8-10.99,6.14-3.11,2.11-5.69,2.14-8.35-.42-8.54-9.45-12.41-20.33-9.73-33.03,2.35-11.15,6.3-21.68,12.73-31.2,6.31-9.34,15.73-12.99,26.32-13.71,21.99-1.48,41.59,4.67,57.82,19.96,5.09,4.79,5.71,10.15,2.75,15.29Z"/>
  <path class="cls-13" d="M540.36,111.39c-.22-10.13,1.16-20.18,1.81-30.26.68-10.56.34-20.98-1.49-31.37-.56-3.18-.25-6.61-2.48-9.35.46-.01.92-.03,1.38-.05.73.84,1.65,1.45,2.75,1.16,7.01-1.8,14.27-1.74,21.38-3.04,13.01-2.37,25.95-5,38.87-7.76.76-.16,1.53-.37,2.26-.65,6.59-2.52,7.83-2,9.46,4.95,3.26,13.9,6.51,27.79,8.3,42,1.48,11.71,2.74,23.42,3.7,35.18-.08,2.77-1.6,3.64-4.27,3.94-13.9,1.57-27.81.9-41.63-.29-12.25-1.05-24.47-2.39-36.76-2.93-1.32-.06-2.68,0-3.29-1.56Z"/>
  <path class="cls-16" d="M540.36,111.39c1.43.87,3.03.72,4.6.78,12.04.4,24.01,1.6,36,2.78,11.54,1.13,23.28,2.43,34.97.51,1.8-.3,3.68-.19,5.52-.12,2.39.09,4.01-.87,4.85-3.11.26.98.57,1.91,1.64,2.31.04.33.08.65.11.98-3.66,2.23-7.87,1.96-11.83,2.09-16.69.55-33.32-.45-49.95-2.07-8.86-.86-17.74-2.09-26.69-1.84-.68-.89.03-1.52.41-2.22l.36-.09Z"/>
  <path class="cls-5" d="M697.76,456.1c-2.32,1.59-2.08,2.61.58,3.5,1.34.45,2.94-.06,4.06,1.12-2.55.31-4.96-.22-7.29-1.22-.91-.39-2.52-.21-2.45-1.51.08-1.32,1.65-1.54,2.75-1.84.73-.2,1.56-.04,2.35-.04Z"/>
  <path class="cls-14" d="M537.92,504.32c4.6,1.45,9.41,1.72,14.1,1.31,13.74-1.21,27.3-3.48,40.28-8.4,3.42-1.3,6.85-2.63,10.15-4.21,2.01-.97,3.27-.66,4.09,1.32,1.85,4.47,3.83,8.89,5.42,13.45,5.58,15.95,11.43,31.83,14.17,48.62.99,6.06,2.29,12.08,3.44,18.12-.61,2.46-2.69,3.08-4.73,3.6-8.4,2.13-16.96,3.2-25.58,3.93-18.47,1.58-36.98.46-55.46.76-2.03.03-4.31.47-5.65-1.81-.52-8.02.44-16.02.4-24.02-.07-15.9-.53-31.81-.65-47.71-.02-2.1-1.36-3.29-2.01-4.93.62-.76,1.29-.63,1.98-.1l.05.07Z"/>
  <path class="cls-2" d="M535.89,504.35c-5.74-1.18-11.53-2.18-17.22-3.59-4.05-1-7.55-3.3-10.83-5.88"/>
  <path class="cls-22" d="M865.91,119.94c-23.63.93-47.16.03-70.19-5.65-10-2.47-19.77-6.08-28.69-11.49-1.23-.74-2.38-1-3.72-.75-.51.32-1.06.45-1.66.38-5.37-1-9.42-4.79-14.32-6.81-2.39-.99-4.61-2.37-7.19-2.89-4.3-3.75-9.03-6.74-14.64-8.15-.33-.31-.65-.62-.98-.94.21-1.85,1.15-2.41,2.99-2,3.85.85,7.63,1.82,11.18,3.62,7.37,3.74,14.54,8.01,22.09,11.19,14.1,5.92,28.19,11.97,42.93,16.32,5.19,1.53,10.39,2.55,15.68,3.31,2.34.33,4.49.21,5.08-2.88.23-1.18,1.39-2.55,2.54-1.37,4.75,4.86,11.29,3.41,16.92,5.08,6.57,1.95,13.35,2.52,20.2,2.42.59,0,1.19.4,1.79.62Z"/>
  <path class="cls-16" d="M540,111.48c.43.85-.24,1.49-.41,2.22-4.41,1.23-8.85.16-13.27.24-20.7.35-41.41.29-61.98,3.44-6.56,1-13.3,1.21-19.95,1.71-9.8.73-19.67.68-29.51.97-1.21.04-2.35-.17-3.42-.75.05-.7.1-1.4.14-2.1,1.57,1.1,3.3,1.36,5.2,1.3,20.21-.65,40.39-1.6,60.44-4.53,4.67-.68,9.44-.49,14.16-.83,9.44-.67,18.92-.73,28.38-.94,3.54-.08,7.08-.14,10.62.54,3.25.62,6.53.19,9.6-1.26Z"/>
  <path class="cls-16" d="M761.86,101.93c.48.04.96.08,1.45.12-.01,1-.02,2.01-.03,3.01-1.43,5.5-4.52,9.95-8.63,13.77-2.01,1.87-4.38,1.29-4.53-.94-.52-7.81-7.21-12.45-9.3-19.17-2.5-8.03-8.96-10.82-15.32-14.14,6.12.33,10.63,3.72,14.83,7.72,2.84,5.46,6.04,10.7,9.59,15.73,1.23,1.75,1.54,3.88,1.99,5.93.46,2.11,1.49,2.19,2.97.8,2.57-2.39,4.27-5.25,5.25-8.62.42-1.44.18-3.22,1.73-4.21Z"/>
  <path class="cls-16" d="M150.59,374.8c.45-5.72-.95-11.77-3.53-17.64-1.83-4.15-.93-5.75,3.47-7.18,1.87-.61,3.63-1.6,5.53-2.06,8.59-2.09,10.5-.44,12,8.46.97,5.78,2.76,11.42,3.41,17.28.13,1.17.39,2.33.42,3.5.14,5.22.13,5.19-4.75,3.37-4.23-1.58-7.66.79-11.1,2.56-4.92,2.54-5.45,2.31-5.46-3.23,0-1.45,0-2.9,0-5.06Z"/>
  <path class="cls-7" d="M721.31,518.55c-1.09,4.53-.47,8.6-.8,12.62-.4,4.75-1.71,9.17-5.17,12.73-1.77,1.81-3.19,1.38-3.71-.79-.98-4.12-2.38-8.25.84-12.31,2.01-2.53,3.31-5.64,4.95-8.47.82-1.41,1.29-3.16,3.91-3.79Z"/>
  <path class="cls-6" d="M761.86,101.93c-.46,5.57-2.6,10.32-6.76,14.15-2.08,1.91-3.55,2.54-3.96-1.08-.5-4.48-2.83-8-5.47-11.52-2.48-3.32-4.88-6.83-5.34-11.19,1.34-.57,2.56-.08,3.71.51,5.95,3.02,11.88,6.08,17.81,9.12Z"/>
</svg>