<?xml version="1.0" encoding="UTF-8"?>
<svg id="Layer_1" xmlns="http://www.w3.org/2000/svg" viewBox="0 0 926.34 907.62">
  <defs>
    <style>
      .cls-1 {
        fill: #dba47c;
      }

      .cls-2 {
        fill: #fbcaa5;
      }

      .cls-3 {
        fill: #ced6d9;
      }

      .cls-4 {
        fill: #d84040;
      }

      .cls-5 {
        fill: #8f7b6a;
      }

      .cls-6 {
        fill: #cad2d2;
      }

      .cls-7 {
        fill: #f3cdab;
      }

      .cls-8 {
        fill: #2a2a2a;
      }

      .cls-9 {
        fill: #dba57c;
      }

      .cls-10 {
        fill: #cad0d0;
      }

      .cls-11 {
        fill: #b0b7b5;
      }

      .cls-12 {
        fill: #43423f;
      }

      .cls-13 {
        fill: #ddac86;
      }

      .cls-14 {
        fill: #fbcba6;
      }

      .cls-15 {
        fill: #fff;
      }

      .cls-16 {
        fill: #f3cea8;
      }

      .cls-17 {
        fill: #cea684;
      }

      .cls-18 {
        fill: #dba67f;
      }

      .cls-19 {
        fill: #8e8e8e;
      }

      .cls-20 {
        fill: #231f20;
      }

      .cls-21 {
        fill: #282828;
      }

      .cls-22 {
        fill: #b0b6b8;
      }

      .cls-23 {
        fill: #7c99ab;
      }

      .cls-24 {
        fill: #cfd6d9;
      }

      .cls-25 {
        fill: #050605;
      }

      .cls-26 {
        fill: #616b6b;
      }

      .cls-27 {
        fill: #adb5b8;
      }

      .cls-28 {
        fill: #0a0909;
      }

      .cls-29 {
        fill: #fefdfe;
      }

      .cls-30 {
        fill: #fefefe;
      }

      .cls-31 {
        fill: #cdd4d5;
      }

      .cls-32 {
        fill: #040404;
      }

      .cls-33 {
        fill: #717e80;
      }

      .cls-34 {
        fill: #b1b8b4;
      }

      .cls-35 {
        fill: #fccaa5;
      }

      .cls-36 {
        fill: #adb5b7;
      }

      .cls-37 {
        fill: #d84140;
      }

      .cls-38 {
        fill: #8a7b6c;
      }

      .cls-39 {
        fill: #687875;
      }
    </style>
  </defs>
  <path class="cls-15" d="M499.96,765.49s-20.47-15.4-33.27-10.39-3.15,51.12-3.15,51.12l33.74-8.6,2.68-32.13Z"/>
  <polygon class="cls-15" points="835.75 815.74 822.9 837.89 839.68 854.61 862.19 832.11 859.55 811.53 835.75 815.74"/>
  <path class="cls-35" d="M180.29,592.29c-2.57,7.24-3.22,14.9-3.81,22.41-1.37,17.4-4.06,34.53-7.32,51.67-2.1,11.04-2.12,22.53-2.92,33.78-1.31,18.43-5.94,36.06-9.44,53.99-3.72,19-7.25,38.04-9.53,57.28-.18,1.5-.7,2.96-1.07,4.44-4.67,2.99-8.56,6.66-11.12,11.7-1.18,2.32-2.79,4.46-5.38,5.52-4.64,1.75-9.35,2.02-14.15.68-1.1-.53-1.84-1.37-2.29-2.49-1.6-9.73-1.37-19.64-1.65-29.4-.82-27.59-3.41-54.96-6.64-82.33-.88-7.43.77-14.84,1.88-22.17,2.83-18.63,5.01-37.27,4.38-56.16-.24-7-1.3-13.73-5.32-20.42-2.77,3.55-3.41,7.25-4.37,10.7-4.59,16.44-9.38,32.81-14.25,49.17-1.83,6.13-2.5,12.45-2.92,18.77-1.3,19.5-5.53,38.49-9.64,57.52-2.27,10.5-2.69,21.25-2.97,31.94-.31,12.02-1.74,23.97-1.77,36-2.81,4.97-8.6,7.6-10.49,13.3-6.53.26-13.04,1.65-19.62.62-1.42-.18-2.56-.75-2.99-2.25-.16-16.02-4.01-31.48-7.24-47.01-3.51-16.84-6.25-33.77-7.33-50.96-.24-3.9-.94-7.77-1.23-11.68-1.64-22.32,2.67-43.88,9.54-64.87,5.19-15.84,6.56-31.96,6.2-48.37-.24-10.68.87-21.4-1.04-32.05-.36-2.01.63-4.25.99-6.39,6.19-3.55,11.97.5,17.44,1.81,15.7,3.77,31.34,7.39,47.54,8.13,9.23.42,11.15,3.09,9.1,12.04q-2.09,9.14-.97,13.16c2.36-.21,3.27-2.2,4.07-3.83,4.75-9.61,13.46-11.68,22.95-12.28,13.48-.85,26.98-1.47,40.38-3.29,1.17.04,2.23.33,3,1.31Z"/>
  <path class="cls-35" d="M851.42,828.75c-2.63-2.37-5.88-.94-8.82-1.4-4.95-.78-8.11-2.72-7.28-8.53,1.52-10.54,2.55-21.15,4.25-31.66,3.21-19.81,5.63-39.67,5.03-59.79-.16-5.25.01-10.46,1.32-15.58,1.72-3.51-.34-7.02-.03-10.53-.01-2.48,1.7-5.44-.97-7.25-2.58-1.76-4.87.73-7.22,1.53-2.24.76-4.08,2.45-6.42,3.07-3.23.27-6.17,1.7-9.31,2.32-5.05-.84-9.94.97-14.98.83-5.2-.15-7.68-2.15-7.53-7.47.34-11.94,2.73-23.38,7.92-34.18,7.53-15.66,18.58-28.96,28.67-42.94,4.93-6.82,10.23-13.02,17.29-17.61.98-.85,1.94-1.74,3.16-2.26,12.08,4.32,24.19,8.58,36.24,12.99,8.02,2.94,15.24,7.41,22.29,12.18,10.27,6.95,10.52,17.06,9.51,27.98-1.44,15.58-5.11,30.85-5.22,46.67-.11,17.05-6.51,32.74-13.75,48.01-9.7,20.45-19.07,41.06-28.94,61.43-2.46,5.08-6.7,9.45-1.93,15.24-7.79-1.3-14.53.76-20.25,6.24-.79.76-1.88,1.11-3.04.72Z"/>
  <path class="cls-35" d="M695.75,772.17c-.83,20.68-6.01,40.04-14.75,58.97-7.09,15.36-19.68,25.4-30.72,36.88-7.61,7.92-18.61,8.77-28.83,4.83-16.29-6.28-32.96-11.36-49.41-17.1-6.12-2.14-11.35-7.3-16.49-11.66-9.15-7.77-17.76-16.19-26.92-23.96-8.12-6.89-17.65-11.06-28.3-12.46-1.9-.87-1.8-2.79-2.38-4.39-2.34-6.45-6.34-9.13-13.26-9.63-2.86-.21-6.65,1.56-8.18-2.79,1.94-2.72-.64-4.47-1.54-6.47-3.97-8.81-.5-19.31,8.17-23.27,3.95-1.8,7.67.63,11.27,1.87,14.65,5.04,28.49,12.23,43.47,16.37,13.19,3.65,27.01,4.49,40.11,8.69,7.11,2.28,14,4.8,19.24,10.44-3.59,2.37-5.72-1.59-9-2.11,6.25,5.46,12.06,10.88,13.04,19.67,2.87-4.62,3.27-8.65-.97-12.29-1.56-1.34-3.83-2.42-2.98-5.2,8.51,3.53,9.21,3.09,10.53-6.34.2-1.46.85-2.85,1.3-4.28,1.04-1.52,1.8-3.32,3.83-3.85,7.41-1.03,14.67,1.05,22.09.96,13.21-.15,26-1.91,38.42-6.36,5.46-.67,10.53-2.59,15.51-4.86,2.13-.97,4.16-2.54,6.76-1.7Z"/>
  <path class="cls-35" d="M10.57,455.43c-2.12-24.5-4.35-48.98-7.52-73.38-1.73-13.31.4-26.64,1.29-39.88,1.2-17.93,2.14-35.74-1.96-53.36-4.36-18.74-1.89-37.33.8-55.86,1.12-7.75,1.91-15.49,1.91-23.22,0-18.7,8.05-31.86,25.69-38.41,10.67-3.96,20.53-9.2,29.74-15.79-1.71,8.42-8.9,10.99-15.39,14.2-2.12,1.05-4.64,1.22-6.76,2.41-.95.53-2.08,1.15-1.96,2.38.12,1.3,1.36,1.54,2.44,1.66,5.26.62,10.44-.49,15.65-.87,1.42-.1,2.11-1.3,2.86-2.43,3.16-4.77,15.93-8.21,20.76-5.55,3.1,1.71,4.27,4.65,2.92,7.81-2.1,4.92-2.58,10.05-2.87,14.98,2.9-3.85,8.61-3.64,10.49,1.32,1.64,4.32,3.18,6.06,7.76,4.17,1.67-.69,3.34.58,4.39,2.18.64,1.24.84,2.57.82,3.94.03,2.56-1.58,4.47-2.55,6.66-3.05,6.91-7.66,13.28-6.82,21.54.31,3.02-1.71,5.38-4.76,6.39-2.88.95-5.14-.04-6.78-2.53-.36-.55-.65-1.66-.99-1.62-8.69.96-5.23-5.25-5.55-9.26-.44-5.37-4.08-7.2-8.69-4.26-4.92,3.14-7.69,6.81-6.46,13.58,1.24,6.78.63,13.95.54,20.92-.09,7.19-.61,14.33-.1,21.57.63,8.91-2.68,12.98-11.38,16.58-10.21,4.23-12.52,7.62-12.47,18.73.01,3.07.15,6.12-.58,9.14-1.83,7.57-2.3,14.74,1.46,22.29,2.55,5.13,2.77,11.26.27,17.24-2.08,4.97-1.63,10.48.97,15.26,3.3,6.07,3.45,11.61-1.13,16.98-2.67,3.13-2.09,6.12.6,8.73,4.84,4.7,5.34,9.95,1.83,15.39-1.44,2.23-.62,4.16-.6,6.25.04,4.52,1.15,9.25-3.57,12.53-1.98,1.37-1.16,3.59-.39,5.43,1.39,3.33,1.71,6.77,1.27,10.31-.3,2.36-1.31,4.33-3.89,4.62-2.71.3-2.93-2.14-3.61-3.89-.63-1.64-.78-3.41-1.15-5.12-.39-1.8-1.09-3.72-3.11-3.77-8.17-.2-8.65-5.83-8.74-11.87-.01-.81.07-1.74-1.06-2.47-1.11,5.9-1.82,11.58-.99,17.57.5,3.59,2.51,8.27-2.65,10.77Z"/>
  <path class="cls-2" d="M808.78,243.98c.02,3.1-1.8,5.53-1.59,9.13,1.56,26.4,1.94,52.81-9.43,77.71-1.99,4.36-4.06,8.32-9.91,7.78-1.64-.15-3.53.89-3.42,2.42.49,6.67-3.41,13.2-.57,19.9-.67,4.25,1.46,7.53,3.75,10.76,5.97,8.39,8.37,17.68,7.24,27.94-1.29,11.69-7.7,16.33-19.37,14.36-12.21-2.06-19.61-10.2-25.48-19.96-8.8-14.65-18.1-28.88-29.52-41.66-1.55-1.73-3.26-3.61-3.46-6.2,7.8-9.08,13-19.02,13.73-31.47.25-4.37-3.57-6.35-3.04-10.09,1.62-1.04,2.86.5,4.31.59,5.31-3.17,5.65-6.04.95-8.64-9.19-5.08-13.29-12.82-12.4-23.26.23-2.7.66-5.4,3.54-6.48,3.03-1.14,5.44.46,7.76,2.28,2.64,2.08,2.91,5.8,5.82,8.24,3.36-4.3,2.71-9.19,2.44-13.75-.42-7.09,2.16-12.57,6.97-17.61,6.37-6.67,14.61-6.74,22.5-6.14,6.75.51,13.53,1.32,20.22.73,6.79-.6,12.62,2.43,18.95,3.41Z"/>
  <path class="cls-35" d="M89.67,139.57c9.73-9.75,11.96-22,11.74-35.08.42-1.31,1.49-2.12,2.34-3.1,4.9-5.67,4.66-7.25-1.38-11.83-7.03-5.33-11.14-12.19-10.63-21.31.15-2.7.51-5.39,3.43-6.52,3.07-1.19,5.49.33,7.67,2.34.97.9,1.54,2.12,2.41,3.09,1.1,1.23,1.24,3.97,3.33,3.52,2.52-.55,2.48-3.26,2.7-5.38.23-2.17.36-4.39.08-6.54-1.02-7.9,2.06-13.76,7.91-18.98,4-3.57,7.94-5.72,13.4-5.53,7.86.26,15.78.64,23.58-.09,8.57-.79,16.09,2.15,23.83,4.69-2.44,4.38-1.69,8.87-1.41,13.69,1.37,23.2.24,46.27-8.18,68.29-2.16,5.65-3.88,12.54-12.21,12.79-.86.03-2.41,1.15-2.43,1.79-.14,6.76-4.16,13.38-.8,20.26-.94,4.48,2.39,7.23,4.41,10.41,4.47,7.01,7.14,14.57,6.57,22.86-1.06,15.52-9.56,20.71-24.87,15.28-9.89-3.52-16.27-11.7-21.26-20.53-7.87-13.94-17.76-26.39-27.37-39.08-1.19-1.57-2.51-3.04-2.87-5.06Z"/>
  <path class="cls-2" d="M635.24,631.25c2.21-7.98.1-15.95-.41-23.86-.93-14.62-.61-29.16.05-43.78.89-19.82,1.25-39.63-1.2-59.51-2.62-21.17-4.48-42.6.89-63.73,1.91-7.53.74-15.16,1.83-22.77,2.81-19.55,12.94-33.95,29.84-42.88,11.97-6.33,22.81-14.32,34.62-20.81,2.92-1.6,5.97-2.61,9.09-3.58,7.6,8.59,12.38,18.72,16.5,29.31,8.97,23.1,9.83,46.24.72,69.46-2.06,5.25-4.33,10.58-9.89,13.35-8.15-2.49-15.32-12.43-16.82-24.57-5.01,15.11-1.59,29.34-2.93,43.23-1.4,6.39-1.41,13.01-3.7,19.27-2.04,5.55-3.32,11.61-7.24,16.06-10.2,11.6-11.4,25.52-11.17,39.85.29,17.55-3.27,34.76-4.31,52.18-.18.72-.5,1.38-.94,1.97-.54.54-1.19.68-1.91.42-4.21-6.41-6.42-13.27-5.13-21.07,1.05-6.33-1.02-12.61-.59-18.98.25-3.78.53-7.37,2.74-10.62,2.04-3,2.95-6.51,2.49-10.03-.99-7.63.55-15.3-.65-22.89-.47-2.99.37-5.59,2.14-8.01,2.98-4.06,4.15-8.12.19-12.42-1.61-1.75-1.66-4.13-.34-6.13,1.34-2.02,3.35-1.37,5.35-.89,7.96,1.92,11.21-.9,9.87-9.11-.86-5.27-.33-9.84,2.78-14.31,5.99-8.59,4.93-18.36,3.78-27.94-.71-5.92-.76-11.8-.52-17.7.15-3.68,1.37-6.3,6.09-5.54,4.02.65,6.89-2.15,9.91-4.36,3.86-2.83,5.89-2.08,6.82,2.57.72,3.56.64,7.38,4.68,10.28.43-5.84-1.21-10.45-3.58-14.85-1.69-3.14-2.97-6.36-2.76-9.99.15-2.54,1.06-5.69,3.47-5.73,4.89-.08,5.13-2.5,4.68-6.18-.18-1.51,1.08-2.82,1.29-4.47-1.05.53-1.14,1.58-1.56,2.39-1.59,3.04-3.43,6.28-7.45,4.49-3.93-1.75-4.74-5.47-3.76-9.5.64-2.61,2.53-4.58,3.73-6.91,1.99-3.86,2.67-7.41-1.85-10.2-3.4-2.09-4.73-5.59-5.11-9.9-4.63,1.78-8.8,2.74-6.62,9.06,1.15,3.34-.85,6.12-4.31,6.96-3.89.95-7.43,2.4-10.75,4.66-2.14,1.46-4.62,1.07-6.93.02-1.6-.72-3.15-1.45-5.02-1.2-6.7.91-18.65,13.52-18.94,20.3-.17,4.21-2.25,7.48-4.56,10.7-1.96,2.73-2.76,5.41-.6,8.43,2.23,3.12,1.5,7.26,3.55,10.51,1.71,2.72,2.82,5.81-.06,8.35-3.4,3-5.27-1.07-7.85-2.42-.9,3.61-1.53,7.03-1.68,10.5-.15,3.51-.46,6.98-1.11,11.23,4.67-4.29,7.63-2.35,9.47,2.13,3.34,8.13,2.04,16.82,2.6,25.27.16,2.42-1.75,4.58-4.46,5-2.88.45-3.52-2-4.44-3.97-.8-1.72-.76-3.84-3.65-6.29,2.3,10.96.8,21.04,3.87,30.67,1.45,4.54,1.8,8.97.24,13.52-1.9,5.55-.23,11.28-.52,16.94-1.03,19.6-4.19,39.21-1.01,58.89.17,1.04.23,2.11,1.3,3.95,1.09-5.4.42-9.95.83-14.42.19-2.09,0-4.92,2.94-5.07,2.69-.14,3.78,2.45,3.84,4.55.33,11.11,1.17,22.37-2.7,33.04-1.57,4.33-2.27,7.71,1.13,11.4,2.5,2.71,2.32,6.05.22,9.08-1.38,1.99-2.55,3.99-3.31,6.34-2.12,6.54-5.7,12.94-.5,19.65.24.31.26.87.17,1.28-3.04,13.29.85,25.95,3.35,38.77.98,5.05,7.38,10.21,12.42,9.22,1.24-.24,1.71-1.03,2.29-2.02,3.31-5.62,5.9-5.75,9.84-.61,1.03,1.34,1.4,3.27,3.93,3.93-6.26-13.24-3.56-25.89,1.35-38.44.55-1.4,1.27-2.91-.97-4.17-2.48,1.73-1.34,4.74-2.23,6.99-.95,2.38-2.27,4.55-5.07,4.38-2.68-.17-3.15-2.72-3.72-4.82-.6-2.18-.19-4.34.41-6.48.59-2.11,1.25-4.21,1.02-6.45-.62-6.18-4.91-8.12-9.97-4.52-3.12,2.22-6.53,6.24-10.15,1.99-3.3-3.87-.09-7.8,2.36-11.2.77-1.06,1.99-1.72,2.92-2.63,3.25-3.2,4.05-6.43.82-10.35-5.79-7.03-4.18-15.33-2.8-23.16.81-4.6,3.35-4.6,8.77-.74,2.12-2.1,2.22-5.16,3.55-7.62,1.13-2.08,2.35-4.01,4.93-1.54,2.44,5.88.26,11.67-.69,17.35-1.24,7.4-1.05,14.72-.61,22.09,3.65,7.3,11.28,10.53,16.58,16.13,1.1,1.35,2.34,2.57,3.52,3.84,5.03,5.4,5.49,7.17,1.33,12.99-4.5,6.3-3.16,13.28-3.44,20.12-.45,6.93,3.55,12.89,4.28,19.57.06.73-.05,1.43-.29,2.12-.18.32-.37.63-.56.94-3.77,4.32-8.91,2.67-13.57,3.11-9.14-.53-18.34-.54-27.09-3.91-2.12-.82-4.02-1.68-5.12-3.77-5.39-12.03-5.46-25.27-8.57-37.83-.22-4.53-.29-9.06.17-13.58,2.24-9.57,2.76-19.29,2.41-29.08-.12-3.28-.26-6.52-2.41-9.26-.33-.69-.28-1.35.14-1.99Z"/>
  <path class="cls-37" d="M851.42,828.75c3.96-2.62,6.89-6.56,11.71-8.17,4.24-1.42,8.01-1.93,11.59,1.22-1.42,11.03,3.99,18.93,11.17,26.61,9.75,10.42,19.17,21,32.44,27.22,2.74,1.28,4.88,3.54,6.14,6.59,3.95,9.55,1.95,12.88-8.33,13.46-16.67.94-33.33.16-49.89-1.46-16.17-1.57-32.41-.58-48.58-2.04-14.21-1.28-17.99-7.22-11.61-20.02,4.88-9.78,10.52-19.12,10.14-30.74-.16-4.82,9.3-10.74,13.9-9.57,3.1.79,1.56,3.02,1.55,4.81,0,2.21-2.89,4.96.11,6.48,3.07,1.55,6.49.65,9.04-1.96,3.82-3.89,8.01-7.49,10.63-12.41Z"/>
  <path class="cls-35" d="M10.57,455.43c2.54-3.1,1.91-7.07,1.03-10.03-1.79-6.04.21-11.66.35-17.45.04-1.82.18-4.45,2.85-4.19,2.56.25,2.3,2.73,2.34,4.71.04,2.4-.15,4.86.27,7.2.46,2.53,1.93,4.74,5,3.76,5.05-1.6,6.18,1.24,6.57,5.27.3,3.04.64,8.47,2.96,7.89,4.47-1.12,1.96-6.3,2.02-9.74.03-1.75-1.78-3.45-2.21-5.31-.54-2.34-1.68-4.63,2.43-6.01,5.52-1.85,2.29-7.15,2.37-10.81.06-2.77-.41-4.71,1.63-7.48,2.46-3.33,2.78-7.88-1.56-11.54-5.82-4.9-5.52-7.39-.59-12.96,3.24-3.66,4.08-8.27,1.05-12.38-4.54-6.15-4.05-12.77-1.56-18.98,2.47-6.17,1.45-12.31-1.22-16.93-2.87-4.96-3.45-9.76-2.35-14.33,1.94-8.12,2-16.27,2.18-24.43.08-3.66,1.21-6.02,4.62-6.83,5.03-1.18,8.65-4.99,13.45-6.94,6.44-2.61,6.74-11.14,5.33-18.08-.67-3.31-.49-6.31-.2-9.62.93-10.29,1.03-20.68-.79-30.9-1.27-7.15,4.79-8.99,8.27-12.71,2.23-2.39,5.52-2.69,7.83-1.07,4.01,2.82,4.7,7.09,2.84,11.7-.49,1.22-.68,2.55.49,4.11,2.92-4.29,5.48-6.23,5.83,1.22.09,2.04,2.07,2.97,3.83,2.83,2.21-.18,5.16-1.38,4.83-3.61-1.7-11.72,6.18-20.2,9.6-30.16,3.13.35,2.95,2.95,2.92,4.93-.25,15.86-1.32,31.57-9.05,45.99-1.27,2.37-2.57,4.53-5.33,5.33-3.25.52-5.3-1.55-7.4-3.47-6.89-6.3-11.26-14.49-13.34-24.95-2.77,3.52-2.85,3.52-2.87,8.97-.04,13.34-.08,26.69,0,40.04.5,11.22-3.72,21.52-9.79,29.98-10,13.93-11.31,29.05-9.67,44.78,1.12,10.69.64,21.31,1.03,31.96-.01,10.31-3.29,20.14-4.84,30.22-1.62,10.54-1.78,21.23-4.08,31.68-.87,3.95.97,7.89,3.74,10.79,4.34,4.53,8.25,9.48,14.01,12.63,3.76,2.05,7.29,4.96,7.78,9.89-.02,1.32-.29,2.64-1.09,3.66-6.72,8.52-5.48,18.17-4.01,27.85-.29,5.83,3.44,11.14,2.25,17.1-.99,2.4-3.14,3.14-5.35,2.95-13.66-1.17-27.78.17-40.34-7.2-1.56-1.95-2.67-4.17-3.74-6.42-.87-11.28-4-22.24-4.77-33.54.56-4.83-.4-9.91,2.32-14.4,1.54-4.42.55-9.23,2.08-13.65.01-.44.02-.88.03-1.32Z"/>
  <path class="cls-14" d="M194.37,261.16c.53,13.43,2.19,26.93,1.35,40.27-1.97,31.04,4.67,61.69,3.06,92.7-.88,17.02.29,34.15-.2,51.2-.38,13.05,2.75,24.43,12,33.86,2.06,5.73-.17,9.35-5.75,10.86-4.23,1.15-6.77,6.72-12.19,4.59-3.44-4.25-2.87-9.62-3.35-14.43-2.16-21.59-6.64-42.59-13.31-63.25-5.05-15.65-6.03-31.57-4.66-48.3,2.36-28.86,9.14-56.81,14.06-85.14,1.23-7.1,4.07-13.82,6.63-20.56.39-1.03,1.04-1.93,2.38-1.81Z"/>
  <path class="cls-21" d="M730.21,306.87c-.85-.73-.88-2.38-2.5-2.26-1.35-1.95-2.71-3.9-4.07-5.85-11.9-16.9-14.73-35.94-13.03-55.96.51-5.97,3.81-10.7,8.62-14.13,3.25-2.32,6.09-4.94,8.56-8.05,1.8-2.28,4.11-4.02,6.84-4.94,13.04-4.39,26.03-9.2,40.1-8.62,6.11.25,12.16,1.44,17.79,3.92,10.78,4.76,17.18,17.04,15.18,28.52-.53,3.04-2.02,4.59-4.9,3.05-3.34-1.78-6.82-1.54-10.26-1.34-11.58.64-23.12-1.49-34.71-.11-7.62.91-16.94,10.32-17.15,17.99-.11,4.16.11,8.32-.1,12.47-.1,1.97-.37,4.27-2.49,4.97-2.64.87-3.14-1.77-4.02-3.37-1.07-1.96-2.28-3.76-4.15-4.98-4.87-3.19-8.56-1.37-8.97,4.41-.73,10.31,2.98,18.4,12.35,23.22,2.96,1.52,3.9,3.66,3.15,6.33-.8,2.84-2.1,5.88-6.23,4.74Z"/>
  <path class="cls-2" d="M824.83,473.92c2.94,6.72,1.19,13.72,1.01,20.57-.43,16.54-4.02,32.85-3.74,49.46.22,13.1.16,26.19-1.14,39.26-.26,2.6-.29,5.26,1.21,7.63-2.37,2.24-5.03.57-7.53.49-9.18-.29-18.29-1.46-27.39-2.69-6.03-.82-8.31-3.37-7.16-9.27,2.3-11.83,4.81-23.79,11.47-34.03,10.75-16.53,17.08-34.89,23.67-53.2,1.7-4.72,3.29-9.5,5.33-14.09.84-1.89,1.27-4.39,4.27-4.13Z"/>
  <path class="cls-37" d="M194.37,261.16c-10.31,30.27-15.58,61.6-19.49,93.2-1.34,10.81-3.26,21.68-3.15,32.51.09,9.72,2.49,19.5,5.72,28.77,8.18,23.46,12,47.74,14.66,72.3.26,2.37.98,4.68,1.48,7.02,2.05,1.66,2.83,4.06,2.76,6.44-.36,11.52,5.15,22.75,1.68,34.42-.25.83.07,1.73.63,2.46-.05,5.29.06,10.57,1.45,15.73.83,10.04,1.63,20.06.56,30.15-.41,3.93-2.27,5.86-6.16,6.04-1.7.08-3.49-.44-5.08.6-2.8,1.97-6.04,1.3-9.13,1.51-.91-.01-1.82-.02-2.74-.03-1.02-.64-1.93-1.34-1.2-2.75,3.65-3,8.18-2.69,12.47-3.29,6.63-.92,7.58-2.06,7.94-8.83.83-15.6-1.42-31.03-3.03-46.44-2.23-21.31-5.02-42.57-7.98-63.8-2.24-16.11-6.29-31.77-11.31-47.18-3.14-9.63-4.72-19.54-6.43-29.45-.33-26.64,3.84-52.77,9.17-78.75,3.44-16.73,6.93-33.42,12.54-49.64,3.34-9.67,2.86-19.91.18-29.83-5.03-18.64-11.73-36.71-18.82-54.65-1.66-4.2-4.25-7.6-8.16-10.29,5.15,8.04,5.07,16.93,4.53,25.84-.61,10.22-6.32,15.34-16.54,15.59-8.98.22-16.13-3.7-22.32-9.6-5.58-5.33-9.84-11.7-13.51-18.5-6.37-11.81-14.1-22.69-23.11-32.65-1.39-1.54-2.96-4.09-5.33-2.2-1.86,1.48-.24,3.71.64,5.36,8.5,15.98,15.19,32.67,17.5,50.68,2.43,18.95-1.39,37.05-9.95,54.09-3.17,6.32-9.48,9.19-15.42,11.7-7.56,3.19-10.86,8.21-12.11,16.21-1.77,11.34-6.67,21.8-12.94,31.37-4.37,6.68-6.46,13.56-6.65,21.55-.3,12.48,1.36,24.88.87,37.35-.79,2.22-.55,4.56-.86,6.83-.25,1.88.29,4.46-2.89,4.57-.45-16.17-.65-32.34-1.45-48.49-.53-10.72,4.26-19.18,9.44-27.92,5.67-9.57,10.77-19.57,10.49-31.25.2-7.71,3.92-12.21,11.61-14.02,4.81-1.13,8.26-5.5,13.18-6.78,4.78-3.07,6.2-8.35,7.66-13.13,4.2-13.77,7.27-27.78,4.26-42.33-.02-1.29-.05-2.58-.07-3.87-5.34-12.43-8.7-25.64-14.94-37.73-1.5-2.9-2.73-5.94-4.44-8.75-1.41-2.32-2.39-4.73-.58-7.33,2.32-3.42,6.09-3.68,9.65-4.38,11.15,11.75,20.66,24.75,28.79,38.73,4.89,8.4,10.21,16.44,18.36,21.95,6.62,4.48,14.7,7.11,21.51,2.41,7.79-5.37,6.73-14.47,5.14-22.89-1.25-6.63-4.9-12.01-8.57-17.47-1.28-1.9-4.54-4.56.15-6.62,6.66,4.45,12.67,9.64,17.75,15.87,2.82,2.23,4.57,5.11,5.81,8.5,4.77,13.12,9.11,26.38,13.65,39.58,1.37,3.99,1.38,8.12,2.19,12.15,2.4,9.8,1.62,19.58-.08,29.37Z"/>
  <path class="cls-24" d="M198.66,538.26c-2.88-6.94-.56-14.41-2.36-21.6-1.76-7.02-1.88-14.46-2.71-21.71,4.54-2.45,8.22-6.3,13.47-7.64,4.28-1.09,3.38-4.95,3.53-8.12,1.54,6.1,5.14,9.65,11.35,11.8,6.99,2.41,13.1,6.78,17.28,13.33,1.77,2.77,4.52,3.54,7.83,3.86,6.96.67,9.55,4.99,8.25,12.72-.81,4.81-4.88,7.07-11.05,6.05-3.05-.5-5.87-.84-8.71,1.24-8.82,6.45-18.94,5.99-29.12,5.08-3.82-.34-8.41-1.66-7.76,5.01Z"/>
  <path class="cls-37" d="M59.1,837.94c.23-6.29,4.41-9.43,9.48-11.85,7.71-1,16.3,3.64,19.79,10.71,1.94,3.94,3.06,8.16,4,12.43.82,3.73,2.93,6.62,5.79,9.76,2.13-6.65.96-13.11,2.75-19.17,1.99-6.74,7.05-9.97,13.53-8.31.44.42.88.85,1.33,1.27,2.09,1.68,1.07,4.54,2.52,7.14,4.15-2.87,7.91-5.8,11.87-8.39,4.12-3.52,5.04-9.34,9.33-12.81,2.04-1.66,3.8-3.45,6.71-2.86,3.37,2.85,5.07,6.44,5.14,10.88.09,5.95,2.21,10.86,6.82,14.96,8.01,7.13,15.59,14.73,23.52,21.96,3.89,3.55,8.6,5.83,13.69,7.32,7.93,2.32,13.29,10.32,12.34,18.48-.53,4.53-2.94,7.7-7.36,9.14-4.6,1.49-9.33,2.34-14.18,2.36-10.3.05-20.62.36-30.91,0-12.36-.44-24.27,1.66-36.35,4.01-13.91,2.71-28.1,3.32-42.41,1.97-11.74-1.1-23.53-1.39-35.26-3.05-4.86-.69-9.27-2.4-13.87-3.67-3.41-.94-5.55-3.57-5.11-7.45,1.74-15.6,3.39-31.22,6.44-46.64.92-4.66,3.83-7.77,8.2-9.55.8.47,1.6.95,2.39,1.42,2.66,2.23,1.65,5.16,1.39,7.88-.3,3.14.92,4.53,4.1,4.04,2.15-.33,4.26-.88,6.41-1.16,3.98-.52,6.44-2.27,6.39-6.65-.02-1.5.28-3.04,1.53-4.15Z"/>
  <path class="cls-35" d="M80.02,143.96c2.33,9.3,8.12,17.07,11.4,25.96,3.37,9.13,7.54,18,8.55,27.85-2-1.08-3.86-1.81-5.97.07-4.29,3.82-5.64,1.37-5.83-2.99-.07-1.56-.09-3.17-1.49-4.14-1.78-1.25-3.72-2.67-6.03-1.81-3.08,1.15-.8,4.41-3.18,7.7-1.17-7.47-1.52-13.63.92-19.65,2.89-7.14,1.73-8.9-5.7-8.19-2.82.27-5.68.09-8.52.11-1.81,0-3.65.18-4.45,2.08-.98,2.32-.56,6.71-3.23,6.51-7.15-.53-14.22,1.98-21.29.18-1.35-.34-2.13-1.5-2.08-2.98.06-1.8,1.4-2.54,2.77-3.32,5.43-3.11,12.26-3.02,17.04-7.78,2.61-2.6,5.74-4.68,7.58-8.01,1.71-1.28,3.43-2.56,5.14-3.84,3.85-2.44,8.3-3.76,11.95-6.56.47-1.06,1.35-1.3,2.4-1.19Z"/>
  <path class="cls-37" d="M716.76,461.86c9.48-9.24,12.79-21.41,14.33-33.72,3.18-25.48-3.68-48.84-17.65-70.19-1.59-2.43-2.98-4.79-3.49-7.64,1.74-2.43,3.88-4.2,7.08-4.15,12.23,12.87,22.71,27.06,31.57,42.43,4.29,7.43,9.02,14.41,16.2,19.48,4.47,3.16,9.54,4.44,14.74,4.96,6.89.69,10.73-2.08,12.62-8.85,3.6-12.84-.17-24.12-7.79-34.49-2.06-2.8-4.84-5.6-.49-8.78,2.36,1.06,4.09,2.88,5.69,4.84.33.58.34,1.16-.02,1.72-2.19,3.56,1.21,5.57,2.61,7.74,5.04,7.81,6.23,16.27,5.23,25.18-1.46,13.04-11.16,19.46-23.86,16.02-12.79-3.47-20.57-12.84-27.09-23.44-7.22-11.74-14.36-23.52-23.24-34.12-1.8-2.15-3.32-4.61-6.82-6.11.78,3.66,2.71,6.18,4.15,8.86,7.06,13.21,12.57,27.04,14.48,41.93,3.96,30.74-4.76,56.67-30.41,75.59-3.26,2.4-4.98,5.23-5.54,9.17-2.08,14.59-8,27.62-16.47,39.58-5.33,7.52-4.21,16.39-4.44,24.7-.42,15.33-2.06,30.49-4.01,45.65-1.79,3.38.41,8.39-4.33,10.57-.2-10.69,1.26-21.29,2.71-31.8,1.74-12.59.8-25.24,1.92-37.84.55-6.22,2-11.58,5.67-16.25,8.69-11.09,13.79-23.46,14.63-37.57.1-1.7.79-3.36,1.21-5.04,6.59-6.55,13.67-12.54,20.83-18.44Z"/>
  <path class="cls-20" d="M730.21,306.87c3.35-.39,5.05-2.41,5.32-5.63.25-2.93-1.91-3.77-4.07-5.16-7.46-4.77-11.39-11.87-12.1-20.7-.32-3.94.22-8.03,4.26-9.44,4.21-1.46,7.36,1.42,10.06,4.59,1.45,1.71,1.35,5.87,4.14,4.96,2.63-.86,1.36-4.66,1.67-7.17.82-6.49-1.46-13.17,4.1-19.22,6.27-6.81,12.79-10.44,22.27-9.68,9.81.78,19.71.35,29.57.46,1.31.01,2.65-.04,3.94.19,7.74,1.35,7.74,1.37,7.29-6.85-.67-12.36-8.51-21.03-20.87-23.55-17.71-3.61-34.59.14-50.53,7.11-8.62,3.77-15.44,11.55-20.58,19.32-5.5,8.32-3.27,18.73-2.32,28.26,1.07,10.74,3.99,21.05,10.1,30.21.82,1.24,1.91,2.49,1.18,4.2-7.31-6.2-9.88-14.79-12.12-23.61-3.17-12.48-4.73-24.97-.96-37.62.64-2.14,1.46-4.27,3.16-5.63,9.28-7.37,16.6-17.34,29.14-20.31,12.74-3.01,25.12-7.97,38.63-4.86,21.92,5.05,29.02,14.68,27.27,37.25-1.68.63-3.21,3.4-5.11,1.26-3.35-3.79-7.64-2.99-11.63-2.75-11.35.7-22.63-2.06-34.03-.25-7.56,1.2-15.77,9.48-15.85,17.18-.06,5.46.35,10.94-1.2,16.31-.54,1.88-.46,4.27-3.1,4.27-1.89,0-3.08-1.63-3.63-3.35-1.56-4.88-4.25-10.29-9.68-8.28-5.03,1.86-2.9,8.41-1.98,12.44,1.46,6.42,4.93,12.09,12.05,14.26,4.43,1.35,4.18,5.2,2.84,8.03-1.12,2.38-2.39,7.38-7.26,3.78Z"/>
  <path d="M180.08,38.86c-2.41,1.99-4.76,3.14-7.09-.17-1.74-2.48-4.4-2.47-7.09-2.46-11.83.02-23.65-.08-35.48-.02-7.37.04-16.99,10-17.23,17.46-.17,5.43.79,10.93-1,16.29-.64,1.93-1.13,3.97-3.55,4.13-2.13.14-2.7-1.59-3.51-3.26-1.98-4.07-4.23-9.88-9.54-7.63-4.54,1.92-2.4,7.84-1.56,11.92,1.14,5.53,4.61,9.86,9.2,13.09,2.58,1.82,6.51,2.36,5.9,6.8-.64,4.68-2.91,8.15-7.73,9.49-13.34-15.23-21.31-32.96-22.24-53.13-.59-12.83,2.48-23.26,14.19-33.21C107.77,5.91,123.47,2.73,140.38.36c8.32-1.17,16.51.62,24.25,4.08,13.09,5.85,17.87,16.48,15.44,34.43Z"/>
  <path class="cls-5" d="M855.26,600.09c-23.51,21.67-42.48,46.41-51.97,77.43-1.71,5.6-2.08,11.53-2.32,17.43-.16,4.02,1.29,5.06,5.23,5.35,5.36.4,10.59-3.3,15.92-.32,1.36,6.21-3.65,8.32-7.51,10.44-2.95,1.62-6.3,2.87-9.61,3.91-11.3,1.48-22.07-2.24-33.1-3.36-4.12-.42-8.22-1.15-12.29-1.91-3.91-.73-6.35.22-6.67,4.64-.09,1.23-.57,3.09-1.43,3.5-8.55,4.05-9.3,13.25-13.42,20.15-3.18,5.31-6.66,10.21-11.56,14.03-.56.37-1.13.4-1.73.1-.86-2.91,1.39-4.4,2.98-6.01,5.97-6.05,8.77-13.83,12.23-21.31,1.72-3.72-1.89-3.59-2.97-5.27-3.29-6.72-1.4-12.9,1.94-18.93,6.38,4.19,13.5,5.32,20.97,5,.7.06,1.38.2,2.05.37,4.75.97,9.59,1.39,14.34,2.36,6.65,1.56,13.53,1.73,20.15,3.42,7.13.53,12.77-2.62,18.33-7.03-1.64-.77-2.66-.12-3.72-.05-14.22.81-15.17-.04-14.19-14.16.93-13.32,5.52-25.51,12.02-37.07,9.03-16.07,20.46-30.43,31.69-44.94,3.19-4.12,7.89-6.82,11.07-11,2.13.04,4.81-.53,3.56,3.23Z"/>
  <path class="cls-37" d="M476.52,790.87c2.05,1.76,4.53.98,6.82,1.04,11.19.3,16.1,4.8,17,15.76-1.34,7.51-2.77,15.01-3.99,22.55-.82,5.06-.43,9.91,2.36,14.54,2.85,4.72,4.66,9.84,4.07,15.58-.67,6.59-4.31,10.4-10.94,10.54-8.3.17-16.56.02-24.88-.77-14.11-1.34-27.92-14.41-28.82-30.91-.41-7.43-.27-14.81,1.78-22.11,1.76-6.24,1.53-12.2-2.07-18.21-6.42-10.7-4.65-21.84.02-32.71,1.46-3.4,4.64-5.35,7.88-6.61,6.5-2.53,13.15-4.72,19.81-6.81,2.72-.85,6.02-1.41,7.55,1.83,1.41,2.99-1.78,3.96-3.48,5.47-4.69,4.15-9.37,8.69-7.77,15.56,1.79,7.7,6.96,12.87,14.68,15.24Z"/>
  <path class="cls-37" d="M855.26,600.09c-.42-2.58-2.16-2.91-4.31-2.52-2.28,2.04-4.92,1.3-7.5.98-18.88-2.36-37.51-6.61-56.6-7.53-3.21-.16-6.57-.69-9.23-2.95-2.01-2.26-1.56-4.88-.95-7.46,2.96-12.62,6.62-25.12,13.18-36.29,12.74-21.7,20.6-45.36,29.12-68.79.67-1.85,1.26-3.73,1.92-5.59,3.8-10.63,4.5-21,.2-31.96-7.43-18.94-14.86-37.88-22.25-56.83-2.14-5.48-7.83-8.29-9.46-13.94.06-.47.12-.94.18-1.41,5.09,1.83,7.45,6.91,11.67,9.78,6.14,8.12,8.8,17.85,12.21,27.17,4.45,12.16,10.74,23.71,12.61,36.75,4.64,11.66,1.05,23.03-1.21,34.45-4.68,6.69-6.34,14.64-8.97,22.13-6.58,18.76-14.26,36.95-24.62,53.98-5.54,9.11-7.11,19.61-9.62,29.74-1.08,4.33.25,6.88,5.47,7.3,11.72.94,23.39,2.48,35.08,3.77,10.05,1.67,20.1,3.36,30.15,5,1.5.24,3.05.21,4.19,1.46-.42.93-.83,1.86-1.25,2.79Z"/>
  <path class="cls-17" d="M176.37,590.81c.39.48.79.96,1.18,1.45-5.58.84-11.14,2-16.75,2.45-8.92.72-17.95.44-26.8,1.59-6.89.9-14.35,1.91-17.55,10-.78,1.98-2.4,3.63-3.68,5.4-.99,1.36-1.75,3.35-4.03,2.37-1.89-.81-2.06-2.61-2.16-4.42-.28-4.93,1.78-9.4,2.75-14.07,1.51-7.26.99-8.04-6.66-8.63-9.55-.74-19.09-1.23-28.51-3.5-11.15-2.68-22.42-4.91-33.46-8.1-1.21-.35-2.6-.08-3.91-.1-4.38-1.08-8.77-2.16-13.15-3.24-.11-.83.22-1.42.97-1.79,2.15-.94,4.42-.82,6.69-.78,19.62,4.22,38.93,9.9,58.96,12.16,4.58.52,9.14.64,13.72.81,4.71.18,9.15,1.12,12.23,5.15,1.99,2.6,4.72,2.85,7.65,2.73,14.82-.59,29.69.96,44.49-1.17,2.75-.4,5.72-.54,8.04,1.7Z"/>
  <path class="cls-7" d="M826.05,439.47c-8.27-21.31-16.55-42.61-24.82-63.92,8.7,3.36,14.51,10.38,20.28,17.05,4.2,4.86,4.28,11.79,4.54,18.02.4,9.6.04,19.23,0,28.85Z"/>
  <path class="cls-34" d="M636.67,685.5c3.21,12.11,3.79,24.77,7.84,36.7-4.77-2.33-9.6-4.35-14.83-5.59-3.45-.81-4.42-4.5-5.93-7.35-1.09-2.05-1.71-4.33-3.35-7.92-.14,7.62-1.05,13.53-1.85,19.46-.23,1.68.34,5.1-3.49,3.13.33-4.06-.68-8.17.61-12.16.95-16.33,2.84-32.57,5.39-48.7.72-4.53,2.22-9.19,5.21-13.03.59-.39,1.14-.35,1.66.12,1.55,2.85.14,5.48-.74,8.07-2.22,6.59-2.46,13.56-4.07,20.25-.92,3.82,1.99,2.57,3.51,3.25,1.05,1.63.65,3.34.36,5.07-1.79,10.73-1.75,11.05,2.06,20.97-1.46-6.45.17-12.6,1.83-18.69.74-2.73,1.73-5.83,5.78-3.58Z"/>
  <path class="cls-16" d="M194.45,231.79c-5.59-16.29-11.23-32.57-16.72-48.89-1.32-3.94-2.81-7.76-4.93-11.33,4.16,2.31,8.47,4.37,12.43,6.97,9.39,6.16,10.19,16.15,10.65,25.95.42,9.11.58,18.29-1.43,27.31Z"/>
  <path class="cls-19" d="M724.97,751.22c.52.06,1.04.11,1.56.17-8.47,5.43-16.94,10.87-25.43,16.27-1.99,1.27-4.14,2.32-5.35,4.51-6.59,3.47-13.12,7.09-20.7,8.02-.62-.46-.73-1.02-.35-1.68,15.87-6.74,29.07-18.03,44.19-26.03,1.84-.97,3.73-2.43,6.08-1.25Z"/>
  <path class="cls-6" d="M627.73,650.1c-.49-.02-.98-.04-1.46-.06,2.22-6.63,4.5-13.23,8.98-18.79.08.6.17,1.19.26,1.79-.99,6.41-1.82,12.9-7.77,17.06Z"/>
  <path class="cls-35" d="M77.61,145.15c-3.05,3.88-7.45,5.31-11.95,6.56,3.19-3.62,7.54-5.15,11.95-6.56Z"/>
  <path class="cls-35" d="M9.27,471.2c-.03-3.05-.07-6.1-.1-9.15.3-1.8-.45-3.88,1.36-5.29-.65,4.79,1.46,9.83-1.26,14.44Z"/>
  <path class="cls-29" d="M59.1,837.94c.01,2.38.03,4.76.04,7.14.01,2.79-1.18,4.58-4.13,4.77-4.94.32-10.34,4.13-14.43,1.86-5.27-2.93.3-9.13-1.31-13.73,6.61.42,13.21-2.94,19.83-.05Z"/>
  <path class="cls-30" d="M130.15,831.53c-1.14,2.44-3.02,4.52-5.25,5.61-3.03,1.48-5.06,6.54-8.25,4.87-2.35-1.23-.44-6.04-.9-9.22,4.83-.11,9.7.36,14.4-1.26Z"/>
  <path class="cls-39" d="M847.25,701.22c-7.79,5.5-14.37,3.87-15.97-3.96,2.47-1.29,4.83-2.92,7.45-3.75,2.37-.75,4.41-4.39,7.46-1.36,2.73,2.72,1.96,5.9,1.06,9.07Z"/>
  <path class="cls-12" d="M675.15,779.05c-.12.37-.15.75-.1,1.14-18.26,6.67-37.06,7.98-56.23,5.6-2.38-.29-4.8-.21-7.2-.3-2.85-8.04,0-15.96.62-23.89.96-12.18,2.36-24.32,3.57-36.48,2.65-8.72,1.69-18.04,4.57-28.74,2.24,5.56,3.83,9.44,5.36,13.34,1.55,3.96,3.93,6.41,8.65,6.5,4.27.08,7.96,1.94,10.12,5.98,2.79,4.47,8.18,4.73,12.04,5.13,6.62.69,13.25,2.95,20.06,1.65,4.72,1.05,9.34,1.48,13.28-2.19l.17-.02c1.62-2.86,4.5-2.46,6.94-2.22,10.03.99,19.97,3.07,30.13,2.53.57,4.67-3.24,4.47-5.86,4.71-6.54.6-13.14.64-19.64-.7-4.42-.91-8.55-.85-12.64,1.65-5.58,3.41-11.65.89-17.39.4-6.92-.59-14-.52-20.74-2.95-3.78-1.36-7.32-2.83-9.97-5.99-1.59-1.9-3.72-3.09-6.12-3.64-5.53-1.27-10.29-3.58-12.77-10.23-3.43,22.22-4.74,43.39-7.85,64.34-.89,5.99.34,7.4,6.66,7.49,16.41.24,32.87.94,48.88-3.94,1.89-.58,3.88-1.01,5.46.84Z"/>
  <path class="cls-13" d="M597.32,798.59c2.97,4.34,10.12,6.28,7.85,13.65-.45,1.44-.67,2.96-1.22,4.36-.57,1.45-1.47,2.93-3.34,2.41-1.38-.38-2-1.74-1.93-3.13.41-8.33-5.32-12.81-10.83-17.44-1.4-1.18-4.26-2.19-2.77-4.29,1.4-1.98,3.6.13,5.17,1.05,2.24,1.32,4.19,3.18,6.98,3.32,0,0,.09.08.09.08Z"/>
  <path class="cls-1" d="M781.42,346.58c-.47,1.7,1.29,4.71-1.66,5.96-2.48,1.05-4.51-.88-6.61-2.03-11.99-6.54-23.45-13.67-30.37-26.09-.78-1.41-2.91-2.68-1.02-4.5,2.25-2.15,3.37.44,4.84,1.46,9.42,6.54,18.17,14.25,30.23,15.96,4.93.7,4.84,4.9,4.58,9.24Z"/>
  <path class="cls-18" d="M152.64,138.24c.05,6.9-1.57,8.04-7.3,5.27-11.16-5.4-20.88-12.73-28.98-22.13-1.32-1.53-3.8-3.32-1.66-5.49,1.75-1.77,3.77.23,5.16,1.38,8.69,7.19,18.09,12.91,29.33,15.19,3.25.66,3.78,3.26,3.45,5.78Z"/>
  <path class="cls-35" d="M668.39,611.88c-4.38,1.23-2.63,5.96-4.84,8.52-1.18,1.36.15,4.65-2.25,4.97-2.52.33-3.14-2.57-4.25-4.38-.33-.54-.74-1.04-1.12-1.57-2.3.36-3.05,2.6-2.91,3.83.87,7.67-3.82,16.41,4.81,22.69,3.06,2.22,1.05,9.21-3.22,11.74-1.82,1.08-3.23,2.16-3.98,4.04-.99,2.48-3.81,5.15-.8,7.65,3.11,2.59,5.66-.77,7.12-2.47,3.05-3.57,6.09-5.12,10.05-2.3,3.77,2.68,4.46,6.76,3.48,11.1-.57,2.54-1.85,5.01-1.95,7.55-.08,1.94.24,5.18,2.53,5.4,2.76.26,3.72-2.48,3.81-5.1.04-1.09.02-2.19.02-3.29.01-1.77-.09-3.72,1.81-4.58,1.86-.85,3.4.47,4.72,1.54,1.96,1.59,1.23,3.53.17,5.32-4.86,8.21-5.37,17.28-5.44,26.5-.03,3.63.18,6.92,3.33,9.43,1.87,1.49,2.99,3.75.58,5.51-2.23,1.63-4.25-.24-5.61-1.84-1.08-1.27-1.32-3.2-2.17-4.71-1.03-1.83-2.82-3.07-4.87-2.61-2.42.53-1.73,2.65-1.3,4.31.36,1.36.66,2.43-1.14,3.08-3.71,1.33-16.07-3.22-16.49-7.17-1.35-12.77-7.9-24.93-4.67-38.2.9-3.71,1.93-7.26-1.97-10.04-1.67-1.19-1.68-3.49-1.05-4.85,2.64-5.73,2.82-12.51,7.11-17.46,2.63-3.04,3.18-6.12-.07-8.42-4.98-3.51-3.28-7.32-1.64-11.53,4.44-11.35,3.57-23.18,2.9-34.96-.04-.7-.92-1.35-1.96-2.79-3.03,7.91,1.15,16.26-3.78,23.74-3.94-4.9-3.62-10.54-3.84-15.59-.78-18.51,1.69-36.97,1.96-55.41.16-10.69,2.66-21.37-.73-32.64-2.54-8.45-3.82-18.5-1.17-28.62,3.27,2.41,4.16,5.45,4.98,8.47.49,1.84.37,4.45,2.78,4.41,2.53-.04,4.1-2.82,3.59-4.72-1.98-7.26.32-14.89-2.25-22.03-.8-2.22-1.07-5.23-3.75-5.69-3.13-.55-2.78,3.43-5.5,5.24-2.33-6.81.8-13.24.4-19.6-.08-1.25.61-2.53.81-3.81.37-2.27-.98-5.63,1.79-6.46,3.53-1.06,1.44,3.29,3.15,4.49,1.21.84,2.03,2.67,3.8,1.73,2.14-1.13,2.65-3.92,1.26-5.02-4.91-3.88-1.88-10.86-6.68-15.03-2.33-2.03.62-5.57,2.51-8.05,2.77-3.64,5.83-7.17,3.62-12.39-.74-1.74.21-3.53,1.69-4.66,6.13-4.69,10.36-11.65,18.1-14.49,2.31-.85,3.61-1.53,5.67.44,2.97,2.84,6.3,2.9,9.12-.5,1.86-2.24,4.28-2.54,7.01-2.81,5.78-.57,7.35-3.64,4.03-8.4-2.05-2.93-1.95-4.11,1.51-4.8.21-.04.41-.16.63-.18,3.23-.34,4.15-5.18,7.44-4.48,4.74,1.01.29,5.43,2.21,7.73.98,1.17,1.75,2.59,2.91,3.51,6.3,4.97,6.82,8.09,1.97,14.57-2.16,2.88-4.36,5.61-2.48,9.48.76,1.58,1.42,3.35,3.52,3.51,2.51.19,3.3-1.8,4.1-3.59.71-1.59,1.14-3.31,1.9-4.87.61-1.26,1.11-3.32,3.23-1.89,1.51,1.02,2.92,2.67,1.07,4.3-4.26,3.75-2.74,7.79-.88,11.85-.53.34-.86.71-1.22.75-2.52.29-5.17-3.76-7.55.07-2.41,3.86-1.34,8.3.94,11.14,3.42,4.26,3.12,9.41,5.2,13.87,1.2,2.58.52,5.11-1.85,6.19-2.6,1.18-2.8-1.93-3.98-3.29-2.48-2.86-2.94-6.21-2.69-9.81.09-1.31,0-2.8-1.67-3.13-1.28-.25-1.62,1.35-2.36,1.73-4.04,2.05-6.48,7.81-12.92,4.52-3.31-1.69-2.53,2.36-2.7,4.2-.98,10.51,1.34,20.88,1.52,31.37.1,6.42-2.3,11.82-5.45,16.31-2.69,3.84-3.09,7.04-2.07,10.81,1.16,4.3,1.43,8.88-1.9,11.58-2.93,2.38-7.32,4.18-11.1-.06-.88-.99-2.68-.63-3.11,1-.43,1.64-.83,3.55,1.15,4.66,6.62,3.74,3.06,9.26.7,12.45-2.7,3.64-2.39,6.53-2.61,10.52-.55,9.91,3.54,20.62-1.35,29.5-3.88,7.06-3.61,13.79-3.25,20.73.53,10.44-.91,21.22,3.89,31.15.24.25.31.5.22.75-.09.24-.17.36-.26.36Z"/>
  <path class="cls-36" d="M727.46,727.39c-7.95,2.7-15.88,1.16-23.78-.23-4.54-.8-9.07-.89-13.63-.38-.2-.61-.41-1.23-.62-1.84,6.35-1.6,7.96-5.71,7.54-11.99-.52-7.58,2.81-14.45,5.99-21.19.7-1.49,2.51-3.03.96-4.69-1.46-1.56-3.66-1.14-5.6-.76-3.18.63-4.64,3.06-5.64,5.82-1.19,3.28-2.02,6.68-3.01,10.03-.79,2.67-1.87,5.21-5.48,3.11-.09-8.34-1.45-16.85,5.49-23.71,2.16-2.13.72-4.74-1.24-6.86-1.87-2.02-4.51-3.42-5.42-6.27,5.7-1.43,7.54,3.35,9.72,6.66,1.99,3.01,3.97,4.55,7.65,4.94,8.19.87,16.22,2.77,24.07,5.34,4.01,1.48,7.43,3.83,10.26,7.02,1.63,2.5,5.42,3.69,4.68,7.64-1.17,6.51-3.86,12.93-1.22,19.68-1.06,6.06-5.92,6.83-10.72,7.67Z"/>
  <path class="cls-10" d="M684.19,705.26c2.19.02,3.54-.56,3.93-3.2.54-3.62,1.61-7.17,2.69-10.68,1.92-6.26,8.52-9.37,14.43-6.87,3.06,1.3,2.85,3.25,1.11,5.69-5.44,7.66-7.9,16.24-7.8,25.63.11,10.72.5,8.8-9.1,9.09-2.54-6.34-5.45-12.59-5.25-19.67Z"/>
  <path class="cls-12" d="M627.73,650.1c2.59-5.69,5.18-11.37,7.77-17.06,1.79-.95,2.78-.53,3.03,1.59,1.47,12.31,1.64,24.55-1.79,36.62-3.65,3.26-6.57,7.29-10.66,10.09-1.64.61-1.53,3.92-3.55,3.12-2.16-.85-1.31-3.44-1.09-5.28,1.17-9.89,3.26-19.59,6.28-29.08Z"/>
  <path class="cls-9" d="M716.76,461.86c-5.36,7.93-12.72,13.61-20.83,18.44.02-10.71-.04-21.42.09-32.12.08-6.99,2.34-10.89,7.41-13.13-2.91,12.69,5.21,19.75,13.33,26.81Z"/>
  <path class="cls-6" d="M626.09,681.34c2.38-4.6,5.09-8.85,10.66-10.09-.02,4.75-.05,9.5-.07,14.24-2.79-.28-3.64,1.2-4.12,3.76-1.19,6.33-3.79,12.51-1.26,19.11.45,1.18.23,2.6-1.9,4.26-3.5-7.05-6.7-13.73-5.17-21.78.6-3.17,2.19-6.15,1.87-9.5Z"/>
  <path class="cls-8" d="M724.79,687.46c-8.47-3.01-17.15-5.17-26.11-5.95-3.44-.3-5.51-1.48-6.95-4.81-1.65-3.83-4.65-6.75-8.73-8.27-5.89-4.44-11.8-8.85-16.2-14.9-.46-7.76-1.28-15.5.74-23.23,1.65-6.29,1.15-12.88,2-19.3.08-.73.16-1.45.24-2.19,2.23-3.58,1.15-7.97,2.88-11.67,1.88-.67,3.59-.94,3.89,1.8-4.54,14.29-3.79,29.36-6.42,43.94-1.43,7.89,2.14,13.61,8.69,17.59,6.41,3.9,12.38,8.24,16.87,14.37,1.71,2.33,4.43,2.62,6.99,3.2,5.97,1.35,12.16,1.73,17.85,4.22,2.28,1,5.34,1.42,4.24,5.2Z"/>
  <path class="cls-35" d="M729.94,407.86c0,5.23.19,10.6-.11,15.94-.1,1.65-.87,4.38-3.56,3.49-2.16-.71-1.14-2.81-.85-4.48.77-4.44,1.44-8.89,2.14-13.34.18-1.11.4-2.16,2.39-1.62Z"/>
  <path class="cls-23" d="M669.55,610.99c.77,8.06-.95,15.87-2.05,23.78-.86,6.17-.5,12.5-.69,18.75-2.99-9.64-.69-19.2.64-28.72.6-4.32,1-8.59.94-12.93.11-.37.12-.74.04-1.11.41-.12.79-.05,1.12.22Z"/>
  <path class="cls-36" d="M689.89,726.8c-3.56,6.01-8.57,3.2-13.29,2.19,4.5-.33,9.16.37,13.29-2.19Z"/>
  <path class="cls-35" d="M31.6,522.13c-1.7.43-2.99-.41-3.69-1.88-1.25-2.61-3.39-3.04-5.98-3.07-4.09-.05-5.89-2.01-3.72-5.88,2.34-4.19,1.58-7.92-.69-11.75-1.11-1.88-2.27-3.93-1.41-6.2,1.23-3.24,1.64-5.42-2.73-6.96-2.81-.99-1.74-4.62-.86-7.01,1.42-3.89,2.92-7.83,5.03-11.36,1.37-2.3,1.19-7.4,5.25-6.09,3.94,1.27,9.44,1.66,9.16,8.93-.15,3.87,2.76,7.27.02,12.02-2.21,3.82,2.3,6.48,5.96,7.76,2.17.76,4.56,1.46,4.86,3.81.3,2.32-2.56,1.8-3.9,2.71-2.62,1.78-2.62,4.12-.05,4.96,8.11,2.66,3.62,8.16,2.97,12.46-.82,5.43-5.29,7.01-10.21,7.55Z"/>
  <path class="cls-1" d="M88.12,257.1c-4.71,4.05-9.4,8-15.83,9.31-6.03,1.23-7.31,6.61-8.96,11.49-.06-14.01-.09-28.02-.19-42.04-.02-2.46.08-4.93,1.63-6.88,1.25-1.58,1.73-4.84,4.3-4.14,2.75.76.33,3.39.68,5.17,2.32,11.62,7.75,21.11,18.38,27.09Z"/>
  <path class="cls-31" d="M59.16,528.74c.37-5.76-3.91-10.83-2.52-16.74.71-5.35,1.15-10.73,2.76-15.94,3.57-11.49,6.42-13.31,18.49-11.51.67.28,1.21.73,1.63,1.32,1.02,2.27.04,4.2-1.05,6.12-5.24,9.18-8.91,18.75-7.71,29.63.62,5.65-4.88,4.4-7.5,6.39-.76.65-1.6,1.19-2.54,1.52-.74.17-1.26-.09-1.56-.79Z"/>
  <path class="cls-26" d="M44.85,385.55c2.52-3.57-.24-8.17,2.28-11.74,1.63.48,2.22,1.7,2.33,3.27.06,9.92-2.56,19.41-4.35,29.07-2.54,13.7-4.18,27.57-5.09,41.5-.35,5.35,2.35,9,6.26,12.27,6.8,5.7,15.15,9.62,19.85,17.81,1.6,2.78,5.24,2.97,8.28,3.3,4.81.51,9.51,1.51,14.1,2.96,2.12.68,4.97.93,4.76,4.33-5.41,2.58-9.92.36-14.26-2.7h0c-2.69-1.33-5.56-.29-8.32-.63-3.43-.43-7.1-.39-8.68-4.44-1.25-4.86-5.24-7.04-9-9.66-6.44-4.48-12.48-9.49-15.84-16.88-1.38-3.03-1.29-6.22-.96-9.6,1.91-19.77,5.72-39.25,8.65-58.86Z"/>
  <path class="cls-11" d="M11.82,518.58c-10.08-.88-10.3-1.29-10.55-11.3-.16-6.38,1.23-12.44,2.58-18.57.52-2.37,1.19-4.17,3.92-4.32,1.57,10.44,3.1,20.89,4.75,31.32.18,1.17.3,2.1-.7,2.87Z"/>
  <path class="cls-22" d="M61.99,480.55c4.67,5,11.57,2.58,17,5.09-15.22.25-15.1.29-19.08,15.49-.95,3.64.37,8.03-3.26,10.87-2.03-9.99-3.9-19.94,4.01-28.56.68-.74.9-1.91,1.33-2.88Z"/>
  <path class="cls-38" d="M59.16,528.74c.41.05.81.02,1.21-.07.56.55.83,1.21.82,1.99-1.23,4.11-4.68,4.04-7.95,4.07-10.04.11-19.86-1.77-29.63-3.78-6.15-1.26-6.69-1.07-7.31,5.17-.79,8-2.26,15.92-2.75,23.96-.12,1.9-.26,4.01-2.66,4.72-.25-.19-.5-.37-.76-.55.42-13.56,2.12-26.98,4.44-40.32,12.43,5.01,25.64,5.41,38.73,6.45,2.03.16,4.43.78,5.84-1.64Z"/>
  <path class="cls-21" d="M10.91,564.81c1.16-10.13,2.49-20.25,3.41-30.41.64-7.07,1.96-7.8,8.94-5.6,10.73,3.38,21.94,3.72,33.09,4.19,1.88.08,3.35-.8,4.42-2.33,2.17-3.24,5.29-3.35,8.73-2.81,5.59.88,11.2,1.62,16.84,2.05,5.15.39,9.98-.63,14.36-3.46.5-.42,1.06-.77,1.63-1.09,5.31-2.5,9.49-7.51,16.42-6.54,2.31.32,3.13-2.61,3.22-4.92.09-2.28-.15-4.76-2.77-5.24-5.55-1.02-8.23-5.14-11.23-9.19-3.57-4.83-8.79-7.66-13.99-10.41-.19-.25-.37-.5-.55-.75-5.1-3.86-11.28-4.09-17.21-5.1-5.68-.97-11.13-.87-14.19-7.95-2.69-6.21-10.06-8.84-15.51-12.69-7.07-4.99-9.06-11.11-8.19-19.19,1.96-18.2,4.22-36.34,8.56-54.15,1.03-4.24-.72-8.8,1.6-12.86,2.91-2.1,5.94-.67,8.82-.1,20.11,4.01,40.01,9,60.14,12.92,6.85,1.33,13.74,2.56,20.64,3.48,8.03,1.07,16.11,1,23.67-2.91,2.31-1.2,4.86-2.13,7.44-.41,3.99,25.75,14.85,49.82,18.22,75.76,3.97,30.56,7.91,61.12,10.72,91.82.69,7.6.02,15.32.49,22.96.35,5.79-2.32,7.8-7.59,8.11-4.98.3-10.04.51-14.66,2.81-17.47,1.31-34.94,2.29-52.47,1.22-4.03-.25-7.91.07-9.89-4.57-.99-2.33-3.59-2.61-5.68-2.65-26.73-.47-52.25-7.7-77.99-13.72-4.79-2.23-9.9-1.22-14.85-1.18-4.04.04-5-1.66-4.57-5.11Z"/>
  <path class="cls-4" d="M169.19,389.35c-10.2,4.05-20.6,7.35-31.73,5.34-14.57-2.63-29.09-5.55-43.59-8.55-15.15-3.13-30.25-6.51-45.38-9.78-.46-.85-.91-1.71-1.36-2.56-.33-13.11-.48-26.23-1.08-39.32-.29-6.47,1.45-12.31,4.95-17.38,8.49-12.27,13.91-25.68,15.95-40.38.57-4.11,2.67-6.06,6.05-7.72,5.1-2.51,9.97-5.47,15.02-8.08,4.74-2.45,6.31-7.14,8.1-11.5,10.58-25.82,9.72-51.59-1.08-77.12-3.24-7.65-7-15.08-10.55-22.6-1.03-2.17-2.78-4.56.05-6.36,2.7-1.72,5.23-1.08,7.46,1.6,9.41,11.26,18.14,22.95,25.22,35.89,5.17,9.45,11.45,18.05,21.36,23.44,5.79,3.15,11.84,3.55,17.84,2.35,6.14-1.23,8.78-6.44,9.3-12.18.85-9.42,1-18.85-5.19-27.03-.86-1.14-1.73-2.61-.27-5.34,4.52,3.46,9.01,6.76,11.19,11.95,7.95,18.97,14.95,38.31,20.44,58.13,2.91,10.51,3,21.39-.77,31.71-7.33,20.04-10.37,41.05-14.78,61.75-4.47,21.02-5.82,42.38-7.14,63.75Z"/>
  <path class="cls-27" d="M199.96,518.11c-.9-9.04,2.91-17.44,8.37-25.35,2.55-3.7,5.63-3.69,9.09-1.63,3.81,2.27,1.52,4.52.1,7.07-4.63,8.31-7.47,17.11-7.07,26.82.11,2.68,1.53,6.61-3.67,6.66-4.61.04-6.91-2.12-6.82-6.77.04-1.97,0-3.94,0-6.79Z"/>
  <path class="cls-33" d="M245.06,525.05c-5.62-.04-8.33-2.86-8.25-8.5.06-4.61,1.63-7.54,6.92-7.22,6.69.41,10.39,3.38,10.18,8.45-.2,4.84-3.27,7.36-8.85,7.27Z"/>
  <path class="cls-37" d="M126.26,901.11c-7.11,2.16-14.5,3.22-21.8,3.56-24.08,1.11-48.06.05-71.79-4.78-5.81-1.18-8.53-4.09-7.77-9.91,1.85-14.27,3.78-28.53,5.8-42.78.2-1.45,1-2.91,1.85-4.13.55-.79,1.76-1.67,2.59-1.6,1.13.11,1.2,1.55,1.47,2.63.9,3.68-2.48,8.99,3.28,10.75,3.82,1.16,7.73-.88,11.55-1.72,9.88-2.16,10.38-2.69,10.49-12.4.05-4.41-.62-9.52,4.51-11.21,4.79-1.58,9.46.94,13.42,3.64,5.68,3.88,7.21,10.12,8.24,16.48,1.26,7.8,6.11,12.61,13.08,15.64,6.29,6.73,13.46,12.4,21.18,17.38,4.44,2.86,9.11,5.5,10.3,11.21.74,3.58,3.43,2.78,5.67,2.8,10.06.07,20.11-.03,30.17.07,2.75.03,5.77-.63,7.98,1.88-11.05,1.77-22.18.46-33.27.92-5.65.23-11.35-.18-16.87,1.53-.43-.44-.93-.8-1.45-1.13.43.43.98.71,1.38,1.17Z"/>
  <path class="cls-37" d="M176.47,898.62h-46.42c3.52-8.35-2.81-11.19-7.77-13.8-7.83-4.12-13.12-11.44-20.95-15.43-1.99-1.01-.19-2.71-.16-4.1,1.78-7.88,3.33-15.78,2.96-23.92-.12-2.7,1.23-4.47,3.54-5.78,3.69-2.09,5.67-1.68,5.61,3.13-.03,2.43-1.12,5.63,2.26,6.81,2.86.99,4.07-1.97,6.02-3.18,7.24-4.49,12.61-10.47,16.05-18.39,1.12-2.57,3.29-5.94,6.76-5.3,3.98.72,4.19,4.67,4.26,7.93.13,6.53,2.79,11.57,7.59,16,10.25,9.47,19.1,20.49,31.22,27.88,1.85,1.13,3.5,2.61,5.77,2.84,4.57.46,7.38,3.26,9.44,7.06,1.18,4.62,3.9,9.25,0,13.87-.56.53-1.12,1.06-1.68,1.59-5.87,1.78-12.02,1.59-18,2.58-2.16.07-4.32.14-6.48.21Z"/>
  <path class="cls-37" d="M182.95,898.41c5.87-1.73,11.9-2.43,18-2.58-5.72,2.85-11.84,2.8-18,2.58Z"/>
  <path class="cls-37" d="M202.63,894.25c2.56-4.62,0-9.25,0-13.87,2.45,4.63,4.8,9.25,0,13.87Z"/>
  <path class="cls-37" d="M676.19,598.72c-.71-1.56-2.34-1.07-3.51-1.58,1.15-11.72,2.47-23.43,3.39-35.17.73-9.36.7-18.78,1.49-28.13.56-6.66,6.77-10.34,9.51-16.07,4.75-9.92,9.29-19.72,10.33-30.83.38-4.07,2.41-6.65,6.08-9.24,15.77-11.14,25.89-26.16,29.33-45.53,5-28.14-3.84-52.95-17.83-76.59-1.17-1.97-2.94-3.78-.56-5.64,2.28-1.78,3.56.71,4.78,2.02,8.08,8.65,15.16,18.04,21.32,28.17,5.66,9.3,10.79,18.96,18.94,26.58,5.36,5.01,11.54,7.88,18.57,9.03,7.75,1.27,14.67-3.61,16.75-11.29,3.19-11.83.4-22.43-6.45-32.25-1.43-2.05-2.75-4.18-4.18-6.35,2.8-1.4,3.57,1.21,5.24,1.33,10.66,6.59,12.92,18.37,17.26,28.68,5.91,14.06,10.84,28.53,16.44,42.73,3.61,9.16,3.97,18.18.75,27.51-9.09,26.39-17.54,52.99-31.65,77.38-7.7,13.31-12.08,28.02-14.89,43.14-2.16,4.42-6.43,6.51-10.32,8.76-11.71,6.78-24.08,10.73-37.98,10.69-15.85-.05-31.45-1.15-46.84-4.9-2.1-.51-4.38-.64-5.94-2.46Z"/>
  <path class="cls-21" d="M108.76,73.14c-2.89-4.5-4.01-8.43-7.48-10.73-2.34-1.55-4.74-2.47-7.35-1.05-2.29,1.24-3.22,3.36-3.28,6.01-.21,9.82,3.9,17.46,12.07,22.6,3.59,2.26,5.3,4.66,3.49,8.51-1.48,3.15-3.67,4.3-6.35.81-13.71-17.81-19.73-37.83-17.4-60.24.77-7.37,4.01-12.94,10.72-17,5.62-3.4,8.32-10.33,15.49-12.56,16.84-5.23,33.42-10.52,51.31-4.74,13,4.2,20.73,16.88,17.86,30.26-.54,2.51-1.43,3.84-3.81,1.73-1.62-1.43-3.46-1.71-5.48-1.72-13.15-.07-26.3-.28-39.45-.19-7.67.05-17.41,10.29-17.55,18.09-.12,6.46.33,13-2.78,20.23Z"/>
  <path class="cls-21" d="M676.19,598.72c6.64-.4,12.99,1.79,19.27,3.13,14.55,3.1,29.17,2.97,43.63,1.74,10.97-.93,21.36-5.47,30.56-12.01,2.47-1.75,5.08-3.3,7.63-4.95,7.12,3.51,14.97,2.47,22.48,3.57,17.06,2.5,34.13,4.91,51.19,7.36,1.78,1.78.75,3.02-.75,4.26-15.57,12.87-25.53,30.14-36.54,46.57-9.15,13.65-14.73,28.64-15.23,45.25-.28,9.29-.22,9.28,9.32,8.85,1.31-.06,2.62,0,3.92,0,.59,2.31-1.33,2.7-2.63,2.71-5.36,0-8.83,2.89-11.62,7.01-7.23-.03-14.24-1.51-21.24-3.08-.4-.58-.34-1.13.12-1.64,2.36-1.19,4.74.14,7.41-.08-5.01-3.51-10.58-5.54-15.57-8.63-4-2.48-5.6-5.54-4.69-10.43,1.1-5.94,2.42-11.83,3.7-17.79-4.83,8.33-8.75,17.05-13.27,25.45-2.54,4.71,2.12,6.29,2.61,9.52-6.1,1.26-10.75-1.38-14.99-5.37-2.49-2.34-4.42-5.34-7.8-6.63-3.12-1.81-4.95-5.5-8.92-6.07-2.69-4.87-7.99-4.48-12.3-5.76-4.76-1.42-9.8-1.88-14.72-2.79-.83-.16-2.14-.25-2.38-.77-4.13-8.96-12.75-12.87-20.25-17.96-9.05-6.14-7.77-15.24-6.23-23.62,1.28-6.93,1.5-13.81,2.24-20.71.62-5.84.7-12.21,5.03-17.12Z"/>
  <path class="cls-8" d="M727.46,727.39c3.64-2.47,8.1-3.78,10.72-7.67,1.41-.35,2.74-2.08,4.21-.89,1.51,1.22.36,2.76-.19,4.16-4.09,10.42-8.89,20.41-17.23,28.24-9.39,4.15-17.97,9.71-26.19,15.75-7.27,5.34-15.21,9.12-23.63,12.08-5.06-.19-9.9,1.73-14.52,2.95-14.57,3.86-29.19,1.24-43.75,1.99-5.9.31-5.72-4.15-4.89-7.71,2.43-10.47,2.29-21.2,3.71-31.76,1.63-12.06,2.7-24.2,4.03-36.3.09-.78.41-1.53.62-2.27,2.37.29,2.4,2.06,3.08,3.31,1.14,2.09,2.01,5.71,3.53,6.01,12.83,2.54,20.69,16.37,35.22,15.09,4.9-.43,10,.76,14.9,1.45,5.76.82,10.28.73,15.18-3.14,2.93-2.32,7.54.18,11.29.87,6.34,1.15,12.65.61,18.97.59,1.97,0,3.84-.86,4.95-2.74Z"/>
  <path class="cls-32" d="M756.72,705.05c-5.94-1.05-7.1-4.03-4.35-9.37,4.58-8.88,8.78-17.96,13.17-26.94.56-1.16,1.21-2.69,2.75-2.26,2.04.58,1.5,2.65,1.13,3.9-1.77,6.06-3.05,12.21-4.42,18.37-.98,4.4.22,6.57,3.72,8.43,6.63,3.51,13.23,7.08,20.32,10.88-4.64,2.24-8.76.63-12.87-.15-4.91-.02-9.75-.84-14.62-1.25l-.58.02-.55-.18c-.93-1.25-2.88.09-3.7-1.45Z"/>
  <path class="cls-28" d="M797.43,712.21c.15-5.75,3.6-7.94,8.85-8.28,1.87-.12,4.01.55,5.4-1.44,1.84-.63,3.68-1.32,5.66-.55-2.42,6.43-11.3,11-19.92,10.27Z"/>
  <path class="cls-8" d="M756.72,705.05c1.37.14,2.87-.06,3.7,1.45-2.15-.06-4.29-.23-6.44-.17-5.86.16-11.25-.67-14.58-6.29-1.89-2.17-3.79-4.34-5.69-6.51,6.2.71,8.23,7.39,13.75,9.47,3.12,1.17,5.87,2.62,9.26,2.06Z"/>
  <path class="cls-8" d="M761.56,706.66c4.95-.43,9.85-.39,14.62,1.25,0,.41,0,.81,0,1.22-4.91-.64-9.89-.82-14.63-2.47Z"/>
  <path class="cls-37" d="M481.98,869.34c-10.92-1.06-22.77-.11-31.9-9.48-11.17-11.45-11.04-25.37-8.24-39.3,1.76-8.76,2.5-16.53-2.66-24.35-6.17-9.35-3.28-19.01.53-28.2,2.16-5.21,21.09-13.6,26.99-12.92,2.47.28,3.28,1.1,1.57,3.26-.27.34-.59.64-.9.95-5.4,5.38-11.08,11.11-6.83,19.37,4.77,9.27,11.48,16.33,23.4,16.02,10.54-.27,14.58,4.69,13.27,15.28-.75,6.06-1.24,12.23-2.87,18.07-1.93,6.94-.3,12.87,2.83,18.86,1.11,2.11,2.42,4.41,2.56,6.68.83,14.09.38,15.1-17.75,15.75Z"/>
  <path class="cls-3" d="M710.4,713.72c.23-5.48,1.91-13.26,5.95-20.45,1.1-1.97,2.13-3.59,4.75-3.89,7.77-.87,17.16,9.96,14.96,17.3-.55,1.83-1.08,4.03-.58,5.76,2.42,8.31-3.2,10.56-9.13,12.6-1.83.63-3.8,1.04-5.73,1.17-9.8.65-10.3.13-10.24-12.49Z"/>
  <path class="cls-22" d="M79,485.63c4.92.29,9.39,3.03,14.44,2.67h0c.61,1.18,4.08.27,2.34,3.19-10.37,3.4-10.86,12.84-12.13,21.16-2.03,13.34,1.2,15.64,14.17,11.47,1.84-.59,3.62-1.56,5.66-.84,1.73,1.59.13,2.28-.84,3.15h-.01c-8.9,6.12-18.82,3.98-28.36,2.91-4.13-.46-8.57.04-12.51-1.97,8-1.81,6.53-7.82,7.19-13.87.87-8.11,3.25-16.27,8.55-23,1.17-1.49,1.54-3.09,1.5-4.88Z"/>
  <path class="cls-26" d="M61.76,527.38c7.06.59,14.14,1.08,21.19,1.8,6.81.7,13.3-.56,19.68-2.74-6.2,6.77-14.16,5.22-21.97,4.76-6.62-.39-13.18-3.69-19.89-.55-.13-.66-.26-1.32-.4-1.98.46-.43.92-.87,1.38-1.3Z"/>
  <path class="cls-25" d="M115.71,579c1.29-10.46,4.17-20.57,8.68-30,7.92-16.54,12.06-33.93,13.8-52.05.66-6.91,2.73-7.94,9.35-5.32,7.99,3.17,15.31,7.39,21.35,13.6.88.91,2.26,1.92,1.33,3.29-.82,1.21-2.4.89-3.64.45-3.71-1.29-7.38-2.71-11.07-4.05-6.41-2.33-9.65-.88-10.94,5.71-3.89,19.93-11.24,38.84-16.84,58.26-1.56,5.42-2.57,11-3.78,16.51-.42,1.92-.4,3.92-3.23,4.08-3.06.16-3.41-1.77-3.99-4.05-.55-2.13-1.15-4.2-1.04-6.45Z"/>
  <path class="cls-26" d="M102.64,526.43c.49-.84.98-1.69,1.46-2.53,2.73-5.64,1.8-11.9,3.01-17.8.59-2.9-1.38-4.78-3.05-6.83-2.44-2.99-6.46-4.51-7.8-8.48-.94-.83-1.89-1.66-2.83-2.49,8.31,1.08,13.27,6.84,17.82,12.99,2.15,2.91,4.13,5.37,8.23,5.42,4.27.06,4.31,3.4,4.39,6.6.09,3.54-.94,8.11-4.42,7.33-6.76-1.51-10.29,2.87-14.91,5.53-.51.3-1.26.18-1.9.26Z"/>
  <path class="cls-37" d="M126.26,901.11c-1.94-.41-4.2.78-6.4-1.59,3.11-2.25,5.19-2.49,6.47,1.55,0,0-.07.04-.07.04Z"/>
  <path class="cls-3" d="M96.26,490.79c3.59,1.72,6.32,4.52,9.21,7.18,3.36,3.09,5.08,6.17,2.87,10.87-.93,1.98-.79,4.75-.39,7.02.67,3.8-.5,6.35-3.84,8.05-5.68,1.22-10.78,4.57-17.01,3.96-3.77-.37-5.37-1.57-5.6-5.49-.49-8.45,1.09-16.46,4.05-24.3,1.88-4.97,4.91-8.14,10.72-7.28Z"/>
</svg>