<?xml version="1.0" encoding="UTF-8"?>
<svg id="Layer_1" xmlns="http://www.w3.org/2000/svg" viewBox="0 0 524.56 985.04">
  <defs>
    <style>
      .cls-1 {
        fill: #2a2a26;
      }

      .cls-2 {
        fill: #e0ad87;
      }

      .cls-3 {
        fill: #ddaa84;
      }

      .cls-4 {
        fill: #fff;
      }

      .cls-5 {
        fill: #b1b1b1;
      }

      .cls-6 {
        fill: #fdcca7;
      }

      .cls-7 {
        fill: #a2acb6;
      }

      .cls-8 {
        fill: #7795ab;
      }

      .cls-9 {
        fill: #deac86;
      }

      .cls-10 {
        fill: #e1b28c;
      }

      .cls-11 {
        fill: #d84140;
      }

      .cls-12 {
        fill: #3a3630;
      }

      .cls-13 {
        fill: #1d1d1d;
      }
    </style>
  </defs>
  <path class="cls-4" d="M82.57,855.86s-14.41,33.75-19.19,36.47,9.6,33.27,9.6,33.27l32.78-7.18,12.28-55.9-35.47-6.66Z"/>
  <polygon class="cls-4" points="412.67 848.03 433.96 881.14 396.85 920.03 388.41 909.99 377.1 859.66 412.67 848.03"/>
  <path class="cls-7" d="M524.56,589.07c-4.61,1.81-9.22,1.86-13.83-.02,4.61,0,9.22.02,13.83.02Z"/>
  <path class="cls-6" d="M142.58,236.89c-5.74-5.43-7.45-13.07-10.25-19.94-2.85-7.01-6.14-13.87-8.6-21.05-1.18-3.45-3.58-5.75-6.93-7.4-8.4-4.16-17.58-6.15-26.17-9.74-15.28-6.38-30.43-12.92-44.64-21.64-12.69-7.79-21.94-18.72-30.84-30.19-5.15-6.63-9.72-13.57-12.71-21.52-4.06-10.82-3.32-16.39,4.27-24.1,7.88-8,15.62-16.19,24.76-22.79,8.6-6.21,18.17-10.89,27.47-15.89,10.02-5.39,20.59-9.73,30.83-14.71,15.37-7.47,30.88-14.74,47.62-18.43,11.96-2.63,23.76-6.41,36.21-6.57,1.95-.03,3.89-1.13,5.84-1.73.5,2.72,2.01,3.91,4.79,4.87,10.66,3.67,20.28,9.32,28.59,17.04.82.77,1.51,1.66,1.63,2.8,1.05,9.43,5.72,16.62,13.43,21.97,1.45,1,2.5,2.38,3.59,3.73.66.82,1.36,2.03,2.62,1.59,1.25-.44,1.18-1.71,1.01-2.85-.18-1.24-.54-2.51.64-3.5,7.2,3.66,10.24,10.47,10.04,17.59-.44,15.25,9.66,24.63,17.64,35.31,1.97,2.64,4.47,4.9,6.46,7.53,5.29,6.96,13.26,10.47,19.88,15.71,1.04,2.46.64,5.07.23,7.48-.76,4.41-.65,8.82-.77,13.24-.34,12.63-1.14,25.26-3.13,37.73-2.09,13.08-10.74,20.65-24.88,21.73-23.69,1.8-39.31-13.09-45.49-35.91-2.14-7.91-3.57-16.02-6.7-23.66-.59-1.43-1.12-2.99-.68-4.61,2.09-2.47,3.33-.03,4.51,1,3.34,2.89,6.12,6.39,9.62,9.12,1.34,1.05,2.54,2.37,4.77,2.86-.09-2.5-1.78-3.98-2.89-5.68-2.84-4.34-2.37-6.1,2.47-7.58,5.98-1.84,11.26-4.94,16.27-8.58,3.53-2.56,5.45-5.98,5.45-10.42-1.33-.41-1.38.62-1.65,1.2-4.01,8.54-10.8,13.21-19.98,15.02-4.87.96-9.06-.4-13.18-2.5-2.7-1.38-5.35-2.75-8.52-2.32-1.2-.01-2.33-.32-3.43-.76-6.28-3.45-11.97-7.63-16.77-13.02-2.66-2.98-6.33-4.72-9.49-7.08-6.21-4.64-12.61-9.13-14.8-17.27-.47-1.73-1.92-2.89-3.34-3.91-4.21-3.04-7.27-7.02-9.54-11.64-4.24-8.63-9.8-16.68-10.92-26.63-.5-4.44-.3-8.85-.41-13.28-.14-5.33-1.56-6.13-6.31-3.46-4.45,2.5-7.99,6.21-11.96,9.33-15.83,12.43-30.93,25.64-43.29,41.72-6.21,8.08-6.2,8.66,3.73,10.37,9.7,1.67,19.17,3.95,28.18,8.06,3.5,1.6,6.66,3.65,9.78,5.8,4.66,3.22,9.58,3.93,15.28,3.52,8.52-.61,17.11.43,25.11,3.71,11.12,4.57,22.56,8.25,33.63,12.93,2.34.99,4.68,1.93,6.37,3.96,1.19,9.57,1.98,19.16.86,28.79-.96,8.28-3.47,16.2-7.55,23.38-4.39,7.72-10.15,14.53-16.7,20.6-.93.86-1.91,1.68-3.24,1.86-.85-.02-1.59-.36-1.96-1.11-4.15-8.38-9.96-15.75-14.41-23.96-4.35-8.02-6.84-16.64-8.91-25.43-1.66-7.01-4.72-13.24-10.11-18.48-.55,1.88.3,3.16.9,4.36,3.64,7.31,5.68,15.01,6.44,23.14,1,10.8,5.37,20.43,11.15,29.42,3,4.66,5.3,9.72,8.43,14.29,1.67,2.44,1.99,4.94.46,7.56-4.58,7.02-11.13,12.22-16.91,18.13-.73.74-1.63,1.55-2.88.89Z"/>
  <path class="cls-6" d="M305.18,130.68c2.74-.44,5.25,0,7.78,1.32,6.32,3.34,13.49,2.82,20.26,4.12,15.77,3.04,27.84,11.86,34.7,25.93,5.55,11.39,8.84,23.97,9.46,36.91.34,6.99,3.28,13.24,6.08,19.31,5.9,12.77,8.7,26.26,11.05,39.95,1.46,8.53,3.18,17.02,4.55,25.57,1.27,7.97-1.28,15.66-2.1,23.48-1.67,16.01-7.48,30.94-12.39,46.04-2.42,7.45-6.53,14.44-10.48,21.29-4.41,7.66-9.47,14.94-14.29,22.36-1.65,2.54-2.73,5.23-3.52,8.19-2.13,7.97-5.07,15.66-9.22,22.82-1.56,2.69-2.33,5.5-2.11,8.6-3.63-1.65-6.34,0-9.15,2.2-7.58,5.92-15.05,12.03-24.3,15.33-2.6.93-5.27,1.49-7.91.93-4.94-1.05-9.74-2.02-14.93-1.17-3.33.54-3.92-1.67-1.68-5.3,8.28-4.42,15.09-10.83,23.26-16.75-3.52.36-3.47.45-6.08,1.98-5.29,3.12-10.03,7.32-16.39,8.34-.78.12-1.54.44-2.33.45-2.13.01-4.94.86-5.59-2.06-.65-2.92,2.06-3.46,4.18-4.14,8.58-2.76,15.16-8.31,18.66-16.16-5.48,3.61-10.65,7.71-16.31,11.05-1.78,1.05-3.06,3.95-5.6,2.36-2.16-1.36-1.57-3.92-1.32-6.13.41-1.61,1.35-2.97,2.7-3.79,7.33-4.39,12.4-11.23,18.53-16.91,5.38-4.15,10.5-8.54,13.65-14.75,2.3-3.18,5.55-3.29,8.98-2.79,3.75.55,7.43,1.65,11.27,1.48,5.01-.23,6.72-1.92,8.55-6.64,6.85-17.7,8.03-36.29,9.31-54.95.73-10.55,2.15-21.12,4.53-31.47,1.35-5.9.79-11.06-2.12-16.42-5.2-9.59-10.5-19.14-15.17-29.02-2.5-5.31-4.34-10.86-6.25-16.39-.86-2.48-1.94-4.34-4.91-4.14-2.2-1.57-.6-2.98.3-4.28,2.33-3.38,2.93-7.21,3.34-10.99-1.03-.87-1.77-.44-2.24.17-4.48,5.76-10.33,10.24-14.86,15.97-1.42,1.79-2.92,4.12-5.83,2.02-3.71-6.29-4.7-13.4-5.35-20.38-2.3-24.49-.64-49.06-1.03-73.59-.05-3.45.26-6.93,2.3-9.96Z"/>
  <path class="cls-11" d="M169.88,207.55c15.05-12.74,25.47-28,26.95-48.38.56-7.73.22-15.34-.86-22.97-.13-.88.28-1.84.44-2.76.38-1.07,1.22-1.6,2.24-1.93,5.03-.16,7.58,1.74,9.24,6.89,3.09,9.6,5.99,19.24,8.33,29.08,2.86,12.01,8.99,22.21,19.51,29.33,1.12.76,3.36,1.23,1.69,3.47-2.51.86-4.31-.71-6.01-2.02-10.62-8.15-17.25-18.93-19.67-32.01-1.69-9.11-4.76-17.71-7.94-26.32-.41-1.11-.84-2.42-2.36-2.73-1.23,1-.63,2.35-.61,3.52.18,9.5.52,19.09-1.16,28.42-1.58,8.77-5.64,16.75-11.15,23.84-9.92,12.76-21.1,24.4-32.09,36.22-2.16,2.32-4.17,4.78-6.37,7.03-3.69,3.76-4.2,8.16-2.86,12.77,4.64,15.91,5.69,32.38,8.06,48.66,3.66,25.25,4.74,50.7,6.8,76.07.56,6.93.19,13.93,1.53,20.81.39,2,.24,4.11-.4,6.12-.93,1.5-1.37,3.85-4.04,2.35,2.26-8.49.3-16.95-.35-25.38-1.25-16.21-2.03-32.45-3.54-48.63-.96-10.35-2.17-20.69-3.47-31.01-1.58-12.51-2.93-25.04-4.99-37.49-.82-4.95-2.94-9.6-3.27-14.65-1.57-2.86-1.16-5.93-.95-8.97,7.01-5.7,13-12.41,18.95-19.15,2.56-3.58,4.26-7.87,8.36-10.18Z"/>
  <path class="cls-11" d="M301.35,407.44c.04-.62.08-1.23.12-1.85.35-3.21,3.05-4.68,5.04-6.62,3.19-3.12,4.64-6.59,5.05-11.23,1.25-14.39,1.36-28.83.58-43.16-1.07-19.63-.36-39.23-.74-58.84-.2-10.3,1.69-20.43,2.62-30.64.29-3.19.18-6.1-1.54-9.1-6.95-12.15-10.04-25.21-10.84-39.3-1.17-20.74-.2-41.45-.71-62.17-.02-.95-.16-1.94.05-2.84,1.51-6.27,1.55-12.08-4.58-16.16.07-.28.15-.56.22-.84,3.41,1.19,6.83,2.37,8.55,5.98-2.11,24.14-.65,48.33-.94,72.49-.11,9.35,2.31,18.39,4.07,27.48.31,1.6,1.69,2.98,2.58,4.47,2.9,3.13,3.98,7.7,7.91,10.02-.14,3.37-1.53,6.62-.86,10.07-1.66,18.13-3.89,36.29-2.63,54.48,1.37,19.78.12,39.56,1.14,59.33.29,5.65-.38,11.38-.36,17.08-.02,2.42-.46,4.75-1.4,6.98-2.62,6.49-7.95,10.46-13.33,14.38Z"/>
  <path class="cls-11" d="M237.65,199.83c-3.74-4.37-8.99-7.07-12.55-11.73-5.37-7.04-8.66-14.82-10.37-23.44-1.87-9.4-4.85-18.49-8.54-27.33-1.33-3.18-3.43-5.71-7.52-4.95.05-2.51,2.37-2.04,3.72-2.83l2.88.89c2.75,1.82,3.79,4.49,3.76,7.67,1.1,7.02,4.52,13.35,5.89,20.36,1.01,5.17,2.69,10.31,4.46,15.39,6.8,19.49,23.59,30.3,44.48,27.98,11.31-1.26,20.22-10.63,21.31-21.98,1.41-14.75,2.8-29.47,3.02-44.32.06-4.11.04-8.52,1.6-12.57,2.44-.07,4.93-.33,6.84,1.73,0,0-.18.26-.18.26-3.49,1.1-4.17,3.51-4.45,7.05-1.31,16.65-1.01,33.42-3.6,49.98-1.91,12.2-12.47,21.78-24.81,23.16-7.73.86-15.03-.42-22.37-2.31-1.53-.6-2.88-1.4-3.55-3.01Z"/>
  <path class="cls-12" d="M235.76,46.83c.14.93.12,1.91.43,2.77.74,2.05.52,3.9-1.38,4.99-2.42,1.38-3.4-.96-4.38-2.36-1.12-1.59-2.26-2.99-3.99-3.92-4.22-2.27-7.12-5.85-8.82-10.17-1.56-3.97-6.57-6.88-4.06-12.27.17-.37-.66-1.4-1.23-1.87-9.14-7.54-18.69-14.39-30.47-17.22-3.46-.83-3.83-2.78-2.42-5.6,1.68-1.08,3.59-1.12,5.5-1.16,7.48-.17,14.73,1.65,22.03,2.85,9.98,1.64,13.86,10.36,18.73,17.59,5.36,7.95,7.69,17.2,10.06,26.37Z"/>
  <path class="cls-5" d="M127.19,525.19c-.43,4.2-.08,8.52-2.14,12.44.56-4.17-.11-8.56,2.14-12.44Z"/>
  <path class="cls-1" d="M136.55,42.94c.1-1.88.27-3.37.25-4.86-.04-4.34,1.79-6.35,6.37-5.92,8.73.82,15.59-3.86,22.07-8.62,6.56-4.81,13.21-5.5,20.53-2.73,3.49,1.32,7.11,1.41,10.77,1.27,1.38-.05,2.84.03,3.37,1.49.63,1.74-.71,2.86-1.94,3.63-1.67,1.04-3.54,1.76-5.32,2.61-12.3,5.88-22.45,14.97-33.61,22.55-6.84,4.64-8.36,10.16-3.73,16.86,4.74,6.87,7.74,14.54,11.82,21.68.7,1.23,2.11,2.76.87,4.03-1.4,1.44-2.5-.5-3.77-1.08-14.29-6.59-18.68-20.82-25.08-33.24-2.74-5.32-2.13-11.96-2.61-17.67Z"/>
  <path class="cls-9" d="M169.88,207.55c-2.43,3.69-4.99,7.27-8.36,10.19,1.21-2.68.64-4.89-.93-7.44-4.97-8.05-9.73-16.24-14.23-24.57-3.4-6.31-5-13.4-5.49-20.4-.58-8.29-3.62-15.58-6.76-22.96-.19-.44-.44-.85-.59-1.3-.5-1.47-1.4-3.36.27-4.24,1.46-.77,2.4,1.15,3.24,2.17,4.64,5.7,8.11,11.94,9.49,19.31,2.72,14.57,9.55,27.33,17.92,39.34,2.18,3.12,3.89,6.46,5.44,9.9Z"/>
  <path class="cls-2" d="M209.04,138.11c-1.25-2.56-2.51-5.11-3.76-7.67,3-2.07,5.76-.13,7.81,1.3,12.11,8.5,29.38-.85,33.06-12.11.41-1.25.5-3.29,2.42-2.83,1.66.4,1.47,2.29,1.34,3.68-.43,4.48-2.38,8.17-6.16,10.71-5.51,3.7-11.04,7.37-17.67,8.84-3.23.72-3.31,2.37-1.4,4.71,1.2,1.46,2.39,2.98,3.23,4.65.64,1.27,2.52,2.73,1,4.17-1.48,1.4-2.95-.26-4.09-1.18-2.81-2.29-5.5-4.72-8.18-7.15-2.57-2.33-5.07-4.74-7.6-7.12Z"/>
  <path class="cls-10" d="M287.96,449.17c2.79-6.31,2.68-6.56-4.58-6.58-3.93,0-5.82-.86-3.81-5.26,1.43-3.12-1.68-6.78.67-10,.04.95.07,1.9.12,2.85.05,1.09-.2,2.39.94,3,1.36.73,1.84-.77,2.67-1.36,5.89-4.22,11.75-8.48,17.68-12.65.81-.57,1.94-1.66,2.94-.64,1.03,1.05.51,2.39-.35,3.43-5.75,6.93-11.13,14.37-20.99,15.85-1.54.23-2.99.78-2.57,2.63.38,1.67,2.06,1.15,3.23,1.13,7.04-.1,12.39-4.21,18.01-7.67,2.29-1.41,4.6-2.77,6.92-4.11.86-.49,1.9-.77,2.55.2.61.91.05,1.8-.6,2.56-3.13,3.65-7.62,5.58-11.09,8.84-3.44,3.23-7.43,5.78-11.75,7.77Z"/>
  <path class="cls-3" d="M327.94,231.29c-3.19,4.48-6.37,8.96-9.56,13.44-6.13-.37-5.67-5.88-7.5-9.61,5.7-6.05,11.46-12.05,17.07-18.18,1.3-1.42,2.61-3.64,4.4-2.88,2.37,1,.87,3.46.7,5.43-.38,4.57-2.94,8.08-5.11,11.8Z"/>
  <path class="cls-6" d="M308.05,649.01c19.25-3.12,38.5-6.21,56.12-15.47,3.06-1.61,6.21-3.02,9.32-4.51-1.62,2.73.71,4.84,1.21,7.19,3.01,14.1,6.91,27.99,9.67,42.17,2.61,13.44,9.09,25.59,13.54,38.43,2.76,7.95,2.84,16.43,5.19,24.39,3.83,13.02,2.4,26.48,3.75,39.7,1.9,18.5,2.09,37.14,4.61,55.6.69,5.08.68,10.25,1.15,15.36.41,4.44-1.76,6.63-5.76,7.33-7.46,1.31-14.59,3.93-22.08,5.26-4.68.83-6.39-1.02-7.68-4.78-3.07-8.94-5.74-18.05-9.4-26.73-5.1-12.09-10.95-23.85-16.49-35.75-4.12-8.83-8.87-17.41-12.21-26.53-2.78-7.61-4.11-15.82-4.4-24.04-.19-5.48-.58-11.04.07-16.44,1.19-9.9-2.38-17.93-7.3-26.11-9.5-15.82-17.33-32.48-20.33-51.04-.26-1.58-1.17-2.59-1.94-3.77.98-.08,1.96-.16,2.94-.23Z"/>
  <path class="cls-11" d="M448.81,976.39c-9.47-.48-18.91-1.29-28.21-3.32-5.95-1.3-11.36-3.45-15.89-7.92-4.15-4.1-9.88-5.51-15.42-6.68-4.26-.9-6.33-2.88-6.25-7.36.24-12.86,2.8-25.45,4.1-38.19.34-3.33,2.42-4.55,5.22-1.97,2.43,2.25,4.36,1.48,6.71-.15,6.44-4.45,10.32-10.1,9.69-18.28-.18-2.36.02-4.75.06-7.13.12-6.86,1.34-8.08,8.03-8.15,4.63-.05,9.1,1.02,13.59,1.93,3.38.68,4.97,3.48,5.92,6.25,2.3,6.72,4.45,13.52,6.1,20.42,1.32,5.53,3.72,10.34,6.97,14.91,7.6,10.69,15.87,20.87,22.49,32.28,7,12.05-.83,19.34-10.39,22.12-4.1,1.19-8.4,1.57-12.72,1.23Z"/>
  <path class="cls-6" d="M119.57,649.62c8.4-.21,16.55,2.01,24.76,3.14,15.24,2.1,30.47,2.63,45.77,2.66-.87.88-1.81,1.54-2.01,3.07-2.61,20.53-9.64,39.51-18.49,58.08-5.31,11.15-9.02,22.9-10.34,35.68-2.01,19.51-7.99,38.11-17.21,55.6-8.92,16.9-18.44,33.57-23.28,52.37-.52,2.01-1.32,3.95-2.08,5.88-1.36,3.49-3.52,4.73-7.42,3.73-6.39-1.64-12.93-2.7-19.43-3.94-6.23-1.18-7.68-3.63-7.26-10.03,1.15-17.55,4.71-34.78,6.07-52.35,1.34-17.34,1.29-34.85,4.38-52.05,2.43-13.52,5.25-26.86,9.6-39.99,5.03-15.16,11.97-29.78,14.51-45.69.86-5.36,3.2-10.55,2.43-16.17Z"/>
  <path class="cls-11" d="M48.81,984.96c-8.61-.09-14.92-.05-21.23-.86-4.1-.53-5.4-2.66-5.98-6.52-1.49-9.92,3.43-17.3,8.77-24.72,4.98-6.91,9.94-13.82,15.61-20.19,6.68-7.51,9.02-16.5,8.87-26.25-.1-6.61,1.63-11.75,8.53-14.1,4.17-1.41,8.09-3.59,12.31-4.79,7.24-2.06,12.54,2.11,12.54,9.49,0,6.92-.99,14,5.7,19.06,2.26,1.71,4.07,2.87,6.73,1.22,3.46-2.14,5.06-.26,5.59,2.94,2.23,13.4,4.46,26.79,6.44,40.23,1.22,8.32-.89,11.8-9.29,12.79-7.47.88-13.14,4.95-19.32,8.23-2.92,1.55-5.99,2.17-9.1,2.26-9.49.29-18.93,1.62-26.16,1.22Z"/>
  <path class="cls-13" d="M297.68,408.11c-4.73,5.79-10.2,10.82-16.21,15.22-3.33,2.43-4.71,5.36-3.95,9.39.35,1.88.26,3.7-.33,5.61-1.29,4.18-.06,5.84,4.28,6.27,5.07.51,5.18.71,2.92,5.2-.72,1.42-1.56,2.84-.44,4.43,1.2,1.71,2.93,1.84,4.67,1.26,4.03-1.34,7.76-1.2,11.98.09,6.58,2.01,12.76-.67,18.5-3.94,6.76-3.84,13.23-8.14,18.95-13.41,3.06-2.81,4.47-1.91,6.4,1.26,6.83,11.2,9.08,23.87,12.02,36.31,5.17,21.87,8.35,44.12,12.59,66.16,3.67,19.07,10.38,37.43,17.24,55.63,2.18,5.77,4.44,11.52,6.96,17.15,1.32,2.95.66,4.8-1.98,6.29-18.2,10.26-36.53,20.06-57.28,24.51-12.35,2.65-24.79,4.46-37.26,6.28-12.07.08-12.02.07-15.41-11.63-2.86-9.87-5.21-19.95-8.92-29.49-7.09-18.23-14.98-36.15-22.54-54.2-.51-1.21-1.28-2.44-2.71-2.26-1.74.22-2.64,1.69-3.07,3.25-1.12,4.11-1.94,8.3-2.93,12.44-3.89,16.33-10.18,31.92-14.35,48.14-2.45,9.53-3.69,19.29-3.63,29.15.03,4.4-1.44,6.25-6.16,6.98-26.08,4.05-52.1,3.3-78.06-.51-9.83-1.44-19.51-3.97-29.27-5.89-3.91-.77-4.57-3.16-4.04-6.64,1.51-9.84,3.21-19.52,7.61-28.7,5.24-10.93,7.31-22.84,8.86-34.83,3.9-30.13,7.69-60.29,13.28-90.17,1.92-10.24,4.16-20.41,6.25-30.62,1.17-4.12,2.72-8.12,3.69-12.3l.06-.14c1.86-4.93,2.81-10.12,4.29-15.16,1.63-5.52,3.55-10.93,6.16-16.07l.05-.1c.66-2.22,1.91-4.18,2.89-6.26,1.71-3.49,4.33-4.83,8.18-3.66,9.75,2.98,19.9,3.94,29.93,4.5,14.68.83,29.41,2.03,44.12,1.08,17.01-1.1,34.1-1.12,51.04-3.37,2.13-.28,5.4-1.49,5.63,2.74Z"/>
  <path class="cls-8" d="M145.32,444.54c-.14,4.43-1.68,8.43-3.69,12.3-.1-.34-.21-.67-.31-1.01,1.37-3.75,1.91-7.8,4.01-11.29Z"/>
  <path class="cls-11" d="M240.59,201.64c5.03.36,9.73,2.53,14.85,2.58,7.32.06,14.32-.72,20.59-5.03,7.96-5.47,11.19-13.35,11.9-22.57.93-12.1,1.97-24.19,2.06-36.35.03-4.08.6-8.16.87-12.25.26-4,3.12-3.16,5.59-3.07,7.02,3.08,6.39,8.46,6.22,15.15-.54,21.5-1.32,43.05.36,64.57.56,7.24.68,14.42,2.61,21.56,1.84,6.81,4.71,13.07,8.06,19.13,1.47,2.67,2.21,5.26,1.78,8.11-4,26.43-2.97,53.05-2.47,79.59.27,14.71.61,29.42.59,44.13,0,4.88-.55,9.77-.88,14.65-.17,2.56-1.89,4.32-3.48,6.03-2.48,2.66-5.15,5.15-7.74,7.72-.32-.05-.64-.11-.96-.16-1.07-.85-1.11-1.97-.81-3.17.61-1.54,1.81-2.64,3.14-3.47,4.5-2.81,5.97-7.13,6.41-12.08,1.53-17.38,1.19-34.81.99-52.22-.1-8.87.36-17.73.11-26.59-.3-10.42-.59-20.83-.09-31.27.29-6.02.33-12.02,1.52-17.95.88-4.34.09-8.28-1.95-12.35-5.78-11.55-9.25-23.69-10.09-36.78-1.39-21.54-.38-43.07-.8-64.59-.05-2.7.19-5.38.59-8.05.24-1.58.27-3.18-.38-4.68-.58-1.33-1.33-2.72-2.99-2.68-2.07.05-1.95,1.89-1.92,3.2.16,6.83-.9,13.59-.96,20.39-.09,9.7-1.94,19.23-2.26,28.87-.37,11.05-17.36,26.44-28.37,25.14-4.53-.53-9.24.45-13.74-.39-3.23-.6-7.48-.31-8.32-5.11Z"/>
  <path class="cls-11" d="M300.46,402.43c.02,1,.04,2,.06,3-.84,1.01-1.37,2.34-2.84,2.68-1.15-2.71-3.52-1.73-5.37-1.52-12.21,1.39-24.44,2.49-36.74,2.73-10.73.21-21.44,1.18-32.19.89-17.02-.46-33.99-1.59-50.86-3.92-1.39-.19-2.85-.56-4.07-1.23-4.32-2.39-7.41-1.18-9.7,2.93-.82-.73-.68-1.51-.1-2.3.33-.76.66-1.52,1-2.28,1.61-.38,1.8-2.12,2.89-3,1.82-1.24,3.64-.51,5.47-.03,14.01,3.64,28.39,4.76,42.72,5.41,27.03,1.22,53.99-.9,80.95-2.8,2.93-.21,5.76-2.05,8.79-.55Z"/>
  <path class="cls-11" d="M300.46,402.43c-6.9,3.01-14.35,2.11-21.53,2.79-20.64,1.95-41.36,2.74-62.09,2.14-18.32-.53-36.56-1.88-54.31-6.95-1.31-20.64-2.25-41.31-4.02-61.9-2.02-23.55-4.94-47.01-8.48-70.39-.94-6.21-1.86-12.48-4.09-18.46-3.02-8.09,1.86-13.34,6.84-18.63,12.53-13.33,25.67-26.18,36.26-41.16,5.24-7.41,9.21-15.49,9.8-25.17.56-9.18,1.02-18.28.2-27.43-.12-1.3,0-2.27,1.21-2.69,1.47-.51,2.37.43,3.05,1.61,3.67,6.35,5.91,13.33,7.51,20.34,2.6,11.42,4.78,22.9,12.62,32.17,3.94,4.67,7.79,9.6,14.23,11.13,1.33.04,2.2.83,2.94,1.81.44,1.43,1.81,1.69,2.91,2.22,10.61,5.06,28.43,1.59,37.14-6.31,6.49-5.88,8.82-12.7,9.48-21.26,1.18-15.11,2.55-30.19,2.62-45.36.02-4.08,1.95-5.03,5.44-2.78,2.52,1.63,3.36,4.17,3.05,7.03-1.92,17.86-.45,35.77-.91,53.65-.32,12.67.81,25.29,3.09,37.7,1.09,5.92,3.33,12.07,6.67,17.03,4.55,6.77,3.68,13.44,2.31,20.44-.4,2.05-.62,4.05-.62,6.11-.03,17.69-.06,35.39-.06,53.08,0,14.86.16,29.73.03,44.59-.06,6.62-.8,13.24-.97,19.87-.19,7.3-4.99,11.18-10.31,14.8Z"/>
  <path class="cls-12" d="M188.4,1.96c7.06,1.11,14.62,1.94,21.97,3.98,1.81.5,2.95,1.81,4.14,3.07,10.55,11.15,16.25,24.76,19.88,39.39.32,1.28,1,3.04-.77,3.76-1.51.61-1.93-1.09-2.81-1.92-5.65-5.33-10.87-10.96-14.69-17.82-1.02-1.84-1.94-3.21-.4-5.06,1.5-1.8.72-3.31-.86-4.44-8.72-6.3-17.31-12.83-27.55-16.64-1.61-.6-4.57-.38-4.02-2.96.4-1.9,3-1.05,5.12-1.35Z"/>
  <path class="cls-8" d="M155.83,413.17c-3.49,10.41-6.97,20.82-10.46,31.23,2.5-10.74,4.34-21.7,10.46-31.23Z"/>
  <path class="cls-8" d="M158.64,405.69c.03.77.07,1.54.1,2.3-1.07,1.62-1.14,3.81-2.85,5.07-.12-2.85,1.34-5.1,2.75-7.38Z"/>
</svg>