<?xml version="1.0" encoding="UTF-8"?>
<svg xmlns="http://www.w3.org/2000/svg" version="1.1" viewBox="0 0 1080 1080">
  <defs>
    <style>
      .cls-1 {
        fill: #272626;
      }

      .cls-2 {
        fill: #e2ad83;
      }

      .cls-3 {
        fill: #fdfcf9;
      }

      .cls-4 {
        fill: #fff;
      }

      .cls-5 {
        fill: #fdcca7;
      }

      .cls-6 {
        fill: #b0afaf;
      }

      .cls-7 {
        fill: #f8cba7;
      }

      .cls-8 {
        fill: #292929;
      }

      .cls-9 {
        fill: #2e2d2c;
      }

      .cls-10 {
        fill: #afafaf;
      }

      .cls-11 {
        fill: #ebb98f;
      }

      .cls-12 {
        fill: #fccca7;
      }

      .cls-13 {
        fill: #8c1d1c;
      }

      .cls-14 {
        fill: #b0b0b0;
      }

      .cls-15 {
        fill: #eaba8d;
      }

      .cls-16 {
        fill: #d84140;
      }

      .cls-17 {
        fill: #b0afad;
      }

      .cls-18 {
        fill: #9b846f;
      }
    </style>
  </defs>
  <!-- Generator: Adobe Illustrator 28.7.1, SVG Export Plug-In . SVG Version: 1.2.0 Build 142)  -->
  <g>
    <g id="Layer_1">
      <path class="cls-3" d="M280.59,897.13s-6.18,12.69,5.9,20.35-15.78,24.82-15.78,24.82l-22.05-10.3,3.2-29.57,28.73-5.3Z"/>
      <path class="cls-4" d="M821.28,613.38s-3.65,13.46,4.46,18.18-10.32,28.29-10.32,28.29l-20.14-6.86-2.14-33.86,28.14-5.76Z"/>
      <path class="cls-1" d="M875.57,338.86c2.73,11.51,5.45,23.02,8.18,34.54,2.67,12.03,3.15,23.97,2.28,36.43-1.23,17.78-1.4,35.79.45,53.64.67,6.42.18,12.8.47,19.19.17,3.78-1.57,5.53-5.35,6.08-16.87,2.48-33.83,2.23-50.8,2.04-3.34-.04-6.67-.24-9.28-2.76-.78-.8-1.33-1.74-1.66-2.8-.53-1.65-.37-3.5-1.51-5.54-2.15.95-2.25,3.1-3.11,4.66-.91,2.27-1.86,4.5-3.61,6.29-2.87,3.26-6.64,4.2-10.75,4.02-17.09-.78-34.3-.62-50.77-6.37-1.45-.5-3.1.11-4.5-.75-8.83-.43-9.11-.45-8.3-9.31,3.8-41.71,6.69-83.52,12.44-125.04.76-5.5,2.14-10.86,5.04-15.71,1.89-2.38,4.29-3.72,7.4-3.74,19.43-.09,38.72-2.79,58.16-2.84,16.44-.04,32.56,2.31,48.66,5.17,2.4.43,4.82.83,6.57,2.79Z"/>
      <path class="cls-16" d="M875.57,338.86c-22.41-3.68-44.86-6.93-67.69-5.62-15.84.91-31.69,1.74-47.53,2.72-1.88.12-3.71,1-5.56,1.53,1.02-9.53-1.2-19.12.75-28.64.48-2.35.62-4.76,1.78-6.93,1.74-12.89-.65-25.61-2.83-38.1-1.38-7.89-1.08-14.91,2.38-21.66,7.75-15.16,11.81-31.47,15.44-47.89,1.23-5.57,3.4-8.48,9.36-7.3.65.13,1.33.08,1.99.07,8.4-.09,8.79-.17,10.39,8.31,1.72,9.17,6.51,15.8,14.31,20.54,4.58,2.78,8.9,3.9,14.27,1.14,5.53-2.85,10.79-6.13,16.11-9.27,4.28-2.52,6.79-6.56,7.47-11.93.94-7.46,2.82-8.85,9.62-9.13,11.46-.46,12.94.32,15.11,8.38,1.06,3.93,2.58,7.81,5.64,10.37,9.33,7.81,11.52,18.5,12.64,29.66.38,3.74.65,7.48,1.29,11.2,1.04,6.08,1.87,12.04-2.18,17.74-2.38,3.36-3.17,7.71-4.64,11.62-5.11,13.4-7.96,27-5.78,41.55,1.08,7.19-.64,14.51-2.36,21.63Z"/>
      <path class="cls-12" d="M212.46,171.68c8.77-11.65,27.81-12.08,38.71-.88,1.11,5.94.46,11.94.53,17.92-8.84,8.73-9.6,19.61-9.38,31.28.47,24.59.92,49.22-3.47,73.64-1.17,6.5-.85,13.25,1.39,19.74,5.69,16.5,5.81,33.6,4.22,50.62-.88,9.46-.42,18,5.13,26,2.38,3.43,4.18,7.32,4.88,11.57-2.34,9.5-1.25,19.33-2.8,28.94-2.07,12.84-5.4,24.9-18.35,31.07-7.55,3.6-15.49,5.3-23.41.59-.42-1.25-1.3-2.55-1.18-3.75,1.61-15.1-3.77-28.65-9.14-42.22-1.23-3.1-1.66-6.37-1.64-9.75.05-12.41.34-24.85-.2-37.24-.59-13.36.65-26.66,3.29-39.53,3.24-15.74,1.64-31.39,2.46-47.07.65-12.29,2.09-24.7,6.06-36.44,4.04-11.95,7.52-23.99,9.52-36.44.73-4.54.31-8.61-3.73-11.96-3.01-2.5-5.32-5.85-7.94-8.82,1.92-5.69,3.52-11.47,5.06-17.28Z"/>
      <path class="cls-12" d="M382.79,188.9c-4.32,4.72-8.69,9.39-12.93,14.18-2.69,3.03-1.75,6.86-1.29,10.21,2.77,20.37,5.04,40.87,3.41,61.35-1.13,14.1-.49,28.21-1.8,42.32-.86,9.27.83,18.94,2.48,28.23,1.86,10.47.39,20.68-.54,30.98-1.1,12.28-2.67,24.51-3.61,36.8-.37,4.75-1.38,9.14-3.52,13.32-3.84,7.5-6.5,15.45-9.17,23.41-.73,2.19-.79,4.99-3.73,5.84-.64.65-1.41,1.11-2.33,1.13-10.65.21-27.37-12.34-29.08-22.64-1.91-11.52-3.47-23.15-3.45-34.9,8.11-11.54,10.96-24.27,9.34-38.27-1.61-13.93,3.26-27.13,5.5-40.61,1.2-7.22,2.61-14.33,2.46-21.71-.36-17.8,1.71-35.24,6.64-52.46,3.29-11.48,3.92-23.56,5.01-35.46.4-4.33-1.32-8.26-3.36-11.99-1.59-2.91-3.51-5.65-4.71-8.77-1.69-6.04-.37-12.15-.4-18.24,6.08-6.33,13.57-8.11,22.17-7.85,6.93.21,12.53,2.04,16.49,7.9.01,6.54,4.1,11.56,6.41,17.24Z"/>
      <path class="cls-12" d="M198.47,716.58c-1.06,16.11-2.76,32.17-4.16,48.25-.29,3.34-.9,6.91,4.09,7.42,20.88,2.13,41.57,6.17,62.69,5.91,3.34-.04,5.95-1.01,8.4-2.99,2.02,1.98.04,3.6-.46,5.38-3.18,11.34-4.34,22.96-4.71,34.69-.01.44.06.89.2,1.31,1.13,3.47.67,8.86,4.58,9.56,4.35.79,5.71-4.65,8.12-7.64.27-.34.55-.77.56-1.19.69-16.23,3.42-32.56-2.27-48.49-.3-.83-.88-1.53-1.45-2.21-.27-1.89.73-3.17,2.43-3.25,1.92-.09,2.53,1.67,2.62,3.24.4,6.93,4.68,7.86,10.54,7.67,15.5-.5,31.02-.8,46.53-.7"/>
      <path class="cls-12" d="M334.38,775.01c-3.11.14-5.82.36-5.99,4.42-.71,17.56-5.14,34.34-10.19,51.07-4.64,15.39-8.56,30.96-18.85,43.93-2.08,2.62-4.03,5.23-6.88,7.03-.83-.94-1.05-2.22-.3-3.03,4.43-4.78,2.48-9.03-.5-13.64-4.84-7.49-6.79-16.29-10.35-24.37-.8-1.82-1.57-3.67-2.53-5.41-1.07-1.93-2.15-4.31-4.98-3.03-2.58,1.17-3.24,3.49-2.4,6.15,2.51,8.02,4.97,16.04,6.08,24.42.87,6.57,1.71,13.14,2.39,19.73.6,5.78,1.62,6.05,6.13,2.64,1.52-1.15,2.8-3,5.17-2.06-.66,3.87-4.07,5.64-6.41,8.18-2.43,2.64-4.74,4.97-4.56,9.08.15,3.48-2.55,5.45-5.6,6.61-5.97,2.27-11.92,4.61-18,6.54-1.69.54-2.57,1.47-3.5,2.65-4.12-2.54-4.23-7.31-6.08-11.09-1.82-3.72-3.79-7.39-4.94-11.41.28-5.32-3.53-8.95-5.68-13.2-5.42-10.73-9.13-22-10.3-33.88-.62-6.28-2.32-12.08-4.21-17.96-4.89-15.19-6.54-31.06-9-46.71-.82-5.18-2.83-6.9-7.25-7.41-1.98-.23-3.98-.61-5.94-.49"/>
      <path class="cls-5" d="M745.61,487.54c12.89,1.48,25.76,3.09,38.67,4.36,5.93.59,11.93.32,17.88.8,3.89.31,6.84-.98,9.3-3.8-.04,6.97-2.86,13.42-3.74,20.25-1.16,8.97-3.47,17.82-.34,26.89,1.08,3.13,2.44,5.63,5.61,6.87.49.49.79,1.08.89,1.77-1.54,5.08-.59,9.7,1.36,14.68,5.04,12.89,4.91,26.86,7.47,40.29.2,1.05-.05,2.21,1.13,3.33,4.69-2.73,6.03-9.14,11.5-11.06.7,0,1.3.24,1.8.73-2.92,6.06-8.35,10.12-12.27,15.38-1.29,1.74-3.72,2.91-3.6,5.35.34,6.95-4.32,8.21-9.62,10.4-5.34,2.21-12.01,1.56-16.07,6.74-3.05.68-2.88-2.06-3.58-3.6-1.06-2.31-2.02-4.69-2.78-7.12-.67-4.77-3.52-8.61-5.53-12.81.36-2.37-.6-4.43-1.87-6.21-9.99-13.99-12.14-30.53-15.23-46.75-2.18-11.46-7.19-22.19-8.56-33.88-.82-6.98-3.1-13.9-3.04-20.84.06-7.22-3.46-10.08-9.38-11.77Z"/>
      <path class="cls-12" d="M751.65,256.84c-3.05,9.36-5.21,19.14-9.37,27.98-4.74,10.09-10.94,19.78-22.1,24.23-7.56,3.01-16.75-2.84-17.43-11-.32-3.87-1.43-7.24-2.99-10.71-6.61-14.66-1.02-26.99,7.82-38.55,8.45-11.05,17.23-21.74,18.34-36.63.6-8.11-.27-15.72-3.3-23.17.38-6.78,5.02-11.62,7.9-17.25,3.41-6.52,10.22-6.19,15.66-6.17,7.02.02,14.66.47,20.26,6.22.73.85,1.44,1.78,1.5,2.9.31,5.56-.72,11.15,4.51,15.74,2.44,2.14-.06,6.37-.86,9.49-2.91,11.41-4.24,23.36-10.94,33.54q-5.19-2.77-9.14-17.77c-6.09,13.41-4.24,26.65-4.7,39.61,2.18,1.01,3.13-1.86,4.96-1.05.69.9.76,1.78-.13,2.59Z"/>
      <path class="cls-12" d="M912.82,188.97c-3.24,7.67,1.86,14.58,2.05,22.02.3,12.04,5.99,21.6,13.61,31.23,7.64,9.65,13.18,22.05,14.38,34.41.97,10.01-3.34,20.53-9.18,29.18-4.32,6.4-13.42,5.93-20.07.52-14.39-11.7-21.79-26.73-21.99-45.29-1.69-12.98-2.93-26.01-5.02-38.95-.82-5.07-3.33-8.75-6.62-11.74-8.72-7.93-10.88-18.2-11.43-29.13-.17-3.4-1.18-6.46-2.18-9.6,8.79-6.53,18.93-6.92,29.24-6.26,3.95.25,5.65,3.79,7.97,6.34,1.07,6.84,6.7,11.24,9.24,17.29Z"/>
      <path class="cls-12" d="M793.2,170.52c4.09-2.69,5.07-6.56,5.31-11.3.58-11.58-.66-22.56-6.55-32.89-3.58-6.27-1.12-13.71-2.69-20.46,2.39-1.2,2.47,1.7,4.25,2.3,1.72-6.13-1.16-13.01,2.8-18.73,1.51-2.33,3.47-4.2,6.35-4.27,9.48-.23,18.84-2.25,28.38-1.55,10.22.75,14.25,4.66,14.4,14.87.05,3.64.61,7.12,2.41,10.18,1.6,2.72,1.56-.05,1.99-.92,1.03-2.66-.09-6.63,4.38-7.16.45,14.98-4.57,28.58-10.42,42.03-4.35,9.99-2.31,19.2,5.11,25.41-.88,5.53-5.61,5.51-9.19,5.23-13.48-1.08-26.96-.29-40.43-.72-2.2-.07-4.46-.16-6.1-2.02Z"/>
      <path class="cls-16" d="M801.34,647.63c6.8,5.07,20.14,1.61,20.89-9.65.48-7.24,3.46-7.53,8.89-5.01,2.19,1.02,4.6,1.54,6.91,2.3,13.39,4.41,16.5,10.08,12.71,23.52-2.27,8.07-4.54,16.16-9.19,23.3-1.13,1.74-1.67,3.67-1.03,5.7,5.71,18.04-3.46,32.48-11.4,47.22-3.31,4.65-7.07,8.35-13.47,8.04-5.3-.25-9.13-3-10.52-8.16-1.21-4.51-1.64-9.1-1.35-13.75.32-5.14-.06-10.12-2.76-14.68-1.16-18.82-2.9-37.64-.75-56.51.1-.9.41-1.69,1.07-2.33Z"/>
      <path class="cls-16" d="M260.62,935.09c12.29,1.79,17.33-1.58,20.24-13.98.8-3.42,2.52-4.51,5.64-3.62,5.76,1.64,11.49,3.43,16.63,6.62,3.86,2.4,5.68,5.69,5.63,10.49-.11,10.98-3.63,20.97-8.65,30.39-2.29,4.3-2.84,8.25-1.86,12.7,3.98,18.18-4.32,32.8-13.96,46.84-3.2,4.66-8.77,5.22-13.88,3.97-5.09-1.24-7.33-5.3-7.59-10.49-.32-6.42-.99-12.82-1.06-19.24-.07-5.97-2.46-3.47-4.88-1.64-.73-.59-1.29-1.45-.96-2.28,5.35-13.89,1.35-28.35,2.64-42.47.52-5.78-1.75-11.9,2.08-17.28Z"/>
      <path class="cls-12" d="M880.08,489.98c-9.57.17-9.41.27-9.76,10.03-.63,17.76-5.73,34.61-10.79,51.48-3.8,12.68-7.62,25.28-15.94,35.92-1.75,2.24-3.16,4.89-6.45,5.24-.5-.04-.99-.07-1.49-.11,2.2-5.14.37-9.28-2.39-13.83-5.01-8.28-7.4-17.82-11.14-26.72-1.83-4.34-4.28-6.93-8.98-7.23-.03-.43-.05-.86-.05-1.29-.9-2.59.85-4.26,2.36-5.71,4.18-3.99,5.35-8.86,5.08-14.4-.58-11.84.85-23.68-.07-35.53-.06-.72.47-1.18.95-1.63,1.95,2.05,4.28,2.77,7.14,2.69"/>
      <path class="cls-17" d="M793.2,170.52c15.43.84,30.9-1.01,46.34,1.01,2.94.39,7.22.2,9.37-3.5,5.41,3.19,11.17,4.7,17.46,3.57,3.28.66,3.95,2.94,3.95,5.91,0,3.72.9,7.64.65,11.11-.66,9.11,4.49,15.02,9.8,20.74,4.41,4.76,7.23,9.83,7.7,16.23.87,11.83,4.41,23.42,3.14,35.44-4.85,3.69-3.84,10.54-7.91,14.65.13-1.08-.06-2.36.45-3.2,8.01-13.04,4.17-26.82,2.97-40.56-.91-10.43-4.79-18.96-12.44-26.05-3.29-3.05-5.44-7.08-5.54-11.75-.09-4.4-2.9-5.66-6.49-5.99-3.48-.32-6.88,1.04-10.51.24-2.34-.51-3.48,2.05-3.44,4.04.28,13.54-10.32,17.95-19.57,23.28-14.94,8.61-31.16,1.5-35.79-15.44-.58-2.13-1.23-4.31-1.37-6.49-.28-4.52-2.34-4.57-6.65-5.35-10.56-1.92-11.39,4.18-12.55,11.5-2.82,17.86-10.39,34.12-17.42,50.56-2.81,6.56.44,13.06,1.05,19.56.85,9.02,2.28,18,2.18,27.09-.02,1.66.67,3.62-1.29,4.8-.26-13.99-2.1-27.82-4.1-41.63-.19-1.33-.38-2.6-1.56-3.45-.05-.73-.11-1.46-.16-2.18-.17-8.31,3.97-14.93,8.42-21.43,6.33-11.95,8.79-25.11,11.71-38.11.32-1.44.37-4.18-.22-4.42-10.24-4.16-3.34-12.65-4.95-18.91,8.93-.1,17.9.43,26.75-1.28Z"/>
      <path class="cls-13" d="M260.62,935.09c.08,16.9-.11,33.81.41,50.69.15,4.73-4.85,6.86-4.16,11.35.03.33-.11.54-.43.63-3.93,5.49-9.03,7.44-15.54,5.17-6.88-3.47-9.19-10.08-9.63-16.77-.99-14.99-1.46-30.1,6.46-43.87,2.33-7-.13-13.77-1.04-20.6-4.48-10.63.46-19.45,5.43-28.27,6.37,6.18,7.72,14.82,11.02,22.51,1.75,6.68,4.26,13.06,7.49,19.16Z"/>
      <path class="cls-13" d="M801.34,647.63c2.51,6.29.04,12.53-.23,18.78-.6,13.41,2.4,26.69,1.32,40.11-1.26,5.38-5.4,8.65-9.55,11.34-5.86,3.8-14.35-.08-16.83-7.79-4.43-13.77-4.99-28.07-.33-41.64,3.9-11.37,4.57-22.21,1.87-33.69-1.73-7.34-.01-14.47,2.91-21.3.7-1.63,1.61-3.35,3.54-3.63,2.28-.33,2.74,1.79,3.58,3.25,1.1,1.91,1.88,3.98,2.72,6.01,1.75,3.82,3.5,7.64,5.25,11.45,1.92,5.7,3.83,11.4,5.75,17.1Z"/>
      <path class="cls-10" d="M730.52,171.75c-.52,6.72-5.11,11.58-7.9,17.25-31.23-1.73-62.48-.67-93.73-.88-5.07-.03-10.14.73-15.21.91-7.78.28-6.19-5.86-6.82-10.34-.72-5.12,1.51-7.05,6.77-7.03,34.6.16,69.2,0,103.81.2,4.36.02,8.72-2.01,13.08-.1Z"/>
      <path class="cls-6" d="M212.46,171.68c.76,6.48-.29,12.42-5.06,17.28-5.63-1.86-11.44-.71-17.13-.77-25.07-.27-50.15-.17-75.22-.07-5.07.02-10.15.57-15.22.96-4.32.32-6.16-1.66-5.84-5.9.1-1.32.17-2.68-.02-3.99-.84-5.75,1.31-7.65,7.31-7.58,27.07.31,54.14.14,81.21.13,9.99,0,19.97-.03,29.96-.05Z"/>
      <path class="cls-6" d="M382.79,188.9c-5.72-4.75-8.3-11.69-6.41-17.24,31.01.02,62.02.04,93.03.08,8.04.01,8.66,1.04,8.03,11.05-.42,6.58-4.22,5.72-9.24,5.64-23.44-.34-46.92-1.38-70.34.51-5.07.41-10.06-2.32-15.07-.05Z"/>
      <path class="cls-9" d="M854.22,100.59c-1.74,2.17-2.06,4.84-2.65,7.42-.83,1.13-.46,3.36-2.74,3.14-1.77-.17-1.49-1.9-2.11-2.97-2-3.47-1.6-7.26-1.71-11.01-.25-8.22-3.44-11.26-11.53-12.54-10.24-1.62-20.25,1.16-30.39,1-3.32-.05-5.16,2.02-6.07,5.04-2.24,7.12.29,14.89-2.77,22.07-3.36-1.34-2.48-5.32-5-6.87-1.89-8.39-1.24-16.87.87-24.96,4.68-17.93,22.25-21.9,37.52-19.37,5.31.88,10.31,3.26,15.13,6.25,12.94,8.02,12.34,20.24,11.43,32.8Z"/>
      <path class="cls-6" d="M337.72,171.61c2.84,1.51,1.88,3.72,1.55,6.19-.48,3.65-.18,7.4-.21,11.11-3.93,3.76-8.79,2.41-13.27,2.07-21.26-1.59-42.51-1.56-63.77-.02-3.89.28-8.1,1.22-10.9-2.88-2.19-5.77-1.93-11.53.03-17.28,1.94.32,3.89.91,5.83.91,26.91.01,53.82-.05,80.73-.1Z"/>
      <path class="cls-16" d="M339.5,624.36c-.19,1.92-.39,3.85-.58,5.77-2.14-5.87-2.27-12.05-2.81-18.17-.33-3.71-.38-7.62-4.49-9.61.61-25.42-.83-50.87,5.24-76.04,4.56-18.91,8.63-38.01,11.34-57.33,1.24-8.85,1.36-8.81-6.9-12.33-4.06-1.73-8.29-3-11.94-5.73-6.34-4.73-10.61-10.49-11.44-18.63-.78-7.7-2.64-15.3-2-23.13-.96,11.15.91,22.46-2.25,33.53-1.54,5.37-3.4,9.72-8.85,12.36-3.54,1.72-6.95,3.85-10.5,5.67-15.02,7.72-29.3,2.3-36.35-13.4-3.21-7.15-3.46-14.56-3.55-23.47-1.29,17.85-4.37,33.15-22.01,40.47-4.01,1.66-8.03,2.27-12.28,2.4-6.56.19-7.01,1.01-6.25,7.67,2.46,21.8,5.79,43.48,9.01,65.17,1.83,12.29-.06,24.32-1.06,36.42-.56,6.82-.77,13.73-2.62,20.41-.65,2.34-.82,4.84-2.69,6.68-2.2,4.1-1.32,9.12-3.87,13.11-1.05-7.67,1.52-14.98,2.92-22.24,6.01-31.04,3.06-61.7-2.11-92.43-1.98-11.77-3.11-23.69-4.49-35.56-.14-1.2.61-2.51.94-3.77,8.59,1,17.07,1.67,24.99-3.22,10.3-6.35,13.28-16.61,14.74-27.47,1.06-7.84,2.04-15.76,1.67-23.74-.11-2.29.25-4.42,2.31-5.86,3.19.91,4.33,3.59,5.41,6.31,1.2,6.82.26,13.72.65,20.57.6,10.53,3.11,20.17,12.59,26.55,5.61,3.77,11.35,4.78,17.53,1.49,1.76-.94,3.51-1.89,5.29-2.81,10.12-5.24,14.46-13.55,14.28-24.89-.14-8.38-.97-16.84.69-25.2,1.88-2.7,3.34-6.2,7.76-4.16,2.97,8.62,2.02,17.76,3.48,26.6,2.87,17.29,12.84,27,30.78,29.21,3.37,6.82.17,13.46-.96,19.97-4.78,27.45-12.31,54.42-15.21,82.19-1.75,16.76-1.04,33.62,1.38,50.33.79,5.44-.21,11.12,2.2,16.33Z"/>
      <path class="cls-14" d="M912.82,188.97c-4.81-4.84-10.7-9.1-9.24-17.29,26.32.02,52.64.03,78.96.05,8.24,0,8.17.28,7.81,11.61-.23,7.42-5.22,5.82-9.38,5.5-21.64-1.69-43.3-.38-64.94-.66-1.07-.01-2.14.51-3.21.79Z"/>
      <path class="cls-11" d="M291.19,882.86c-2.77,1.17-4.32,3.73-6.44,5.64-3.09,2.79-5.12,3.58-5.76-1.89-1.04-8.94-2.7-17.81-3.76-26.75-.87-7.3-2.79-14.35-5.62-20.99-2.33-5.47,1.23-7.9,4.32-9.56,3.6-1.94,5.17,2.04,6.44,4.69,5.71,11.91,8.58,25.1,16.33,36.09,1.51,2.14,1.04,4.11-.79,5.94-1.53,1.53-3.52,2.83-3.43,5.42-.43.47-.86.93-1.28,1.4Z"/>
      <path class="cls-13" d="M240.89,1002.93c5.87.33,11.27-.73,15.55-5.18-4.46,7.5-8.71,8.91-15.55,5.18Z"/>
      <path class="cls-13" d="M236.68,921.69c1.99,6.79,4.58,13.55,1.04,20.61,1.02-6.94-1.49-13.7-1.04-20.61Z"/>
      <path class="cls-16" d="M216.51,603.06c1.67-14.01,3.32-28.02,5.01-42.02,1.56-12.92-.6-25.67-2.91-38.2-3.16-17.17-3.93-34.63-7.27-51.74-.98-4.99,1.04-6.86,6.11-6.31,11.61,1.26,21.29-3.38,27.79-12.4,5.56-7.72,6.83-17.46,7.35-27.03.14-2.52-.76-5.22,1.44-8.41,1.98,6.48,2.24,12.4,2.55,18.4.58,11.4,9.24,23.48,20.05,27.07,5.11,1.7,9.51.84,13.95-1.63,5.71-3.17,11.39-6.42,17.22-9.37,2.47-1.25,2.4-3.55,3.09-5.52,3.94-11.14,2.58-22.76,2.96-34.23.04-1.33-.07-2.66-.03-3.99.06-1.94-.31-4.7,2.34-4.63,2.45.07,1.52,2.82,1.48,4.36-.23,8.9,1.49,17.57,2.43,26.35,1.06,9.91,8.06,14.39,15.17,18.62,2.63,1.57,5.99,3.17,9.14,3.59,6.92.92,7.31,5.13,6.29,10.43-4.86,25.3-9.43,50.66-14.75,75.87-3.72,17.62-1.52,35.32-2.25,52.97-.1,2.52,1.04,5.46-2.07,7.13-3.59,3.34-8.34,2.66-12.59,3.28-30.75,4.49-61.55,7.18-92.34.3-3.43-.77-6.78-1.91-10.17-2.88Z"/>
      <path class="cls-15" d="M813.15,544.76c4.16-2.64,7.01-1.46,8.8,2.98,3.2,7.94,6.52,15.84,9.62,23.82,1.2,3.1,2.31,6.24,4.49,8.76,3.7,4.28,4.4,8.3-.4,12.22-3.19,3.87-6.35,7.77-9.6,11.58-.96,1.13-1.98,2.83-3.64,2.42-1.99-.5-1.12-2.54-1.34-3.96-2.52-16.37-2.45-33.28-9.97-48.62-1.78-3.63.63-6.3,2.05-9.2Z"/>
      <path class="cls-2" d="M759.91,233.23c-2.8,7.14-5.61,14.28-8.42,21.43-2.42,1.04-2.53,4.02-4.32,5.55-.58-.31-1.22-.47-1.25-.69-1.58-13.84-1.36-27.62,2.18-41.17.62-2.39,1.64-5.69,5.18-4.81,3.36.84,1.41,3.83,1.1,5.62-1.04,5.95,2.4,9.9,5.52,14.08Z"/>
      <path class="cls-18" d="M797.03,90.66c-.34-4.47,2.68-5.95,6.2-6.02,10.29-.2,20.46-2.81,30.88-.86,8.05,1.5,11.59,4.71,12.09,12.88.23,3.71,0,7.39,1.22,11.08,1.45,4.35,2.69,1.75,4.15.26.56,3.04-.45,5.87-3.48,6.05-2.75.17-1.26-3.18-2.06-4.78-2.25-4.52-2.48-9.32-2.31-14.21.18-5.05-2.57-7.7-7.28-8.75-6.13-1.37-12.32-1.07-18.5-.71-4.41.25-8.82,1.13-13.2.95-3.69-.16-5.61,1.88-7.71,4.11Z"/>
      <path class="cls-7" d="M819.05,188.64c7.72,0,15.46.2,23.17-.11,2.63-.11,4.16.63,3.98,2.95-.45,5.9-.69,12.09-6.7,15.61-4.57,2.68-9.22,5.22-13.85,7.8-11.85,6.6-17.7,1.2-25.39-6.24-4.11-3.98-5-9.55-6.34-14.9-.99-3.95.53-4.67,3.89-4.62,7.08.1,14.17.03,21.25.03,0-.17,0-.34,0-.52Z"/>
      <path class="cls-12" d="M257.84,407.68c2.71,1.29,4.73,1.04,5.27-2.4,1.22-7.8,2.83-15.46-.97-23.24-2.35-4.81-3.83-10.36-5-15.39-3.36-14.33-7.72-29.02-1.95-43.91,3,4.01,1.77,8.48,1.13,12.75-.71,4.71-.46,9.11,2.11,14.13,1.77-4.29,1.43-8.01,1.67-11.66.54-8.08,3.99-11.85,12.03-11.93,6.88-.07,13.59-1.73,20.48-1.51,13.39.44,18.08,4.96,19.05,18.39.21,2.92-1.06,7.32,4.62,6.59,2.57,9.26.08,17.13-4.52,25.56-3.72,6.82-6.95,14.75-6.01,23.27.35,3.2.5,6.44,5.19,5.38.04,9.75-.15,19.51.18,29.24.39,11.38-6.81,17.07-15.12,22.87-19.93,13.92-37.01-4.88-37.83-23.55-.36-8.18-.22-16.39-.31-24.59Z"/>
      <path class="cls-8" d="M316.27,349.49c-1.77,1.18-.7,3.98-3.38,5.21-2.48-4.07-3.48-8.48-3.54-13.29-.15-11.13-2.93-13.88-14.09-14.79-9.13-.74-18.08,1.18-27.12,1.69-6.13.35-6.56,5.33-6.41,9.76.19,5.51-.77,10.73-2.16,17.25-3.93-5.01-5.48-9.56-5.28-14.73.23-5.96.59-11.91.89-17.86.49-.72,1.21-1.39,1.45-2.19,4.5-14.9,17.48-16.83,29.66-17.55,12.7-.75,23.3,6.33,29.98,16.7,4.6,7.14,2.29,16.33,1.27,24.66-.21,1.74-.83,3.43-1.26,5.14Z"/>
      <path class="cls-1" d="M200.52,688.91c4.6-13.7,4.13-28.18,6.24-42.26,1.54-10.27,4.69-20.18,5.88-30.49,1.7-4.57-.37-10.48,4.86-13.82.66-.07,1.34-.21,1.99-.04,35.12,9.33,70.29,6.04,105.47.38,1.97-.32,3.93-.7,5.94-.72,5.58.41,5.87,5.31,5.89,8.7.04,6.86,1.79,13.32,2.88,19.94.77,12.76,2.75,25.4,3.79,38.14.54,6.64.73,13.34.06,19.93-2.22,21.91-1.15,43.79.03,65.68.26,4.88.04,9.75.16,14.63.09,3.57-1.55,4.96-5.15,5.37-13.02,1.45-26.06,1.39-39.12,1.31-8.79-.05-18.24,1.88-23.98-7.62-2.96,2.22-3.29,6.19-5.84,8.67-2.38,2.4-5.43,2.71-8.56,2.91-14.88.93-29.62-.8-44.22-3.11-6.63-1.05-12.91-4-19.91-3.69-3.09.14-3.56-2.52-3.69-5.21-.23-4.91,1-9.64,1.41-14.47,1.63-18.81,2.71-37.67,5.21-56.39.35-2.6-.55-5.31.66-7.83Z"/>
    </g>
  </g>
</svg>