<?xml version="1.0" encoding="UTF-8"?>
<svg id="Layer_1" xmlns="http://www.w3.org/2000/svg" viewBox="0 0 1029.03 1000.93">
  <defs>
    <style>
      .cls-1 {
        fill: #fefefe;
      }

      .cls-2 {
        fill: #e3ae87;
      }

      .cls-3 {
        fill: #f9caa3;
      }

      .cls-4 {
        fill: #356e9d;
      }

      .cls-5 {
        fill: #8c1d1c;
      }

      .cls-6 {
        fill: #2375ba;
      }

      .cls-7 {
        fill: #2a2a2a;
      }

      .cls-8 {
        fill: #d84140;
      }
    </style>
  </defs>
  <path class="cls-3" d="M749.98,544c-5.56,5.33-12.23,2.64-18.22,1.85-9.58-1.26-19.12-.87-28.67-.96-15.58-.14-31.17.02-46.75-.03-12.47-.04-18.65-4.57-20.9-16.83-1.78-9.67-5.71-18.6-8.08-28.04-2.61-10.41-4.7-20.91-7-31.38-4.24-19.35-8.65-38.66-12.97-57.99-.13-.58-.23-1.18-.22-1.77.34-20.13-.68-40.24,1.13-60.39,1.67-18.58,5.55-36.99,4.78-55.77-.11-2.79-.4-5.56-.6-8.34.18-2.97.64-5.96.48-8.92-1.9-36.21-3.89-72.42-5.86-108.62,1.81-5.39,3.99-10.68,4.47-16.42.3-3.63,2.18-6.9,2.7-10.32,1.09-7.27,6.02-12.93,7.4-19.97.35-1.8,2.34-4.1-.12-5.25-1.83-.85-3.8.96-4.98,2.56-3.66,4.97-8.5,6.98-14.55,6.34.11-14.14.99-28.15,6.43-41.47.9-2.2,1.5-4.52,2.24-6.79,7.71-12.16,19.23-19.44,31.75-25.87,12.16-6.25,25.97-6.66,38.38-11.95,3.13-1.33,7.11-.71,10.66.22,2.42,3.17,5.83,4.39,9.63,4.8l.07.33c.37,1.68,1.66,1.32,2.81,1.29,8.69,6.16,14.77,13.99,17.64,24.55,1.33,4.9,1.77,10.66,6.59,14.11.46.84.93,1.67,1.39,2.51-.93,2.22.78,3.76,1.53,5.49,2.5,5.72,4.27,11.66,4.82,17.84,2.13,23.99-3.16,46.32-15.52,66.98-2.4-.08-2.57,2.1-3.58,3.47-5.58,7.63-10.66,15.77-19.26,20.52-5.52,3.05-7.34,7.89-6.11,13.58,1.75,8.13.76,16.27.76,24.39,0,3.46-2.05,6.92-.05,10.43.27,2.37,1.03,4.8.73,7.09-2.15,16.51-4.93,32.76-12.06,48.19-4.44,9.6-8.37,19.69-7.86,30.95.97,21.55-1.35,42.88-5.63,64.03-4.01,19.79-4.9,39.99-7.68,59.94-1.36,9.72-.35,19.46-1.95,29.17-1.87,11.39,1.84,14.55,13.5,15.64,7.3.69,14.76.23,21.93,2.22,4.5,1.25,8.54,5.35,13.51,3.47,9.16-3.47,15.62-10.7,22.39-17.38.36-.36.37-1.12.44-1.71,1.2-9.25,3.16-18.49,3.44-27.77.83-27.27,3.9-54.39,4.85-81.63.69-19.86,4.92-39.01,10.12-58.02,5.07-18.53,4.52-37.33,4-56.3-.19-6.99-1.97-14.12-.22-21.17,5.58.96,10.9-.58,15.27-3.49,19.23-12.77,34.6-29.36,47.14-48.71,2.23-3.44,5.05-8.19,10.13-2.62,1.22,1.33,2.59.02,3.86-.36.87,3.61-1.28,6.86-3.12,8.84-5.96,6.44-6.2,14.62-7.66,22.25-3.55,18.51-6.96,37.1-9.09,55.82-1.04,9.13-3.11,18.08-2.39,27.71,1.89,25.17-1.44,50.05-8.77,74.31-5.4,17.87-10.1,35.98-16.26,53.59-3.46,9.89-6.04,20.08-10.26,29.75-2.34,5.35-2.78,11.44-4.87,17.04-1.37,3.69.15,7.52,2.79,10.52,7.97,9.1,15.13,18.89,28.56,21.29,4.76.85,9.78,4.44,11.84,10.01-4.4-.22-5.82,1.07-2.56,4.9.6.7.85,1.7,1.26,2.55-7.15,7.57-17.2,8.09-26.97,1.34-1.62-1.12-3.09-2.46-4.63-3.7-1.56-1.25-3.25-2.87-5.25-2.31-2.62.72-1.54,3.34-1.58,5.14-.07,2.52-1.68,3.9-3.16,5.49-.93,1-2.17,2.05-2.43,3.27-1.53,7-3.23,8.19-10.09,6.55,2.37-6.62-3.85-6.76-6.99-8.56-6.21-3.54-13.59-3.89-20.41-5.56-6.33-1.55-13.54-2.08-21.21,2.07,3.47.9,5.67,1.86,7.91,1.97,4.18.2,8.32.11,12.17,2.21,3.64,1.99,7.62,3.06,11.58,4.31,4.47,1.42,9.43.8,13.51,3.49ZM617.85,215.69c-.59,13.75,7.14,21.74,15.37,29.44.91.86,2.15,1.34,3.18.24,1.02-1.08.22-2.13-.34-3.23-6.13-11.97-10.41-24.49-11.01-38.06-.05-1.14.27-2.7-1.29-2.94-1.36-.21-1.8,1.25-2.52,2.18-3.17,4.05-3.67,8.71-3.39,12.36ZM725.84,512.63c-1.21,0-2-.02-2.8,0-1.97.05-4.18-.28-5.07,2.12-.8,2.15,1.26,3.07,2.18,4.51,2.06,3.22,5.59,2.55,8.53,3.4,1.82.53,4.16,1.5,5.15-1.03.8-2.03.57-4.22-1.02-6.15-1.98-2.4-4.41-3.25-6.98-2.85ZM747.07,518.54c-2.84-.6-4.57,2.82-7.55,2.47-.95-.11-2.04.02-2.43,1.19-.5,1.49.59,2.21,1.63,2.74,4.17,2.11,8.37,4.18,12.58,6.2,1.3.62,2.3,0,2.92-1.19,1.56-2.99-3.65-11.5-7.15-11.41ZM798.15,531.65c2.47-.42,3.55-1.59,3.1-3.78-.7-3.48-9.93-12.32-13.43-12.78-1.26-.17-3-.79-3.62.95-.51,1.42.9,2.03,1.92,2.57,1.57.84,1.71,2.56,2.58,3.79,2.62,3.68,5.68,7.03,9.45,9.25Z"/>
  <path class="cls-7" d="M328.51,904.58c-17.61-3.41-35.55-2.16-53.32-.99-4.39.51-8.67,1.64-13.11,2.13-3.95.49-8.09.27-11.89.82-2.84.28-6.53,1.42-8.91-.25-1.62-1.25-2.25-4.05-2.46-6.25-.38-3.46-1.07-6.87-1.81-10.27-2.87-12.67-7.06-24.81-9.77-37.53-1.08-5.78-4.14-11.28-3.14-17.23.82-4.84,3.45-9.12,6.17-13.13,3.54-4.89,6.81-10.11,10.18-15.17,6.04-8.91,12.2-17.88,19.14-26.09,8.47-9.71,15.22-15.58,28.42-17.34,5.68-.62,11.27-1.47,16.88-2.51,4.13-.53,8.44-.67,12.46-1.07,11.57-1.73,23.48-2.23,35.08-3.44,3.18-.44,6.31-1.14,9.49-1.57,4.98-.57,9.9-.64,14.84-1.34,5.37-.76,10.83-1.9,16.19-2.77,6.49-1.47,13.21-2.48,19.75-3.93,10.85-2.7,21.42-4.9,32.26-7.43,5.42-.85,10.52-2.56,15.95-3.13,7.18-.3,14.44-.16,21.64-.12,8.25.58,15.77,4.12,23.93,5.49,6.17.97,12.57.14,18.69,1.49,3.81.73,7.6,1.46,11.25,2.49,6.24,1.54,12.11,4.58,18.08,6.97,7.52,2.98,15.69,3.35,22.21,8.03,2.49,1.8,6.48,6.28,2.93,8.12-1.86.85-5.3.53-8.04,1.33-2.95.76-5.48,2.6-7.86,4.5-44.23,34.99-58.05,73.09-38.25,126.69,1.12,3.05,2.82,6.8,1.81,9.9-1.28,3.39-5.83,3.65-8.97,4.34"/>
  <path class="cls-7" d="M475.63,152.55c1.04-.24,2.08-.48,3.12-.72,1.84.57,3.12-.29,4.17-1.69,2.6-.27,5.19-.54,7.78-.8,2.17.59,4.04.2,5.45-1.69,1.92-.54,3.84-.49,5.76-.03,1.87,1.84,4.11,2.19,6.58,1.62,3.41.33,6.83.66,10.24.99.5,1.56,2.05,1.87,3.23,2.37,3.12,1.32,2.53,3.13.19,4.01-5.05,1.89-8.2,6.76-12.71,8.66-9.38,3.95-11.54,11.59-12.5,20.06-1.42,12.47-2.39,25-3.37,37.51-.91,11.56,1.03,22.49,6.21,33.09,3.47,7.1,8.21,14.53,3.51,23.19-.49.91.34,2.69.85,3.95,3.12,7.67,9.99,12.13,15.36,17.9,4.39,4.73,11.39,6.88,13.56,13.76-8.41,6.38-17.68,11.32-27.07,16.05-2.02-.43-3.54.14-4.33,2.17-1.78.83-3.56,1.66-5.33,2.48-1.09-.61-1.64-.08-1.95.94-2.12.96-4.24,1.92-6.35,2.87-2.18-.15-4.29-.11-5.57,2.13-1.33.51-2.66,1.03-3.98,1.54-4.87,1.09-9.82,1.97-13.82,5.34-.98.24-1.97.49-2.94.73-4.91.93-9.8,1.92-13.85,5.16-1.52.5-3.03,1-4.54,1.49-1.09-.4-1.62.09-1.77,1.15-7.33,3.32-14.66,6.65-21.99,9.97-1.15-.63-1.82-.32-1.95,1.02-3.44,1.96-6.87,3.92-10.3,5.88-1.12-.33-1.63.19-1.73,1.26-2.63,1.58-5.25,3.16-7.88,4.73-1.11-.29-1.64.2-1.71,1.3-2.24,1.56-4.48,3.12-6.72,4.67-1.11-.24-1.64.25-1.68,1.35-1.36.84-2.72,1.68-4.07,2.52-1.37-.47-2.74-.93-4.12-1.39-1.41-.85-2.82-1.7-4.22-2.54-.37-1.46-1.22-1.24-2.18-.6-9.58-6.41-19.43-12.47-28.63-19.38-4.68-3.52-8.64-2.98-13.22-.9-17.14,7.78-34.33,15.45-51.41,23.36-3.85,1.78-5.55.64-7.49-2.82-5.91-10.57-12.22-20.92-18.38-31.36-.03-1.88-1.18-3.11-2.49-4.24-.22-.55-.45-1.1-.67-1.65-.17-1.89-1.03-3.42-2.44-4.66.04-1.06-.3-1.91-1.27-2.44-6.57-12.5-7.45-25.54-3.81-39.05.14-.51-.19-1.14-.3-1.72.15-1.2.3-2.4.45-3.59,3.1-6.74,3.53-14.16,5.36-21.22.57-2.03,1.15-4.06,1.72-6.08,1.22-.47,1.48-1.29.86-2.42.46-1.62.91-3.23,1.37-4.85,1.12-.34,1.67-1,1.2-2.21,1.25-2.75,2.42-5.57,5.57-6.73,1.16.24,1.64-.28,1.59-1.41,1.41-.77,2.82-1.55,4.22-2.32,1.1.48,1.67,0,1.89-1.08,1.38-.82,2.77-1.64,4.14-2.46,1.01.51,1.58.05,1.91-.9.97-.51,1.95-1.02,2.92-1.52,1.07.43,1.61-.06,1.85-1.07.99-.44,1.99-.87,2.98-1.3,1.16.39,1.7-.1,1.77-1.26,1-.4,2-.81,2.99-1.21,1.18.49,1.77.07,1.82-1.19.92-.5,1.85-.99,2.77-1.49,1.09.64,1.8.4,2.04-.91,2.21-1.19,4.41-2.38,6.61-3.56,1.06.47,1.62.02,1.87-1.01.99-.46,1.97-.92,2.95-1.38,1.11.44,1.65-.04,1.82-1.13,7-3.62,13.99-7.25,20.98-10.87,1.12.38,1.64-.14,1.79-1.21,4.09-2.15,8.19-4.3,12.27-6.45,1.02.7,1.77.6,2.13-.71,7.79-4.44,15.58-8.87,23.37-13.31,1.02.48,1.58.03,1.89-.93,1.71-.98,3.42-1.97,5.13-2.95,1.3.71,2.49.93,3.23-.76,2.94-1.72,5.87-3.44,8.8-5.16,1.07.58,1.76.3,2.02-.92,4.17-2.45,8.35-4.91,12.51-7.36,1.91.13,3.53-.29,4.21-2.37,2.62-1.58,5.24-3.15,7.86-4.73,1.17.4,1.77-.02,1.78-1.26,4.06-2.6,7.65-5.96,12.34-7.5,1.09.69,1.83.5,2.08-.86.91-.54,1.81-1.09,2.71-1.63,5.38,1.18,10.24-.55,15.02-2.75,5.81-.27,11.62-.54,17.42-.81,4.42.21,8.3-2.1,12.54-2.75Z"/>
  <path class="cls-3" d="M581.79,767.76c-.34-.91-.69-1.81-1.03-2.71.2-.04.46-.2.57-.12,9.27,5.98,9.39,6.1,17.93-2.69,7.38-7.6,15.25-14.77,23.78-20.85,5.79-4.13,12.2-7.87,19.05-10.65,14.56-5.92,28.58-12.87,40.2-23.85,10.72-10.13,24.1-13.56,38.29-14.09,9.74-.37,19.67-1.17,29.22,1.19,9.77,2.42,20.03,3.8,28.76,9.17,2.7,1.66,6.06.29,8.13,2.89-.59.34-1.18.68-1.77,1.01-1.37.52-1.51,1.24-.36,2.17,2.64,6.88,4.21,14.04,5.48,21.28,2.59,14.73,2.51,29.32-1.87,43.74-.99.49-1.1,1.36-.98,2.32.14,4.92-3.72,8.39-4.68,12.92-.21.63-.42,1.25-.64,1.88-2.15,2.63-4.3,5.26-6.45,7.88-.86.94-1.73,1.88-2.59,2.83l.05-.17c-.41.41-.82.83-1.23,1.24l.17-.04c-2.72,2.31-5.44,4.61-8.16,6.92-2.5.19-4.45,1.54-6.4,2.98-8.33,6.14-17.74,10.39-27.22,14.16-6.14,2.44-12.5,4.68-18.93,6.44-2.35.64-5.78,3.86-7.21.35-1.13-2.77,2.14-4.53,5.32-4.88,1.06-.12,1.96-1.32,3.02-1.85,3.64-1.82,2.95-3.86.19-5.72-3.47-2.34-7.36-4.1-10.58-6.72-4.18-3.39-6.77-1.77-9.22,1.88-3.86,5.76-9.86,9.11-14.97,13.48-6.06,5.18-13.76,4.59-20.64,6.85-12.21,4.01-24.5,7.68-37.28,9.47-3.3.46-6.37,1.68-4.71,6.35.58,1.62.25,3.55.45,5.33,1.39,12.42,1.7,24.92,3.49,37.32,1.54,10.67,4.56,20.91,8.12,30.96,1.82,5.15,1.71,11.81,8.18,14.49.9,3.66,1.77,7.31,2.88,10.93,1.82,5.95,5.38,7.43,11.18,7.18,9.99-.43,20.01-.39,30-.06,6.25.2,12.78-1.76,18.73,1.97,1.35.85,2.88-.15,3.63-1.34,3.14-5.01,7.45-8.78,12.21-12.14,2.45-1.73,2.58-4.38,2.33-7.03-.39-4.06,0-7.62,4.64-9.16,1.1-.36,1.15-1.51.95-2.56.82-1.6,2.4-2.06,3.94-2.44,12.19-2.99,24.4-5.94,36.6-8.89,1.88,3.57,1.62,6.84.21,10.79-2.11,5.94-2.98,12.34-4.23,18.57-.49,2.42-.04,4.63,1.91,6.57,4.72,4.69,9.66,8.89,16.34,10.59,2.51.64,4.85,1.79,5.94,4.45-2.5.77-4.2-2.11-6.8-1.51-.4,2.53,1,4.43,2.72,5.49,3.92,2.43,6.04,6.2,8.18,9.92,1.79,3.12,4.03,4.73,7.67,4.34,1.37-.14,2.82-.1,3.65,1.38-3.29,1.78-7.13,1.47-10.59,3.17-2.77,1.36-6.51.43-8.9-2.01-4.11-4.21-9.59-6.36-14.13-9.95-4.83-3.81-6.42-2.99-8.36,2.81-.25.76-.72,1.53-.7,2.28.44,11.78-7.86,13.41-16.64,14.08-6.25.48-12.54.33-18.82.46,2.35-2.32,3.76-4.18-.94-5.65-2.96-.92-5.49-3.15-8.39-4.37-11.94-5.04-24.18-6.08-36.81-2,14.57,3.02,29.79,3.47,42.67,12.06-9.73,4.28-19.68.83-29.4.29-14.1-.79-28.08-3.08-42.24-.7-10.93,1.84-17.59-1.86-23.88-11.49-12.45-19.08-25.95-37.43-39.63-55.64-1.14-1.52-2.59-2.39-4.56-2.5-2.23-.12-4.38-.55-5.58-2.8,5.83-.55,6.26-1.42,2.87-6.16-4.75-6.65-10.23-12.89-14.22-19.96-8.42-14.92-15.59-30.42-20.74-46.91-6.11-19.56-1.48-37.41,14.38-50.54,9.22-7.63,19.54-13.88,28.21-22.2,2.15-2.07,5.43-3.91,6.06-6.4.92-3.62-4.63-3.17-5.84-6.04ZM742.68,986.6c.37-.15.91-.19,1.08-.47,1.96-3.2-.28-11.1-3.66-13.08-3.39-1.99-14.93-.73-16.2,1.89-.39.8-.04,1.95-.02,2.94-5.29-.62-10.57-1.33-15.86-1.82-2.01-.19-4.97-1.51-5.71,1.3-.78,2.98,2.48,3.02,4.39,3.73,1.67.62,3.42,1.17,5.18,1.34,6.86.66,13.08,2.74,18.68,6.92,2.84,2.12,6.08,3.89,9.39,5.13,2.23.83,5.6,1.78,7.02-.9,1.27-2.39-1.77-3.49-3.32-4.91-.52-.48-.66-1.37-.97-2.07ZM658.19,762.95c3.95-1.82,4.06-4.67,4.11-7.79.12-8.65,1.99-16.93,5.64-24.82,1.37-2.95,4.72-6.44,1.87-9.2-2.06-2-4.55,2.19-7.13,2.99-3.32,1.02-7.27,2.38-7.31,6.13-.13,10.84-2.08,21.93,2.82,32.69ZM740.17,949.36c-2.39,0-4.79-.03-7.18.01-1.15.02-2.7-.22-2.86,1.36-.14,1.34,1.17,2.04,2.3,2.4,3.97,1.26,8.01,2.15,12.22,2.23,4.91.09,8.3,2.56,9.88,7.16.96,2.79,1.31,5.79,2.19,8.62.53,1.69,1.48,3.62,3.75,3.02,2.1-.56,1.58-2.67,1.34-4.08-2.06-12.17-4.61-21.92-21.64-20.73Z"/>
  <path class="cls-3" d="M804.1,710.55c8.44-1.79,16.4.31,24.28,3.02.92,1.25,1.62,2.83,2.82,3.71,5.56,4.1,11.41,7.81,16.85,12.04,3.68,2.86,8.73,4.52,9.93,9.91-2.15,3.5-1.79,6.41,2.01,8.5.9,1.3,1.79,2.59,2.69,3.89-.03,2.38.58,4.29,3.37,4.6,2.9,2.88,5.8,5.76,8.7,8.65.17,1.64,1.13,2.15,2.65,1.89.46,0,.77.21.94.64-.08,2.43,4.9,1.68,3.16,5.37-3.51,7.45-3.49,15.51-3.01,23.45.45,7.38-.81,13.78-6.6,18.87-1.16,1.02-1.9,2.57-2.62,3.98-.3.59-.27,1.62.06,2.18.51.86,1.37.4,2.06-.04,4.65-3.01,9.39-5.89,13.91-9.09,2.67-1.89,3.76-4.08,3.05-8.09-2.58-14.58-3.89-29.24,8.1-41.08,7.79-1.8,10.3-.66,13.37,6.08-.36,1.22-.18,2.22,1.12,2.76.84,1.56.85,3.15.12,4.75-3.3,3.88-4.04,8.7-4.92,13.46-.28,1.95-1.02,3.59-2.92,4.48-3.03,1.11-2.7,3.55-.98,4.9,2.24,1.77,5.21,2.52,7.38-.69.82-.08,1.64-.17,2.46-.25,4.39.73,7.38-1.25,9.52-4.9.08-.38.31-.54.69-.49,1.16.31,2.2.23,2.86-.95.82-.02,1.63-.04,2.45-.06,6.47,2.38,12.35.56,18.05-2.53,10.74-1.15,21.6-3.08,31.1,4.45.44,1.74,1.62,1.86,3.07,1.38,1.38.18,2.22,1.09,2.95,2.16.38,1.7,1.52,1.91,2.97,1.53.38-.02.6.16.66.54.11,1.7,1.08,2.27,2.66,2.04,1.9,1.32,3.8,2.64,5.7,3.95.23,1.79,1.26,2.3,2.91,1.79.96.18,1.93.34,1.84,1.67.17,7.05-4.33,12.12-7.61,17.67-3.82,6.47-7.49,12.64-15.3,15.92-5.14,2.15-7.02,8.76-9.78,13.75-1.73,3.12-3,6.51-4.84,9.56-2.01,3.34-4.76,5.65-8.89,3.06-2.19-1.37-4.45-.98-6.26.09-8.29,4.89-18.3,5.85-25.67,13.34-6.4,6.5-15.69,3.83-21.71-3.37-4.91-5.87-8.38-12.59-12.19-19.03-3.87-6.54-7.92-11.53-16.15-11.2.47-2.22,4.15-.35,4.18-3.31-17.79-6.24-35.84-2.29-53.83-2.36,1.86,1.68,3.81,2.6,5.83,2.82,5.06.56,10.15.81,15.02,2.48-9.05,7.66-14.73,18.05-21.82,27.28-3.43,4.46-6.95,8.62-11.56,11.81-7.21,2.34-14.66,1.76-21.97,1.15-6.5-.54-11.26-5.36-11.93-11.62-1.08-9.97-.86-19.89,2.41-29.59,4.99-14.82,13.66-27.85,20.15-41.94,8.76-19.01,14.16-38.31,11.74-59.57-1.35-11.88-3.93-23.55-5.2-35.42Z"/>
  <path class="cls-3" d="M932.37,116.58c-1.42,11.23-9.52,18.99-14.72,28.26-13.41,4.3-15.41,17.82-22.15,27.5-1.7,2.44-3.24,4.43-6.59,4.2-12.74-.91-23.26,4.6-32.82,12.1-6.39,5.01-14.15,5.65-19.97.04-2.72-2.61-4.99-2.71-7.92-1.16-1.64-3.34,3.88-5.69.66-9.88-5.16-6.72-9.09-14.37-13.76-21.49-1.87-2.85-4.52-4.31-8.23-2.67-3.32,1.47-6.94,1.44-10.55,1.54-6.73.18-13.13,2.87-19.92,3.02-1.23.03-3.71.26-3.25,2.56.42,2.13,2.66,1.7,4.02,1.41,5.78-1.23,10.76,2.13,16.23,2.61,2.84.25,2.36,2.36,1.32,3.98-9.57,15-18.39,30.51-37.03,36.7-11.57,3.84-15.06,2.25-16.22-10.03-.15-1.58.1-3.2-.08-4.78-.7-6.39,2.26-12.57,1.03-18.98.05-1.15.09-2.31.14-3.46,4.94-14.73,5.57-30.16,7.12-45.41,1.74-17.2-5.63-32.47-11.14-48.14-3.14-8.94-7.62-17.43-9.24-26.89,6.47-2.04,10.4,3.78,15.82,5.26,13.13,3.57,25.58,9.46,39.32,11.07,4.88.57,9.63,2.22,14.44,3.37,2.78,4.8,7.21,5.49,12.16,4.91.82.17,1.64.35,2.47.52.48,2.73,5.85,2.77,4.09,6.38-4.35,8.93-2.38,18.36-2.82,27.6-.12,2.59.25,5.25-1.32,7.55-4.58,6.71-7.01,14.87-13.62,20.24-1.07.87-2.41,2.15-1.54,3.54,1.31,2.1,2.77,0,4.09-.44,1.11-.36,2.19-1.04,3.08-1.8,7.41-6.36,11.83-14.95,16.98-22.98,1.01-1.58,1.08-3.63.22-5.21-3.4-6.24-2.7-13.16-1.58-19.36.99-5.51-.36-12.7,6.42-16.27,4.18-2.2,8.69-.39,12.94-1.35,1.2.29,1.92,1.02,2.11,2.25.81,5.64,1.6,11.28-.66,16.79-.78,1.9-.9,3.82-.46,5.8-.99,2.6-2.39,4.9-4.69,6.56-2.13.91-1.96,2.38-.67,3.75,2.54,2.71,12.21.93,14.49-2.57,2.92-2.09,5.45-5.15,9.71-3.98,5.01,2.37,9.14-.06,13.28-2.45,3.16-1.01,6.39-.81,9.63-.54,5.56,1.66,11.12,1.67,16.68.02,4.38-.2,7.62,2.25,10.9,4.64,1.62,3.19,4.54,4.12,7.79,4.46.33-.07.53.06.6.39.08,1.72.99,2.42,2.68,2.19.96.1,1.72.49,2.13,1.42.11,1.87,1.15,2.44,2.87,2.05.37-.08.61.05.73.41-.23,3.42,3.48,2.87,4.78,4.74Z"/>
  <path class="cls-7" d="M878.44,767.17c-3.36-2.28-6.74-4.91-9.54-8-1.91-1.6-2.98-3.7-4.27-5.74-3.94-3.78-8.71-10.41-4.33-15.46,4.59-5,11.1-7.84,15.77-12.72,1.8-1.88,2.93-4.33,4.75-6.19,2.94-2.94,5.77-6.01,8.81-8.83,2.69-1.61,4.06-3.27,6.46-4.95,2.78-1.16,4.75-2.95,7.44-4.26,1.34-.61,2.83-.66,4.04-1.22,2.87-2.02,5.97-3.67,9.41-4.61,2.34-.68,4.81-1.06,6.93-2.3.97-.54,1.95-1.13,3.01-1.48,3.21-.84,6.84-.8,10.01.18,1.16.47,2.22,1.18,3.45,1.45,3.48.51,7.07.45,10.34,1.94,1.16.46,2.32.96,3.53,1.26,2.33.63,5,.31,7.08,1.34,1.06.48,2,1.24,3.13,1.58.96.29,2,.32,3.01.41,2.03.08,3.68,1.13,5.53,1.82,2.72.79,5.5,1.66,7.91,3.16,5.9,3.52,10.93,8.57,14.8,14.25,1.13,1.22,2.66,2.05,3.84,3.3,1.95,2.13,3.1,4.44,5.14,6.47,2.62,4.13,5.72,7.98,8.23,12.22,1.99,2.66,3.3,5.92,5.22,8.49,4.44,5.19,9.62,10.86,10.64,17.86.52,6.39.08,12.79.12,19.2.12,2.74-1.19,5.19-2.61,7.42-4.2,8.88-13.76,14.8-23.53,15.33-2.31.21-3.92-1.12-5.64-2.42-3.44-1.74-6.8-4.04-9.65-6.66-2-1.62-4.38-2.67-6.54-4.15-2.08-1.58-4.63-2.23-6.84-3.67-10.77-6.41-22.98-2.7-34.62-2.39-3.98.57-7.92,1.86-11.87,2.19-1.83.08-3.74-.33-5.33.78-2.81,1.55-5.93,3.27-8.81,4.95-2.7,1.26-5.9.82-8.71.2-1.38-.58-1.63-2.31-.92-3.49,1.78-2.55,2.99-5.47,4.8-8.04,1.62-2.58,2.43-5.5,2.51-8.59.53-3.92.38-7.62-2.3-10.69-2.25-3.98-4.8-5.51-9.96-4.64-1.76.22-3.9.29-5.42.75-4.57,1.99-9.61,6.43-14.85,4.02l-.15-.08Z"/>
  <path class="cls-7" d="M813.52,72.73c-.82-.17-1.64-.35-2.47-.52-2.46-3.62-8.64-1.04-10.22-6.13,5.39-4.73,8-11.17,10.96-17.45,5.61-11.91,13.19-21.75,25.09-28.6,9.81-5.65,18.68-12.94,29.16-17.58,3.92-1.73,8.08-2.9,12.22-2.28,10.45,1.56,20.74,4.27,30.4,8.42,14.52,6.24,23.5,18.76,32.46,31.07,5.38,7.4,10.61,14.91,16.25,22.1,4.01,5.1,6.43,10.46,5.97,17.05-.44,6.31,1.28,12.79-1.34,18.94-5.16,12.07-15.19,16.76-27.46,18.04-1.9-2.05-4.44-2.99-6.96-3.95-.12-.36-.36-.5-.73-.41-.58-1.21-1.46-2.01-2.87-2.05-.41-.93-1.17-1.32-2.13-1.42-.45-1.27-1.23-2.13-2.68-2.19-.07-.33-.27-.46-.6-.39-1.61-3.2-4.97-3.36-7.79-4.46-3.27-2.39-6.52-4.84-10.89-4.64-5.56-2.35-11.12-1.41-16.69-.02-3.23-.27-6.46-.47-9.63.54-4.81-1.27-9.03.65-13.28,2.45-4.26-1.17-6.79,1.89-9.71,3.98-4.72.88-9.71,4.94-13.82-1.19,2.3-1.66,3.71-3.96,4.69-6.57,2.88-3.21,3.6-7.34,4.16-11.29.58-3.99,1.04-8.38-3.05-11.3-.19-1.23-.91-1.97-2.11-2.25-4.67-4.04-9.82-2.46-14.16-.1-4.24,2.29-8.23,3.13-12.78,2.2Z"/>
  <path class="cls-3" d="M228.39,855.22c.14.92.39,3.35.58,4.36-8.2-.22-14.83-2.87-22.68-5.06-15.1-4.2-30.51-7.18-45.47-11.98-13.36-4.28-27.13-7.27-40.24-12.34-2-.77-3.42-.22-5.09.34-.87-.79-1.63-2.02-2.63-2.29-8.37-2.2-16.74-4.43-25.21-6.19-3.2-.66-6.74-.44-9.4,2.24-1,.02-2.01.03-3.01.05-2.69-.81-5.39-1.61-8.08-2.42,0-.49.02-.98.02-1.47.06-.58.41-1.42.15-1.7-4.9-5.3-5.08-11.5-4.3-18.26.84-7.34,1.91-14.45,6.31-20.63,4.36-.49,8.81-.61,13.06-1.58,4.74-1.07,10.12.82,14.25-3.03,5.32,2.51,10.5-.22,15.75-.41,19.27-.68,37.63-7.71,56.97-7.91,10.82-.11,21.31,2.11,31.71,4.41,4.87,1.08,9.24,1.5,13.9.07,2.25-.69,4.56-1.71,6.73.25-.61.91-1.52,1.12-2.54,1.27-1.61.22-4.04-.78-4.36,1.81-.28,2.28,1.91,2.52,3.57,3.23,8.71,3.69,16.84,8.65,25.88,11.6,2.82.92,4.1,2.89,4.37,5.69-3.2,5.12-6.31,10.3-10.32,14.86-1.56,3.58-3.63,5.35-5.67,8.61-.94,1.53-1.88,3.07-2.82,4.6-.6,1.28-1.21,1.96-1.91,2.79-.25.29-.26.41-.35.78-.75,2.97-1.23,5.1-2.24,9.4-.04,1.73.01,3.47-.22,5.14.73,4.4,1.58,5.97,2.85,10.85.08.32.26,1.87.44,2.89Z"/>
  <path class="cls-3" d="M247.02,340.87c.97.53,1.31,1.38,1.27,2.44-2.02,3.03-.37,4.15,2.44,4.66.22.55.45,1.1.67,1.65-.87,1.71-.61,3.46-.21,5.21l.11-.13c-7.63,2.67-15.68,2.22-23.53,2.87-21.96,1.82-43.96,3.5-66.03,2.48-3.28-.15-5.14,3.16-8.35,2.56-.37-.67-.7-1.9-1.11-1.93-8.73-.58-17.59-1.98-25.64,3.08-2.14-.01-4.32-.29-6.41.03-3.86.58-8.17-1.82-11.59,1.69-5.99-.51-11.56,1.74-17.35,2.56-3.79-2.92-9.18-3.23-11.66-8.43-4.77-9.99-8-19.93-3.34-30.84,3.46-2.02,7.15-3.4,11-4.58,5.27-1.62,10.39-3.77,14.8-7.26,4.68-2,9.37-4,14.05-6,2.13-.25,4.22.11,6.37-1.01,10.51-5.5,21.22-10.63,31.72-16.14,10.85-5.69,21.56-11.79,33.93-13.42,7.39-.97,14.87-1.01,22.35-1.15,7.74-.14,15.3-1.45,22.9,1.27,2.52.9,5.63,1.23,8.1-.38,2.5-1.63,2.68.01,2.98,1.65.48,2.66-.53,5.1-1.28,7.57-.73,2.4-2.27,4.83.14,7.17-.15,1.2-.3,2.4-.45,3.59-5.11,8.89-5.97,18.52-3.01,28,1.39,4.45,1.86,10.15,7.11,12.76Z"/>
  <path class="cls-8" d="M67.19,820.46c0,.49-.02.98-.03,1.47-.4,3.66,2.52,4.12,4.9,4.83,1.8.53,3.12-.29,3.18-2.41,1-.02,2.01-.03,3.01-.05,10.25.76,10.3.76,10.21,10.68-.03,3.29.24,6.36-2.27,9.48-9.23,11.47-16.49,23.69-13.45,39.6,1.27,6.63,3.98,10.28,10.66,11.33,4.71.74,7.77,3.09,8.97,8.16.85,3.57.13,7.61,2.92,10.75.81.91.04,2.32-.85,3.22-3.76,3.82-1.34,4.36,2.27,4.36,1.59,0,3.18.16,4.77.24-23.87,8.88-48.02,13-72.77,3.65-10.7-4.04-16.06-12.95-18.81-23.29-4.75-17.84-4.33-35.91-1.26-54.03.9-5.28,1.02-10.59-1.63-15.78-7.36-14.39-7.95-30.12-6.22-45.53,1.47-13.05,8-21.1,22.49-22.02,6.63-.42,13.13.56,19.65,1.44.49,5,4.91,4.11,7.8,4.66,5.2.97,9.02,1.92,4.69,8.12-.81,1.17.34,2.23.71,3.32-.27,1.05-.99,1.64-1.98,1.96-2.53-3.77-3.96-.28-5.19,1.07-1.69,1.86-2.55,4.17.99,5.35-1.4,3.52-2.98,7.38-1.38,10.87,3.84,8.39,9.58,15.2,18.59,18.56ZM3.28,812.67c2.35-8.89,1.74-17.77-.03-26.64-1.56,8.89-1.76,17.77.03,26.64ZM6.88,781.33c.75-1.44,1.2-2.46,1.79-3.39.42-.66,1.1-1.16,1.5-1.83.81-1.33,3.08-3.39-.34-3.58-1.23-.07-2.78,3-3.94,4.79-.65,1-.55,2.29.98,4.02Z"/>
  <path class="cls-8" d="M62.59,330.12c-1,2.6-2.22,4.59-2.17,7.16.04,2.44-1.49,4.48-2.28,6.75-.8,2.49-1.1,5.45-.55,8.11,1.06,3.86,5.24,1.78,6.24,7.14,1.62,6.17,7.29,8.85,12.07,12.22.66.45,1.37.93,2.11,1.19,1.44.54,2.91-.08,4.34-.35,2.04-.44,4.25.76,6.35.71,1.94-.04,3.81-.74,5.74-.86,3.37-.41,4.97.64,4.47,3.91-1.25,8.48-2.5,17.08-9.12,23.57-2.09,2.12-4.68,3.98-5.85,6.76-1.25,2.55.14,5.56-.3,8.23-1.81,6.27-3.88,13.03-.25,19.17,1.85,3.52,5.7,4.56,9.05,6.16,4.44,2.21,8.72,6.46,10.52,10.84,5.38,11.76-8.12,17.26.73,18.69.2.04.59.11.79.15.71.18,2.14.39,2.18,1v.08c.02.33-.44.68-1.1,1.01-2.9,1.29-5.24,1.68-7.75,1.81-15.13.18-30.22,1.79-45.34.25-22.3-2.05-31.06-9.15-37.74-30.58-4.97-15.93-2.71-31.9,1.71-47.54.57-2.08,1.07-4.33,1-6.47-.18-5.66-3.04-10.64-4.12-16.13-3.33-15.21-2.04-30.76,2.51-45.45,2.3-8.93,10.4-14.81,19.54-14.74,3.35-.1,6.06,2.23,9.45,2.38.96.03,2.15-.07,2.83.28.77.34,1.16,1.11,1.63,1.78,1.13,1.86,4.44,2.4,6.84,2.84,1.7.28,5.12,1.69,5.97,3.26"/>
  <path class="cls-8" d="M742.56,168.04c-.05,1.15-.09,2.31-.14,3.46-4.2,7.94-2.85,16.54-2.91,24.95-.1,13.82,8.27,15.59,18.73,11.58,15.24-5.83,26.32-16.46,34-30.74.94-1.74,1.91-3.5,3.7-4.58,2.37-.29,2.03-1.91,1.72-3.51l.04-.17c2.43.2,2.67-1.12,2.08-3-.45-2.05.43-3.67,1.71-5.15q7.34-2.76,6.28,5.01c-.03.19.06.39.09.58-1.48,2.87-.99,6.58-3.75,8.91-2.22-.04-2.71,1.21-2.33,3.11.4,1.16.12,2.14-.83,2.92-1.72.35-1.83,1.59-1.64,2.99l.22.21-.12.28c-5.63,1.93-6.17,6.57-6.13,11.52l.06.36c-2.79.23-2.8,2.12-2.49,4.19-.39.64-.78,1.27-1.17,1.91-5.51,2.35-8.45,6.63-9.33,12.45,0,0,.07-.05.07-.05-.33.1-.65.2-.98.3.29.21.59.42.88.63,0,1.85-1.38,2.65-2.66,3.53-1.69-.06-2.61.66-2.47,2.45h0c-2.89-.02-3.8,1.57-3.42,4.21-.04,1.64-1.05,2.51-2.44,3.08-5.88-1.16-8.59,1.95-9.72,7.2v-.05c-3.67-.03-7.51-.36-8.4,4.66-7.46,3.66-15.46,4.97-23.67,5.5-9.49.62-19.05-.83-28.5.95-1.26,0-2.51-.01-3.77-.02-2.09-13.2-.84-26.47-.69-39.71.02-1.76,1.27-3.28,2.74-4.45,8.52-6.8,16.01-14.57,22.11-23.63,2.78-.69,4.99-2.58,5.06-5.2.16-6.34,4.9-10.63,6.75-16.29,2.33-7.14,3.99-14.35,5.35-21.61,1.55-8.28,2.65-16.54,1.66-25.24-1.09-9.52-1.61-18.78-8.68-26.12-.46-.84-.93-1.67-1.39-2.51-.31-3.79-2.14-7.08-3.39-10.57-3.22-8.98-4.23-19.02-12.71-25.42-2.13-1.61-3.34-3.88-3.05-6.72,4.24,1.16,8.48,2.32,12.72,3.47.8.52,1.59,1.04,2.38,1.55,6.29,15.59,13.48,30.81,18.61,46.91,4.51,14.17,6.24,28.34,3.6,42.97-1.56,8.62-1.78,17.44-4.18,25.94-.6,2.15-1.12,4.71.39,6.94Z"/>
  <path class="cls-8" d="M581.89,768.33c9.17,3.8,5.78,6.87-.07,11.72-7.88,7.39-16.93,13.28-25.44,19.88-19.03,13.51-24.58,35.34-16.19,56.87,5,14.91,11.63,29.03,19.32,42.65,1.54,2.73,3.24,5.33,5.08,7.87,3.07,4.28,6.46,8.39,9.48,12.67.84,1.31,2.67,3.79,1.39,4.94-2.69,1.83-6.99,1.11-9.76-.57-5.73-3.05-12.74-2.22-18.51-5.04-2.75-1.53-5.86-1.53-8.8-2.64-2.7-1.07-5.39-2.31-8.09-3.45-.75-.31-1.56-.76-2.03-1.35-.59-.73-.69-1.7-.79-2.62-.18-2.11-1.28-4.29-2.07-6.39-3.11-7.86-5.65-15.96-7.33-24.17-5.94-27.04-1.22-56.28,16.64-77.71,10.23-12.4,21.52-24.09,35.06-32.72,2.91-1.24,6.18.48,9.19.08.92-.1,1.87-.24,2.76-.04l.16.04Z"/>
  <path class="cls-5" d="M107.23,470.48c-1.53-.3-3.42-.73-4.92-1.04-2.77-.5-2.75-2.13-1.34-4.55,6.42-9.1-.09-20.49-9.26-24.96-2.07-1.08-4.22-1.66-6.09-3.05-6.32-5.1-5.1-14.15-2.76-20.93,1.01-2.75-.43-6,.33-8.69.9-3.26,3.79-5.33,6.07-7.67,6.36-6.3,7.71-14.59,8.95-22.83,1.52-7.84-6.6-3.5-10.73-3.92-5.46-1.64,5.81-5.43,7.45-5.65,3.43-.71,6.84-1.63,10.34-1.82,2.27-.2,4.22,1.01,5.84,2.54,11.1,10.6,26.93-2.68,24.68,9.62-3.01,9.73-11.27,16.62-17.67,24.2-3.11,3.59-5.47,7.78-7.85,11.8-1.99,3.54-4.15,7.08-5.27,11.02-.9,2.97.19,5.86,2.05,8.19,2.83,3.69,5.82,7.25,8.66,10.9,2.02,3.36,5.17,5.85,6.81,9.44,1.42,3.57,1.87,9.57-1.12,12.5-1.69,1.56-4.15,2.11-6.23,3.04-2.45,1.09-5.03,2.44-7.74,1.9l-.19-.03Z"/>
  <path class="cls-8" d="M533.07,314.73c-2.17-6.88-9.17-9.04-13.56-13.76-5.36-5.77-12.23-10.24-15.36-17.9-.51-1.26-1.34-3.05-.85-3.95,4.7-8.67-.03-16.09-3.51-23.19-5.19-10.6-7.12-21.53-6.21-33.09.98-12.52,1.95-25.04,3.37-37.51.96-8.47,3.12-16.11,12.5-20.06,4.5-1.89,7.65-6.76,12.71-8.66,2.34-.88,2.93-2.68-.19-4.01-1.19-.5-2.73-.82-3.23-2.37,7.37,3.25,12.78-.33,19.15-3.97,17.14-9.79,26.75-26.53,39.57-40.28,8.71-9.34,17.54-18.56,26.98-27.17,1.81-1.65,3.79-2.91,6.23-3.34-.74,2.26-1.34,4.59-2.24,6.79-5.43,13.32-6.32,27.33-6.43,41.47-.21,2.53-.59,5.06-.6,7.6-.01,12.12.35,24.2,5.69,35.46,1.97,36.21,3.96,72.41,5.86,108.62.16,2.96-.31,5.95-.48,8.92-20.82,7.78-41.66,15.53-62.46,23.39-5.72,2.16-11.3,4.66-16.95,7.01ZM507.43,279.02c-.16,4.71.74,8.33,4.16,9.68,4.01,1.58,6.78,4.47,9.06,7.53,3.69,4.94,8.45,8.12,13.63,11.05,1.7.96,3.39,1.88,4.98.74,7.01-5.01,16.23-4.51,23.25-9.51,2.81-2,6.45-1.24,9.84-2.9,5.5-2.7,10.97-6.42,17.24-7.31,4.58-.65,9.81,1.09,11.92-5.21.39-1.17,2.12-.73,3.27-.95,5.03-.94,7.34-5.12,4.98-9.68-1.21-2.35-1.48-4.02-.41-6.6,2.02-4.86,3.14-9.98-3.32-12.93-1.89-.86-1.05-2.77-1.36-4.24-1.08-4.99,3.03-8.99,2.48-13.95-1.24-11.28-.35-22.58-.11-33.87.03-1.39.32-3.08-.32-4.12-6.69-10.84-.36-23.86-6.43-35.22-3.06-5.73-1.73-13.73-2.33-20.61-.94-10.91-2.37-22.3,1.91-33.12.87-2.2.9-4.43.37-6.95-.64-3.09-1.61-6.79,2.07-9.23,1.04-.69,1.49-2,.55-3.13-.97-1.15-2.19-.74-3.17.07-3.5,2.87-7.95,5.65-10.06,8.94-5.84,9.14-12.83,17.3-20.6,24.43-6.9,6.33-11.42,14.52-19.61,20.11-9.31,6.36-18.76,12.57-28.13,18.87-6.23,4.19-12.05,8.98-18.08,13.47-1.23.92-1.64,2.1-1.87,3.56-1,6.47-2.01,12.91-2.64,19.46-.7,7.37-.17,14.78-1.23,22.04-1.62,11.14-.6,21.94,4.05,32.02,4.24,9.21,9.76,17.86,5.89,27.54Z"/>
  <path class="cls-5" d="M101.5,922.12c-1.59-.09-3.18-.24-4.77-.24-3.61,0-6.03-.54-2.27-4.36.88-.9,1.65-2.31.85-3.22-2.79-3.14-2.08-7.18-2.92-10.75-1.2-5.07-4.26-7.43-8.97-8.16-6.68-1.05-9.38-4.69-10.66-11.33-3.05-15.91,4.22-28.12,13.45-39.6,2.51-3.12,2.24-6.19,2.27-9.48.08-9.92.04-9.92-10.21-10.68,2.67-2.68,6.2-2.91,9.4-2.24,8.47,1.76,16.84,3.99,25.21,6.19,1.01.27,1.76,1.5,2.63,2.29-.12,1.76-.24,3.52-.36,5.28-.79.12-1.18.49-.82,1.33-.48.79-.95,1.59-1.42,2.37-.08.37-.17.74-.26,1.12-2.81,6.52-8.64,11.27-10.64,18.31-1.29,4.54-3.06,8.94-4.38,13.48-2.03,6.96,2.63,11.95,5.44,17.45.29,2.19,1.93,3.58,3.15,5.22,1.88,1.31,5.53,3.58,5.39,5.96,3.7,12.32.23,11.51,0,13.49-2.01,4.33-5.79,6.3-10.1,7.58Z"/>
  <path class="cls-2" d="M795.94,172.71c-1.79,1.08-2.76,2.84-3.7,4.58-7.69,14.29-18.76,24.91-34,30.74-10.46,4-18.83,2.24-18.73-11.58.06-8.42-1.28-17.01,2.91-24.95,1.23,6.41-1.74,12.59-1.03,18.98.17,1.58-.07,3.2.08,4.78,1.16,12.28,4.65,13.87,16.22,10.03,18.64-6.18,27.46-21.7,37.03-36.7,1.04-1.63,1.51-3.73-1.32-3.98-5.47-.48-10.44-3.84-16.23-2.61-1.36.29-3.6.72-4.02-1.41-.46-2.3,2.02-2.54,3.25-2.56,6.79-.15,13.19-2.84,19.92-3.02,3.61-.1,7.24-.07,10.55-1.54,3.71-1.64,6.36-.19,8.23,2.67,4.67,7.11,8.59,14.77,13.76,21.49,3.22,4.19-2.3,6.54-.66,9.88-.04.73-.08,1.46-.12,2.19-1.27.38-2.64,1.69-3.86.36-5.08-5.57-7.9-.82-10.13,2.62-12.54,19.35-27.91,35.94-47.14,48.71-4.38,2.91-9.7,4.45-15.28,3.49-.85-.98-1.81-1.49-3.14-.95-16.09,6.46-32.87,3.99-49.48,3.82,9.45-1.78,19.01-.33,28.5-.95,8.21-.54,16.2-1.84,23.67-5.5,3.25-.75,6.29-1.87,8.41-4.66,0,0-.01.05-.01.05,3.99-1.39,7.19-3.85,9.72-7.2,1.39-.57,2.4-1.44,2.44-3.08,2.01-.69,3.55-1.76,3.42-4.2,0,0,0,0,0,0,1.51-.13,2.21-1.07,2.47-2.45,1.27-.89,2.67-1.68,2.65-3.53.3-.28.33-.59.1-.93,0,0-.07.05-.07.05,4.64-3,7.06-7.67,9.33-12.44.39-.64.78-1.27,1.17-1.91,1.63-.92,2.65-2.21,2.49-4.19,0,0-.06-.36-.06-.36,3.18-3.24,5.97-6.68,6.14-11.52l.12-.28s-.22-.21-.22-.22c1.26-.61,1.62-1.7,1.64-2.99.95-.78,1.23-1.75.83-2.92,1.68-.36,2.48-1.38,2.33-3.11,2.76-2.33,2.28-6.03,3.75-8.91,3.03-1.35,3.15-4.82,5.04-7.06,1.25-1.48-.16-3.26-1.89-3.43-4.11-.41-8.61-1.1-9.52,4.9-1.28,1.48-2.16,3.09-1.7,5.15-1.4.51-2.18,1.45-2.09,3,0,0-.04.17-.03.17-1.59.67-1.56,2.14-1.72,3.51Z"/>
  <path class="cls-8" d="M804.1,710.55c1.27,11.87,3.85,23.53,5.2,35.42,2.42,21.26-2.98,40.56-11.74,59.57-6.5,14.09-15.16,27.12-20.15,41.94-3.26,9.7-3.48,19.62-2.41,29.59.68,6.26,5.43,11.08,11.93,11.62,7.31.61,14.76,1.2,21.97-1.15-4.08,8.92-12.58,12.86-20.32,17.27-8.39,4.78-17.43,8.41-26.19,12.54-12.21,2.95-24.41,5.9-36.6,8.89-1.54.38-3.12.83-3.93,2.44-4.3.92-8.29,2.62-12.31,4.39-7.8,3.44-15.55,6.88-24.29,7.77-16.19,1.65-32.18-.42-48.23-1.69-1.08-2.38-4.49-3.18-4.35-6.39,8.83,5.34,18.55,5.58,28.57,6.15,13.07.74,26.04,2.49,37.57-5.35,4.73-3.22,10.83-1.99,14.89-4.93,10.46-7.59,23.26-8.04,34.68-12.6,11.54-4.61,24.26-6.06,35.26-12.44,4.84-2.81,10.48-4.48,14.34-10.63-3.9,0-7.05.34-10.1-.07-5.81-.78-11.97-3.41-14.32-8.06-2.72-5.36-3.25-12.4-2.91-18.61.56-10.39.54-21.36,7.35-30.15,3.69-4.76,3.2-11.15,6.81-15.47,4.58-5.48,7.44-11.88,10.06-18.17,4.64-11.1,9.17-22.4,10.89-34.47,1.13-7.94,1.75-16.18.04-23.84-1.99-8.91-2.51-17.95-4.04-26.87-.77-4.46-2.84-4.33-5.99-4.42-3.29-.09-5.55.51-5.1,4.53.58,5.13.48,10.41,1.72,15.37,4.05,16.21,1.6,32.06-2.17,47.8-.92,3.85-2.63,8.14-7.7,8.96.96-4.52,4.82-7.99,4.68-12.92,1.26-.38,2.25-.87.98-2.32,4.38-14.42,4.46-29.01,1.87-43.74-1.27-7.24-2.84-14.39-5.48-21.27.83-.61.98-1.33.35-2.18.59-.34,1.19-.68,1.77-1.01,5.64,2.09,12.15.84,17.39,4.5Z"/>
  <path class="cls-2" d="M243.36,296.51c-2.41-2.34-.87-4.77-.14-7.17.75-2.47,1.77-4.92,1.28-7.57-.3-1.64-.48-3.28-2.98-1.65-2.47,1.61-5.59,1.28-8.1.38-7.6-2.73-15.16-1.41-22.9-1.27-7.48.13-14.96.17-22.35,1.15-12.38,1.63-23.08,7.73-33.93,13.42-10.51,5.51-21.21,10.64-31.72,16.14-2.15,1.12-4.24.76-6.37,1.01-.24-1.96.36-3.4,2.2-4.42,15.5-8.57,30.31-18.47,47.2-24.32,1.15-.04,1.96-.55,2.3-1.7,4.38-1.46,8.75-2.92,13.13-4.38.94.06,1.78-.11,2.27-1.04,1.2-.09,2.4-.18,3.6-.27,2.42-.04,4.99,1.05,7.17-.89.87-.05,1.73-.1,2.6-.16,9.05.44,18.1.88,27.14,1.32,5.49-1.37,10.54,1.19,15.76,1.98,3.47.52,6.47.66,9.19-1.77-1.83,7.07-2.26,14.49-5.36,21.23Z"/>
  <path class="cls-5" d="M52.48,319.53c-3.34-.57-3.84-2.07-3.79-4.69.34-.54.68-1.09,1.02-1.64,1.13-.17,1.45-.97,1.51-1.96,5.05-8.09,10.13-10.01,20.78-6.56,8.02,2.6,16.33,4.28,24.08,7.79,2.47,1.12,4.51,2.3,6.02,4.47-4.41,3.49-9.53,5.64-14.81,7.26-3.85,1.18-7.53,2.56-10.99,4.58-6.65-.5-12.1,1.62-15.93,7.28"/>
  <path class="cls-5" d="M56.16,782.65c-.37-1.09-1.53-2.16-.71-3.32,4.33-6.2.51-7.15-4.69-8.12-2.89-.54-7.31.34-7.8-4.66,7.83-7.52,17.19-7.64,26.45-4.24,9.42,3.47,18.84,7.23,27.25,12.94-4.13,3.85-9.51,1.95-14.25,3.03-4.25.96-8.7,1.08-13.06,1.58-5.11-2.44-9.2-.1-13.19,2.78Z"/>
  <path class="cls-2" d="M249.7,794.68c-1.92-.33-3.26-2.64-6-4-5.23-2.47-10.6-4.63-15.72-7.36-3.16-1.62-6.35-3.16-9.55-4.69-10.29-5.42,2.27-8.1,7.38-8.3,5.29.23,10.47.39,15.75-.09,6.48-.11,12.84,2.29,18.73,4.84,4.94,2.59-.1,6.97-2.36,10.43-1.04,1.41-2.08,2.83-3.12,4.24-1.87,2.27-2.86,4.69-5,4.94h-.11Z"/>
  <path class="cls-8" d="M879.35,720.63c-2.92,6.48-9.32,9.25-14.43,13.36-1.99,1.6-4.06,3.05-5.58,5.14-.46.04-.91.08-1.37.11-1.21-5.39-6.25-7.05-9.93-9.91-5.45-4.23-11.29-7.95-16.85-12.04-1.2-.89-1.89-2.46-2.82-3.71,12.4.96,24.2,4.62,35.99,8.17,5.32,1.6,10.32,3.85,14.98-1.12Z"/>
  <path class="cls-2" d="M742.56,168.04c-1.51-2.23-.99-4.8-.39-6.94,2.39-8.5,2.62-17.32,4.18-25.94,2.65-14.62.91-28.8-3.6-42.97-5.13-16.11-12.32-31.32-18.61-46.91,2.05.06,3.65,1.1,5.17,2.31,1.62,9.47,6.1,17.96,9.24,26.9,5.5,15.67,12.88,30.95,11.14,48.14-1.55,15.24-2.18,30.68-7.12,45.41Z"/>
  <path class="cls-2" d="M797.97,987.95c-.83-1.48-2.28-1.52-3.65-1.38-3.64.38-5.88-1.22-7.67-4.34-2.14-3.72-4.26-7.5-8.18-9.92-1.71-1.06-3.12-2.96-2.72-5.49,2.61-.6,4.31,2.28,6.8,1.51.7.14,1.4.28,2.1.41,2.17,3.93,6.35,3.41,9.84,4.44,1.72.35,3.46.65,5.17,1.05,3.91.91,5.81,3.86,6.68,7.37,1.05,4.26-3.37,3.42-5.22,4.97-.85.7-2.09.93-3.15,1.38Z"/>
  <path class="cls-2" d="M749.98,544c-4.08-2.69-9.04-2.07-13.51-3.49-3.95-1.26-7.93-2.32-11.58-4.31-3.85-2.1-7.98-2.01-12.17-2.21-2.24-.11-4.44-1.07-7.91-1.97,7.67-4.15,14.88-3.62,21.21-2.07,6.82,1.66,14.2,2.02,20.41,5.56,3.14,1.79,9.37,1.94,6.99,8.56-1.15-.02-2.3-.05-3.45-.07Z"/>
  <path class="cls-2" d="M716.37,998.81c-12.88-8.59-28.1-9.04-42.67-12.06,12.63-4.08,24.86-3.05,36.81,2,2.9,1.22,5.43,3.45,8.39,4.37,4.7,1.47,3.29,3.33.94,5.65-1.15.01-2.31.02-3.46.03Z"/>
  <path class="cls-2" d="M842.28,848.46c-4.87-1.68-9.97-1.92-15.02-2.48-2.02-.23-3.96-1.14-5.83-2.82,17.99.07,36.05-3.88,53.83,2.36-.03,2.96-3.71,1.09-4.18,3.31-4.38-.02-8.76-.04-13.14-.07-3.51-2.24-7.11-1.82-10.74-.33-1.64.01-3.28.03-4.92.04Z"/>
  <path class="cls-2" d="M135.52,372.19c-.81-.16-1.61-.33-2.42-.49-.28-4.16-5.15-4.6-6.45-7.94,8.05-5.06,16.91-3.66,25.64-3.08.41.03.74,1.26,1.11,1.93-5.77,3.55-11.45,7.25-17.88,9.57Z"/>
  <path class="cls-2" d="M721.76,43.73c-4.24-1.16-8.48-2.32-12.72-3.47-2.86.13-7.01-3.99-7.97,2.42-3.81-.41-7.21-1.63-9.63-4.8,7.07-3.17,13.67.2,20.07,2.14,3.37,1.02,7.57.59,10.25,3.72Z"/>
  <path class="cls-3" d="M223.77,275.07c-9.05-.44-18.1-.88-27.14-1.32,1.26-4.03,4.63-2.15,6.96-2.13,5.86.05,11.71.72,17.57,1.09,1.58.1,2.69.53,2.62,2.36Z"/>
  <path class="cls-2" d="M807.55,528.28c-.41-.86-.66-1.85-1.26-2.55-3.25-3.83-1.84-5.12,2.56-4.9,3.37,3.15,4.54,5.92-1.31,7.46Z"/>
  <path class="cls-4" d="M445.68,156.1c-4.77,2.2-9.63,3.93-15.02,2.75,5.08-.56,9.65-3.82,15.02-2.75Z"/>
  <path class="cls-2" d="M800.84,66.08c1.57,5.09,7.76,2.51,10.22,6.13-4.95.58-9.39-.11-12.16-4.91.47-.68.89-1.46,1.95-1.22Z"/>
  <path class="cls-4" d="M464.68,348.26c3.99-3.37,8.95-4.25,13.82-5.34-4.03,3.27-8.96,4.22-13.82,5.34Z"/>
  <path class="cls-4" d="M447.88,354.15c4.05-3.24,8.94-4.24,13.85-5.16-4.11,3.11-8.98,4.14-13.85,5.16Z"/>
  <path class="cls-4" d="M475.63,152.55c-4.24.64-8.12,2.95-12.54,2.75,3.85-2.47,7.89-3.97,12.54-2.75Z"/>
  <path class="cls-3" d="M847.21,848.42c3.63-1.48,7.23-1.9,10.74.33-3.63,1.44-7.22,1.7-10.74-.33Z"/>
  <path class="cls-3" d="M794.49,973.18c-3.48-1.03-7.66-.51-9.84-4.44,3.43,1.15,7.6.65,9.84,4.44Z"/>
  <path class="cls-2" d="M927.58,111.84c2.53.95,5.06,1.9,6.96,3.95-.4,1.16-1.36.77-2.18.79-1.31-1.87-5.02-1.31-4.78-4.74Z"/>
  <path class="cls-4" d="M508.5,149.23c-2.47.57-4.71.22-6.58-1.62,2.62-1.18,4.67-.08,6.58,1.62Z"/>
  <path class="cls-3" d="M194.02,273.91c-2.19,1.94-4.75.86-7.17.89,2-3.46,4.54-2.54,7.17-.89Z"/>
  <path class="cls-4" d="M496.16,147.64c-1.41,1.89-3.28,2.29-5.45,1.69,1.53-1.51,3.15-2.68,5.45-1.69Z"/>
  <path class="cls-4" d="M482.47,341.38c1.28-2.23,3.39-2.27,5.57-2.13-1.53,1.58-3.41,2.23-5.57,2.13Z"/>
  <path class="cls-4" d="M482.93,150.14c-1.06,1.39-2.33,2.26-4.17,1.69.9-1.79,2.19-2.6,4.17-1.69Z"/>
  <path class="cls-4" d="M403.89,174.83c-.68,2.08-2.29,2.49-4.21,2.37.89-1.71,2.39-2.32,4.21-2.37Z"/>
  <path class="cls-4" d="M501.67,332.96c.79-2.03,2.31-2.61,4.33-2.17-1.09,1.44-2.41,2.4-4.33,2.17Z"/>
  <path class="cls-4" d="M379.42,388.11c1.38.46,2.75.93,4.12,1.39-2.23,2.05-3.19.36-4.12-1.39Z"/>
  <path class="cls-2" d="M251.19,354.84c-.4-1.76-.66-3.51.21-5.21,1.32,1.13,2.46,2.36,2.49,4.24-.96.33-1.91.66-2.87,1,0,0,.17-.02.17-.02Z"/>
  <path class="cls-4" d="M376.35,190.63c-.74,1.69-1.93,1.47-3.23.76.82-1.37,2-1.19,3.23-.76Z"/>
  <path class="cls-4" d="M328.33,215.73c-.14,1.07-.67,1.59-1.79,1.21,0-1.3.49-1.84,1.79-1.21Z"/>
  <path class="cls-4" d="M342.73,208.58c-.36,1.3-1.11,1.41-2.13.71.47-.97,1.15-1.28,2.13-.71Z"/>
  <path class="cls-4" d="M367.99,194.34c-.31.96-.87,1.42-1.89.93.1-1.4.8-1.56,1.89-.93Z"/>
  <path class="cls-4" d="M387.17,184.55c-.26,1.21-.95,1.5-2.02.92.29-1.15.94-1.51,2.02-.92Z"/>
  <path class="cls-4" d="M413.53,168.84c-.01,1.24-.61,1.66-1.78,1.26.03-1.22.57-1.71,1.78-1.26Z"/>
  <path class="cls-4" d="M427.95,160.48c-.25,1.36-.99,1.54-2.08.86.43-.94,1.02-1.47,2.08-.86Z"/>
  <path class="cls-4" d="M387.62,386.98c.03-1.11.57-1.59,1.68-1.35.09,1.27-.39,1.81-1.68,1.35Z"/>
  <path class="cls-3" d="M114.32,837.14c-.37-.84.03-1.2.82-1.33.13.29.27.57.41.85-.41.16-.82.32-1.22.48Z"/>
  <path class="cls-4" d="M373.02,384.97c.96-.64,1.81-.86,2.18.6-.97.66-1.79.82-2.18-.6Z"/>
  <path class="cls-4" d="M396.02,380.96c.06-1.1.59-1.59,1.71-1.3.06,1.27-.47,1.74-1.71,1.3Z"/>
  <path class="cls-4" d="M405.6,374.92c.11-1.07.61-1.59,1.73-1.26.03,1.26-.48,1.77-1.73,1.26Z"/>
  <path class="cls-4" d="M417.63,367.78c.13-1.33.8-1.64,1.95-1.02-.29,1.04-.88,1.48-1.95,1.02Z"/>
  <path class="cls-4" d="M441.57,356.8c.15-1.06.68-1.55,1.77-1.15.01,1.31-.53,1.77-1.77,1.15Z"/>
  <path class="cls-4" d="M494.39,336.38c.31-1.02.86-1.55,1.95-.94-.16,1.35-.82,1.62-1.95.94Z"/>
  <path class="cls-6" d="M51.22,311.23c-.06,1-.39,1.79-1.51,1.96-.35-1.32.38-1.8,1.51-1.96Z"/>
  <path class="cls-3" d="M167.85,280.49c-.33,1.15-1.14,1.66-2.3,1.7-.05-1.67.5-2.52,2.3-1.7Z"/>
  <path class="cls-3" d="M183.25,275.06c-.49.93-1.33,1.1-2.27,1.04.13-1.7.58-2.73,2.27-1.04Z"/>
  <path class="cls-2" d="M251.3,266.79c.62,1.13.36,1.95-.86,2.42-1.13-1.31-.87-2.13.86-2.42Z"/>
  <path class="cls-2" d="M253.87,259.73c.47,1.21-.07,1.87-1.2,2.21-.91-1.45-.59-2.22,1.2-2.21Z"/>
  <path class="cls-4" d="M261.03,251.59c.05,1.13-.43,1.65-1.59,1.41-.12-1.21.34-1.75,1.59-1.41Z"/>
  <path class="cls-4" d="M267.13,248.2c-.22,1.08-.78,1.56-1.89,1.08.05-1.39.7-1.7,1.89-1.08Z"/>
  <path class="cls-4" d="M273.19,244.84c-.33.95-.9,1.41-1.91.9.12-1.42.82-1.56,1.91-.9Z"/>
  <path class="cls-4" d="M277.95,242.24c-.24,1.01-.78,1.5-1.85,1.07.06-1.33.66-1.7,1.85-1.07Z"/>
  <path class="cls-4" d="M282.69,239.69c-.07,1.15-.61,1.65-1.77,1.26,0-1.26.53-1.75,1.77-1.26Z"/>
  <path class="cls-4" d="M287.5,237.29c-.05,1.25-.65,1.67-1.82,1.19.08-1.22.65-1.67,1.82-1.19Z"/>
  <path class="cls-4" d="M292.31,234.9c-.23,1.31-.94,1.55-2.04.91.36-1.03.95-1.53,2.04-.91Z"/>
  <path class="cls-4" d="M300.79,230.32c-.25,1.03-.81,1.48-1.87,1.01.05-1.4.72-1.65,1.87-1.01Z"/>
  <path class="cls-4" d="M305.56,227.82c-.17,1.09-.71,1.57-1.82,1.13.02-1.33.6-1.75,1.82-1.13Z"/>
  <path class="cls-3" d="M112.64,840.63c.09-.37.17-.75.26-1.12.07.32.16.62.2.94,0,.04-.29.12-.45.18Z"/>
  <polygon class="cls-7" points="251.19 354.84 251.02 354.86 251.3 354.7 251.19 354.84"/>
  <path class="cls-2" d="M607.1,166.79c-5.34-11.27-5.71-23.34-5.69-35.46,0-2.53.39-5.07.6-7.6,6.06.64,10.9-1.37,14.56-6.34,1.18-1.6,3.15-3.41,4.98-2.56,2.46,1.15.48,3.45.12,5.25-1.38,7.04-6.31,12.7-7.4,19.97-.51,3.42-2.39,6.69-2.7,10.32-.48,5.74-2.66,11.03-4.47,16.42Z"/>
  <path class="cls-2" d="M617.85,215.69c-.28-3.65.22-8.32,3.39-12.36.73-.93,1.17-2.39,2.52-2.18,1.56.24,1.24,1.8,1.29,2.94.6,13.58,4.89,26.09,11.01,38.06.56,1.09,1.35,2.14.34,3.23-1.03,1.1-2.26.61-3.18-.24-8.24-7.7-15.96-15.69-15.37-29.44Z"/>
  <path class="cls-8" d="M729.58,85.47c7.07,7.35,7.59,16.61,8.68,26.12.99,8.69-.11,16.96-1.66,25.24-1.36,7.26-3.02,14.47-5.35,21.61-1.85,5.66-6.59,9.95-6.75,16.29-.07,2.62-2.28,4.52-5.05,5.2.32-1.38.64-2.77.96-4.15,12.37-20.66,17.65-42.99,15.52-66.98-.55-6.18-2.32-12.12-4.82-17.84-.75-1.72-2.47-3.26-1.53-5.49Z"/>
  <path class="cls-2" d="M720.4,175.78c-.32,1.39-.64,2.77-.96,4.15-6.1,9.07-13.59,16.83-22.11,23.63-1.47,1.17-2.72,2.7-2.74,4.45-.16,13.24-1.4,26.51.69,39.71-1.04.15-2.08.3-3.12.45-2-3.51.05-6.97.05-10.43,0-8.12,1-16.26-.76-24.39-1.23-5.7.59-10.53,6.11-13.58,8.6-4.76,13.68-12.9,19.26-20.52,1-1.37,1.17-3.55,3.58-3.47Z"/>
  <path class="cls-8" d="M701.08,42.68c.96-6.41,5.11-2.28,7.97-2.42-.3,2.83.92,5.11,3.05,6.71,8.47,6.39,9.48,16.43,12.71,25.42,1.25,3.49,3.08,6.78,3.39,10.57-4.83-3.45-5.26-9.21-6.6-14.11-2.87-10.56-8.95-18.39-17.64-24.55-.53-1.32-1.73-1.17-2.82-1.29l-.07-.33Z"/>
  <path class="cls-1" d="M725.84,512.63c2.57-.39,5,.46,6.98,2.85,1.59,1.93,1.81,4.12,1.02,6.15-.99,2.53-3.34,1.56-5.15,1.03-2.93-.85-6.47-.19-8.53-3.4-.92-1.44-2.98-2.36-2.18-4.51.89-2.4,3.1-2.07,5.07-2.12.79-.02,1.59,0,2.8,0Z"/>
  <path class="cls-2" d="M747.07,518.54c3.49-.09,8.71,8.42,7.15,11.41-.62,1.18-1.62,1.81-2.92,1.19-4.22-2.02-8.41-4.08-12.58-6.2-1.04-.53-2.12-1.25-1.63-2.74.39-1.17,1.49-1.3,2.43-1.19,2.98.35,4.7-3.07,7.55-2.47Z"/>
  <path class="cls-2" d="M798.15,531.65c-3.77-2.23-6.83-5.57-9.45-9.25-.87-1.22-1.01-2.95-2.58-3.79-1.01-.54-2.43-1.15-1.92-2.57.63-1.74,2.36-1.11,3.62-.95,3.5.46,12.73,9.3,13.43,12.78.44,2.19-.63,3.36-3.1,3.78Z"/>
  <path class="cls-2" d="M701.14,43.01c1.08.12,2.29-.03,2.82,1.29-1.15.03-2.45.38-2.82-1.29Z"/>
  <path class="cls-2" d="M247.02,340.87c-5.25-2.61-5.72-8.31-7.11-12.76-2.97-9.48-2.11-19.11,3.01-28,.11.58.43,1.21.3,1.72-3.64,13.5-2.76,26.55,3.81,39.05Z"/>
  <path class="cls-2" d="M250.73,347.97c-2.8-.51-4.46-1.62-2.44-4.66,1.41,1.24,2.26,2.77,2.44,4.66Z"/>
  <path class="cls-8" d="M782.52,789.49c5.07-.81,6.78-5.11,7.7-8.96,3.78-15.74,6.22-31.59,2.17-47.8-1.24-4.96-1.13-10.24-1.72-15.37-.46-4.01,1.8-4.62,5.1-4.53,3.15.09,5.22-.04,5.99,4.42,1.53,8.92,2.05,17.96,4.04,26.87,1.71,7.66,1.09,15.9-.04,23.84-1.72,12.07-6.25,23.36-10.89,34.47-2.63,6.29-5.49,12.68-10.06,18.17-3.61,4.32-3.13,10.71-6.81,15.47-6.8,8.79-6.79,19.76-7.35,30.15-.34,6.21.2,13.25,2.91,18.61,2.36,4.66,8.51,7.28,14.32,8.06,3.05.41,6.19.07,10.1.07-3.86,6.15-9.5,7.82-14.34,10.63-10.99,6.39-23.72,7.84-35.26,12.44-11.42,4.56-24.22,5.01-34.68,12.6-4.06,2.94-10.16,1.71-14.89,4.93-11.52,7.84-24.5,6.1-37.57,5.35-10.01-.57-19.74-.81-28.56-6.15-.11-.39-.22-.77-.33-1.15,3.41-1.58,2.16-3.94,1.34-6.52-2.41-7.55-5.37-15.45-4.69-23.13,1.02-11.51,2.3-22.95,2.04-34.52-.06-2.74,1.18-4.64,3.71-5.54,7.04-2.49,12.65-7.55,18.51-11.67,6.18-4.34,12.35-6.93,19.49-8.09l8.44.85c2.75,2.53,5.37,3.61,7.55-.63,4.41-.99,8.85-1.83,13.21-2.98,8.99-2.38,18.31-4.02,26.8-7.62,11.98-5.07,23.13-11.98,34.07-19.1.96-.63,2.24-1.23.85-2.64,2.72-2.31,5.44-4.61,8.16-6.92,0,0-.17.04-.17.04.41-.41.82-.83,1.23-1.24,0,0-.04.17-.04.17.86-.94,1.73-1.88,2.59-2.82,5.85.4,7.6-2.55,6.45-7.88.21-.63.42-1.25.64-1.88Z"/>
  <path class="cls-2" d="M632.35,931.61c.11.38.23.77.33,1.15-.15,3.22,3.27,4.01,4.34,6.39-.58.58-1.16,1.17-1.74,1.75-6.47-2.68-6.36-9.34-8.18-14.49-3.56-10.05-6.58-20.29-8.12-30.96-1.79-12.4-2.1-24.91-3.49-37.32-.2-1.78.13-3.71-.45-5.33-1.66-4.67,1.41-5.89,4.71-6.35,12.79-1.79,25.07-5.46,37.28-9.47,6.88-2.26,14.58-1.67,20.64-6.85,5.11-4.37,11.11-7.72,14.97-13.48,2.45-3.65,5.04-5.27,9.22-1.88,3.22,2.62,7.11,4.39,10.58,6.72,2.75,1.86,3.45,3.9-.19,5.72-1.06.53-1.96,1.73-3.02,1.85-3.18.35-6.45,2.11-5.32,4.88,1.43,3.51,4.86.29,7.21-.35,6.43-1.76,12.79-4,18.93-6.44,9.48-3.77,18.89-8.02,27.22-14.16,1.95-1.44,3.9-2.79,6.4-2.98,1.38,1.41.1,2.02-.86,2.64-10.94,7.12-22.09,14.03-34.07,19.1-8.49,3.59-17.81,5.24-26.8,7.62-4.36,1.15-8.81,2-13.21,2.99-2.55-.21-5.13-.78-7.55.63-2.81-.28-5.62-.57-8.44-.85-1.88-3.53-4.63-5.57-8.72-4.25-13.4,4.33-26.95,8.13-40.8,10.71-4.8.9-6.25,3.13-5.58,7.86.95,6.71,1.51,13.48,1.91,20.25,1.13,19.04,4.45,37.54,12.79,54.89Z"/>
  <path class="cls-2" d="M658.19,762.95c-4.91-10.76-2.95-21.85-2.82-32.69.04-3.76,4-5.11,7.31-6.13,2.58-.8,5.07-4.99,7.13-2.99,2.85,2.76-.5,6.25-1.87,9.2-3.66,7.89-5.53,16.17-5.64,24.82-.04,3.12-.16,5.97-4.11,7.79Z"/>
  <path class="cls-2" d="M742.68,986.6c.31.7.45,1.6.97,2.07,1.55,1.42,4.59,2.52,3.32,4.91-1.42,2.68-4.79,1.73-7.02.9-3.31-1.24-6.55-3.01-9.39-5.13-5.6-4.18-11.82-6.27-18.68-6.92-1.76-.17-3.51-.72-5.18-1.34-1.91-.71-5.17-.74-4.39-3.73.74-2.82,3.69-1.49,5.71-1.3,5.3.49,10.58,1.2,15.86,1.82,6.45,2.5,11.94,7.09,18.8,8.71Z"/>
  <path class="cls-2" d="M740.17,949.35c17.03-1.18,19.58,8.57,21.64,20.74.24,1.41.76,3.52-1.34,4.08-2.27.6-3.22-1.33-3.75-3.02-.88-2.83-1.23-5.82-2.19-8.62-1.58-4.6-4.97-7.07-9.88-7.16-4.21-.08-8.25-.97-12.22-2.23-1.14-.36-2.44-1.06-2.3-2.4.16-1.59,1.72-1.34,2.86-1.36,2.39-.05,4.79-.01,7.18-.02Z"/>
  <path class="cls-8" d="M781.89,791.37c1.15,5.33-.6,8.29-6.45,7.88,2.15-2.63,4.3-5.26,6.45-7.88Z"/>
  <path class="cls-2" d="M788.18,774.26c1.27,1.45.29,1.94-.98,2.32-.12-.96-.01-1.83.98-2.32Z"/>
  <path class="cls-2" d="M784.93,707.06c.63.85.47,1.57-.35,2.18-1.15-.94-1.01-1.66.35-2.18Z"/>
  <path class="cls-2" d="M772.85,802.08s.04-.17.04-.17c0,0-.04.17-.04.17Z"/>
  <path class="cls-2" d="M771.66,803.15s.17-.04.17-.04-.17.04-.17.04Z"/>
  <path class="cls-2" d="M878.33,767.4c4.09,1.42,7.56.1,11.14-1.99,2.06-1.21,4.08-3.32,6.98-2.48-11.99,11.84-10.68,26.5-8.1,41.08.71,4.01-.39,6.2-3.05,8.09-4.52,3.2-9.26,6.08-13.91,9.09-.69.45-1.55.91-2.06.04-.33-.56-.36-1.59-.06-2.18.71-1.42,1.46-2.97,2.62-3.98,5.79-5.09,7.05-11.49,6.6-18.87-.48-7.94-.5-16,3.01-23.45,1.74-3.69-3.24-2.93-3.16-5.37Z"/>
  <path class="cls-2" d="M927.58,792.03c6.04-.66,11.83-3.18,18.05-2.53-5.7,3.09-11.58,4.91-18.05,2.53Z"/>
  <path class="cls-2" d="M911.05,776.53c.68,5.34-1.73,9.54-4.92,13.46.88-4.76,1.62-9.58,4.92-13.46Z"/>
  <path class="cls-2" d="M903.21,794.47c-.86,5.95,4.3,2.75,6.4,4.21-2.17,3.22-5.14,2.46-7.38.69-1.72-1.36-2.05-3.8.98-4.9Z"/>
  <path class="cls-2" d="M912.07,798.43c3.37-1.25,5.86-4.21,9.52-4.9-2.13,3.65-5.13,5.63-9.52,4.9Z"/>
  <path class="cls-2" d="M857.98,739.24c.46-.04.91-.07,1.37-.11-1.94,3.03-.19,5.79.64,8.62-3.8-2.1-4.15-5.01-2.01-8.5Z"/>
  <path class="cls-2" d="M862.67,751.63c2.04.86,3.04,2.49,3.37,4.6-2.79-.31-3.4-2.22-3.37-4.6Z"/>
  <path class="cls-2" d="M909.81,769.02c1.38.51,1.89,1.38,1.12,2.76-1.3-.54-1.48-1.54-1.12-2.76Z"/>
  <path class="cls-2" d="M874.74,764.88c1.43-.14,2.32.49,2.65,1.89-1.52.27-2.48-.25-2.65-1.89Z"/>
  <path class="cls-2" d="M976.73,793.95c1.35-.25,2.34.28,3.07,1.38-1.45.48-2.62.36-3.07-1.38Z"/>
  <path class="cls-2" d="M982.75,797.5c1.39-.27,2.36.27,2.97,1.53-1.45.38-2.59.16-2.97-1.53Z"/>
  <path class="cls-2" d="M986.38,799.57c1.36.06,2.23.77,2.66,2.04-1.58.23-2.56-.34-2.66-2.04Z"/>
  <path class="cls-2" d="M994.74,805.56c1.36-.03,2.32.59,2.91,1.79-1.65.51-2.67,0-2.91-1.79Z"/>
  <path class="cls-2" d="M922.28,793.04c.62-1.3,1.49-1.89,2.86-.95-.66,1.19-1.7,1.26-2.86.95Z"/>
  <path class="cls-2" d="M813.52,72.73c4.55.93,8.54.1,12.78-2.2,4.34-2.35,9.49-3.94,14.16.1-4.26.95-8.76-.86-12.94,1.34-6.78,3.57-5.42,10.76-6.42,16.27-1.12,6.2-1.82,13.12,1.58,19.36.86,1.58.79,3.63-.22,5.21-5.15,8.04-9.57,16.62-16.98,22.98-.89.77-1.97,1.44-3.08,1.8-1.31.43-2.77,2.53-4.09.44-.88-1.4.47-2.68,1.54-3.54,6.61-5.37,9.04-13.53,13.62-20.24,1.57-2.3,1.19-4.96,1.32-7.55.44-9.24-1.53-18.68,2.82-27.6,1.76-3.61-3.61-3.65-4.09-6.38Z"/>
  <path class="cls-2" d="M842.58,72.89c4.09,2.92,3.63,7.31,3.05,11.3-.57,3.95-1.29,8.08-4.16,11.29-.44-1.98-.32-3.9.46-5.8,2.25-5.51,1.47-11.15.66-16.79Z"/>
  <path class="cls-2" d="M836.77,102.05c4.12,6.12,9.11,2.07,13.82,1.19-2.28,3.5-11.95,5.27-14.49,2.57-1.29-1.37-1.46-2.84.67-3.75Z"/>
  <path class="cls-2" d="M883.21,96.26c5.56-1.39,11.13-2.33,16.69.02-5.56,1.65-11.13,1.64-16.69-.02Z"/>
  <path class="cls-2" d="M860.3,99.25c4.24-1.8,8.47-3.72,13.28-2.45-4.14,2.39-8.26,4.82-13.28,2.45Z"/>
  <path class="cls-2" d="M910.79,100.91c2.82,1.09,6.18,1.25,7.79,4.46-3.25-.34-6.17-1.26-7.79-4.46Z"/>
  <path class="cls-2" d="M923.98,109.37c1.41.05,2.29.84,2.87,2.05-1.72.39-2.76-.19-2.87-2.05Z"/>
  <path class="cls-2" d="M919.18,105.76c1.44.06,2.23.92,2.68,2.19-1.68.23-2.6-.47-2.68-2.19Z"/>
  <path class="cls-1" d="M56.16,782.65c3.98-2.88,8.08-5.23,13.19-2.78-4.4,6.18-5.47,13.29-6.31,20.63-.77,6.76-.6,12.96,4.3,18.26.26.28-.09,1.12-.15,1.7-9.02-3.36-14.75-10.18-18.59-18.56-1.6-3.49-.02-7.35,1.39-10.87,1.4-2.14,2.8-4.28,4.2-6.42.99-.32,1.71-.91,1.98-1.96Z"/>
  <path class="cls-8" d="M75.24,824.35c-.06,2.12-1.38,2.95-3.18,2.41-2.39-.71-5.31-1.17-4.9-4.83,2.7.81,5.39,1.61,8.09,2.42Z"/>
  <path class="cls-1" d="M60.37,336.06c3.83-5.66,9.28-7.78,15.93-7.28-4.66,10.91-1.44,20.85,3.34,30.84,2.48,5.2,7.87,5.51,11.66,8.43-1.49,2.41-5.21,1.33-6.44,4.13-1.17-.07-2.35-.15-3.52-.22-6.03-5-12.06-10.01-18.09-15.01-.17-1.09-.81-1.69-1.9-1.81-2.03-4.57-1.74-9.4-1.63-14.21.58-1.57,1.27-3.13.65-4.87Z"/>
  <path class="cls-1" d="M126.65,363.76c1.3,3.34,6.17,3.77,6.45,7.94-9.01,1.33-17.99,2.5-24.45-6.22,3.42-3.51,7.73-1.11,11.59-1.69,2.09-.31,4.27-.04,6.41-.03Z"/>
  <path class="cls-8" d="M3.28,812.67c-1.78-8.87-1.58-17.75-.03-26.64,1.77,8.87,2.37,17.75.03,26.64Z"/>
  <path class="cls-8" d="M54.17,784.61c-1.4,2.14-2.8,4.28-4.2,6.42-3.54-1.18-2.69-3.49-.99-5.35,1.23-1.35,2.66-4.84,5.19-1.07Z"/>
  <path class="cls-8" d="M6.88,781.33c-1.53-1.73-1.63-3.02-.98-4.02,1.16-1.79,2.7-4.86,3.94-4.79,3.42.2,1.15,2.25.34,3.58-.41.67-1.09,1.17-1.5,1.83-.59.94-1.04,1.96-1.79,3.39Z"/>
  <path class="cls-8" d="M63.24,356.94c6.03,5,12.06,10.01,18.09,15.01-.91,1.43-2.67,1.91-3.65,1.09-5.55-4.68-13.79-7.04-14.45-16.1Z"/>
  <path class="cls-8" d="M59.72,340.92c-.11,4.81-.4,9.65,1.63,14.21-3.6.24-4.14-1.99-4.09-4.88.06-3.33.19-6.6,2.46-9.33Z"/>
  <path class="cls-8" d="M801.49,160.88c.91-6,5.41-5.31,9.52-4.9,1.73.17,3.15,1.95,1.89,3.43-1.89,2.23-2.01,5.7-5.04,7.06-.03-.19-.11-.39-.09-.58q1.06-7.77-6.28-5.01Z"/>
  <path class="cls-8" d="M789.67,202.88c-2.27,4.78-4.69,9.45-9.33,12.44.88-5.82,3.82-10.09,9.33-12.44Z"/>
  <path class="cls-8" d="M769.33,229.48c-2.53,3.36-5.73,5.81-9.72,7.2,1.13-5.25,3.84-8.36,9.72-7.2Z"/>
  <path class="cls-8" d="M799.41,184.9c-.17,4.84-2.96,8.28-6.14,11.52-.04-4.95.51-9.59,6.14-11.52Z"/>
  <path class="cls-8" d="M759.63,236.64c-2.12,2.79-5.16,3.91-8.41,4.66.89-5.02,4.73-4.69,8.41-4.66Z"/>
  <path class="cls-8" d="M775.19,222.19c.13,2.44-1.41,3.51-3.42,4.2-.38-2.64.53-4.22,3.42-4.2Z"/>
  <path class="cls-8" d="M793.33,196.78c.15,1.98-.86,3.27-2.49,4.19-.31-2.07-.3-3.96,2.49-4.19Z"/>
  <path class="cls-8" d="M804.11,175.38c.15,1.73-.64,2.75-2.33,3.11-.39-1.9.11-3.15,2.33-3.11Z"/>
  <path class="cls-8" d="M797.7,169.03c-.09-1.55.69-2.49,2.09-3,.58,1.88.35,3.2-2.09,3Z"/>
  <path class="cls-8" d="M795.94,172.71c.16-1.37.13-2.84,1.72-3.51.31,1.6.65,3.22-1.72,3.51Z"/>
  <path class="cls-8" d="M777.65,219.74c-.26,1.38-.96,2.32-2.47,2.45-.14-1.79.78-2.51,2.47-2.45Z"/>
  <path class="cls-8" d="M800.96,181.41c-.02,1.29-.38,2.38-1.64,2.99-.19-1.4-.08-2.64,1.64-2.99Z"/>
  <path class="cls-8" d="M780.41,215.28c.23.34.2.65-.1.93-.29-.21-.58-.42-.88-.62.33-.1.65-.2.98-.3Z"/>
  <path class="cls-8" d="M507.43,279.02c3.87-9.68-1.65-18.33-5.89-27.54-4.64-10.09-5.67-20.88-4.05-32.02,1.06-7.26.53-14.68,1.23-22.04.62-6.55,1.64-12.99,2.64-19.46.23-1.46.64-2.64,1.87-3.56,6.03-4.49,11.85-9.28,18.08-13.47,9.37-6.3,18.82-12.51,28.13-18.87,8.18-5.59,12.71-13.78,19.61-20.11,7.77-7.14,14.77-15.29,20.6-24.43,2.1-3.29,6.56-6.07,10.06-8.94.98-.81,2.21-1.22,3.17-.07.94,1.13.49,2.44-.55,3.13-3.68,2.44-2.71,6.13-2.07,9.23.52,2.52.5,4.75-.37,6.95-4.28,10.82-2.85,22.21-1.91,33.12.59,6.88-.74,14.87,2.33,20.61,6.07,11.36-.26,24.38,6.43,35.22.65,1.05.35,2.74.32,4.12-.24,11.29-1.13,22.6.11,33.87.54,4.95-3.56,8.95-2.48,13.95.32,1.47-.53,3.38,1.36,4.24,6.46,2.95,5.34,8.07,3.32,12.93-1.07,2.58-.81,4.26.41,6.6,2.36,4.56.05,8.74-4.98,9.68-1.15.22-2.88-.22-3.27.95-2.11,6.3-7.34,4.56-11.92,5.21-6.27.89-11.74,4.61-17.24,7.31-3.39,1.66-7.03.9-9.84,2.9-7.02,5-16.23,4.5-23.25,9.51-1.59,1.14-3.28.21-4.98-.74-5.18-2.93-9.95-6.11-13.63-11.05-2.29-3.06-5.06-5.95-9.06-7.53-3.42-1.35-4.32-4.98-4.16-9.68Z"/>
  <path class="cls-8" d="M632.35,931.61c-8.34-17.35-11.66-35.85-12.79-54.89-.4-6.77-.96-13.54-1.91-20.25-.67-4.73.78-6.96,5.58-7.86,13.85-2.59,27.39-6.39,40.8-10.71,4.09-1.32,6.84.73,8.72,4.25-7.14,1.15-13.31,3.74-19.49,8.08-5.87,4.12-11.47,9.18-18.51,11.67-2.53.9-3.77,2.79-3.71,5.54.26,11.57-1.02,23.01-2.04,34.52-.68,7.68,2.29,15.58,4.69,23.13.82,2.58,2.06,4.94-1.34,6.52Z"/>
  <path class="cls-8" d="M681.19,843c2.42-1.41,5-.83,7.55-.63-2.18,4.23-4.81,3.16-7.55.63Z"/>
</svg>