<?xml version="1.0" encoding="UTF-8"?>
<svg id="Layer_1" xmlns="http://www.w3.org/2000/svg" viewBox="0 0 270.49 992.01">
  <defs>
    <style>
      .cls-1 {
        fill: #e1a47b;
      }

      .cls-2 {
        fill: #7f8381;
      }

      .cls-3 {
        fill: #efb790;
      }

      .cls-4 {
        fill: #231f20;
      }

      .cls-5 {
        fill: #fdcca7;
      }

      .cls-6 {
        fill: #e2a77c;
      }

      .cls-7 {
        fill: #9b9a9a;
      }

      .cls-8 {
        fill: #282828;
      }

      .cls-9 {
        fill: #808382;
      }

      .cls-10 {
        fill: #7f8382;
      }

      .cls-11 {
        fill: #e9e8e8;
      }

      .cls-12 {
        fill: #3f9cd4;
      }

      .cls-13 {
        fill: #bda795;
      }

      .cls-14 {
        fill: #e6b088;
      }

      .cls-15 {
        fill: #8c1d1c;
      }

      .cls-16 {
        fill: #808482;
      }

      .cls-17 {
        fill: #d84140;
      }

      .cls-18 {
        fill: #e4ae85;
      }

      .cls-19 {
        fill: #f5d1b4;
      }

      .cls-20 {
        fill: #b1bdc3;
      }

      .cls-21 {
        fill: #848784;
      }

      .cls-22 {
        fill: #e1ab85;
      }
    </style>
  </defs>
  <path class="cls-11" d="M189.45,779.35s-15.1,34.82-20.77,37.5-22.14,18.1-22.14,18.1l-16.31-15.2-19.06,15.2s-.06,46.93,5,52.71,24.43-9.64,24.43-9.64l72.28-62.99s.93-23.84,10.19-41.35-33.62,5.67-33.62,5.67Z"/>
  <path class="cls-9" d="M157.24,0c.63,11.39-1.65,22.68-.95,34.12.5,8.27-.04,16.6-.12,24.9-1.2,3.04-3.3,2.84-5.41,1.25-2.71-2.04-5.66-3.04-9.01-3.23-2.09-.12-3.69-.84-3.6-3.55.31-8.92-.41-17.85.39-26.76,1.59-8.9-.6-17.82.12-26.73h18.58Z"/>
  <path class="cls-5" d="M52.11,148.75c3.85,4.58,8.84,5.56,14.54,5.08,1.57-.13,3.55.92,4.85,2.02,4.38,3.68,9.47,4.27,14.71,3.46,4.15-.64,5.6,1.39,5.41,4.76-.26,4.57,2.18,7.37,4.85,10.62,3.91,4.74,7.16,9.95,12.5,13.39,3.49,2.25,5.62,1.93,6.1-2.14.76-6.51,3.28-11.73,8.43-15.73,1.62-1.26,1.51-3.12,1.51-4.93,0-5.86-.03-11.72.06-17.57.02-1.55-.65-3.28.79-4.61,2.52,3.51.9,7.51,1.36,11.27.36,3-1.43,7.37,1.02,8.69,2.55,1.38,5.13-2.48,7.63-4.12,2.83-1.86,5.6-3.84,8.21-6.04.99-.84,2.08-2.29,3.73-.93.42,1.35.05,2.72.97,4.14,3.66,5.65,5.35,12.05,5.81,18.7.29,4.21-.09,8.47.09,12.69.28,6.59-.71,12.64-5.84,17.39-2.5,2.31-2.54,5.9-4.25,8.65-3.55.73-4.52,3.15-4.51,6.46.03,16.91-1.14,33.79-2.14,50.65-.67,11.3-1.65,22.83-8.89,32.47-3.95,5.74-7.77,11.56-11.84,17.22-7.31,10.17-17.64,15.05-29.23,17.87-9.47,2.3-19.09,3.73-28.89,3.49-8.97-.87-16.51-5.63-24.76-9.03,1.1,2.44,3.03,4.24,4.57,6.29,1.56,2.08,3.54,3.8,5.47,5.55,1.27,1.15,3.15,1.99,2.52,4.28-3.16,4.07-7.93,3.08-12.01,3.28-3.9.2-8.04-.58-11.49-2.95-1.72-1.18-3.52-1.43-5.49-.92-2.42-8.28-7.68-15.21-10.95-23.14-3.31-8.02-6.27-16.1-6.87-24.62-.52-7.34,2.14-14.48,6.12-20.66,4.1-6.37,9.02-12.16,15.03-17,7.23-5.81,15.37-8.07,24.47-7.51,1.92.12,3.7-.25,3.91-2.63.21-2.35-1.25-3.13-3.34-3.17-.82-.02-1.63-.06-2.14-.86.94-1.4,2.55-1.22,3.88-1.68,2-2.45.34-5,.01-7.4-.54-4.02-1.56-7.98-2.29-11.99-.67-3.7.7-5.67,4.41-7.41,6.82-3.19,12.15-1.72,18.57,1.65,9.51,4.99,18.88,10.18,28.19,15.53,4.85,2.78,6.1,1.93,7.11-3.58,1.15-6.24,2.19-12.51,4.02-18.61.78-3.36,2.37-6.45,3.35-9.74,1.1-3.67.59-7.34.36-12.13-5.08,3.86-8.67,8.01-12.91,11.36-4.36,3.45-8.93,6.51-13.67,9.37-7.18,4.34-14.51,4.43-21.84.55-2.91-1.54-5.3-1.79-7.96.55-2.19,1.92-5.02,2.98-7.38,4.75-3.21,2.41-6.53.95-9.81,0-4.73-3.45-6.48-7.69-4.93-11.94,1.59-4.38,5.42-6.04,12.57-5.49,2.54.88,5.24.97,7.88,1.22,3.28.31,1.51-1.23.67-2.31-4.85-3.64-9.77-7.18-10.42-13.99-.12-1.27-1.15-2.37-2.17-3.18-5.87-4.67-5.47-11.06-4.76-17.47.35-3.1,2.53-5.13,4.81-7.09,3.19-2.73,7.12-4.37,10.18-7.21-.25-1.03-1.03-1.9-.84-3.04.13-.5.45-.7.96-.62Z"/>
  <path class="cls-17" d="M77.12,460.04c-2.92-11.82-5.99-23.6-8.7-35.46-1.83-7.99-5.22-14.92-11.27-20.58-2.46-2.3-4.39-5.17-6.57-7.77-6.39-7.13-12.45-14.55-18.5-21.97-4.79-5.88-8.29-12.41-10.63-19.58-1.18-3.61.44-5.41,4.17-4.21,5.09,1.64,10.02,1.86,15.32.97,4.57-.77,8.4-2.56,11.66-5.53,3.45-3.15,7.26-4.26,11.91-4.59,14.91-1.05,29.81-2.91,42.69-11.37,7.01-4.6,11.54-11.75,16.17-18.62.64-.95,1.28-1.89,1.93-2.83,1.01-1.45,1.94-3.41,4.14-2.45,1.81.78,1.75,2.76,1.32,4.29-.79,2.83-.02,5.49.33,8.21,1.51,11.45,2.82,23.14,2.33,34.47-.6,13.58,3.28,26.39,3.52,39.66.03,1.96.48,4.03-.15,5.84-1.95,5.56-.75,10.83.69,16.22,2.75,10.28,1.5,20.7.46,31.04-.44,4.34-4.78,5.37-7.99,7.2-10.81,2.95-21.71,5.6-32.82,7.12-5.75.79-11.41,2.9-17.37,1.81-1.18-.2-1.99-.94-2.65-1.87Z"/>
  <path class="cls-5" d="M95.76,704.35c3.45-4.55,1.44-9.58.59-14.13-2.25-12.06-3.05-24.42-7.4-36.1-2.21-5.93-5.3-11.38-7.98-17.05,5.67-4.17,12.48-5.04,19.08-6.31,11.81-2.28,23.8-2.18,35.78-2.07,6.45.06,12.91.26,19.34-.56,1.62,5.4.05,10.76-1.4,15.69-3.93,13.4-6.19,26.89-5.99,40.88.09,6-1.34,11.97-3.22,17.72-2.24,6.82-2.54,13.53-.81,20.63,3.4,13.94,5.78,28.12,5.06,42.52-.6,12.02-2.68,23.92-4.34,35.85-.65,4.64.21,9.52-2.04,13.91-.28.5-.71.82-1.26.97-2.17-.19-3.31-1.91-4.69-3.25-3.98-3.84-7.66-7.98-12.13-11.31-2.51-1.87-4.39-4.35-5.44-7.37-.59-1.71-1.46-3.27-2.56-4.69-3.73-4.8-5.7-10.36-8.02-15.93-3.49-8.35-5.39-17.41-10.41-25.12-1.45-2.23-2.08-4.85-2.29-7.42-.73-8.89-1.77-17.82.02-26.68.69-3.44.59-6.78.14-10.18Z"/>
  <path class="cls-2" d="M155.22,628.34c-1.93,1.33-4.03,1.68-6.39,1.71-16.05.2-32.14-.65-48.12,1.88-6.76,1.07-13.14,3.49-19.74,5.13-6.29-5.84-10.25-12.78-10.32-21.61-.01-1.43-.41-2.86-.62-4.29-.89-7.93.39-15.92-.67-23.84-.1-2.81-.21-5.63-.31-8.44-.62-7.48-.09-14.97-.29-22.45-.05-1.77.38-3.58-.36-5.31-.1-3.14-.2-6.28-.31-9.42-.48-3.39-.46-6.77-.01-10.16.11-1.5.23-3,.34-4.51.94-3.35-.18-6.82.64-10.17.1-1.51.21-3.02.31-4.53,1.01-4.32-.17-8.75.66-13.08.44-5.74.88-11.48,1.33-17.22.93-3.03-.16-6.19.61-9.23.17-4.89,3.35-8.55,5.17-12.77.52.34,1.05.68,1.57,1.02.65,1.51.15,2.96-.53,4.23-2.45,4.61-3.08,9.68-3.31,14.68-1.05,23.26-4.14,46.47-3.04,69.77,1,21.16.57,42.35,1.88,63.49.37,5.99,2.14,11.51,5.46,16.52,1.59,2.4,3.59,3.82,6.58,2.79,18.4-6.32,37.5-5.89,56.56-5.91.65,0,1.3,0,1.96,0,8.67-.01,10.59-2.4,6.77-10.13-5.54-11.21-6.15-23.29-6.8-35.24-.6-11.09-1.27-22.11-3.51-33-.2-.96-.45-1.93-.42-2.9.6-15.19-2.14-30.24-2.03-45.38.1-14.83-2.08-29.59-1.07-44.43.12-1.79.05-3.59.45-5.35,2.19-4.6.33-9.46.83-14.22.98-9.22.12-18.48-2.26-27.53-.41-1.57-.84-3.12-.55-4.8,2.14-12.39-.15-24.47-2.59-36.54-.36-1.78-.41-3.59-.16-5.35,1.83-12.54-.97-24.93-1.15-37.41-.07-5.01-1.7-9.95-.9-15,.45-2.85-1.34-4.45-2.9-6.27,7.43-12.11,8.22-25.68,8.87-39.35.73-15.42,1.73-30.83,1.82-46.28.02-3.7,1.47-6.13,5.82-4.32,2.14,3.25,1.76,7.06,2.3,10.65.29,1.9.07,3.87.9,5.68,2.11,5.51.26,11.4,1.65,16.98.16,2.11,4.8,2.56,2.13,5.72-3.84.34-4.96,1.85-3.41,5.79,1.76,4.46.73,9.36.8,14.06.06,4.08-.08,8.13,1.82,11.93.5.99,1.02,2.18.85,3.28-1.42,9.2.77,18.44-.42,27.65-.5,3.87-.78,7.76.67,11.56,1.07,2.8,1,5.73.91,8.69-.35,11.5.64,22.91,2.58,34.25.39,2.27.43,4.54.37,6.82-.15,6.2.64,12.29,1.46,18.44.84,6.25-1.11,12.62-.44,18.95.99,9.37.37,18.84,1.8,28.18.23,1.49.72,2.83,1.42,4.12.58,1.59.3,3.2.17,4.83-.57,6.99-1.06,13.97.98,20.86.95,3.21.55,6.49-.36,9.66-1.11,3.9-1.1,7.7.38,11.5,1.85,4.73,1.86,9.55.5,14.4-.95,3.39-.89,6.71.11,10.11,1.2,4.09,1.71,8.26,1.08,12.56-.42,2.9-.74,6,.07,8.76,2.7,9.23.83,18.42.48,27.66-.26,6.99-.59,13.97-1.24,20.93-.31,3.3,2.53,5.63,2.57,8.79-.08.53-.36.93-.84,1.19-1.14.39-2.05-.49-3.19-.85-.67,6.44-1.38,12.62-3.5,18.54-1.19,4.03.09,8.23-.92,12.27-.2.51-.52.93-.96,1.24Z"/>
  <path class="cls-17" d="M182.62,303.2c1.47,1.83,1.06,4.01,1.13,6.1,4.54,19.73,4.05,39.98,6.26,59.96,1.01,9.19,2.09,18.34,4.21,27.4,3,12.8,6.77,25.51,8.2,38.56,1.13,10.36,1.94,10.18-8.78,10.34-8.28.12-16.56-.46-24.85.72-7.65,1.08-11.87-2.22-11.83-10.04.06-12.15-2.34-24.33.15-36.47.36-1.75.42-3.63-.06-5.35-1.81-6.51-1.91-13.15-1.75-19.82.07-2.94-.22-5.77-1.05-8.66-.89-3.09-1.17-6.36-.6-9.67.44-2.55.46-5.2-.1-7.78-.89-4.16-1.33-8.29-.76-12.58.43-3.21.11-6.48-.91-9.66-1.36-4.22-2.15-8.48-.67-12.92.56-1.67.41-3.61.12-5.34-.93-5.64.4-11.46-.3-16.82-1.43-10.95-1.75-21.92-2.75-32.86-.17-1.81-.92-3.55.98-4.82,2.11-1.41,4.23-.83,5.84.67,8.56,7.99,17.04,15.88,21.99,27.04,3.17,7.15,4.13,14.55,5.52,21.99Z"/>
  <path class="cls-5" d="M138.54,26.73c.03,8.28.16,16.57.03,24.85-.05,3.1.82,4.6,4.15,4.12,3.3-.48,6.09.7,8.3,3.14,1.71,1.89,3.35,2.45,5.14.17-.23,3.92,1.66,6.95,4.45,9.32,4.1,3.48,5.49,8.03,5.39,13.06-.27,14.12,5.74,25.41,14.46,36.09,7.78,9.53,14.79,19.71,22.7,29.18,3.02,3.61,6.27,7.04,9.13,10.77,4.69,6.11,7.87,13.05,9.87,20.45,2.87,10.63,9.42,19.54,13.45,29.63,3.19,7.99,3.88,15.46-2.1,22.29-5.48,6.25-7.14,14.11-9.56,21.61-4.36,13.48-13.68,21.12-27.06,24.68-2.7.72-5.49,2.47-7.36,4.54-2.37,2.63-4.89,4.83-7.97,6.48-2.11-.69-2.29-.61-2.85-1.76-2.8-5.76-6.26-11.2-8.58-17.19.06-.49.21-.95.44-1.38.54-.35-.29-.24.31-.34,6.85-1.16,11.35-6.36,16.93-9.72,4.37-2.63,6.9-1.9,8.07,2.75,1.55,6.16,6.81,4.16,10.72,5.88-.79-3.12-5.51-4.88-2.72-8.23,3.38-4.05,5.34,1.8,8.23,1.9.79-1.07,0-1.56-.66-1.93-6.06-3.37-7.89-10.73-3.29-16.27,3.14-3.78,3.93-7.68,3.49-12.19-.26-2.57.08-4.88,2.32-6.54,1.89-1.4,3.93-2.66,6.27-1.41,2.13,1.14,1.66,3.35,1.36,5.26-.46,2.92.22,5.81-.04,8.76-.33,3.74-.2,7.44-2.61,10.66-.55.74-.81,1.81.32,2.82,1.91-.55,2.09-2.21,1.93-3.77-.35-3.46.93-6.34,2.66-9.16,1.88-3.05,3.78-6.11,3.2-9.99-.3-2.04,1.07-2.88,2.74-3.44,2.08-.71,3.49-2.18,3.09-4.38-.63-3.47-2.35-6.63-2.68-10.27-.16-1.78-2.33-1.93-4.06-1.71-1.74.21-3.52.92-5.21-.24-.37-.32-.66-.71-.87-1.15-1.22-4.26-.08-8.37,1.13-12.76-2.15-.66-4.96.8-5.94-2.17-.84-2.52.4-4.37,1.68-6.31,1.71-2.58,1.63-5.05-.31-7.65-6.11-8.18-11.58-16.81-17.03-25.43-2.35-3.72-5.39-5.66-9.65-5.34-3.8.29-4.48-1.48-3.95-4.72.76-4.69.81-9.21-4.38-11.74-.42-.21-.72-.66-.99-1.07-1.32-1.94-1.74-4.97-4.86-4.85-3.51.13-6.5,1.95-9.37,3.82-1.18.77-1.91,2.21-1.1,3.41,2.81,4.16,3.23,9.19,5.25,13.62.58,1.27,1.16,2.76,3.22,2.87,1.31-2.64.83-5.32,0-7.97-.63-2.02-1.4-4.01-1.61-6.13-.23-2.41.72-4.31,3.2-4.71,2.28-.37,5.05.73,4.9,2.92-.43,6.32,3.35,11.9,2.65,18.17-.29,2.55-.55,5.06-4.04,4.89-1.97-.09-2.02,1.12-1.91,2.56.16,1.98.44,3.89,1.91,5.41,3.52,3.66,4.32,8.05,4.2,13.03-.2,8.5.33,16.97,6.07,24.06,1.44,1.78,2.86,3.53,4.68,4.96,1.34,1.05,3.45,1.93,2.68,4.14-.71,2.02-2.77,2.61-4.71,3.05-.82.19-1.62,0-2.35-.42-4.25-8.39-8.47-16.78-11.38-25.77-2.46-7.6-3.68-15.5-6.01-23.16-3.66-12.06-7.87-23.79-14.91-34.34-1.09-1.63-2.34-3.12-3.56-4.64-1.92-2.41-3.69-1.93-5.65-.25-4.55-7.25-10.91-13.04-16.03-19.84-.2-.78-.13-1.86-.63-2.28-8.61-7.22-8.49-15.72-4.88-25.53,2.13-5.78,5.05-10.73,8.95-15.29,1.91-2.24,2.28-4.95,2.29-7.75.03-6.51,0-13.01.1-19.52.02-1.54-.65-3.28.78-4.6Z"/>
  <path class="cls-10" d="M239.31,992.01c-8.04-.02-16.07-.03-24.11-.05-5.83-12.81-10.14-26.05-12.11-40.07-.71-5.05-1.94-10.1-6.72-13.49-4.92-3.49-6.54-9.51-9.81-14.27-.58-1.09-.04-1.95.73-2.56,4.86-3.8,8.99-8.45,13.99-12.08,1.33-.16,2.47.31,3.53,1.04,12.44,14.6,21.74,30.92,27.96,49.14,3.16,9.27,4.11,18.97,6.85,28.28.41,1.39,1.08,2.81-.31,4.07Z"/>
  <path class="cls-21" d="M131.92,101.7c1.95-1.2,2.83-.08,3.66,1.56,2.29,4.51,5.11,8.6,9.51,11.34,2.39,1.49,2.45,3.98,2.85,6.34.16.28.46.59.42.86-1.2,9.02.8,18,.35,27.01-.06,1.16-.37,2.24-1.36,2.99-5.68,4.25-11.37,8.49-17.05,12.75-.88.66-1.62,1.85-2.89,1.32-1.45-.6-1.34-2.06-1.36-3.36-.07-6.47-.13-12.95-.19-19.42,2.75-11.15,5-22.37,3.99-33.97-.24-2.75,1.55-4.9,2.07-7.42Z"/>
  <path class="cls-17" d="M208.14,458.19c-3.13-10.15-7.35-10.45-14.27-10.98-9.61-.74-19.1.32-28.64.22-2.09-.02-4.26.25-6.11-1.12-2.88-2.37-2.59-5.93-2.77-8.97-.61-10.38-1.62-20.86-.8-31.17.93-11.61-.67-23.08-1.81-34.35-.98-9.71.07-19.8-3.11-29.32-.56-1.69-.06-3.5.29-5.29.73-3.68,1.08-7.42-.77-10.97-.3-.57-.62-1.22-.61-1.83.1-10.01.12-20.02.49-30.02.11-2.92,1.08-6-.21-8.64-2.8-5.71-2.3-11.7-2.37-17.69-.05-4.19.31-8.3-1.56-12.44-1.6-3.55.88-5.14,6.05-4.25,3.05-.8,4.49,1.76,6.51,3.11.51.46.99.96,1.46,1.46,3.16,4.38,8.39,6.89,10.83,11.93,3.55,6.46,6.16,13.44,10.82,19.27.35,5.35.71,10.71,1.06,16.07-1.42-.99-1.3-2.73-1.39-4.01-.73-10.23-5.83-18.75-10.89-27.12-4.14-6.85-10.61-11.82-16.42-17.26-1.01-.94-2.4-1.6-4.03-.66-2.02,1.16-.82,2.62-.38,3.81.88,2.37.81,4.77.9,7.21.25,6.94-1.11,14.03,1.78,20.76.24.57.27,1.31.15,1.93-1.8,9.62,1.17,19.39-.87,29.01-.56,2.64.61,5.15,1.31,7.62,1.44,5.08,2.05,10.09,1.02,15.38-.41,2.1.42,4.45.75,6.68.17,1.12.88,2.29.67,3.3-1.79,8.47,1.14,16.71,1.05,25.08-.07,6.19-.02,12.32,1.68,18.37.6,2.12.63,4.63.16,6.79-2.3,10.47-.23,21.02-.86,31.5-.22,3.71,1.09,7.02,1.87,10.49.37,1.63,1.37,1.78,2.7,2.2,4.39,1.4,8.68.07,13.02-.02,7.65-.17,15.31-.2,22.96,0,3.37.09,4.74-.92,4.48-4.41-.62-8.28-2.52-16.36-4.37-24.37-3.63-15.79-7.25-31.46-8.69-47.71-1.68-19.01-1.89-38.2-5.55-57.03-.09-.46.04-.97.07-1.46,3.16,7.94,4.02,16.43,4.5,24.75,1.29,22.09,2.54,44.17,7.31,65.83,2.38,10.78,6.52,21.38,6.78,32.37"/>
  <path class="cls-17" d="M239.44,511.82c-2.67-.41-2.9-2.84-3.6-4.67"/>
  <path class="cls-17" d="M127.97,303.08c2.12.21,3.67.87,3.83,3.46.94,15.01,3.08,30.05,2.64,45.02-.39,13.39,2.13,26.3,3.16,39.43.01.16.06.33.03.48-2.47,14.14,3.18,27.86,2.14,41.96-.28,3.85-1.86,7.86.54,11.84.77,1.28-.47,3.39-1.53,4.88-2.79,1.11-5.29,3.94-8.7,1.54,8.43-2.45,7-9.83,7.47-15.86.68-8.77.26-17.55-2.63-26.04-.56-1.65-1.18-3.64-.75-5.19,3.18-11.41.5-22.55-1.45-33.67-.63-3.57-1.04-7.07-.89-10.64.64-15.24-.76-30.34-2.84-45.41-.23-1.69.3-3.19.66-4.78.26-1.16.89-2.83-.78-3.38-1.23-.4-1.93.95-2.55,1.87-3.69,5.53-7.65,10.81-11.89,15.98-4.82,5.86-10.57,9.49-17.46,11.64-11,3.44-22.22,5.94-33.81,6.15-3.67.07-6.47,1.73-9.13,4.03-8.05,6.95-17.32,8.17-27.32,5.53-1.58-.42-3.33-1.43-4.59-.18-1.29,1.28.55,2.6.87,3.94,2.26,9.5,8.5,16.58,14.4,23.93,4.42,5.51,9.53,10.49,13.19,16.6-12.54-12.3-24.42-25.08-30.46-42.09-.71-1.99-1.49-3.95-2.23-5.92.86-4.01,2.84-2.31,4.77-.95,6.5,4.59,13.73,3.88,20.95,2.73,1.13-.18,2.09-1.4,3.12-2.14,3.52-2.92,7.11-5.73,11.45-7.37,13.42-.1,26.49-2.03,39.21-6.58,9.91-3.54,16.47-10.66,22.21-18.92,2.77-3.99,5.58-7.94,8.37-11.91Z"/>
  <path class="cls-13" d="M148.67,850.72c-7.75-4.02-15.34-8.29-21.76-14.33-9.09-7.33-17.07-15.61-22.46-26.13-4.81-9.67-9.63-19.33-14.43-29-1.01-2.03-2.38-4-2.13-6.38.72-6.99-2.15-13.3-3.37-19.93-1.61-8.77-.44-17.73,0-26.64.49-9.82,5.18-17.06,11.23-23.96,2.88,1.8,1.96,4.68,1.69,7.1-.82,7.37-1.63,14.6-1.2,22.16.44,7.79,3.39,14.23,5.97,21.19,2.78,7.5,6.9,14.52,8.46,22.48.4,2.06,1.2,4.01,2.46,5.79,2.99,4.22,6.23,8.23,8.07,13.23.99,2.69,3.8,4.3,6.03,6.2,4.82,4.1,9.37,8.52,13.38,13.45.33.52.23.92-.31,1.2-1.62.03-2.66-1.08-3.82-1.95-11.54-8.68-20.78-19.56-26.48-32.63-3.21-7.35-6.91-14.72-8.82-22.66-.27-1.11-.53-2.27-1.18-3.2-5.64-8.11-6.65-17.45-7.51-26.91-.52-5.68,1.41-11.18.88-17.15-3.53,3.42-5.32,7.05-5.42,11.81-.11,5.84-1.83,11.56-1.87,17.46-.04,5.57.22,11.05,1.95,16.4,1.55,4.8,2.96,9.59,2.57,14.8-.18,2.38.6,4.87,1.83,7.03,5.16,9.06,9.24,18.68,14.27,27.81,2.07,3.76,4.78,7,7.58,10.16,6.91,7.81,14.14,15.31,21.95,22.22,2.56,2.26,5.49,4.07,8.75,5.26,1.84.67,3.68,1.39,4.72,3.25.16.91.71,2.04-1.05,1.89Z"/>
  <path class="cls-4" d="M53.41,151.74c2.06,1.64,1.26,2.62-.82,3.02-5.07,1-8.51,4.61-12.11,7.78-3.65,3.22-3.71,14.4-.22,18.1,2.96,3.14,5.18,6.32,6.18,10.74,1.02,4.5,5.74,6.36,9.02,9.2,1.12,2.13.62,3.52-1.92,3.42-2.24-.09-4.52.34-6.73-.37-.97-.08-1.94-.1-2.9-.25-4.33-.68-8.1.66-9.56,4.75-1.61,4.54.05,8.56,4.48,11.06,4.64,1.23,7.12,3.76,7.63,9.03.53,5.52,2.17,10.97,2.92,16.52.18,1.33.27,2.56-.69,3.63-1.54.09-3.08.17-4.61.26-9.84-2.1-19.46-5.07-27.45-11.32-10.05-7.85-16.78-17.58-14.14-31.36.18-.93.13-1.98-.1-2.9-3.52-14.26,1.97-25.88,10.97-36.22,4.8-5.51,10.21-10.5,15.5-15.56,7.93-7.58,13.63-8.13,23.23-2.54-.18.38-.36.75-.54,1.12-1.87,1.07-3.49-.08-5.09-.71-5.08-2-9.79-1.19-13.64,2.41-7.48,6.99-15.24,13.77-21.29,22.12-6.27,8.66-9.61,18.07-6.21,28.87.45,1.43.3,2.9.04,4.35-2.06,11.48,2.87,20.07,11.67,26.6,7.39,5.48,16,8.62,24.87,10.96,2.86.75,4.64.29,3.48-3.27-.87-2.65-1.19-5.42-1.55-8.14-.69-5.21-2.29-9.43-7.25-12.41-5.11-3.07-5.58-8.55-4.43-13.94.78-3.64,3.57-5.24,7.21-5.41,3.54-.17,7.1.12,11.02-.66-7.6-4.44-7.46-13.63-12.98-19.54-5.18-5.55-3.04-17.25,2.85-22.16,3.88-3.23,8.03-6.12,13.12-7.2Z"/>
  <path class="cls-7" d="M239.13,511.63c.11-.42.23-.84.34-1.26,3.94,6.39,5.93,13.64,8.88,20.47,3.01,6.96,7.17,13.33,9.24,20.8,4.57,16.5,9.5,32.9,11.17,50.04-.36,4.1.74,8.05,1.34,12.04.91,6.03.59,6.54-5.32,6.5-1.3,0-2.59.04-3.89.07-1.97,1.43-4.25,1.46-6.52,1.38-13.95-.52-27.31,2.44-40.43,6.8-3.81,1.27-7.54,2.79-11.67,2.41-4.8,1.18-9.58,2.42-13.89,4.98-2.43,3.07-5.01,2.42-7.53.2-2.35-2.08-3.96-4.73-5.24-7.57-3.99-8.9-8.07-17.77-12.28-26.57-.76-1.58-1.7-3.24-.37-5.03.35-.02.7-.04,1.04-.05,2.52.8,3.08,3.22,4.1,5.18,4.74,9.08,8.32,18.72,13.5,27.61,1.83,3.14,3.67,3.94,7.09,2.55,13.3-5.4,27.14-9.15,41.08-12.37,10.3-2.38,20.89-2.99,31.5-2.83,5.97.09,5.81-.05,5.39-6.07-1.58-22.92-6.59-45.08-15.12-66.35-3.38-8.43-7.95-16.4-10.98-25.01-.89-2.52-2.63-4.98-1.42-7.91Z"/>
  <path class="cls-19" d="M104.45,810.26c6.72,9.37,14.9,17.48,22.46,26.13-2.84-.16-4.98,2.05-7.85,2.11-6.17.14-7.71-.89-8.71-6.98-.34-2.07-.57-4.12-2.01-5.78-2.27-4.92-3.29-10.15-3.89-15.48Z"/>
  <path class="cls-5" d="M69.35,587.32c1.3,7.92.82,15.89.67,23.85-1.47-7.92-.62-15.89-.67-23.85Z"/>
  <path class="cls-4" d="M53.41,151.74c-1.87,3.11-5.65,2.99-8.32,4.97-8.46,6.27-10.65,11.48-8.1,21.71.43,1.72,1.65,2.76,2.75,3.94,1.33,1.43,3.09,2.66,3.51,4.61,1.19,5.53,3.81,9.93,8.87,12.71.68.38,1.37,1.05,1.08,1.97-.31,1-1.29.79-2.07.78-3.09-.04-6.19-.18-9.28-.15-8.39.07-12.09,6.7-7.75,14.07.96,1.63,2.34,3.61,3.96,4.16,5.14,1.74,5.88,5.89,6.68,10.27.76,4.15,1.71,8.27,2.55,12.4.4,1.98.31,4.07-2.43,3.33-13.42-3.61-26.69-7.5-35.82-19.24-4.82-6.2-6.37-13.01-4.89-20.64.21-1.09.52-2.35.2-3.34-4.67-14.46,1.67-25.64,10.73-35.9,3.88-4.39,8.21-8.38,12.32-12.56,8.96-9.14,12.56-9.89,24.17-4.95.61.63,1.22,1.25,1.83,1.87Z"/>
  <path class="cls-3" d="M48.72,248.39c.18-8.21-2.11-16.04-3.82-23.95-.7-3.24-4.13-3.38-6.05-5.24,7.46,2.97,11.91-2.95,17.11-6.13,2.32-1.41,3.88-1.83,6.08-.48,9.21,5.63,17.72,3.99,26.3-1.89,7.26-4.98,14.06-10.41,20.21-16.68.86-.88,1.64-2.35,3.17-1.8,1.71.62,1.65,2.32,1.5,3.76-.32,3.15,1,6.48-.96,9.46-2.29-2.31-.32-5.72-2.1-8.53-3.88,2.47-6.88,5.7-10.11,8.55-4.06,3.57-8.56,6.43-12.99,9.45-8.81,6.01-17.69,5.46-26.68.3,2.68,1.46,5.16,3.11,7.57,4.82,6.06,4.29,12.73,4.65,19.58,2.98,6.63-1.61,13.16-3.63,19.09-7.18.82-.49,1.65-1.08,2.7-.58-1.59,7.24-3.34,14.44-4.7,21.72-.75,4-2.62,4.21-5.84,2.87-7.97-3.31-14.21-9.61-22.31-12.71-5.45-2.08-10.57-4.87-15.5-7.98-1.44-.91-2.59-1.09-3.96-.03-.62.48-1.41.77-2.15,1.06q-8.97,3.49-6.82,13.19c.86,3.93,1.6,7.89,2.37,11.85.29,1.48.6,3.04-1.69,3.18Z"/>
  <path class="cls-1" d="M109.33,215.24c-9.84,6.49-20.51,10.19-32.43,9.78-4.31-.15-7.49-2.86-10.99-4.83-2.25-1.27-4.13-3.17-6.7-3.89-.93-.26-2.77.18-2.07-1.71.56-1.51,1.99-1.37,3.32-.79,2.53,1.09,5.06,2.19,7.62,3.22,4.84,1.96,9.52,1.38,14.11-.9,9.27-4.6,17-11.23,24.48-18.23,1.32-1.24,2.35-3.8,4.62-2.74,1.91.9.78,3.23.93,4.92.16,1.78.04,3.58.04,5.37-.06,3.54-2.62,6.33-2.93,9.8Z"/>
  <path class="cls-6" d="M58.18,340.49c-3.65,2.72-6.73,6.33-11.45,7.37-5.74-3.64-9.37-9.36-13.99-14.1-.66-.67-1.73-1.46-1.05-2.44.75-1.08,2.07-.72,3.12-.22,3.22,1.55,6.47,3.07,9.6,4.79,4.33,2.37,9.04,3.49,13.77,4.59Z"/>
  <path class="cls-3" d="M46.82,203.64c1.9-.01,3.81-.14,5.7-.02,2.28.14,3.28-.75,2.95-3.04,1.34,1.03,2.45,2.43,1.58,4.01-.88,1.59-2.55.75-3.83.21-2.06-.87-4.5.49-6.39-1.17Z"/>
  <path class="cls-8" d="M130.08,451.7c3.12.75,5.54-2.5,8.7-1.54-1.07,19.19.59,38.35,1.19,57.5.39,12.32-.2,24.97,2,36.94,3.1,16.89,2.68,33.97,5.14,50.84,1.09,7.52,2.12,14.73,5.89,21.4.69,1.22.86,2.8.99,4.25.57,6.19-.24,6.97-6.48,7.02-15.29.12-30.6-.28-45.81,1.89-5.19.74-10.23,2.04-15.04,3.98-4.17,1.68-6.64.53-8.82-3.21-3.45-5.9-5.44-12.07-5.61-18.94-.55-22.3-1.44-44.6-1.81-66.9-.41-24.28,2.15-48.44,3.78-72.63.28-4.14,2.83-7.56,4.51-11.23,17.47-1.21,34.43-5.25,51.38-9.36Z"/>
  <path class="cls-20" d="M141.66,815.99c1.91,3.2,3.92,6.34,5.7,9.6,1.84,3.38,3.75,2.93,6.61,1.02,6.6-4.42,12.19-9.97,18.03-15.25,1.47-1.33,3.07-2.36,4.79-3.25,4.69-.26,4.94,2.54,3.14,5.49-1.82,2.99-.58,3.46,1.91,3.28,3.85-.28,7.86-.49,10.73-3.58,2.75-2.96,5.78-3.81,9.58-2.3,3.55,1.41,7.61,1.46,10.73,4.03.03.6.05,1.21.08,1.81-.37.35-.8.47-1.29.37-3.45-1.94-7.37-2.37-11.08-3.48-2.44-.73-4.48.39-6.26,1.86-3,2.48-6.58,3.44-10.26,4.12-5.85,1.08-7.62-.21-8.6-6.48-6.97,5.53-13.57,11.12-20.67,16.05-1.51.72-2.82,1.86-4.55,2.11-6.46-2.58-8.32-8.26-9.65-14.31,0-.38,0-.76.01-1.14.35.02.69.04,1.04.05Z"/>
  <path class="cls-8" d="M239.13,511.63c3.86,12.31,10.21,23.59,14.82,35.55,7.47,19.36,12.16,39.47,13.67,60.25.05.65.06,1.3.11,1.95.77,8.72.77,9-7.81,8.84-23.57-.42-45.62,6.33-67.51,13.91-10.07,3.49-9.99,3.51-14.53-6.21-4.55-9.74-9.25-19.41-13.89-29.11-4.82-6.92-2.02-14.5-2.38-21.92-.59-11.95,3.65-23.84-.22-35.84-1.73-5.37,1.21-11.33-.2-16.93-1.65-6.55-.71-12.98-.62-19.55.13-9.84-.81-19.79-1.16-29.69-.31-8.86-1.3-17.68-.31-26.58,13.49-.68,26.97-1,40.47-.24,3.94.22,6.35,3.05,7.15,5.83,3.33,11.64,11.67,19.58,19.12,28.36,4.18,4.93,5.31,11.81,7.82,17.81,1.88,4.5,3.65,9.04,5.46,13.56Z"/>
  <path class="cls-5" d="M148.52,231.83c3.26.34,6.58-.66,9.64,2.08,2.1,1.88,3.13-.83,3.98-2.54,2-4.05,3.9-8.17,6.8-11.67,4.82-5.81,11.48-8.04,18.56-9.43.09.23.18.46.27.69-.06.49-.2.95-.43,1.39-1.14,4.12-3.68,6.33-8.12,6.13-3.34-.15-5.48,1.63-6.78,4.58-.46,1.04-.87,2.14-1.7,2.94-3.11,3.02-3.73,6.57-2.8,10.73.83,3.72.19,6.8-4.54,7.44-2.14.29-3.77,1.89-5.17,3.48-1.85,2.1.46,3.5,1.04,5.2.33.97,1.12,2.27-.91,2.41-2.14-1.3-4.28-2.61-6.43-3.91-.85-1.59-3.16-1.87-3.51-3.91.06-5.21-.1-10.42.08-15.62Z"/>
  <path class="cls-5" d="M148.52,231.83c1.39,5.22,1.51,10.42-.08,15.62-1.96-2.6-.56-5.58-.89-8.36-.36-3-.49-6.03-.72-9.04.57.59,1.13,1.19,1.69,1.78Z"/>
  <path class="cls-5" d="M156.14,614.75c-.1,4.39.92,8.85-.67,13.16.23-4.39-.92-8.84.67-13.16Z"/>
  <path class="cls-5" d="M158.37,255.27c.84-.67.59-1.35.08-2.09-1.11-1.63-4.32-2.89-2.65-5.05,1.76-2.29,4.04-5.29,7.16-5.31,4.83-.03,4.76-3.05,3.82-5.78-2.92-8.55,4.43-12.71,7.5-18.68.63-1.22,2.23-1.36,3.54-1.15,4.82.81,7.66-1.23,8.78-5.89,1.85.57,2.73,2.19,3.88,3.54,3.82,4.46,8.22,8.13,13.97,9.98-5.48-5-9.38-11.81-16.88-14.47,0,0-.08-.1-.08-.1.65-.31,1.3-.63,1.95-.94.95-.14,2-.07,2.84-.46,1.28-.59,3.29-.81,3.44-2.31.15-1.51-1.9-1.91-2.93-2.87-5.4-5.05-9.18-10.68-10.38-18.44-1.04-6.7,1.15-13.75-1.98-20.04-1.79-3.6-5.35-6.13-5.05-10.96.14-2.33-.19-3.62,2.54-2.65,3.54,1.26,3.82-.78,3.77-3.43-.06-3.22.28-6.41-1.77-9.36-1.19-1.72-1.22-3.87-.39-6.05.57-1.49.48-3.45-1.35-4.24-1.21-.52-2.62-1.47-4.06-.12-1.49,1.39-.94,2.79-.52,4.45.97,3.88,3.02,7.59,2.2,11.81-.27,1.43-.32,3.19-1.99,3.54-1.4.3-2.32-1.15-2.97-2.18-1.11-1.77-2.15-3.67-2.74-5.66-1.06-3.54-1.25-7.37-4.23-10.14-1.04-.97-.96-2.37-.37-3.65,1.14-2.44,11.1-6.76,13.7-5.96,2.01.62,10.17,11,10.33,13.15.58,7.73.53,7.86,7.24,9.97,5.92,1.86,7.05,7.75,10.08,11.88,4.61,6.29,8.31,13.25,13.31,19.3,3.1,3.75,1.38,6.95-1.12,9.88-1.42,1.67-1.59,3.3-.48,4.81,1.41,1.91,2.43.3,3.39-.82.66-.77,1.4-.68,2.06.03.88.95.95,2.18.47,3.21-1.86,3.99-1.81,8.2-1.69,12.44-1.85,1.68-3.98.92-6.05.67-2.68-.32-5.13-.06-5.23,3.37-.07,2.28-1.01,5.15,2.37,6.11,2.58.74,6.85-1.66,7.43-4.14.47-2.01-.18-4.3,1.48-6.03,2.15.9,4.1-.16,6.12-.58,3.36-.7,5.56,1.71,5.24,4.09-.37,2.74.37,4.54,1.49,6.71,2.03,3.95.6,7-3.84,8.34-1.33.4-2.15.68-1.56,2.22,1.07,2.77-.32,5.03-1.46,7.39-2.05,4.22-5.99,7.76-4.22,13.37.46,1.46-.8,3.5-2.71,4.22-.92.35-2.18.35-2.58-.69-.66-1.69-.94-3.72.43-5.09,4.3-4.28,1.87-9.66,2.52-14.51.15-1.16-.36-2.46-.01-3.79.49-1.89,1.96-4.77-1.51-4.81-2.82-.04-5.78,1.39-5.98,5.08-.1,1.93.06,3.9.27,5.83.36,3.3-.57,5.89-3.13,8.22-3.94,3.58-3.06,8.17-1.99,12.72.52,2.21,2.14,2,3.73,2.28,1.73.31,2.95,1.43,3.17,3.24.13,1.08-.58,1.88-1.56,2.24-1.63.6-2.59-.23-3.7-1.46-1.2-1.33-2.36-4.54-4.84-2-2.55,2.61,1.8,3.46,2,5.53.16,1.59,4.06.46,2.59,3.03-1.22,2.12-3.24.25-4.88.05-1.11-.14-2.23-.88-3.29-.77-4.11.41-5.88-1.58-6.36-5.41-.54-4.39-2.88-4.5-6.04-2.34-1.21.83-2.58,1.47-3.62,2.47-3.96,3.82-8.24,6.9-14.03,7.04-1.4-1.84.27-2.54,1.31-3.41,1.35-1.12,3.11-1.81,4.02-4.46-6.19,1.19-11.3-1.91-16.88-2.86-.38-.36-.75-.73-1.13-1.09Z"/>
  <path class="cls-22" d="M159.51,256.36c3.15-.37,6.1-.9,9.09,1.42,1.79,1.38,4.68.76,7.05.06,1.04-.3,1.93-.32,2.54.66.67,1.07-.25,1.71-.7,2.54-1.49,2.74-5.55,2.7-6.43,6.05-.08.27-.19.53-.31.78-3.94-3.65-8.19-6.99-11.23-11.51Z"/>
  <path class="cls-17" d="M154.17,828.66c6.55-5.33,13.1-10.67,19.65-16,.86-.7,1.7-1.89,2.93-1.26,1.7.87.55,2.25.24,3.4-.64,2.44.19,3.9,2.78,3.91,4.61.02,9.11-.57,12.95-3.42,5.41-4.02,14-3.31,19.24,1.66,2.55,3.59,2.35,7.36,1.65,11.59-1.29,7.8-2.93,15.65-1.73,23.67,1.71,11.4-3.98,20.05-10.72,28.22-2.2,2.66-4.35,1.64-5.7-1.09-1.51-3.07-2.48-6.37-3.28-9.7-.78-3.22-2.21-6.12-3.92-8.9-1.23-2.01-2.91-3.64-5.3-3.99-5.47-.81-10.94-1.71-16.51-1.31-.91.07-2.1-.19-2.46,1.02-.26.87.53,1.47,1.03,2.09,6.39,7.87,13.64,14.86,21.5,21.23,1.66,1.34,3.51,2.42,5.61,2.88,5.87,1.31,10.47,5.06,15.43,8.07,2.98,1.81,4.47,4.74,2.55,8.38l-.05.08c-3.11,3.34-5.27,7.46-8.7,10.53-3.84,5.58-9.57,9.16-14.47,13.6-4.53,2.5-9.12,4.9-13.59,7.53-4.48,2.64-9.33,3.14-14.17,2.12-4.81-1.01-9.36-.66-13.96.66-.78.22-1.56.47-2.35.67-11.33,2.9-13.25,1.95-16.69-8.98-3.51-11.18-6.78-22.43-10.24-33.62-1.19-3.85-.51-7.39,1.19-10.87.43-.88.85-1.86,1.99-1.9,1.24-.05,1.7.94,1.77,1.93.28,3.7,2.81,3.81,5.61,3.74,3.26-.08,3.28-2.34,3.58-4.72.51-4.03,1.08-8.08,2.02-12.03,1.84-7.78,8.32-11.18,14.51-14.8,2.31-1.15,4.61-2.31,7.31-2.15,4.12.23,4.38-2.37,3.81-5.4-.71-3.71-3.26-6.62-4.57-10.08-.92-2.46-2.07-4.92,1.07-6.72Z"/>
  <path class="cls-12" d="M201.35,909.7c2.24-4.06,4.78-7.87,8.7-10.53-.29,2.59-2.17,4.25-3.78,5.93-1.55,1.62-2.3,3.4-2.52,5.52-.8-.31-1.6-.62-2.41-.92Z"/>
  <path class="cls-5" d="M202.27,630.86c8.47-2.54,16.77-5.62,25.38-7.77,10.98-2.74,22.07-2.98,33.24-2.82-1.93,2.5.1,5.02.02,7.54-.41,12.18,1.06,24.42-.99,36.54-2.96,17.52-3.94,35.42-9.05,52.53-2.11,7.07-5.56,13.76-8.72,20.48-7.99,16.97-18.65,32.61-25.12,50.34-1.07,2.94-2.47,4.02-5.84,3.09-5.45-1.5-10.98-2.73-16.64-3.45-5.35-.68-6.55-2.76-5.09-8,3.26-11.69,1.77-23.47,1.27-35.3-.67-16.06-.9-32.15,4.24-47.77,3.2-9.72,6.75-19.28,11.66-28.27,4.32-7.91,2.29-16.05.99-24.17-.48-3.03-1.27-6.05-1.44-9.1-.16-2.74-1.42-3.79-3.91-3.88Z"/>
  <path class="cls-17" d="M154.17,828.66c-2.55,3.95.29,6.99,1.99,9.99,1.79,3.17,3.1,6.3,3,9.98-.07,2.39-1.19,3.75-3.56,3.48-3.11-.35-6.03.74-9.05.9.71-.76,1.41-1.53,2.12-2.29.87-.26.64-.99.69-1.59,6.28-2.54,6.18-2.49,2.89-9.28-1.36-2.8-3.68-5.56-1.95-9.09,1.37-.56,2.23-2.05,3.87-2.11Z"/>
  <path class="cls-16" d="M150.04,829.26c.55,4.24,2.46,7.96,4.7,11.49,1.02,1.61,2.92,2.87,1.92,5.04-1.16,2.5-3.63,1.48-5.61,1.66-.64.06-1.29-.03-1.94-.06-8.16-3.05-15.14-7.86-20.99-14.23-9-9.79-19.31-18.38-25.29-30.82-3.61-7.49-6.79-15.27-11.4-22.32-2.15-3.28-2.76-7.12-2.08-11.07.75-4.37-1.66-8.14-2.81-12.02-2.94-9.96-1.14-19.68-.25-29.57.54-5.93,1.47-11.34,5.76-15.76.76-.79,1.26-1.91,2.96-1.87,1.04,2.12-.19,4.33-.53,6.27-1.36,7.56-.12,15.02.08,22.53.17,6.27,4.29,10.99,6.04,16.56,2.53,8.08,7.68,15.11,9.09,23.58.2,1.22.88,2.4,1.48,3.52,7.24,13.32,17.09,24.41,29.22,33.55,1.93,3.43,3.86,6.86,5.79,10.29.88,1.56,1.99,2.84,3.87,3.23Z"/>
  <path class="cls-15" d="M210.11,899.09c.68-5.02-1.96-8.23-6.25-9.78-4.53-1.63-8.19-4.87-13.14-5.82-5.64-1.08-9.04-6.15-13.1-9.71-5.46-4.78-10.09-10.53-15.06-15.87-.77-.83-1.69-1.68-.98-2.97.57-1.03,1.67-.79,2.61-.86,6.51-.47,13.02.16,19.36,1.31,6.18,1.12,7.5,7.27,9.42,12.12.97,2.46,1.66,5.2,2.35,7.85.57,2.19.88,5.1,3.1,5.58,2.02.43,3.44-2.22,4.6-3.85,4.92-6.92,9-13.99,8.18-23.22-.87-9.69-.03-19.46,2.3-28.96.76-3.1-1.98-5.13-1.54-7.94.33-.03.67-.07,1-.11,2.25,3.87,2.22,7.91,1.41,12.22-1.53,8.11-2.91,16.23-1.64,24.59,1.65,10.85-4.61,18.93-10.39,26.9-2.65,3.65-2.12,5.15,1.63,6.82,2.51,1.11,4.83,2.75,6.45,5.05,1.58,2.23,2.71,4.6-.33,6.68Z"/>
  <path class="cls-14" d="M187.58,210.37c2.98-.5,5.24.54,7.29,2.8,3.16,3.48,6.64,6.67,9.97,10,.83.84,2.83,1.24,1.88,2.87-.95,1.64-2.47.82-3.81.1-6.67-3.59-12.46-8.14-16.32-14.82.33-.32.65-.64.98-.96Z"/>
  <path class="cls-5" d="M202.21,179.54c1.19,3.73-1.99,6.92-2.44,10.74-.21,1.81-2.26,2.5-4.26,2.47-2.79-.04-5.62-.84-6.46-3.43-1.54-4.71-2.74-9.64-3.25-14.57-.4-3.88,3.86-7.11,8.51-7.42,3.2-.21,7.35,3.9,7.87,7.92.16,1.28.03,2.59.03,4.28Z"/>
  <path class="cls-5" d="M179.87,222.39c2.45.88,5.63.94,6.95,4.17.89,2.17,1.58,5.66-.95,5.69-3.74.04-6.46,9.7-10.86,1.28-.44-.85-.88-1.71-1.24-2.59-2.4-5.79-.52-8.52,6.1-8.56Z"/>
  <path class="cls-5" d="M220.8,208.63c-.02,5.14-2.68,7.36-8.17,7.63-5.31.26-4.37-3.34-4.58-6.53-.26-3.81.66-7.07,5.05-6.02,2.82.68,9-2.14,7.71,4.92Z"/>
  <path class="cls-5" d="M194.38,161.42c-3.7.25-5.74-1.1-5.92-5.18-.16-3.78,2.04-3.75,4.64-3.63,3.57.17,6.27.99,6.25,5.52-.01,4.05-2.68,3.19-4.98,3.28Z"/>
  <path class="cls-5" d="M214.94,178.46c.12,3.22-1,5.64-4.56,5.39-5.31-.37-2.8-5.28-4.08-7.98-.88-1.84.85-2.8,2.8-2.69,3.37.21,6.1,1.1,5.84,5.28Z"/>
  <path class="cls-5" d="M180.43,241.46c4.18,1.51.98,6.26,3.62,8.59.96.85-1.24,1.93-2.41,2.13-1.55.27-8.65-5.23-8.41-6.46.78-3.94,4.66-2.64,7.2-4.26Z"/>
  <path class="cls-5" d="M165.55,247.57c2.57.79,5.33,2.08,7.78,3.92,1.59,1.19,2.16,3.01.88,4.67-1.56,2.02-3.06.78-4.44-.52-2.06-1.94-3.65-4.57-7.11-4.37-1.18.07-1.59-1.06-1.18-2.1.66-1.66,2.18-1.69,4.08-1.61Z"/>
  <path class="cls-5" d="M198.62,233.5c.17-1.87.83-2.85,2.34-2.92.29-.01.9.66.87.96-.16,1.66-1.47,1.79-3.22,1.96Z"/>
  <path class="cls-18" d="M240.51,632.17c1.26-.02,1.88.69,1.56,1.83-1.16,4.18-.87,8.31-.18,12.53.25,1.52-1.17,2.44-2.62,1.33-2.71-2.07-3.23-5.14-3.14-8.3.09-2.82.66-5.52,3.44-7.07.28-.15.6-.21.92-.32Z"/>
</svg>