<?xml version="1.0" encoding="UTF-8"?>
<svg id="Layer_1" xmlns="http://www.w3.org/2000/svg" viewBox="0 0 861.27 1018.91">
  <defs>
    <style>
      .cls-1 {
        fill: #e1af8b;
      }

      .cls-2 {
        fill: #a79890;
      }

      .cls-3 {
        fill: #676968;
      }

      .cls-4 {
        fill: #959391;
      }

      .cls-5 {
        fill: #2a2929;
      }

      .cls-6 {
        fill: #3d3d3c;
      }

      .cls-7 {
        fill: #434343;
      }

      .cls-8 {
        fill: #fff;
      }

      .cls-9 {
        fill: #fdcca7;
      }

      .cls-10 {
        fill: #3d3d3d;
      }

      .cls-11 {
        fill: #969593;
      }

      .cls-12 {
        fill: #454646;
      }

      .cls-13 {
        fill: #676868;
      }

      .cls-14 {
        fill: #3c3c3c;
      }

      .cls-15 {
        fill: #292929;
      }

      .cls-16 {
        fill: #676867;
      }

      .cls-17 {
        fill: #a29891;
      }

      .cls-18 {
        fill: #baa697;
      }

      .cls-19 {
        fill: #fccca7;
      }

      .cls-20 {
        fill: #434444;
      }

      .cls-21 {
        fill: #3e3e3e;
      }

      .cls-22 {
        fill: #949391;
      }

      .cls-23 {
        fill: #a69992;
      }

      .cls-24 {
        fill: #3f4040;
      }

      .cls-25 {
        fill: #8c1d1c;
      }

      .cls-26 {
        fill: #989593;
      }

      .cls-27 {
        fill: #d84140;
      }

      .cls-28 {
        fill: #e2af8c;
      }

      .cls-29 {
        fill: #191918;
      }
    </style>
  </defs>
  <path class="cls-8" d="M131.68,891.58s-4.74,36.57-.43,48.07,32.46-.1,32.46-.1c0,0,7.39-17.88,6.02-47.98s-38.05,0-38.05,0Z"/>
  <path class="cls-8" d="M274.96,891.37s-2.55,35.52,4.72,42.83,29.76,1.67,29.76,1.67c0,0,6.1-21.35,0-44.5s-34.48,0-34.48,0Z"/>
  <path class="cls-8" d="M633.1,894.32s-4.85,35.85,0,40.56,30.67,3.7,30.67,3.7c0,0,7.34-33.71,4.26-48.18s-34.93,3.92-34.93,3.92Z"/>
  <path class="cls-8" d="M774.24,890.44s-1.03,42.39,4.62,48.17,31.08-2.56,31.08-2.56c0,0,7.08-29,1.43-46.49s-37.14.88-37.14.88Z"/>
  <path class="cls-29" d="M759.1,744.06c-8.04-.39-18.65,2.16-23.43-1.99-4.98-4.32-4.14-15.17-6.21-23.07-3.3-12.56-6.91-25.03-10.77-38.94-5.53,17.25-4.1,33.74-5.42,49.82-.81,9.88-3.7,13.92-13.41,13.49-4.89-.21-9.82.44-14.74.7-2.93,2.53-6.54,3.69-10.18,3.23-14.63-1.86-30.11.89-43.55-7.7-18.59-2.11-18.33-2.1-17.59-20.68,2.05-51.68,11.68-102.61,15.01-154.17.83-12.83,10.01-22.16,15.12-33.21,2.66-2.6,5.98-2.18,9.27-2.08,42.25,1.21,84.49,2.24,126.4-5.15,4.06-.72,8.2-1.1,11.76,1.81,13.02,27.81,15.9,58.18,22.01,87.72,7.07,34.18,6.96,69.31,12.99,103.58,2.85,16.17-7.94,16.76-17.71,19.9-15.49,9.8-32.07,11.63-49.56,6.74Z"/>
  <path class="cls-29" d="M129.9,739.52c-18.25-2.08-17.08-2.06-16.76-19.81.88-50.12,11.57-99.28,13.85-149.22.69-15.14,9.16-26.74,16.39-38.99,3.07-2.47,6.59-2.8,10.4-2.61,41.25,2.03,82.47,3.15,123.37-4.49,4.46-.83,8.96-1.21,12.94,1.79,13.05,26.03,15.54,54.84,21.4,82.71,7.25,34.55,7.96,70,13.33,104.79,2.17,14.06-1.4,21.4-15.5,23.19-1.31,2.12-2.9,4.21-5.4,4.6-15.29,2.43-30.37,9.18-46.15,2.44-23.85-3.05-23.75-3.08-29.91-27.13-2.89-11.28-6.23-22.45-10.12-36.4-5.68,17.41-4.28,32.45-4.89,47.17-.49,11.74-4.96,17.02-16.86,15.93-4.03-.37-8.16.4-12.25.66-18.59,5.97-36.43,3.14-53.84-4.62Z"/>
  <path class="cls-27" d="M791.36,526.12c-41.52,8.1-83.44,9.78-125.57,7.67-7.3-.37-14.57-1.47-21.85-2.24,1.04-42.2-4.32-83.85-10.42-125.46-.82-5.59-.16-11.39-.18-17.1.67-2.56,2.54-4.19,4.59-5.56,25.93-17.3,33.09-43.31,34.23-72.43.38-9.53-3.19-19.7,3.51-28.5,3.07-.12,6.14-.25,9.2-.37,7.46,5,7.76,13.03,8.51,20.71,1.15,11.91,3.39,23.57,7.98,34.62,4.36,10.5,14.59,16.05,25.78,14.56,9.65-1.29,14.44-7.2,16.52-19.92,1.85-11.37,3.25-22.66.7-34.18-1.04-4.71-1.37-9.86,2.57-13.92,4.01.07,8.03.14,12.04.21,4.83,4.06,3.45,9.72,3.67,14.88.38,8.98.26,17.94,1.22,26.95,2.35,22.12,14.11,36.94,33.6,46.43,3.28,1.6,6.88,2.84,8.73,6.41-3.3,18.03-7.3,35.97-9.75,54.11-4.18,30.87-4.18,62.03-5.07,93.12Z"/>
  <path class="cls-27" d="M290.09,526.18c-48.64,8.88-97.53,11.21-146.71,5.32.05-46.08-3.36-91.68-18.59-135.66,2.32-7.81,9.56-11.98,13.63-18.5,17.16-20.66,18.5-45.61,19.16-70.7.11-4.36-2.26-8.92,1.51-12.83,2.94-2.5,6.5-2.21,10-2.23,5.35,10.55,3.23,22.52,6.56,33.55,7.14,23.68,31.81,34.12,53.09,21.64,12.51-7.34,14.82-19.79,15.88-32.91.61-7.48-2.71-15.74,3.87-22.2,2.98.2,5.95.41,8.93.61,4.01,3.91,3.55,9.01,3.51,13.89-.23,27.37,8.86,50.74,29.42,69.25,3.9,5.99,12.37,7.82,14.3,15.63-13.12,44.16-12.2,89.84-14.56,135.16Z"/>
  <path class="cls-9" d="M675.67,282.5c-1.39,20.7,1.35,41.64-5.1,62.06-6.37,20.15-17.29,35.91-37.23,44.42-7.71-14.08-7.95-29.86-9.67-45.16-1.8-16.01-4.07-31.19-14.63-44.62-13.45-17.1-20.31-36.92-20.54-59.17-.22-21.72-7.14-42.62-9.53-64.14-3.65-32.83,5.69-64.13,11.03-95.91,1.09-6.45,3.17-12.83-1.61-18.72q.4-9.43,11.29-7.04c-6.87-3.82-16.85-5.12-10.86-16.42,8.53-9.25,19.27-8.62,30.18-6.52,4.73.91,9.31,2.62,13.96,3.97,4.81,6.64,6.02,13.66,2.26,21.2-23.12,15.55-20.78,38.91-19.81,62.32.85,20.46,4.7,40.76,3.17,61.31-.42,5.61.63,10.52,4.59,14.7,12.44,13.11,16.47,29.92,19.51,46.82,1.4,7.77,3.85,14.33,10.05,18.91,8.62,6.37,15.33,14.62,22.92,21.98Z"/>
  <path class="cls-9" d="M806.18,378.89c-30.56-9.22-44.23-26.6-46.59-60.19-.8-11.45-.45-22.98-.62-34.48,2.21-2.41,4.14-5.19,6.69-7.17,17.16-13.3,26.01-30.28,26.47-52.4.15-7.24,3.91-15.55,8.58-21.27,7.16-8.75,8.43-17.87,8.33-28.46-.17-17.14-.84-34.27,1.56-51.48,2.15-15.44-2.58-30.8-4.58-46.16-.41-3.14-3.17-4.5-5.56-6.15-6.18-4.26-10.71-9.9-13.35-16.99-2.36-5.92-2.21-11.51,2.16-16.55,14.55-7.95,29.11-13.02,43.76-.2,3.48,10,2.66,11.31-10.88,15.66,3.91.51,7.34-1.33,9.21,1.97-2.51,20.61,4.44,39.95,10.31,58.79,9.98,32.04,8.33,63.99,3.29,95.94-2.45,15.54-.31,30.96-2.79,46.45-2.6,16.18-7.61,30.97-16.85,44.1-13.75,19.54-12.34,42.63-16.35,64.44-.87,4.73-.47,9.69-2.77,14.14Z"/>
  <path class="cls-19" d="M159.09,293.8c3.15,31.23,2.92,61.68-20.1,86.85-15-1.21-19.49-14.32-26.97-23.97-2.43-3.13-3.34-7.21-4.99-9.62,1.58,9.89,13.58,16.24,12.4,28.51-17.87,11.53-35.86,23.17-57.46,26.06-16.57,2.22-33.31,3.12-49.89-1.05-8.51-2.14-11.38-6.98-11.6-15.87-.74-29.77,6.91-57.35,19.42-83.95,1.37-2.91,2.06-6.14,3.06-9.22.07-.56.13-1.13.18-1.7,2.63-5.97,2.04-12.11.88-18.27-.07-1.14.04-2.28.28-3.39,1.33-4.46,3.31-8.31,9.5-8.16-7.34-4.81-11.18-9.72-5.73-17.34,14.91-6.37,29.42-5.88,43.48,2.5,5.69,5.47,5.38,11.07.35,16.76-2.53,3.61-2.5,8.67-6.71,11.35-15.97,10.2-17.05,26.55-17.42,43.03-.27,11.69-.05,23.4,1.15,35.75,13.82-17.48,37.17-22.37,49.72-40.92,6.2-9.17,15.91-13,26.82-11.68,11.91,1.43,22.46-3.63,33.63-5.66Z"/>
  <path class="cls-9" d="M289.8,378.17c-23.54-17.91-31.98-42.67-32.27-71.13-.05-4.93-.08-9.86-.11-14.79,12.47,4.52,24.15,11.07,38.68,7.38,8.93-2.27,18.67.79,24.01,9.07,10.19,15.79,26.25,24.26,40.82,34.55,3.84,2.71,6.43,7.45,12.54,8.42,1.58-22.07-1.91-43.21-6.33-64.31-.88-4.21-4.06-5.83-6.77-8.23-5.49-4.84-11.23-9.54-13.05-17.19-5.15-5.68-5.39-11.29.26-16.8,14.22-10.28,30.09-5.04,45.43-4.84,1.88.97,2.21,2.68,2.2,4.56-.84,7.74-4.11,13.68-12.37,15.9-1.25.72,1,2.46.1,1.08-.27-.42.1-.53.79-.91,3.5-1.95,6.85-1.7,10.16.43,1.2,1.44,1.58,3.12,1.52,4.94-1.4,7.86-2.19,15.7.72,23.43.04.57.08,1.14.11,1.7,4.55,17.89,14.94,33.51,19.49,51.5,4.03,15.9,3.32,31.82,2.24,47.67-.7,10.23-9.68,11.97-18.37,12.32-29.97,1.18-58.81-2.81-85.2-18.34-1.35-.8-3.1-.92-4.67-1.36-5.85-9.4-3.41-18.71.52-27.87,2.07-4.81,5.55-9.07,5.39-14.69.32-1.62-1.75-.51-.1-.56.27,0,.36.42.09,1.22-5.09,14.75-11.73,28.41-25.84,36.83Z"/>
  <path class="cls-19" d="M248.49,291.64c.09,12.7,1.44,25.48-2.68,37.9-5.55,16.75-17.71,25.88-34.8,25.93-18.33.06-32.41-9.59-37.7-26.09-3.94-12.3-4-25.08-4.22-37.82,10.46-8.65,14.05-33.19,7.15-49.63-4.25-10.14-9.93-19.96-6.57-31.66,1.74.43,3.99-.17,3.82-1.03-.8-4.06-.52-8.16-.51-12.25.03-10.6,5.01-17.13,15.69-18.51,10.92-1.41,21.77-3.67,32.95-1.63,14.55,2.66,17.97,6.12,19.77,20.51.74,5.95-.42,12.41,3.97,17.57,6.26,7.25,1.07,14.08-1.58,20.3-5.33,12.51-9.45,24.52-6.19,38.7,1.78,7.73,3.99,13.78,10.9,17.7Z"/>
  <path class="cls-19" d="M746.92,284c.62,16.71,3.25,33.37.32,50.15-1.92,10.96-5.88,19.61-18.36,21.17-14.64,1.83-25.82-3.54-30.29-15.05-4.15-10.69-7.61-21.72-8.05-33.19-.34-8.81-3.11-16.79-5.66-24.95,1.44-15.71.93-31.08-7.5-45.18-4.4-7.36-5.51-15.36-3.99-23.77,6.87-1.08,3.34-6.4,3.44-9.62.57-17.8,3.49-21.49,21.38-23.42,7.37-.79,14.64-2.46,22.06-2.61,15.6-.3,22.55,5.83,24.9,21.3.84,5.55-.38,11.71,4.25,16.29,6.13,7.06,2.27,14.55-.79,20.58-8.16,16.11-8.26,31.93-1.7,48.27Z"/>
  <path class="cls-19" d="M759.1,744.06c16.61-1.61,33.41-1.78,49.56-6.74-.37,17.81,5.3,34.75,8.11,52.07,3.97,24.4.81,48.22-1.65,72.23-.96,9.35-3.09,18.59-3.73,27.95-.51,7.46-3.85,9.63-10.91,9.89-24.57.89-24.51,1.09-29.4-22.5-1.33-6.42-2.6-12.92-4.78-19.07-7.93-22.41-12.03-45.17-6.83-68.78,3.33-15.11,2.88-30.06-.37-45.04Z"/>
  <path class="cls-9" d="M257.78,743.92c17.33-1.26,34.76-1.88,51.55-7.05-1.83,22.43,6.5,43.56,8.4,65.6,2.03,23.6-2.8,46.35-4.45,69.49-.11,1.61-.84,3.17-1.05,4.79-2.99,22.68-2.99,22.35-25.22,22.73-9.15.16-13.99-1.38-15.13-12.2-2.97-28.33-17.68-54.75-14.14-84.26.78-6.49,1.23-13.05,2.48-19.45,2.64-13.48,1.68-26.64-2.45-39.65Z"/>
  <path class="cls-9" d="M631.39,739.6c17.91,1.49,35.82,2.98,53.72,4.47-7.85,15.83-4.52,32.41-1.61,48.29,3.69,20.14.41,39.06-4.68,58.21-3.15,11.86-6.3,23.79-8.19,35.89-1.45,9.26-4.56,14.51-14.86,12.92-5.24-.81-10.59-.91-15.89-1.35-5.45-.46-7.93-3.98-8.53-8.91-2.69-22.35-5.86-44.67-7.68-67.09-1.81-22.33,4.18-43.94,8.48-65.63,1.15-5.78,2.01-11.31-.77-16.8Z"/>
  <path class="cls-9" d="M129.9,739.52c17.95,1.54,35.89,3.08,53.84,4.62-5.7,15.6-2.47,31.07-.67,46.94,2.44,21.61,1.68,43.42-5.88,64.44-3.32,9.23-5.76,18.76-6.24,28.73-.5,10.38-4.63,17.13-16.82,15.17-4.41-.71-9.03-.18-13.55-.13-5.29.06-8.03-1.94-8.9-7.72-4.43-29.18-8.84-58.28-7.55-88,.59-13.66,4.07-26.67,6.41-39.94,1.43-8.12,2.81-16.16-.63-24.11Z"/>
  <path class="cls-27" d="M614.24,1005.86c.35-16,9.23-29.59,12.69-44.71,1.1-4.79,2.98-9.44,3.71-14.27,2.74-18.09,3.44-18.51,21.79-18.02,7.05.19,9.79,2.73,11.34,9.73,4.95,22.3,3.41,44.83,3.72,67.3-1.55,3.58-4.21,6.22-7.96,6.93-12.45,2.34-24.99,2.34-37.45,0-3.72-.7-6.51-3.2-7.84-6.96Z"/>
  <path class="cls-27" d="M274.96,1005.63c.61-22.39-1.61-44.92,3.46-67.08,1.25-5.47,2.98-10.67,10.19-9.47,7.38,1.22,19.2-4.64,20.83,6.79,3.5,24.52,15.65,46.45,19.09,70.8.34,2.41.65,4.91-1.1,7.04-11.06-.99-22.09,1.39-33.15.4-7.4-.66-14.96-.9-19.32-8.47Z"/>
  <path class="cls-27" d="M776.45,1015.07c-2.93-2.06-2.17-5.2-1.97-7.9,1.68-22.83.3-45.86,4.39-68.56,1.08-6.01,3.22-10.4,10.14-9.54,7.54.94,19.41-4.27,20.95,6.97,3.2,23.43,14.82,44.28,18.4,67.4.12.79-.09,1.63-.15,2.45-3.68,7.71-10.89,7.38-17.83,8.14-11.29,1.23-22.72-2.67-33.91,1.03Z"/>
  <path class="cls-27" d="M114.34,1008.12c-.96-8.8,1.38-17.02,4.62-25.01,5.7-14.05,10.66-28.37,12.28-43.46,1.35-12.53,10.19-10.14,18.13-10.73,8.1-.6,12.82,1.49,14.32,10.64,3.92,23.81,2.62,47.75,3.03,71.65-12.06,3.19-24.35,3.36-36.69,2.79-5.85-.27-11.47-1.23-15.7-5.88Z"/>
  <path class="cls-15" d="M749.41,215.14c-1.52.19-3.31,3.64-4.5-.14-1.33-4.23-3.15-8.56-3.25-12.87-.39-18.05-3.23-20.89-26.26-20.98-.81,0-1.65.08-2.41.32-10.2,3.31-23.84-1.74-30.66,7.73-5.99,8.32-.14,20.55-2.89,31.16-2.21-2.62-4.14-4.91-6.06-7.18-3.88-11.52-4.39-23.42-.85-34.84,5.32-17.13,26.51-30.23,42.46-26.58,22.25,5.09,39.82,16.43,37.1,40.33-.88,7.69-1.78,15.37-2.68,23.06Z"/>
  <path class="cls-5" d="M245.36,214.94c-8.64-1.05-6.43-8.78-7.03-13.4-2.58-20-5.93-23.47-26.33-22.43-7.72.39-15.37,2.35-23.09,2.65-9.61.38-12.74,5.43-12.47,14.18.21,6.93.04,13.87.04,23.13-3.09-3.99-4.95-6.4-6.81-8.8-4.44-12.16-2.57-24.46.38-36.37,6.43-25.94,45.71-28.74,61.74-16.77,15.7,11.72,21.46,26.37,15.58,46.04-1.2,4-1.68,7.79-2,11.78Z"/>
  <path class="cls-10" d="M635.22,56.47c-.75-7.07-1.51-14.15-2.26-21.21.94-8.48,1.95-16.95,2.79-25.44.76-7.64,4.65-10.98,12.35-9.45,2.43,2.7,2.24,5.93,2.04,9.25-1.34,22.45-2.88,44.9,3.77,66.91.71,2.35.88,4.85-1.06,6.91-7.93,2.88-12.35-.76-14.14-8.14-1.5-6.19-2.36-12.54-3.51-18.82Z"/>
  <path class="cls-21" d="M347.57,245.16c-.09,5.6-.18,11.2-.26,16.8-1.16,7.14-2.12,14.32-3.54,21.4-1.26,6.28-4.14,11.16-11.8,10.35-3.34-1.22-3.91-3.98-3.42-6.93,3.92-23.85,3.19-47.68.04-71.53-.21-1.61.43-3.2.97-4.74,8.67-2.57,12.96,1.6,14.33,9.64,1.42,8.3,2.47,16.67,3.68,25Z"/>
  <path class="cls-21" d="M71.9,261.93c-.11-5.59-.23-11.18-.34-16.76,1.29-8.29,2.5-16.6,3.91-24.87,1.36-8.01,5.39-12.4,14.17-9.8,4.02,7.43-1.28,14.35-1.19,21.61.2,16.83-1.34,33.69,1.87,50.42,1.67,8.73-1.02,12.95-10.49,9.23-7.25-8.72-4.56-20.08-7.92-29.83Z"/>
  <path class="cls-6" d="M789.26,37.59c-.72,5.52-1.44,11.04-2.16,16.56-1.1,6.71-1.91,13.48-3.38,20.11-1.66,7.52-5.48,12.54-14.37,9.63-2.31-2.94-1.61-6.21-.85-9.38,5.27-21.72,6.69-43.52,2.07-65.56-.57-2.73-.91-5.72,1.34-8.13,11.17-2.99,12.5,4.83,14.45,12.67,1.98,7.96-3.08,16.7,2.89,24.11Z"/>
  <path class="cls-6" d="M579.18,86.98c-7.72,4.59-11.7-.04-13.52-6.46-6.32-22.27-6.82-44.99-3.44-67.76.92-6.2,4.8-10.19,12.03-8.01,2,2.8,2.64,5.91,2.25,9.29-2.6,22.1-1.93,44.03,3.27,65.74.58,2.41.49,4.87-.58,7.2Z"/>
  <path class="cls-16" d="M843.35,86.73c-9.23-2.58-6.49-10.7-7.85-16.92-1.11-6.77-1.99-13.52,2.26-19.67,4.12-5.97-3.03-10.28-2.29-15.74,1.19-7.69,1.64-15.6,3.79-23.01,1.97-6.75,6.29-11.82,14.47-6.54-1.9,4.73-1.61,9.5-.85,14.48,2.77,18.01,1.71,35.94-2.17,53.7-1.14,5.2-2.52,10.42-7.36,13.71Z"/>
  <path class="cls-3" d="M393,267.06c.1-1.57.19-3.15.29-4.72,5.27-5.91,5.32-11.82.02-17.74-.1-1.43-.2-2.87-.31-4.29.97-7.26.41-14.79,3.28-21.73,2.84-6.85,6.9-11.36,14.8-5.96-2.52,5.96-1.62,11.95-.69,18.12,2.53,16.73,2.61,33.49-.84,50.16-1.01,4.87-2.14,9.64-5.96,13.21-3.53,2.07-4.87-1.86-7.35-2.67,0,0,.1.27.1.27-4.48-7.77-4.36-16.15-3.33-24.66Z"/>
  <path class="cls-10" d="M17.97,294.05c-8.18,4.39-12.86.49-14.45-7.17-4.64-22.37-4.78-44.9.08-67.25,1.62-7.45,6.19-11.79,14.43-6.89,1.51,4.15-.13,8.09-.95,12.04-3.98,19.08-3.99,38.15-.05,57.24.82,3.95,2.47,7.88.94,12.04Z"/>
  <path class="cls-3" d="M79.82,291.76c7.43,1.4,8.56-1.62,7.41-8.57-4.01-24.33-5.23-48.69,2.4-72.69,5.59.37,6.14,5.29,6.88,8.89,4.46,21.52,4.6,43.21-.03,64.68-1.86,8.64-6.89,14.3-16.66,7.7Z"/>
  <path class="cls-13" d="M771.92.82c8.18,27.97,5.89,55.62-2.57,83.08-6.67-1.81-6.93-8.01-7.26-12.78-1.38-20.06-2.27-40.2,2.56-60,1.02-4.17,1.71-9.09,7.27-10.29Z"/>
  <path class="cls-13" d="M329.56,210.51c7.91,23.92,5.67,48.26,2.98,72.6-.39,3.53-2.95,6.92-.57,10.59-6.15.56-7.75-4.2-8.7-8.43-4.98-22.27-4.76-44.67-.06-66.95.65-3.09,1.16-7.74,6.35-7.82Z"/>
  <path class="cls-13" d="M579.18,86.98c-9.26-23.98-9.4-48.67-5.8-73.67.41-2.83.58-5.7.86-8.56,7.63-.23,7.8,6.45,9.02,10.95,1.88,6.96,2.24,14.33,3.25,21.53-3.54,5.72-5.43,11.25.03,17.17,1.87,2.02,1.56,5.17.08,7.79-1.13,8.67,2.93,18.9-7.45,24.79Z"/>
  <path class="cls-6" d="M843.35,86.73c7.32-23.7,10.18-47.67,5.12-72.3-.81-3.94-3.79-10.45,5.26-9.59,6.32,2.47,6,8.96,6.4,13.53,1.7,19.56,1.99,39.25-2.66,58.51-1.62,6.7-4.09,14.23-14.11,9.85Z"/>
  <path class="cls-3" d="M652.87,83.43c-10.25-27.19-8.53-55.07-4.76-83.07,5.66-.35,6.5,4.28,7.61,7.98,6.35,21.14,5.9,42.78,3.77,64.4-.39,3.96-.92,9.33-6.62,10.69Z"/>
  <path class="cls-14" d="M403.59,294.12c5.49-24.87,7.81-49.82.88-74.79-1.9-6.85,2.54-6.33,6.61-6.71,3.54,1.46,4.17,4.65,4.8,7.91,4.18,21.49,3.97,42.93.34,64.53-1.37,8.12-5.43,10.21-12.63,9.06Z"/>
  <path class="cls-13" d="M17.97,294.05c-10.35-27.11-10.42-54.22.05-81.31,8.66,6.14,6.72,15.71,7.86,24.28.85,1.92,1.54,4.38.45,5.88-5.2,7.2-4.81,14.02.06,21.2,1.02,1.5.4,3.97-.76,5.81-.04.7.11,1.35.43,1.97,1.37,7.04.92,13.78-3.23,19.92,0,0,.12-.26.12-.26-1.66.84-3.33,1.68-5,2.52Z"/>
  <path class="cls-28" d="M289.8,378.17c9.45-11.63,17.73-24.06,26.35-36.88-.66,14.22-10.11,27.23-6.42,41.95-1.7,2.59-3.39,5.18-5.09,7.78-5.58-3.55-11.13-7.14-14.85-12.85Z"/>
  <path class="cls-1" d="M119.44,375.57c-5.69-12.3-15.57-22.76-16.02-37.65,10.41,15.56,17.78,33.58,35.57,42.73-3.41,6.3-9.17,10.4-14.2,15.18-1.21-6.91-1.75-13.99-5.35-20.26Z"/>
  <path class="cls-25" d="M614.24,1005.86c17.75,7.78,35.5,7.53,53.25.02,1.98,8.46-1.54,12.37-10.06,12.33-11.05-.05-22.1.09-33.15,0-8.18-.07-12.39-3.6-10.04-12.35Z"/>
  <path class="cls-25" d="M274.96,1005.63c13.81,7.51,28.66,5.62,43.25,4.13,4.51-.46,8.04-1.97,9.22,3.94-2.42,5.33-7.41,4.48-11.75,4.57-9.86.19-19.72-.06-29.59,0-8.63.04-13.53-3.04-11.13-12.63Z"/>
  <path class="cls-25" d="M114.34,1008.12c16.27,2.88,32.53,5.3,48.76-.37,3.03-1.06,2.89,1.8,3.63,3.46.21,4.88-2.99,6.64-7,6.71-12.71.22-25.43.3-38.14.08-6.24-.11-8.79-3.68-7.25-9.87Z"/>
  <path class="cls-25" d="M776.45,1015.07c.61-3.73-1.97-7.56,6.72-5.85,14.69,2.88,30.6,5.07,45.03-3.32,2.19,8.45-1.33,12.66-9.81,12.27-14-.64-28.39,3.59-41.94-3.1Z"/>
  <path class="cls-11" d="M835.47,34.39c7.59,6.39,13.09,12.54,2.08,21.28-3.94,3.13-.52,9.46-2.04,14.13-4.25-4.13.26-10.71-4.15-14.79-3.24-.33-6.49-.65-9.91-1,3.58-5.86,14.19-6.7,11.58-16.63.81-1,1.63-2,2.45-3Z"/>
  <path class="cls-26" d="M25.64,269.9c-.6-2.27-.44-5.55-1.91-6.63-9.15-6.75-9.18-12.87-.03-19.65,1.52-1.13,1.5-4.35,2.18-6.6.73,1.88,1.46,3.77,2.19,5.65-2.72,9.44,4.71,13.42,12.42,19.83-9.34-2.33-12.64,1.76-14.86,7.4Z"/>
  <path class="cls-22" d="M586.63,62.2c-.86-2.91-1-5.52-4.09-8.05-6.83-5.59-4.87-12.25,3.97-16.91.77.18,1.54.37,2.3.58-1.41,9.34,6.31,11.59,12.24,15.57-4.28,2.71-13.29-2.13-12.66,7.9-.56.36-1.14.66-1.76.91Z"/>
  <path class="cls-23" d="M619.1,37.7c5.6,4.7,4.48,8.3,1.63,15.04-3.08-5.94-2.34-9.67-1.63-15.04Z"/>
  <path class="cls-2" d="M802.78,52.17c-4.82-5.77-5.08-9.43-.4-13.96,2.19,4.51,1.52,8.29.4,13.96Z"/>
  <path class="cls-17" d="M58.38,246.94c6.28,7.02,3.2,10.24-2.44,14.4.88-5.2,1.53-9.02,2.44-14.4Z"/>
  <path class="cls-4" d="M393.31,244.6c6.36-.38,8.07,2.91,8.07,8.85,0,5.95-1.77,9.2-8.09,8.88-4-.24-8.01-.48-14.02-.85,7.82-4.45,11.9-9.97,14.04-16.89Z"/>
  <path class="cls-18" d="M361.78,244.65c3.04,6.07,2.33,10.68,1.39,16.07-8.12-4.4-7.62-9.22-1.39-16.07Z"/>
  <path class="cls-20" d="M93.82,263.05c-1.12-.48-1.66-.54-1.85-.82-3.64-5.62-3.07-11.48-.55-17.22.75-1.71,3.01-1.74,3.92.01,3.31,6.34,2.16,12.27-1.52,18.03Z"/>
  <path class="cls-24" d="M766.81,52.87c-3.04-6.23-3.76-12.4,1.44-21.86,1.36,9.57,1.97,15.69-1.44,21.86Z"/>
  <path class="cls-12" d="M326.83,264.72c-4.58-8.52-6.77-14.97.45-22.4,3.21,7.47,2.89,13.69-.45,22.4Z"/>
  <path class="cls-7" d="M656.68,55.01c-7.31-7.74-7.19-13.86-4.18-20.17.26-.54,2.67-.86,2.99-.45,4.48,5.89,2.33,11.93,1.19,20.62Z"/>
</svg>