<?xml version="1.0" encoding="UTF-8"?>
<svg id="Layer_1" xmlns="http://www.w3.org/2000/svg" viewBox="0 0 809.28 879.75">
  <defs>
    <style>
      .cls-1 {
        fill: #606160;
      }

      .cls-2 {
        fill: #5e605f;
      }

      .cls-3 {
        fill: #7e7e7e;
      }

      .cls-4 {
        fill: #fff;
      }

      .cls-5 {
        fill: #7f807f;
      }

      .cls-6 {
        fill: #b9b4b0;
      }

      .cls-7 {
        fill: #7d7e7e;
      }

      .cls-8 {
        fill: #282828;
      }

      .cls-9 {
        fill: #e3ab88;
      }

      .cls-10 {
        fill: #e3aa87;
      }

      .cls-11 {
        fill: #e1a582;
      }

      .cls-12 {
        fill: #7d7e7d;
      }

      .cls-13 {
        fill: #5f6160;
      }

      .cls-14 {
        fill: #292928;
      }

      .cls-15 {
        fill: #e1a581;
      }

      .cls-16 {
        fill: #7e807f;
      }

      .cls-17 {
        fill: #fccaa5;
      }

      .cls-18 {
        fill: #d84140;
      }

      .cls-19 {
        fill: #9c8472;
      }
    </style>
  </defs>
  <path class="cls-4" d="M540.37,750.58s-3.6,30.95-7.57,35.38,42.99,6.62,42.99,6.62c0,0-2.08-24.92-1.05-39.59s-34.36-2.41-34.36-2.41Z"/>
  <path class="cls-4" d="M704.07,754.78s-.9,19.98-2.8,30.75,21.71,11.3,21.71,11.3l24.94-12.31s-8.28-22.27-8.89-38.73-34.96,8.99-34.96,8.99Z"/>
  <path class="cls-4" d="M73.19,751.25s-2.91,28.76-7.95,35.24,44.9,6.13,44.9,6.13c0,0-5.23-24.31-1.23-38.98s-35.72-2.39-35.72-2.39Z"/>
  <path class="cls-4" d="M237.18,754.05s-1.34,31.27-2.37,36.7,41.41-9.56,41.41-9.56c0,0-3.59-12.59-4.37-30.3s-34.66,3.16-34.66,3.16Z"/>
  <path class="cls-17" d="M741.65,478.34c1.77,1.97.88,4.39,1.03,6.6,1.91,29.12-2.93,57.67-7.18,86.28-1.59,10.68-2.9,21.41-3.92,32.15-1.22,12.81.82,25.34,4.2,37.67,5.32,19.41,8.32,39.08,6.95,59.27-1.17,17.22-3.48,34.34-3.95,51.62-.19,6.77-2.74,8.51-9.63,8.51-6.46,0-12.89.11-19.32-1.04-3.03-.54-5.54-1.5-5.76-4.63-1.04-14.58-7-27.6-12.12-40.97-6.37-16.62-10.88-33.74-9.34-51.85.79-9.32.97-18.77,2.75-27.9,1.41-7.29-.6-13.67-2.66-20.09-8.48-26.36-15-53.25-22.37-79.92-1.33-4.81-2.79-9.59-4.2-14.38,16.9-5.68,34.46-7.82,52.08-9.11,8.69-.64,17.4,1.41,26.03,2.69,4.43.66,5.62-.71,5.57-4.77-.1-7.72-.09-15.44,0-23.16.03-2.44-.42-5.09,1.85-6.97Z"/>
  <path class="cls-17" d="M23.63,437.7c4.07-2.48,3.96-6.4,3.53-10.4-1.59-14.86-3.87-29.69-4.59-44.59-.6-12.23,1.2-24.61,4.37-36.39,5.15-19.12,5.86-38.55,6.66-58.07.59-14.39,1.65-28.71,9.02-41.68,2.12-3.73,2.33-7.9,2.26-12.14-.22-13.98.63-27.69,5.48-41.16,7.51-20.85,23.91-29.94,43.67-35.05,5.2-1.34,10.62-1.86,15.94-2.76,3.74,5.09,2.37,11.29,2.8,16.8,1.73,22.04-.66,43.9-5.44,65.48-.45,2.02-1.16,3.99-2.07,5.85-2.37,3.51-5.35,2.28-8.3.99-5.96-2.61-10.59-7.04-15.47-11.44.36,4.7,1.66,9.08,4.35,12.72,4.12,5.58,5.46,11.59,4.04,18.73,1.89-1.72,1.51-3.86,2.46-5.44,2.06-3.45,4.38-4.33,7.3-.95,1.12,6.35-3.72,10.38-6.35,15.09-2.24,4-3.38,7.92-3.55,12.33-1.53,17.95-7.32,35.13-9.72,52.87-2.16,15.94-3.7,31.94-8.41,47.4-3.78,12.38-7.68,24.74-9.85,37.53-.48,2.85-2.5,6.34,1.03,8.61,3.48,2.24,6.77,1.19,9.66-1.52.52-.48,1.16-.16,1.72.12.91,5.66-.72,7.79-6.8,7.74-6.59-.05-13.13-1.34-19.76-1.2-4.03.09-7.79.7-11.13,3.06-1.19.82-2.48,1.41-3.92,1.64-3.8.38-6.8-.96-8.92-4.18Z"/>
  <path class="cls-17" d="M155.29,520.75c-4.13,15.24-8.18,30.5-12.4,45.72-4.56,16.44-8.79,33-14.1,49.21-3.82,11.67-2.56,23.17-.82,34.63,3.49,23-.5,44.74-8.86,66.09-4.71,12.02-9.26,24.16-10.19,37.24-.38,5.41-4.58,6.35-8.42,6.61-7.08.48-14.21.26-21.32.15-3.49-.05-4.98-2.18-5.49-5.59-1.75-11.73-2.25-23.61-3.28-35.39-1.02-11.77-2.09-23.66-1.77-35.59.3-11.14,2.51-21.9,5.11-32.59,2.8-11.53,6.26-23.03,7.13-34.78.64-8.75-1.65-17.72-2.71-26.58-1.86-15.68-3.46-31.4-5.79-47-1.4-9.38-1.59-19.01-4.84-28.08,16.34.58,32.46-2.74,48.76-2.78,11.46-.03,22.66,1.78,33.37,6.06,1.91.82,4.1,1.06,5.63,2.68Z"/>
  <path class="cls-17" d="M234.31,155.77c6.87,3.92,14.87,3.05,22.28,5.33,23.75,7.31,35.34,23.79,39.18,46.99,1.7,10.25,2.88,20.62,2.59,31.08-.07,2.55.35,4.93,1.51,7.26,6.06,12.18,8.46,25.27,8.57,38.69.17,22.58,2.95,44.73,7.76,66.8,3.77,17.31,4.99,34.87,1.48,52.67-1.59,8.06-1.84,16.51-2.85,24.77-.33,2.71-.42,5.5,2.43,7.22-1.46,2.3-2.87,4.68-6.06,4.82-.92-.11-1.73-.49-2.49-.99-3.21-2.25-6.7-3.67-10.69-3.65-.64-.07-1.27-.2-1.89-.37-3.84-1.26-8.18.6-11.82-1.88-.27-.32-.61-.64-.71-1.02-6.46-26.28-15.94-51.87-19.28-78.85-2.67-21.56-6.92-42.75-12.47-63.71-.22-.57-.59-1.38-.26-1.76,4.61-5.22,2.37-10.5.21-15.78.52-5.34,1.17-10.65.03-16.04-.63-2.96.82-5.63,2.54-8.1,3.3-4.75,5.36-10.02,6.26-15.85-4.88,4.33-9.65,8.52-15.22,11.71-3.19,1.83-6.18,2.53-8.86-.83-3.69-7.21-4.89-15.28-5.63-22.96-.93-9.62-2.08-19.3-1.24-29.22.86-10.16,1.9-20.3,3-30.43.22-2.07.04-4.21,1.63-5.88Z"/>
  <path class="cls-17" d="M275.67,515.83c-1.3,14.27-3.63,28.41-5.31,42.63-2.39,20.2-6.53,40.27-5.83,60.78.22,6.48,1.86,12.76,3.47,18.98,5.34,20.65,9.71,41.47,7.73,62.93-1.53,16.57-2.87,33.14-3.89,49.75-.49,8.06-2.65,9.48-10.74,9.57-6.05.07-12.04-.26-18.07-1.02-3.67-.46-5.43-2.36-5.85-5.4-2.82-19.95-10.79-38.38-16.67-57.42-4.46-14.41-4.65-29.09-2.68-43.9,2.22-16.65,1.9-32.73-4.18-49.06-6.21-16.67-9.65-34.37-14.38-51.61-2.86-10.41-5.85-20.79-8.78-31.18,1.77-2.11,4.61-1.66,6.78-2.8,22.13-6.51,44.6-8.37,67.47-5.1,1.25.18,2.46.48,3.61.98,2.24,1.39,4.95.98,7.34,1.86Z"/>
  <path class="cls-17" d="M620.87,520.63c-5.32,19.26-10.65,38.51-15.96,57.77-4.1,14.84-8.4,29.64-12.2,44.56-2.31,9.1,0,18.4,1.09,27.36,2.68,22.31.26,43.63-8.29,64.31-5.11,12.38-9.16,25.06-10.77,38.38-.61,5.01-3.53,7.1-7.8,7.33-6.67.36-13.39.28-20.06,0-3.27-.14-5.94-1.52-6.21-5.64-1.58-24.08-5.21-48.01-5.04-72.22.1-13.93,3.63-27.28,7.4-40.4,5.19-18.08,4.97-35.99,2.27-54.25-2.58-17.46-4.73-34.99-7.13-52.49-.95-6.91-1.17-13.95-3.62-20.6,7.94,1.26,15.69-.62,23.54-1.2,19.48-1.42,39.11-3.47,57.94,4.36,1.73.72,3.57,1.21,4.85,2.72Z"/>
  <path class="cls-17" d="M701.48,135.81c8.27.17,16.27-2.23,24.82-.8,18.07,3.01,30.85,19.46,34.08,34.9,1.67,7.99,3.03,15.97,2.45,24.14-.26,3.57,1.71,6.42,2.66,9.55,6.29,20.77,8.42,42.02,7.34,63.57-.5,9.89,2.35,18.92,5.01,28.1,3.08,10.64,4.79,21.5,5.07,32.55.43,17.29.45,34.57-3.48,51.58-.37,1.6-.02,3.35-.27,4.99-.86,5.77.73,9.76,7.16,10.66,1.64.23,3.31.72,3.99,2.58-5.67,1.06-11.78,1.09-16.86-.58-11.73-3.83-23.06-1.59-34.57-.17-2.44.3-4.85,1.5-7.27-.02-.31-4.37,3.48-4.2,5.93-4.79,4.93-1.2,6.3-3.9,5.44-8.68-1.8-10.06-3.12-20.21-6.31-29.98-6.67-20.37-9.3-41.44-10.67-62.71-.23-3.6-.65-7.05-2.68-10.13-1.87-11.34-8.64-20.86-11.81-31.74-1.21-4.15-2.9-8.15-3.32-12.5.72-3.48,3.59-5.54,5.51-8.24,6.27-8.83,10.94-18.15,9.18-29.57-2.5,4-3.85,8.54-6.09,12.64-1.83,3.35-3.89,6.46-6.94,8.78-1.91,1.46-3.96,2.65-5.94-.01-2.81-7.08-2.95-14.68-3.92-22.05-2.73-20.73-1.89-41.47,1.5-62.11Z"/>
  <path class="cls-17" d="M494.43,395.13c6.42-2.81,6.38-7.72,5.56-13.86-1.93-14.6-4.44-29.36-4.06-43.99.46-17.33,2.16-34.83,8.23-51.45,1.94-5.32,2.86-10.81,2.59-16.54-1.19-25.17,1.36-49.82,9.39-73.89,2.29-6.85.03-14.46,1.86-21.68,3.14-12.39,7.59-23.57,18.64-31.43,12.7-9.03,26.11-9.62,40.36-5.41,2.63,3.99,2.95,8.56,3.03,13.1.26,14.17.47,28.35-.08,42.51-.34,8.68-1.76,17.32-3.62,25.83-3.98,4.1-5.4,4.16-8.9.19-5.34-6.06-7.46-13.91-11.86-20.7-.52,7.61,1.19,14.78,4.6,21.56,2.07,4.11,4.74,7.87,7.57,11.49,1.82,2.33,3.44,4.76,3.32,7.91-1.7,9.53-6.23,18.08-9.54,27.05-1.45,3.93-2.71,7.84-3.63,11.9-4.1,7.07-5.36,14.75-5.48,22.83-.23,15.13-3.44,29.86-7.66,44.27-3.89,13.27-6.49,26.74-8.71,40.34-.65,4.01.75,5.7,4.53,6.53,3.79.83,7.94,1.28,10.4,5.01-1.75,3.66-4.49,1.62-6.93,1.19-12.83-2.29-25.59-5.31-38.6-.47-3.72,1.38-7.8.58-11.04-2.31Z"/>
  <path class="cls-17" d="M125.27,148.31c9.21-6.59,17.73-12.88,16.67-26.7-.89-11.64-2.07-22.75-8.07-32.98-2.8-4.78-3.16-10.16-3.76-15.61-1.19-10.72-3.06-21.32-2.33-32.19.9-13.4,7.2-28.94,24.71-33.29,11.49-2.85,22.15-3.52,33.46-.05,11.87,3.64,25.01,18.5,25.74,30.87.38,6.43.99,12.99-1.03,19.3-2.79,8.72.18,17.96-2.59,26.67-.95,2.98-1.7,5.98-3.36,8.72-7.04,11.65-6.69,24.41-5.18,37.26.17,1.49,1.44,3.07,2.6,4.19,5.26,5.06,10.67,9.96,16.03,14.93.54.69.81,1.47.54,2.32-5.13,16.11-12.55,30.75-25.07,42.64-10.45,9.93-33.74,11.84-45.68-.45-12.54-12.92-19.36-28.31-22.66-45.63Z"/>
  <path class="cls-17" d="M678.57,65.58c3.02,10.47.34,19.63-4.77,29.09-4.75,8.79-5.01,19.16-4.78,29.1.12,5.17,2.55,9.02,9.11,8.11,3.43-.47,7.03.22,10.55.38,1,2.86.32,5.77.3,8.67-3.38,15.19-8.05,30-18.02,42.19-11.73,14.35-22.16,18.6-39.58,13.98-9.88-2.62-15.99-10.51-21.38-18.4-8.61-12.59-12.8-27.05-15.6-41.92-.3-1.61-.58-3.32.38-4.88.83-.04,1.66-.11,2.49-.12,16.31-.21,17.18-1.19,14.86-17.84-1.14-8.17-2.4-16.13-7.11-23.48-4.46-6.96-4.68-15.35-3.96-23.56,3.35-.86,3.16,3.53,6.25,3.9.61-5,2.11-9.88,1.16-15.12-.71-3.92-.89-7.91.84-11.67,1.36-2.94,3.39-5.85,6.64-6.14,14.22-1.23,28.34-5.21,42.77-1.99,6.98,1.56,10.01,4.96,10.39,12.03.41,7.66,2.2,14.95,4.72,22.08,2.96-.51,1.41-4.87,4.75-4.42Z"/>
  <path class="cls-5" d="M494.43,395.13c5.68,1.08,11.06.5,16.81-.87,11.89-2.83,23.79-.84,35.39,2.73,1.33.41,2.67,1.48,3.79-.33,2.08-6.99,3.29-14.4,9.32-19.51.73.08,1.26.45,1.59,1.1.66,4.24-1.61,7.75-3.27,11.24-2.57,5.43-1.91,9.4,2.36,13.98,11.47,12.27,14.54,26.62,7.52,42.23-4.28,9.51-11.43,16.58-21.62,19.66-6.1,1.85-8.05,5.37-7.76,11.53.44,9.39.08,18.81.13,28.22.04,7.53.83,7.9,8.53,7.21,15.35-1.39,30.67-3.67,46.18-2.07,6.69.69,13.25,2.04,19.62,4.04,4.47,1.41,6.63.18,7.63-4.3,3.41-15.29,7.75-30.38,10.33-45.86.59-3.51,1.16-7.03,2.26-10.41,1.05-3.21,2.19-6.87,6.48-6.38,4.07.46,4.09,4.13,4.37,7.28.07.83.07,1.67.04,2.51-.91,4.02,1.95,8.86-2.64,12.06-2.3-4.39-1.45-9.2-1.81-13.85q-2.54-.22-3.46,4.94c-3.8,15.8-7.55,31.62-11.44,47.39-1.08,4.37-2.6,8.63-3.91,12.94-4.8.28-8.76-2.54-13.19-3.68-19.68-5.07-39.29-2.76-58.99-.43-4.71.56-9.94,2.73-14.15-1.78.06-13.56.08-27.12.19-40.68.04-4.71-.87-7.88-6.83-7.52-8.53.52-17.07-.2-25.61-.55-17.13-.7-35.7-19.7-31.47-42.42,2.6-13.93,11.11-22.8,23.61-28.45Z"/>
  <path class="cls-18" d="M269.86,878.3c-9.66.54-18.74-.73-25.98-8.16-4.46-4.58-7.11-9.84-7.05-16.22.09-9.34-1.53-18.14-5.65-26.69-3.07-6.36-3.11-13.26-.03-20.03,2.35-5.17,3.13-10.8,3.65-16.45.4-4.31,1.71-6.97,7.18-5.62,5.32,1.31,10.51.86,12.2-6.15.49-2.04,2.28-3.27,4.67-3.59,10.98-1.44,24.01,7.9,24.18,19.03.25,16.16,5.64,30.64,11.67,45.13,1.84,4.43,2.98,9.07,4.05,13.79,3.66,16.13-5.77,23.31-20.12,24.92-2.89.32-5.85.05-8.78.05Z"/>
  <path class="cls-16" d="M641.5,469.2c1.77-4.1.36-8.44.95-12.63,2.83.56,2.61,2.96,2.78,4.93,1.44,17.03,7.83,32.85,12.02,49.21,1.17,4.58,4.21,4.92,8.25,3.88,16.9-4.33,34.07-6.3,51.55-5.64,5.26.2,10.42.74,15.52,1.9,4.03.92,5.94-.5,5.92-4.71-.03-11.49-1.8-22.9-1.42-34.41.12-3.69-2.52-5.52-5.59-6.78-5.33-2.19-9.5-5.87-13.61-9.83-13.46-12.98-12.44-36.81-1.32-48.63,5.76-6.12,5.65-11.32,1.6-17.79-1.62-2.59-3.56-5.22-3.74-8.51.09-.65.41-1.17.97-1.54,5.89,1.48,6.53,7.36,9.32,11.38,1.89,2.73,3.18,5.8,6.97,6.32,6.75-1.14,13.48-2.27,20.32-2.87,5.25-.46,10.58-1.5,15.41.59,7.42,3.21,15.61.31,22.89,3.57,20.61,12.35,23.81,36.67,12.6,52.91-7.91,11.46-19.41,15.8-32.8,16.07-7.08.14-14.16.02-21.24,0q-7.84-.01-7.51,7.98c.05,1.25.19,2.49.3,3.74.03,10.84-.02,21.68.13,32.52.06,4.17-1.48,5.69-5.68,4.73-24.62-5.67-48.79-2.46-72.77,3.89-2.45.65-4.77,1.41-7.21.2-6.02-16.49-10.79-33.34-14.62-50.47Z"/>
  <path class="cls-5" d="M150.45,519.7c-9.31-1.61-17.91-5.91-27.81-5.59-13.45.43-26.9.21-40.27,2.28-5.02.78-10.27,2.32-14.85-1.59.57-5.55-2.5-6.89-7.25-6.22-9.36,1.31-18.68.57-28.04-.08-21.76-1.52-38.08-27.56-30.22-47.87,4.16-10.76,11.35-18.16,21.62-22.9,3.16.19,5.17,3.91,8.74,2.86.28,2.69-1.56,3.26-3.6,3.64-6.1-2.41-9.89.36-13.59,5.16-4.17,5.42-8.1,10.86-10.48,17.29-2.44,6.59-1.08,13.3,2.48,18.53,6.93,10.19,15.15,19.43,28.93,20.19,2.47-.07,4.95.3,7.49-.14-23.36-16.71-25.44-47.24-.73-65-2.66-.88-5.56,1.44-7.76-.93,7.62-6.22,16.51-3.42,24.98-3.42,2.67,0,5.33.51,8,.78,4.37.43,6.12-1.67,5.64-5.89-1.25-1.49-.76-3.12-.37-4.74,3.8-16.02,9.94-31.25,15.8-46.57.53-1.37,1.44-2.52,2.53-3.52,1.42-1.12,2.9-1.91,4.74-.98.42.56.62,1.19.59,1.9-8.49,16.42-13.31,34.14-18.45,51.76-1.4,4.81-.6,8.24,4.08,11.04,6.35,3.79,11.05,9.61,15.33,15.49,6.73,9.26,5.17,28.94-2.38,37.67-5.51,6.38-11.49,12.11-19.46,15.38-1.49.61-3.69,1.31-3.17,3.26.52,1.96,2.8,1.48,4.38,1.26,12.61-1.75,25.33-2.68,38.01-2.87,13.48-.21,27.08.71,39.01,8.45-.49,2.73-2.29,1.82-3.91,1.41Z"/>
  <path class="cls-18" d="M95.96,375.06c-1.07.51-2.14,1.01-3.21,1.52-2.4-2.67-.98-5.54-.32-8.28,4.85-20.05,6.39-40.21,2.5-60.63-.95-4.97-3.54-9.33-4.79-14.19-.73-2.84-1.57-5.61-1.44-8.57-2.04-6.99,3.02-11.74,5.94-16.87,1.76-3.09,3.36-6.05,4.2-9.46.05-5.21,1.09-10.07,4.87-13.97,8.09-29.29,9.16-59.07,6.26-89.13,4.69-3.26,9.85-5.51,15.29-7.16,4.1,5.7,4.39,12.82,7.16,19.08,4.43,10.04,9.72,19.26,17.93,26.63,11.11,9.98,31.21,9.45,42.32-.97,11.06-10.38,18.23-23.08,22.91-37.36.7-2.14,1.7-4.18,2.56-6.26,6.05.45,10.75,4.3,16.17,6.35,1.15,11.9-2.6,23.37-2.89,35.25-.34,14.38.46,28.41,3.63,42.37.87,3.83,1.17,7.81,3.31,11.26,3.21,4.31,5.3,9.17,7.12,14.17,1.61,2.95,2.97,6.05,4.83,8.86,1.65,1.61,1.86,3.93,2.94,5.83.1.61-.02,1.4.33,1.8,4.55,5.32,3.1,10.04-1.33,14.51.58,1.75-.04,3.32-.81,4.81-5.64,10.9-5.11,22.45-4.59,34.29.71,16.07,3.24,32.01,3.05,48.12-.16,1.13-.52,2.17-1.28,3.04-1.32.8-1.97-.09-2.6-1.03-3.87-12.97-2.98-26.49-4.42-39.74-.67-6.2-1.28-12.44-1.53-18.71-.47-11.98,2.54-22.81,9.26-32.55,3.25-4.71,2.67-8.47-.28-13.12-13.58-21.4-22.04-44.42-21.44-70.23.31-13.15-.6-26.34,2.15-39.35.39-1.85.53-3.8-.35-5.54-1.37-2.7-3.94-3.67-6.73-3.91-2.96-.25-3.82,2.18-4.66,4.29-4.11,10.31-8.34,20.59-15.81,29.02-8.31,9.38-18.11,16.02-31.35,15.84-12.14-.16-21.69-5.69-29.38-14.54-7.53-8.65-11.93-19.05-15.42-29.88-.86-2.68-.77-6.94-5.63-5.74-4.29,1.05-6.34,4.11-5.82,8.4.86,7.07,1.04,14.14,1.13,21.25.31,26.64-4.05,52.41-13.81,77.23-1.61,4.09-3.36,8.07-5.91,11.71-2.88,4.12-4.41,8.71-2.05,13.58,11.95,24.62,10.07,50.32,5.89,76.15-.66,4.05.95,9.08-3.88,11.86Z"/>
  <path class="cls-18" d="M560.88,377.78l-1.5-.15c-1.69-2.93-.13-5.68.52-8.46,2.29-9.77,4.41-19.53,4.13-29.68-.21-7.5.3-15,.74-22.52.61-10.59-3.68-20.46-6.65-30.44-.91-3.05-1.59-6.03-1.44-9.19,1.21-10.82,7.21-19.99,10.4-30.14.93-2.95,2.34-5.74,2.54-8.89.74-6.4.99-12.93,4.77-18.55,2.03-9.38,3.56-18.88,3.84-28.43.53-18.15,1.03-36.34-1.22-54.44,5.48-3.25,11.05-6.14,17.77-4.98,2.41,9.03,3.88,18.3,7.29,27.08,3.88,9.99,8.79,19.12,15.98,27.33,12.22,13.95,34.76,15.67,49.36-1.24,8.75-10.13,14.06-22.07,17.58-34.86.88-3.21,1.68-6.45,2.52-9.67.33-.11.66-.22.99-.34.62.36,1.07.88,1.35,1.54.72,2.05.62,4.16.03,6.17-3.93,13.28-8.65,26.25-17.31,37.28-16.97,21.58-43.79,21.54-60.94,0-9.3-11.67-14.61-25.23-18.1-39.59-.4-1.62-.62-3.29-1.04-4.91-.64-2.51-1.33-5.16-4.81-4.4-3.01.66-5.77,2.04-5.55,5.7.26,4.38.22,8.78.61,13.14,2.54,27.77-.54,54.98-7.85,81.8-2.32,8.5-5.27,16.89-9.3,24.58-5.43,10.37-4.02,19.96-.28,30.12,7.75,21.07,6.62,63.6-1.96,84.29-.58.93-1.37,1.59-2.45,1.85Z"/>
  <path class="cls-18" d="M736.96,879.61c-13.24.89-23.92-2.49-30.93-13.6-3.29-5.22-4.78-11.18-4.55-17.31.32-8.64-1.75-16.17-6.61-23.55-3.09-4.69-4.1-10.67.52-16.24,3.85-4.64,3.35-11.01,4.69-16.63.53-2.22.77-4.51,1.2-6.76.54-2.89,1.9-3.59,4.91-2.64,8.9,2.8,9.59,2.41,14.42-5.45,1.02-1.66,2.32-2.82,4.36-3.22,11.79-2.36,26.15,8.23,26.53,20.32.43,14.03,3.95,27.09,9.89,39.69,2.48,5.27,4.21,10.88,5.54,16.59,3.99,17.21-3.65,27.62-21.29,28.77-3.12.2-6.27.03-8.65.03Z"/>
  <path d="M678.57,65.58c-1.45,1.28-.7,3.18-1.34,4.69-.74,1.74-2.02,2.68-3.92,2.4-1.91-.28-1.8-1.89-2.11-3.34-1.69-7.87-3.57-15.65-3.95-23.8-.21-4.54-3.7-6.93-8.28-8.05-11.1-2.72-21.99.21-32.96.79-1.04.05-2.06.33-3.1.41-11.27.94-14.35,3.99-12.83,14.8.84,5.96-1.04,11.59-.41,17.4.18,1.69-.17,3.55-2.31,3.84-1.81.25-2.3-1.42-3.04-2.67-1.05-1.75-1.28-4.02-3.27-5.17-5.36-18.1-4.05-35.28,7.33-50.95,1.99-2.74,4.68-4.48,8.18-5.32,5.05-1.2,9.91-3.18,14.92-4.58,12.19-3.41,22.9.82,33.06,6.98,3,1.82,5.51,4.44,8.29,6.63,4.85,3.81,7.46,8.59,7.99,14.9.88,10.5.63,20.83-2.25,31.01Z"/>
  <path class="cls-18" d="M716.46,378.98c-.5.09-1.01.18-1.51.27-1.3-.15-1.88-1.07-2.3-2.16-2.96-21.17-2.14-42.47-1.45-63.7.3-9.3,3.8-18.35,6.52-27.32,2.12-6.98,1.25-13.15-1.8-19.87-10.23-22.54-16.94-46.08-19.12-70.92-1.43-16.29-1.31-32.46.19-48.69.31-3.33.24-6.67-.16-10,0-.77.27-1.44.78-2.02,1.29.41,2.57.81,3.86,1.22,1.72,7.61.26,15.3-.56,22.73-1.85,16.72.25,33.08,2.24,49.52.52,4.31,1.39,8.57,2.1,12.85,3.97,4.29,4.63,9.44,3.86,14.96,3.72,11.86,7.4,23.75,13.37,34.74,1.58,2.9,1.58,5.97,1.6,9.09.89,3.03-.28,5.78-1.21,8.53-7.14,21.16-8.65,42.85-6.22,64.94.75,6.84.27,13.77,1.36,20.61.29,1.84-.05,3.77-1.57,5.21Z"/>
  <path class="cls-18" d="M534.13,75.14c0-3.97,0-7.94,0-11.91.01-3.78.62-7.54-5.12-8.18-2.85-.32-3.14-3.18-1.12-5.33,3.44-3.65,7-7.18,10.63-10.64,2.44-2.33,4.84-.79,6.71.83,3.32,2.86,6.38,6.02,9.47,9.13,2.73,2.75,2.88,5.24-1.36,6.38-3.59.96-4.28,3.24-4.23,6.55.16,9.19-.14,18.39.17,27.57.2,5.91-3.17,6.22-7.62,6.2-4.4-.02-7.98-.24-7.59-6.19.32-4.78.06-9.61.06-14.41h-.02Z"/>
  <path class="cls-6" d="M275.67,515.83c-2,1-3.99,2.15-6.1.22.52-1.37,1.99-2.01,2.56-3.36.23-.59.49-1.15.74-1.73,1.42-5.12,5.14-5.98,9.72-5.3,8.24,1.21,16.5,1.18,24.76.41,6.77-1.13,13.08-3.39,18.61-7.56,3.87-2.65,7.28-5.74,9.44-10.01,8.23-19.55,2.82-33.73-12.56-45.23-2.12-1.59-4.33-2.15-6.99-1.27-1.76.58-4.09,1.96-4.93-1.36,2.83-.24,3.26-4.24,6.35-4.07,15.61,5.52,23.35,17.33,26.03,32.98,2.22,12.93-9.44,31.39-22.99,37.1-4.69,1.98-9.42,3.08-14.55,2.95-7.72-.19-15.47.28-23.17-.15-5.03-.28-7.54,1.04-6.92,6.37Z"/>
  <path class="cls-18" d="M697.62,134.58c-.07.36-.14.72-.18,1.08-3.08,1.23-5.7,3.22-8.44,5.01l-.35-.28q-.77-6.59,3.7-7.34c1.45,1.6,3.62.69,5.28,1.53Z"/>
  <path class="cls-17" d="M636.22,460.29c-.35-2.23-.12-4.41.8-6.48.39-.88.92-2.01,2.17-1.19.98.64.75,1.74.5,2.73-3.07.3-1.62,3.78-3.47,4.94Z"/>
  <path class="cls-18" d="M692.33,133.05c-4.75.68-3.21,4.52-3.69,7.34-.37.1-.75.14-1.13.13.03-2.81-.54-5.71,1.18-8.27,1.32-.2,2.71-.73,3.65.8Z"/>
  <path class="cls-2" d="M28.62,443.02c1.78-.02,3.04-.81,3.74-2.46.91-.42,1.82-.85,2.74-1.27,3.86.55,7.51-2.83,12.12-.32-11.27,8.7-20.99,17.61-20.26,33.78.71,15.6,8.56,25.37,21.48,33.05-4.15,2.17-8.27.72-12.19,1.1-18.89-4.71-30.05-30.59-21.07-49.36,2.93-6.11,5.77-12.64,13.44-14.53Z"/>
  <path class="cls-11" d="M103.72,244.6c-1.62,4.66-3.25,9.32-4.87,13.97-2.72-2.31-4.47-1.55-5.31,1.74-.51,2-.78,4.07-1.35,6.05-.37,1.3-1.45,2.13-2.85,1.9-1.68-.27-1.75-1.63-1.35-2.89,2.34-7.41.35-13.72-4.19-19.8-1.92-2.57-2.72-6.05-3.75-9.2-.65-2.01-2.77-4.68-.08-6.15,2.6-1.41,3.84,1.49,5.15,3.31,3.91,5.43,9.64,8.34,15.49,11.01.86.39,2.06.05,3.1.05Z"/>
  <path class="cls-16" d="M308.68,507.1c-8.21,2.17-16.58,1.57-24.75.46-5.56-.75-9.25-.34-10.57,5.7-2.47-2.22-4.83-4.46-8.06-5.76-15.33-6.19-23.5-18.08-24.33-34.18-.75-14.56,6.87-25.45,18.63-33.49,7.54-5.16,7.65-5.07,5.42-14.22-1.83-7.52-4.52-14.78-6.96-22.11-.6-1.79-1.3-3.57-.21-5.42,2.23-1.31,2.77.78,3.81,1.88,1.29,2.31,2.05,4.85,3.02,7.3,2.61,7.46,5.07,14.99,6.31,22.79.65,4.09,2.74,4.78,6.32,5.07,6.6.54,13.21-1.18,19.76.34.47.04.93.08,1.4.13,1.38,1.59,4.71-1.08,5.23,2.39-1.05,1.41-2.94,1.19-4.48,1.98,24.99,17.99,22.96,49.15-.93,65.06,2.71.94,5.46,0,8.07.64.94.22,1.77.63,2.32,1.45Z"/>
  <path class="cls-7" d="M308.68,507.1c-.95-.06-1.9-.13-2.85-.19.52-3.19,3.58-3.83,5.62-5.36,14.08-10.56,18.73-24.81,13.34-41.41-2.3-7.09-6.7-12.38-13.39-15.71-2.26-1.12-4.69-2.06-4.39-5.29.92-.55,1.79-.71,2.55.27.45.41.91.83,1.36,1.24.96,1.11,2.36,1.46,3.31.55,3.76-3.56,6.86-1.34,9.94.94,17.7,13.07,19.98,29.68,13.11,45.89-.23.54-.78.94-1.18,1.41-2.45,3.74-6.33,6.21-8.8,9.93-5.46,4.37-11.47,7.44-18.62,7.73Z"/>
  <path class="cls-15" d="M244.54,259.48c-2.4-4.8-5.07-9.49-6.18-14.82,2.33,1.9,4.29.53,6.18-.78,5.09-3.53,10.64-6.52,13.97-12.09.78-1.3,1.86-2.46,3.53-1.72,1.75.78,1.34,2.45.91,3.8-1.83,5.72-3.44,11.63-7.28,16.37-1.88,2.32-3.05,4.73-2.27,7.37,1.59,5.39.45,10.62-.14,15.91-1.22-1.67-2.45-3.34-3.67-5.01-1.68-3.01-.13-7.82-5.04-9.02Z"/>
  <path class="cls-6" d="M263.16,406.76c4.84,6.31,6.15,14.06,7.27,21.44.93,6.1,2.5,8.29,8.56,6.29,1.71-.57,3.72-.25,5.59-.34,4.14.65,8.54-1.18,12.49,1.3-7.04.46-14.09.86-21.12,1.38-3.95.29-6.17-.81-6.54-5.34-.7-8.55-4.41-16.42-6.26-24.74Z"/>
  <path class="cls-6" d="M309.56,439.41l-2.33-.05c-1.85,1.11-2.99.32-3.78-1.41-1.07-2.03-3.79-.59-4.97-2.37,4.4-.77,7.88,1.13,11.09,3.83Z"/>
  <path class="cls-19" d="M273.16,514.22c-.41,2.16-2.27,1.47-3.59,1.83-13.5-3.55-27.19-3.49-40.95-2.26-10.8.96-21.35,3.26-31.85,5.85-1.71-.35-3.76.62-5.07-1.29,1.42-2.44,3.96-2.92,6.37-3.53,22.49-5.74,45.15-8.08,68.15-3.19,2.45.52,4.96.83,6.94,2.59Z"/>
  <path class="cls-11" d="M709.12,235.87c-1.29-4.99-2.58-9.98-3.87-14.96,8.45-3.51,10.57-11.63,13.89-18.93,1.13-2.49.93-7.32,4.07-6.82,3.92.62,1.94,5.23,1.88,7.95-.31,13.28-7.28,23.47-15.97,32.76Z"/>
  <path class="cls-11" d="M574.39,219.75c-.95,6.35-2.24,12.61-4.77,18.55-1.3-6.86-7.29-10.86-10.25-16.78-3.7-7.41-5.75-15.08-6.1-23.27-.07-1.6-.35-3.83,1.78-4.07,1.81-.2,2.53,1.72,3.2,3.32,2.89,6.86,5.5,13.86,10.13,19.85,1.59,2.07,2.94,4.24,6.01,2.4Z"/>
  <path class="cls-14" d="M134.71,72.93c-5.33-5.8-8.25-11.3-8.43-18.31-.36-14.01-.28-27.78,8.48-39.91,3.33-4.61,6.76-8.36,12.76-9.32,3.79-.6,7.51-1.9,11.14-3.23,14.28-5.24,26.4-.23,38.54,7.06,17.25,10.36,18.23,26.3,16.15,43.48-.6,4.94-2.1,9.77-3.3,14.62-.25,1-.53,2.36-2.03,2.37-1.44,0-1.75-1.17-2.11-2.26-1.89-5.81-3.66-11.52-3.69-17.86-.07-12.25-4.77-16.51-16.95-17.65-13.56-1.27-26.7,2.36-40.1,3.01-6.54.32-9.72,6.11-9.23,14.4.23,3.85,1.27,7.64.58,11.55-.63,3.55-1.08,7.14-1.8,12.04Z"/>
  <path class="cls-9" d="M195.45,121.14c-1.67,5.35-3.38,10.9-5.13,16.43-.48,1.51-2.06,2.21-2.77,1.04-2.38-3.87-4.91-1.44-7.48-.63-7.32,2.31-14.36,2.29-20.69-2.76-5.14-4.1-11.4-7.04-14.15-13.64-.72-1.73-2.06-3.7.01-5.03,1.92-1.23,2.88,1.1,3.89,2.17,2.14,2.25,3.86,4.9,6.02,7.13,10.47,10.76,23.54,9.8,32.5-2.26,1.23-1.66,2.54-3.28,3.93-4.81.8-.88,1.75-2.16,3.12-1.31,1.22.75.72,2.24.75,3.67Z"/>
  <path class="cls-10" d="M656.45,136.33c-1.69-.41-3.43.41-5.16,1.06-12.37,4.67-30.72-3.78-35.67-16.43-.62-1.58-1.65-3.51-.15-4.62,1.82-1.35,2.93.88,3.96,1.98,2.26,2.43,4.16,5.21,6.47,7.59,10.37,10.67,23.82,9.52,32.61-2.46,1.76-2.4,2.58-7.98,6.45-5.94,3.5,1.84-.05,5.88-.97,8.9-.6,1.99-1.03,4.03-1.58,6.03-.79,2.89-2.06,5.14-5.97,3.89Z"/>
  <path class="cls-8" d="M713.7,378.19c.42.35.83.71,1.25,1.06,2.59,4.99,5.12,10.01,7.8,14.95,1.96,3.62,1.59,6.53-1.52,9.48-19.63,18.56-13.54,50.62,12.88,60.48,3.26,1.22,4.72,2.84,4.8,6.28.3,12.52.65,25.04,1.24,37.55.22,4.69-1.58,5.96-5.91,5.02-23.87-5.21-47.35-2.13-70.54,3.96-4.87,1.28-6.67-.17-7.64-4.16-4.32-17.75-12.03-34.7-12.62-53.34-.03-.98-.64-1.93-.98-2.9.02-.21.08-.42.05-.63-.38-2.89,1.13-7.23-3.38-7.48-3.63-.21-3.96,3.73-4.48,6.55-3.53,19.28-8.29,38.28-12.71,57.36-1.08,4.66-2.25,6.18-7.52,4.22-16.81-6.23-34.34-5.8-51.88-4.06-6.84.68-13.69,1.32-20.52,2.1-3.68.42-5.38-.77-5.3-4.74.24-12.95.32-25.91.33-38.86,0-3.53,1.44-4.8,4.91-5.83,22.4-6.64,33.04-27.24,25.26-48.41-1.97-5.36-5.24-10.01-9.55-13.7-3.67-3.15-4.93-6.06-2.43-10.76,2.43-4.56,3.81-9.67,5.65-14.54.44-.47.88-.93,1.31-1.4,4.12-1.78,7.74.59,11.46,1.54,22.38,5.68,45.05,9.05,68.16,7.89,21.27-1.06,42.34-4.13,63.35-7.59,2.84-.47,5.69-1.68,8.54-.03Z"/>
  <path class="cls-1" d="M518.83,463.06c-18.31,5.55-31.42-11.59-34.64-24.92-3.25-13.46,1.17-24.72,10.04-34.34,5.3-5.74,13.43-6.11,20.55-8.19.37-.11,1.25.43,1.39.84.42,1.25-.63,1.84-1.48,2.41-3.43,2.33-6.59,4.76-9.46,7.97-15.97,17.91-7.39,47.31,11.01,54.78.58.23,1.1.61,2.58,1.44Z"/>
  <path class="cls-13" d="M777.86,463.05c-5.57,2.16-11.17,1.28-16.94.24,7.24-3.73,13.3-8.38,17.16-15.59,9.24-17.22,4.96-36.88-11.57-47.44-1.43-.91-4.32-1.24-3.14-3.73,1.14-2.4,3.28-.09,4.98-.08,3.42.01,5.99,3.03,9.51,2.65,3.32-.02,5.8,1.56,8.14,3.83,18.04,17.43,14.01,47.37-8.15,60.12Z"/>
  <path class="cls-3" d="M777.86,463.05c2.25-2.43,4.25-5.18,6.81-7.24,14.58-11.76,14.92-39.33-.65-52.69-1.94-1.66-4.29-2.39-6.14-4.01,5.65-1.68,11.02.86,14.76,6.84,1.75,2.8,1.95,7.19,7.69,5.44,2.62-.8,4.85,5.25,2.87,7.87-1.08,1.43-3.23,2.15-2.43,4.82,1.91.25,3.21-3.01,5.08-1.61,1.9,1.42.87,3.89.89,5.88.14,16.12-14.54,33.7-28.88,34.7Z"/>
  <path class="cls-18" d="M95.96,375.06c2.9-7.51,2.84-15.58,3.79-23.36,1.85-15.1,2.47-30.3-.8-45.47-1.29-5.99-3.68-11.45-6.14-16.82-2.77-6.04-2.28-11.27,1.15-16.47,9.01-13.66,12.9-29.22,16.01-44.86,4.13-20.74,5.34-41.74,2.94-62.87-.36-3.14-1.41-6.69,1.51-9.5,5.41-5.2,10.6-4.07,12.81,2.87,3.29,10.37,7.27,20.34,14.1,29.04,16.92,21.54,43.12,20.89,60.27-.31,7.05-8.71,11.38-18.8,15.19-29.16,1-2.7,1.96-5.92,5.25-4.73,3.75,1.35,9.34.97,9.88,6.94.18,2.04-.27,4.15-.54,6.22-3.07,23.09-4.26,46.2,1.83,68.96,3.72,13.91,9.23,27.2,17.73,39.04,3.23,4.51,4.45,8.35.14,13.81-9.46,12.01-10.19,26.51-8.84,41.14,1.52,16.39,3.17,32.77,4.76,49.16-1.13,2.13-2.92,3.48-5.13,4.37-47.12,18.82-93.98,20-140.54-1.95-2.13-1-4.09-2.11-5.18-4.31-.06-.58-.13-1.15-.19-1.73Z"/>
  <path class="cls-8" d="M96.15,376.78c49.98,25,100.27,24.54,150.85,1.9.44.45.88.9,1.33,1.36,5.26,4.85,8.62,10.75,9.87,17.81,2.58,10.91,7.52,21.1,9.46,32.23.84,4.83-.1,7.16-4.79,9.72-12.69,6.92-20.85,17.96-20.38,32.71.51,16.03,8.61,27.9,24.2,33.84,3.19,1.22,7.11,2.05,6.68,6.91-.12.31-.19.63-.2.96-9.45-1.2-18.86-3.03-28.34-3.45-18.11-.81-35.71,2.92-53.11,7.58-5.94-20.94-14.35-41.29-15.08-63.47-.08-2.41-.65-5.02-3.41-5.2-2.97-.19-3.45,2.81-3.78,4.93-2.22,14.23-5.67,28.19-9.16,42.13-1.82,7.25-2.78,14.76-6.19,21.56-11.25-4.11-22.91-7.06-34.81-7.07-12.69-.01-25.37,1.7-38.06,2.69-2.29.18-4.58.39-6.84.8-2.05.38-3.82.54-4.3-2.09-.42-2.31.1-4.33,2.56-5.01,9.8-2.71,15.95-10.09,22.78-16.89,6.39-6.36,6.76-29.69.55-35.99-5.65-5.74-10.23-12.73-18.1-16.04-1.83-.77-2.72-2.4-2.19-4.65,4.45-18.7,10.18-36.98,18-54.57.47-1.06,1.63-1.81,2.47-2.71Z"/>
  <path class="cls-12" d="M28.62,443.02c-22.97,18.08-19.11,50.4,7.63,63.89-9.58-.02-16.62-5.07-23.06-11.48-7.11-7.08-12.2-15-10.93-25.56.62-5.12,2.6-9.78,5.81-13.88,2.31-2.94,4.66-5.84,6.87-8.85,3.55-4.83,7.44-8.32,13.67-4.12Z"/>
  <path class="cls-6" d="M258.2,397.85c-2.95-6.13-6.04-12.18-9.87-17.81.07-.87.14-1.75.22-2.62,5.59,6.83,10.11,14.23,12.19,22.93-.85-.83-1.69-1.66-2.54-2.5Z"/>
  <path class="cls-17" d="M244.54,259.48c2.34-1.52,3.91-1.4,4.36.9.51,2.63,2.14,5.29.69,8.12-2.7-2.44-3.46-5.96-5.04-9.02Z"/>
  <path class="cls-18" d="M713.7,378.19c-20.8,4.18-41.77,6.81-62.92,8.68-30.39,2.69-59.7-1.6-88.58-10.49,7.4-21.82,6.31-44.42,6.16-66.93-.06-8.98-4.29-16.99-7.15-25.1-2.69-7.61-1.44-13.88,1.49-20.31,11.36-24.96,17.37-50.97,18.6-78.46.66-14.67,0-29.09-1.35-43.59-.57-6.16,4.49-6.51,8.46-7.98,5.09-1.89,4.93,2.06,5.51,4.99,3.15,15.67,8.05,30.58,17.85,43.55,17.72,23.47,46.18,23.56,62.86-2.94,7.38-11.72,13.45-24.53,14.37-38.93.61-5.38,4.26-5.65,8.44-5.01,4.37,4.85,1.51,10.53,1.06,15.5-2.52,27.93-.3,55.32,7.29,82.31,3.55,12.63,8.32,24.79,13.9,36.63,1.7,3.6,2.54,7.17,1.14,10.87-9.74,25.67-8.68,52.42-7.99,79.12.16,6.03,1.44,12.02.84,18.09Z"/>
  <path class="cls-18" d="M541.19,877.03c-3.76,0-7.66.68-11.24-.12-15.3-3.43-18.23-9.64-15.07-26.92,1.43-7.84,4.86-15.08,8.02-22.32,4.16-9.53,6.03-19.46,6.47-29.71.52-12.32,7.75-20.05,19.84-21.23,3.82-.37,7.02.69,8.22,4.15,2.02,5.79,6.45,6.34,11.08,5.45,5.63-1.08,7.25,1.36,7.28,6.26.03,4.88,1,9.74,3.22,13.92,4.34,8.14,2.93,15.81-.9,23.33-3.12,6.13-5.05,12.7-4.42,19.27,1.55,16.29-10.78,29.51-28.75,28.24-1.25-.09-2.5-.01-3.76-.01,0-.1,0-.2,0-.3Z"/>
  <path class="cls-18" d="M74.22,877.33c-4.97-.19-9.96.37-14.88-1.27-10.47-3.48-14.53-10.05-12.7-21,1.35-8.09,3.94-15.85,7.41-23.16,5.4-11.36,6.91-23.37,8.35-35.65,1.6-13.7,9.81-20.15,22.57-19.63,2.02.08,4.07.42,4.66,2.43,1.99,6.81,7.08,7.57,12.85,6.8,5.36-.72,7.79,1.27,7.65,6.76-.12,4.87,1.06,9.68,3.22,13.91,4.14,8.1,3.22,15.83-.94,23.28-3.74,6.7-4.65,14.06-4.37,21.19.63,15.72-10.95,26.05-27.58,26.32-2.09.03-4.18,0-6.26,0Z"/>
  <path class="cls-8" d="M675.04,69.19c-4.09-7.16-4.66-13.57-4.88-20.06-.27-7.87-4.61-12.86-12.35-14.17-7.25-1.23-14.51-1.67-21.77.11-5.32,1.3-10.78,1.17-16.19,1.6-9.13.73-12.44,4.51-12.52,13.7-.04,4.76,1.52,9.52-.08,14.28-.31.93.11,2.27-1.18,2.6-1.51.38-2.29-.85-2.87-1.9-.69-1.27-1.42-2.66-1.56-4.06-1.49-14.72-1.82-29.28,7.33-42.15,2.73-3.84,6.01-6.78,11.01-7.58,3.68-.59,7.36-1.64,10.83-3.02,11.06-4.4,20.91-.6,30.24,4.69,4.83,2.74,8.95,6.84,13.11,10.64,6.16,5.62,4.84,13.54,5.35,20.64.58,8.1-1.37,15.99-4.46,24.69Z"/>
  <path class="cls-16" d="M327.31,499.37c1.41-4.65,5.37-7.06,8.8-9.93-1.48,4.59-5.21,7.21-8.8,9.93Z"/>
  <path class="cls-13" d="M303.44,437.95c1.26.47,2.52.94,3.78,1.41,2.14,4.65,7.55,4.3,11.05,7.37,13.08,11.5,15.78,40.5-4.14,54.87-2.66,1.92-5.52,3.55-8.29,5.31-3.87,0-7.73,0-11.59,0,12.98-8.05,21.01-19.18,21.42-33.88.42-14.91-7.26-26.31-21.25-33.7,3.35-2.22,6.33-.94,9.03-1.39Z"/>
  <path class="cls-18" d="M729.08,77.51c0-3.97,0-7.94,0-11.91.01-3.78.62-7.54-5.12-8.18-2.85-.32-3.14-3.18-1.12-5.33,3.44-3.65,7-7.18,10.63-10.64,2.44-2.33,4.84-.79,6.71.83,3.32,2.86,6.38,6.02,9.47,9.13,2.73,2.75,2.88,5.24-1.36,6.38-3.59.96-4.28,3.24-4.23,6.55.16,9.19-.14,18.39.17,27.57.2,5.91-3.17,6.22-7.62,6.2-4.4-.02-7.98-.24-7.59-6.19.32-4.78.06-9.61.06-14.41h-.02Z"/>
</svg>