<?xml version="1.0" encoding="UTF-8"?>
<svg id="Layer_1" data-name="Layer 1" xmlns="http://www.w3.org/2000/svg" viewBox="0 0 1080 1080">
  <defs>
    <style>
      .cls-1 {
        fill: #e6b68c;
      }

      .cls-2 {
        fill: #dee4e3;
      }

      .cls-3 {
        fill: #e9bb95;
      }

      .cls-4 {
        fill: #f2caa9;
      }

      .cls-5 {
        fill: #131313;
      }

      .cls-6 {
        fill: #6c95b2;
      }

      .cls-7 {
        fill: #f7cca7;
      }

      .cls-8 {
        fill: #ddae87;
      }

      .cls-9 {
        fill: #f3e0c9;
      }

      .cls-10 {
        fill: #2a2b2c;
      }

      .cls-11 {
        fill: #f8cca7;
      }

      .cls-12 {
        fill: #d84140;
      }

      .cls-13 {
        fill: #1f75b7;
      }
    </style>
  </defs>
  <path class="cls-12" d="M948.46,447.08c.06-.86,1.18-1.9,1.82-2.18,6.68-1.98,11.23-1.28,17.72-.48.69.09,7.3,2.52,8.08,2.75,1.7.49,3.26.95,3.82,1.38.38.29,1.28.57,2.51.99,1.65.57,3.54.68,5.39,1.05,8.44,1.68,18.39,2.73,25.11,8.63,1.73,1.52,2.63,2.9,3.96,4.68.55.74,2.86,2.37.82,3.07-9.51-13.8-22.85-12.26-37.39-15.8-10.59-2.58-20.41-9.22-31.84-4.07Z"/>
  <path class="cls-2" d="M923.37,464.36c-5.25-2.76-8.52-7.87-14.12-10.53-4.07-1.93-8.69-2.19-12.7-4.16.48-.02,1.51-1.29,3.8-.86,9.04,1.7,18.34,7.94,23.02,15.55Z"/>
  <path class="cls-12" d="M883.56,396.09h-.87c-5.97-5.06-6.9-5.24-14.71-2.59.21-.62-.27-2.35,0-2.58.31-.26,7.12-.93,8.11-.85,3.6.33,7,2.38,7.46,6.02Z"/>
  <path class="cls-12" d="M157.5,400.41c1.14-4.17,8.59-6.19,12.44-5.22,1.03.26.41,1.63.54,1.76-5.36-.8-8.62.94-12.98,3.46Z"/>
  <path class="cls-2" d="M943.27,483.37c4.53,1.16,9.68,3.85,11.25,8.64-3.55-2.83-7.86-5.21-11.25-8.64Z"/>
  <path class="cls-12" d="M175.67,402.14c.16.13,1.23-.31,1.58.12s2.74,9.33,1.02,10.25c-.03-.23-1.39-2.79-1.73-4.32-.4-1.78-.35-4.16-.87-6.05Z"/>
  <path class="cls-2" d="M933.75,475.6c1.68-.08,3.3.77,4.63,1.67.98.67.44,1.66.56,1.78.2.23.85.73,1.73,1.73-2.73.56-1.37-1.29-1.73-1.73-.2-.25-3.24-1.66-5.19-3.46Z"/>
  <path class="cls-9" d="M375.58,551.64v1.73c-1.43,0-3.45,1.28-5.19.86,1.62-1.85,2.68-2.23,5.19-2.59Z"/>
  <path class="cls-2" d="M890.48,449.67c-.76-2.57,3.27-2.75,2.6,0-.86,0-1.73.02-2.6,0Z"/>
  <path class="cls-2" d="M819.52,463.5l-.87,1.73c-.01-.1-1.41-1.17-.86-1.72.22-.22,1.45.19,1.73,0Z"/>
  <path class="cls-6" d="M646.44,403c-1.24-.38-1.72-1.33-1.73-2.59.67.93,1.24,1.31,1.73,2.59Z"/>
  <path class="cls-9" d="M375.58,549.91c.02-.38-.4.27,0-.86v.86Z"/>
  <path class="cls-12" d="M883.56,396.95c-.38-.26-.59-.63-.87-.86h.87c.04.28-.02.58,0,.86Z"/>
  <g>
    <path class="cls-11" d="M375.58,553.37c9.74-.06,31.1,14.14,32.88,25.06-.93.4-.95.78-.87,1.73-.28.15-.54.63-.87.86-1.44,1.04-5.38,2.51-3.46,5.19-.19.36-.8,1.54-.87,1.73l-2.6,3.46c-.3.3-3.83-3.98-5.18-2.59-1.52,1.57,2.89,4.48,3.28,5.78.64,2.12-1.24,6.81,1.91,6.31-.09.85.05,1.74,0,2.59-3.47-.51-4.08,2.46-4.33,2.59-.31.16-5.54.67-6.92.86-.1.01-.69-.9-1.91-.73s-9.21,2.27-9.34,2.9c-.68,3.39,8.52,2.17,10.38,1.28-1.17,9.92-3.02,19.55-4.33,29.38-6.11,2.09-12.62,3.11-18.76,5.03-1.31.41-2.84.41-2.88,2.31-.03,1.53,20.04-.34,21.53-2.3.4-.53.06-1.71.12-2.45l10.53,14.1c5.64,15.17,12.88,29.9,24.52,41.19.99.96,9.71,7.75,10.35,7.77,1.8.05,10.74-8.17,12.48-10.01,11.44-12.09,17.66-29.63,26.39-44.07.42-.7,2.65-2.15,3.12-2.94,4.28,5.78,13.01,7.27,19.9,6.91-.15-3.72-5.24-2.9-7.72-3.95-3.36-1.41-6.6-5.54-10.45-6.42,1.14-3.67,1.52-13.15,1.73-17.28,1.05,1.06.2,2.41,2.11,2.66,3.43.46,8.55.01,11.75-1.38-.02-2.38-4.24-1.01-6.25-1.53-2.26-.59-5.13-2.69-7.6-3.21-.43-1.74-3.14-6.58-5.19-6.91,3.28-3.84,1.46-9.38.86-13.82,3.03-.89,6.02-.66,9.1-.87,5.37-.36-.44-3.73-2.82-4.13-5.13-.85-8.95,3.06-9.74-4.07-.24-2.16-.24-6.05,0-8.23.37-3.36,7.25-11.72,9.94-14.7,7.76-8.61,11.61-9.76,21.21-14.68l.87-.86c.56-.28,1.22-.52,1.73-.86,2.94-.52,3.68,6.74,3.48,8.16-.18,1.24-2.31,3.09-1.71,3.9.15.21,2.01.09,2.45,1.43.55,1.66-.11,4.26.48,6.49.4,1.51,1.82,1.38,2.37,2.82,4.42,11.61,5.37,25.48.55,37.13-.53,1.28-2.22,1.19-2.44,2.04-1.09,4.16-1.52,26.57-1.71,32.23-.03.86,0,1.73,0,2.59l-6.21,11.51c-8.83,14.26-22.36,23.03-34.47,33.84-10.58,9.45-12.43,17.32-11.24,31.55-.7.82-1,1.06-1.73,1.73-2.73.07-6.58,2.24-6.92,5.19-.51.1-1.16-.05-1.73,0-1.41.13-2.9-.04-4.33,0l10.38-7.36c.34-1.79-.69-1.45-1.97-1.11-1.61.44-7.59,4.03-8.4,3.28.99-3.29,4.27-5.79,4.99-9.26s-.11-6.43-.67-9.74c-4,.06-2.15,5.05-2.82,7.98-.32,1.41-4.31,10.53-6.69,8.43-.51-.45.86-2,.86-2.15v-16.42c0-.49-1.28-1.92-.87-3.03-.13-.12-3.46.69-3.46.87v19.88c-6.88-.78-4.61-10.17-7.36-14.7-4.34.12-1.16,11.42.07,13.77,1.17,2.22,3.62,2.57,4.69,4.38-4.24.87-14.23-8.39-8.35.58l10.09,4.62c-2.41-.12-4.48.27-6.96-.4-1.04-.28-13.42-7.1-13.88-7.74-1.87-2.58-.41-16.18-2.11-20.36l-30.68-28.17c-16.58-17.7-21.59-32.08-19.98-57.01.51-7.79,4.94-14.09,5.31-18.1.3-3.26-1.48-4.92-1.83-7.76-2.08-16.97,1.65-28.62,12.14-41.08.26-.31.6-.56.87-.86,1.74.41,3.76-.86,5.19-.86Z"/>
    <path class="cls-11" d="M341.83,469.55c1.29-.92,3.22-2.47,4.7-2.65,2.7-.33,14.28-.29,15.7,1.75,1.62,2.31-6.82,15.25-7.86,19.04-.46,1.68-1.35,2.96,1.31,2.6-1.83,1.26-2.69,1.25-3.46,1.73l-1.29-3.45c-12.44,4.81-20.56,15.88-30.32,24.17-3.44,2.92-10.06,6.27-12.54,9.08-4.69,5.31,8.44-.74,10.7-2.28,3.68-2.5,7.05-7.92,11.82-8.5-.22.94.13,2.37,0,3.46,0,.08-.74-.1-.84,1.28-.19,2.73-1.13,8.32,2.57,8.23.22,1.45.74,2.67.87,4.32.02.21-2.33,2.3,1.73,2.59.21.5.6.96.87,1.73l-.86.44c-.3,1.6.25,1.37,1.72,1.29.18.44-.19,1.55,0,1.73-.21,1.84-.11,1.93,1.73,1.73.1.27-.13.79,0,.86-.21,1.84-.11,1.93,1.73,1.73.82,1.38,1.64,3.15,2.6,4.32.02,1.72.85,2.68,2.6,2.59.05.25.02.6,0,.86-.23,3.62-3.12,4.57-6.15,6.39-12.13,7.27-27.76,15.26-41.36,7.75-2.14-1.18-8.04-7.26-8.56-9.56-.57-2.53-.45-9.13-.11-11.85,1.06-8.43,10.29-25.92,15.51-32.91,5.52-7.38,25.37-24.14,27.69-30.68.09-.26-.09-.6,0-.86,4,.5,5.63-2.07,6.92-5.19,1.67.29,1.99-1.3,2.6-1.73Z"/>
    <path class="cls-12" d="M421.44,492.88c22.75-10.46,54.16-4.08,73.27,11.13.72.57,2.5.71,2.75,1.1.71,1.11-.55,5.9.57,5.92,3.8-6.44,1.5-13.19,1.3-19.88,2.27-.78,2.4,4.65,2.49,5.73.72,9.16-2.01,10.98-3.15,18.23-.91,5.83,2.65,31.37,4.12,38.26-1.16.19-1.8,1.19-2.6,1.73-.51.34-1.17.59-1.73.86-.38.19-.62.74-.87.86-9.6,4.91-13.46,6.07-21.21,14.68-2.69,2.98-9.57,11.34-9.94,14.7-.8-.13-1.91.19-2.6,0-3.48-.95-5.68-6.47-9.21-8.51-7.96-4.6-26.43-6.24-34.91-3.15-3.95,1.44-5.56,2.6-10.39,3.88-.29.08-.64-.1-.87,0-1.78-10.92-23.15-25.12-32.88-25.06v-1.73c0-.57-.03-1.16,0-1.73v-.86c1.37-3.93,4.99-9.48,6.92-13.4l-4.32-.43c7.63-3.14,5.08-2.48,9.93-7.8,4.27-4.68,22.27-18.03,23.21-20.07,2.39-5.2,1.07-5.9,5.81-11.02.67-.72,2.86-1.87,4.33-3.46ZM415.39,571.51c.27-.27,2.75.91,3.87.88,2.89-.08,6.52-1.51,9.54-1.72,7.78-.55,19.89,1.4,26.7,5.28,2.35,1.33,4.76,5.47,6.61,6.42,2.76,1.42,3.99-3.79,5.24-5.18,4.07-4.56,10.17-11.85,14.6-15.67,2.08-1.79,5.95-2.76,8.28-4.7,1.51-1.25,3.32-4.47,3.9-4.81,1.42-.84,4.44,2.31,5.71-2.1-.48-8.6-3.28-17.87-3.96-26.38-.28-3.48.75-14.92-.43-16.85-.21-.34-6.18-4.53-6.54-4.7-9.28-4.36-21.46-10.27-31.62-11.63-6.26-.84-24.52-.39-29.73,3-1.24.81-1.94,3.6-3.53,4.31s-2.86-1.25-5.65.34c-4.91,2.78-3.59,10.8-6.95,14.68-3.09,3.58-13.36,4.68-16.35,11.33-.64,1.42-.2,4.09-1.27,4.78-1.15.73-3.13-.12-4.81,1.24-3.47,2.82-3.43,9.28-4.28,10.44-.64.88-2.64.55-2.96.9-.43.48.04,3.13-.31,4.45-.36,1.39-1.84,2.94-1.62,4.4.18,1.15,6.98,3.06,8.52,3.75.98.44.96,1.81,1.69,1.98,6.41,1.42,1.95.74,4.56,3.02,1.03.9,4.6,1.6,6.64,3.34s3.72,5.83,4.92,7.18c1.08,1.22,3.54,1.97,4.61,3.18.89,1.01.98,5.56,3.79,1.89.84-1.1.72-2.94.83-3.05Z"/>
    <path class="cls-4" d="M439.62,413.37c4.93-1.09,4.72-9.05,10.65-5.86,1.2.65,1.39,2.59,3.2,2.4-.27,3.21,1.39,3.83,4.33,3.46.89,5.63,11.29,11.55,13.41,16.42,2.61,6.01,1.25,16.86.43,23.33-1.97-1.17-8.7-5.1-10.38-5.19-1.15-.06-3.28.84-5.19.86-.57,0-1.9-.99-3.77-.83-2.8.23-3.91,1.75-5.75,2.56-.32.14-.58.73-.87.86-.69.33-2.66.81-3.46.86-.49-4.85,4.58-6.05,2.6-11.23l-.87-.86c-1.29-3.72-1.86-5.58-2.6-9.51l.85-.43-.85-.43c-.11-.53.1-1.2,0-1.73,2.83-.39,3.99-3.14,6.13-4.68,1.8-1.3,6.13-1.27,5.98-4.82-5.56-1.93-8.91,5.79-13.84,3.45-1-4.31-.87-4.46,0-8.64Z"/>
    <path class="cls-7" d="M369.52,555.1c-10.49,12.46-14.22,24.11-12.14,41.08.35,2.84,2.13,4.5,1.83,7.76-.36,4.01-4.8,10.31-5.31,18.1-1.62,24.92,3.4,39.31,19.98,57.01l30.68,28.17c1.7,4.18.24,17.78,2.11,20.36.47.64,12.84,7.46,13.88,7.74,2.47.67,4.55.29,6.96.4,3.1.15,6.41.1,9.52,0,1.43-.04,2.92.13,4.33,0,.48,2.68-1.35,1.6-3,1.72-4.72.35-10.94,1.6-15.41.68-1.63-.34-17.28-8.69-17.99-9.69-2.04-2.85-.38-16.52-2.12-20.35-1.49-3.28-14.84-12.67-18.5-16.09-7.77-7.25-16.58-16.27-22.58-24.98-4.58-6.66-5.22-9.2-7.65-16.53-.38-1.16-1.55-1.08-1.8-1.84-1.97-5.92-1.67-34.15-.02-40.17,3.03-11.01.99-13.25,1.64-24.44s5.74-23.63,15.62-28.91Z"/>
    <path class="cls-12" d="M457.79,413.37c-2.93.38-4.6-.25-4.33-3.46-3.87-12.23-11.8-6.31-13.85,3.46-.87,4.18-1,4.33,0,8.64.45,1.94,1.23,3.4,1.73,6.05.1.53-.11,1.2,0,1.73.06.28-.05.59,0,.86.74,3.92,1.3,5.78,2.6,9.51.12.35.78.63.87.86,1.99,5.18-3.09,6.39-2.6,11.23-1.82.13-6.36-.82-8.65-.86.38-8.26.78-16.38.91-24.66.13-8.52,1.36-15.41,2.76-23.96,1.93-11.73,18.41-11.63,20.36,0,.59,3.53-.3,7.38.21,10.59Z"/>
    <path class="cls-12" d="M341.83,469.55c-.61.43-.93,2.02-2.6,1.73.1-.25-.11-.62,0-.86,1.53-3.44,2.66-7.35,5.49-10.07,1.61-1.55,5.64-2.88,6.63-3.75,4.39-1.36,8.61-.1,12.98.86.97,1.46,1.38,2.02,3.46,1.72-.58-6.32,2.62-15.07-5.68-16.36-5.02-.78-10.44.5-15.31,1.73-10.29,2.6-18.14,2.58-28.72,4.31-.69.11-8.94,2.52-9.38,2.73-2.59,1.24-1.83,4.26-2.51,4.84-2.23,1.9-4.25-1.48-7.63,6.2-2.75.96-4.4,3.89-4.95,6.67-.12.63.63,1.03.62,1.11-.13,1.28-1.29,3.95.19,5.01,3.52,2.52,21.78-1.52,27.07-1.62,4.03-.08,6.71,2.53,10.82,1.8-.08.26.09.61,0,.86s.09.61,0,.86c-4.05,0-7.56-.96-11.72-.9-6.82.1-19.21,3.7-24.88,2.44-4.51-1.01-4.55-4.99-4.1-8.91.62-5.31,8.25-15.31,12.59-18.53,9.34-6.93,19.78-5,30.19-6.14,8.48-.93,15.37-5.28,25.18-5.18,6.16.07,10.26,1.62,10.82,8.28.19,2.31-.89,14.19-1.7,15.59-3.56,6.19-4.13-2.94-7.52-4.68-7.62-3.91-17.75,2.06-19.36,10.26Z"/>
    <path class="cls-7" d="M502.79,553.37c1.48,6.96,3.27,11.72,4.55,19.22,3.17,18.45,10.79,21.5,3.93,43.26-2.9,9.19-3.05,18.28-5.82,27.18-.59,1.89.22,4.65-1.79,6.27.2-5.66.62-28.07,1.71-32.23.22-.86,1.91-.76,2.44-2.04,4.82-11.65,3.87-25.52-.55-37.13-.55-1.43-1.97-1.31-2.37-2.82-.59-2.23.07-4.83-.48-6.49-.44-1.34-2.3-1.23-2.45-1.43-.59-.8,1.54-2.66,1.71-3.9.2-1.42-.54-8.68-3.48-8.16.8-.54,1.43-1.53,2.6-1.73Z"/>
    <path class="cls-9" d="M503.65,651.89c.08,12.95-20.11,30.9-29.41,39.33-6.41,5.82-18.58,12.44-19.84,21.67-.49,3.61.81,13.36-1.17,15.71-.37.44-1.41.1-1.5.2-1.19-14.23.66-22.1,11.24-31.55,12.11-10.81,25.65-19.59,34.47-33.84l6.21-11.51Z"/>
    <path class="cls-9" d="M450,730.53c-.08.08.32,1.08-.57,1.77-.81.62-5.38,3.22-6.35,3.41.34-2.94,4.19-5.11,6.92-5.19Z"/>
    <path class="cls-10" d="M463.85,586.21l1.73,11.67v19.88c0,.29-1.42,4.63-1.73,5.62s-1.5,5.03-1.73,5.19c-1.06.73-1.09-1.38-1.73,1.73-.06.28.06.59,0,.86-1.13.16-2.36.78-3.46.86-1.42.11-2.9-.04-4.33,0-1.12.03-4.17-1.52-6.06.86-.58,0-1.16-.02-1.73,0-9.67.38-16.07.8-25.96,0-.57-.05-1.16.06-1.73,0-1.7-1.41-7.39-3.39-9.52-3.46-.84-.03-1.42.8-1.73.86-.74.16-1.78-.11-2.6,0,.02-1.11.12-2.39,0-3.46-.16-1.44-.53-2.55-1.73-3.46-.02-1-.74-2.34-.87-3.46-.64-5.66-1.19-10.56-.87-16.42.05-.86-.09-1.74,0-2.59.28-2.79,1.75-10.54,2.6-12.96.07-.19.68-1.37.87-1.73.56-1.05,3.67-2.85,3.46-5.19.32-.23.59-.71.87-.86.6-.32,2.26.74,1.73-1.73,4.83-1.28,6.44-2.44,10.39-3.88,8.48-3.1,26.95-1.46,34.91,3.15,3.54,2.04,5.73,7.57,9.21,8.51Z"/>
    <path class="cls-1" d="M427.5,735.71l-10.09-4.62c-5.87-8.97,4.12.29,8.35-.58-1.07-1.81-3.52-2.16-4.69-4.38-1.23-2.35-4.41-13.65-.07-13.77,2.75,4.53.49,13.92,7.36,14.7v-19.88c0-.18,3.33-.99,3.46-.87-.41,1.1.87,2.54.87,3.03v16.42c0,.15-1.37,1.71-.86,2.15,2.38,2.1,6.38-7.02,6.69-8.43.66-2.93-1.18-7.92,2.82-7.98.56,3.31,1.38,6.3.67,9.74s-4,5.98-4.99,9.26c.81.76,6.79-2.84,8.4-3.28,1.28-.35,2.32-.69,1.97,1.11l-10.38,7.36c-3.11.1-6.42.15-9.52,0Z"/>
    <path class="cls-8" d="M466.44,586.21c-.24,2.17-.24,6.06,0,8.23.8,7.12,4.62,3.21,9.74,4.07,2.38.4,8.19,3.76,2.82,4.13-3.08.21-6.07-.02-9.1.87.6,4.44,2.42,9.99-.86,13.82-.07.08-1.11-.28-1.78.57-1.41,1.79-.78,5.91-3.42,5.48.31-.98,1.73-5.32,1.73-5.62v-19.88l-1.73-11.67c.69.19,1.8-.13,2.6,0Z"/>
    <path class="cls-8" d="M383.37,639.79c-.11.83.06,1.75,0,2.59-.06.73.29,1.91-.12,2.45-1.48,1.96-21.56,3.83-21.53,2.3.04-1.9,1.57-1.9,2.88-2.31,6.14-1.91,12.66-2.94,18.76-5.03Z"/>
    <path class="cls-8" d="M472.5,644.97c3.85.87,7.09,5,10.45,6.42,2.48,1.05,7.57.23,7.72,3.95-6.89.36-15.62-1.13-19.9-6.91.18-.31,1.67-3.27,1.73-3.46Z"/>
    <path class="cls-8" d="M399.81,603.49c-.32,5.86.22,10.76.87,16.42-3.28,0-2.29-2.26-2.6-4.32-.24-1.57.71-2-1.73-1.73-.79-2.59-1.09-5.06-.87-7.78.25-.13.86-3.11,4.33-2.59Z"/>
    <path class="cls-8" d="M402.4,587.94c-.85,2.42-2.31,10.17-2.6,12.96-3.14.5-1.27-4.19-1.91-6.31-.39-1.3-4.8-4.22-3.28-5.78,1.35-1.4,4.88,2.89,5.18,2.59l2.6-3.46Z"/>
    <path class="cls-3" d="M474.23,624.23c2.47.52,5.34,2.63,7.6,3.21,2.01.52,6.24-.85,6.25,1.53-3.2,1.39-8.31,1.83-11.75,1.38-1.91-.26-1.06-1.61-2.11-2.66.05-.94.18-2.7,0-3.46Z"/>
    <path class="cls-3" d="M388.56,606.95c.34,1.25-.77,2.62-.87,3.46-1.86.88-11.06,2.11-10.38-1.28.13-.63,8.09-2.72,9.34-2.9s1.8.74,1.91.73Z"/>
    <path class="cls-8" d="M406.73,581.03c.21,2.33-2.9,4.13-3.46,5.19-1.91-2.67,2.02-4.15,3.46-5.19Z"/>
    <path class="cls-8" d="M409.33,578.43c.53,2.47-1.13,1.41-1.73,1.73-.08-.95-.07-1.33.87-1.73.22-.1.58.08.87,0Z"/>
    <path class="cls-9" d="M497.6,556.83c.24-.12.49-.68.87-.86l-.87.86Z"/>
    <path class="cls-8" d="M352.21,492.01c-4.94,3.05-12.05,9.48-16.87,13.84-2.69,2.44-3.61.18-4.77,5.17-4.77.58-8.15,6-11.82,8.5-2.26,1.54-15.39,7.59-10.7,2.28,2.48-2.81,9.1-6.16,12.54-9.08,9.76-8.29,17.88-19.36,30.32-24.17l1.29,3.45Z"/>
    <path class="cls-5" d="M417.12,496.34c-6.53,1.2-2.24-4.26-.03-6.51,7.6-7.79,26.27-11.2,36.86-9.95,1.63.19,3.28.4,2.98,2.63-.6.56-12.83,1.51-14.94,1.94-3.4.68-18.74,4.93-20.42,6.86-.41.47,0,1.44-.12,1.58-1.47,1.59-3.66,2.74-4.33,3.46Z"/>
    <path class="cls-5" d="M446.54,450.53l7.61-.69c.41,2.02,9.24,7.19,7.1,9.33-1.26,1.26-8.81-3.74-10.62-4.51-2.57-1.1-5.8.66-4.95-3.26.28-.14.54-.72.87-.86Z"/>
    <path class="cls-10" d="M456.06,448.81c-.74,3.06,3.54,1.34,6.05,1.72l-.86-2.59c1.68.09,8.42,4.02,10.38,5.19.76.45.45.95,2.6,1.73-.29,1.65.08,2.01,1.73,1.73.28.4,6.53,2.28,7.79,2.59-.21,1.84,1.65.2,1.73,1.73.23.17,1.56-.39,2.37.21,3.61,2.72,6.59,6.94,8.02,11.02.59,1.68.36,3.85,1.73,5.19.05.57-.04,1.16,0,1.73.1,1.58.78,4.71,1.73,6.05-.01,2.01,2.23,4.12,2.29,6.13.2,6.7,2.37,14.74-3.59,19.8-1.12-.03.14-4.82-.57-5.92-.25-.39-2.03-.53-2.75-1.1-19.1-15.21-50.51-21.58-73.27-11.13.13-.14-.29-1.11.12-1.58,1.68-1.93,17.02-6.17,20.42-6.86,2.11-.42,14.34-1.38,14.94-1.94.3-2.23-1.35-2.44-2.98-2.63-10.59-1.25-29.25,2.16-36.86,9.95-2.2,2.26-6.5,7.72.03,6.51-4.73,5.13-3.42,5.83-5.81,11.02-.93,2.03-18.94,15.39-23.21,20.07-4.85,5.32-2.3,4.66-9.93,7.8-.91.37-5.02,1.51-5.19,1.73-1.77-.25-1.98-.04-1.73,1.73-.52.08-1.61-.14-1.73,0-1.84-.21-1.94-.11-1.73,1.73-.52.08-1.61-.14-1.73,0-1.84-.21-1.94-.11-1.73,1.73-3.78.84-8.43,2.54-11.06,5.11l-7.98.94c.02-.26.05-.61,0-.86-.62-3.36-2.31-2.24-2.6-2.59-.95-1.17-1.77-2.95-2.6-4.32-.14-.23.27-1.2-.13-1.6-.42-.43-1.37.01-1.61-.13-.13-.07.1-.59,0-.86-1.19-3.15-.88-.95-1.73-1.73-.19-.18.18-1.28,0-1.73-.28-.7-.75-1.4-.87-1.73-.27-.77-.66-1.23-.87-1.73-.45-1.09,1.12-3.18-1.73-2.59-.13-1.65-.64-2.87-.87-4.32-.48-3.12-.65-6.56-1.73-9.51.13-1.08-.22-2.51,0-3.46,1.16-4.99,2.07-2.73,4.77-5.17,4.81-4.36,11.93-10.79,16.87-13.84.77-.48,1.63-.47,3.46-1.73,8.96-6.17,19.39-11.75,27.96-18.31,6.77-5.18,14.45-14.49,22.24-17.58,1.12-.45,3.03-1.16,3.17-1.27,1.84.21,2.01-.86,2.01-.86,1.39-.13,6.57.27,6.92,0l1.73-.86c4.46.31,9.31-.09,13.85,0,2.3.04,6.84.99,8.65.86.8-.06,2.77-.53,3.46-.86-.85,3.92,2.38,2.16,4.95,3.26,1.81.77,9.36,5.77,10.62,4.51,2.14-2.14-6.69-7.3-7.1-9.33l-7.61.69c1.84-.81,2.95-2.33,5.75-2.56,1.87-.15,3.2.84,3.77.83Z"/>
    <path class="cls-8" d="M332.31,523.99c-3.7.09-2.76-5.5-2.57-8.23.1-1.38.83-1.2.84-1.28,1.08,2.95,1.25,6.38,1.73,9.51Z"/>
    <path class="cls-5" d="M461.25,447.94l.86,2.59c-2.51-.39-6.79,1.34-6.05-1.72,1.91-.02,4.05-.92,5.19-.86Z"/>
    <path class="cls-8" d="M333.17,528.31c2.85-.58,1.28,1.51,1.73,2.59-4.06-.29-1.71-2.38-1.73-2.59Z"/>
    <path class="cls-8" d="M345.29,547.32c-1.75.09-2.57-.87-2.6-2.59.28.35,1.97-.77,2.6,2.59Z"/>
    <path class="cls-8" d="M338.37,538.68c.24.14,1.18-.3,1.61.13.39.4-.01,1.37.13,1.6-1.84.21-1.94.11-1.73-1.73Z"/>
    <path class="cls-8" d="M336.63,536.09c.85.78.54-1.42,1.73,1.73-1.84.21-1.94.11-1.73-1.73Z"/>
    <path class="cls-8" d="M336.63,534.36c-1.47.08-2.02.31-1.72-1.29l.86-.44c.12.33.59,1.03.87,1.73Z"/>
    <path class="cls-12" d="M339.23,470.41c-.11.24.1.62,0,.86-1.3,3.12-2.92,5.68-6.92,5.19.09-.26-.08-.6,0-.86.84-2.7,4.03-5.13,6.92-5.19Z"/>
    <path class="cls-12" d="M415.39,571.51c-.11.11,0,1.95-.83,3.05-2.8,3.67-2.89-.88-3.79-1.89-1.08-1.21-3.53-1.96-4.61-3.18-1.2-1.35-2.93-5.49-4.92-7.18s-5.61-2.44-6.64-3.34c-2.61-2.28,1.85-1.6-4.56-3.02-.73-.16-.71-1.53-1.69-1.98-1.54-.69-8.34-2.6-8.52-3.75-.22-1.46,1.25-3.01,1.62-4.4s-.12-3.97.31-4.45c.32-.36,2.32-.03,2.96-.9.84-1.16.81-7.62,4.28-10.44,1.68-1.37,3.66-.51,4.81-1.24,1.07-.69.63-3.36,1.27-4.78,2.99-6.65,13.25-7.75,16.35-11.33,3.36-3.89,2.04-11.9,6.95-14.68,2.79-1.58,4.1.35,5.65-.34s2.29-3.5,3.53-4.31c5.22-3.39,23.47-3.84,29.73-3,10.16,1.36,22.35,7.27,31.62,11.63.36.17,6.33,4.36,6.54,4.7,1.19,1.93.15,13.37.43,16.85.68,8.51,3.48,17.78,3.96,26.38-1.27,4.41-4.29,1.26-5.71,2.1-.58.34-2.39,3.55-3.9,4.81-2.33,1.94-6.2,2.91-8.28,4.7-4.43,3.82-10.53,11.11-14.6,15.67-1.25,1.4-2.48,6.6-5.24,5.18-1.85-.95-4.26-5.09-6.61-6.42-6.82-3.88-18.92-5.83-26.7-5.28-3.02.22-6.65,1.64-9.54,1.72-1.12.03-3.6-1.15-3.87-.88Z"/>
    <path class="cls-2" d="M453.46,409.92c-1.8.19-1.99-1.75-3.2-2.4-5.93-3.2-5.72,4.77-10.65,5.86,2.04-9.76,9.98-15.68,13.85-3.46Z"/>
    <path class="cls-8" d="M439.62,422.02c4.93,2.33,8.28-5.38,13.84-3.45.14,3.55-4.18,3.53-5.98,4.82-2.14,1.54-3.3,4.3-6.13,4.68-.51-2.65-1.28-4.11-1.73-6.05Z"/>
    <path class="cls-8" d="M441.35,430.66c-.05-.28.06-.59,0-.86l.85.43-.85.43Z"/>
    <path class="cls-8" d="M444.81,441.03c-.09-.23-.74-.52-.87-.86l.87.86Z"/>
    <path class="cls-12" d="M298.56,462.63c3.39-7.69,5.4-4.3,7.63-6.2.68-.58-.08-3.61,2.51-4.84.44-.21,8.69-2.62,9.38-2.73,10.58-1.73,18.43-1.71,28.72-4.31,4.86-1.23,10.28-2.51,15.31-1.73,8.3,1.29,5.1,10.05,5.68,16.36-2.08.3-2.48-.26-3.46-1.72-.5-.76.5-2.12-2.16-2.6-1.19-.21-10.39-.32-10.83,0-.2.15.2,1.56,0,1.73-.99.88-5.01,2.2-6.63,3.75-2.82,2.72-3.96,6.63-5.49,10.07-2.89.05-6.08,2.48-6.92,5.19-4.1.73-6.79-1.88-10.82-1.8-5.29.1-23.55,4.14-27.07,1.62-1.48-1.06-.32-3.73-.19-5.01.35-2.39,3.24-3.11,3.91-4.32.71-1.3.18-2.9.42-3.45Z"/>
    <path class="cls-12" d="M364.33,457.45c-4.37-.96-8.59-2.23-12.98-.86.19-.17-.2-1.58,0-1.73.43-.32,9.64-.22,10.83,0,2.66.48,1.66,1.84,2.16,2.6Z"/>
    <path class="cls-12" d="M298.56,462.63c-.24.55.29,2.16-.42,3.45-.67,1.22-3.56,1.93-3.91,4.32,0-.07-.74-.47-.62-1.11.55-2.78,2.2-5.72,4.95-6.67Z"/>
    <path class="cls-4" d="M407.6,629.42c-.75,2.08,5.89,3.93,7.62,4.2,1.34.21,1.8-.75,1.9-.74.57.06,1.16-.05,1.73,0-.51,2.35,1.17,1.71,2.71,2,7.57,1.47,12.92,1.21,20.54,0,1.55-.25,3.22.31,2.71-2,.57-.02,1.16,0,1.73,0,1.06,0,4.16,2.4,6.06-.86,1.43-.04,2.9.11,4.33,0l.87,1.73c-.14.21.01,3.28-.66,4.95-5.44,13.51-9.72,13.64-20.53,20.98-2.13,1.45-2.95,4.41-6.06,4.41s-4.29-3.26-6.55-4.78c-2.67-1.8-6.63-3.08-8.9-4.94-4.83-3.96-10.73-15.18-10.08-21.48.06-.6.98-1.69.87-2.59.31-.07.89-.89,1.73-.86Z"/>
    <path class="cls-8" d="M444.81,632.88c.51,2.31-1.17,1.75-2.71,2-7.62,1.22-12.97,1.47-20.54,0-1.54-.3-3.22.35-2.71-2,9.89.8,16.3.38,25.96,0Z"/>
    <path class="cls-8" d="M417.12,632.88c-.1-.01-.56.95-1.9.74-1.73-.27-8.36-2.12-7.62-4.2,2.13.06,7.82,2.04,9.52,3.46Z"/>
    <path class="cls-8" d="M452.6,632.01c-1.9,3.27-5,.86-6.06.86,1.89-2.39,4.94-.84,6.06-.86Z"/>
    <path class="cls-8" d="M405.87,630.28c.11.9-.8,2-.87,2.59-4.08-.58-1.74-2.11-1.73-2.59.82-.11,1.86.16,2.6,0Z"/>
    <path class="cls-8" d="M403.27,626.83c-4.5-.49-1.73-3.18-1.73-3.46,1.2.91,1.57,2.01,1.73,3.46Z"/>
    <path class="cls-8" d="M460.38,631.15c-.73,3.38-2.43,2.33-2.6,2.59l-.87-1.73c1.11-.08,2.33-.7,3.46-.86Z"/>
    <path class="cls-8" d="M462.12,628.56c.28,1.65-.07,2.02-1.73,1.73.64-3.11.67-1,1.73-1.73Z"/>
    <path class="cls-11" d="M396.35,613.86c2.44-.27,1.5.16,1.73,1.73-2.59.4-1.39-.61-1.73-1.73Z"/>
  </g>
  <g>
    <path class="cls-11" d="M932.88,555.1c.57.05,1.22-.1,1.73,0,1.58,4.57,5.99,8,8.68,11.68.55.75,3.21,4.15,3.3,4.42.19.58,1.88,11.14,1.9,12.03.05,2.1-2.05,15.75-2.61,17.94-.21.83,0,0,.06,3.04.02.8.07,4.24.07,5.14-.02,4.95.26,3.23.15,5.58-.21,4.14.51,23.65-.23,28.8-.23,1.58-1.53,1.12-1.73,1.9-1.82,6.97-3.54,12.87-7.45,19.2-4.61,7.46-26.4,24.86-34.2,30.66-4.34,3.22-13.49,7.46-15.26,12.41-1.43,3.99-1.5,16.52-3.71,18.76-4.39.58-8.19,4.23-12.13,4.74l4.32-6.04c-.55-.49-12.96,4.49-9.51.87.26-.27,3.02-.47,4.36-2.14,3.67-4.56,3.92-10.52,2.56-16.02-4.36.06-1.82,5.52-2.72,8.11-.39,1.1-1.99,1.13-2.26,1.58-1.19,2.01.86,6.31-5.4,5.86v-13.39c0-.51,1.61-3.36,1.73-5.62,3.8-.45,8.54-1.75,8.65-6.05.02-.58-.01-1.15,0-1.73.27-.06.59.07.87,0,.49-.13,1.21.11,1.73,0,5.13-1.12,3.69-1.93,6.06-5.19,1.2-1.65,2.16-2.79,3.46-4.32,5.79.66,5.42-1.62,6.06-6.05.08-.55-.1-1.19,0-1.73.05-.28-.05-.59,0-.86,3.28-.48,4.84-5.78,6.06-8.64.1-.24-.11-.62,0-.86,1.78.38,1.95-.93,2.59-2.12,3.23-5.99,4.96-7.99,8.65-13.01,1.17-1.59,5.67-7.11,6.06-8.21,2.87,1.22,21.12,6.59,22.5,5.18.22-.22.33-2.08-.59-2.6-2.45-1.38-9.42-2.53-12.59-3.68-2.1-.76-3.46-3.24-6.72-3.22.63-3.81-1.44-7.24-1.72-10.81-.49-6.12.85-12.58-.87-18.57,3.28.96,7.88,1.57,11.04.23,1.24-.53,1.3-.22,1.08-1.95-4.5.07-8.85-1.86-12.98-3.46-.67-.26-3.35-3.32-6.06-1.73.97-5.7-1.17-3.5-3.08-5.11-2.26-1.9-.76-4.82-1.25-6.99,11-1.43,5.16-8.47-.87-1.73-.49-1.91-.67-4.07-1.11-5.37-1.55-4.57-5.12-7.95-4.95-12.77.23-.29.44-1.11.87-1.73l10.38-9.51c.28-.04.59.05.87,0,2.18-.37,5.19,1.02,5.19-2.59.54-.1,1.21.11,1.73,0,1.72-.35,3.62,0,5.9-.58.9-.23,5.89-1.93,5.35-3.74,1.62-.21,4.38-.14,6.06,0Z"/>
    <path class="cls-11" d="M817.79,678.68c-4.74-5.73-11.97-15-15.45-21.3-5.41-9.78-6.95-25.67-6.17-37.03.2-2.94,1.77-5.44,1.66-8.52-.35-9.68-5.59-13.81-3.19-26.72,1.25-6.74,4.7-13.33,6.67-19.26,1.08-3.24-.3-18.63,3.51-21.99.78-.69,2.63,1.65,3.82,1.91.69.15,6.36,3.92,10.02,6.73,5.18,5.51,2.87,2.87,3.17,3.14,2.76,2.98,2.98,3.99,4.64,6.14s3.48,5.23,4.29,6.27c.74.95,1.26,2.34,1.6,2.72.42.47,3.49,11.35,3.6,11.97.36,2.01.39,7.46-1.21,8.72-3,2.36-13.83-2.6-12.19,4.25,4.56-.69,8.29,1.62,12.54,2.59-.19,1.57.01,3.52,0,5.19-5.71,1.08-6.81,3.12-3.46,7.78-3.76.54-4.43,3.86-5.19,6.91-4.24.03-7.72,2.56-12.11,1.73.39,4.62,7.89,1.92,11.25,2.59-.19,2.08-.36,15.49,0,16.42-5.8,3.98-10.41,4.55-16.88,6.06-1.01.24-2.81.28-1.29,1.71,3.03,2.86,16.72-1.58,20.77-2.58,2.17,4.49,4.05,5.55,6.31,11.41,2.97,7.68,6.41,13.88,8.4,22.29.81,3.42-.87,8.69,5.19,8.64.17.29.72.54.87.86.2.43-.39,1.86.14,2.45.41.45,1.41.01,1.59.14,3.65,2.65,4.59,3.87,6.92,7.78.9,1.5.82,4.96,4.33,6.05-2.91,4.21-1.48,15.31-2.6,20.74-1.3,1.56-4.55-5.09-4.78-6.02-.89-3.56-.09-7.59-1.28-11.26-3.89-.05-2.11,4.05-2.6,6.34-.15.68-1.65.66-1.74,1.01-.62,2.36,1.2,1.81,1.65,2.85.48,1.13,3.02,8.48,2.69,8.81l-10.38-4.32c-.21-.19-1.57.21-1.73,0-.69-.91,1.04-17.45-1.75-22.67-.89-1.66-9.94-8.35-12.1-10.17-.74-.62-1.43-1.63-2.6-2.59.17-3.32-3.54-4.34-4.33-5.19s-2.11-2-2.6-2.59Z"/>
    <path class="cls-11" d="M960.58,492.88c-1.42-7.2-5.14-12.8-6.92-19.87,8.78-1.76,14.65-2.35,20.77,4.74,3.85,4.46,5.27,5.51,9.21,9.38,5.56,5.45,12.79,17.32,17.61,24.09,6.86,9.64,10.22,13.61,13.86,25.72.14.47-.14,1.24,0,1.73,2.36,8.56,6.68,17.01.45,25.08-13.37,17.34-33.94,5.07-47.62-5.2-1.55-1.16-5.42-3.84-4.76-6.05,1.9-.74,3.31-.71,3.46-3.46.61-.55,1.16-1.14,1.73-1.73,1.76.25,1.99.03,1.73-1.73.13-.15.5-1.85.87-2.59,1.84.21,1.94.11,1.73-1.73.13-.07-.1-.6,0-.86,1.84.21,1.94.11,1.73-1.73.12-.07-.09-.58,0-.86,2.02.62,3.08-3.79,3.43-5.53.13-.65-.84-.47-.83-.52.18-1.01.55-1.7.87-2.59,3.4.31.96-1.17.87-1.73-.09-.5,0-1.18,0-1.73,3.1-.27,3.67-6.11,3.46-8.21,1.8-1.79,1.74.83,2.58,1.71,2.37,2.48,14.28,14.07,16.84,13.39.77-.21,1.83-1.88,1.35-2.55-.26-.37-6.13-4.01-7.35-5.21-7.96-7.82-15.26-18.19-23.79-25.5-3.13-2.68-7.01-6.25-11.26-6.47Z"/>
    <path class="cls-12" d="M892.21,491.15c1.58,1.89,3.99,3.72,5.19,5.19,4.35,5.3,2.39,5.15,3.64,10.62,1.12,4.88,11,8.98,14.98,13.56,2.8,3.23,6.75,12.28,8.65,13.83,2.03,1.66,8.09.55,8.21,4.33-1.11-.49-4.14-1.92-5.2-1.29,2.61,5.44,4.77,11.54,5.2,17.71-1.68-.14-4.44-.21-6.06,0-2.72.35-5.81,1.56-8.5,2.36-1.47.44-3.28-.6-2.75,1.96-.53.11-1.2-.1-1.73,0-1.82.33-3.69,1.53-5.19,2.59-.28.05-.58-.04-.87,0-4.26.68-8.15,6.27-10.38,9.51-.43.62-.64,1.43-.87,1.73-.59.77-2.03,1.56-2.6,2.59-.44-.38-4.44-1.09-5.67-1.68-2.73-1.32-3.41-2.74-6.95-3.42-10.49-2.02-28.06-.44-36.65,6.45-2.81,2.26-3.69,6.27-6.97,7.29-.03-.79-.83-1.48-.87-1.73-.7-5.08-1.5-9.83-4.12-14.49-1.75-3.12-1.3-.79-2.81-5.39,1.13.39,5.04,3.36,5.61,4.35.26.46,2.06,3.83,2.13,4.06.35,1.11.4,6.71.93,7.14,2.4,1.94,2.63-1.97,3.03-2.58.7-1.06,1.71-.63,2.15-.88,1.92-1.08,4.27-1.62,4.33-4.32,2.21.77,15.74-3.1,19.48-3.45,5.15-.47,10.2.39,15.14,1.72.9.24,3.16.75,3.46.86.82.32,2.64,1.26,3.46,1.73.28.16.79,1.74,1.29,1.71.46-.03,4.78-4.31,5.63-5.17.29-.29.58-.57.87-.86,3.19-3.29,2.72-3.59,6.92-6.05.33-.19.57-.7.87-.86,2.04-1.15,5.75-.93,5.19-3.46.67-.02,9.62-2.66,10.37-3.04,1.44-.73,1.91-3.28,3.05-3.87,1.84-.96.86,1.97,1.8,2.67.59.44,3.54,1.07,3.81.78,1.31-3.52-2.16-5.09-2.58-7.35-.35-1.83.55-5.03-.19-6.3-.18-.31-2.34-1.09-3.3-2.31-4.59-5.79-5.49-10.78-11.23-16.88-.42-.45-.44-2.52-2.1-3.52s-3.31-.59-4.79-1.27c-.32-.15-5.05-4.42-5.23-4.72-.76-1.26-1.03-5.45-1.73-7.78-.43-1.41-1.44-5.07-2.81-5.86-1.06-.61-2.69.05-3.25-.19-.36-.16-1.94-3.58-5.19-5.19-4.74-2.34-7.16-1.75-11.51-2.62-1.31-.26-2.55-2.98-8.39-2.57-.89-1.48-3.22-.91-4.65-.77-4.49.46-9.07.95-13.53,1.63-6.05.93-10.91,2.17-16.44,4.32-2.39.93-6.66.11-6.92,4.32-1.32-.35-4.56.04-5.88.58-1.61.66-.82,1.66-1.04,2.01-5.51,8.55-1.91,13.24-3.47,21.16-.37,1.87-2.02,2.39-2.41,3.64-1.12,3.63.1,6.77-2.16,11.23-.44.86-2.21.05-1.95,3.73.51,7.14,2.97,4.72,7.19,7.45,5.17,3.35,12.13,10.86,14.06,16.73-3.23-1.12-6.67-6.17-10.38-9.51-.3-.27-.55-.61-.87-.86-4.68-3.83-8.32-6.01-13.85-8.64,1.98-7.44,3.54-20.06,5.91-26.48,1.08-2.94,2.62-4.74,2.57-9.38-.05-4.03-2.21-6.29-2.4-7.08-.37-1.54-.17-5.82-.02-7.66.21-2.66-.42-2.22,2.6-2.12.12,3.44-.09,6.93,0,10.37,2.1-1.19,1.76-3.5,3.86-5.21,8.21-6.71,34.4-13.01,45.03-13.01,9.7,0,20.84,4.57,29.86,7.86Z"/>
    <path class="cls-4" d="M878.37,419.42c-4.12-1.17-6.42-5.34-11.25-4.32l6.91,6.49,3.47,2.14c-.4,2.41.29,5.02-.37,7.84-.74,3.15-3.88,5.5-4.02,9.03-.13,3.19,2.55,5.65,1.8,9.05-.55.07-1.19-.09-1.73,0-.04-3.08-5.12-4.39-7.79-5.19-8.46-2.53-10.75-1-18.17,2.59-.37-2.72.98-6.59-.87-8.64.07-.56-.07-1.17,0-1.73,1.24-9.31,1.75-7.88,5.19-14.69.12-.23-.12-.65,0-.86l11.75-8.58c1.27-1.02,1.08-2.15,1.23-3.52,1.15.39,1.99-.69,2.6-.86.98-.29,1.77.08,3.07-.8,1.41-.95,2.97-5.66,5.59-4.02.46.29,5.09,8.74,5.19,9.65.36,3.48-1.67,4.12-2.6,6.41Z"/>
    <path class="cls-12" d="M1018.87,466.09c.22.33.21,2.01.59,2.63.46.74,2.38,5.49,2.5,5.81.86,2.35,1.86,9.76-.44,11.38-3.3,2.32-16.89-.93-21.58-1.66-1.6-.25-2.86-.21-3.89-1.73.08,0-.1-.75,1.28-.84,7.01-.45,10.94,3.13,16.42,3.33,5.08.18,7.73-1.98,6.5-7.08-.15-.61-1.36-.47-1.64-1.25-.87-2.43-2.58-8.39-4.64-10.33-.53-.5-1.93-.25-2.73-1.13-.73-.8-.79-2.51-2.15-3.93-2.13-2.21-6.32-3.13-9.24-3.73-6.81-1.42-14.94-2.24-22.03-3.93-5.23-1.25-13.02-6.31-18.65-6.44-11.48-.27-6.4,4.21-7.35,5.83-.72,1.23-4.51.2-3.19,6.41,1.55,7.28,5.16-.54,8.07-1.09,4.09-.77,6.93,2.38,11.01,1.73,1.21,2.67,5.07,3.81,6.4,5.47,3.19,4,3.24,13.39,9.43,14.35,2.69.41,10.26-1.25,10.77,2.64-2.71.09-13.17.49-14.71-.44-2.39-1.44-5.46-10.53-7.42-13.34-4.32-6.2-13.83-10.69-20.24-4.77-1.59,1.47-.99,3.97-3.05,3.84-2.83-1.33-.91-15.91-.45-19,.08-.54-.04-1.16,0-1.73,11.43-5.15,21.25,1.49,31.84,4.07,14.55,3.55,29.06,1.14,38.57,14.94Z"/>
    <path class="cls-12" d="M882.69,396.09c.28.24.49.6.87.86.23,3.54-.12,6.93-.87,10.37-.43-.36-1.22-.52-1.73-.86-3.95-11.36-11.55-7.21-13.85,1.73-.6.18-1.44,1.25-2.6.86.58-5.26-.15-9.44,2.6-14.69.25-.24.8-.68.87-.86,7.81-2.64,8.74-2.47,14.71,2.59Z"/>
    <path class="cls-9" d="M824.71,686.46c-1.44-1.19-4.98-1.28-4.33-5.19.78.85,4.5,1.87,4.33,5.19Z"/>
    <path class="cls-2" d="M924.23,466.09c4.04-.51,2,.79,2.6,2.59,3.79,1.87,1.9,1.5,3.46,3.46-2.64-.18-2.8-1.46-3.46-3.46-.36-.18-1.15.04-1.76-.42-.9-.68-.58-1.64-.84-2.17Z"/>
    <path class="cls-8" d="M960.58,492.88c4.26.22,8.13,3.78,11.26,6.47,8.53,7.32,15.83,17.68,23.79,25.5,1.21,1.19,7.09,4.84,7.35,5.21.48.68-.58,2.35-1.35,2.55-2.56.68-14.46-10.91-16.84-13.39-.83-.87-.78-3.5-2.58-1.71.22,2.09-.36,7.94-3.46,8.21.03-4.48,2.99-6.17.93-10.87-.92-2.1-9.17-10.35-11.3-12.04-3.01-2.37-6.01-4.33-8.66-6.47,2.98.47,1.28-1.33.87-3.46Z"/>
    <path class="cls-12" d="M882.69,415.1c.07.09,1.17-.26,1.5.19.61.82-.13,3.13,1.09,4.13-.52,9.56-3.15,19.58-1.73,29.38-2.85,0-5.8.49-8.65.86.76-3.4-1.92-5.86-1.8-9.05.14-3.53,3.28-5.88,4.02-9.03.66-2.82-.03-5.44.37-7.84.05-.28.67-1.53.87-1.73.13-.13,2.36,0,2.57-2.17l-.84-.42c.12-.17-.31-1.1.22-1.54.89-.74,3.18.95,2.38-2.78Z"/>
    <path class="cls-5" d="M897.4,496.34c-1.21-1.47-3.61-3.29-5.19-5.19-5.37-6.42-17-8.98-25.35-10.55-1.14-.21-2.57-1.55-2.78-1.55h-12.55c-1.08-3.2,2.76-3.35,5.59-3.49,11.66-.58,33.83,4.41,40.75,14.68,1.39,2.07,2.52,4.58-.48,6.1Z"/>
    <path class="cls-5" d="M873.17,449.67c-6.02.98-11.37,3.31-17.3,4.32-1.39-1.24,4.76-5.39,5.55-6.16.96-.93-.08-2.79,3.97-3.34,2.67.8,7.75,2.1,7.79,5.19Z"/>
    <path class="cls-8" d="M977.02,531.77s.96-.13.83.52c-.35,1.74-1.4,6.15-3.43,5.53.64-2.01.39-4.43,2.6-6.05Z"/>
    <path class="cls-8" d="M966.63,549.05c-.15,2.74-1.57,2.72-3.46,3.46-.24.09-.59-.08-.87,0,.46-2.39,3.62-2.82,4.33-3.46Z"/>
    <path class="cls-8" d="M972.69,541.27c.21,1.84.11,1.93-1.73,1.73.14-.29-.27-1.27.09-1.63.38-.39,1.38.05,1.64-.1Z"/>
    <path class="cls-8" d="M974.42,538.68c.21,1.84.11,1.93-1.73,1.73.17-.43-.21-1.51,0-1.73s1.4.19,1.73,0Z"/>
    <path class="cls-8" d="M970.1,545.59c.26,1.76.03,1.98-1.73,1.73.41-.42,1.63-1.61,1.73-1.73Z"/>
    <path class="cls-8" d="M978.75,527.45c.1.56,2.54,2.04-.87,1.73.22-.61.08-1.35.87-1.73Z"/>
    <path class="cls-1" d="M864.52,702.87c-.02.57.03,1.16,0,1.73-.13,2.26-1.73,5.1-1.73,5.62v13.39c6.26.45,4.21-3.85,5.4-5.86.27-.45,1.88-.48,2.26-1.58.9-2.58-1.64-8.05,2.72-8.11,1.36,5.49,1.11,11.45-2.56,16.02-1.34,1.67-4.11,1.87-4.36,2.14-3.45,3.62,8.96-1.37,9.51-.87l-4.32,6.04c-5.04.66-12.32.76-17.31,0,.62-2.91-1.47-1.13-2.79-1.76s-.71-.75-3.27-1.7c-.78-.29-1.56-.46-2.6-.86-.06-1.71-1.1-2.8-2.6-3.46.04-.39.06-1.67,0-1.73l10.38,4.32c.33-.33-2.21-7.68-2.69-8.81-.44-1.04-2.27-.48-1.65-2.85.09-.35,1.59-.33,1.74-1.01.49-2.28-1.29-6.39,2.6-6.34,1.19,3.67.39,7.7,1.28,11.26.23.93,3.48,7.58,4.78,6.02,1.12-5.43-.31-16.52,2.6-20.74.07-.1.81-.84.87-.86.45-.16,1.29.16,1.73,0Z"/>
    <path class="cls-8" d="M902.6,591.4c.21.79.81,1.49.87,1.73.49,2.17-1.01,5.09,1.25,6.99,1.91,1.61,4.05-.6,3.08,5.11-.06.04.17,1.14-.27,1.42-.85.53-2.25.46-2.79,1.14-.77.99-.26,2.41-.4,3.49-.05.4-.45.78-.87.86-.21-5.43-2.24-19.78-3.7-25.26-.48-1.8-4.77-10.14-5.82-11.04.57-1.04,2.01-1.82,2.6-2.59-.18,4.82,3.39,8.2,4.95,12.77.44,1.3.62,3.47,1.11,5.37Z"/>
    <path class="cls-8" d="M917.31,641.52c3.27-.02,4.63,2.46,6.72,3.22,3.18,1.15,10.15,2.3,12.59,3.68.92.52.8,2.38.59,2.6-1.38,1.41-19.63-3.96-22.5-5.18.15-.43-.13-1.21,0-1.73.12-.47-.06-1.17,0-1.73.83.09,2.1-.86,2.6-.86Z"/>
    <path class="cls-9" d="M913.85,611.27c.36.17.76.49.87.86,1.73,5.99.38,12.45.87,18.57.29,3.57,2.36,7,1.72,10.81-.5,0-1.77.95-2.6.86"/>
    <path class="cls-9" d="M914.71,644.11c-.13.52.15,1.3,0,1.73-.39,1.1-4.9,6.62-6.06,8.21-3.69,5.02-5.42,7.02-8.65,13.01-.64,1.19-.82,2.5-2.59,2.12,2.39-5.46,4.3-11.02,7.92-15.86l9.39-9.2Z"/>
    <path class="cls-3" d="M913.85,606.95c4.13,1.6,8.48,3.54,12.98,3.46.23,1.73.16,1.42-1.08,1.95-3.16,1.35-7.76.73-11.04-.23-.11-.38-.51-.69-.87-.86.11-.78,0-1.76,0-2.59v-1.73Z"/>
    <path class="cls-9" d="M873.17,696.83c-.01.58.02,1.15,0,1.73-2.65,2.25-5.6,3.2-8.65,4.32-.44.16-1.28-.16-1.73,0l-5.19-5.19c-2.34-3.91-3.28-5.13-6.92-7.78,0-.58-.01-1.15,0-1.73,4.07.83,11.29,13.85,14.97,12.87,1.48-.4,3.78-3.34,7.53-4.23Z"/>
    <path class="cls-9" d="M913.85,606.95v1.73c-5.62-2.9-5.01,2.12-9.52,2.59.14-1.08-.37-2.5.4-3.49.53-.68,1.94-.61,2.79-1.14.45-.28.21-1.38.27-1.42,2.71-1.59,5.39,1.47,6.06,1.73Z"/>
    <path class="cls-9" d="M891.35,679.54c-.1.53.08,1.18,0,1.73-1.95,2.09-4.2,3.86-6.06,6.05-1.3,1.53-2.26,2.68-3.46,4.32h-2.6c2.46-2.6,4.28-5.74,6.88-8.27,1.07-1.04,2.81-.95,3.32-1.48.64-.67-.62-3.05,1.92-2.35Z"/>
    <path class="cls-3" d="M902.6,591.4c6.02-6.75,11.86.3.87,1.73-.05-.24-.66-.94-.87-1.73Z"/>
    <path class="cls-9" d="M926.83,555.1c.55,1.81-4.45,3.51-5.35,3.74-2.28.58-4.19.23-5.9.58-.52-2.56,1.28-1.52,2.75-1.96,2.68-.8,5.77-2.01,8.5-2.36Z"/>
    <path class="cls-4" d="M881.83,691.64c-2.37,3.25-.93,4.07-6.06,5.19v-1.73c.85-.77,2.61-2.56,3.46-3.46h2.6Z"/>
    <path class="cls-4" d="M864.52,704.6c.03-.57-.02-1.15,0-1.73,3.06-1.12,6.01-2.07,8.65-4.32-.11,4.3-4.85,5.6-8.65,6.05Z"/>
    <path class="cls-4" d="M885.29,687.32c1.86-2.19,4.1-3.96,6.06-6.05-.64,4.43-.26,6.71-6.06,6.05Z"/>
    <path class="cls-9" d="M897.4,670.04c-1.21,2.86-2.78,8.16-6.06,8.64.23-1.29,2.75-4.89,3.6-6.39.67-1.19.4-2.72,2.46-2.25Z"/>
    <path class="cls-8" d="M907.79,562.01l-10.38,9.51c2.23-3.23,6.13-8.83,10.38-9.51Z"/>
    <path class="cls-9" d="M913.85,559.42c0,3.62-3.01,2.22-5.19,2.59,1.5-1.07,3.37-2.26,5.19-2.59Z"/>
    <path class="cls-9" d="M875.77,695.1v1.73c-.52.11-1.24-.13-1.73,0-.64-2.36,1.47-1.5,1.73-1.73Z"/>
    <path class="cls-10" d="M893.94,575.84c1.05.9,5.34,9.24,5.82,11.04,1.46,5.47,3.49,19.82,3.7,25.26.03.85.06,1.75,0,2.59-2.92-.45-2.86,4.81-3.46,6.91-.32,1.11-.46,2.41-.87,3.46-3.37-.56-1.8-3.25-6.06-3.46-.57-.03-1.16.02-1.73,0-1.22-1.89-3.23-1.64-5.19-1.73-1.42-.07-2.91-.05-4.33,0-1.92-1.48-6.9-1.44-8.65,0-4.56-.02-9.31-.23-13.85,0-2.12.11-4.67-.41-6.06,1.73-.87,0-1.73,0-2.6,0-7.35,0-9.64,5.87-13.45-4.28-1.48-3.94-2.16-9.61-2.13-13.86.01-1.66-.19-3.61,0-5.19.55-4.54,2.78-8.34,2.6-13.83,3.28-1.02,4.16-5.04,6.97-7.29,8.59-6.89,26.15-8.47,36.65-6.45,3.54.68,4.22,2.1,6.95,3.42,1.23.59,5.23,1.3,5.67,1.68Z"/>
    <path class="cls-10" d="M865.38,444.48c-4.04.55-3.01,2.41-3.97,3.34-.79.76-6.93,4.92-5.55,6.16,5.94-1.01,11.28-3.34,17.3-4.32.55-.09,1.18.07,1.73,0,2.85-.38,5.8-.87,8.65-.86,2.04,0,3.81.85,5.19.86.58,0,1.15-.01,1.73,0,.86.02,1.73,0,2.6,0,1.15,0,2.31.05,3.46,0,4.01,1.97,8.63,2.24,12.7,4.16,5.6,2.65,8.87,7.77,14.12,10.53.24.39.6,1.2.87,1.73s-.06,1.49.84,2.17c.61.46,1.4.24,1.76.42.66,2,.82,3.27,3.46,3.46,1.35,1.7,2,2.12,3.46,3.46,1.96,1.79,4.99,3.21,5.19,3.46.36.44-1,2.29,1.73,1.73,1,1.12,1.68,1.67,2.6,2.59,3.39,3.43,7.7,5.81,11.25,8.64.3.24.54.61.87.86,1.43,1.13,2.91,2.31,4.33,3.46,2.65,2.15,5.65,4.1,8.66,6.47,2.14,1.69,10.38,9.94,11.3,12.04,2.06,4.71-.89,6.39-.93,10.87,0,.55-.09,1.23,0,1.73-.78.38-.65,1.12-.87,1.73-.32.89-.69,1.58-.87,2.59-2.2,1.62-1.96,4.04-2.6,6.05-.09.28.12.79,0,.86-.32.19-1.51-.22-1.73,0s.17,1.29,0,1.73c-.1.27.13.79,0,.86-.27.15-1.26-.29-1.64.1-.36.36.05,1.34-.09,1.63-.36.74-.74,2.44-.87,2.59-.1.12-1.33,1.31-1.73,1.73-.57.59-1.12,1.18-1.73,1.73-.71.64-3.87,1.07-4.33,3.46-1.22.37-1.92.93-3.46.86-.28-.01-.6.05-.87,0-.56-3.16-3.03-3.17-5.19-4.32-3.46-1.84-7.45-3.23-11.25-5.19l-2.6-2.59c-.21-.22-2.32-1.14-3.01-1.48-1.75-.97-1.2-.75-2.18-1.11-.07-.13-.61.11-.87,0-3.97-1.11-6.19-2.67-8.21-4.33-1.9-1.55-5.85-10.6-8.65-13.83-3.97-4.59-13.86-8.68-14.98-13.56-1.25-5.47.71-5.32-3.64-10.62,3-1.52,1.87-4.04.48-6.1-6.93-10.27-29.09-15.25-40.75-14.68-2.83.14-6.67.29-5.59,3.49h12.55c.21,0,1.64,1.34,2.78,1.55,8.35,1.57,19.98,4.13,25.35,10.55-9.02-3.29-20.16-7.86-29.86-7.86-10.63,0-36.82,6.3-45.03,13.01-2.1,1.72-1.75,4.02-3.86,5.21-2.24-3.37-3.13-7.19-2.13-10.44.42-1.37.84-3.06.83-4.5.79-3.07.93-4.76,1.34-6.63.33-1.48.9-2,.79-2.42,3.37-9.64,2.92-8.2,3.37-9.64.22-.71,1.1-1.96.99-2.67l.87-1.73c1.46-1.03,3.81-4.48,5.19-6.05,5.78-3.4,12.23-5.07,18.17-7.78,1.5-.68,2.35-1.61,2.6-1.73.61-.28,1.15-.58,1.73-.86,7.43-3.59,9.72-5.12,18.17-2.59Z"/>
    <path class="cls-9" d="M831.63,611.27c.83,1.16.71.94,1.73,2.59-4.6-.95-4.83,3.04-5.18,6.49-.28,2.77-1.2,14.34-.84,16.35.69,3.85,6.22,10.44,8.09,14.4,4.35,9.22,7.06,20.47,11.15,29.48,1.48,3.27,3.7,3.04,4.09,6.72h-1.73c-.15-.32-.7-.57-.87-.86-.98-1.72-2.39-3.66-3.07-5.17-.81-1.77.61-4.11-2.12-3.47-1.99-8.41-5.43-14.61-8.4-22.29-2.26-5.86-4.14-6.92-6.31-11.41-.21-.43.19-2.1-.45-3.42-.54-1.13-2.1-1.64-2.15-1.76-.36-.93-.19-14.34,0-16.42.06-.62.67-3.55.87-4.32.76-3.05,1.43-6.37,5.19-6.91Z"/>
    <path class="cls-8" d="M825.58,638.93c.05.13,1.6.64,2.15,1.76.63,1.32.24,2.99.45,3.42-4.05,1-17.74,5.44-20.77,2.58-1.51-1.42.29-1.47,1.29-1.71,6.47-1.51,11.08-2.08,16.88-6.06Z"/>
    <path class="cls-8" d="M837.69,584.48c.19,5.49-2.04,9.28-2.6,13.83-4.25-.97-7.98-3.28-12.54-2.59-1.64-6.85,9.2-1.89,12.19-4.25,1.61-1.26,1.57-6.71,1.21-8.72h.87c.03.25.84.94.87,1.73Z"/>
    <path class="cls-8" d="M835.1,603.49c-.03,4.25.65,9.92,2.13,13.86,3.81,10.16,6.1,4.28,13.45,4.28.27,3.33-5.9,1.43-7.44,3.43-.65.84,1.35,4.08-1.22,5.21-2.61-5.81-5.22-10.83-8.65-16.42-1.02-1.66-.9-1.43-1.73-2.59-3.35-4.66-2.25-6.69,3.46-7.78Z"/>
    <path class="cls-9" d="M819.52,553.37c3.72,3.33,7.15,8.38,10.38,9.51,1.51,4.6,1.06,2.28,2.81,5.39,2.62,4.66,3.42,9.41,4.12,14.49h-.87c-.11-.62-3.18-11.5-3.6-11.97-.35-.38-1.16-2.45-1.9-3.4-.81-1.04-2.41-3.54-4-5.6-1.66-2.15-6.26-4.52-6.95-8.42Z"/>
    <path class="cls-3" d="M826.44,618.18c-.19.77-.81,3.7-.87,4.32-3.35-.67-10.86,2.03-11.25-2.59,4.4.82,7.87-1.7,12.11-1.73Z"/>
    <path class="cls-4" d="M842.88,677.81c2.73-.65,1.31,1.7,2.12,3.47.69,1.51,2.1,3.45,3.07,5.17-6.06.05-4.38-5.22-5.19-8.64Z"/>
    <path class="cls-4" d="M862.79,702.87c-.06.02-.8.77-.87.86-3.51-1.09-3.43-4.54-4.33-6.05l5.19,5.19Z"/>
    <path class="cls-4" d="M850.67,687.32c.03.28,0,.58,0,.86-.01.58,0,1.15,0,1.73-.18-.13-1.18.3-1.59-.14-.54-.58.05-2.02-.14-2.45h1.73Z"/>
    <path class="cls-12" d="M848.94,487.69c-.66,2.13,2.26,1.94,2.52,3.08.52,2.23-5.73,13.27,1.76,15.54,2.45.74,26.41.75,27.73-.04,1-.61,1.76-3.58,3.12-3.86.26-.05,4.42,2.45,4.55,2.68,1.38,2.4-1.89,3.1-2.86,4.26-1.86,2.23-1.89,9.22-.77,11.86,1.61,3.77,10.85,1.18,13.92,1.23s1.05,3.32,1.04,5.41c-.04,5.71-.88,17.46.22,22.32.95,4.2,6.29,6.76,10.2,6.66.56,2.53-3.15,2.31-5.19,3.46l-.87.86c-4.2,2.46-3.74,2.76-6.92,6.05l-.87.86c-.85.86-5.17,5.13-5.63,5.17-.51.04-1.01-1.55-1.29-1.71.45-3.85,3.72-6.01,2.59-10.37-.34-.39-6.8,2.31-7.41,3.43-1.28,2.37,3.77,3.31,1.35,5.21-.3-.12-2.56-.62-3.46-.86.75-5.23-7.64-3.03-10.73-3.55-4.13-.69-8.36-2.62-12.27-3.3-2.11-.36-4.93.4-6.74-.19-2.43-.79-.74-4.42-1.8-5.98s-10.9-2.08-13.02-1.66c-2.27.45-2.96,3.23-5.63,2.57,3.04-11.74-5.98-16.04-16.09-17.22-1.77-2.4,3.64-11.98,3.91-15.24,3.41-1.41,12.66,1.36,14.34-2.1.77-1.58.71-10.34.37-12.48-1.03-6.55-6.43-3.68-8.47-4.94-.5-.3-.46-2.79-1.88-3.73s-4.49-.74-6.03-2.19c.22-.35-.57-1.35,1.04-2.01,1.33-.54,4.56-.93,5.88-.58,1.5.4,7.39,8.24,9.34,1.98,1.83-5.89-3.21-1.6-2.42-6.3,5.53-2.15,10.39-3.39,16.44-4.32Z"/>
    <path class="cls-12" d="M867.12,486.83c-.55.04-3.69.7-4.72.89-6.67,1.26,2.99,4.61,5.36,4.95,3.69.54,7.45-.22,11,.27,3.28.45,6.58,6.78,8.27-.94,3.25,1.61,4.84,5.03,5.19,5.19-7.24,3.53,3.08,12.09,6.06,6.05.7,2.32.97,6.51,1.73,7.78-7.18,6.51.52,5.06,2.62,6.46,1.59,1.06,3.98,10.6,9.49,3.05,5.74,6.09,6.64,11.08,11.23,16.88.96,1.22,3.11,2,3.3,2.31.74,1.27-.15,4.47.19,6.3.43,2.26,3.89,3.83,2.58,7.35-.27.29-3.22-.34-3.81-.78-.94-.7.05-3.62-1.8-2.67-1.14.59-1.61,3.14-3.05,3.87-.75.38-9.7,3.02-10.37,3.04-3.91.1-9.25-2.46-10.2-6.66-1.1-4.87-.26-16.61-.22-22.32.01-2.09,2.07-5.37-1.04-5.41s-12.32,2.54-13.92-1.23c-1.13-2.64-1.09-9.62.77-11.86.97-1.16,4.24-1.86,2.86-4.26-.13-.23-4.29-2.73-4.55-2.68-1.36.27-2.12,3.25-3.12,3.86-1.32.8-25.28.79-27.73.04-7.49-2.27-1.24-13.31-1.76-15.54-.27-1.14-3.18-.95-2.52-3.08,4.46-.69,9.04-1.18,13.53-1.63,1.42-.14,3.75-.71,4.65.77Z"/>
    <path class="cls-12" d="M818.65,498.93c1.55,1.45,4.68,1.29,6.03,2.19,1.42.94,1.39,3.43,1.88,3.73,2.04,1.26,7.44-1.61,8.47,4.94.34,2.14.39,10.9-.37,12.48-1.68,3.45-10.93.68-14.34,2.1-.27,3.26-5.68,12.84-3.91,15.24,10.1,1.18,19.12,5.48,16.09,17.22,2.67.66,3.36-2.13,5.63-2.57,2.12-.42,11.93.04,13.02,1.66s-.63,5.19,1.8,5.98c1.81.59,4.62-.18,6.74.19,3.92.68,8.14,2.61,12.27,3.3,3.08.51,11.48-1.69,10.73,3.55-4.93-1.32-9.99-2.19-15.14-1.72-3.74.34-17.27,4.22-19.48,3.45-.1-.04-.46-1.3-1.44-1.59-4.4-1.3-4.21,2.88-2.89,5.91-.44.25-1.45-.18-2.15.88-.4.61-.63,4.52-3.03,2.58-.53-.43-.58-6.03-.93-7.14-.07-.23-1.86-3.6-2.13-4.06-.57-.99-4.48-3.96-5.61-4.35-1.93-5.87-8.89-13.38-14.06-16.73-4.22-2.74-6.68-.31-7.19-7.45-.26-3.67,1.52-2.87,1.95-3.73,2.26-4.46,1.04-7.6,2.16-11.23.39-1.26,2.04-1.78,2.41-3.64,1.56-7.92-2.03-12.61,3.47-21.16Z"/>
    <path class="cls-12" d="M867.12,486.83c5.84-.41,7.09,2.31,8.39,2.57,4.35.87,6.77.28,11.51,2.62-1.69,7.71-4.99,1.39-8.27.94-3.55-.49-7.31.27-11-.27-2.36-.35-12.03-3.7-5.36-4.95,1.04-.19,4.17-.85,4.72-.89Z"/>
    <path class="cls-12" d="M912.12,520.53c-5.52,7.55-7.9-1.99-9.49-3.05-2.1-1.4-9.8.06-2.62-6.46.18.3,4.91,4.57,5.23,4.72,1.48.69,3.15.29,4.79,1.27s1.68,3.07,2.1,3.52Z"/>
    <path class="cls-12" d="M832.5,492.01c-.79,4.7,4.25.41,2.42,6.3-1.95,6.26-7.84-1.58-9.34-1.98.27-4.21,4.53-3.39,6.92-4.32Z"/>
    <path class="cls-12" d="M892.21,497.2c.55.24,2.18-.42,3.25.19,1.37.79,2.39,4.45,2.81,5.86-2.97,6.04-13.3-2.52-6.06-6.05Z"/>
    <path class="cls-12" d="M886.15,569.79c2.42-1.9-2.63-2.83-1.35-5.21.61-1.12,7.06-3.82,7.41-3.43,1.13,4.36-2.14,6.51-2.59,10.37-.82-.47-2.64-1.41-3.46-1.73Z"/>
    <path class="cls-12" d="M848.08,570.66c-.06,2.7-2.41,3.25-4.33,4.32-1.32-3.02-1.51-7.21,2.89-5.91.98.29,1.34,1.55,1.44,1.59Z"/>
    <path class="cls-13" d="M904.33,561.15l.87-.86c-.3.17-.54.67-.87.86Z"/>
    <path class="cls-13" d="M896.54,568.06l.87-.86c-.28.29-.58.58-.87.86Z"/>
    <path class="cls-2" d="M880.96,406.46c.49,1.4,1.39,8.22,1.73,8.64.8,3.73-1.49,2.04-2.38,2.78-.53.44-.1,1.37-.22,1.54-.22.31-1.3.54-1.73.86.04-.31-.08-.66,0-.86.92-2.29,2.96-2.92,2.6-6.41-.09-.9-4.72-9.35-5.19-9.65-2.62-1.64-4.19,3.07-5.59,4.02-1.3.88-2.08.51-3.07.8,2.3-8.94,9.9-13.09,13.85-1.73Z"/>
    <path class="cls-8" d="M878.37,419.42c-.08.21.04.56,0,.86-.07.56.05,1.16,0,1.73-.2.2-.82,1.44-.87,1.73l-3.47-2.14-6.91-6.49c4.82-1.02,7.13,3.14,11.25,4.32Z"/>
    <path class="cls-11" d="M848.08,727.94c2.56.95,1.99,1.09,3.27,1.7s3.41-1.15,2.79,1.76c-2.95-.45-7.15-.02-6.06-3.46Z"/>
    <path class="cls-11" d="M845.48,727.07c-1.18-.46-2.27-.35-3.1-1.77-.67-1.15.49-1.55.51-1.68,1.5.66,2.54,1.75,2.6,3.46Z"/>
    <path class="cls-12" d="M994.33,482.51c-.51-3.89-8.07-2.23-10.77-2.64-6.19-.95-6.24-10.34-9.43-14.35-1.33-1.67-5.19-2.8-6.4-5.47-4.08.65-6.92-2.5-11.01-1.73-2.91.55-6.52,8.38-8.07,1.09-1.32-6.21,2.47-5.18,3.19-6.41.95-1.62-4.13-6.1,7.35-5.83,5.63.13,13.42,5.19,18.65,6.44,7.09,1.69,15.21,2.52,22.03,3.93,2.92.61,7.11,1.52,9.24,3.73,1.37,1.42,1.42,3.13,2.15,3.93.8.89,2.19.63,2.73,1.13,2.07,1.94,3.77,7.91,4.64,10.33.28.78,1.5.64,1.64,1.25,1.23,5.1-1.42,7.26-6.5,7.08-5.48-.2-9.41-3.78-16.42-3.33-1.38.09-1.2.83-1.28.84-.58.02-1.16-.02-1.73,0Z"/>
    <path class="cls-12" d="M882.69,407.32c2.11,1.74,3.56,8.2,3.45,10.79-.06,1.55-.85,1.23-.86,1.31-1.22-1-.48-3.31-1.09-4.13-.34-.45-1.43-.1-1.5-.19-.34-.42-1.25-7.25-1.73-8.64.51.34,1.3.51,1.73.86Z"/>
    <path class="cls-12" d="M880.1,419.42l.84.42c-.21,2.18-2.44,2.04-2.57,2.17.05-.57-.07-1.17,0-1.73.43-.33,1.51-.56,1.73-.86Z"/>
    <path class="cls-4" d="M873.17,619.91c3.08.02,5.24.12,8.65,0,1.42-.05,2.91-.07,4.33,0-.48,3.61,4.41,1.7,5.19,1.73.58.02,1.16-.03,1.73,0-.73,2.62,1.86,1.27,2.43,1.84.15.15.99,3.78,1.03,4.21.58,6.86-3.84,12.99-6.52,18.98-2.9,1.61-15.55,13.68-17.3,13.87-3.92.41-5.24-2.8-7.4-3.84-17.27-8.36-15.73-9.52-23.31-26.42,2.57-1.14.57-4.37,1.22-5.21,1.53-1.99,7.71-.1,7.44-3.43.87,0,1.73,0,2.6,0,.13,0,.65.82,1.36.83,1.58.02,5.48-.42,4.7-2.56,4.53-.23,9.29-.02,13.85,0Z"/>
    <path class="cls-8" d="M899.13,625.1c-.56,1.46-.15,2.69-2.6,2.59-.04-.42-.88-4.05-1.03-4.21-.57-.57-3.16.77-2.43-1.84,4.25.2,2.68,2.89,6.06,3.46Z"/>
    <path class="cls-8" d="M903.46,614.73c-.13,1.92-1.36,7.66-3.46,6.91.6-2.11.54-7.37,3.46-6.91Z"/>
    <path class="cls-8" d="M881.83,619.91c-3.41.12-5.57.02-8.65,0,1.75-1.44,6.74-1.48,8.65,0Z"/>
    <path class="cls-8" d="M859.33,619.91c.77,2.14-3.12,2.58-4.7,2.56-.7,0-1.22-.83-1.36-.83,1.39-2.14,3.93-1.62,6.06-1.73Z"/>
    <path class="cls-8" d="M891.35,621.64c-.79-.03-5.67,1.88-5.19-1.73,1.97.09,3.98-.16,5.19,1.73Z"/>
  </g>
  <g>
    <path class="cls-10" d="M175.67,443.62c3.96.79,5.74-1.4,7.79-1.73.54-.09,1.17.05,1.73,0,1.13-.11,2.32.07,3.46,0,.69-.04,3.21-.01,4.33,0,4.5.04,9.12-.53,13.47.81,4.83,1.49,7.01,5.4,10.76,7.83.31.2.55.69.87.86.44,1.2,1.32,1.73,2.6,1.73,7.09,8.77,14.99,12.69,16.34,25.6,1.23,11.79-.38,25.65-2.22,37.29l-3.73,3.65c-.05-.08-1.49.35-1.74-.57-1.3-4.83,1.47-11-1.84-17.03-2.28-4.16-9.26-6.5-13.71-7.92-16.33-5.2-43.87-6.03-59.74,1.32-.4-1.88.99-1.88,2.14-2.57,4.27-2.54,10.92-4.37,15.82-5.85,2.05-.62,5.6.66,5.4-2.81-8.91-.34-17.8,1.55-25.49,6.07-1.74,1.02-11.07,7.86-11.77,8.98-1.03,1.65-1.93,5.28.92,4.82-2.94,4.46,2.79,17.56-5.19,16.42-.34-2.72-4.07-5.46-5.09-10.04-5.44-24.35-2.45-34.79,11.16-54.09,2.05-2.91,4.79-7.84,6.91-10.19,5.8-6.4,11.66-8.09,20.04-5.75,1.9.53,5.56,2.92,6.79,3.16ZM179.13,454.85h-14.28c-.66,0-13.08,4.11-10.81,6.04,6.25-.79,12.45-1.76,18.75-2.26,5.15-.41,11.08-.93,16.31-1.18,7.09-.34,14.13.7,21.19-.02l-1.45-2.43c-3.63.44-7.06-1.48-10.32-1.79-3.54-.34-12.15,1.23-13.65.68-1.38-.51-1.22-2.31-1.95-3.3-1.28-1.73-2.61-1.03-2.54-5.27l-3.83.02,2.59,9.5Z"/>
    <path class="cls-11" d="M135,644.97c1.15.21,2.2,2.77,2.99,3.5.85.78,2.09.72,2.2.82,1.47,1.43,1.42,3.09,1.73,3.46-2.16,2.31-1.74,5.74-1.73,8.64,2.31.85,1.67-1.6,2.55-2.17,4.15-2.7,2.32,4.92,6.1,4.76.21,1.02-.22,2.46,0,3.46.32,1.47.17,3.11,1.09,4.52l4.97,7.58c.09.28-.12.79,0,.86-.21,1.84-.11,1.93,1.73,1.73.16.47-.19,1.54,0,1.73-.08,1.72.84,2.65,2.6,2.59.78,1.15,1.91,2.04,2.6,3.46s-1.17,3.2,3.46,3.46c.27.3.63.53.87.86.21,4.24,7.61,10.01,11.25,10.37.27.03.59.02.87,0-.04.7.74,1.32.87,1.73,1.23,4.14-.04,5.61-.04,9.04,0,2.69,2.12,14.09-3.3,10.71-1.22-.76-3.64-11.59-2.72-13.71h-2.59c.17,3.2-.38,6.57.2,9.74.55,2.98,7.74,11.41.68,7.97-.24-.12-4.13-2.83-4.34-3.01-.3-.25.21-2.43-2.17-2.66-3.59-.34-3.6,6.35-7.34,2.22-.44-1.88,1.9-.71,1.82-2.56s-1.54-2.9-1.78-4.39c-.72-4.34,1.17-10.76-1-14.55-3.96-3.34-8.04-6.71-11.73-10.33-.46-.45-.38-1.91-1.16-2.69-2.2-2.21-7.77-2.74-10.39-6.07-3.12-3.96-.36-7.66-2.95-10.89-.4-.5-5.41-4.28-5.96-4.5-1.66-.66-3.32.41-4.09-.11-2.25-1.54,1.77-6.33-5.17-4.83-.94-2.07-1.18-1.79-1.73-4.32-.49-2.26-1.12-5.67-.4-7.72,1.68-4.79,2.8-3.48,5.63-4.78.81-.37,1.59-1.3,1.7-1.33,1.69-.47,13.8-2.76,14.71-2.59Z"/>
    <path class="cls-4" d="M250.96,552.51c2.22,6.51,10.17,12.68,11.89,18.81,2.15,7.69,1.12,20.18.18,28.25-1.57,13.46-.58,26.89-1.7,40.64-.72,8.79-6.65,18.15-11.56,25.61-5.48,8.33-12.51,15.83-20.04,22.34-7.11,6.15-23.46,14.97-25.31,23.99-1.1,5.36,1.62,14.16-1.89,17.99-7.36,8.05-23.63,9.53-33.25,5.47-1.92-.81-11.32-5.69-12.26-6.77-3.04-3.51-1.36-16.69-3.44-21.62-1.19-2.82-11.57-9.25-14.29-11.66-8.4-7.43-19.68-19.82-24.21-29.84,6.94-1.5,2.91,3.29,5.17,4.83.76.52,2.43-.55,4.09.11.55.22,5.55,4,5.96,4.5,2.59,3.23-.18,6.92,2.95,10.89,2.63,3.34,8.19,3.86,10.39,6.07.78.78.69,2.24,1.16,2.69,3.7,3.61,7.78,6.98,11.73,10.33,2.17,3.8.28,10.21,1,14.55.25,1.49,1.7,2.5,1.78,4.39s-2.25.68-1.82,2.56c3.75,4.14,3.75-2.56,7.34-2.22,2.38.23,1.87,2.41,2.17,2.66.75,6.44,10.86,7.93,16,7.85,3.95-.06,14.9-3.67,15.15-8.71.9-.39,3.23-.33,3.5-1.44-.28-3.37.27-6.95.01-10.27-.14-1.85-1.57-2.88-1.6-4.15-.07-2.65,4.08-3.17,5.38-4.94,7.49-10.16,10.17-10.34,19.94-17.24,5.72-4.04,6.53-7.59,10.02-11.6,2.28-2.62,8.41-3.39,9.35-8.89.78-4.56-4.26-9.01,5.31-5.42.3-.27,1.76-6.57,2.27-7.68,1.05-2.28,4.22-6.09,4.53-7.65.51-2.54-.95-4.55-.57-7.34.41-2.95,2.89-4.26,3.28-6.3.56-2.91.45-20.24-1.68-21.63-1.16-.76-3.01-.33-4.36-.4,2.62-5.89-1.56-3.77-1.75-4.75-1.23-6.4,5.77-3.11,6.95-5.39,2.03-3.93,3.07-18.13,1.99-22.54-.9-3.69-6.15-10.28-6.36-11.87-.26-1.96,1.57-4.94.75-6.28-.15-.25-1.7-.68-2.45-1.42-1.38-1.38-.83-3.15-3.89-3.15-5.65,0-4.32,7.54-6.08,7.87-1.11.21-4.38-2.68-6.47-1.74v3.47c-1.06.36-4.03-1.24-4.32-.88-.15.19.18,1.97-.17,2.87-.51,1.31-1.97,1.25-2.48,2.05-1.99,3.11-.26,8.28-6.01,9.77-.5-1.06-1.32-2.04-2.6-1.73-.1-.53.07-1.17,0-1.73.32-.25.56-.61.87-.86,4.3-3.54,8.19-10.67,14.09-14.94,4.63-3.35,10.21-5.05,15.34-7.53Z"/>
    <path class="cls-12" d="M154.04,495.47c15.86-7.35,43.4-6.52,59.74-1.32,4.45,1.42,11.43,3.76,13.71,7.92,3.31,6.02.54,12.2,1.84,17.03.25.92,1.69.49,1.74.57.18.31-.2,2.25.82,3.92,3.04,5.02,11.44,8.6,15.09,15.19,2.72,4.91,2.59,9.62,4,13.73-5.13,2.48-10.71,4.18-15.34,7.53-5.9,4.27-9.79,11.4-14.09,14.94h-.87c-10.71-9.6-21.03-13.21-35.9-12.09-10.38.78-13.42,3.38-20.79,9.49-.98.81-4.4,1.85-4.76,2.6-3.14-3.85-6.07-8.07-8.65-12.1,3.96,1.73,3.87,2.25,6.92,5.19.82.79,1.19,2.73,2.87,2.48,1.2-.18,5.1-3.61,5.79-5.07,8.59-3.34,10.93-4.62,20.77-5.19,3.53-.2,4.89-.42,8.65,0,5.23.58,13.27,2.53,17.92,5,2.47,1.31,5.53,3.12,4.58,6.24,4.28,1.05,5.16-3.84,6.92-6.92,3.28.1,9.71-7.5,12.54-9.52,2.1-1.5,9.32-3.44,9.87-6.6.13-.74-6.52-12.48-7.29-13.25-1.31-1.3-5.24-2.91-7.24-4.87s-2.95-4.8-5.29-6.39c-.19-2.56.17-5.21,0-7.78-.32-4.66-.64-8.34-1.74-12.97-1.45-1.39-7.21,6.16-6.92-.86.25-.07.57.05.87,0,.96-.17,3.35.49,3.47-.44.34-3.08-1.25-2.71-3.47-3.02-5.39-.76-7.78-2.83-12.98-4.32-4.08-1.17-6.34-1.29-10.38-1.73-15.54-1.67-26.46-.53-40.85,4.58-5.57,1.98-12.46,8.81-12.63,14.86-.05,1.88,1.91,9.56,1.56,9.93-.21.22-4.89,1.07-5.8,2.01-3.73,3.87-5.18,9.17-7.15,14.03-1.45,3.58-4.55,3.66-.89,8.59-.2.86-5.74,1.69-3.47,3.91.21.21,2.79-.22,3.85.04,1.19.29,3.95,2.48,4.8,1.69.24-.22.21-5.3,3.89-4.32,3.3.88-.92,5.31-.41,6.03,3.27.3,4.78,2.86,6.7,4.35,2.88,2.24,2.11.52,4.54,4.31-5.22-2.28-10.4-5.6-16-7.79-2.34-.91-8.49-1.82-9.46-2.48-.89-.61-.61-3.35-.5-4.42.28-2.65,2.99-10.1,4.16-12.7,2.15-4.77,7.66-10.35,7.09-14.96,7.98,1.14,2.26-11.96,5.19-16.42.3-.05.82.09.87,0,1.28,0,2.15-.54,2.6-1.73,2.61-1.18,6.19-5.37,9.52-6.91Z"/>
    <path class="cls-4" d="M124.62,548.19c-.11,1.08-.39,3.82.5,4.42.97.66,7.12,1.57,9.46,2.48,5.6,2.18,10.78,5.51,16,7.79,2.59,4.03,5.51,8.25,8.65,12.1-.2.43-2.11,8.04-2.38,9.29-1.86,8.57-2.57,17.64-.22,26.14-.09-.1-1.02.16-1.46-.25-.91-.84-.86-2.52-2.59-3.05-3.16-.98-8.87.38-12.39-.16-.02,1.15.03,2.31,0,3.46-2.31.4-1.77-.55-1.73-2.59.09-.02,1.64-.81,1.73-.86s-.18-1.17.23-1.46c2.58-1.79,7.56-.45,9.1-1.32,3.5-1.96-.13-11.71-3.31-13.17-2.53-1.16-6.81.34-4.67-4.8,4.63-.04,8.34-.57,12.49,1.74.31-3.62,2.53-6.84,1.72-10.62-.11-.52-6.07-6.96-6.96-8.07,2.65-8.54-4.45-1.97-8.63-3.27-2.2-.68-9.13-5.96-4.27-6.99-1.83-5.06-3.64-.58-4.09-.47-.64.16-5.53.83-5.81.76-1.62-.38-2.05-5.66-4.87-2.06s2.87,4.42,5.18,6.14c1.39,1.04,6.73,5.41,4.41,6.88-5.1,3.24-5.82-2.6-7.74-4.42-2.95-2.8-7.26-3.6-9.63.24s1.1,5.03.8,7.4c-.48,3.74-4.4,3.61-5.16,4.65-1.51,2.06-.75,14.33.21,17.03.64,1.79,3.79,1.36,4.19,2.77.43,1.54-1.43,2.62-1.51,4.09-.08,1.66,1.64,4.95,1.53,6.18-.09.97-3.19.53-4.16,2.84-1.86,4.4-.91,13.76-1.02,18.86-.05,2.57-1.02,4.86-.96,7.75.04,1.82,1.63,11.36,2.62,12.15,2.21,1.76,5.5-3.11,6.14-3.47,1.1-.62,2.16-.29,2.55-.48l1.73,1.73c-.1.03-.89.96-1.7,1.33-2.83,1.3-3.95-.01-5.63,4.78-.72,2.05-.09,5.46.4,7.72-2.11.46-1.78-1.08-2.44-2.28-1.9-3.47-2-5.8-3.25-8.9-2.36-5.85-5.76-7.62-3.82-15.89,1.61-6.85,1.15-9.33,1.73-16.57.34-4.2,2.63-10.18,2.59-13.86-.06-5.04-2.76-13.65-2.54-19.73.57-16.3,7.54-18.87,15.03-30.01,1.4-2.09,1.48-5.99,3.95-5.99Z"/>
    <path class="cls-4" d="M205.1,409.05c.37.38,1.64,1.62,1.73,1.73.14.17-.14.68,0,.86,2.36,3.08,1.9,1.34,3.46,2.59,1.86,1.49,9.77,12.22,10.45,14.22,1.27,3.72,1.01,9.02-.16,12.74-.2.64-1.3.68-1.55,1.39-.83,2.31-1.74,5.47-1.82,7.94-3.76-2.43-5.93-6.34-10.76-7.83-4.34-1.34-8.97-.77-13.47-.81,1.3-4.64-1.4-8.78-1.76-12.5-.29-3.05.03-6.79.03-9.97,1.62.52,11.74-2.1,12.11-2.6,1.87-2.5-5.07-2.52-5.69-3.38-1.7-2.37,2.47-6.58-1.23-6.12.18-.29-.15-1.36.17-2,1.85-3.72,5.22,1.68,6.85,3.18.52.48,1.49.39,1.64.54Z"/>
    <path class="cls-4" d="M158.37,412.51c4.47-.83,1.59-.57,3.45-2.83,1.12-1.36,6.34-7.63,7.79-5.2,1.02,1.7.92,4.43,4.34,4.57.34,1.52,1.59,4.81,1.54,5.49-.07,1-1.25,2.14-1.54,3.15-4.29-1.94-9.09-3.62-13.85-2.15.04,2.19,1.61,1.84,3.04,2.15,3.93.85,6.97,2.25,10.82,2.59h.87c-.21.56.12,1.81,0,2.59-.82,5.23-.96,9.28,0,14.69.35,2,.86,4,.87,6.05-1.23-.24-4.89-2.63-6.79-3.16-8.38-2.34-14.24-.65-20.04,5.75-.86-1.81-2.07-3.84-2.39-5.83-.37-2.29-1.1-9.71-1.01-11.83.19-4.69,4.41-8.33,6.87-11.73,1.75.06,2.67-.87,2.6-2.59.1-.11-.06-.55,0-.86.66.07,1.45-.83,1.73-.86.55-.08,1.2.1,1.73,0Z"/>
    <path class="cls-12" d="M170.48,396.95c.9.88,2.48,1.71,3.46,2.59v.86c.21.38.54.6.87.86.27.21.52.58.87.86.51,1.89.47,4.27.87,6.05h-2.6c-4.16-14.93-12.81-5.23-15.58,4.32-.53.1-1.18-.08-1.73,0-.2-3.8.03-7.53.87-11.23.06-.28-.07-.6,0-.86,4.36-2.51,7.62-4.26,12.98-3.46Z"/>
    <path class="cls-12" d="M191.25,416.83c-.04.86,0,1.73,0,2.59,0,3.17-.32,6.91-.03,9.97.36,3.73,3.06,7.86,1.76,12.5-1.12-.01-3.63-.04-4.33,0-.41-6.83,1.23-14.36-1.73-20.74.04-.57-.05-1.16,0-1.73,1.33-2.57,2.41-2.02,4.33-2.59Z"/>
    <path class="cls-12" d="M210.29,414.24c-1.56-1.25-1.1.49-3.46-2.59,2.61.48,1.68-1.32,1.73-2.99.22-6.85-.75-13.6-9.1-13.51-1.16.01-5.91,1.27-6.48,1.81-1.1,1.02-2.78,7.62-3.46,9.51-.13.35-.56.64-.87.86,0-.17-.81-.72-.86-1.41-.13-1.74,1.97-6.58,3.05-8.1.55-.77,1.98-.69,2.14-.86.09-.1-.17-1.1.63-1.73,3.25-2.57,3.7-3.04,7.87-2,10.08,2.53,8.49,12.57,8.81,21.01Z"/>
    <path class="cls-12" d="M178.27,422.02c.02.72,1.1,2.23.89,4.73-.16,1.96-.83,11.98-.82,12.71,0,.49-.94,2.43-1.2,4.33-2.05.33,2.49.62-1.47-.17,0-2.05-.51-4.05-.87-6.05,3.61-1.66.9-5.96.97-8.25.03-1.09,1.24-3.71,1.62-5.57.14-.69-.03-1.48.87-1.73Z"/>
    <path class="cls-12" d="M188.65,441.89c-1.14.07-2.33-.11-3.46,0,1.68-6.01.58-12.46.83-18.65.05-1.14.89-1.96.9-2.09,2.96,6.38,1.32,13.91,1.73,20.74Z"/>
    <path class="cls-12" d="M176.54,408.19c.34,1.53,1.7,4.09,1.73,4.32.2,1.34-.16,2.94,0,4.32-2.09-.08-2.83,1.77-3.46,3.46h-.87c.13-.79-.19-1.93,0-2.59.29-1.01,1.48-2.16,1.54-3.15.05-.68-1.2-3.97-1.54-5.49-.06-.28.07-.6,0-.86h2.6Z"/>
    <path class="cls-12" d="M156.63,412.51c-.28.04-1.07.94-1.73.86.72-3.79-1.77-9.61,2.6-12.1-.83,3.71-1.07,7.44-.87,11.23Z"/>
    <path class="cls-12" d="M192.12,408.19c-.43,1.27-.7,3.74-.87,5.19-.03.28.02.58,0,.86l-2.6-.86c.3-1.1.06-4.57,0-6.05.31-.22.74-.52.87-.86l2.6,1.73Z"/>
    <path class="cls-12" d="M178.27,416.83c.18,1.61-.05,3.5,0,5.19-.89.25-.72,1.03-.87,1.73l-2.6-.86c.12-.78-.21-2.04,0-2.59.63-1.69,1.37-3.53,3.46-3.46Z"/>
    <path class="cls-12" d="M191.25,414.24c-.07.85.04,1.73,0,2.59-1.92.57-3,.02-4.33,2.59.44-5.28.97-3.29,1.73-6.05l2.6.86Z"/>
    <path class="cls-4" d="M218.08,451.4c2.03,1.1.45-.93,2.6,1.73-1.27,0-2.16-.53-2.6-1.73Z"/>
    <path class="cls-12" d="M174.81,401.28c-.32-.26-.66-.49-.87-.86h.87v.86Z"/>
    <path class="cls-12" d="M174.81,400.41h-.87v-.86c.3.27.68.47.87.86Z"/>
    <path class="cls-5" d="M179.13,454.85l-2.59-9.5,3.83-.02c-.06,4.24,1.26,3.54,2.54,5.27.73.99.57,2.79,1.95,3.3,1.5.55,10.11-1.02,13.65-.68,3.26.31,6.69,2.23,10.32,1.79l1.45,2.43c-7.05.72-14.1-.32-21.19.02-5.23.25-11.16.77-16.31,1.18-6.3.5-12.5,1.47-18.75,2.26-2.27-1.93,10.16-6.04,10.81-6.04h14.28Z"/>
    <path class="cls-5" d="M141.06,504.11c-2.85.46-1.95-3.17-.92-4.82.7-1.12,10.03-7.96,11.77-8.98,7.69-4.53,16.59-6.42,25.49-6.07.19,3.47-3.36,2.19-5.4,2.81-4.9,1.48-11.55,3.32-15.82,5.85-1.16.69-2.54.69-2.14,2.57-3.33,1.54-6.91,5.73-9.52,6.91-.54.24-2.28-.27-2.6,0-.21.18.2,1.37,0,1.73-.05.09-.57-.05-.87,0Z"/>
    <path class="cls-1" d="M183.46,706.33v22.46c1.42,1.61,5.04-6.19,5.37-7.16,1.08-3.16,1.63-6.78,1.55-10.13h2.59c-.26,3.17.42,6.8-.05,9.89-.64,4.15-4.06,5.58-5.13,9.13.73.68,8.73-3.59,10.38-4.32-.26,5.04-11.21,8.65-15.15,8.71-5.14.08-15.25-1.41-16-7.85.21.18,4.11,2.9,4.34,3.01,7.07,3.44-.13-4.99-.68-7.97-.58-3.17-.04-6.54-.2-9.74h2.59c-.93,2.12,1.49,12.95,2.72,13.71,5.42,3.38,3.3-8.03,3.3-10.71,0-3.43,1.27-4.9.04-9.04,1.18-.24,3.44.34,4.33,0Z"/>
    <path class="cls-4" d="M129.81,608.68c-.67,1.12-2.14,2.47.42,2.6,3.4.17,6.62.25,9.97.86-.72,12.92-6.89,25.15,0,37.16-.11-.1-1.35-.04-2.2-.82-.8-.73-1.84-3.29-2.99-3.5,1.6-1.66.48-4.75-1.42-5.06-.57-.09-9.1,3.58-10.69,4.2.55-7.93,6.29-5.43,12.11-5.19,1.19-5.15-.93-4.4-2.5-6.57-3.14-4.33,2.73-5.1,3.45-6.08.68-.92,1.16-6.03.79-6.36-.29-.26-2.42.41-3.31-.14s-1.61-5.37-2.05-5.75c-.37-.32-8.82-1.02-5.81-5.26,1.2-1.69,4.02-.07,4.24-.09Z"/>
    <path class="cls-4" d="M190.38,696.83c-2.2,6.07,7.47,5.09,3.91,10.39-2.72,4.06-4.29-3.87-6.19-4.23-2.33-.44-4.32,3.22-4.64,3.34-.89.34-3.15-.24-4.33,0-.12-.41-.9-1.03-.87-1.73,5.38-.38,8.16-4.86,12.12-7.78Z"/>
    <path class="cls-8" d="M135,644.97c-.92-.17-13.03,2.12-14.71,2.59l-1.73-1.73c1.86-.88,2.64-1.06,4.33-1.73,1.59-.63,10.13-4.3,10.69-4.2,1.9.32,3.02,3.4,1.42,5.06Z"/>
    <path class="cls-4" d="M148.85,663.99c-3.78.15-1.95-7.46-6.1-4.76-.87.57-.24,3.01-2.55,2.17-.02-2.89-.43-6.33,1.73-8.64.12.14,1.6.04,2.49,1.37,1.3,1.95,3.98,7.6,4.44,9.87Z"/>
    <path class="cls-4" d="M166.15,694.23l11.25,10.37c-3.64-.36-11.04-6.13-11.25-10.37Z"/>
    <path class="cls-4" d="M148.85,667.44c2.06-.45,2.5,2.74,3.18,4.17,1.35,2.88,1.94,5,2.88,7.93l-4.97-7.58c-.92-1.41-.77-3.05-1.09-4.52Z"/>
    <path class="cls-4" d="M165.29,693.37c-4.63-.26-2.78-2.05-3.46-3.46,2.95-.29,2.8,2.72,3.46,3.46Z"/>
    <path class="cls-4" d="M159.23,686.46c-1.76.06-2.67-.87-2.6-2.59.89.9.77-.12,2.6,2.59Z"/>
    <path class="cls-4" d="M154.9,680.41c.33.19,1.51-.22,1.73,0s-.16,1.27,0,1.73c-1.84.21-1.94.11-1.73-1.73Z"/>
    <path class="cls-11" d="M223.27,579.3c5.75-1.5,4.02-6.66,6.01-9.77.51-.8,1.97-.74,2.48-2.05.35-.9.02-2.68.17-2.87.3-.36,3.27,1.23,4.32.88v-3.47c2.09-.94,5.36,1.95,6.48,1.74,1.76-.34.43-7.87,6.08-7.87,3.06,0,2.51,1.77,3.89,3.15.75.74,2.29,1.17,2.45,1.42.82,1.34-1,4.32-.75,6.28.21,1.59,5.46,8.18,6.36,11.87,1.08,4.41.04,18.61-1.99,22.54-1.18,2.28-8.18-1.01-6.95,5.39.19.98,4.36-1.14,1.75,4.75,1.35.07,3.2-.36,4.36.4,2.13,1.38,2.24,18.71,1.68,21.63-.39,2.04-2.88,3.35-3.28,6.3-.38,2.78,1.07,4.8.57,7.34-.31,1.55-3.48,5.37-4.53,7.65-.51,1.11-1.97,7.41-2.27,7.68-9.56-3.59-4.53.85-5.31,5.42-.94,5.5-7.07,6.27-9.35,8.89-3.49,4.01-4.3,7.56-10.02,11.6-9.77,6.9-12.46,7.08-19.94,17.24-1.31,1.78-5.45,2.3-5.38,4.94.03,1.27,1.46,2.3,1.6,4.15.25,3.32-.29,6.91-.01,10.27-.27,1.1-2.6,1.04-3.5,1.44-1.65.72-9.65,5-10.38,4.32,1.07-3.55,4.49-4.97,5.13-9.13.48-3.09-.21-6.72.05-9.89h-2.59c.08,3.35-.47,6.96-1.55,10.12-.33.97-3.96,8.77-5.37,7.16v-22.46c.32-.12,2.31-3.78,4.64-3.34,1.89.35,3.46,8.28,6.19,4.23,3.56-5.3-6.11-4.32-3.91-10.39.19-.14.68.14.87,0,3.36-2.48,5.07-4.15,8.22-6.91,2.62-2.29,5.78-1.62,4.76-7.78.28-.29.58-.57.87-.86,1.4-1.47,5.6-4.91,6.95-6.69,3.74-4.94-.93-12.82,9.49-9.73.7-2.69-2.31-4.42-2.63-6.52-.24-1.56,1.48-1.05,1.76-1.85.25-.71-.14-1.66.01-1.99.59-.36,1.75-.06,2.67-1.23.99-1.25.5-2.25.79-3.09.27-.76.62-1.18.87-1.73,2.45-.15,3.69-1.94,3.46-4.32l19.9,5.18c-.11-1.05.57-1.83-.6-2.59-4.46-2.85-12.36-5.84-17.56-6.91.34-1.22-3.12-21.15-3.46-25.06,4.58,1.41,2.91-2.65,4.86-3.35s9.72,1.34,9.86.32c.53-3.85-5.35-3.34-8.14-3.96-1.36-.3-2.38-1.43-3.53-1.66-3.02-.62.63,5.16-3.04,4.34-.14-1.97.78-3-1.73-2.59.23-.62-.24-2.31,0-2.59.49-.56,1.42,1.46,1.73-1.73.12-1.22.23-7.27,0-7.78.09-1.47.31-2.02-1.29-1.72l-.44.86c-.43-.14-1.19.1-1.73,0-.02-.86.05-1.73,0-2.59,2.12.11,14.45-4.03,14.73-4.75.16-.42.27-2.09-.46-2.17-2.42-.28-10.5,2.64-13.41,3.46-.11-3.33.58-6.41-.87-9.51ZM208.55,691.64c-3.12-1.73-5.91,3.21-3.02,4.31,2.73,1.04,2.96-2.48,3.02-4.31Z"/>
    <path class="cls-12" d="M196.44,492.88c-1.16,5.19,9.69,6.51,10.38,1.73,5.2,1.49,7.59,3.56,12.98,4.32v3.46c-.29.05.79-.1.54-.03-2.2.65-.76,1.94.19,2.52,1.09.67,4.12-3.28,5.32-1.63.69.95,1.8,4.4,1.74,12.97.17,2.57-.19,5.22,0,7.78.29,3.88,6.31,9.48,6.1,11.62-.24,2.49-2.52,3.61-4.61,2.25-.7-.46-4.16-6.78-5.68-2.06-.24.73.53,13.91.77,15.37.41,2.51,2.74,3.65,2.22,5.67-1.17,4.58-3.57,1.3-5.39,1.09-1.67-.19-4.34,1.22-6.38.63-1.67,1.36,9.76,6.03,10.38,6.04-1.76,3.08-2.64,7.97-6.92,6.92.94-3.11-2.12-4.92-4.58-6.24-4.65-2.47-12.69-4.42-17.92-5l1.73-5.18c-4.8-2.12-9.88-.51-10.38,5.18-9.84.57-12.18,1.84-20.77,5.19-2.43.95-6.05,1.97-8.65,2.59-3.05-2.94-2.96-3.46-6.92-5.19-2.43-3.79-1.67-2.07-4.54-4.31-1.92-1.49-3.43-4.04-6.7-4.35-.5-.72,3.71-5.15.41-6.03-3.68-.98-3.65,4.1-3.89,4.32-.85.79-3.61-1.4-4.8-1.69-1.05-.26-3.64.17-3.85-.04-2.27-2.22,3.28-3.04,3.47-3.91-3.66-4.93-.55-5.01.89-8.59,1.97-4.87,3.42-10.17,7.15-14.03.91-.94,5.59-1.78,5.8-2.01.35-.36-1.61-8.05-1.56-9.93.17-6.05,7.06-12.89,12.63-14.86,14.39-5.1,25.32-6.25,40.85-4.58Z"/>
    <path class="cls-10" d="M220.67,574.98v.86c.07.55-.1,1.2,0,1.73.68,3.51,2.23,7.6,2.6,11.23.11,1.13-.07,2.32,0,3.46.05.86-.02,1.73,0,2.59.14,5.82.71,11.9-1.73,17.28-.35.77-.69,2.35-.87,2.59-.09.13-.39-1.09-1.73,1.73-.95,2-3.33,4.89-3.46,5.19-6.63-2.07-12.89,1.98-19.49,2.58-4.13.37-11.49.43-15.6.05-7.25-.67-13.67-5.58-21.17-4.36-.2-.7.19-1.87,0-2.59-.32-1.21-.84-1.63-.87-1.73-.53-2.01.28-2.91-1.73-5.19-2.35-8.51-1.65-17.57.22-26.14.27-1.25,2.18-8.86,2.38-9.29.35-.75,3.78-1.79,4.76-2.6,7.37-6.11,10.41-8.7,20.79-9.49,14.87-1.12,25.19,2.48,35.9,12.09Z"/>
    <path class="cls-12" d="M225,564.61c-.62-.02-12.05-4.69-10.38-6.04,2.04.59,4.71-.82,6.38-.63,1.82.21,4.23,3.49,5.39-1.09.52-2.02-1.81-3.16-2.22-5.67-.24-1.46-1.01-14.64-.77-15.37,1.52-4.72,4.98,1.6,5.68,2.06,2.09,1.36,4.37.25,4.61-2.25.21-2.14-5.81-7.74-6.1-11.62,2.33,1.59,3.32,4.46,5.29,6.39s5.93,3.58,7.24,4.87c.77.77,7.42,12.5,7.29,13.25-.55,3.16-7.77,5.1-9.87,6.6-2.83,2.02-9.26,9.61-12.54,9.52Z"/>
    <path class="cls-12" d="M186.92,560.28c.5-5.69,5.58-7.3,10.38-5.18l-1.73,5.18c-3.76-.42-5.12-.2-8.65,0Z"/>
    <path class="cls-12" d="M206.83,494.61c-.7,4.78-11.54,3.47-10.38-1.73,4.04.44,6.31.56,10.38,1.73Z"/>
    <path class="cls-12" d="M166.15,565.47c-.69,1.46-4.59,4.89-5.79,5.07-1.68.25-2.05-1.69-2.87-2.48,2.6-.62,6.22-1.65,8.65-2.59Z"/>
    <path class="cls-12" d="M219.81,498.93c2.21.31,3.8-.06,3.47,3.02-.12.92-2.5.27-3.47.44v-3.46Z"/>
    <path class="cls-10" d="M144.52,502.38c-.45,1.19-1.32,1.74-2.6,1.73.19-.35-.22-1.55,0-1.73.32-.27,2.06.24,2.6,0Z"/>
    <path class="cls-8" d="M220.67,575.84v-.86h.87c-.31.25-.55.61-.87.86Z"/>
    <path class="cls-11" d="M118.56,645.84c-.39.19-1.45-.15-2.55.48-.64.36-3.93,5.23-6.14,3.47-.98-.78-2.58-10.33-2.62-12.15-.06-2.89.91-5.17.96-7.75.11-5.09-.84-14.45,1.02-18.86.97-2.31,4.07-1.87,4.16-2.84.11-1.23-1.61-4.52-1.53-6.18.07-1.46,1.94-2.55,1.51-4.09-.4-1.42-3.56-.99-4.19-2.77-.96-2.7-1.71-14.97-.21-17.03.76-1.04,4.68-.92,5.16-4.65.3-2.37-3.12-3.64-.8-7.4s6.68-3.04,9.63-.24c1.92,1.82,2.64,7.66,7.74,4.42,2.32-1.48-3.02-5.85-4.41-6.88-2.3-1.72-8.12-2.39-5.18-6.14s3.25,1.68,4.87,2.06c.29.07,5.17-.6,5.81-.76.45-.11,2.26-4.59,4.09.47-4.86,1.03,2.07,6.31,4.27,6.99,4.18,1.29,11.28-5.28,8.63,3.27.88,1.11,6.84,7.54,6.96,8.07.82,3.78-1.41,7-1.72,10.62-4.14-2.3-7.86-1.78-12.49-1.74-2.14,5.14,2.14,3.64,4.67,4.8,3.19,1.46,6.81,11.21,3.31,13.17-1.55.87-6.52-.47-9.1,1.32-.42.29-.15,1.4-.23,1.46s-1.64.84-1.73.86c-.49.12-1.18-.09-1.73,0,.79-2.79-4.4-2.57-3.46,0-1.11.12-2.3.76-3.46.86-.23.02-3.04-1.61-4.24.09-3.01,4.24,5.44,4.94,5.81,5.26.44.38,1.18,5.21,2.05,5.75s3.02-.12,3.31.14c.36.33-.12,5.44-.79,6.36-.72.98-6.59,1.75-3.45,6.08,1.57,2.17,3.69,1.42,2.5,6.57-5.82-.24-11.56-2.74-12.11,5.19-1.69.66-2.46.85-4.33,1.73Z"/>
    <path class="cls-12" d="M192.98,396.95c.58-.53,5.32-1.79,6.48-1.81,8.35-.09,9.32,6.66,9.1,13.51-.05,1.66.88,3.47-1.73,2.99-.14-.18.14-.69,0-.86.67-2.1-1.65-1.6-1.73-1.73-.58-.99,0-4.27-2.57-6.51-4.83-4.21-8.95,1.29-10.41,5.64l-2.6-1.73c.68-1.88,2.36-8.49,3.46-9.51Z"/>
    <path class="cls-3" d="M196.44,407.32c3.7-.46-.47,3.75,1.23,6.12.62.86,7.56.89,5.69,3.38-.37.5-10.5,3.13-12.11,2.6,0-.86-.04-1.73,0-2.59,4.61-1.37,1.39-4.17,3.46-7.78.42-.61,1.37-1.14,1.73-1.73Z"/>
    <path class="cls-2" d="M205.1,409.05c.08.13,2.4-.37,1.73,1.73-.09-.11-1.36-1.35-1.73-1.73-.15-.15-1.12-.06-1.64-.54-1.63-1.5-4.99-6.91-6.85-3.18-.31.63,0,1.7-.17,2-.36.59-1.31,1.12-1.73,1.73-.81,1.17-2.65,2.79-3.46,4.32.17-1.45.44-3.92.87-5.19,1.46-4.35,5.58-9.85,10.41-5.64,2.57,2.24,1.99,5.51,2.57,6.51Z"/>
    <path class="cls-2" d="M173.94,408.19c.07.26-.06.59,0,.86-3.42-.14-3.31-2.87-4.34-4.57-1.45-2.42-6.67,3.85-7.79,5.2-1.86,2.25,1.02,2-3.45,2.83,2.77-9.55,11.42-19.25,15.58-4.32Z"/>
    <path class="cls-3" d="M173.94,417.69c-.19.66.13,1.8,0,2.59-3.85-.35-6.89-1.74-10.82-2.59-1.43-.31-3,.04-3.04-2.15,4.76-1.47,9.57.21,13.85,2.15Z"/>
    <path class="cls-12" d="M177.4,423.74c-.39,1.86-1.59,4.48-1.62,5.57-.07,2.3,2.64,6.59-.97,8.25-.96-5.41-.82-9.46,0-14.69l2.6.86Z"/>
    <path class="cls-4" d="M191.25,416.83c.04-.86-.07-1.74,0-2.59.02-.29-.03-.58,0-.86.81-1.53,2.65-3.16,3.46-4.32-2.07,3.61,1.15,6.41-3.46,7.78Z"/>
    <path class="cls-4" d="M215.48,621.64c-3.04,6.83-3.56,13.92-9.53,20.3-3.06,3.27-9.5,5.06-12.94,7.81-1.7,1.36-2.66,4.77-4.79,4.76-1.84-.01-4.26-3.97-6.19-5.09-4.88-2.85-7.74-2.34-12.4-7.49-4.96-5.48-4.17-7.73-6.13-13.59-.45-1.36-3.26-4.83-4.27-8.43,7.5-1.23,13.91,3.68,21.17,4.36,4.11.38,11.47.32,15.6-.05,6.6-.6,12.85-4.65,19.49-2.58Z"/>
    <path class="cls-8" d="M230.19,639.79c5.21,1.07,13.11,4.06,17.56,6.91,1.18.75.5,1.54.6,2.59l-19.9-5.18h-.87c.59-1.08,2.53-4.08,2.6-4.32Z"/>
    <path class="cls-4" d="M224.13,650.16c-.3.84.2,1.84-.79,3.09-.92,1.16-2.08.86-2.67,1.23-.15.34.24,1.28-.01,1.99-.28.79-2,.28-1.76,1.85.32,2.1,3.33,3.84,2.63,6.52-10.42-3.09-5.75,4.79-9.49,9.73-1.35,1.78-5.55,5.22-6.95,6.69l13.46-25.91c.41-.99,1.74-.65,2.12-.88.75-1.7,1.15-4.75,3.46-4.32Z"/>
    <path class="cls-3" d="M226.73,610.41c3.66.82.01-4.96,3.04-4.34,1.15.24,2.18,1.36,3.53,1.66,2.8.62,8.67.11,8.14,3.96-.14,1.02-7.86-1.05-9.86-.32s-.27,4.76-4.86,3.35c-.13-1.42.1-2.9,0-4.32Z"/>
    <path class="cls-8" d="M225,594.85c.09.03,1.69.78,1.73.86.23.51.12,6.55,0,7.78-1.84-.21-1.94-.11-1.73,1.73-.24.28.23,1.97,0,2.59-.57,1.58-1.81,5.05-3.46,4.32,2.44-5.38,1.87-11.46,1.73-17.28.54.1,1.3-.14,1.73,0Z"/>
    <path class="cls-4" d="M191.25,696.83c3.11-5.41,8.62-10.14,12.98-14.69,1.02,6.16-2.14,5.48-4.76,7.78-3.15,2.76-4.86,4.44-8.22,6.91Z"/>
    <path class="cls-3" d="M133.27,607.81c1.11-.12,2.41.17,3.46,0,.55-.09,1.24.12,1.73,0-.04,2.04-.58,3,1.73,2.59-.01.57.03,1.16,0,1.73-3.35-.61-6.57-.7-9.97-.86-2.56-.12-1.09-1.48-.42-2.6,1.16-.1,2.35-.74,3.46-.86Z"/>
    <path class="cls-4" d="M228.46,644.11c.23,2.39-1.01,4.17-3.46,4.32,1.24-2.79,1.84-2.94,2.6-4.32h.87Z"/>
    <path class="cls-4" d="M159.23,617.32c-1.99.3-2.42-.33-.87-1.73.02.09.55.52.87,1.73Z"/>
    <path class="cls-8" d="M220.67,614.73c.26,1.76.03,1.98-1.73,1.73,1.34-2.82,1.64-1.6,1.73-1.73Z"/>
    <path class="cls-3" d="M224.13,588.8c2.9-.83,10.98-3.75,13.41-3.46.72.08.62,1.76.46,2.17-.28.72-12.61,4.86-14.73,4.75-.07-1.14.11-2.33,0-3.46h.87Z"/>
    <path class="cls-8" d="M220.67,577.57c1.27-.31,2.1.66,2.6,1.73,1.45,3.1.75,6.18.87,9.51h-.87c-.36-3.63-1.92-7.72-2.6-11.23Z"/>
    <path class="cls-4" d="M208.55,691.64c-.05,1.83-.28,5.34-3.02,4.31-2.89-1.1-.11-6.04,3.02-4.31Z"/>
    <path class="cls-3" d="M226.73,603.49c-.31,3.19-1.24,1.17-1.73,1.73-.21-1.84-.11-1.93,1.73-1.73Z"/>
    <path class="cls-3" d="M225,594.85l.44-.86c1.6-.3,1.37.25,1.29,1.72-.04-.09-1.64-.83-1.73-.86Z"/>
    <path class="cls-4" d="M133.27,607.81c-.94-2.57,4.25-2.79,3.46,0-1.05.17-2.35-.12-3.46,0Z"/>
  </g>
  <g>
    <path class="cls-11" d="M591.92,553.37c8.05.79,14.91,4.68,22.5,6.91.14.16-.13.65,0,.86.97,1.52,1.4,1.94,3.46,1.73.66.61,1.12,1.1,1.73,1.73.1.11-.33,1.02.21,1.54.16.16,3.44,1.59,4.12,1.92.13.17-.14.78,0,.86-.21,1.84-.11,1.93,1.73,1.73.29.58.66.94.87,1.73,1.82,7.07-.9,7.01-.96,10.83-.02,1.19.95,1.99.96,2.13.04.86,0,1.73,0,2.59-2.47.37-13.22-3.26-13.84-.42,1.35,3.49,7.83,1.75,10.38,5.18.44,1.72-3.91,3.09-3.5,6.03.06.4,1.77.49,1.81.89.25,2-2.04,3.26-1.78,4.29s2.51,1.01,3.2,1.61c.46.4.17,1.34.26,1.44-4.4-.72-9.04.61-12.98.86-.43.03-1.96-1.03-3.75-.82-2.33.27-8.82,1.28-8.37,4.7.07.55,4.85-.76,6.97-.05,3.47,1.16,1.2,4.76,5.15,3.94-.73,8.23-3.39,16.72-4.33,25.06-5.25-.72-16.31,2.54-19.05,7.34,6.66.83,12.62-3.13,19.05-3.01.04-.86-.04-1.73,0-2.59,2.04-.44,1.84,1.01,2.46,2.26,1.01,2.03,2.15,3.81,3.07,5.62,9.78,19.27,16.54,41.89,36.05,53.88,4.48,2.14,6.87-3.04,9.92-5.59,12.93-10.83,19.74-21.42,28.04-35.95,2.49-4.37,7.21-16.33,11.11-19.16.53-.39,1.82-.04,1.96-.19,4.39,1.93,10.79,4.95,15.36,5.87,1.52.3,3.74.55,4.54-1.13s-5.17-1.7-5.85-3.64l-12.31-5.42c-2.11-6.38-.96-14.92-2.64-20.98-.2-.72-1.52-.58-1.67-1.22-.39-1.6.05-4.09-.02-5.93-.06-1.66.88-3.46-1.74-2.98,1.23-2.17,3.41-3.79,3.48-4.06.26-1.05.22-7.19-.03-8.32-.15-.68-2.72-.66-1.71-3.15,3.11-1.6,7.62-2.42,10.43-3.86,1.3-.67,2.88-1.25,2.54-3.07-5.35,1.11-10.61,1.45-15.57,3.45.91-4.52-1.38-9.61-.87-13.82.58-4.77,2.94-3.59,4.94-5.44.94-.86,1.23-2.78,2.28-3.78,5.66-5.39,14.01-12.09,22.2-11.52,1.77,4.34,6.33,8.5,8.21,12.97,6.29,14.94,1.46,23.77-.47,37.53-1.4,10.03,2.19,26.48.91,38.07-2,18.17-27.38,42.09-41.1,53.15-5.81,4.68-14.1,7.88-15.82,16.18-1.66,8.01,3.21,16.82-6.32,22.21-3.6,2.03-16.85,3.48-21.19,3.14-4.48-.35-17.33-6.12-19.47-9.94-2.62-4.68-.4-15.35-2.13-19.47-.81-1.92-7.9-6.3-9.95-8.22-13.1-12.21-24.06-22.54-32.78-38.32-7.62-13.79-7.91-21.03-7.01-36.86.33-5.73,3.45-16.8,3.37-20.77-.04-1.91-2.27-6.89-2.55-10.32-.68-8.33.75-23.41,6.07-30.06,2.28-2.85,8.11-7.15,10.41-10.16ZM708.75,611.27c1.93-1.71-8.18-5.4-9.04-5.18-1.52.39-1.67,5.43-2.2,6.91,3.95-1.16,6.91-2.39,11.24-1.73ZM652.5,706.33c-5.24-1.01-2.38,8.21-2.56,12.57-.12,2.82-1.01,5.37-.91,8.17-3.61,3.67-7.38-13.1-6.06-15.56h-2.59c.03,5.23-.8,11.57,2.56,16.02,1.18,1.55,3.08,1.5,3.48,2.99l-11.25-3.01c1.13,3.79,11.95,7.94,15.2,8.17,2.39.17,21.09-5.5,17.69-8.61-1.24-1.13-8.68,5.06-11.25,3.44,5.88-5.29,7.79-11.18,6.05-19.01h-2.59c-.1,2.65-.19,6.37-.94,8.84-.2.66-1.21.72-1.32.98-1.05,2.56-1.83,7.28-5.53,6.6v-21.6Z"/>
    <path class="cls-12" d="M625.67,494.61c20.08-5.51,46.32-8.05,65.51,2.41,10,5.45,8.12,12.09,8.04,22.21l3.47-.43c-.38,1.4-1.2,2.83-.46,4.29,4.58,5.67,13.49,12.71,16.37,19.15,1.77,3.95,1.7,8.48,3.13,11.99-8.19-.56-16.55,6.13-22.2,11.52-1.05,1-1.34,2.92-2.28,3.78-2,1.84-4.37.66-4.94,5.44l-2.6.86c-.61-2.22-9.39-8.33-11.79-9.4-12.97-5.81-40.04-5.1-47.92,8.54-1.62-.72-1.44-3.11-3.46-2.59-.2-.78-.57-1.15-.87-1.73-.14-.27.27-1.2-.13-1.6-.43-.43-1.37,0-1.6-.13-.14-.08.13-.69,0-.86-.1-.13.25-.94-.19-1.52-.56-.73-3.08-1.64-4.14-1.94-.61-.63-1.07-1.12-1.73-1.73-1.02-.94-1.18-2.22-3.46-1.73-.13-.21.14-.7,0-.86-.73-.86-6.23-4.22-7.14-4.57-4.72-1.84-9.86-2.03-14.5-4.07,2.24-5.89,4.06-16.67,7.76-21.83,2.15-3,6.05-3.18,5.22-9.28,1.46-.12,2.9.82,3.73-1.05,2.28-5.08-1.73-11.25,1.46-16.24,2.69-1.29,6.92-3.69,8.65-6.05,1.59.27,2.04-.12,1.73-1.73,1.45-.32,2.88-.47,4.33-.86ZM697.28,506.9c-3.91-3.03-7.13-8.22-11.94-10.09-2.82-1.1-6.53-.12-9.9-1.35-1.82-.67-2.71-2.25-4.36-2.56-13.3-2.54-33.16-.52-45.58,4.4-1.92.76-2.68,4.29-3.25,4.68-1.11.76-3.91.27-5.89,1.06-7.33,2.91-2.48,9.8-4.09,15.8-.63,2.34-7.03,11.57-8.87,14.49-2.14,3.4-1.36.78-2.98,5.65-.42,1.27-2.27,1.15-2.48,2.03-.34,1.41.33,3.39,0,5s-1.93,2.21-1.71,3.9c4.52,1.55,9.77,2.61,14.05,4.55,2.62,1.19,12.89,6.89,14.83,8.52,2.35,1.97,1.89,6.97,4.56,7.52,2.51.52,3.34-2.9,5.17-4.07s4.95-1.42,6.62-2.66c1.17-.87,1.22-2.8,2.95-3.33,2.37-.73,12.27-.33,15.46-.19,2.93.12,11.43.55,13.6,1.11.77.2,12.21,5.82,12.75,6.28,2.01,1.75-1.11,5.79,5,3.3,2.41-.98,1.28-4.17,2.1-5.3.43-.59,3-.77,4.12-1.51,1.54-1.01,1.84-2.97,3.05-3.87,5.04-3.77,9.23-5.23,14.4-9.82.64-.57,2.31-.24,2.56-1.03,1.25-4.13-2.18-4.25-3.56-5.94-1.65-2.03-2.82-6.27-5.32-9.42-2.24-2.81-9.03-6.74-9.36-7.24-2.26-3.46-1.06-7.75-1.74-10.87-.14-.63-2.59-.34-1.71-3.48.09-.31,3.6-1.81,1.51-5.55Z"/>
    <path class="cls-4" d="M679.33,412.51c1.13.49,10.62,14.07,11.05,16.18,1.5,7.23-1.46,14.94-3.26,21.84-9.85-8.83-11.17-8.17-24.23-8.64.68-1.39-.79-2.88-.87-3.46-.11-.83.11-1.76,0-2.59-.17-1.3-.87-4.5-.87-4.75v-13.83c0-.46-1.15-1.25-.71-3.21.26-1.15,1.87-3.86,3.31-3.27-.49,2.81-.91,5.78-.86,8.64,1.21,1.18,13.17-3.15,10.39-7.32-4.4-2.2-1.5,4.73-6.93,2.99-.2-.18.62-4.81.89-5.36.37-.74,5.27-3.38,1.25-4.99-1.74-.7-2.72,4.86-4.75,5.18,3.77-18.07,8.64-.9,11.7,1.72,1.66,1.43,3.1.53,3.88.87Z"/>
    <path class="cls-4" d="M642.98,409.92c1.28,2.93,3.32,8.07-.87,8.64-.17-.41.08-1.22-.39-1.75-1.48-1.68-11.76-2.35-11.74-1.27-.02,2.3,1.86,1.74,3.06,2.13,2.81.93,6.05,2.04,9.07,1.75.84,2.4,1.71,4.75,1.79,7.34.15,4.79-3.6,10.85,2.54,12.53-.15,2.02-.32,3.38,1.73,4.32v.86c-.27-.07-.6.08-.87,0-4.73-1.43-9.13-5.16-15.14-5.17-4.11,0-11.66,3.86-14.28,6.9-.4-2.74-1.71-3.55-2.35-6.72-.53-2.62-1.22-8.17-.91-10.75.69-5.78,6.87-11.52,11.05-15.37.39-.36,2.6-.67,3.46-1.73l.85-.43-.85-.43c.29-.55.59-1.17.87-1.73,3.79.7,4.02-5.35,8.08-5,2.51.22,3.98,3.75,4.9,5.86Z"/>
    <path class="cls-12" d="M655.96,441.89c.31-5.55.08-11.28.04-16.89-.03-5.15-.19-14.56,1.2-19.51.45-1.61,1.9-1.42,2.18-2.28,1.16-3.58-.3-5.05,4.09-7.85,4.15-2.65,7.51-2.54,11.52.32,5.94,4.24,4.2,10.34,4.35,16.82-.78-.34-2.21.56-3.88-.87-3.06-2.62-7.93-19.8-11.7-1.72-.06.28.05.58,0,.86-1.44-.58-3.05,2.12-3.31,3.27-.44,1.96.71,2.75.71,3.21v13.83c0,.26.7,3.45.87,4.75l-2.59-2.59v6.48s2.59-1.29,2.59-1.29c.08.57,1.55,2.07.87,3.46-2.11-.08-4.76-.02-6.92,0ZM676.73,407.33c2.47-8.17-7.44-16.22-13.39-9.49-.64.72-3.91,8.96-3.93,9.91,0,.78,1.81.61,2.44.25,1.55-.89,3.62-10.97,9.31-6.78,2.68,1.97,1.86,7.09,5.57,6.11Z"/>
    <path class="cls-12" d="M644.71,400.41c.01,1.26.49,2.22,1.73,2.59.15.39-.09,1.18,0,1.73v2.59c-.14.45.09,1.19,0,1.73-.88-.26-1.82-.3-2.6-.86-.58-9.15-9.3-9.49-13.36-1.64-.49.94-.28,2.09-.48,2.51-.28.56-.58,1.18-.87,1.73-.12.24.14.7,0,.86-.86,1.06-3.07,1.37-3.46,1.73-.8-6.16.67-16.4,8.2-17.3,5.29-.63,7.82.13,10.83,4.33Z"/>
    <path class="cls-12" d="M646.44,409.05c.54.16,1.23-.41,1.81.51,3.06,4.87-1.32,23.27-1.81,29.74-6.14-1.69-2.39-7.74-2.54-12.53-.08-2.6-.95-4.95-1.79-7.34-.09-.26.1-.63,0-.86,4.18-.57,2.14-5.71.87-8.64.15-.5.89-1.37.87-1.73.78.57,1.72.6,2.6.86ZM647.3,424.61c-.05-2.44.1-4.91,0-7.36-.04-1.05.65-3.21-.86-3.01-1.06,3.61-2.42,6.39-1.74,10.37h2.59Z"/>
    <path class="cls-8" d="M592.79,551.64c4.64,2.05,9.78,2.23,14.5,4.07.9.35,6.4,3.71,7.14,4.57-7.59-2.24-14.45-6.12-22.5-6.91.06-.08.8-1.55.87-1.73Z"/>
    <path class="cls-4" d="M697.5,460.04l-2.6-1.73"/>
    <path class="cls-12" d="M646.44,407.32v-2.59c.25,1.5.78-.01,0,2.59Z"/>
    <path class="cls-4" d="M652.5,441.89l-1.73.86c1.26-.83-.24-.8,1.73-.86Z"/>
    <path class="cls-10" d="M630,574.98c7.88-13.64,34.96-14.35,47.92-8.54,2.4,1.08,11.18,7.18,11.79,9.4,2.73,9.97,2.81,20.41,2.62,30.7l-1.75,6.46c-.52.8-1.34,3.9-1.73,4.32-.55.6-1.26-1.52-1.73,1.73-.04.28.05.59,0,.86-3.14,3.82-5.47-2.51-8.65,1.73-1.01-.1-2.45-.1-3.46,0-14.51,1.36-19.1,1.54-33.75,0-1.13-.12-2.32.09-3.46,0-4.4-4.45-7.85.91-9.52-7.78-.02-.56.07-1.18,0-1.73-1.44-10.55-1.85-13.03-1.73-24.2,0-.86.04-1.74,0-2.59,2.15-2.22,2.21-8.2,3.46-10.37Z"/>
    <path class="cls-1" d="M652.5,706.33v21.6c3.71.68,4.48-4.04,5.53-6.6.11-.26,1.11-.32,1.32-.98.75-2.48.84-6.2.94-8.84h2.59c1.74,7.83-.18,13.72-6.05,19.01,2.57,1.61,10.01-4.57,11.25-3.44,3.4,3.11-15.3,8.78-17.69,8.61-3.25-.23-14.06-4.38-15.2-8.17l11.25,3.01c-.41-1.49-2.31-1.43-3.48-2.99-3.36-4.45-2.54-10.78-2.56-16.02h2.59c-1.32,2.47,2.45,19.23,6.06,15.56-.11-2.81.79-5.35.91-8.17.18-4.36-2.68-13.58,2.56-12.57Z"/>
    <path class="cls-8" d="M692.31,574.98c-.51,4.21,1.78,9.3.87,13.82,4.95-2,10.22-2.34,15.57-3.45.33,1.82-1.24,2.4-2.54,3.07-2.81,1.44-7.31,2.26-10.43,3.86-1.01,2.49,1.55,2.47,1.71,3.15.26,1.13.3,7.27.03,8.32-.07.27-2.25,1.89-3.48,4.06-1.34,2.37-2.32,3.46-3.46,5.19l1.75-6.46c.19-10.29.12-20.73-2.62-30.7l2.6-.86Z"/>
    <path class="cls-8" d="M626.54,587.94c-.12,11.17.29,13.65,1.73,24.2-3.26.09-2.62-3.21-3.74-4.94-.27-.42-1.35-.13-1.45-.24-.1-.1.2-1.04-.26-1.44-.69-.6-2.94-.57-3.2-1.61s2.03-2.29,1.78-4.29c-.05-.39-1.76-.49-1.81-.89-.41-2.93,3.94-4.3,3.5-6.03-2.55-3.43-9.03-1.69-10.38-5.18.62-2.85,11.37.79,13.84.42Z"/>
    <path class="cls-8" d="M700.1,638.93l12.31,5.42c.68,1.94,6.65,1.98,5.85,3.64s-3.02,1.43-4.54,1.13c-4.57-.92-10.97-3.94-15.36-5.87.17-.17.72-3.33,1.73-4.32Z"/>
    <path class="cls-8" d="M605.77,640.65c-.06.56.02,1.16,0,1.73-.03.86.04,1.73,0,2.59-6.43-.11-12.4,3.84-19.05,3.01,2.74-4.8,13.8-8.06,19.05-7.34Z"/>
    <path class="cls-3" d="M610.1,607.81c-.16,2.56.22,5.24,0,7.78-3.95.81-1.68-2.78-5.15-3.94-2.12-.71-6.9.6-6.97.05-.46-3.42,6.04-4.43,8.37-4.7,1.79-.21,3.32.85,3.75.82Z"/>
    <path class="cls-3" d="M708.75,611.27c-4.33-.66-7.3.57-11.24,1.73.53-1.48.68-6.52,2.2-6.91.86-.22,10.98,3.47,9.04,5.18Z"/>
    <path class="cls-8" d="M626.54,572.38c2.02-.52,1.84,1.87,3.46,2.59-1.25,2.17-1.32,8.15-3.46,10.37,0-.15-.98-.94-.96-2.13.06-3.82,2.78-3.75.96-10.83Z"/>
    <path class="cls-8" d="M617.88,562.88c-2.07.21-2.49-.2-3.46-1.73,2.28-.49,2.44.79,3.46,1.73Z"/>
    <path class="cls-8" d="M619.62,564.61c1.06.3,3.58,1.21,4.14,1.94.44.57.08,1.39.19,1.52-.68-.32-3.96-1.76-4.12-1.92-.54-.52-.1-1.43-.21-1.54Z"/>
    <path class="cls-8" d="M623.94,568.93c.23.14,1.17-.3,1.6.13.4.4,0,1.33.13,1.6-1.84.21-1.94.11-1.73-1.73Z"/>
    <path class="cls-10" d="M647.31,444.48l.87,10.37h-14.28c-.34,0-4.22,2.83-6.24,2.41l-4.58,3.63c3.96.16,7.81-1.34,11.69-1.71,11.14-1.07,24.4-2.05,35.51-1.78,2.06.05,8.58,1.87,9.91.03,2.19-3.03-6.42-2.48-7.29-2.65-1.86-.36-3.55-1.39-5.33-1.59-2.84-.33-14.42,1.19-14.99.7-1.02-.88-1.52-9.04-1.83-9.41-.21-.25-1.95.17-2.58,0v-.86c.92-.12,1.82-.35,2.6-.86l1.73-.86c1.15-.04,2.31,0,3.46,0,2.17-.02,4.81-.08,6.92,0,13.06.47,14.38-.18,24.23,8.64,2.26,2.02,4.94,6.48,7.79,7.78l2.6,1.73c1.23,1.77,3,4.56,4.33,6.05l1.73,1.73c.32,1.14.6,2.31.87,3.46.4,1.72,0,0,1.23,5.55.46,2.54.52,3.67.51,5.68-.02,3.15.12,6.36,0,9.51s.21,6.37,0,9.51-1.04,8.57-1.73,12.1c-.44,2.26-1.22,3.29-1.73,5.19l-3.47.43c.08-10.12,1.96-16.76-8.04-22.21-19.2-10.47-45.43-7.93-65.51-2.41-.46-1.88,2.61-2.87,3.88-3.46,1.57-.74,3.91-1.8,5.5-2.29,2.48-.78,13.57-2.31,13.98-2.89,1.91-2.66-4.88-2.72-6.42-2.51-7.39.98-17.9,4.7-24.33,8.54-3.27,1.95-12.17,7.25-7.33,11.26-3.19,4.99.82,11.16-1.46,16.24-.84,1.86-2.27.93-3.73,1.05-.47-3.49-4.37-5.88-5.14-7.58-2.68-5.9-3.33-25.8-2.56-32.51.88-7.7,12.61-22.27,17.45-29.27.88-1.27,1.36-3.79,2.36-4.95,2.62-3.04,10.17-6.9,14.28-6.9,6.01,0,10.41,3.74,15.14,5.17Z"/>
    <path class="cls-5" d="M648.17,444.48c.63.17,2.38-.24,2.58,0,.31.37.81,8.53,1.83,9.41.57.49,12.15-1.03,14.99-.7,1.78.21,3.46,1.23,5.33,1.59.87.17,9.48-.38,7.29,2.65-1.33,1.84-7.85.02-9.91-.03-11.11-.27-24.37.71-35.51,1.78-3.88.37-7.73,1.87-11.69,1.71l4.58-3.63c2.01.42,5.89-2.41,6.24-2.41h14.28l-.87-10.37c.26.08.6-.07.87,0Z"/>
    <path class="cls-5" d="M610.96,503.25c-4.85-4.01,4.05-9.31,7.33-11.26,6.43-3.84,16.94-7.56,24.33-8.54,1.54-.2,8.33-.15,6.42,2.51-.42.58-11.5,2.11-13.98,2.89-1.59.5-3.93,1.56-5.5,2.29-1.27.6-4.34,1.59-3.88,3.46-1.45.4-2.88.55-4.33.86-3.15.69-1.03.78-1.73,1.73-1.74,2.36-5.96,4.76-8.65,6.05Z"/>
    <path class="cls-12" d="M697.28,506.9c2.1,3.74-1.42,5.24-1.51,5.55-.88,3.14,1.57,2.85,1.71,3.48.68,3.13-.52,7.42,1.74,10.87.33.5,7.12,4.44,9.36,7.24,2.5,3.14,3.68,7.39,5.32,9.42,1.38,1.69,4.81,1.82,3.56,5.94-.24.8-1.92.47-2.56,1.03-5.17,4.59-9.37,6.05-14.4,9.82-1.2.9-1.5,2.86-3.05,3.87-1.12.73-3.69.91-4.12,1.51-.82,1.13.32,4.32-2.1,5.3-6.11,2.49-3-1.55-5-3.3-.54-.47-11.98-6.09-12.75-6.28-2.18-.55-10.67-.99-13.6-1.11-3.19-.13-13.09-.54-15.46.19-1.73.53-1.78,2.46-2.95,3.33-1.68,1.24-4.84,1.52-6.62,2.66s-2.66,4.59-5.17,4.07c-2.67-.56-2.21-5.55-4.56-7.52-1.94-1.63-12.21-7.33-14.83-8.52-4.29-1.94-9.54-3-14.05-4.55-.21-1.69,1.4-2.28,1.71-3.9s-.35-3.6,0-5c.21-.88,2.06-.76,2.48-2.03,1.62-4.87.83-2.26,2.98-5.65,1.84-2.92,8.24-12.15,8.87-14.49,1.6-6-3.24-12.89,4.09-15.8,1.97-.78,4.78-.3,5.89-1.06.57-.39,1.33-3.92,3.25-4.68,12.42-4.92,32.28-6.94,45.58-4.4,1.64.31,2.53,1.89,4.36,2.56,3.36,1.24,7.07.25,9.9,1.35,4.8,1.88,8.03,7.07,11.94,10.09Z"/>
    <path class="cls-10" d="M621.35,495.47c.31,1.6-.14,2-1.73,1.73.7-.95-1.42-1.04,1.73-1.73Z"/>
    <path class="cls-3" d="M663.75,409.92c2.03-.31,3.01-5.87,4.75-5.18,4.01,1.61-.88,4.25-1.25,4.99-.27.56-1.1,5.18-.89,5.36,5.43,1.73,2.53-5.2,6.93-2.99,2.77,4.17-9.18,8.5-10.39,7.32-.05-2.87.37-5.84.86-8.64.05-.28-.06-.59,0-.86Z"/>
    <path class="cls-12" d="M662.02,435.84c.11.83-.11,1.76,0,2.59l-2.6,1.29v-6.48s2.6,2.59,2.6,2.59Z"/>
    <path class="cls-2" d="M630,409.05c.21-.42,0-1.57.48-2.51,4.06-7.84,12.78-7.51,13.36,1.64.02.36-.71,1.22-.87,1.73-.92-2.11-2.39-5.65-4.9-5.86-4.06-.35-4.29,5.7-8.08,5Z"/>
    <path class="cls-3" d="M642.12,418.56c.1.24-.09.6,0,.86-3.02.29-6.26-.82-9.07-1.75-1.2-.4-3.07.17-3.06-2.13-.02-1.08,10.26-.41,11.74,1.27.47.53.22,1.34.39,1.75Z"/>
    <path class="cls-2" d="M629.13,411.65c.14-.17-.12-.63,0-.86l.85.43-.85.43Z"/>
    <path class="cls-2" d="M676.73,407.33c-3.7.97-2.88-4.14-5.57-6.11-5.69-4.19-7.76,5.89-9.31,6.78-.63.36-2.45.52-2.44-.25.01-.94,3.29-9.18,3.93-9.91,5.95-6.72,15.86,1.32,13.39,9.49Z"/>
    <path class="cls-12" d="M647.3,424.61h-2.59c-.68-3.98.68-6.76,1.74-10.37,1.51-.2.82,1.96.86,3.01.09,2.45-.06,4.92,0,7.36Z"/>
    <path class="cls-4" d="M637.79,621.64c1.14.09,2.33-.12,3.46,0-.44,2.15.97,1.86,2.39,2.32,5.9,1.9,23.16,1.86,29.02.05,1.41-.43,2.77-.37,2.34-2.37,1.02-.1,2.45-.1,3.46,0,1.22.12,4.5,1.41,6.06,1.73-.24.37-1.73,6.78-2.43,8.37-4.65,10.61-9.88,11.43-18.29,17.17-2.27,1.55-2.98,5.96-6.49,5.62-2.22-.22-4.25-3.98-6.09-5.24-3.81-2.61-11.29-4.83-14.31-9.04-3.26-4.54-4.36-12.8-6.03-17.74,3.06-3.33,3.92-.56,5.82-.19.68.13,1.04-.68,1.1-.67Z"/>
    <path class="cls-8" d="M637.79,621.64c-.06,0-.42.8-1.1.67-1.9-.37-2.76-3.14-5.82.19-1.54-4.55-2.4-2.02-2.6-8.64,1.67,8.68,5.12,3.33,9.52,7.78Z"/>
    <path class="cls-8" d="M687.12,619.91c-.84,4.55-2.22,2.88-2.6,3.46-1.56-.32-4.84-1.61-6.06-1.73,3.18-4.24,5.51,2.1,8.65-1.73Z"/>
    <path class="cls-8" d="M688.85,617.32c.26,1.76.04,1.98-1.73,1.73.47-3.25,1.18-1.13,1.73-1.73Z"/>
    <path class="cls-8" d="M675,621.64c.43,2-.93,1.94-2.34,2.37-5.86,1.81-23.12,1.85-29.02-.05-1.42-.46-2.83-.18-2.39-2.32,14.65,1.54,19.24,1.36,33.75,0Z"/>
  </g>
  <polygon class="cls-2" points="953.66 473.01 952.01 471.87 950.43 469.87 949.34 467.79 950.4 466.95 951.1 465.2 952.53 463.47 954.52 462.2 956.66 461.46 958.64 461.2 960.91 461.2 963.29 461.95 965.17 462.73 967.4 464.04 969.42 465.61 971.28 467.53 972.2 468.74 973.39 470.85 974.16 472.45 975.43 475.23 977.18 478.8 978.45 480.89 979.62 482.07 978.4 482.07 974.42 477.75 972.3 475.59 969.32 473.03 966.05 472.14 961.51 471.64 957.72 472.28 953.66 473.01"/>
  <polygon class="cls-2" points="366.37 466.08 365.28 467.3 363.99 468.04 362.23 468.64 360.81 467.8 359.04 467.36 356.78 467.04 353.86 466.82 351.58 466.75 348.22 466.78 346.53 466.89 345.13 467.36 343.82 468.13 342.64 468.96 342.04 469.39 342.33 467.74 342.83 466.08 343.83 464.8 344.64 463.7 345.82 462.42 346.77 461.57 348.13 460.56 349.72 459.63 351.28 458.94 352.85 458.46 354.21 458.19 355.64 458.19 357.21 458.12 358.92 458.43 360.58 459.01 361.68 459.62 362.44 460.37 363.15 461.07 363.6 462.15 364.33 463.39 364.79 464.43 365.43 465.27 366.37 466.08"/>
</svg>