<?xml version="1.0" encoding="UTF-8"?>
<svg id="Layer_1" data-name="Layer 1" xmlns="http://www.w3.org/2000/svg" viewBox="0 0 1080 1080">
  <defs>
    <style>
      .cls-1 {
        fill: #0b0b0b;
      }

      .cls-2 {
        fill: #e5e2de;
      }

      .cls-3 {
        fill: #545352;
      }

      .cls-4 {
        fill: #545454;
      }

      .cls-5 {
        fill: #e1aa81;
      }

      .cls-6 {
        fill: #e1ac81;
      }

      .cls-7 {
        fill: #fccaa3;
      }

      .cls-8 {
        fill: #e6bea7;
      }

      .cls-9 {
        fill: #a42e2d;
      }

      .cls-10 {
        fill: #282828;
      }

      .cls-11 {
        fill: #e2aa80;
      }

      .cls-12 {
        fill: #3e3e3e;
      }

      .cls-13 {
        fill: #757776;
      }

      .cls-14 {
        fill: #e2ac84;
      }

      .cls-15 {
        fill: #ebded1;
      }

      .cls-16 {
        fill: #d84140;
      }

      .cls-17 {
        fill: #050505;
      }

      .cls-18 {
        fill: #505151;
      }

      .cls-19 {
        fill: #525453;
      }
    </style>
  </defs>
  <path class="cls-3" d="M448.75,485c.14.12,1.42-.15,1.22,1.22-7.85,3.29-.14,4.66,2.9,6.21,9.64,4.93,12.59,7.43,11.56,18.61-.95,10.23-3.42,21.84-4.72,32.42-4.94-.23-3.78-9.96-5-13.89-.6-1.92-1.6-3.7-2.31-5.6,2.36,2.27,3.8-.48,4.32-2.38.76-2.75,1.05-7.65.52-10.39-.73-3.75-9.67-10.28-10.69-13.67-.69-2.31-.29-5.79-.24-8.34.04-2.34-1.22-4.88,2.43-4.2Z"/>
  <g>
    <path class="cls-7" d="M670.47,506.92l-2.43,1.78c-6.8-1.77-13.97-2.09-20.91-.99l-2.24-2.02c-.44-2-.02-2.96,1.87-3.31-21.93-43.22-29.14-86.38-28.66-134.63l-1.22-8.22c.17-6.35,3.49-25.36,0-30.45-.9-2.55-.27-5.77,1.89-9.66,4.07-12.78,4.06-15.35-.02-7.72-3.32,5.09-6.79,7.63-10.41,7.64-12.17-21.53-13.52-51.94-10.95-76.1.81-7.6,2.37-15.32,4.86-22.55,13.72,9.13,37.98,17.58,48.79,28.56,12.81,13.03,7.11,33.26,8.49,49.97,1.22,14.75,4.88,25.1,3.62,41.41-.7,9.11-5.52,21.97-4.9,30.44.45,6.09,4.47,15.34,5.75,22.34,2.08,11.45,4.55,25.9,5.25,37.38,1.55,25.23-1.97,51.03,1.23,76.11Z"/>
    <path class="cls-7" d="M481.64,304.75c-5.87,11.99-14.37,17.99-22,3.42l7.39,21.22v7.03c1.58,4.48,3.31,8.88,4.86,13.4-3.18,12.58-7.82,24.74-13.92,36.48l-2.32,8.6c-1.21,24.14-2.8,48.32-4.78,72.54-2.17,6.37-2.59,11.51-2.13,17.57-2.18,2.09-3.47,4.27-.11,7.07l.22,4.74c6.47,5.51,16.33,20.4,8.99,28.19-2.92,3.09-3.34,2.58-5.44-1.02l-3.05-1.06c-5.26-12.21-16.33-21.82-30.03-22.12l-2.25-2.4c3.33-1.73,3.44-5.83,3.7-9.09,2.78-34.74-6-64.22,1.53-99.55.96-4.49,4.05-9.92,4.57-13.7,1.69-12.36-1.21-28.3.09-41.32,1.71-17.12,10.15-33.27,15.13-49.43,4.44-14.41,3.96-30.12,15.19-42.05,9.08-9.64,18.31-8.97,28.84-13.8,4.39-2.01,12.92-9.75,16.21-10.72,2.37-.71,4.66.91,4.85.75.14-.13.18-2.17,1.26-3.64-.66,14.74-1.09,29.86-5.22,44.11-2.92,10.06-15.19,37.13-21.58,44.8Z"/>
    <path class="cls-7" d="M527.93,645.76c1.06.41,1.06.82,0,1.22l-1.75,2.37c-6.77-1.23-10,2.62-9.7,11.54-.92,16.86-1.12,33.72-.62,50.57-.29,13.61-4.27,26.68-8.96,39.34l-3.34,2.13c-1.92,3.27-3.55,6.51-4.87,9.74-3.91,1.23-7.78-.5-11.62-5.18-9.53-12.13.8,5.16,6.32,7.46,2.92.6,4.69,1.86,5.3,3.8-2.4,21.45-3.41,43.19-3.03,65.23-1.43,8.7-9.74,1.06-13.49-2.51l-2.97-.61c-4.32,3.35-9.02,3.33-13.4,0-1.43-41.81-11.62-83.75-8.58-126.1.59-8.21,3.45-16.57,4.6-24.63,1.54-10.82,2.62-21.69,4.04-32.52-.28-3.38-5.07-3.3-8.59-4.3l38.32,3.7,32.33-1.27Z"/>
    <path class="cls-10" d="M598.59,148.86c-1.16,8.89-4.65,17.38-10.46,25.47-2.19,10.01-2.52,10.95-11.49,14.61-6.88,2.81-43.44,6.86-46.42,2.8l-1.07-3.91c-.17-1.17-1.17-2.13-1.22-2.44l-.95-15c-4.29-9.6-5.59-20.03-3.92-31.28.2-7.12-2.23-12.78.61-19.49,2.29-5.41,11.69-15.44,16.81-18.51,11.23-6.72,23.96-6.84,36.78-5.83,11.78.93,18.65,2.69,21.04,15.5,2.31,12.36,4.46,25.96.29,38.07Z"/>
    <path class="cls-7" d="M596.16,215.84c-2.8-.61-2.63,1.37-3.46,3.18-11.57,25.25-18.21,40.69-50.75,37.02-22.33-2.52-21.46-24.44-24.58-41.26-.4-2.17.48-4.53-2.83-3.81,9.17-6.32,16.65-9.15,14.62-23.14,1.26,2.4,1.61,2.3,4.15,2.51,6.68.55,17.73.44,24.46-.09,4.37-.35,21.22-3.64,24.13-6,2.5-2.03,2.55-7.93,4.02-10.92,3.7-7.49,9.97-16.61,12.68-24.47,1.25,5.3,1.81,12.2-.31,17.35-.96,2.32-3.1,3-3.9,4.63-2.23,4.55-2.42,14.23-4.68,19.68s-8.76,7.83-4.57,15.05c1.22,2.11,8.64,8.4,11.02,10.28Z"/>
    <path class="cls-16" d="M479.21,830.88c4.05-.35,7.28,3.47,6.09,7.31,6.2,3.58,11.26,8.39,15.17,14.44l2.21,8.97c-.67,17.87,1.94,32.23,15.01,45.58l-.71,2.87c-8.34,20.85-26.66,5.47-29.53-9.76,6.13-23.34-18.87-40.41-35.85-23.36l-2.84.24c-.2-2.04-.86-4.75-.76-6.48.83-14.13,18.43-21.89,17.82-39.8,4.46-.03,8.95.05,13.4,0Z"/>
    <path class="cls-9" d="M516.97,910.05c.29-1.11.7-1.08,1.22,0-.85,1.74-1.14,4.02-2.4,5.5-7.51,8.83-42.61,10.49-51.86,4.29-3.86-2.59-2.56-7.8-5.43-12.23-3.08,1.25-4.84-.52-3.65-3.65,3.36-1.3,1.79-1.92,1.08-4.05-2.97-8.92-6.13-12.07-7.17-22.74,6.58-15.13,33.4-10.19,39.27,2.76,3.46,7.65.89,16.22,2.21,23.37.64,3.46,12.21,16.29,14.93,16.26,8.08-.08,9.31-8.66,11.82-9.51Z"/>
    <path class="cls-16" d="M580.32,844.28l3.13.66c2.39,9.11,6.58,15.32,12.57,18.6l1.36,2.66c2.55,1.25,7.31,13.77,7.31,16.44v18.27c0,3.48,9.37,10.84,9.62,12.35.28,1.63-3.2,3.17-1.1,5.31-6.77,5.04-15.96,7.1-19.39-3.04l-10.5-23.77c-5.06-10.47-13.64-19-26.09-17.34l-2.49-2.12c-.94-.62-1.38-1.46-1.24-2.55,6.96-6.35,10.58-13.68,10.85-21.99.87-5.95,2.95-7.92,6.23-5.91,3.02-.66,7.61.08,9.75,2.44Z"/>
    <path class="cls-9" d="M613.21,918.57c3.62-.44,10.59-.67,13.4,1.22-7.46-.23-14.18-1.35-20.12,3.64l-42.59,1.2c-8.31-1.58-.26-9.82-5.52-10.92l-.74-2.54c2.21-5.26-.53-11.58-8.23-18.98-4.19-6-2.15-19.63,5.31-19.89,28.42-4.65,32.96,27.22,43.32,46.21,7.13,7.56,8.82.83,15.16.07Z"/>
    <path class="cls-2" d="M597.37,866.2c-.78-.38-2.89-.01-4.51-.92-8.54-4.79-8.02-16.02-12.55-21,4.3-1.31,16.54,1.19,18.9-3.64,1.52-3.11,1.51-17.78,1.96-22.39.26-2.65.85-7.09,2.28-9.29-1.45,12.43-3.33,25.12-4.81,37.21-.8,6.55.5,13.49-1.29,20.03Z"/>
    <path class="cls-8" d="M527.93,185.39c-.7-4.66-.75-11.55-2.02-15.64-1.78-5.68-10.63-10.77-6.83-19.36,2.36-5.35,3.73-2.47,3.98-11.28,2.68,7.3,1.74,16.17,2.53,23.65.28,2.61,1.95,4.89,2.24,7.5.56,4.96-.18,10.15.1,15.13Z"/>
    <g>
      <path class="cls-10" d="M611.99,453.33c3.72-.29,5.95,6.49,6.88,9.84,1.97,7.13,5.86,50.08,4.17,55.4-.41,1.29-1.1,2.73-2.52,2.96l2.25,1.7c-7.82,17.63-9.59,39.14,4.08,54.51,1.02,2.3,2.05,4.71-.66,5.64,1.27,19.8,2.27,39.54,3,59.24l-1.37.7c-4.58.03-8.8.85-12.64,2.46l-56.87,1.6c-6.43-1.08-12.91-1.62-19.42-1.63l-2.44-1.09c.39-18.21.11-36.4-.83-54.57,6.85-7.43,14.82-13.92,23.92-19.47-20.91,4.23-40.18,5.23-59.31-5.66,8.25,9.48,17.69,18.1,28.34,25.86,1.89,17.68,2.39,35.44,1.5,53.29l-2.15,1.64c-10.61,2.02-20.96,3.91-32.38,3.7-13.11-.24-26.5-2.6-38.27-6.14-3.03-.86-12.63-1.85-13.25-4.36-.31-1.22,1.92-6.24,2.16-8.56,1.78-16.62,4.94-32.57,7.44-49.2l3.64-16.58c-2.48-5.27-3.12-17.29,2.45-21.18-1.69-1.79-1.75-4.05-1.57-6.4l3.45-22.41c1.61-14.24-.9-16.66-14.25-21.88-1.21-3.22-1.79-7.95,2.63-6.55l1.28-2.67c4.86,1.06,9.48,3.06,13.86,5.98,2.13-12.52,6.37-24.76,12.69-36.74l2.62-.68,5.51-1.19c39.08,2.01,78.56,1.78,116.61-1.48,5.31-.63,8.46.66,9.46,3.89Z"/>
      <path class="cls-16" d="M514.53,210.97c2.77-1.58,4.36-1.52,4.76.18.2,15.33,4.27,28.18,12.22,38.55,33.06,15.54,50.21-7.36,61.29-35.56l3.35,1.7c2.03,1.61,3.94,3.44,6.09,4.87l1.17,4.34c-7.14,29.27-7.13,62.3,5.44,90.08l-.51,4.22c3.5-.59,10.11,6.3,8.53,9.74.58-.21,1.16-.36,1.71-.29,4.04.51,1.62,24.73.84,28.89l-2.55,1.84c2.34,31.51,1.45,62.23-2.67,92.16l-2.2,1.62c-4.88-1.88-11.3-1.49-16.5-1.27-10.87.47-23.18,2.25-34.01,2.54-27.1.71-54.13-.27-81.06-2.49l-2.16-2.42c-.62-26.76-1.86-53.56-3.71-80.41-2.36-6.85-3.24-13.34-2.65-19.48-4.72-2.92-6.69-8.2-4.87-13.4l-.38-6.54c4.22-8.83,9.22-17.2,15-25.13l-1.19-2.43c15.91-24.77,26.1-52.22,25.38-82.56,1.65-.85,2.56-2.13,2.61-3.92,2.5-3.39,3.27-2.92,6.09-4.87Z"/>
      <path class="cls-17" d="M538.9,645.76c-2.71.12-7.3,2.39-10.96,1.22-.19-.08.17-.93,0-1.22-1.16-1.88.47-34.56.05-40.85-.29-4.36-1.77-8.66-1.49-13.12-7.27-7.34-17.08-12.11-24.17-19.68-1.11-1.19-8.33-9.52-4.21-10.39,1.2-.25,15.21,6.67,19.12,7.65,18.21,4.6,26.53.29,43.29-1.29,1.44-.14,3.96.11,3.93,1.55-.03,1.7-24.72,16.61-26.53,20.96l1.02,11.87-.05,43.29Z"/>
    </g>
    <path class="cls-5" d="M481.64,304.75c-2.98,11.18-12,20.59-14.62,31.67-4.15-11.69-9.22-23.19-12.18-35.31,5.93.25,9.27,13.02,14.06,13.46,3.19.29,10.51-7.14,12.73-9.81Z"/>
    <path class="cls-11" d="M608.34,319.36l8.5-9.16c1.96-2.55,3.5-5.43,5.41-8.02.42-.57,1.41-4.55,3.14-2.3.94,1.23-4.96,27.08-8.52,29.22-1.88-2.75-5.89-5.08-8.53-9.74Z"/>
    <g>
      <path class="cls-7" d="M627.83,643.33c.82-2.17,1.84-2.28,2.44,0-1.28,3.94-12.87-3.48-14.54,6.78-4.66,28.71-.5,57.52-2.53,86.38-1.69,24.07-6.9,48.21-9.73,72.48-1.77,9.75-2.98,19.56-3.63,29.43-.34,9.68-13.21,9.7-19.51,5.89-2.89,1.25-8.02.3-9.75-2.44-6.88,3.45-5.22-7.69-2.44-11.57-.95-.11-2.39-.42-2.44-1.09-.3-4.37-.43-34.55.81-35.86.39-.41.98-.64,1.62-.81-.59-.02-1.15-.09-1.63-.33-1.95-.99-15.39-36.36-14.53-40.94-.3-18.92,1.68-37.8,5.94-56.64,2.12-14.9,1.82-31.94-5.03-44.9-8.21.18-16.4.24-24.55.16l-.39-2.88c2.2-2.56,9.2-4.76,10.96-1.22,28.01-1.2,61.17-2.59,88.93-2.44Z"/>
      <path class="cls-6" d="M599.2,742c5.21-.15-3.25,18.13-4.45,19.89-1.9,2.81-9.26,8.78-12.59,8.1-4.54-.93,3.52-6.84,4.23-7.92,1.91-2.88,10.71-20,12.8-20.06Z"/>
    </g>
    <path class="cls-15" d="M503.57,752.94c-7.52,21.28-6.14,46.07-7.36,68.76-.2,3.81,1.9,22.43-2.97,21.36-1.15-.25-8.4-10.85-7.94-4.86-1.74-2.58-3.19-5.77-6.09-7.31.15,0,.86-1.44,2.68-1.04,4.04.9,8.84,10.23,12.98,3.9l1.39-55.84c.17-3.23,1.95-6,2.45-9.13-3.33-1.55-3.55-4.67,0-6.09.63-3.74.77-8,4.87-9.74Z"/>
    <path class="cls-14" d="M498.7,768.77c-11.64.47-21.61-18.3-21.98-28.57-.09-2.45-1.24-7.87,2.48-6.76.82,13.32,7.57,23.49,19.5,29.24-.31,1.85.29,4.22,0,6.09Z"/>
  </g>
  <g>
    <path class="cls-1" d="M467.02,924.66l35.18.57,140.42,11.86c2.58,1.4,3.74,3.75,3.48,7.05,4.77-.3,4.49,11.86,1.46,12.59-7.83.02-15.64-.6-23.39-1.63-2.02-.09-4.07.05-6.09,0-8.09-2.34-18.24-3.56-30.46-3.65-49.76-2.61-99.63-6.93-149.22-10.97-13.28-1.08-26.67-3.02-40.01-3.85-3.12-1.03-2.6-14.24-1.41-16.84.37-.8,1.6-.93,1.81-1.22,7.68-1.58,15.72-1.13,24.12,1.36,15.01.14,29.71,1.72,44.1,4.73Z"/>
    <path class="cls-10" d="M518.19,910.05l2.06-2.64c11.98.9,23.93,2.2,35.86,3.9l2.28,2.39c3.77-2.13,5.1.38,3.99,7.53l1.85,1c14.14-1.1,28.12-.99,41.95.32,5.86-4.4,13.57-4.27,20.43-2.76,11.59.36,23.89,1.9,35.33,3.65,4.39.53,5.7,2.09,3.93,4.68-7.67,4.35-14.25,9.69-19.76,16.02l-4.24-4.9c-58.52-4.06-116.5-9.7-174.84-14.58-15.49-3.03-31.22-4.72-47.21-5.08-5.94-.54-12.55-2.04-6.61-8.1,2.67-2.72,22.04-6.13,24.51-1.4,8.3-4.3,17.16-3.55,18.15,6.31-.61-4.54.27-7.47,2.63-8.78,2.98-.08,4.77,2.7,5.34,8.35,3.7,7.27,30.4,5.25,37.7,3.42,8.05,2.89,12.76-3.68,16.65-9.33Z"/>
    <path class="cls-10" d="M454.84,903.96c.98.41,2.98,2.61,3.65,3.65v10.97c-8.42,1.69-4.93-5.52-6.23-7.17-.21-.27-5.73-1.44-6.64-1.43-4,.02-5.52,2.53-8.48,2.64-2.28.09-1.61-2.48-2.58-2.63-1.22-.18-11.31.83-13.24,1.19-1.15.22-10.24,2.37-7.9,4.94,7.13,3.37,14.75,2.62,22.52,2.45,9.6-.2,5.59.58,12.45,2.19,6.27,1.47,13.99-2.33,18.63,3.9-22.74-1.9-45.66-2.85-68.22-6.09,1.74-2.37,20.37-16.24,22.79-16.8,8.08.7,26.42-.66,33.25,2.18Z"/>
    <path class="cls-18" d="M661.94,923.44c1.89.29,4.13-.26,6.08.01-.34,5.78,3.76,13.39-.56,18.3s-15.23,9.51-19.78,15.54c-7.51.56-16.17-.41-23.51-2.18,7.74.34,15.44.4,23.15,1.22,1.19-4.06-1.08-9.1-1.22-12.18-.41-8.83,12.88-13.07,18.9-18.26l-3.06-2.44Z"/>
    <path class="cls-4" d="M587.63,951.46c9.12.48,16.85.08,26.19,1.27,2.28.29,4.95-1.55,4.27,2.38-7.58-.18-8.34-1.31-13.02-2.41-5.04-1.18-12.59,1.83-17.44-1.24Z"/>
  </g>
  <g>
    <g>
      <path class="cls-19" d="M410.98,500.83c2.59,1.23-4.65,3.95-4.87,3.64-1.88-2.55,13.96-2.69,17.6-1.6,25.18,7.52,37.12,44.26,22.19,65.42l1.63.74c-5.51,7.01-10.19,13.03-20.18,14.54-49.33,7.43-61.8-68.44-16.37-82.74Z"/>
      <path class="cls-12" d="M452.4,523.97c2.55.76,4,2.12,4.36,4.07.61,5.37,1.59,10.51,2.95,15.42-.88,7.2-3.03,14.1-1.21,21.21l-4.88,16.54c.4-2.66,3.12-18.78,2.43-19.48-2.27-2.31-7.02,5.39-8.52,7.3l-8.52,7.31c-.78-.88,6.64-10.08,7.57-12.52,1.07-2.82,2.96-10.8,3.26-13.79,2.41-24.76-17.37-51.29-43.73-45.56l4.87-3.64c1.64-.52,4.32-2.35,6.09-2.44,16.62-.82,29.83,10.93,35.33,25.58Z"/>
      <circle class="cls-13" cx="414.03" cy="541.14" r="6.95"/>
    </g>
    <g>
      <path class="cls-19" d="M670.47,506.92c11.55,4.09,22.21,17.26,25.23,28.98,11.29,43.83-33.71,77.22-69.07,46.53l3.64,60.89c-.81,0-1.62,0-2.44,0,3.55-10.19-.45-20.92-1.21-31.07-.69-9.26.37-24.04-1.55-32.71-.22-1-5.79-7.18-7.21-10.89-3.93-10.25-4.77-24.41-1.59-34.93,1.47-4.87,3.67-5.73,4.25-12.19,4.8-7.66,12.76-14.23,21.62-17.57l2.75,1.73c7.22-1.77,18.55-1.27,25.58,1.22Z"/>
      <path class="cls-13" d="M650.66,541.21c10.34-1.85,14.06,14.08,5.54,16.6-13.41,3.96-15.34-14.84-5.54-16.6Z"/>
    </g>
  </g>
</svg>