<?xml version="1.0" encoding="UTF-8"?>
<svg id="Layer_1" xmlns="http://www.w3.org/2000/svg" viewBox="0 0 892.29 826.19">
  <defs>
    <style>
      .cls-1 {
        fill: #9e9d9d;
      }

      .cls-2 {
        fill: #ebecec;
      }

      .cls-3 {
        fill: #9c9c9c;
      }

      .cls-4 {
        fill: #e7b691;
      }

      .cls-5 {
        fill: #fff;
      }

      .cls-6 {
        fill: #fdcca7;
      }

      .cls-7 {
        fill: #484748;
      }

      .cls-8 {
        fill: #282828;
      }

      .cls-9 {
        fill: #d9a57e;
      }

      .cls-10 {
        fill: #ddb998;
      }

      .cls-11 {
        fill: #9f9e9a;
      }

      .cls-12 {
        fill: #eceded;
      }

      .cls-13 {
        fill: #292928;
      }

      .cls-14 {
        fill: #fccca7;
      }

      .cls-15 {
        fill: #e8b691;
      }

      .cls-16 {
        fill: #d8a67e;
      }

      .cls-17 {
        fill: #9f9d9a;
      }

      .cls-18 {
        fill: #8c1d1c;
      }

      .cls-19 {
        fill: #d8b89c;
      }

      .cls-20 {
        fill: #d7a57e;
      }

      .cls-21 {
        fill: #d84140;
      }

      .cls-22 {
        fill: #e9b691;
      }

      .cls-23 {
        fill: #d9a57b;
      }
    </style>
  </defs>
  <path class="cls-5" d="M152.91,732.95l-4.78,38.28,23.29,16.95,32.91-31.39s-15.63-11.96-15.1-31.15-36.33,7.31-36.33,7.31Z"/>
  <path class="cls-5" d="M50.86,660.29l-12.72,8.43v44.57l23.44,5.38s4.4-28.71,9.34-33.12-20.05-25.26-20.05-25.26Z"/>
  <path class="cls-8" d="M837.56,511.38c-2.96,5.04-1.1,10.64-1.83,15.93-1.74,3.9-5.25,3.58-8.47,3.21-17.61-2.02-35.12-1.41-52.58,1.62-3.91.68-7.88,1.24-11.88.71-9.59-1.78-11.35,5.18-12.6,11.88-1.04,5.62-3.52,6.68-8.75,5.28-7.5-2.01-15.47-1.93-22.85-4.7-2.22-.78-5.15.45-6.69-2.31-1.89-3.32.24-5.7,1.81-8.32,14.24-23.69,14.56-48.15,1.97-72.22-11.1-21.23-36.88-17.35-44.09-1.27-1.52,3.4-4.91,5.62-6.74,8.95-.88,1.59-2.06,3.51-4.35,2.55-2.16-.91-1.87-3.02-1.54-4.89.28-1.61.5-3.24,1.04-4.81,5.43-7.87,6.5-15.73,5.57-25.83-2.05-22.31-1.39-44.93,1.98-67.29.53-3.55,1.43-6.86,3.26-9.92,3.67-5.12,6.58-10.49,7.5-16.93.52-3.62,1.93-7.27,6.33-8.27,1.67-.14,3.28.19,4.8.79,25.31,9.86,51.91,10.59,78.53,10.93,6.29.08,12.5-1.54,18.83-1.58,2.56-.02,5.17-.61,7.21,1.59,1.44,7.58,5.85,13.27,10.92,18.94,8.17,9.14,10.08,21.43,14.66,32.38,6,14.34,9.82,29.19,10.83,44.74.38,5.89,2.28,11.5,4.27,16.96,6.24,17.06,3.47,34.51,2.83,51.89Z"/>
  <path class="cls-8" d="M219.99,493.36c-1.2,7.8,3.94,15.15,1.64,23.03-1.44.7-2.91,1.22-4.55.9-16.14-1.44-32.31-.39-48.46-.61-14.24-.19-14.44-.47-10.22-14.27,6.38-20.83,4.46-40.85-7.37-59.32-9.54-14.91-28.67-15.49-39.71-1.6-1.77,2.23-3.87,4.07-5.95,5.95-1.66,1.5-3.34,4.19-5.86,2.54-2.36-1.54-.93-4.25-.42-6.49.72-2.01,1.71-3.9,3.16-5.44,2.7-2.88,3.4-5.97,1.78-9.65-.95-2.16-1.15-4.54-1.2-6.89-.49-28.13-.25-56.23,4.04-84.13.47-3.03.88-6.04,2.86-8.55,1.46-2.52,3.42-4.51,6.04-5.82,5.19-1.82,10.21-.14,15.18.97,13.49,3.01,26.91,6.22,39.93,11.01,11.25,4.14,23.14,5.86,34.88,8.05,3.65.68,7.49,1.02,10.4,3.82,1.54,1.53,2.73,3.34,2.94,5.47,2.23,21.83,6.47,43.46,7.41,65.41.73,17.07-2.31,34-3.44,51.01-.55,8.26-.72,16.59-3.11,24.63Z"/>
  <path class="cls-6" d="M672.33,359.97c-3.38,6.58-3.59,13.85-4.01,20.94-.93,15.89-1.46,31.8-1.89,47.71-.18,6.74-.46,13.69,3.79,19.58,1.37,1.9.7,2.78-.75,3.98-3.8,3.15-5.82,7.6-8.31,11.71-5.23,13.01-4.6,26.89-6,40.46-.3,2.88,1.07,6.47-2.66,7.92-3.45,1.35-5.48-1.69-7.83-3.44-1.12-.83-2.12-1.81-3.03-2.89-5.62-5.84-6.94-12.97-6.23-20.71-.15-7.26,2.62-14.12,2.9-21.36.21-5.63,1.2-11.25-1.77-16.5,4.56.34,5.65-2.09,4.93-6.07-2.49-13.76-5.1-27.49-7.34-41.29-1.16-7.12-1.93-14.34-2.35-21.55-1.45-24.99-.61-50.01.23-74.97.6-17.66-3.36-34.89-3.16-52.43.12-10.4,2.37-20.34,6.67-29.87,3.52-7.78,3.16-16.49,4.16-24.63,2.08-17.01,12.19-27.93,24.26-37.87,6.82-5.62,14.29-10.45,21.47-15.64,20.87,9.08,30.47,26.42,35.59,47.45,2.9,11.92,3.59,23.59-.51,35.22-2.37,6.71-4.19,14.11-12.64,16.18-4.97-6.67-4.59-13.91-1.79-21.64-6.21,6.61-6.87,14.62-7.69,22.55-.29,2.81-.59,5.58-1.42,8.3-2.8,17.66-7.21,34.78-16.49,50.32-5.84,7.22-7.91,15.37-7.48,24.67.52,11.27.4,22.59-.65,33.87Z"/>
  <path class="cls-6" d="M111.19,329.01c-2.88,5.53-2.79,11.75-3.5,17.64-2.98,24.83-3.09,49.83-3.17,74.81,0,.7-.03,1.4.03,2.1.77,8.15-.35,13.72-4.13,20.55-3.8,11.92-8.24,23.7-7.74,36.54.05,1.16.12,2.34-.02,3.49-.46,3.98,1.68,9.37-2.99,11.37-5.19,2.22-8.37-2.49-11.54-5.87-7.04-7.42-9.7-15.8-5.6-25.65.74-1.77.75-3.64.71-5.51-.41-8.98,2.58-17.7,2.09-26.69,2.77-1.53,3.04-4.12,2.44-6.72-3.82-16.34-6.27-32.93-8.74-49.49-3.01-20.18-2.27-40.42-1.44-60.77.82-20.01,2.25-40.14-1.27-60.18-2.85-16.19-1.16-32.15,5.7-47.25,3.48-7.66,2.51-16.03,3.9-23.95,2.69-15.34,12.6-23.8,23.69-32.17,7.43-5.61,14.71-11.41,22.05-17.13,12.62,4.15,21.77,12.61,28.12,23.92,10.12,18.03,14.14,36.92,5.99,56.98-1.51,3.71-3.51,7.1-6.14,10.12-.77.77-1.65,1.37-2.7,1.68-3.15.37-3.97-1.95-4.57-4.22-1.24-4.7-3.08-9.33-2.44-14.41-3.61,10.07-4.74,20.57-5.05,31.22-2.29,8.73-4.77,17.4-7.78,25.91-3.04,9.13-8.69,17.09-11.76,26.22-4.57,4.39-5.78,9.44-4.72,15.84,1.18,7.09.03,14.44.58,21.66Z"/>
  <path class="cls-21" d="M679.57,301.08c1.65-8.08,7.38-14.4,9.45-22.39,2.44-9.47,4.4-19.01,6.16-28.61,4.16-2.97,7.99-6.44,12.72-8.55,10.54-7.63,13.11-19.28,13.41-30.85.48-18.56-4.7-35.89-16.29-50.87-4.06-5.26-9.11-9.29-15.03-12.34-1.86-.96-4.9-1.05-4.59-4.4,4.08-1.66,7.54-5.01,12.4-4.49,2.77.51,4.48,2.57,6.04,4.56,9.09,11.61,19.19,22.39,27.2,34.88,6.83,10.65,14.72,20.53,25.06,28.21,5.14,3.82,10.76,5.68,17.06,5.3,5.14-.31,8.27-3.24,8.75-8.38.39-4.19,1.04-8.65-.53-12.55-4.35-10.82-6.41-22.56-13.01-32.5-1.46-2.2-3.77-4.54-1.31-7.54,6.54,6.83,13.09,13.67,19.63,20.5,6.76,9.24,12.85,18.86,16.83,29.67,2.38,15.27,3.87,30.52-1.5,45.54-4.4,26.32-4.78,52.88-4.77,79.46,0,4.2.21,8.41-.17,12.6-.29,3.21-.37,6.65-4,8.31-4.76.27-9.6.1-14.27.9-23.49,4.03-46.54-1.28-69.67-3.52-8.53-.83-16.69-5.46-25.02-8.36-1.24-.85-1.99-2.12-1.96-3.52.23-10.45-1.77-20.71-2.61-31.06Z"/>
  <path class="cls-21" d="M148.66,224.74c14.59-29.01,10.87-58.18-10.38-78.14-5.02-4.72-11.06-8.36-16.63-12.49,4.32-1.81,7.56-5.73,12.48-6.35,7.77,4.76,12.22,12.65,18,19.26,7.24,8.28,13.64,17.22,19.76,26.38,6.95,10.39,15.27,19.6,26.35,25.79,8.72,4.87,16.19,2.66,19.24-5.25,1.08-2.79.64-5.47.08-8.26-1.84-9.22-5.54-17.85-8.26-26.79-.82-2.69-3.9-6.45,1.08-8.75,2,2.33,4,4.66,6,7,6.38,10.06,13.76,19.47,19.39,30.01,3.78,13.05,3.25,26.24,1.16,39.45-.96,6.05-6.31,9.67-8.51,15.04-1.11,11.57-.89,23.24-3.09,34.72-3.53,18.39-3.18,37.2-5.83,55.69-.75,5.24-.58,10.82-5.02,14.83-16.61-3.95-33.77-5.73-49.83-11.77-14.56-5.47-29.74-8.18-44.84-11.34-1.09-.23-2.31.14-3.47.24-.51-.46-1.26-.84-1.32-1.54-.87-10.45-3.75-20.83-1.1-31.39,2.55-9.2,7.81-17.15,11.82-25.67,2.7-5.57,5.13-11.16,6-17.44,1.15-8.29,6.59-11.63,14.45-8.87,7.84,2.76,15.62,1.65,25,.78-5.31-2.59-9.87-3-13.87-4.82-4.47-2.03-9.32-3.93-8.68-10.33Z"/>
  <path class="cls-6" d="M217.51,516.07c1.38.1,2.75.21,4.13.31.54,9.97,2.69,19.9,1.44,29.89-1.75,14.07-1.21,28.47-6.34,42.11-1.45,3.86-3.92,6.91-5.99,10.19-5.79,9.17-5.8,19.58-7.12,29.62-2.23,16.92-5.11,33.64-9.33,50.2-4.65,18.23-5.75,36.98-4.76,55.72.38,7.28-2.93,9.73-9.19,10.07-6.55.35-12.98,1.38-19.4,2.65-3.24.64-6.24.39-6.75-3.92-3.68-30.81-10.37-61.22-10.19-92.54.1-17.6,5.88-33.36,11.41-49.42,3.03-8.8,6.31-17.52,9.41-26.3.8-2.25,1.23-4.58-.82-6.52.85-8.18-4.49-13.96-7.95-20.46-1.21-2.28-2.25-4.72-3.93-6.66-6.15-7.09-7.38-14.32-1.12-22.01,1.52-2.19,3.18-3.77,6.25-3.71,19.42.41,38.84.06,58.26.2.74,0,1.35.31,1.99.58Z"/>
  <path class="cls-14" d="M762.81,532.86c9.61-3.02,19.47-4.8,29.51-4.96,11.72-.19,23.45.2,35.18.32,2.78.03,5.63.68,8.24-.9.09,26.27-.37,52.56.48,78.8.48,14.74,2.2,29.55.78,44.19-2.03,20.95-4.82,41.79-3.92,62.91.16,3.75.05,7.51.06,11.26-1.04,4.12-3.66,5.92-7.94,6.41-7.41.85-14.79,1.71-22.25,1.31-3.04-.16-6.15-.19-7.78-3.51-.43-18.36-3.96-36.13-10.18-53.39-7.84-21.79-7.28-44.01-2.51-66.19,4.86-22.58-1.48-42.91-11.45-62.57-2.38-4.7-4.45-9.74-8.23-13.66Z"/>
  <path class="cls-7" d="M217.51,516.07c-18.53.03-37.07.23-55.59-.04-5.06-.07-8.65,1.07-10.58,5.91-10.21,11.92-21.86,14.68-36.3,8.59-10.71-4.92-16.19-14.19-20.41-25.32-3.56,4.88-5.5,9.94-9.19,14.11-17.62,19.92-44.3,16.68-55.42-7.6-9.58-20.92-9.49-42.4.19-63.24,9.19-19.8,22.64-22.79,45.13-16.72,2.82,2.27,2.23,5.32,1.82,8.28-.84,6.15-2.37,12.23-2.09,18.51-1.03,4.78-2.26,9.02-7.37,11.69-3.55,1.85-5.04,6.06-3.71,10.43,1.18,3.89,3.94,5.55,7.93,5.55,2.55,0,5.04.45,7.16,2.04,1.12,1.19,2.18,2.44,3.37,3.56,1.93,1.8,4.32,3.46,6.88,2.49,3.09-1.17,1-4.11,1.01-6.18.02-12.63.9-25.1,5.81-36.94,1.06-2.56,1.9-5.31,4.29-7.09-.19,1.71-.39,3.42-.62,5.42,7.76-3.86,10.15-12.35,17.65-16.12,14.41-7.25,26.97-4.3,34.45,7.15,13.59,20.8,15.95,43.3,6.66,66.61-2.68,6.72-2.4,7.45,5.22,7.49,15.46.09,30.91.05,46.37.17,2.48.02,5.2-.87,7.36,1.24Z"/>
  <path class="cls-7" d="M642.91,504.7c.82.83,1.57,1.73,2.47,2.46,2.09,1.7,3.72,5.11,6.82,3.99,3.51-1.27.69-4.5.87-6.79,1.03-13.84.12-28.03,8.1-40.48,1.33,2.64-2.39,5.17.35,8.71,1.9-5.49,6.87-8.35,8.88-12.98,6.7-15.43,31.17-18.32,42.29-4.59,8.65,10.68,12.59,22.8,13.26,35.95.87,17.05-.97,33.71-12.88,47.44-1.49,1.72-.05,3.04.38,4.51-7.11,4.91-14.88,7.46-23.62,7.58-9.97.14-18.19-3.04-24.93-10.54-6.16-6.85-10.03-6.78-16.03.15-5.85,6.75-12.87,9.96-21.76,8.14-4.41-.9-8.87.07-13.26-.72-13.25-3.86-19.17-14.63-22.78-26.3-5.73-18.5-5.74-37.38,2.77-55.17,9.88-20.63,20-22.35,42.69-18.69,4.67,1.94,5.4,5.1,4.44,10-1.79,9.11-2.63,18.41-3.86,27.64-.97,2.87-3.77,2.23-5.82,2.97-3.88,1.41-6.42,3.84-5.95,8.24.51,4.73,3.54,6.75,8.1,6.85,3.23.08,6.53-.2,9.46,1.62Z"/>
  <path class="cls-6" d="M613.86,547.54c4.2,0,8.43-.23,12.61.06,9.49.65,16.64-3.16,22.32-10.59,4.23-5.54,11.42-5.54,15.9-.35,10.93,12.64,27.73,15.81,42.19,7.77,2.17-1.21,4.17-1.94,6.58-1.49,1.72.8,3.44,1.6,5.16,2.39-4.71-.28-7.3,1.85-9.74,6.09-4.58,7.93-11.84,13.64-18.48,19.94-11.23,10.66-22.93,20.5-35.4,29.7-9.63,7.1-14.4,18.8-21.29,28.47-9.13,12.8-19.65,24.36-29.78,36.29-10.26,12.09-17,26.13-20.14,41.78-.32.37-.47.8-.65,1.21-4.35,9.72-5.75,10.12-13.97,3.68-5.53-4.33-11.12-8.62-15.79-13.92-1.62-1.84-4.22-3.27-3.31-6.44,9.2-16.44,15.98-34.08,19.05-52.4,4.89-29.18,18.06-52.05,43.13-67.99,7.13-4.53,13.28-10.2,18.36-17.07,2.3-3.11,3.11-4.07-1.7-5.11-5.01-1.08-10.33.7-15.03-2.03Z"/>
  <path class="cls-14" d="M767.07,150.56c-.28,3.16,2.29,4.98,3.5,7.44,6.8,13.81,13.31,27.8,13.56,43.56.14,8.88-4.47,12.76-13.34,12.15-5.66-.39-10.91-2.07-15.51-5.68-7.62-5.98-14.34-12.82-19.69-20.84-11.42-17.13-24.79-32.71-37.77-48.61.4-4.02,4.39-5.16,6.43-7.9,7.27-9.76,7.63-21.01,7.89-32.42.07-2.9-3.03-4.14-2.85-6.87,4.05-2.79,1.31-5.19-.53-7.49-3.48-4.32-5.78-9.04-5.59-14.72.11-3.3.06-6.8,3.63-8.47,3.85-1.79,6.69.4,9.3,2.95.82.8,1.42,1.85,2.95,2.5,1.68-1.88.87-4.26.9-6.35.24-14.32,8.77-22.79,23.16-22.85,8.41-.04,16.82.13,25.23-.05,5.4-.12,10.18,1.05,14.05,5-.02,12.34-.34,24.68,0,37.01.36,13.22-4.21,25.21-8.39,37.32-2.15,6.22-8.74,9.45-11.23,15.56-1.14-3.63-3.38-5.21-7.38-5.95-11.95-2.21-17-5.34-34.74-19.49,6.12,12.01,16.22,16.9,26.68,21.59,4.99,2.23,10.76.75,15.42,3.87.49,6.47-1.83,13.58,4.32,18.74Z"/>
  <path class="cls-14" d="M210.39,150.15c-2.59,6.62,1.99,11.88,3.81,17.47,1.88,5.77,3.56,11.57,5.09,17.42,1.7,6.48.31,12.36-5.11,16.36-5.32,3.93-11.18,2.54-16.58-.39-7.94-4.3-14.83-10.12-20.04-17.35-13.8-19.17-28.29-37.78-43.44-55.89,1.12-1.78,1.89-3.96,3.42-5.26,10.94-9.31,9.89-22.52,11.49-34.83.15-1.12-1.12-2.43-1.74-3.65,2.06-3.25.34-5.79-1.58-8.25-2.62-3.35-4.62-7.04-6.04-11.03-2.13-6-1.02-10.76,3.24-12.99,4.95-2.59,7.79.97,10.74,4,.48.5.83,1.13,1.89,1.57,1.43-2.25.86-4.81.9-7.2.24-14.3,8.84-23.11,23.24-22.91,10.95.15,21.99-1.46,32.84,1.23,2.3.57,2.95-.31,3.12-2.34.23-2.73-.47-5.7,1.89-7.92,2.88,4.01,1.8,8.76,1.09,12.75-2.22,12.54-1.27,25.12-1.02,37.62.29,14.61-5.1,27.69-9.18,41.13-1.59,5.25-9.15,6.3-10.6,12.25-1.77-3.58-4.56-5.22-8.58-6.14-11.17-2.56-20.34-9.05-29.8-17.25,1.45,4.35,3.68,6.51,6.31,8.34,8.11,5.65,16.56,10.57,26.5,12.32,2.1.37,4.08,1.08,5.56,2.75-3.01,12.62,4.84,20.39,12.59,28.2Z"/>
  <path class="cls-22" d="M115.03,530.54c4.88.24,9.77.32,14.62.75,8.97.8,15.47-3.88,21.68-9.35-5.48,6.11-2.57,11.29,1.33,16.89,4.36,6.25,7.95,13.04,11.89,19.58,2.03,3.37,1.61,6.59-.56,9.71-6.67,5.49-13.33,10.98-20,16.47-9.89,8.14-14.38,20.01-20.88,30.46-9.89,15.91-20.45,31.45-33.11,45.13-7.87,8.51-14.74,17.34-20.24,27.4-1.99,3.64-4.18,3.86-7.15,1.01-5.1-4.92-9.22-10.56-12.92-16.55-3.55-5.74,1.13-10.48,2.66-15.18,6.91-21.25,15.77-41.93,21.75-63.42,3.73-13.41,12.15-21.75,22.25-29.26,10.47-7.79,15.68-18.76,20.44-30.2.75-1.79-1.35-2.22-1.76-3.46Z"/>
  <path class="cls-21" d="M212.83,826.18c-22.54.16-44.68-5.41-67.27-4.78-3.37.09-4.49-1.97-4.22-5.05,1.35-15.18,3.79-30.19,6.79-45.12.68-3.38,3.21-5.52,6.22-5.97,3.81-.57,3.21,3.16,3.8,5.44.35,1.37.56,3.53,2.17,2.88,5.25-2.11,12.76.39,15.34-7.41.72-2.17,2.17-4.1,3.29-6.14,6.49-11.87,15.84-13.09,25.39-3.24,4.9,5.05,9.82,10.09,14.48,15.36,8.05,9.12,17.99,13.69,30.17,14.29,6.78.34,13.31,2.84,15.58,10.01,2.3,7.25.22,14.07-5.6,19.1-4.61,3.98-9.97,6.68-16.07,8.17-9.94,2.43-19.97,2.49-30.07,2.45Z"/>
  <path class="cls-21" d="M845.75,761.31c7.6,14.25,16.88,26.9,32.1,33.98,5.71,2.65,9.92,6.77,12.76,12.49,3.79,7.64,1.14,12.68-7.49,13.67-22,2.52-43.67,2.74-65.25-4.19-7.5-2.41-16.29-.82-24.49-1.09-8.68-.29-9.46-1.23-9.58-10-.15-11.55,1.9-22.86,3.28-34.25.5-4.12,2.69-7.38,5.4-10.36,1.16-1.88,2.65-1.32,4.23-.63,10.53,4.57,17.24,2.99,24.57-5.78,1.35-1.61,2.57-3.33,4.16-4.72,3.37-2.93,6.81-4.1,10.46-.44h0c4.55,2.67,7.57,6.67,9.84,11.32Z"/>
  <path class="cls-21" d="M583.66,793.84c1.39,5.81-2.38,7.55-6.88,8.28-15.34,2.49-30.71,3.44-46.1.19-5.46-1.15-8.98-3.66-8.81-9.82.19-7.02,0-14.06.31-21.07.4-8.78-2.2-15.93-9.43-21.42-8.75-6.65-12.08-15.44-10.32-26.53,1.12-7.03,5.02-10.72,11.29-12.72,5.78-1.84,11.68-3.39,16.63-7.17,3.53-2.25,7.24-4.13,11.22-5.44,5.85-1.93,7.12-.9,6.52,5.34-.32,3.27-1.16,6.43-2.06,9.6-3.69,12.91,1.25,19.41,14.54,19.37,2.11,0,4.22-.07,6.33-.25,8.4-.72,10.45,1.51,8.93,10.09-1.42,8-4.66,15.52-6.22,23.55-1.52,7.85-.55,14.08,6.13,19.18,3.11,2.37,6.18,5.08,7.93,8.82Z"/>
  <path class="cls-21" d="M30.11,666.62c4.07,0,6.43-.15,8.76.03,6.19.47,7.78,3.71,4.39,8.76-6.69,9.96-4.68,21.67,5.66,27.43,18.67,10.41,14.84,12.98,6.26,26.73-7.03,11.27-11.86,23.09-10.82,36.87.49,6.47.34,13.97-6.36,17.34-6.31,3.17-11.39-2.32-16.5-5.31-3.01-1.76-5.78-4-8.49-6.22-13.79-11.33-15.86-18.94-9.77-35.49,3.79-10.3,5.44-20-.08-30.9-5.73-11.29-.57-23.26,2.36-34.71.49-1.93,2.59-2.48,4.59-2.65,7.24-.64,14.47-1.35,20-1.88Z"/>
  <path class="cls-15" d="M214.5,346.88c3.97-13.83,4.71-28.14,5.46-42.33,1.04-19.67,5.99-38.86,6.5-58.56.04-1.58.54-3.25,1.97-4.34.26,27.23,7.76,53.57,9.86,80.57.15,1.87.2,3.75.2,5.62-.05,28.82,1.47,57.58,3.04,86.34.4,7.29,2.01,14.47,4.85,20.9,5.76,13.03,4.23,26.04,1.93,39.18-1.13,6.44-12.47,13.79-21.05,13.81-4.1,0-6.84.77-7.26,5.29-.46-13.04.47-26.08,2.28-38.9,4.26-30.15.59-59.81-4-89.47-.94-6.08,1.07-12.83-3.78-18.11Z"/>
  <path class="cls-4" d="M793.09,346.64c2.6-5.22,2.13-10.74,2.04-16.36-.39-25.19.89-50.33,2.88-75.44.26-3.29,1.25-6.38,4.01-8.57,3.73,9,4.18,18.86,5.05,28.14,1.56,16.66,6.29,32.22,10.91,48.04,7.31,24.98,8.45,51.12,13.55,76.54,3.07,15.32,5.43,30.67,13.69,44.47,6.06,10.12,5.35,21.69,4.48,32.92-.21,2.66-2.45,5.9-4.72,7.52-5.78,4.14-6.52,9.58-6.27,15.98.14,3.8,1.19,7.89-1.16,11.51-.77-12.8,1.66-25.68-1.65-38.42-8.43-32.41-11.84-66.17-26.31-96.94-1.98-4.22-3.79-8.83-7.77-11.47-6.59-4.37-8.78-10.51-8.74-17.92Z"/>
  <path class="cls-13" d="M782.39,41.91c-13.74-5.43-28.12-2.8-42.24-3.23-9.53-.29-18.13,8.69-18.17,18.07-.02,3.75-.06,7.5-.16,11.24-.04,1.41-.16,3.06-1.84,3.37-1.67.3-2.22-1.09-2.83-2.48-1.84-4.18-4.49-8.95-9.57-6.91-5.18,2.08-3.14,7.75-2.36,11.89.93,4.93,4.07,8.89,7.8,12.22,1.53,1.37,2.73,2.56,1.53,4.72-1.49,2.67-3.35,1.8-5.26.59-11.16-14.22-14.63-30.55-13.32-48.24.52-6.99,3.15-12.41,9.47-16.17,5.27-3.13,7.8-9.46,14.52-11.44,15.51-4.55,30.77-9.24,47.03-3.55,10.08,3.53,15.25,10.1,15.59,20.77.09,3.04-.11,6.09-.18,9.14Z"/>
  <path class="cls-8" d="M217.53,18.17v14.83c-12.8-6.47-25.8-2.64-38.3-3.97-7.08-.76-11.97,2.12-16.4,7.34-2.92,3.44-4.39,6.77-4.2,11.31.22,5.13,1,10.58-2.9,15.83-1.7-3.15-2.68-5.75-4.34-7.79-1.7-2.08-3.8-4.71-7.03-3.5-3.28,1.23-4.11,4.26-3.86,7.53.5,6.66,3.66,12.03,8.49,16.4,4.21,3.81,3.1,6.16-1.69,7.87-13.11-15.64-16.96-33.71-14.35-53.59.45-3.42,1.41-6.6,3.86-8.75,9.11-8.03,17.74-16.86,30.66-18.91,7.81-1.24,15.46-3.46,23.52-2.54,12.02,1.37,22.06,5.53,26.55,17.95Z"/>
  <path class="cls-2" d="M835.9,750c-5.61-2.72-8.79.93-11.81,4.64-4.7,5.78-9.7,10.92-17.92,10.89-4.01-.01-8.68,1.85-10.46-4.07-.08-.27-2.11.05-3.23.1,3.92-6.34,4.26-13.08,2.98-20.29-.73-4.08-.23-8.38-.28-12.59,8.12,2.65,16.38,1.87,24.53.48,4.66-.8,10.61,1.52,13.44-4.69.01,5.3.22,10.6-.03,15.89-.17,3.63.69,6.76,2.79,9.64Z"/>
  <path class="cls-12" d="M583.66,793.84c-.37-.29-.71-.61-1.11-.85-17.08-10.52-16.44-25.25-10.13-41.54,1.5-3.87,2.29-8.1,2.81-12.24.51-4.02-.5-7.01-5.9-5.66-3.13.78-6.54.35-9.75.9-12.56,2.15-19.78-8.49-15.93-20.61,1.14-3.61,1.42-7.33,2.53-10.84,1.96-6.2-1.35-5.12-4.86-3.82-3.69,1.36-7.31,2.94-10.96,4.42,2.33-3.94,6.63-4.75,10.4-6.05,3.54-1.22,6.63-2.84,9.28-5.4,6.63,8.92,15.6,15.29,24.12,22.17,2.56,2.07,3.99,1.49,5.52-1.08,1.18-1.98,2.71-3.76,4.09-5.63.33,2.74-1.16,4.87-2.25,7.21-3.16,6.82-6.9,13.15-4.98,21.66,2.29,10.15-4.18,19.32-6,29.12-1.45,7.85-.27,13.39,5.76,18.58,2.99,2.57,7.24,4.71,7.35,9.68Z"/>
  <path class="cls-19" d="M235.78,187.16c-8.06-8.97-15.18-18.56-19.39-30.01,6.99,2.81,12.99,6.85,17.05,13.4,3.23,5.21,3.67,10.78,2.35,16.61Z"/>
  <path class="cls-10" d="M803.53,200.73c-6.41-9.44-12.32-19.16-16.83-29.67,8.1,1.98,16.34,11.68,16.79,19.93.18,3.24.03,6.49.04,9.74Z"/>
  <path class="cls-2" d="M845.75,761.31c-3.28-3.77-6.56-7.54-9.84-11.31,5.7,1.66,8.88,5.52,9.84,11.31Z"/>
  <path class="cls-17" d="M642.91,504.7c-3,.02-6.01.03-9.01.07-6.81.09-10.14-2.76-10.48-9-.32-5.95,3.02-9.38,9.73-10.05,1.33-.13,2.65-.46,3.97-.7-.4,7.25.3,14.17,5.79,19.69Z"/>
  <path class="cls-23" d="M707.91,241.53c-2.64,5.23-7.62,6.99-12.72,8.55,1.75-3,1.15-6.33,1.33-9.55.54-9.41,4.31-17.51,10.64-24.89-.32,8.69-2.7,17.44.75,25.89Z"/>
  <path class="cls-18" d="M148.66,224.74c3.61,10.03,13.59,9.24,21.2,12.45,1.56.66,4.52-.79,4.58,1.84.07,2.8-2.93,2.48-4.88,2.75-8.23,1.15-16.44,2.09-24.5-1.21-6.21-2.54-11.04.6-12.02,7.57-1.07,7.62-4,14.54-7.29,17.27,2.43-8.99,4.87-17.99,7.3-26.98,3.71-4.86,7.16-9.99,13.23-12.31.79-.46,1.58-.92,2.38-1.38Z"/>
  <path class="cls-11" d="M79.06,488.27c-2.33,0-4.69-.26-6.98.04-5.8.76-8.74-2.26-10.1-7.35-1.43-5.39.48-11.33,4.98-12.49,6.15-1.6,5.73-6.44,8.09-9.91.53,1.89.23,3.73-.55,5.45-4.17,9.17-1.74,17.07,4.55,24.26Z"/>
  <path class="cls-20" d="M146.29,226.12c-4.08,4.46-8.3,8.77-13.24,12.32-.25-7.93,1.76-15.59,2.58-23.38.52-4.92,3.16-8.42,6.16-12.38-1,8.5-.01,16.34,4.5,23.45Z"/>
  <path class="cls-1" d="M130.49,477.1c0-6.07,3.67-11.12,8.08-11.17,4.2-.04,8.38,5.38,8.5,11.19.03,1.61-.02,3.31-.49,4.83-1.3,4.23-3.55,8.38-8.58,7.49-4.63-.82-7.55-4.36-7.51-9.54,0-.93,0-1.87,0-2.8Z"/>
  <path class="cls-3" d="M689.38,494.14c-.15-5.9,4.11-11.78,8.67-12.01,4.61-.22,8.37,5.05,8.46,11.84.08,6.29-3.92,12.08-8.4,12.14-4.29.06-8.58-5.82-8.73-11.98Z"/>
  <path class="cls-9" d="M762.75,131.81c-16.34.49-29.17-6.73-40.03-18.24-2.82-2.99-4.52-6.32-2.83-11.24,9.54,9.41,19.27,17.55,32.01,20.95,1.8.48,3.69,1.47,5.41,1.26,6.37-.8,6.83,2.44,5.47,7.25,0,0-.02.03-.02.03Z"/>
  <path class="cls-16" d="M197.8,121.94c-13-1.07-23.94-7.06-34.31-14.4-1.13-.8-2.41-1.71-3-2.89-1.36-2.72-5.8-5.55-2.64-8.37,2.23-2,4.23,2.47,6.29,4.05,8.92,6.85,18.02,13.45,29.66,14.43,5.6.47,3.57,4.29,4.01,7.15,0,0-.02.03-.02.03Z"/>
</svg>