<?xml version="1.0" encoding="UTF-8"?>
<svg id="Layer_1" data-name="Layer 1" xmlns="http://www.w3.org/2000/svg" viewBox="0 0 1080 1080">
  <defs>
    <style>
      .cls-1 {
        fill: #fefefe;
      }

      .cls-2 {
        fill: #eee;
      }

      .cls-3 {
        fill: #151312;
      }

      .cls-4 {
        fill: #e9b38b;
      }

      .cls-5 {
        fill: #f9caa4;
      }

      .cls-6 {
        fill: #2a2a2a;
      }

      .cls-7 {
        fill: #2776b8;
      }
    </style>
  </defs>
  <path class="cls-1" d="M470.45,337.5c1.4-.39,3.14.42,4.49,0-2.14,7.76,8.31,15.53,8.97,18,5.27,19.51,7.82,51.19,8.97,72-.59-.05-3.52,4.06-6.67,3.71-6.98-.78-35.89-3.44-37.51-4.41-1.82-1.1-15.9-33.74-17.36-38.82-16.74-57.98.9-39.89,39.11-50.47Z"/>
  <g>
    <path class="cls-7" d="M551.22,207c3.51,14.48,10.79,27.65,17.95,40.5,9.15,16.42,27.26,52.37,50.58,48.77,22.47-3.47,15.98-19.41,18.01-31.75,2.25-13.67,6.8-14.42,3.21-35.02,14.02-2.35,7.01,4.43,8.97,9,13.8,32.07,29.89,50.55,22.44,90-4.86,13.18-8.91,27.2-13.46,40.5-6.26,18.29-12.39,35.29-17.95,54-5.83,19.62-21.6,58-22.44,76.5-18.59,1.45-36.36-4.1-53.84-9-7.33-2.05-41.97-11.92-44.87-13.5-1.74-.95-26.87-27.27-26.84-29.25.06-3.72,21.25-7.16,13.36-15.69-.48-.52-12.74-4.5-13.45-4.56-1.15-20.81-3.71-52.49-8.97-72,62.78-18.22,67.97-90.6,49.36-144,7.44-3.08,16.75-3.91,17.95-4.5Z"/>
    <path class="cls-6" d="M564.68,490.5c9,28.89,30.7,52.62,45.79,77.81,6.95,11.59,2.84,27.44,21.51,30.19,8.72,18.53,18.21,34.76,26.92,54-28.54,9.01-54.77,39.8-80.77,49.5-4.46,1.67-19.12,6.24-22.03,4.2-16.6-34.15-36.53-81.33-72.19-98.7-.41-18.51-19.1-32.81-22.14-52.01-2.99-18.89.05-39.1,8.68-55.99,11.43,7.41,53.56.84,49.36-22.5,2.9,1.58,37.54,11.45,44.87,13.5Z"/>
    <path class="cls-7" d="M681.34,954c21.49-5.58,22.21,12.84,31.7,19.96,21.34,16.02,57.93,15.66,67.1,22.69,8.44,6.47,6.05,26.97-2.04,34.14-12.59,11.17-134.66,29.46-141.65,22.23,7.54-22.64-24.9-57.28,9-67.53,1.26,9.54,5.07,15.33,17.21,8.2,1.89-1.11,18.43-37.52,18.69-39.7Z"/>
    <path class="cls-7" d="M326.88,859.53c2.54,2.37-22.37,44.38,20.38,42.84,5.01-.18,13.16-14.86,15.8,4.42,2.36,17.27-18.3,40.1-21.67,59.52-3.23,18.55,5.02,69.39-32.21,39.15-34.32-27.88-14.05-45.96-18.45-75.91-2.1-14.3-27.33-54.64-5.85-70.43,6.62-4.87,39.28-2.13,42,.4Z"/>
    <path class="cls-6" d="M573.65,130.5c-.42-1.86-8.32-5.7-8.48-15.42-.27-16,13.59-45.16,29.74-51,13.88-5.02,62.23-8.69,74.28-1.19,16.83,10.48-.86,32.32-1.31,36.11-13.78,1.48-32.16-3.44-44.82,2.3-11.69,5.31-22.57,34.51-27.06,38.16-10.63,8.64-9.68-21.53-22.35-8.96Z"/>
    <path class="cls-3" d="M483.91,607.5c35.67,17.38,55.59,64.55,72.19,98.7,2.91,2.04,17.57-2.54,22.03-4.2v4.5c-13.12,25.49-8.14,14.31-22.44,13.5-21.51-30.01-57.24-32.74-89.74-40.5,3.67-11.73,18.14-63.63,17.95-72Z"/>
    <path class="cls-3" d="M618.52,499.5c-.04.8,5.2,6.95,4.78,15.2-2.03,40.52-8.88,46.49,8.68,83.8-18.67-2.75-14.56-18.59-21.51-30.19-15.09-25.19-36.8-48.92-45.79-77.81,17.48,4.9,35.25,10.45,53.84,9Z"/>
    <g>
      <path class="cls-5" d="M533.27,211.5c18.62,53.4,13.42,125.78-49.36,144-.67-2.47-11.11-10.24-8.97-18,9.58-3.01,22.73-26.98,40.38-18.04l-20.15-18c7.63,23.75-22.75,16.34-24.72,36.04-38.21,10.58-55.85-7.51-39.11,50.47,1.47,5.08,15.55,37.72,17.36,38.82,1.62.98,30.53,3.64,37.51,4.41,3.16.35,6.09-3.75,6.67-3.71.71.06,12.96,4.03,13.45,4.56,7.89,8.53-13.3,11.97-13.36,15.69-.03,1.99,25.09,28.3,26.84,29.25,4.2,23.34-37.92,29.91-49.36,22.5-.4-.26.86-6.06-3.26-8.97-36.75-25.97-22.39-20.57-41.46-51.93-16.44-27.04-48.97-43.46-56.58-82.89-8.9-46.13,45.23-69.28,73.02-91.6,6.66-5.35,12.52-20.17,24.01-27.64,16.79-10.93,47.2-16.74,67.09-24.97Z"/>
      <path class="cls-5" d="M681.34,954c-.26,2.18-16.8,38.59-18.69,39.7-12.14,7.13-15.94,1.34-17.21-8.2-.04-.31-.08-.61-.12-.92-7.48-54.49-38.62-111.89-40.32-163.53-.71-21.67,14.62-69.22,12.45-80.29-1.06-5.39-29.81-34.24-39.31-34.26v-4.5c25.99-9.7,52.23-40.49,80.77-49.5,9.85,21.76,25.21,45.05,27.05,69.83,1.54,20.67-7.49,30.09-8.74,45.29-2.27,27.54-5.35,72.11-5.24,98.66.09,21.9,9.4,87.4,9.36,87.73Z"/>
      <path class="cls-5" d="M555.7,720c-16.08-.92-33.92,32.92-44.69,42.93-37.14,34.52-88.48,78.12-128.19,109.94-7.28,5.83-22.32,19.77-30.37,17.66-6.88-1.8-21.95-17.58-19.01-26.26,2.1-6.21,49.61-79.69,56.24-88.02,37.57-47.22,52.98-22.23,76.28-96.75,32.5,7.76,68.23,10.49,89.74,40.5Z"/>
      <path class="cls-5" d="M667.88,99c-2.82,23.54.9,100.95-31.41,103.5-17.62,1.39-21.89-13.91-35.94-11.21,2.89,11.08,17,22.7,26.9,27.07,8.5,3.74,3.28-7.92,9.04-11.36-2.36,8.46,3.36,16.04,4.49,22.5,3.59,20.6-.96,21.35-3.21,35.02-2.03,12.34,4.46,28.28-18.01,31.75-23.32,3.6-41.43-32.35-50.58-48.77h0c-7.16-12.85-14.44-26.02-17.95-40.5,29.81-14.73,28.72-48.38,22.44-76.5,12.67-12.57,11.72,17.6,22.35,8.96,4.49-3.65,15.36-32.85,27.06-38.16,12.66-5.74,31.04-.83,44.82-2.3ZM596.04,188.98c3.22-6.32-2.84-12.01-4.4-8.95-3.22,6.32,2.84,12.01,4.4,8.95Z"/>
      <path class="cls-5" d="M658.91,369c19.77-4.24,21.86-35.03,44.85-31.48,1.21,5.88-1.76,8.96-4.47,13.48-1.4,2.34-8.75,3.8-8.86,7.31-.05,1.7,3.76,27.81,4.4,30.16s22.19,7.98,2.65,12.01l10.79,4.52c-11.1,9.52-27.68,1.89-41.55,5.56-7.77,2.05-15.17,13.28-25.76,12.44,5.56-18.71,11.69-35.71,17.95-54Z"/>
      <path class="cls-5" d="M672.37,328.5c7.46-39.45-8.64-57.93-22.44-90,57.68,20.74,37.37,49.47,22.44,90Z"/>
      <path class="cls-4" d="M708.26,405l-10.79-4.52c19.55-4.03-2.02-9.7-2.65-12.01s-4.45-28.46-4.4-30.16c.11-3.52,7.46-4.97,8.86-7.31,26.31-5.77,22.15,42.7,8.97,54Z"/>
      <path class="cls-4" d="M636.47,202.5v4.5c-5.76,3.44-.54,15.11-9.04,11.36-9.9-4.36-24.01-15.98-26.9-27.07,14.05-2.7,18.32,12.59,35.94,11.21Z"/>
      <path class="cls-4" d="M470.45,337.5c1.97-19.7,32.36-12.3,24.72-36.04l20.15,18c-17.65-8.94-30.8,15.04-40.38,18.04-1.35.42-3.09-.39-4.49,0Z"/>
      <path class="cls-4" d="M596.04,188.98c-1.56,3.05-7.62-2.63-4.4-8.95,1.56-3.05,7.62,2.63,4.4,8.95Z"/>
    </g>
  </g>
  <polygon class="cls-2" points="359.75 897.53 358.87 889.76 354.59 890.73 349.7 889.76 344.06 885.08 339.48 880.24 334.42 872.29 333.2 868.27 333.44 864.27 334.42 862.21 326.88 859.53 325.49 866.29 323.56 872.95 322.41 878.53 321.96 883.5 322.25 887.99 324.03 893.44 326.39 896.65 329.29 898.93 333.15 900.73 338 901.91 343.37 902.39 347.27 902.38 351.68 899.99 355.11 898.27 359.75 897.53"/>
  <polygon class="cls-2" points="662.65 993.7 665.36 989.24 670.4 978.98 673.74 971.79 681.34 954 676.87 952.96 666.71 954.58 655.11 959.33 647.07 965.26 642.72 969.59 645.14 983.28 645.71 987.24 646.96 991.81 648.84 994.88 651.31 996.51 654.26 996.85 658.48 995.79 662.65 993.7"/>
</svg>