<?xml version="1.0" encoding="UTF-8"?>
<svg id="Layer_1" xmlns="http://www.w3.org/2000/svg" viewBox="0 0 900.21 960.92">
  <defs>
    <style>
      .cls-1 {
        fill: #dfa982;
      }

      .cls-2 {
        fill: #828483;
      }

      .cls-3 {
        fill: #616362;
      }

      .cls-4 {
        fill: #5b5c5c;
      }

      .cls-5 {
        fill: #e0a680;
      }

      .cls-6 {
        fill: #dda47c;
      }

      .cls-7 {
        fill: #828484;
      }

      .cls-8 {
        fill: #aaa8a7;
      }

      .cls-9 {
        fill: #828385;
      }

      .cls-10 {
        fill: #e4b18d;
      }

      .cls-11 {
        fill: #838485;
      }

      .cls-12 {
        fill: #dda87d;
      }

      .cls-13 {
        fill: #565857;
      }

      .cls-14 {
        fill: #634935;
      }

      .cls-15 {
        fill: #282828;
      }

      .cls-16 {
        fill: #606261;
      }

      .cls-17 {
        fill: #a9a7a8;
      }

      .cls-18 {
        fill: #e1b08d;
      }

      .cls-19 {
        fill: #a8a8a8;
      }

      .cls-20 {
        fill: #575958;
      }

      .cls-21 {
        fill: #a9a9a9;
      }

      .cls-22 {
        fill: #292929;
      }

      .cls-23 {
        fill: #dda57c;
      }

      .cls-24 {
        fill: #a8a6a5;
      }

      .cls-25 {
        fill: #fccaa5;
      }

      .cls-26 {
        fill: #d84140;
      }

      .cls-27 {
        fill: #5b5d5c;
      }
    </style>
  </defs>
  <path class="cls-25" d="M716.06,337.72c4.92-3.87,1.61-8.82.8-12.68-2.12-9.99-6.49-19.31-10.45-28.76-5.06-12.06-8.43-24.8-11.46-37.54-6.36-26.72-10.04-54.04-18.24-80.35-3.89-12.48-7.6-25.02-11.18-37.59-1.27-4.46-4.64-6.69-8.12-8.93-10.81-6.96-21.66-13.86-32.51-20.76-3.5-2.22-6.11-5.22-6.65-9.34-.72-5.47-3.59-7.45-8.82-6.56.06-3.36,2.91-2.74,4.74-2.98,3.86-.52,5.06-2.76,5.01-6.25-.03-1.94-.15-3.91.05-5.84.53-5.13-.9-8.43-6.81-8.41-1.34,0-3.16-.34-3.02-2.54,2.19-.05,4.38-.15,6.57-.15,2.7,0,4.69-.75,5.11-3.85.79-5.74,4.74-9.76,8.1-14.01,3.31-4.19,6.73-4.07,11.24-.75,7.17,5.28,14.64,10.62,24.61,8.24,2.63-.63,5.03,1.37,7.57,1.73,8.21,1.16,15.7,3.23,22.97,8.01,3.84,2.52,10.67.69,16.14.49,3.67-.14,2.85-3.27,2.85-5.51.05-17.3-.01-34.61.06-51.91,0-2.3-.86-4.86,1.17-6.86,2.51,2.17,2.13,5.18,2.07,7.95-.45,21.01.38,42.01-.9,63.05-1.11,18.31.9,36.74,1.4,55.11.25,9.09,7.21,16.24,11.07,24.3,1.88,3.93,4.42,6.31,8.84,6.46-7.73,10.23,2.27,16.8,5.73,24.1,12.59,26.57,29.72,50.98,38.78,79.24,5.74,17.9,9.77,36.32,10.8,55.13.34,6.12,5.94,4.1,7.72,7.27-2.57,1.98-3.67,4.24-3.45,7.82.55,8.77,1.73,17.44,2.7,26.15.6,5.39,3.17,6.62,7.97,5.55,7.26-1.62,14.62-2.45,22.06-2.41-.35,7.33,4.9,12.35,7.7,18.36,3.03,6.5,7.71,12.7,6.72,20.13-2.07,15.53,5.12,27.38,13.88,38.85,1.06,1.39,1.96,2.89,3.06,4.24,3.64,4.48,4.39,8.01-2.51,9.99-3.82,1.09-5.33,3.98-5.19,8.07.42,12.43-.18,24.9,1.36,37.29.78,6.31-1.96,10.03-8.45,10.78-5.18.6-9.64,4.34-15.15,3.51-.01-2.17-1.53-2.13-3.13-2.32-4.36-.5-8.72-1.05-12.95-2.28-7.32-2.11-8.86-4.17-7.94-11.92.85-7.17,1.88-14.33,2.92-21.47,2.53-17.51,1.19-34.91-.17-52.36-.1-1.31-.86-2.48-.94-3.24,1.54,2.9,1.04,6.65,1.24,10.23,1.18,21.03,2.1,42.26-4.58,62.52-7,21.22-12.45,42.96-21.17,63.6-1.54,3.64-2.91,7.33-4.25,12.39,2.26-2.75,2.78-7.06,6.75-4.36,17.52,24.98,24.38,52.91,23.08,83.1-.22,1.07-.62,2.09-.99,3.12-.44,1.24-.96,2.69-2.49,2.68-1.4,0-2.26-1.19-2.83-2.43-.37-.8-.61-1.64-.87-2.47-3.75-11.8-8.71-23.15-14.09-35.85,7.01,19.76,12.25,38.6,16.2,57.79-2.79,10.42-8.88,18.57-17.86,24.31-19.9,12.73-41.05,15.61-62.39,4.59-14.98-7.73-24.37-21.08-30.1-36.85-2.7-7.44-4.18-15.21-5.93-22.91.99-12.49-4.07-24-5.86-36.05-2.42-16.32-2.35-32.63-1.36-49.05,1.59-26.24,13.18-49.13,23.55-72.46,3.95-2.82,7.09-.36,10.09,1.76,8.93,6.32,16.68,14.03,24.88,21.25-7.35-10.65-14.14-21.7-23.96-30.36-2.18-1.92-2.48-4.55-2.47-7.24.02-4.17-.01-8.34-1.32-12.38-1.94-18.91.58-37.54,4.11-55.99,3.21-16.8,2.25-33.46.2-50.18-.53-4.34-.96-8.68-1.31-13.03Z"/>
  <path class="cls-25" d="M290.27,339.14c7.26,3.3,14.15.57,20.55-2.17,5.73-2.45,11.66-2.21,17.38-2.61,8.51-.59,14.39,5.26,15.8,14.57,3.05,20.17,3.4,40.37,1.93,60.79-1.13,15.73-3.07,31.27-5.73,46.75-2.61,15.17-8.17,29.35-14.76,43.26-8.14,17.17-18.71,32.89-28.38,49.14-5.21,8.75-12.03,16.52-15.97,26.05-1.65,3.24-3.63,6.28-5.68,9.28-1.34,2-2.49,4.12-3.96,6.04-8.75,11.41-16.84,23.1-15.1,37.61,1.01-1.67,1.61-4.69,2.51-7.57.92-2.93,1.6-5.93,3.55-8.42,2.03-2.6,4.46-4.82,6.72-7.21,2.02-2.13,4.1-3.67,6.23-.08,2.26,24.44-1.34,47.76-15.3,68.37-11.27,16.64-28.6,20.78-47.46,19.48-10.92-.75-21.7-2.88-31.64-8.03-9.12-4.73-16.07-11.27-18.76-21.06.13,3.73,2.27,8.05-1.91,11.5-1.23-9.15-1.08-18.35-.16-27.46.32-3.16-.32-6.02-.42-9.01-.67-20.12.63-40.23,3.07-60.11,1.62-13.19,3.84-26.69,10.39-38.78,2.22-4.1-.75-3.01-2.8-2.9-1.5-3.28-.61-6.44.44-9.6,3.86-7.43,2.26-15.78,4.01-23.58.99-4.43.96-9.06,2.39-13.42,1.78-2.04,2.67-.5,3.21.99,1.08,2.97.91,6.11.23,9.1-2.16,9.45-1.9,19.14-2.88,28.95,10.85-16.64,26.34-28.45,41.32-40.8,2.36-1.95,3.15-4.61,3.92-7.4,2.55-9.31,5.42-18.51,9.7-27.22,2.83-5.75,7.23-8.62,13.68-9.92,13.06-2.63,26.43-4.8,37.32-13.66,4.51-3.67,8.08-7.96,10.93-14.1-6.26,4.46-11.71,8.51-17.99,11.31-8.02,3.57-16.38,5.52-25,4.28-12.8-1.84-25.17.94-37.65,2.48-5.14.63-10.56.54-15.2,3.48-9.7,5.15-20.38,7.66-30.65,11.29-5.12,1.81-9.27,3.62-8.2,10.1-.83.53-1.64.43-2.42-.09-7.2-4.79-11.91-3.68-15.78,4.27-4.78,9.83-10.15,19.31-15.4,28.88-2.24,4.08-5.09,7.36-9.47,8.45-5.76,1.44-10.29,5.46-16,6.88-3.45-4.73-15.68-6.26-21.03-2.62-1.27.86-1.97,3.23-4.19,1.57,1.09-7.02-4.77-9.21-8.87-12.44-6.47-5.11-6.46-8.12-.55-13.94,3.99-3.92,4.3-9.49,3.28-14.6-1.12-5.62-1.41-10.61,2.19-15.58,2.14-2.96.87-6.84.8-10.28-.09-3.96,1.11-6.79,4.87-8.39,4.03-1.72,6.57-4.88,8.26-8.82,7.62-6.55,17.26-6.71,26.42-8.4,9.61,5.31,17.98,2.39,25.85-3.9,1.54-1.02,3.46-1.25,4.94-2.38,11.22-6.44,22.42-12.89,33.92-18.83.53-.32,1.09-.59,1.65-.85,6.83-2.85,13.35-6.27,19.48-10.42,23.2-12.29,45.75-25.94,71.56-32.59,6.95-1.79,14.42-1.78,20.82-5.62Z"/>
  <path class="cls-26" d="M160.29,674.85v-16.08c4.81,5.9,6.01,11.68,10.18,15.68,14.09,13.5,31.61,16.15,49.95,16.09,18.59-.06,32.81-7.76,42.05-24.35,7.56-13.56,9.99-28.39,11.51-43.44.63-6.28,1.01-12.68.06-19.02-3.33-6.98-1.55-13.93.15-20.87,2.62-2.36,3.11-6.57,6.88-7.92,6.09,5.01,12,10.27,18.3,14.98,25.97,19.41,43.43,44.79,52.98,75.58,2.71,8.75,4.05,17.96,4.18,27.17.27,19.25,5.83,37.58,9.44,56.24,3.06,15.82,4.33,31.72,3.39,47.76-2.24,38.28-4.68,76.55-7.03,114.82-9.34-1.58-18.77-1.14-28.17-1.14-38.87-.01-77.74,0-116.61-.02-3.03,0-6.18.56-9.02-1.12.7-3.4.87-7.02,2.18-10.16,10-24.12-2.72-44.67-10.25-65.97-9.7-27.4-18.28-55.14-26.62-82.98-7.37-24.62-10.84-49.84-13.57-75.25Z"/>
  <path class="cls-26" d="M809.06,650.43c2.24-21.85-3.6-42.28-10.89-62.48-2.75-7.62-7.24-14.22-11.33-21.08,1.51-3.81,2.16-4.06,6.24-1.65,8.11,4.81,15.81,10.25,23.54,15.64,5.19,3.61,10.82,6.61,15.45,11.01,23.57,17.66,38.77,41.39,49.17,68.44,4.36,11.34,5.48,23.59,5.91,35.51.61,17.1,5.36,33.25,8.53,49.77,2.97,15.53,5.22,31.2,4.34,47.04-1.85,33.5-3.77,67-6.33,100.46-.84,10.94-.55,21.87-1.3,32.78-4.41-.54-2.86-4.18-3.08-6.52-.81-8.81-.74-8.97-9.79-8.98-42.93-.04-85.86.02-128.8-.07-3.8,0-7.99,1.05-11.09-2.43-.4-6.02,1.5-11.81,2.92-17.4,3.29-12.97,1.25-24.55-3.93-36.78-11.96-28.24-20.06-57.88-29.86-86.91-4.83-14.3-9.5-28.53-12.6-43.28-3.7-17.62-6.04-35.4-6.6-53.41-.19-6.11.16-12.21-1.01-18.33-.63-3.28-.91-7.01.95-10.29,2.13.87,2.39,2.72,2.89,4.72,1.64,6.59,2.92,13.37,5.52,19.59,7.85,18.71,19.79,33.8,40.61,38.76,23.36,5.56,56.51-3.89,65.89-32.23-.02-7.62,3.84-14.42,4.63-21.87Z"/>
  <path class="cls-27" d="M171.72,527.45c-.67,3.02.27,6.27-1.35,9.14-3.4,4.74-8.21,6.74-14.68,6.86,4.38,3.78,5.71,8,3.66,12.57-2.71,6.04-8.19,7.24-15.08,6.53,2.66,5.82,4.78,11.18-1.53,15.14-5.92,1.94-11.95-.24-17.9.47-1.19-.01-2.38.06-3.55-.23-19.42,1.27-38.51-2.63-57.78-3.71-2.17-.12-4.36.02-6.48-.59-.74-.24-1.39-.65-1.96-1.19-5.09-3.3-10.95-3.13-16.62-3.44-5.36-.29-10.77.18-15.86-2.07-6.35-5.3-6.45-6.91-.94-16.64-12.32-3.29-14.49-6.16-12.27-16.22.37-.52.65-1.11,1.08-1.57,2.78-2.99,4.83-5.66-1.77-5.92-1.23-.05-2.27-1.08-3.4-1.67-1.94-1.32-3.88-2.63-3.92-5.34-2.04-6.2.33-10.89,5.08-14.76l1.54-1.09c4.83-.97,9.67-1.03,14.5.04h0c9.53,2.99,19.61,1.1,29.23,3.29,13.8,3.14,27.94-.11,41.78,2.16,21.38,3.51,42.95,5.27,64.5,7.22,5.79.53,10.63,2.46,13.86,7.54.53,1.18.51,2.34-.15,3.46Z"/>
  <path class="cls-4" d="M178.17,389.28c-11.49,6.5-22.99,12.99-34.48,19.49-6.25,1.56-12.64.93-18.85.38-10.46-.93-21.48.03-31.24-2.85-11.89-3.5-23.92-2.98-35.74-5.15-6.43-1.18-12.94-2.01-19.47-2.09-4.19-.05-8.26-.47-12.34-1.35-11.14-2.39-14.34-8.36-10.04-19.05,3.4-4.28,8.07-5.59,14.12-5.2-3.37-5.26-5.55-10.17-2.22-15.44,3.25-5.15,8.68-4.93,14.53-4.61-3.11-6.02-4.63-11.3,1.15-15.7,6.92-3.36,14-.41,20.9-.08,4.92.23,9.86.72,14.82.63,1.63-.81,3.34-.95,5.12-.75,16.06,1.85,32.41,2.34,48.12,5.59,9.95,2.06,19.96,3.21,29.9,5.04,2.7,1.17,5.15,2.28,6.79-1.74,1.42-3.49,5.02-4.66,8.24-6.04,22.01-9.43,44.5-17.16,68.84-16.83,8.24.11,16.54,1.05,24.11,4.94-2.28,2.28-4.99,1.27-7.46.73-30.26-6.65-57.6,3.29-84.72,14.7-8.47,3.57-8.67,11.35-10.12,18.58-.44,2.19,1.43,2.24,2.81,2.87,7.79,3.58,10.2,8.9,7.6,17.02-.75,2.33-1.66,4.52-.36,6.9Z"/>
  <path class="cls-15" d="M208.55,909.2c2.6-.26,5.2-.73,7.8-.74,46.33-.04,92.66,0,138.99-.04,2.88,0,5.76-.45,7.02,3.06.22,14.47.21,28.97.77,43.43.21,5.4-2.12,5.98-6.61,5.96-30.31-.16-60.62-.09-90.93-.1-21.96,0-43.93-.16-65.89.12-5.48.07-6.33-1.76-5.13-6.56,3.82-15.32,8.55-30.34,13.98-45.14Z"/>
  <path class="cls-15" d="M739.63,907.87c5.25.21,10.5.59,15.75.59,43.2.04,86.4.11,129.6-.12,5.28-.03,7,1.46,6.66,6.65-.24,3.59-.88,7.36.74,10.88.26,9.64.21,19.3.9,28.91.39,5.41-1.94,6.16-6.47,6.09-14.48-.21-28.96-.09-43.45-.1-37.52,0-75.05-.14-112.57.13-6.36.05-7.35-1.67-5.76-7.49,4.23-15.4,7.32-31.14,14.59-45.56Z"/>
  <path class="cls-20" d="M742.21,10.72c2.44-4.12,6.02-5.46,10.6-4.31,4.79,1.21,7.65,4.34,8.08,9.2.33,3.76.3,6.04,5.1,3.07,5.07-3.14,8.95-.06,11.88,4.28,2.51,6.36.91,13.01,1.36,19.52.29,4.14-.63,8.34.66,12.42.44.71.75,1.47.94,2.28.95,16.81,1.63,33.77-.12,50.41-1.04,9.92-1.86,19.78-2.22,29.73-.22,6-4,7.9-12.69,6.95-2.95-1.95-4.99-2.3-4.86,2.37.04,1.36-.78,2.74-1.2,4.12-3.28,3.7-6.7,7.17-12.33,5.3-5.2-1.72-8.39-6.59-8.41-13.47-.13-40.71-.07-81.42-.08-122.13,0-3.71,1.27-6.79,3.28-9.72Z"/>
  <path class="cls-13" d="M580.32,153.66c-8.37,7.61-15.31,3.48-18.71-11.13-9.73,5.18-13,4.49-17.2-3.64-1.43-8.24.59-16.64-1.13-24.87-1.65-12.45-.68-24.96-.62-37.44.04-7.96-1.91-16.19,2.24-23.91,1.13-2.1-.94-4.52-1.08-6.96-.39-7.04,1.05-13.9,1.44-20.85.17-3.06,2.71-4.33,4.44-6.22,4.47-2.58,8.13-.28,11.68,2.43,4.03-15.32,10.07-18.92,18.9-11.67,2.96,2.61,4.77,5.75,4.21,9.83-1.69,12.46-.88,24.99-.87,37.48.02,29.4-.49,58.81.32,88.21.1,3.66-1.18,6.34-3.62,8.74Z"/>
  <path class="cls-15" d="M716.06,337.72c1.46.64,2.44,1.45,2.62,3.3,2.3,23.29,4.08,46.52-.9,69.77-3.4,15.87-4.34,32.01-3.23,48.24,1.57,5.5.97,11.18.63,16.68-.38,6.25-5.78,8.24-10.96,4.7-11.85-17.8-21.75-36.55-26.51-57.56-2.36-10.43-4.6-20.9-2.15-31.86,2.41-10.78,7.02-19.76,16.67-25.64,1.62-.99,2.26-2.41,2.77-4.22.88-3.15,2.13-6.21,3.37-9.24,2.47-6.02,5.5-11.36,13.15-11.81,1.55-.09,3.03-1.54,4.53-2.36Z"/>
  <path class="cls-16" d="M580.32,153.66c2.09-4.22,1.21-8.68,1.21-13.11-.07-37.64-.1-75.28.02-112.92.02-6.14,2.66-12.39-1.27-18.24,3.34,1.05,3.39-1.3,3.8-3.52.79-4.3,3.23-6.5,7.83-5.71,4.81.83,10.02-1.71,14.53,1.7,1.69,2.93,2.12,6.07,2.09,9.43-.1,13.79-.07,27.58-.03,41.37.02,7.84,1.45,15.82,1.09,23.43-1.27,27.09-.8,54.17-1.2,81.25,0,.39-.39.77-.6,1.16-2.29,6.02-6.53,8.99-13.08,8.49-6.53-.5-9.56-4.71-10.74-10.47-.49-2.38-1.01-3.69-3.65-2.86Z"/>
  <path class="cls-3" d="M742.21,10.72c-1.14,4.26-1.24,8.6-1.23,12.99.05,39.92.06,79.84,0,119.77,0,4.99,1.17,9.04,5.98,11.43,4.78,2.38,7.86-.51,11.04-3.31.47-.41,1.16-.58,1.75-.86-4.41,8.08-10.13,8.65-19.58,1.47-1.16,3.13.07,6.66-1.91,9.3-3.49,3.59-6.19,4.06-8.4-1.43-1.46-3.63-3.66-6.99-5.73-10.34-6.01-9.72-9.53-19.86-8.34-31.66,1.07-10.66-1.41-21.44-1.03-32.04.97-27.15,1.37-54.28,1.02-81.42,1.19-3.26,3.28-4.93,6.99-4.53,2.61.29,5.29.28,7.9.03,5.99-.58,9.38,1.42,8.88,7.98-.13,1.73-.3,3.87,2.67,2.61Z"/>
  <path class="cls-15" d="M178.17,389.28c-3.65-.84-4.56-2.07-2.21-5.82,4.92-7.85,1.2-15.41-7.89-16.71-3.87-.55-4.82-1.59-1.96-4.75.8-.89,1.44-2.38,1.36-3.54-.76-10.55,6.02-14.8,14.42-18.28,18.68-7.73,37.89-13.26,58.06-15.15,8.63-.81,16.92,1.64,25.31,2.99,1.73.28,3.38.9,5.16.46,7.25,2.38,12.81,7.87,19.84,10.67,1.5,3.49-1.7,2.88-3.14,3.26-9.49,2.54-19.16,4.44-28.52,7.38-17.57,5.52-33.31,15.11-49.65,23.35-3.69,1.86-7.41,3.68-11.12,5.51-6.43,3.74-13.33,6.6-19.62,10.61l-.04.02Z"/>
  <path class="cls-18" d="M832.07,591.86c-11.42-4.96-20.7-13.3-31.19-19.73-3.32-2.03-6.54-4.23-9.75-6.43-1.97-1.35-3.53-1.73-4.29,1.16-4.07.25-2.93,3.75-3.7,6.02-.36,1.06-.56,2.39-1.83,2.38-1.66-.01-1.81-1.53-2.03-2.84-.8-4.65,1.61-8.73,3.25-12.52,7.4-17.06,11.72-35.11,17.89-52.53,4.85-13.68,8.22-27.55,9.19-41.86.77-11.25.13-22.61-.26-33.9-.19-5.52-1.27-11.01-1.96-16.67,3.03.1,3.06,2.39,3.4,4.11,3.83,19.15,4.14,38.37,1.99,57.8-.93,8.45-2.55,16.8-3.29,25.27-.33,3.8,1.19,5.55,4.67,6.56,7.28,2.12,14.76,3.03,22.48,3.19-.62,3.4-3.88,1.67-4.64,3.71-2.26.8-4.51,1.66-6.8,2.38-6.17,1.95-14.76,1.11-17.93,6.6-5.04,8.72-7.89,18.84-9.67,28.99-.53,3.02,1.42,4.84,3.36,6.69,8.84,8.42,17.69,16.83,26.42,25.37,1.84,1.8,3.14,4.15,4.69,6.25Z"/>
  <path class="cls-21" d="M121.44,577.45c.81.11,1.61.22,2.42.33.51.13.71.32.6.58-.12.29-.26.43-.4.43-9.13.15-9.53.12-10.27,9.4-.46,5.87-2.94,7.24-8.07,5.87-.63-.17-1.28-.31-1.93-.4-10.44-1.46-10.89-.84-11.51,9.92-.45,7.85-1.72,15.65-2.47,23.49-.36,3.75-3.03,3.5-5.29,2.99-4.77-1.07-9.58-1.26-14.39-1.22-5.56.05-7.33-2.48-6.65-7.8,1.12-8.68,1.52-17.47,2.99-26.09.66-3.92-.94-4.59-3.81-5.07-1.3-.21-2.6-.45-3.91-.59-5.61-.61-8.57-2.84-6.24-9.08.9-2.42.97-5.16,1.41-7.75.44-.73.96-.8,1.57-.2h0c1.64,1.87,1.51,4.09,1.05,6.25-.95,4.5,1.34,6.13,5.32,7.35,14.31,4.37,29.03,3.97,43.71,4.45,3.56.12,4.3-1.87,4.78-4.84,1.43-8.97,1.92-9.23,11.09-8.01Z"/>
  <path class="cls-15" d="M830.56,364.36c-9.23,3.69-19.1,3.62-28.75,4.59-2.91.29-2.64-2.94-2.87-5.04-1.22-11.08-2.3-22.18-3.63-33.25-.75-6.28,3.68-2.83,5.97-3.42,5.48,2.25,10.59,5.18,15.65,8.25,14.3,8.69,16.26,12.74,13.63,28.86Z"/>
  <path class="cls-19" d="M779.36,25.32c2.17,7.51.81,15.18.86,22.77.03,4.72,1.1,7.15,6.23,6.38,1.29-.19,2.65.12,3.94-.07,4.98-.74,7.21,1.47,6.18,6.26-1.62,7.52,2.36,9.46,8.68,9.35,7-.12,13.98.4,20.99-.68,7.3-1.13,8.38.13,8.42,7.52q.11,18.34-18.19,18.34c-4.83,0-9.66.16-14.48-.05-4-.17-5.26,1.55-5.49,5.42-.26,4.38,1.88,9.11-1.48,13.15-3.51-5.69-2.33-11.98-1.48-17.87,1.63-11.21.1-22.22-.59-33.32-.2-3.27-1.88-4.61-5.01-4.71-3.03-.1-6.19.21-8.74-2.02h0c-.91-10.17-1.22-20.33.14-30.48Z"/>
  <path class="cls-21" d="M544.46,113.82c.54,8.36.61,16.71-.06,25.07-2.25-5.95-.86-12.12-.88-18.17-.02-4.58-1.37-6.05-6-5.99-10.25.14-10.25-.1-10.25-10.35q0-9.21-8.92-9.2c-7.91.01-15.82-.1-23.72.06-3.92.08-5.65-1.45-5.51-5.42.15-4.61.32-9.24-.05-13.82-.47-5.8,2.3-7.64,7.44-6.77,7.86,1.33,15.78.42,23.65.91,5.41.34,7.7-1.48,7.24-7.07-.2-2.43-1.19-5.3,1.22-7.43,3.45,4.23,2.45,9.25,1.64,13.76-2.24,12.47.65,24.74.61,37.1-.01,3.92,2.4,5.12,5.97,5.25,2.64.09,5.81-1.25,7.63,2.06Z"/>
  <path class="cls-21" d="M79.06,337.64c.09-1.75.13-3.5.28-5.24.86-9.94.88-10.04,10.64-9.33,4.4.32,6.17-1.07,6.39-5.79.44-9.35,1.64-18.67,2.52-28,.24-2.55,1.11-4.01,4.17-3.5,4.3.71,8.72,1.7,12.99,1.35,7.83-.63,8.55,3.51,7.8,9.55-.96,7.79-1.59,15.63-2.53,23.43-.5,4.13.87,5.58,5.21,6.15,3.97.52,8.31-.04,12,2.24-5.1,3.42-10.49,1.76-15.81.86-10.52-1.78-20.92-4.1-31.79-3.05-4.86.47-7.83,1.69-8.53,6.87-.25,1.81.09,4.76-3.36,4.46Z"/>
  <path class="cls-7" d="M779.22,55.8c4.8.12,10.48-1.31,14.18.78,4.05,2.29.82,8.48,1.82,12.81,3.42,14.8-1.26,29.55-.18,44.32-1.08.1-2.17.27-3.25.29q-12.24.21-12.24,12.74c0,3.28.15,6.56-.07,9.83-.55,7.96-6.14,11.05-13.67,7.68,10.97-.4,11.73-1.51,12.12-12.25.93-25.4,1.56-50.79,1.3-76.2Z"/>
  <path class="cls-9" d="M544.46,113.82c-2.96-1.4-6.03-.23-8.98-.11-5.11.21-6.46-1.68-6.86-6.77-1.35-17.12-.64-34.19,0-51.29,0,0,.04,0,.04,0,4.79-1.5,9.85.55,14.62-1.14.27-9.14.55-18.27.79-27.41.1-4.04,1.39-7.23,5.65-8.47-5.24,5.95-4.63,13.37-4.78,20.44-.33,15.92-.31,31.85-.41,47.78-.05,8.99-.04,17.98-.06,26.96Z"/>
  <path class="cls-11" d="M79.06,337.64c.19-.11.41-.19.55-.35,3.39-3.78-2.35-13.52,7.86-12.63,5.87.51,11.42-1.48,17.49-.41,11.09,1.96,22.1,5.24,33.59,4.25,0,0,0,0,0,0,1.61,3.23-.2,6.39-.26,9.59-.04,2.09-1.28,4.21.41,6.17,7.69,2.65,16.17.47,23.74,3.89-9.11-.02-18.02-.97-26.98-3.07-8.15-1.91-16.76-2.04-25.14-2.86-10.35-1.01-20.67-2.5-31.07-3.11-.44-.28-.62-.6-.52-.95.1-.37.21-.55.34-.55v.03Z"/>
  <path class="cls-17" d="M16,378.66c-2.5,13.21-.37,16.72,13.42,18.65,14.67,2.06,29.47,3.25,44.23,4.71,23.34,2.3,46.7,4.51,70.05,6.75-1.19,2.26-3.37,1.13-5.11,1.49-5.57,2.25-11.24.53-16.73-.08-4.51-.51-7.53.46-9.96,4.03-.75.76-1.5,2.19-2.24,2.19-8.31-.04-15.99,1.94-23.01,6.44-.13.09-.67-.45-1.02-.69.44-4.11-.08-8.24,1.14-12.36,1.2-4.05-.82-6.08-5.18-6.05-17.13.12-33.93-3.79-51.02-4.36-3.21-.11-6.51-1.04-9.56-2.18-8.02-2.99-10.16-11.29-5-18.54Z"/>
  <path class="cls-8" d="M607.79,158.5c-.03-21.21-.05-42.42-.1-63.62-.06-28.87-.12-57.73-.25-86.6-.01-2.14-.65-4.29-1-6.43,3.31,2.31,2.43,5.83,2.46,8.99.21,19.45.33,38.9.48,58.35.17.15.31.33.5.44,3.36,2.02,9.45-1.88,10.55,2.56,1.48,6,.62,12.62.38,18.97-.09,2.34-2.43,2.7-4.52,2.93-2.3.26-4.87-.96-6.87,1.12-.16,18.8-.29,37.61-.53,56.42-.03,2.3.88,4.85-1.09,6.88Z"/>
  <path class="cls-24" d="M171.43,524.87c-7.35-9.03-18.1-6.46-27.51-7.59-31.66-3.81-63.37-7.32-95.18-9.75-6.1-.47-12.19-1.08-18.32-1.32-2.82-.11-5.69-.3-7.92-2.44,11.35.76,22.69,1.43,33.98,3.03,6.31.89,12.87,2.54,19.16-.6,3.32-.07,1.22-5.2,4.92-5.1,6.35.17,12.74-.27,19.04.3,3.33.3,1.54,3.98,2.25,6.06,9.04,3.51,18.65,4.33,28.12,4.71,10.71.43,21.13,2.82,31.81,3.39,6.95.37,9.78,3.85,9.65,9.31Z"/>
  <path class="cls-6" d="M704.21,480.41c5.64,2.45,9.93-.94,10.26-8.34.2-4.34.06-8.7.07-13.05.16.15.49.31.47.43-2.09,14.9,10.39,22.01,17.2,32.15,4.09,6.09,8.27,12.13,12.46,18.28-3.15,2.09-3.9-.65-5.11-1.7-7.74-6.69-15.32-13.58-23.08-20.25-2.99-2.57-6.35-4.66-10.64-4.04-.66-1.1-2.04-1.87-1.63-3.48Z"/>
  <path class="cls-21" d="M79.07,337.61c.06.5.12,1,.18,1.5-8.77,1.28-17.29-1.51-26-1.67-3.25-.06-6.45-.06-9.67.27,2.45-3,5.64-2.36,8.95-2.09,8.84.71,17.6,2.64,26.54,1.99Z"/>
  <path class="cls-2" d="M55.48,572.25c-.52.07-1.04.13-1.57.2-6.61-2.3-13.5-2.43-20.39-2.78-3.78-.19-7.89.57-10.94-2.72,9.57.89,19.14,1.81,28.72,2.65,1.92.17,3.38.83,4.18,2.64Z"/>
  <path class="cls-7" d="M779.36,25.32c-.05,10.16-.09,20.31-.14,30.47-2.86-4.41-1.02-9.29-1.27-13.93-.34-6.29-.08-12.61-.08-18.92,1.31.28,1.34,1.36,1.49,2.37Z"/>
  <path class="cls-24" d="M5.29,524.93c.84.15,1.82.08,2.49.49,2.39,1.47,6.89-.77,7.37,2.26.42,2.67-3.34,4.63-5.78,6.4,4.44-5.64-1.5-6.65-4.08-9.16Z"/>
  <path class="cls-2" d="M124.06,578.78c-.02-.35-.09-.68-.2-1.01,6.29-.02,12.58-.05,18.87-.07-6,4.27-12.48.15-18.67,1.08Z"/>
  <path class="cls-21" d="M138.7,344.25c-3.95-5.21.28-10.51-.15-15.76,3.5,5.22-.6,10.51.15,15.76Z"/>
  <path class="cls-24" d="M6.46,504.83c-3.49,4.3-5.73,9.04-5.08,14.76-2.82-6.87-1.41-10.98,5.08-14.76Z"/>
  <path class="cls-21" d="M543.27,54.52c-4.69,2.73-9.74.76-14.62,1.14,4.7-2.62,9.76-.61,14.62-1.14Z"/>
  <path class="cls-24" d="M22.49,503.78c-4.83-.01-9.66-.03-14.5-.04,4.84-2.28,9.67-1.81,14.5.04Z"/>
  <path class="cls-12" d="M809.06,650.43c.72,7.77-1.59,14.9-4.64,21.87-4.95-19.34-9.66-38.75-15.41-58,8.9,12.09,13.11,26.27,17.82,40.23,2.17-.95.78-3.19,2.22-4.1Z"/>
  <path class="cls-5" d="M768.93,336.45c-1.37,0-2.24.04-3.11,0-2.17-.12-5.23-.18-5.41-2.45-.21-2.6,2.89-2.57,4.97-2.82,4.19-.51,7.9-2.33,11.63-4.11,1.33-.63,2.9-1.94,4.1-.35,1.06,1.42-.32,2.93-1.14,4.09-2.79,3.92-6.19,6.83-11.03,5.64Z"/>
  <path class="cls-10" d="M197.87,436.64c1.73-4.19,5.72-2.56,8.67-3.08,8.32-1.46,16.95-1.93,25.07-3.58,11.37-2.3,22.39,2.01,33.49-.64,11.99-2.86,22.05-9.05,31.15-17.56.6,6.3-3.96,13.92-10.6,19.09-7.23,5.62-15.31,9.21-24.23,11.14-5.97,1.29-11.73,3.35-17.89,3.92-6.92.64-9.06,6.88-11.04,11.86-3.36,8.48-6.75,17.05-8.36,26.17-1.13,6.4-7.42,8.47-11.59,11.89-12.4,10.19-24.38,20.58-32.88,34.42-.74,1.2-1.7,2.59-4.29,2.73,1.12-10.62,1.22-21.18,3.27-31.58.81-4.09,1.55-8.13-.27-12.14-2.76-.63-4.08-2.19-3.33-5.1,17.15,2.35,28.1-7.27,37.64-19.54,2.43-3.12,2.8-6.21-.14-9.46-2.22-2.45-4.18-5.5-4.58-8.65-.8-6.29-3.69-9.69-10.1-9.88Z"/>
  <path class="cls-22" d="M175.54,484.5c-5.38-8.6-10.76-17.2-16.15-25.8-2.67-7.52-2.65-7.48,5.67-10.4,10.95-3.85,21.87-7.77,32.81-11.66,6.9-2.58,10.14-.73,10.67,7.16.27,4.08,2.83,8.27,6.27,11.22,2.91,2.5,2.39,4.74.81,8-6.75,13.91-19.87,18.94-32.77,24.44-3.6,1.53-4.88-1.99-7.32-2.96Z"/>
  <path class="cls-23" d="M274.2,582.85c-.05,6.96-.1,13.92-.15,20.87-6.07,3.37-10.89,7.79-12.95,14.75-1.56,5.26-2.45,10.88-6.46,15.38-2.56-2.68-.15-4.84-.2-7.03-.39-15.61,7.59-27.57,16.82-39.03,1.19-1.48,1.97-3.29,2.94-4.94Z"/>
  <path class="cls-1" d="M266.07,564.79c-.29-18.13-3.47-35.86-7.24-53.84,9.4,4.93,13.26,30.21,7.24,53.84Z"/>
  <path class="cls-4" d="M178.22,389.26c5.85-4.81,12.46-8.23,19.62-10.61-5.88,4.75-12.58,7.99-19.62,10.61Z"/>
  <path class="cls-2" d="M121.44,577.45c-8.87.03-9.11.11-9.23,9.17-.06,4.48-.54,6.77-6.27,5.68-8.09-1.55-16.45-.35-24.74-1.22-7.18-.75-14.03-2.56-21.04-3.56-6.56-.94-6.54-4.12-5.67-8.84.39-2.13.68-4.28,1.01-6.43,14.6-.4,28.97,1.97,43.4,3.61,5.17.59,10.45.2,15.67.35,2.34.07,4.84-.6,6.88,1.23Z"/>
  <path class="cls-14" d="M244.93,432.77c-.8,1.88-1.53,4.52-3.74,4.72-2.54.22-3.31-2.51-3.79-4.58-.57-2.43,1.24-2.92,3.16-2.95,1.99-.03,4.07-.12,4.38,2.8Z"/>
</svg>