<?xml version="1.0" encoding="UTF-8"?>
<svg xmlns="http://www.w3.org/2000/svg" version="1.1" viewBox="0 0 1080 1080">
  <defs>
    <style>
      .cls-1 {
        fill: #dee4e6;
      }

      .cls-2 {
        fill: #292828;
      }

      .cls-3 {
        fill: #fbcaa5;
      }

      .cls-4 {
        fill: #eaeceb;
      }

      .cls-5 {
        fill: #d84040;
      }

      .cls-6 {
        fill: #4b5350;
      }

      .cls-7 {
        fill: #f2c09c;
      }

      .cls-8 {
        fill: #626866;
      }

      .cls-9 {
        fill: #606765;
      }

      .cls-10 {
        fill: #848484;
      }

      .cls-11 {
        fill: #ebebe9;
      }

      .cls-12 {
        fill: #928e86;
      }

      .cls-13 {
        fill: #4a504e;
      }

      .cls-14 {
        fill: #1c74b3;
      }

      .cls-15 {
        fill: #1f75b4;
      }

      .cls-16 {
        fill: #dba880;
      }

      .cls-17 {
        fill: #050505;
      }

      .cls-18 {
        fill: #474f4c;
      }

      .cls-19 {
        fill: #f2efe3;
      }

      .cls-20 {
        fill: #4e5552;
      }

      .cls-21 {
        fill: #49514c;
      }

      .cls-22 {
        fill: #282828;
      }

      .cls-23 {
        fill: #1f76b4;
      }

      .cls-24 {
        fill: #efbe9b;
      }

      .cls-25 {
        fill: #daa97e;
      }

      .cls-26 {
        fill: #8e8b82;
      }

      .cls-27 {
        fill: #616966;
      }

      .cls-28 {
        fill: #edbd99;
      }

      .cls-29 {
        fill: #626a67;
      }

      .cls-30 {
        fill: #ddad84;
      }

      .cls-31 {
        fill: #9b9182;
      }

      .cls-32 {
        fill: #edebe8;
      }

      .cls-33 {
        fill: #292929;
      }

      .cls-34 {
        fill: #595c56;
      }

      .cls-35 {
        fill: #616765;
      }

      .cls-36 {
        fill: #070707;
      }

      .cls-37 {
        fill: #fccaa5;
      }

      .cls-38 {
        fill: #1b75b4;
      }

      .cls-39 {
        fill: #4b514e;
      }

      .cls-40 {
        fill: #d84140;
      }

      .cls-41 {
        fill: #535a57;
      }

      .cls-42 {
        fill: #958b7e;
      }
    </style>
  </defs>
  <!-- Generator: Adobe Illustrator 28.7.1, SVG Export Plug-In . SVG Version: 1.2.0 Build 142)  -->
  <g>
    <g id="Layer_1">
      <path class="cls-22" d="M610.3,586c3.4-25.9,5.4-51.9,6.9-78,.9-16.3,4.2-32,8.3-47.6.9-6.5,5.7-7.3,11-7.3,16.1,0,32.3.2,48.4,0,22.6-.4,45.2,1.2,67.7-1.2,5-.5,10.6-1.3,14.2,4.1,10.3,13.2,14.4,29,18.5,44.8,6.8,26.9,14.9,53.6,15,81.8.2,29.9,2,59.7,2.3,89.6,0,6.3-1.2,8.6-8.2,9.7-24,3.8-47.6.5-71.2-2.5-13.4-1.7-13.3-2-13.4-15.5,0-4.9.5-9.8-.8-16.1-3.6,5.7-4.2,10.8-5.9,15.5l-.3.5c-.3,3.8-2.4,7-3.6,10.5-1.1,3.4-3.8,4.4-7.4,5.1-21.8,4.7-44.1,3-66,5.8-5.4.7-10.2-1.7-15.5-1.6-3.1,0-3.5-2.7-3.9-5.4-1.3-8.9-.6-17.9-.5-26.9.2-15.9,2.2-31.7,2.2-47.6,0-6,1.6-11.7,2.2-17.6Z"/>
      <path class="cls-22" d="M610.3,586c3.4-25.9,5.4-51.9,6.9-78,.9-16.3,4.2-32,8.3-47.6.9-6.5,5.7-7.3,11-7.3,16.1,0,32.3.2,48.4,0,22.6-.4,45.2,1.2,67.7-1.2,5-.5,10.6-1.3,14.2,4.1,10.3,13.2,14.4,29,18.5,44.8,6.8,26.9,14.9,53.6,15,81.8.2,29.9,2,59.7,2.3,89.6,0,6.3-1.2,8.6-8.2,9.7-24,3.8-47.6.5-71.2-2.5-13.4-1.7-13.3-2-13.4-15.5,0-4.9.5-9.8-.8-16.1-3.6,5.7-4.2,10.8-5.9,15.5l-.3.5c-.3,3.8-2.4,7-3.6,10.5-1.1,3.4-3.8,4.4-7.4,5.1-21.8,4.7-44.1,3-66,5.8-5.4.7-10.2-1.7-15.5-1.6-3.1,0-3.5-2.7-3.9-5.4-1.3-8.9-.6-17.9-.5-26.9.2-15.9,2.2-31.7,2.2-47.6,0-6,1.6-11.7,2.2-17.6Z"/>
      <path class="cls-22" d="M267.8,654.5c0,6-3.3,11.1-4.7,16.8-.8,3.4-1.6,6.8-6,7.1-23.1,3.1-46.5,2.5-69.7,5-17,1.8-18.8.2-19-16.8-.2-15.7,1.3-31.3.5-47-.1-2.6.7-4.9,1.5-7.2,2.7-7.5,4.6-15.2,5.4-23.2.3-3.2.4-6.6,3.9-8.3,13.3,5.4,27.1,7.3,41.3,5,4.3,0,5.1,3.2,5.3,6.6.4,5.4,1.1,10.8,2.5,16,1.3,5,5.2,6.9,9.8,7.8,3.2.6,5.9,0,7-3.6,6.7-20.4,7.5-41.4,6-62.6-.5-7.1-.9-14.4-3.2-21.3-.4-3.3-1.7-5.6-5.6-5.5-4.3,0-8.6,0-11.1,4.4-1.7,3.1-2.6,6.4-3.4,9.8-.6,2.5-.2,6.2-3.6,6.7-3.6.5-4.7-3.1-6.3-5.5-5.4-7.9-8.6-16.7-11.7-25.7-.8-1.4-1.5-2.9-1.9-4.5-2.5-14.1-5-28.2-7.3-42.4-.6-3.9-1-7.9.9-11.7,4.7-4.2,10.3-2.7,15.6-2.5,31.4,1.5,62.8,4.7,94.3,4.2,4,0,7.9-.4,11.9-1,4.9-.6,9.9-1.2,14.6,1.3,3,2.1,4.4,5.2,5.6,8.5,5,14.5,8.6,29.3,11.9,44.2,0,6,1.4,11.7,3.4,17.3,1,2.9,1.6,6-1,8.3-2.5,2.1-5.1.4-7.6-.6-11.6-5.1-23-4.8-34.1,1.4-24,17.6-17.5,56.1-2.5,71.1,2.6,2.6,5.2,5.3,8,7.8,8.7,6.9,18.1,6.1,27.9,3.1,5.3-1.6,9.7-6,15.7-5.4.7.5,1.1,1.2,1.4,2.1.9,9.3-.7,18.6.9,27.9,1,9.1.6,18.3,1.3,27.4.7,9.3-1.2,11.1-10.4,11.9-17.6,1.6-35-.4-52.5-2.2-6.4-.7-12.9-.2-19.3-.9-2.4-.2-5.1.6-6.7-2,5-3.9,5.8-9.3,5.5-15.2-1.2-29.1,1.2-58.1,3.1-87.2.3-4.7,1.8-9.3,1.5-13.1-2.1,16.2-3.1,33.6-6.8,50.5-3.7,17.1.3,34.2-.9,51.3-.3,3.9.7,8-1.4,11.7-3.5-.2-3.7-.2-3.7-4-.2-8.6.3-17.2-1.1-26.9-1.7,4.4-3.6,7.6-5,11Z"/>
      <path class="cls-22" d="M267.8,654.5c0,6-3.3,11.1-4.7,16.8-.8,3.4-1.6,6.8-6,7.1-23.1,3.1-46.5,2.5-69.7,5-17,1.8-18.8.2-19-16.8-.2-15.7,1.3-31.3.5-47-.1-2.6.7-4.9,1.5-7.2,2.7-7.5,4.6-15.2,5.4-23.2.3-3.2.4-6.6,3.9-8.3,13.3,5.4,27.1,7.3,41.3,5,4.3,0,5.1,3.2,5.3,6.6.4,5.4,1.1,10.8,2.5,16,1.3,5,5.2,6.9,9.8,7.8,3.2.6,5.9,0,7-3.6,6.7-20.4,7.5-41.4,6-62.6-.5-7.1-.9-14.4-3.2-21.3-.4-3.3-1.7-5.6-5.6-5.5-4.3,0-8.6,0-11.1,4.4-1.7,3.1-2.6,6.4-3.4,9.8-.6,2.5-.2,6.2-3.6,6.7-3.6.5-4.7-3.1-6.3-5.5-5.4-7.9-8.6-16.7-11.7-25.7-.8-1.4-1.5-2.9-1.9-4.5-2.5-14.1-5-28.2-7.3-42.4-.6-3.9-1-7.9.9-11.7,4.7-4.2,10.3-2.7,15.6-2.5,31.4,1.5,62.8,4.7,94.3,4.2,4,0,7.9-.4,11.9-1,4.9-.6,9.9-1.2,14.6,1.3,3,2.1,4.4,5.2,5.6,8.5,5,14.5,8.6,29.3,11.9,44.2,0,6,1.4,11.7,3.4,17.3,1,2.9,1.6,6-1,8.3-2.5,2.1-5.1.4-7.6-.6-11.6-5.1-23-4.8-34.1,1.4-24,17.6-17.5,56.1-2.5,71.1,2.6,2.6,5.2,5.3,8,7.8,8.7,6.9,18.1,6.1,27.9,3.1,5.3-1.6,9.7-6,15.7-5.4.7.5,1.1,1.2,1.4,2.1.9,9.3-.7,18.6.9,27.9,1,9.1.6,18.3,1.3,27.4.7,9.3-1.2,11.1-10.4,11.9-17.6,1.6-35-.4-52.5-2.2-6.4-.7-12.9-.2-19.3-.9-2.4-.2-5.1.6-6.7-2,5-3.9,5.8-9.3,5.5-15.2-1.2-29.1,1.2-58.1,3.1-87.2.3-4.7,1.8-9.3,1.5-13.1-2.1,16.2-3.1,33.6-6.8,50.5-3.7,17.1.3,34.2-.9,51.3-.3,3.9.7,8-1.4,11.7-3.5-.2-3.7-.2-3.7-4-.2-8.6.3-17.2-1.1-26.9-1.7,4.4-3.6,7.6-5,11Z"/>
      <path class="cls-14" d="M334.9,458.2c-6.2-1.8-12.3-.4-18.5-.2-22.9.7-45.8-.4-68.7-1.6-16.3-.9-32.6-3.4-49-1.4-3.1.1-2.8-2.4-3-4.2-1.6-15.1-2.9-30.2-6-45-.8-4.1,0-8.4,1-12.6,2.7-11.7,4-23.6,3.2-35.6-.4-6.7,1.6-12.1,5.9-17.1,4.8-5.5,8.4-11.7,11.1-18.5,5.6-13.7,6-27.9,4.8-42.4-1.1-13.1-3.1-26-7.2-38.6-1-3.2-1.4-6.4,2.2-8.5,1.7-.8,3.4-1.7,5.1-2.5,4.6-.4,6.6,2.2,8,6.2,3,8.4,6.6,16.6,10.7,24.6,6.7,13.1,16.3,23.8,27,33.5,10,9,22.3,8.1,33.9,4.7,9.5-2.8,14-13.9,12.8-26.1-1-10.3-4-20-7.5-29.6-1-2.7-3.4-6,1-8.2,3.1,1.2,6.2,2.4,9.3,3.5,2.8,1.6,3.9,4.4,5.2,7.1,7.9,15.8,15,32,22.9,47.8,3.8,7.5,4.4,15.2,3.3,23.2-1.3,9.6-2.4,19.3-4.7,28.7-1.3,5.4-1.2,11-.5,16.4,3.8,29.9-.8,59.7-.3,89.5,0,2.5,0,5-2.3,6.8Z"/>
      <path class="cls-5" d="M334.9,458.2c-6.2-1.8-12.3-.4-18.5-.2-22.9.7-45.8-.4-68.7-1.6-16.3-.9-32.6-3.4-49-1.4-3.1.1-2.8-2.4-3-4.2-1.6-15.1-2.9-30.2-6-45-.8-4.1,0-8.4,1-12.6,2.7-11.7,4-23.6,3.2-35.6-.4-6.7,1.6-12.1,5.9-17.1,4.8-5.5,8.4-11.7,11.1-18.5,5.6-13.7,6-27.9,4.8-42.4-1.1-13.1-3.1-26-7.2-38.6-1-3.2-1.4-6.4,2.2-8.5,1.7-.8,3.4-1.7,5.1-2.5,4.6-.4,6.6,2.2,8,6.2,3,8.4,6.6,16.6,10.7,24.6,6.7,13.1,16.3,23.8,27,33.5,10,9,22.3,8.1,33.9,4.7,9.5-2.8,14-13.9,12.8-26.1-1-10.3-4-20-7.5-29.6-1-2.7-3.4-6,1-8.2,3.1,1.2,6.2,2.4,9.3,3.5,2.8,1.6,3.9,4.4,5.2,7.1,7.9,15.8,15,32,22.9,47.8,3.8,7.5,4.4,15.2,3.3,23.2-1.3,9.6-2.4,19.3-4.7,28.7-1.3,5.4-1.2,11-.5,16.4,3.8,29.9-.8,59.7-.3,89.5,0,2.5,0,5-2.3,6.8Z"/>
      <path class="cls-14" d="M766.7,455.9c-4.4-3.1-9.5-2.3-14.3-1.8-22.3,2.5-44.7.9-67,1.2-16.9.2-33.8.2-50.7,0-4.5,0-7.4,1.3-9.3,5.2.2-9.4-2.8-18.2-5.4-26.9-5.1-17.3-7.3-35.1-8.5-53-.6-8.6-2.6-16.7-6.3-24.4-.4-2.9,0-5.7,2.6-7.3,18.8-11.2,26.7-29.1,31.3-49.3,2.4-5,5.4-6.1,9.3-1.5,3,3.4,7.1,2.8,11,2.8,5.9.6,9.6-2.6,12.5-7.3,1.6-2.6,2.3-6.2,6.3-6.5,2.4.3,4,1.9,5.6,3.4,9.5,8.6,20.7,10.3,32,5.6,11.6-4.9,15.7-15.3,15.2-27.5-.5-12.6-4.1-24.5-8.5-36.1-1.5-4-2.9-8,3.7-8.4l2.6,1.1c3,1.5,4.8,4.2,6.2,7.1,14.8,29.4,27.3,59.4,30.4,92.7.7,7-.7,13.8-.6,20.7-2.6,7.9-3.5,15.9-2.1,24.2,3,18.7,2.6,37.7,3.2,56.6.3,9.8,4.3,19.6.8,29.5Z"/>
      <path class="cls-40" d="M766.7,455.9c-4.4-3.1-9.5-2.3-14.3-1.8-22.3,2.5-44.7.9-67,1.2-16.9.2-33.8.2-50.7,0-4.5,0-7.4,1.3-9.3,5.2.2-9.4-2.8-18.2-5.4-26.9-5.1-17.3-7.3-35.1-8.5-53-.6-8.6-2.6-16.7-6.3-24.4-.4-2.9,0-5.7,2.6-7.3,18.8-11.2,26.7-29.1,31.3-49.3,2.4-5,5.4-6.1,9.3-1.5,3,3.4,7.1,2.8,11,2.8,5.9.6,9.6-2.6,12.5-7.3,1.6-2.6,2.3-6.2,6.3-6.5,2.4.3,4,1.9,5.6,3.4,9.5,8.6,20.7,10.3,32,5.6,11.6-4.9,15.7-15.3,15.2-27.5-.5-12.6-4.1-24.5-8.5-36.1-1.5-4-2.9-8,3.7-8.4l2.6,1.1c3,1.5,4.8,4.2,6.2,7.1,14.8,29.4,27.3,59.4,30.4,92.7.7,7-.7,13.8-.6,20.7-2.6,7.9-3.5,15.9-2.1,24.2,3,18.7,2.6,37.7,3.2,56.6.3,9.8,4.3,19.6.8,29.5Z"/>
      <path class="cls-37" d="M210.9,232.6c-2.5,3.1-.8,5.9.1,9,7.1,24.9,10.6,49.9,4.2,75.6-.5,1.9-.8,3.9-2.5,5.2-1.7,3.9-4.1,4.3-7.5,1.9-5-3.5-9.1-7.7-10.2-14.9-3.2,2.7-2.4,5.3-2,7.8,4.4,27,3.6,53.9-2.2,80.6-.6,2.7-.7,5.4-.1,8.1,4.4,19.2,4.8,38.9,7.6,58.2,2.2,15.1,4.4,30.2,8.4,45,.4,1,.8,2.1,1.2,3.1,2.5,12.4,9.1,22.9,15.3,33.6,3.5,12.3,2.1,24.6-.4,36.8-.6,3.1-3.4,5-6.6,5.1-9.9,0-19.8.2-29.2-3.1-5-1.8-7.3-6.2-7.9-11.6-.8-7.7-.7-15.3.1-23,0-.8.2-1.5.4-2.2,2.1-4.8,3.9-9.7,2.1-15-.3,0-.5-.2-.7-.3-.5-.1-.9-.4-1.1-.9,2.4-12-5.2-21.3-8.8-31.5-7.1-20.4-15.7-40.4-19-61.7-2.4-15.6-3.9-31.5-6-47.1-4-29.4-4.4-59-4.7-88.4-.4-37.2,8.8-53.6,48.4-64.1,7.1-1.9,14.4-3.1,21.2-6Z"/>
      <path class="cls-37" d="M210.9,232.6c-2.5,3.1-.8,5.9.1,9,7.1,24.9,10.6,49.9,4.2,75.6-.5,1.9-.8,3.9-2.5,5.2-1.7,3.9-4.1,4.3-7.5,1.9-5-3.5-9.1-7.7-10.2-14.9-3.2,2.7-2.4,5.3-2,7.8,4.4,27,3.6,53.9-2.2,80.6-.6,2.7-.7,5.4-.1,8.1,4.4,19.2,4.8,38.9,7.6,58.2,2.2,15.1,4.4,30.2,8.4,45,.4,1,.8,2.1,1.2,3.1,2.5,12.4,9.1,22.9,15.3,33.6,3.5,12.3,2.1,24.6-.4,36.8-.6,3.1-3.4,5-6.6,5.1-9.9,0-19.8.2-29.2-3.1-5-1.8-7.3-6.2-7.9-11.6-.8-7.7-.7-15.3.1-23,0-.8.2-1.5.4-2.2,2.1-4.8,3.9-9.7,2.1-15-.3,0-.5-.2-.7-.3-.5-.1-.9-.4-1.1-.9,2.4-12-5.2-21.3-8.8-31.5-7.1-20.4-15.7-40.4-19-61.7-2.4-15.6-3.9-31.5-6-47.1-4-29.4-4.4-59-4.7-88.4-.4-37.2,8.8-53.6,48.4-64.1,7.1-1.9,14.4-3.1,21.2-6Z"/>
      <path class="cls-37" d="M302,235.1c-2.5,2.8-.2,5.2.7,7.5,5,13.1,9.5,26.2,7.2,40.6-1.8,11.5-10.1,18.5-21.6,20-19.7,2.5-31.3-8.9-42.6-22.3-11.3-13.4-18.1-28.9-23.6-45.1-1.1-3.3-2.9-5-6-5.6,14.2-4.3,19.9-28.1,13.2-41.1,2.9-2.9,3.4-5.5-.2-8.7-5.3-4.8-8.7-10.9-9.3-18.2-.3-3.7-.4-7.8,3.7-9.8,4.1-2,7.7-.3,10.8,2.7,1.4,1.3,2.3,3.3,5.1,4.2,2.3-3.8,2.4-8.2,2.6-12.5.6-13.5,9.8-22.6,23.4-22.4,12.4.2,24.9-1.2,37.2,1,4,.7,5.1-1.3,4.7-4.5-.7-7.1-3.1-13.5-8.8-18.3-2-1.6-5.1-2.4-5.1-5.9,6.4-.4,10.2,3.7,13,8.3,5.4,8.6,6.7,18.1,3,27.8-1,2.7-1.3,5.3-1,8,3.3,25,.9,49.4-8.2,73-1.6,4.1-3.2,8.3-8.2,10-4,1.3-3.7,3.7-.4,5.7,3.4,2,6.9,3.8,10.3,5.7Z"/>
      <path class="cls-37" d="M302,235.1c-2.5,2.8-.2,5.2.7,7.5,5,13.1,9.5,26.2,7.2,40.6-1.8,11.5-10.1,18.5-21.6,20-19.7,2.5-31.3-8.9-42.6-22.3-11.3-13.4-18.1-28.9-23.6-45.1-1.1-3.3-2.9-5-6-5.6,14.2-4.3,19.9-28.1,13.2-41.1,2.9-2.9,3.4-5.5-.2-8.7-5.3-4.8-8.7-10.9-9.3-18.2-.3-3.7-.4-7.8,3.7-9.8,4.1-2,7.7-.3,10.8,2.7,1.4,1.3,2.3,3.3,5.1,4.2,2.3-3.8,2.4-8.2,2.6-12.5.6-13.5,9.8-22.6,23.4-22.4,12.4.2,24.9-1.2,37.2,1,4,.7,5.1-1.3,4.7-4.5-.7-7.1-3.1-13.5-8.8-18.3-2-1.6-5.1-2.4-5.1-5.9,6.4-.4,10.2,3.7,13,8.3,5.4,8.6,6.7,18.1,3,27.8-1,2.7-1.3,5.3-1,8,3.3,25,.9,49.4-8.2,73-1.6,4.1-3.2,8.3-8.2,10-4,1.3-3.7,3.7-.4,5.7,3.4,2,6.9,3.8,10.3,5.7Z"/>
      <path class="cls-37" d="M613.3,682.7c26.3-1.1,52.6-2.1,78.8-4.6,3.5-.3,5.3-2.1,6.5-5.1,1.3-3.2,2.7-6.2,4.1-9.4-.5,11.2-3.2,14.6-13.3,16.6-4.4.9-6.3,3.2-7.7,7.6-4.5,14.2-2.8,30-9.9,43.3-5.3,9.9-4.9,20-4.6,30.3.5,21.4-.7,42.6-4.7,63.6-4.9,18.4-7.2,37.3-10.9,55.9-.2,1-.2,2-.3,3-.9,14.2-2.6,15.9-16.8,16.6-1,0,.3,0-.7,0-14.4.6-15.6-.3-17.2-14.7-1-8.8-2.2-17.6-3.3-26.4-.1-17.4-4.3-34.4-5.2-51.9-1-21.3-.7-42.5,6.4-62.5,6.9-19.3,3.9-38.2,1.6-57.4-.2-1.7-.9-3.2-2.6-3"/>
      <path class="cls-37" d="M613.3,682.7c26.3-1.1,52.6-2.1,78.8-4.6"/>
      <path class="cls-37" d="M259,676.9c2.7-1,2.2-4.2,4.2-5.7.7,6.1-2.4,8.6-8.2,8.8-5.7.3-8.4,2.3-10.1,9-4.3,16.9-6.2,34.7-14.8,50.4-1.3,2.4-1.2,4.8-1.1,7.3,2.2,39.1-2.9,77.3-12.6,115.1-.8,3.2-.9,6.4-1,9.6-.6,6.6-2.5,13.1-2.2,19.7.2,5.1-2.4,8.1-7.2,8.9-6.6,1.1-13.4.9-20.1.2-3.7-.4-5-2.7-5.8-6.5-2.5-10.8-2.6-22-5-32.8,0-17.7-4.3-34.9-5-52.6-1-23-.3-45.7,7.5-67.5,6.4-18,2.3-35.9.3-53.8-.6-5-6.5-.9-8.6-3.9,9.4-2,19-.9,28.6-1.6,20.4-1.5,40.8-1.4,61.1-4.6Z"/>
      <path class="cls-37" d="M259,676.9c2.7-1,2.2-4.2,4.2-5.7.7,6.1-2.4,8.6-8.2,8.8-5.7.3-8.4,2.3-10.1,9-4.3,16.9-6.2,34.7-14.8,50.4-1.3,2.4-1.2,4.8-1.1,7.3,2.2,39.1-2.9,77.3-12.6,115.1-.8,3.2-.9,6.4-1,9.6-.6,6.6-2.5,13.1-2.2,19.7.2,5.1-2.4,8.1-7.2,8.9-6.6,1.1-13.4.9-20.1.2-3.7-.4-5-2.7-5.8-6.5-2.5-10.8-2.6-22-5-32.8,0-17.7-4.3-34.9-5-52.6-1-23-.3-45.7,7.5-67.5,6.4-18,2.3-35.9.3-53.8-.6-5-6.5-.9-8.6-3.9,9.4-2,19-.9,28.6-1.6,20.4-1.5,40.8-1.4,61.1-4.6Z"/>
      <path class="cls-37" d="M366.5,666.8c3.7,11.7,2.2,14.5-9.4,16-3.2.4-3.9,2-4.5,4.7-2.3,10.2-2.4,20.6-4.2,30.8-2.8,15.4,1.9,30.5,1.7,45.8-.2,17.3.4,34.7-1.6,52-2.6,21-2.3,42-2.2,63.1,0,12.6-1.3,13.9-14.1,14-5.2,0-10.4.3-15.6-.3-4.9-.6-7.3-3.2-7.6-8.4-1.2-18.8-4.9-37.3-9.4-55.5-1.5-6.2-.9-12.8-3.2-18.9-1-6.3-1.6-12.8-3.1-19-3.2-12.9-.8-25.8.5-38.5,1.3-13,0-25.2-3.4-37.4-2.6-9.5-1.3-19.2-2.3-28.8-.6-5.6-2.2-6.8-7-6.4-1.9.1-4,.6-5.6-1.2,11.6-2.5,23.1-.1,34.6.6,16.1,1.1,32.2,2.1,48.3,1.4,4.8-.2,6.6-2.4,6.7-6.9,0-2.4-.6-5,1.5-7.1Z"/>
      <path class="cls-37" d="M366.5,666.8c3.7,11.7,2.2,14.5-9.4,16-3.2.4-3.9,2-4.5,4.7-2.3,10.2-2.4,20.6-4.2,30.8-2.8,15.4,1.9,30.5,1.7,45.8-.2,17.3.4,34.7-1.6,52-2.6,21-2.3,42-2.2,63.1,0,12.6-1.3,13.9-14.1,14-5.2,0-10.4.3-15.6-.3-4.9-.6-7.3-3.2-7.6-8.4-1.2-18.8-4.9-37.3-9.4-55.5-1.5-6.2-.9-12.8-3.2-18.9-1-6.3-1.6-12.8-3.1-19-3.2-12.9-.8-25.8.5-38.5,1.3-13,0-25.2-3.4-37.4-2.6-9.5-1.3-19.2-2.3-28.8-.6-5.6-2.2-6.8-7-6.4-1.9.1-4,.6-5.6-1.2,11.6-2.5,23.1-.1,34.6.6,16.1,1.1,32.2,2.1,48.3,1.4,4.8-.2,6.6-2.4,6.7-6.9,0-2.4-.6-5,1.5-7.1Z"/>
      <path class="cls-37" d="M726.2,224c-4.8,1.1-3.6,3.9-2.3,7.2,5.2,12.9,9.2,26.2,8.9,40.4-.3,12.2-5.1,22.1-16.8,26.6-11.9,4.6-23.4,3.1-33.3-5.8-1.8-1.6-3.2-3.9-5.8-4.5-3.2-2.3-2.7-5.5-2.3-8.8,2.3-19.7-.8-38.6-7.7-57-2-5.3-5-9.7-9.6-13-2.7-2.5-7-.6-9.5-3.6.8-1.1,2-1.3,3.2-1.4,7.6-.8,9.2-4.8,5.3-11.6-1.8-3.1-5.5-5.1-5.6-9.2,2.4-1,4,1.9,6.4,1.1.2-3-2.6-3.9-4-5.7-4-4.9-7.1-10.2-7.5-16.7-.2-3.8-.1-7.8,4-9.6,4.3-1.9,8.3-.9,11.5,2.7,1,1.1,1.3,2.8,3.4,3.1,1.7-4.2,1.7-8.6,1.9-13,.5-10.8,10.5-21,21.3-20.8,13.6.2,27.3-1.7,40.9,1.4,4.3,1,3.2-2.6,3.4-4.8.4-4.6-3.3-9-.8-13.8,6.7,6.7,5.3,15.1,3.7,22.8-1,4.7-1.4,8.8-1.1,13.6,1.7,25.4.7,50.6-11.1,74-2.4,4.7,1.2,4.8,3.3,6.5Z"/>
      <path class="cls-37" d="M726.2,224c-4.8,1.1-3.6,3.9-2.3,7.2,5.2,12.9,9.2,26.2,8.9,40.4-.3,12.2-5.1,22.1-16.8,26.6-11.9,4.6-23.4,3.1-33.3-5.8-1.8-1.6-3.2-3.9-5.8-4.5-3.2-2.3-2.7-5.5-2.3-8.8,2.3-19.7-.8-38.6-7.7-57-2-5.3-5-9.7-9.6-13-2.7-2.5-7-.6-9.5-3.6.8-1.1,2-1.3,3.2-1.4,7.6-.8,9.2-4.8,5.3-11.6-1.8-3.1-5.5-5.1-5.6-9.2,2.4-1,4,1.9,6.4,1.1.2-3-2.6-3.9-4-5.7-4-4.9-7.1-10.2-7.5-16.7-.2-3.8-.1-7.8,4-9.6,4.3-1.9,8.3-.9,11.5,2.7,1,1.1,1.3,2.8,3.4,3.1,1.7-4.2,1.7-8.6,1.9-13,.5-10.8,10.5-21,21.3-20.8,13.6.2,27.3-1.7,40.9,1.4,4.3,1,3.2-2.6,3.4-4.8.4-4.6-3.3-9-.8-13.8,6.7,6.7,5.3,15.1,3.7,22.8-1,4.7-1.4,8.8-1.1,13.6,1.7,25.4.7,50.6-11.1,74-2.4,4.7,1.2,4.8,3.3,6.5Z"/>
      <path class="cls-37" d="M334.9,458.2c-.2-32.1,4.1-64.1.5-96.1-1.7-15,4.1-28.9,5-43.5.6-9.1.6-17.4-3.7-26-9-17.7-16.9-35.9-25.3-53.9,13.2,3.5,25.9,8.3,36.9,16.7,14.8,11.4,18.4,28,19.6,45,2.1,28.7,5.2,57.3,5.4,86.2.1,17,1.4,34.6,4.7,51.7,2.6,13.5,1.4,27.1,0,40.7-1.4,14-2.5,28.2.5,42.2,1.1,5.2.6,10.4.7,15.6.1,8.4-.4,16.9,2.4,25.2,1.4,4.2,1.1,8.9-.2,13.3-.7,2.5-2.3,4.6-5.1,4.8-3.4.3-3.9-2.6-4.5-5-1.6-6.8-2.6-13.7-5.6-20.1-2.5-5.5-5.4-10.6-9.4-15.2-1.3-10.4-4.7-20.4-6.7-30.6-4.6-17.2-7.3-34.9-15.3-51.1Z"/>
      <path class="cls-37" d="M334.9,458.2c-.2-32.1,4.1-64.1.5-96.1-1.7-15,4.1-28.9,5-43.5.6-9.1.6-17.4-3.7-26-9-17.7-16.9-35.9-25.3-53.9,13.2,3.5,25.9,8.3,36.9,16.7,14.8,11.4,18.4,28,19.6,45,2.1,28.7,5.2,57.3,5.4,86.2.1,17,1.4,34.6,4.7,51.7,2.6,13.5,1.4,27.1,0,40.7-1.4,14-2.5,28.2.5,42.2,1.1,5.2.6,10.4.7,15.6.1,8.4-.4,16.9,2.4,25.2,1.4,4.2,1.1,8.9-.2,13.3-.7,2.5-2.3,4.6-5.1,4.8-3.4.3-3.9-2.6-4.5-5-1.6-6.8-2.6-13.7-5.6-20.1-2.5-5.5-5.4-10.6-9.4-15.2-1.3-10.4-4.7-20.4-6.7-30.6-4.6-17.2-7.3-34.9-15.3-51.1Z"/>
      <path class="cls-37" d="M794,682.9c-3.6-.3-5.3,1.5-5.7,5.3-1.3,14.3-3.6,28.6-4.1,42.9-.3,10.3,2.1,20.7,2.5,31.1,1.2,28.6-1.7,57-4.1,85.5-1.1,13.4-.3,26.9-.3,40.3-1,2.9-3.1,4.5-6.1,4.7-7.6.6-15.3.8-23,.5-6-.2-6.8-4.7-7.5-9.2-.5-3.1.7-6.4-.8-9.5-1.8-18.3-6.4-36-9.7-54-2.6-14.1-6.3-28.1-6.6-42.5-.2-8.4.4-16.9,1.4-25.2,2.6-23-6.6-45.1-4.8-68.1.4-4.7-3.4-5-6.8-4.7"/>
      <path class="cls-37" d="M495.1,220.6c-5.4-9.2-8.7-19.3-12.8-29.1-5-11.9,3.4-25.4,16.6-26.2,11.2-.6,22.5-1,33.6,0,10.9,1,18.3,9.3,26,16.2,19.5,17.3,41.4,31.4,63,46,2.8,1.9,5.9,3.9,9.6,3.5,2.8,3.3,6.9,5.5,8.5,9.9-.5,3.8-3.4,5-6.4,4.8-5.1-.3-6.3,2.6-6.9,6.7-.5,3.7-.3,7.4-.6,11.1-.2,2.8-.6,6.2-3.8,6.3-3.9.1-4-3.6-4.4-6.6-.6-5,.8-10.3-1.4-15.4-5.4,2.6-1.5,9.7-6.8,11.7-3.5-3.8-2.5-8.8-3.8-13.2-2.6-9.2-3.7-18.9-10.4-26.6-1.8-2.1-3.3-4.3-6.4-4.5-2.7-.2-5.5,0-8.2-.2-6.8-.4-11.2,2.5-14.2,8.6-3.4,7.1-5.4,7.8-13,5.5-3.1-.9-6.1-2.1-9.4-2-13.4.6-26.1-2.2-38.4-7.2-3.5-1.4-7.1-2.6-10.3.7Z"/>
      <path class="cls-37" d="M495.1,220.6c-5.4-9.2-8.7-19.3-12.8-29.1-5-11.9,3.4-25.4,16.6-26.2,11.2-.6,22.5-1,33.6,0,10.9,1,18.3,9.3,26,16.2,19.5,17.3,41.4,31.4,63,46,2.8,1.9,5.9,3.9,9.6,3.5,2.8,3.3,6.9,5.5,8.5,9.9-.5,3.8-3.4,5-6.4,4.8-5.1-.3-6.3,2.6-6.9,6.7-.5,3.7-.3,7.4-.6,11.1-.2,2.8-.6,6.2-3.8,6.3-3.9.1-4-3.6-4.4-6.6-.6-5,.8-10.3-1.4-15.4-5.4,2.6-1.5,9.7-6.8,11.7-3.5-3.8-2.5-8.8-3.8-13.2-2.6-9.2-3.7-18.9-10.4-26.6-1.8-2.1-3.3-4.3-6.4-4.5-2.7-.2-5.5,0-8.2-.2-6.8-.4-11.2,2.5-14.2,8.6-3.4,7.1-5.4,7.8-13,5.5-3.1-.9-6.1-2.1-9.4-2-13.4.6-26.1-2.2-38.4-7.2-3.5-1.4-7.1-2.6-10.3.7Z"/>
      <path class="cls-24" d="M764.8,345.6c-.6-43.6-15-83.1-36-120.5,6.3-2,11.5-5.5,16.5-9.7,9.9-8.3,21.2-12.1,34.4-11.4,8.8.4,17.9,2.1,26.5-1.3,7.2-3.7,14.4-7.3,22.3-9,1-.5,2-1.1,3.1-1.6,5.8,0,7.3,1.8,4.9,7.4-3.5,8.1-9.2,14.8-16.1,20.2-6.8,5.4-13.8,10.7-20.9,15.6-3.3,2.3-6.4,4.8-9.2,7.6-5.5,5.4-5.8,11-.6,17,1.5,1.8,3.1,3.5,4.1,5.6-.3-1,.2.3,0-.7-1.3-4.6-3.4-10.7,1.4-12.8,5.5-2.3,5.8,5.2,9.2,8.8-1.2-4.9-2.2-9.3-.3-13.6.7-1.6,1.7-3.2,3.7-3.1,2.2,0,2.8,2,3,3.7.6,6.4,3.3,11.9,6.2,17.4,3.7,7.1,3,8.6-4.7,10.8h0c-1.4.9-2.9,2.4-4.6,1.6-4.6-2.1-5.9.9-7.4,4.2-3.4,1.1-6.1,0-8.4-2.7-1.4-1.5-2.8-4.4-5-3.6-2.7,1.1-1,4.3-1.3,6.6-.3,2.4-.4,4.8-.5,7.3-4.8-1.9-3.3-6.2-3.3-9.6-.2-16.2-1.2-32.4-3.3-48.4-.2-1.7-.5-3.5-1-5.1-.7-2.6-1-5.8-4.8-5.5-4,.4-4.7,3.7-4.2,6.7,1.3,9.2.4,18.5,1.4,27.6,1.8,15.3,0,31,3.9,46.1.4,1.4.4,3,.7,4.4.6,2.6,2.3,3.7,4.9,3.5,2.5-.2,3.1-2.1,3.5-4.1.8-4-.9-8.6,2.4-12.1,2.7,5.6,1.5,11.6,1.1,17.3-.2,3.5-3.6,3.7-6.4,3.5-5.2-.3-7.6,1.7-9.2,7.1-2.5,8.3-3.9,16.7-6,25Z"/>
      <path class="cls-24" d="M764.8,345.6c-.6-43.6-15-83.1-36-120.5,6.3-2,11.5-5.5,16.5-9.7,9.9-8.3,21.2-12.1,34.4-11.4,8.8.4,17.9,2.1,26.5-1.3,7.2-3.7,14.4-7.3,22.3-9,1-.5,2-1.1,3.1-1.6,5.8,0,7.3,1.8,4.9,7.4-3.5,8.1-9.2,14.8-16.1,20.2-6.8,5.4-13.8,10.7-20.9,15.6-3.3,2.3-6.4,4.8-9.2,7.6-5.5,5.4-5.8,11-.6,17,1.5,1.8,3.1,3.5,4.1,5.6-.3-1,.2.3,0-.7-1.3-4.6-3.4-10.7,1.4-12.8,5.5-2.3,5.8,5.2,9.2,8.8-1.2-4.9-2.2-9.3-.3-13.6.7-1.6,1.7-3.2,3.7-3.1,2.2,0,2.8,2,3,3.7.6,6.4,3.3,11.9,6.2,17.4,3.7,7.1,3,8.6-4.7,10.8h0c-1.4.9-2.9,2.4-4.6,1.6-4.6-2.1-5.9.9-7.4,4.2-3.4,1.1-6.1,0-8.4-2.7-1.4-1.5-2.8-4.4-5-3.6-2.7,1.1-1,4.3-1.3,6.6-.3,2.4-.4,4.8-.5,7.3-4.8-1.9-3.3-6.2-3.3-9.6-.2-16.2-1.2-32.4-3.3-48.4-.2-1.7-.5-3.5-1-5.1-.7-2.6-1-5.8-4.8-5.5-4,.4-4.7,3.7-4.2,6.7,1.3,9.2.4,18.5,1.4,27.6,1.8,15.3,0,31,3.9,46.1.4,1.4.4,3,.7,4.4.6,2.6,2.3,3.7,4.9,3.5,2.5-.2,3.1-2.1,3.5-4.1.8-4-.9-8.6,2.4-12.1,2.7,5.6,1.5,11.6,1.1,17.3-.2,3.5-3.6,3.7-6.4,3.5-5.2-.3-7.6,1.7-9.2,7.1-2.5,8.3-3.9,16.7-6,25Z"/>
      <path class="cls-3" d="M812.2,275.9c5.6-2.2,6.6-5.5,3-10.5-4.3-5.9-6.3-12.7-7.3-20.1-4.3,4.3-3.8,9.2-1.6,14.3.7,1.7,2.5,3.9,0,5.2-2.5,1.4-3.2-1.4-4.2-3-.3-.4-.3-1-.7-1.3-2.1-2.5-2.5-8.9-5.7-7.2-3.5,1.8-1.6,7.4-.4,11.4.6,2,3.4,3.1,2.5,5.8-7.1-3.2-15.3-15.4-13.9-22.2,1.4-6.4,7.6-9.3,12.3-13.1,11.9-9.5,26-16.6,34.7-29.8,1.6-2.5,3.2-5,4.4-7.7,1.6-3.6.5-5.8-3.8-5.7,3.8-1.7,7.3-3.6,10.5-6.5,5.3-4.6,11.3-7.7,19.1-5.7,7.7,2,15.6,2.9,23.3,4.8,16,4.1,20.8,21.2,10.1,33.6-7.1,8.3-14.8,15.5-25.5,18.5-5,1.4-6.9,4.2-6.5,9-.9.4-1.5.2-2-.6-.4-.7-.7-1.4-.8-2.2-.4-8.7-1.4-17.3-3.1-25.8-.7-3.7-2.1-6.7-6.7-6.5-4.7.2-5.3,3.9-5.8,7.4-.8,6.4.7,12.9-1,19.3-.5.9-1.1,1.5-2.2,1.7-2.3.4-5.5-.4-6,2.9-.4,2.8,3.6,2.1,4.3,4.3-7.3,7.3-7.4,11.3-.5,19.4-7.1,1.8-11.9,8.3-19.6,9.1-2.4.2-4.7,1.2-7.2,1.1Z"/>
      <path class="cls-3" d="M812.2,275.9c5.6-2.2,6.6-5.5,3-10.5-4.3-5.9-6.3-12.7-7.3-20.1-4.3,4.3-3.8,9.2-1.6,14.3.7,1.7,2.5,3.9,0,5.2-2.5,1.4-3.2-1.4-4.2-3-.3-.4-.3-1-.7-1.3-2.1-2.5-2.5-8.9-5.7-7.2-3.5,1.8-1.6,7.4-.4,11.4.6,2,3.4,3.1,2.5,5.8-7.1-3.2-15.3-15.4-13.9-22.2,1.4-6.4,7.6-9.3,12.3-13.1,11.9-9.5,26-16.6,34.7-29.8,1.6-2.5,3.2-5,4.4-7.7,1.6-3.6.5-5.8-3.8-5.7,3.8-1.7,7.3-3.6,10.5-6.5,5.3-4.6,11.3-7.7,19.1-5.7,7.7,2,15.6,2.9,23.3,4.8,16,4.1,20.8,21.2,10.1,33.6-7.1,8.3-14.8,15.5-25.5,18.5-5,1.4-6.9,4.2-6.5,9-.9.4-1.5.2-2-.6-.4-.7-.7-1.4-.8-2.2-.4-8.7-1.4-17.3-3.1-25.8-.7-3.7-2.1-6.7-6.7-6.5-4.7.2-5.3,3.9-5.8,7.4-.8,6.4.7,12.9-1,19.3-.5.9-1.1,1.5-2.2,1.7-2.3.4-5.5-.4-6,2.9-.4,2.8,3.6,2.1,4.3,4.3-7.3,7.3-7.4,11.3-.5,19.4-7.1,1.8-11.9,8.3-19.6,9.1-2.4.2-4.7,1.2-7.2,1.1Z"/>
      <path class="cls-23" d="M375.3,943.6c4.3,7,10.5,12.5,14.1,20,6.4,13.2,2.6,20.9-11.7,23.5-12.4,2.3-23.5-1.2-34.4-6.5-3.8-1.8-7.4-3.9-11.1-5.9-7.7-2.7-15.1-6.2-22.7-9.2-5-2-7.3-5-6.6-10.9,1.2-10.1,1.6-20.3,2.4-30.5.2-2.6,1.2-4.7,2.5-6.9,2.1-3.5,3.8-3.9,6.7-.5,5.2,6,6.8,5.6,10-1.8,3.9-8.9,20.1-13.3,27.5-7.5.6.5,1.4,1,1.4,1.7.6,14.9,13.9,21.7,20.9,32.4.4.6.8,1.3,1.1,2Z"/>
      <path class="cls-40" d="M375.3,943.6c4.3,7,10.5,12.5,14.1,20,6.4,13.2,2.6,20.9-11.7,23.5-12.4,2.3-23.5-1.2-34.4-6.5-3.8-1.8-7.4-3.9-11.1-5.9-7.7-2.7-15.1-6.2-22.7-9.2-5-2-7.3-5-6.6-10.9,1.2-10.1,1.6-20.3,2.4-30.5.2-2.6,1.2-4.7,2.5-6.9,2.1-3.5,3.8-3.9,6.7-.5,5.2,6,6.8,5.6,10-1.8,3.9-8.9,20.1-13.3,27.5-7.5.6.5,1.4,1,1.4,1.7.6,14.9,13.9,21.7,20.9,32.4.4.6.8,1.3,1.1,2Z"/>
      <path class="cls-14" d="M807.5,939.1l2.7,2.9c7.7,7.8,14.9,15.9,18.4,26.6,3,9.2-.2,15.8-9.7,18.1-12.7,3.1-25,1.9-36.6-4.6-4.4-2.5-8.8-5-13.3-7.5-8.1-3-16-6.5-24-9.9-4.3-1.8-5.9-4.4-5.5-9.2,1-10.3,1.4-20.8,2.4-31.1.3-2.8,1.2-5.3,2.6-7.7,1.9-3,3.8-3.2,6.4-.4,6,6.6,7.1,6.3,10.6-2.2,3.5-8.3,20.4-12.2,27.1-6.1.7.7,1.5,1.5,1.6,2.5.9,11.7,10.5,18,16.4,26.6.4.6.7,1.3,1,2Z"/>
      <path class="cls-40" d="M807.5,939.1l2.7,2.9c7.7,7.8,14.9,15.9,18.4,26.6,3,9.2-.2,15.8-9.7,18.1-12.7,3.1-25,1.9-36.6-4.6-4.4-2.5-8.8-5-13.3-7.5-8.1-3-16-6.5-24-9.9-4.3-1.8-5.9-4.4-5.5-9.2,1-10.3,1.4-20.8,2.4-31.1.3-2.8,1.2-5.3,2.6-7.7,1.9-3,3.8-3.2,6.4-.4,6,6.6,7.1,6.3,10.6-2.2,3.5-8.3,20.4-12.2,27.1-6.1.7.7,1.5,1.5,1.6,2.5.9,11.7,10.5,18,16.4,26.6.4.6.7,1.3,1,2Z"/>
      <path class="cls-38" d="M665.6,961.3c1.6,4.1,3,8.4,5.8,12,3.3,6.1,5.7,12.6,7.8,19.1,1.7,5.2,0,8.3-5.4,10.2-19.7,7-45.5.6-59-15.3-4.1-4.8-6.2-10.3-5.4-17.1,1.2-10.1,3.1-20.1,5-30.1.8-4,2.6-7,6.9-7.7,4.4-.8,5.8-4,7-7.8,3.4-10.4,6.6-12.7,17.3-12.8,5.2,0,9.6,3.2,9.5,8.4-.5,14.8,3.8,28.3,10.6,41.2Z"/>
      <path class="cls-40" d="M665.6,961.3c1.6,4.1,3,8.4,5.8,12,3.3,6.1,5.7,12.6,7.8,19.1,1.7,5.2,0,8.3-5.4,10.2-19.7,7-45.5.6-59-15.3-4.1-4.8-6.2-10.3-5.4-17.1,1.2-10.1,3.1-20.1,5-30.1.8-4,2.6-7,6.9-7.7,4.4-.8,5.8-4,7-7.8,3.4-10.4,6.6-12.7,17.3-12.8,5.2,0,9.6,3.2,9.5,8.4-.5,14.8,3.8,28.3,10.6,41.2Z"/>
      <path class="cls-2" d="M293.3,96.6c11.7,5.6,16.6,15.1,15.7,27.8-.2,3.4-.6,7.3-5.6,3.4-2.2-1.7-4.8-1.2-7.2-1.2-10.2-.1-20.4-.2-30.6-.2-14.2,0-22.2,8.1-22.3,22.4,0,1.7.1,3.5-.2,5.2-.7,3.2.6,7.6-3.7,9-4.7,1.4-3-4-5.2-5.7-2.9-2.4-5.2-5.8-9.5-4.2-4.4,1.6-3.5,5.7-3.2,9,.6,7.9,4.7,14,11,18.7,1.5,1.2,3.8,1.9,2.7,4.6-1.1,2.6-2.3,5.1-6,3.7-14.2-16.9-19.2-36.6-17.2-58.4.7-7.6,3.5-13.9,10.6-17.6,4.7-2.5,6-8.7,11.3-10.5,19.4-6.4,38.7-13.3,59.4-6Z"/>
      <path class="cls-2" d="M296.2,96.6c12.1,5.6,17.2,15.1,16.3,27.8-.2,3.4-.6,7.3-5.8,3.4-2.2-1.7-4.9-1.2-7.5-1.2-10.6-.1-21.1-.2-31.7-.2-14.7,0-23,8.1-23,22.4,0,1.7.1,3.5-.2,5.2-.7,3.2.6,7.6-3.9,9-4.8,1.4-3.1-4-5.3-5.7-3-2.4-5.4-5.8-9.9-4.2-4.5,1.6-3.6,5.7-3.4,9,.7,7.9,4.9,14,11.3,18.7,1.6,1.2,3.9,1.9,2.7,4.6-1.2,2.6-2.4,5.1-6.2,3.7-14.7-16.9-19.8-36.6-17.8-58.4.7-7.6,3.6-13.9,11-17.6,4.9-2.5,6.3-8.7,11.7-10.5,20-6.4,40.1-13.3,61.5-6Z"/>
      <path class="cls-33" d="M731.5,107.1c1.6,6.2,3.5,12.4,2.6,19-.3,2.4-1,5.2-4,2.7-3.8-3-8.1-2.1-12.2-2.2-10.2-.2-20.4-.2-30.6-.1-9.9,0-19,9.7-19.2,19.6,0,4.7-.7,9.4-1.1,14.1-.1,1.4-.2,3.2-2.2,3.2-1.5,0-2-1.3-2.5-2.4-2.2-5.1-5.4-10.5-11.4-7.4-6,3.2-3.2,9.6-1.5,14.7,1.5,4.6,4.1,8.6,8.1,11.4,3.3,2.3,5.9,4.7,2.3,8.2-3.8,3.7-4.5-1.6-6.6-3-.8-.5-1.6-1.1-2.3-1.7-8.9-13.4-13.1-28.2-13.2-44.3,0-11.2,3.9-19.1,12.5-27.6,10-9.8,21.5-12.7,33.4-16.1,11.5-3.2,23.1-2.4,34.5,1.2,5.7,1.6,9.9,5.2,13,10.1l.3.4Z"/>
      <path class="cls-33" d="M733.6,107.1c1.7,6.2,3.6,12.4,2.7,19-.3,2.4-1,5.2-4.1,2.7-3.9-3-8.2-2.1-12.4-2.2-10.4-.2-20.9-.2-31.3-.1-10.1,0-19.4,9.7-19.6,19.6,0,4.7-.7,9.4-1.1,14.1-.1,1.4-.2,3.2-2.3,3.2-1.5,0-2-1.3-2.5-2.4-2.2-5.1-5.6-10.5-11.7-7.4-6.1,3.2-3.3,9.6-1.5,14.7,1.6,4.6,4.2,8.6,8.3,11.4,3.3,2.3,6.1,4.7,2.4,8.2-3.9,3.7-4.6-1.6-6.7-3-.8-.5-1.6-1.1-2.4-1.7-9.1-13.4-13.4-28.2-13.5-44.3,0-11.2,4-19.1,12.8-27.6,10.2-9.8,22-12.7,34.2-16.1,11.7-3.2,23.6-2.4,35.3,1.2,5.8,1.6,10.1,5.2,13.3,10.1l.3.4Z"/>
      <path class="cls-7" d="M609,259.2c2.5-3.1.6-7.3,2.6-10.6,1.1-1.8.9-5.2,3.6-4.8,3,.4,4,3.3,4,6.3,0,4.7,0,9.5,0,14.2,0,1.8-.4,4.6,2.5,4.4,2.1-.2,1.9-2.6,1.9-4.3.2-5.4,0-10.8,1.2-16.3.9-4.1,1.9-5.9,6.2-4.4,3.5,1.3,6.4.5,7.5-3.5,3.7-2,5.3.6,7,3,1.8,7.3,1,14.8.7,22.2-.1,2.8-1,5.8-3.4,7.2-6.4,3.8-4.7,8.3-1.8,13.1,3.4,4.8.9,9.3-.7,13.8-3.5,21.2-12.1,39.4-31.5,50.7-2.4,1.4-3.1,3.7-3.8,6.1-4-8.2-8-16.5-11.9-24.7-1.1-2.2-2.2-4.5-2.7-6.8-1.3-5.9-4.7-10-9.9-12.7,3.8-3.4,8.4-1.9,12.6-2,4.7-.2,8.1-1.6,8.8-6.7,7-13.3,3.2-28,5.3-41.9.3-.8.9-1.5,1.6-2Z"/>
      <path class="cls-7" d="M609,259.2c2.5-3.1.6-7.3,2.6-10.6,1.1-1.8.9-5.2,3.6-4.8,3,.4,4,3.3,4,6.3,0,4.7,0,9.5,0,14.2,0,1.8-.4,4.6,2.5,4.4,2.1-.2,1.9-2.6,1.9-4.3.2-5.4,0-10.8,1.2-16.3.9-4.1,1.9-5.9,6.2-4.4,3.5,1.3,6.4.5,7.5-3.5,3.7-2,5.3.6,7,3,1.8,7.3,1,14.8.7,22.2-.1,2.8-1,5.8-3.4,7.2-6.4,3.8-4.7,8.3-1.8,13.1,3.4,4.8.9,9.3-.7,13.8-3.5,21.2-12.1,39.4-31.5,50.7-2.4,1.4-3.1,3.7-3.8,6.1-4-8.2-8-16.5-11.9-24.7-1.1-2.2-2.2-4.5-2.7-6.8-1.3-5.9-4.7-10-9.9-12.7,3.8-3.4,8.4-1.9,12.6-2,4.7-.2,8.1-1.6,8.8-6.7,7-13.3,3.2-28,5.3-41.9.3-.8.9-1.5,1.6-2Z"/>
      <path class="cls-29" d="M604.3,304.3c-1.1,5.2-4.5,7.5-9.5,7.6-4.7,0-9.4,0-14.1,0-4.8-4.3-8.1-9.6-10.7-15.5-5.9-18.2-9.2-36.9-9.7-56-.2-7.9,3.8-14.3,7.2-20.8,2-3.8,6-5,10.1-5.5,3.5-.5,7-.2,10.4-.3,6.8,3.2,11,8.3,12,15.9-3.9,1.7-5.3-1.3-7-3.7-2.1-2.9-3.9-6.1-8.9-7.6,14.4,29,19,58.1,10.2,88.7,4,1.3,6.1-4.2,10.1-2.8Z"/>
      <path class="cls-29" d="M604.3,304.3c-1.1,5.2-4.5,7.5-9.5,7.6-4.7,0-9.4,0-14.1,0-4.8-4.3-8.1-9.6-10.7-15.5-5.9-18.2-9.2-36.9-9.7-56-.2-7.9,3.8-14.3,7.2-20.8,2-3.8,6-5,10.1-5.5,3.5-.5,7-.2,10.4-.3,6.8,3.2,11,8.3,12,15.9-3.9,1.7-5.3-1.3-7-3.7-2.1-2.9-3.9-6.1-8.9-7.6,14.4,29,19,58.1,10.2,88.7,4,1.3,6.1-4.2,10.1-2.8Z"/>
      <path class="cls-27" d="M357.7,539c9.5,9,13.4,20.6,15.4,33.1.4,2.2-1.3,7.3,3.2,6.7,3.6-.4,4.2-4.5,3.8-7.9-1.7-14-4.7-27.9-3.5-42.1.2-2.6-.9-5.6,1.8-7.6,1.1.5,2.1,1,3.2,1.5-.5,2.6.8,4,2.8,5.5,24.3,19.1,29.1,45.6,13.3,72.4-1.2,2-2.4,3.8-1,6.1-7.7,4.8-16.4,6.3-25,4.8-6.1-1-6.7.8-6.5,5.9.6,16.4,1,32.9,1.5,49.3-1.1,13.7-1.1,13.8-14.8,14.9-20.8,1.7-41.5-1.6-62.3-2.5-4.7-.2-9.4-.7-14.1-.4-.6-.7-1.2-1.4-1.8-2.1-1.2-7.3-.1-14.7-.6-22.1,0-1.3,1.6-4.5-2.3-3.6-.9,1.2-1.9,2.3-2.8,3.5.2-4.5,1.7-8.7,3.1-13,.5-1.4,1-3.1,2.8-2.9,1.9.3,1.7,2.2,1.7,3.6,0,9.7,0,19.4,0,29.2,0,1.5,0,3,1.2,4.2,0,0,0,0,0,0,.9.4,1.7,1.2,2.6,1.2,25.3-.6,50.3,4.2,75.7,3,6.6-.3,9.3-1.8,8.9-8.9-.7-9.9-.3-19.8-.4-29.8-1.7-9.5.9-19.1-1.4-28.6h0c-1.5-2.1-.2-3.7,1-5.3,6.4-8.6,8.1-17.7,6.8-28.7-1.5-12.5-4.9-23.8-11.7-34.2-1.1-1.7-2.1-3.5-.3-5.4Z"/>
      <path class="cls-27" d="M357.7,539c9.5,9,13.4,20.6,15.4,33.1.4,2.2-1.3,7.3,3.2,6.7,3.6-.4,4.2-4.5,3.8-7.9-1.7-14-4.7-27.9-3.5-42.1.2-2.6-.9-5.6,1.8-7.6,1.1.5,2.1,1,3.2,1.5-.5,2.6.8,4,2.8,5.5,24.3,19.1,29.1,45.6,13.3,72.4-1.2,2-2.4,3.8-1,6.1-7.7,4.8-16.4,6.3-25,4.8-6.1-1-6.7.8-6.5,5.9.6,16.4,1,32.9,1.5,49.3-1.1,13.7-1.1,13.8-14.8,14.9-20.8,1.7-41.5-1.6-62.3-2.5-4.7-.2-9.4-.7-14.1-.4-.6-.7-1.2-1.4-1.8-2.1-1.2-7.3-.1-14.7-.6-22.1,0-1.3,1.6-4.5-2.3-3.6-.9,1.2-1.9,2.3-2.8,3.5.2-4.5,1.7-8.7,3.1-13,.5-1.4,1-3.1,2.8-2.9,1.9.3,1.7,2.2,1.7,3.6,0,9.7,0,19.4,0,29.2,0,1.5,0,3,1.2,4.2,0,0,0,0,0,0,.9.4,1.7,1.2,2.6,1.2,25.3-.6,50.3,4.2,75.7,3,6.6-.3,9.3-1.8,8.9-8.9-.7-9.9-.3-19.8-.4-29.8-1.7-9.5.9-19.1-1.4-28.6h0c-1.5-2.1-.2-3.7,1-5.3,6.4-8.6,8.1-17.7,6.8-28.7-1.5-12.5-4.9-23.8-11.7-34.2-1.1-1.7-2.1-3.5-.3-5.4Z"/>
      <path class="cls-8" d="M644.3,243.2c-1.9-.9-2.8-3.8-5.6-3.1-2.4-3.1-8-3.6-7.6-9.1,1.1-5,1.7-10.1,3.4-14.9,2.1-6.2,6.7-10.1,13.5-10.6,3.4.8,7.3-1.5,10.4,1.5-3.3,2-4.3,3.7-2.2,8.1,10.6,22.9,16.4,46.8,10.5,72.3-1.3,5.6-3,11-7.1,15.4-5.3.2-10.5,1.3-14-5-2.5-4.4-3.3,1.2-5.1,1.7-.6-4.3,1.9-8.7-.3-13-1.9-2.2-1.7-5-2.7-7.5-1.3-3.3-.9-4.2,2.8-5.5,9.1-3.3,12.5-15,6.9-23-1.6-2.3-.8-5.3-2.9-7.2Z"/>
      <path class="cls-8" d="M644.3,243.2c-1.9-.9-2.8-3.8-5.6-3.1-2.4-3.1-8-3.6-7.6-9.1,1.1-5,1.7-10.1,3.4-14.9,2.1-6.2,6.7-10.1,13.5-10.6,3.4.8,7.3-1.5,10.4,1.5-3.3,2-4.3,3.7-2.2,8.1,10.6,22.9,16.4,46.8,10.5,72.3-1.3,5.6-3,11-7.1,15.4-5.3.2-10.5,1.3-14-5-2.5-4.4-3.3,1.2-5.1,1.7-.6-4.3,1.9-8.7-.3-13-1.9-2.2-1.7-5-2.7-7.5-1.3-3.3-.9-4.2,2.8-5.5,9.1-3.3,12.5-15,6.9-23-1.6-2.3-.8-5.3-2.9-7.2Z"/>
      <path class="cls-35" d="M259,676.9c-9,3.9-18.8,3.6-28.2,4-20.5.9-41,2.9-61.5,2.3-1.5-.8-1.5-2.2-1.8-3.6-1.1-12.2-1.1-24.5,0-36.7,0-1.2.1-2.5.2-3.7,1.4-5.3.3-10.8.7-16.1.2-2.3-.5-4-3.2-3.7-2.9.3-5.1-1.6-7.8-1.8-3.6-3.9-4.6-8.9-5.2-13.7-3.4-25.3-3.6-50.5,3.2-75.4.8-3,1.9-5.7,4.8-7.2,15.1-4,15.2,8.4,18.3,17.4,3.5-1.8.9-5.1,2.7-6.8h0c4.8,4.9,1.5,10,.2,15.1,0,.5,0,.9-.2,1.4-.9,5.7-.9,11.5-8.5,13.7-4.2,1.2-3,6.3-2.8,9.9.2,3.5,2.3,5.1,5.7,5.5,2.4.3,5.6-.1,5.4,4-3.6,1.7-2.5,5-2.8,7.8-.8,8.4-2.2,16.7-5.8,24.5-1.1,2.3-1.5,4.7-1.5,7.2,0,17.4,0,34.9-.5,52.3-.2,6.5,1.5,9,8.3,8.3,22.5-2.1,45.2-1.7,67.6-4.3,4.2-.5,8.4-.2,12.7-.2Z"/>
      <path class="cls-35" d="M259,676.9c-9,3.9-18.8,3.6-28.2,4-20.5.9-41,2.9-61.5,2.3-1.5-.8-1.5-2.2-1.8-3.6-1.1-12.2-1.1-24.5,0-36.7,0-1.2.1-2.5.2-3.7,1.4-5.3.3-10.8.7-16.1.2-2.3-.5-4-3.2-3.7-2.9.3-5.1-1.6-7.8-1.8-3.6-3.9-4.6-8.9-5.2-13.7-3.4-25.3-3.6-50.5,3.2-75.4.8-3,1.9-5.7,4.8-7.2,15.1-4,15.2,8.4,18.3,17.4,3.5-1.8.9-5.1,2.7-6.8h0c4.8,4.9,1.5,10,.2,15.1,0,.5,0,.9-.2,1.4-.9,5.7-.9,11.5-8.5,13.7-4.2,1.2-3,6.3-2.8,9.9.2,3.5,2.3,5.1,5.7,5.5,2.4.3,5.6-.1,5.4,4-3.6,1.7-2.5,5-2.8,7.8-.8,8.4-2.2,16.7-5.8,24.5-1.1,2.3-1.5,4.7-1.5,7.2,0,17.4,0,34.9-.5,52.3-.2,6.5,1.5,9,8.3,8.3,22.5-2.1,45.2-1.7,67.6-4.3,4.2-.5,8.4-.2,12.7-.2Z"/>
      <path class="cls-28" d="M589.3,214.7c-.7,0-1.5-.1-2.2-.2-19.3-.4-22,5.1-24.1,23.3-2.1,18.2.9,36.5,6.6,54.2.4,1.4.3,2.9.5,4.4-5.2-8.7-6.5-18.5-7.5-28.3-.8-7.8-3.4-11.8-12.1-13.6-22.2-4.6-42.3-13.9-55.3-34-.5-4.6.8-6.5,5.8-4.5,14.8,6,30,10.3,46.2,9,1.4-.1,2.9.5,4.2,1.1,6.4,3.1,11.3,3.9,14-5,1.7-5.5,6.7-8.4,12.9-8.3,3.7,0,7.5,0,11.2,0,.4.4.5.8.3,1.1-.1.4-.3.5-.4.5Z"/>
      <path class="cls-28" d="M589.3,214.7c-.7,0-1.5-.1-2.2-.2-19.3-.4-22,5.1-24.1,23.3-2.1,18.2.9,36.5,6.6,54.2.4,1.4.3,2.9.5,4.4-5.2-8.7-6.5-18.5-7.5-28.3-.8-7.8-3.4-11.8-12.1-13.6-22.2-4.6-42.3-13.9-55.3-34-.5-4.6.8-6.5,5.8-4.5,14.8,6,30,10.3,46.2,9,1.4-.1,2.9.5,4.2,1.1,6.4,3.1,11.3,3.9,14-5,1.7-5.5,6.7-8.4,12.9-8.3,3.7,0,7.5,0,11.2,0,.4.4.5.8.3,1.1-.1.4-.3.5-.4.5Z"/>
      <path class="cls-11" d="M375.3,943.6c-8.1-6.7-13.8-15.6-20.4-23.6-.8-.9-1.5-2.2-1.4-3.4,0-6.3-2-9.6-9.1-9.5-13.6.3-16,1.2-18.3,9.5-.9,3.2-1.4,6.7-5.6,6.8-3.7,0-6.4-1-7.8-5.3-1.5-4.8-3.6-1.2-4.6.6-2.8,4.7-1.6,10.2-2.4,15.3-1.1,6.9-1,13.9-1.8,20.8-.6,5,1.4,7.7,6,9.7,7.5,3.3,15.4,5.6,22.3,10.3-9.7-.7-17.7-6.1-26.3-9.6-3.4-1.4-5.3-4.8-4.2-9.3,1.7-6.8.3-13.8,1.3-20.8,1.2-8.6,1.3-17,7.5-24.3,2.4-2.9,1.5-8.4.3-12.4-4-14.3-3.4-29.4-7-43.8-1.6-6.2-2-12.8-3.9-18.9-2.6-8.4-2.5-17.1-3.6-25.6,4.9,15.5,7.4,31.6,10.3,47.5,1.6,8.7,3.3,17.5,3.2,26.5,0,5,3,7,7.7,6.9,6.7,0,13.4-.2,20.1,0,5.8,0,7.9-2.8,7.9-8.3,0-14.7-.3-29.4.2-44,.2-7.5.5-15.2,2.8-22.6-1.6,27-1.5,54-1.5,81,0,4-.6,8.1,4.9,9.3,1.5.3,2.4,1.8,2.5,3.4.3,9.3,6.8,15,12.4,21.2,3.4,3.8,7.4,7.2,8.5,12.6Z"/>
      <path class="cls-11" d="M375.3,943.6c-8.1-6.7-13.8-15.6-20.4-23.6-.8-.9-1.5-2.2-1.4-3.4,0-6.3-2-9.6-9.1-9.5-13.6.3-16,1.2-18.3,9.5-.9,3.2-1.4,6.7-5.6,6.8-3.7,0-6.4-1-7.8-5.3-1.5-4.8-3.6-1.2-4.6.6-2.8,4.7-1.6,10.2-2.4,15.3-1.1,6.9-1,13.9-1.8,20.8-.6,5,1.4,7.7,6,9.7,7.5,3.3,15.4,5.6,22.3,10.3-9.7-.7-17.7-6.1-26.3-9.6-3.4-1.4-5.3-4.8-4.2-9.3,1.7-6.8.3-13.8,1.3-20.8,1.2-8.6,1.3-17,7.5-24.3,2.4-2.9,1.5-8.4.3-12.4-4-14.3-3.4-29.4-7-43.8-1.6-6.2-2-12.8-3.9-18.9-2.6-8.4-2.5-17.1-3.6-25.6,4.9,15.5,7.4,31.6,10.3,47.5,1.6,8.7,3.3,17.5,3.2,26.5,0,5,3,7,7.7,6.9,6.7,0,13.4-.2,20.1,0,5.8,0,7.9-2.8,7.9-8.3,0-14.7-.3-29.4.2-44,.2-7.5.5-15.2,2.8-22.6-1.6,27-1.5,54-1.5,81,0,4-.6,8.1,4.9,9.3,1.5.3,2.4,1.8,2.5,3.4.3,9.3,6.8,15,12.4,21.2,3.4,3.8,7.4,7.2,8.5,12.6Z"/>
      <path class="cls-32" d="M665.6,961.3c-7.7-11.4-12-23.8-11.5-37.7.2-4.7-.2-10.1-6.3-9.7-5.9.4-13.6-1.5-16.4,6.9-.9,2.6-1.2,5.4-2,7.9-1,3.2-2.8,6.4-6.7,5.7-5.2-.9-6.4,1.9-7.3,6-2.1,10.2-4.2,20.5-5.1,30.9-.5,5.9,1.6,10.5,5.1,15.1,14.9,19.3,35.2,19.1,56.3,15.9,6.4-1,8.6-5,5.9-11.5-2.4-5.7-4.2-11.7-6.2-17.5,6,5.8,7.4,13.7,9.1,21.3,1,4.5-1.2,7.8-5.9,8.8-22.1,4.8-43.1,5.4-60.4-14.8-7.3-8.4-7.1-17.8-5-27.2,2.6-11.7,3.2-23.7,8.8-35.1,3.7-7.6,2.5-17.7.2-26.4-3.4-13.3-4.2-26.8-5-40.4,2.5,9,3.9,18.2,4.5,27.5.6,10.2,1.7,11.4,11.9,11.3,3.9,0,7.9-.7,11.8-.8,7.7-.3,8.5-5.2,9.2-10.9,2.2-20.4,5.7-40.6,11-60.4.1-.4.6-.8.9-1.1-2.7,15.3-4.9,30.7-8.1,45.9-2.5,11.6-1.4,23.7-5.2,35.1-.6,1.9,0,4.2,1.8,5.4,5.8,4,6.3,9.8,5.6,15.9-1.2,9.7,3,17.9,6.7,26.3,1.1,2.5,2.8,4.8,2.3,7.7Z"/>
      <path class="cls-32" d="M665.6,961.3c-7.7-11.4-12-23.8-11.5-37.7.2-4.7-.2-10.1-6.3-9.7-5.9.4-13.6-1.5-16.4,6.9-.9,2.6-1.2,5.4-2,7.9-1,3.2-2.8,6.4-6.7,5.7-5.2-.9-6.4,1.9-7.3,6-2.1,10.2-4.2,20.5-5.1,30.9-.5,5.9,1.6,10.5,5.1,15.1,14.9,19.3,35.2,19.1,56.3,15.9,6.4-1,8.6-5,5.9-11.5-2.4-5.7-4.2-11.7-6.2-17.5,6,5.8,7.4,13.7,9.1,21.3,1,4.5-1.2,7.8-5.9,8.8-22.1,4.8-43.1,5.4-60.4-14.8-7.3-8.4-7.1-17.8-5-27.2,2.6-11.7,3.2-23.7,8.8-35.1,3.7-7.6,2.5-17.7.2-26.4-3.4-13.3-4.2-26.8-5-40.4,2.5,9,3.9,18.2,4.5,27.5.6,10.2,1.7,11.4,11.9,11.3,3.9,0,7.9-.7,11.8-.8,7.7-.3,8.5-5.2,9.2-10.9,2.2-20.4,5.7-40.6,11-60.4.1-.4.6-.8.9-1.1-2.7,15.3-4.9,30.7-8.1,45.9-2.5,11.6-1.4,23.7-5.2,35.1-.6,1.9,0,4.2,1.8,5.4,5.8,4,6.3,9.8,5.6,15.9-1.2,9.7,3,17.9,6.7,26.3,1.1,2.5,2.8,4.8,2.3,7.7Z"/>
      <path class="cls-34" d="M785.3,292.6c0,4.2-.3,8.5-.1,12.7.1,4.1-.9,6.6-5.7,6.7-4.7,0-7-1.1-7.8-6.5-3.7-25.7-3.4-51.6-5.5-77.4-.4-4.6-1.3-10,6.1-10.4,4.5-.2,6.6,1.1,7.3,6,2.7,18.8,4,37.6,4.5,56.6,0,2.9-.6,6,.9,8.8,0,1.1.2,2.3.3,3.4Z"/>
      <path class="cls-34" d="M785.3,292.6c0,4.2-.3,8.5-.1,12.7.1,4.1-.9,6.6-5.7,6.7-4.7,0-7-1.1-7.8-6.5-3.7-25.7-3.4-51.6-5.5-77.4-.4-4.6-1.3-10,6.1-10.4,4.5-.2,6.6,1.1,7.3,6,2.7,18.8,4,37.6,4.5,56.6,0,2.9-.6,6,.9,8.8,0,1.1.2,2.3.3,3.4Z"/>
      <path class="cls-4" d="M175.1,860.9c4,10,3.5,20.8,5.6,31.1.9,4.6,2.4,6.2,7.1,6.4,24,.8,24,.9,26.2-22.9.1-1.5.1-3,1.4-4,0,10.4-1,20.7-3.9,30.7-1.2,4.3-2,9,3.8,11.2,2.4.9,3.5,3,3.1,5.4-3.3,18.9,8.1,33.6,14.2,49.7,1.1,3,2.8,5.8,2.2,9.2-.8.1-1.7,0-2-.6-7.3-15.8-18.7-30.1-17.9-49,.2-5.1.8-11.1-6.5-12.2-6.9-1.1-12.1,2.6-14.2,10.1-1.5,5.5-3.8,9.7-10.3,9.9-3.1,0-4.2,2.3-4.8,4.9-2.5,10.6-4.8,21.3-5.1,32.3-.1,4.8,1.9,8.6,4.9,12.1,10.1,12.3,23.2,17.5,38.8,16.4,4.7-.3,9.5,0,14.1-1,6.9-1.3,8-3.9,5.5-10.4-1.5-4-4.9-7.7-2.6-12.6,3.4,4,6.7,8,8.3,13.2,1.9,6,.7,9.7-5.5,12.4-20.6,8.8-51,.1-64.1-17.9-6.3-8.7-4.1-17.6-2.3-26.3,2.3-11.3,4.2-22.6,9.8-33.2,4.3-8.1.1-17.5-1-26.2-1.7-12.9-4.5-25.8-4.9-38.9Z"/>
      <path class="cls-4" d="M175.1,860.9c4,10,3.5,20.8,5.6,31.1.9,4.6,2.4,6.2,7.1,6.4,24,.8,24,.9,26.2-22.9.1-1.5.1-3,1.4-4,0,10.4-1,20.7-3.9,30.7-1.2,4.3-2,9,3.8,11.2,2.4.9,3.5,3,3.1,5.4-3.3,18.9,8.1,33.6,14.2,49.7,1.1,3,2.8,5.8,2.2,9.2-.8.1-1.7,0-2-.6-7.3-15.8-18.7-30.1-17.9-49,.2-5.1.8-11.1-6.5-12.2-6.9-1.1-12.1,2.6-14.2,10.1-1.5,5.5-3.8,9.7-10.3,9.9-3.1,0-4.2,2.3-4.8,4.9-2.5,10.6-4.8,21.3-5.1,32.3-.1,4.8,1.9,8.6,4.9,12.1,10.1,12.3,23.2,17.5,38.8,16.4,4.7-.3,9.5,0,14.1-1,6.9-1.3,8-3.9,5.5-10.4-1.5-4-4.9-7.7-2.6-12.6,3.4,4,6.7,8,8.3,13.2,1.9,6,.7,9.7-5.5,12.4-20.6,8.8-51,.1-64.1-17.9-6.3-8.7-4.1-17.6-2.3-26.3,2.3-11.3,4.2-22.6,9.8-33.2,4.3-8.1.1-17.5-1-26.2-1.7-12.9-4.5-25.8-4.9-38.9Z"/>
      <path class="cls-1" d="M807.5,939.1c-6.7-8.7-17.1-14.8-18.1-27.3,0-.9-.8-1.8-1.4-2.5-5.2-5.4-22.9-1.2-24.8,6-1,3.6-.8,7.7-6,8.1-5.7.4-7.7-3.3-8.4-8.6-4.1,2.1-5.2,5.2-5.5,8.8-.9,10.4-1.6,20.9-2.7,31.3-.5,5.1,1.7,7.6,6.2,9.6,7.5,3.2,15.5,5.4,22.3,10.2-10.2-.6-18.4-6.6-27.5-10.3-2.3-.9-3.7-3.7-3.6-6.2.7-11.8,1.6-23.7,2.7-35.5.2-2.1,1.2-4.7,2.7-6,8.1-7.1,5.1-15.6,3.3-23.8-1.3-6.1-2.1-12.2-1.7-18.4.4.6,1.1,1.2,1.2,1.8,2.5,14.8,2.5,15,17.7,14.6,6.2-.2,12.9,1.9,18.5-2.9,1.6,2.9-.2,5.8-.1,8.7,0,4.3.7,8,5.5,9.2,2.2.6,3.5,2.1,3.7,4.2.8,10.2,8.6,16.3,13.9,23.8,1.1,1.6,2.7,2.9,2.3,5.2Z"/>
      <path class="cls-1" d="M807.5,939.1c-6.7-8.7-17.1-14.8-18.1-27.3,0-.9-.8-1.8-1.4-2.5-5.2-5.4-22.9-1.2-24.8,6-1,3.6-.8,7.7-6,8.1-5.7.4-7.7-3.3-8.4-8.6-4.1,2.1-5.2,5.2-5.5,8.8-.9,10.4-1.6,20.9-2.7,31.3-.5,5.1,1.7,7.6,6.2,9.6,7.5,3.2,15.5,5.4,22.3,10.2-10.2-.6-18.4-6.6-27.5-10.3-2.3-.9-3.7-3.7-3.6-6.2.7-11.8,1.6-23.7,2.7-35.5.2-2.1,1.2-4.7,2.7-6,8.1-7.1,5.1-15.6,3.3-23.8-1.3-6.1-2.1-12.2-1.7-18.4.4.6,1.1,1.2,1.2,1.8,2.5,14.8,2.5,15,17.7,14.6,6.2-.2,12.9,1.9,18.5-2.9,1.6,2.9-.2,5.8-.1,8.7,0,4.3.7,8,5.5,9.2,2.2.6,3.5,2.1,3.7,4.2.8,10.2,8.6,16.3,13.9,23.8,1.1,1.6,2.7,2.9,2.3,5.2Z"/>
      <path class="cls-41" d="M396.6,606.7c-4.5-.2-5.1-1.4-2.1-5.1,18-21.7,10.8-50.7-5.7-67.8-2.3-2.4-5.1-3.7-8-5.2-3.7-2-3.8-4.4.7-5.9,13.5,1.2,21,10.6,26.3,21.3,8.5,17.2,10.4,34.9-.8,52.1-3.1,3.9-6.7,7.4-10.5,10.6h0Z"/>
      <path class="cls-41" d="M396.6,606.7c-4.5-.2-5.1-1.4-2.1-5.1,18-21.7,10.8-50.7-5.7-67.8-2.3-2.4-5.1-3.7-8-5.2-3.7-2-3.8-4.4.7-5.9,13.5,1.2,21,10.6,26.3,21.3,8.5,17.2,10.4,34.9-.8,52.1-3.1,3.9-6.7,7.4-10.5,10.6h0Z"/>
      <path class="cls-12" d="M841.9,238.4c.1-7.2,0-14.3.5-21.5.3-4.1,1-8.3,7.1-8.4,5.7-.1,8,2.4,8.9,7.5,1.7,9.4,3.8,18.8,3,28.5-3.9-.6-3.1-3.9-3.6-6.4-1.2-6.6-1.5-13.3-3.2-19.9-.6-2.4-1.4-5.3-4.6-4.9-2.8.3-2.8,3.2-3.2,5.3-1.9,9-2,17.9,2.2,26.2,3.2,6.5,3.2,12.9,1.3,19.5-3.2,10.7,1.1,20.6,2.8,30.7.3,1.7,1.5,3.4,3.7,2.8,2.4-.7,2.3-3.1,2.3-5,.2-12.4,0-24.8.2-37.3,0-3.4-.7-7,2.1-9.9.4,0,.7,0,1.1,0,.5,14.4,2.6,28.6,1.8,43.1-.2,2.7-.6,5.4-.9,8.1-.5,3.5-.7,6.9-5.7,7.2-5,.3-8.2-1.7-9.3-6.5-1.8-7.7-3.3-15.5-3.8-23.4-.2-3.5.4-8.6-5.7-8.6-9.3-.3-5.8-8-7.2-12.7-1.8-6.3,4.1-5.2,7.1-6.8.8-2.7,1-5.7,3-7.9Z"/>
      <path class="cls-12" d="M841.9,238.4c.1-7.2,0-14.3.5-21.5.3-4.1,1-8.3,7.1-8.4,5.7-.1,8,2.4,8.9,7.5,1.7,9.4,3.8,18.8,3,28.5-3.9-.6-3.1-3.9-3.6-6.4-1.2-6.6-1.5-13.3-3.2-19.9-.6-2.4-1.4-5.3-4.6-4.9-2.8.3-2.8,3.2-3.2,5.3-1.9,9-2,17.9,2.2,26.2,3.2,6.5,3.2,12.9,1.3,19.5-3.2,10.7,1.1,20.6,2.8,30.7.3,1.7,1.5,3.4,3.7,2.8,2.4-.7,2.3-3.1,2.3-5,.2-12.4,0-24.8.2-37.3,0-3.4-.7-7,2.1-9.9.4,0,.7,0,1.1,0,.5,14.4,2.6,28.6,1.8,43.1-.2,2.7-.6,5.4-.9,8.1-.5,3.5-.7,6.9-5.7,7.2-5,.3-8.2-1.7-9.3-6.5-1.8-7.7-3.3-15.5-3.8-23.4-.2-3.5.4-8.6-5.7-8.6-9.3-.3-5.8-8-7.2-12.7-1.8-6.3,4.1-5.2,7.1-6.8.8-2.7,1-5.7,3-7.9Z"/>
      <path class="cls-1" d="M782.3,982.2c9.7,3.1,19.3,5.8,29.7,4.8,15.5-1.4,20.4-9.9,13.2-23.9-4-7.8-10.3-13.9-15-21.1,11.2,7.5,17.9,18.2,20.9,31,1.3,5.5-2.7,9.8-7.1,12.9-9.6,6.7-32.6,4.5-41.7-3.7Z"/>
      <path class="cls-1" d="M782.3,982.2c9.7,3.1,19.3,5.8,29.7,4.8,15.5-1.4,20.4-9.9,13.2-23.9-4-7.8-10.3-13.9-15-21.1,11.2,7.5,17.9,18.2,20.9,31,1.3,5.5-2.7,9.8-7.1,12.9-9.6,6.7-32.6,4.5-41.7-3.7Z"/>
      <path class="cls-31" d="M181.1,531.8c-.4,3.2,1.8,8.6-2.2,9.1-3.8.5-2.2-5.2-3.1-8-3.4-10.6-3.3-10.7-15.7-11.6,11.1-3.7,13.6-1.7,18.9,16,.4-2.4.6-4,.8-5.6.4,0,.8.2,1.3.2Z"/>
      <path class="cls-31" d="M181.1,531.8c-.4,3.2,1.8,8.6-2.2,9.1-3.8.5-2.2-5.2-3.1-8-3.4-10.6-3.3-10.7-15.7-11.6,11.1-3.7,13.6-1.7,18.9,16,.4-2.4.6-4,.8-5.6.4,0,.8.2,1.3.2Z"/>
      <path class="cls-3" d="M800.2,281.7c0-1.5,0-3,0-4.5,0-3.4.9-5.1,4.2-2.3,2.4,2.1,5,1.7,7.7,1-2.7,4.7-8.9,1.8-12,5.8Z"/>
      <path class="cls-3" d="M800.2,281.7c0-1.5,0-3,0-4.5,0-3.4.9-5.1,4.2-2.3,2.4,2.1,5,1.7,7.7,1-2.7,4.7-8.9,1.8-12,5.8Z"/>
      <path class="cls-3" d="M828.6,193.6c-7.7,2.3-14.4,7.3-22.3,9,6.6-5.1,13.6-9.1,22.3-9Z"/>
      <path class="cls-3" d="M828.6,193.6c-7.7,2.3-14.4,7.3-22.3,9,6.6-5.1,13.6-9.1,22.3-9Z"/>
      <path class="cls-27" d="M396.5,606.8c2.7-4.4,6.3-7.8,10.5-10.6-1.9,5.1-5.7,8.4-10.5,10.6Z"/>
      <path class="cls-27" d="M396.5,606.8c2.7-4.4,6.3-7.8,10.5-10.6-1.9,5.1-5.7,8.4-10.5,10.6Z"/>
      <path class="cls-17" d="M713.5,654.9c-5.3-29.4,4.4-57.5,7.2-86.3.5-4.9.7-9.9,2.1-14.7.3-1.2,1.2-2.4,2.7-2,1.6.4,1.5,1.9,1.3,3-5.9,38.1-6.2,76.5-5.8,115,0,2.5.3,5.2-3.4,5.3-4.2.2-4-2.7-4-5.5,0-5,0-10,0-14.9Z"/>
      <path class="cls-17" d="M713.5,654.9c-5.3-29.4,4.4-57.5,7.2-86.3.5-4.9.7-9.9,2.1-14.7.3-1.2,1.2-2.4,2.7-2,1.6.4,1.5,1.9,1.3,3-5.9,38.1-6.2,76.5-5.8,115,0,2.5.3,5.2-3.4,5.3-4.2.2-4-2.7-4-5.5,0-5,0-10,0-14.9Z"/>
      <path class="cls-27" d="M317.1,615.6c-20.4-13.7-27.6-44.8-18.1-66.1,2.7-6.1,6.7-11,12.1-14.8,17.4-8.9,31.8-5.6,43.5,10.6,11,15.2,13.2,32.5,9.7,50.5-4.9,25.4-32.1,30.7-47.3,19.8Z"/>
      <path class="cls-27" d="M317.1,615.6c-20.4-13.7-27.6-44.8-18.1-66.1,2.7-6.1,6.7-11,12.1-14.8,17.4-8.9,31.8-5.6,43.5,10.6,11,15.2,13.2,32.5,9.7,50.5-4.9,25.4-32.1,30.7-47.3,19.8Z"/>
      <path class="cls-9" d="M249.9,527.3c5.2,17.4,5.2,35.2,3.8,53-.7,8.8-1.1,17.8-3.8,26.4-.8,2.6-1.1,5.3-3,7.5-5.4,4-8.9,3.3-11.4-2.6-1.9-4.6-3.2-9.6-3.5-14.4-1.5-22.3-2.3-44.7,4.4-66.5.4-1.2.8-2.4,1.3-3.5,1.3-2.9,3.4-4.8,6.8-5,3.6-.2,4.2,2.9,5.4,5.2Z"/>
      <path class="cls-9" d="M249.9,527.3c5.2,17.4,5.2,35.2,3.8,53-.7,8.8-1.1,17.8-3.8,26.4-.8,2.6-1.1,5.3-3,7.5-5.4,4-8.9,3.3-11.4-2.6-1.9-4.6-3.2-9.6-3.5-14.4-1.5-22.3-2.3-44.7,4.4-66.5.4-1.2.8-2.4,1.3-3.5,1.3-2.9,3.4-4.8,6.8-5,3.6-.2,4.2,2.9,5.4,5.2Z"/>
      <path class="cls-13" d="M249.9,527.3c-5.5-6.1-8.6-5.6-10.9,2.3-7.6,26.5-7.8,53.4-2.2,80.3,1.2,5.6,4.9,7.2,10.1,4.3-3.7,6.3-14.7,5.7-18.5-1.1-3.3-6-3.4-12.8-4-19.4-.2-2.5.9-5.8-3-6.6,3.5-11.5,1.5-23.5,3-35.1.3-2.7-1.7-4.5-2.9-6.6-5.6-10.5-13-20.3-13.6-32.9,4.3,8.5,6.4,18,12.2,25.7,1.3,1.7,1.6,5.1,4,4.8,3.1-.3,1.6-3.6,1.9-5.6,2.2-13.1,6-16.6,17.5-16.2,4.3.1,6.6,1.5,6.4,6.1Z"/>
      <path class="cls-13" d="M249.9,527.3c-5.5-6.1-8.6-5.6-10.9,2.3-7.6,26.5-7.8,53.4-2.2,80.3,1.2,5.6,4.9,7.2,10.1,4.3-3.7,6.3-14.7,5.7-18.5-1.1-3.3-6-3.4-12.8-4-19.4-.2-2.5.9-5.8-3-6.6,3.5-11.5,1.5-23.5,3-35.1.3-2.7-1.7-4.5-2.9-6.6-5.6-10.5-13-20.3-13.6-32.9,4.3,8.5,6.4,18,12.2,25.7,1.3,1.7,1.6,5.1,4,4.8,3.1-.3,1.6-3.6,1.9-5.6,2.2-13.1,6-16.6,17.5-16.2,4.3.1,6.6,1.5,6.4,6.1Z"/>
      <path class="cls-6" d="M317.1,615.6c7.5,2.5,14.7,6.1,23.1,4,12.6-3.1,22.2-14.6,23.3-28.7,1.1-14.4,0-28.4-8.1-41-5.8-9.1-13.3-16-24.1-18.6-7.1-1.7-13.5,2-20.2,3.4,7.5-7.7,28.1-7.3,36.3-2.7,1.8,1,3.6,3.8,5.8,2.1,2.4-2,1-4.9,0-7.5-1.9-5.6-3.6-11.2-3.2-17.2,3.6,9.6,6,19.6,7.6,29.7,3.8,8.8,10.5,16.3,12,26,2,12.9,5.9,25.9-1.5,38.7-1.9,3.2-6,4.7-6.2,8.9-9.8,4.1-19,10.3-30.5,9-5.4-.6-10.7-1.3-14.4-6Z"/>
      <path class="cls-6" d="M317.1,615.6c7.5,2.5,14.7,6.1,23.1,4,12.6-3.1,22.2-14.6,23.3-28.7,1.1-14.4,0-28.4-8.1-41-5.8-9.1-13.3-16-24.1-18.6-7.1-1.7-13.5,2-20.2,3.4,7.5-7.7,28.1-7.3,36.3-2.7,1.8,1,3.6,3.8,5.8,2.1,2.4-2,1-4.9,0-7.5-1.9-5.6-3.6-11.2-3.2-17.2,3.6,9.6,6,19.6,7.6,29.7,3.8,8.8,10.5,16.3,12,26,2,12.9,5.9,25.9-1.5,38.7-1.9,3.2-6,4.7-6.2,8.9-9.8,4.1-19,10.3-30.5,9-5.4-.6-10.7-1.3-14.4-6Z"/>
      <path class="cls-36" d="M276.6,675.6c-.4-14.6,1.1-29.3-1.1-43.9-.9-5.9.7-12.3,1.8-18.4,3.2-16.5,4.5-33.3,7-49.9.6-3.9.1-10.7,3.9-10.4,3.7.3.5,6.4.2,9.7-3.1,35.6-5.2,71.3-4.1,107.1.2,6.4-3.7,5.8-7.7,5.9,0,0,0,0,0,0Z"/>
      <path class="cls-36" d="M276.6,675.6c-.4-14.6,1.1-29.3-1.1-43.9-.9-5.9.7-12.3,1.8-18.4,3.2-16.5,4.5-33.3,7-49.9.6-3.9.1-10.7,3.9-10.4,3.7.3.5,6.4.2,9.7-3.1,35.6-5.2,71.3-4.1,107.1.2,6.4-3.7,5.8-7.7,5.9,0,0,0,0,0,0Z"/>
      <path class="cls-30" d="M206.7,509.3c-4.8-7.3-4.2-16-6-24.1-6-26.5-4.9-54.2-11.5-80.7-.6-2.4.2-4.4.7-6.5,6.3-27,5.8-54,.6-81-.5-2.5-1-5,.1-7.3.9-1.9,1.8-4.8,4.3-4.6,3,.2,2.7,3.1,2.6,5.3-.3,7.8,6.7,9.8,11,13.9,1.8,1.8,2.6-1.7,4.2-1.9-2.4,8.3-7.1,15.2-12.7,21.4-2.9,3.2-4.2,6.4-3.9,10.7.9,14.3-.5,28.3-4,42.2-2.2,8.4,1.6,16.2,2.7,24.2,1.6,11.3,1.4,22.7,4,33.9.8,16.4,4.7,32.4,7.3,48.5.3,1.9.5,3.9.7,5.8Z"/>
      <path class="cls-30" d="M206.7,509.3c-4.8-7.3-4.2-16-6-24.1-6-26.5-4.9-54.2-11.5-80.7-.6-2.4.2-4.4.7-6.5,6.3-27,5.8-54,.6-81-.5-2.5-1-5,.1-7.3.9-1.9,1.8-4.8,4.3-4.6,3,.2,2.7,3.1,2.6,5.3-.3,7.8,6.7,9.8,11,13.9,1.8,1.8,2.6-1.7,4.2-1.9-2.4,8.3-7.1,15.2-12.7,21.4-2.9,3.2-4.2,6.4-3.9,10.7.9,14.3-.5,28.3-4,42.2-2.2,8.4,1.6,16.2,2.7,24.2,1.6,11.3,1.4,22.7,4,33.9.8,16.4,4.7,32.4,7.3,48.5.3,1.9.5,3.9.7,5.8Z"/>
      <path class="cls-42" d="M221.5,545.2c2.9,1.5,4.8,3.8,4.1,7.1-1.7,8.8-1,17.7-1.2,26.5,0,3.2-1.9,5.5-3.1,8.2-10.7,4.6-33.7,1.4-40.5-5.7-.7-2-2.5-2.7-4.1-2.3-5.6,1.4-9.1-.6-9-6.3,0-5.4-2.9-13,6.4-13.9,7.2-.8,3.8-7.6,6.9-10.6,0,8.1-1,16.2-.1,24.4.7,6.3,2.9,10.4,9.8,12,8.2,1.9,16.5,1.2,24.8,2.2,3.1.4,5.5-1.9,5.8-4.7,1.4-12.3,3.2-24.6.3-36.9Z"/>
      <path class="cls-42" d="M221.5,545.2c2.9,1.5,4.8,3.8,4.1,7.1-1.7,8.8-1,17.7-1.2,26.5,0,3.2-1.9,5.5-3.1,8.2-10.7,4.6-33.7,1.4-40.5-5.7-.7-2-2.5-2.7-4.1-2.3-5.6,1.4-9.1-.6-9-6.3,0-5.4-2.9-13,6.4-13.9,7.2-.8,3.8-7.6,6.9-10.6,0,8.1-1,16.2-.1,24.4.7,6.3,2.9,10.4,9.8,12,8.2,1.9,16.5,1.2,24.8,2.2,3.1.4,5.5-1.9,5.8-4.7,1.4-12.3,3.2-24.6.3-36.9Z"/>
      <path class="cls-6" d="M362,612.6c3.1,9.4.9,19,1.4,28.6-2.7-9.4-.6-19.1-1.4-28.6Z"/>
      <path class="cls-6" d="M362,612.6c3.1,9.4.9,19,1.4,28.6-2.7-9.4-.6-19.1-1.4-28.6Z"/>
      <path class="cls-21" d="M659.6,302.7c-.3-4.8,3.4-8.1,4.4-12.5,3-13.1,3.8-25.8,1-39.4-2.4-11.4-5-22.5-9.6-33.2-.4-.9-.5-1.9-1-2.8q-4.5-7.5,4-7.9c11,7.6,13.2,20,15.9,31.6,3.3,14,4.4,28.3,2.3,42.7-.3,2.1.3,4.4.5,6.6-1.5,2.8-2.8,5.8-4.6,8.4-3,4.4-6.8,7.8-12.9,6.4Z"/>
      <path class="cls-21" d="M659.6,302.7c-.3-4.8,3.4-8.1,4.4-12.5,3-13.1,3.8-25.8,1-39.4-2.4-11.4-5-22.5-9.6-33.2-.4-.9-.5-1.9-1-2.8q-4.5-7.5,4-7.9c11,7.6,13.2,20,15.9,31.6,3.3,14,4.4,28.3,2.3,42.7-.3,2.1.3,4.4.5,6.6-1.5,2.8-2.8,5.8-4.6,8.4-3,4.4-6.8,7.8-12.9,6.4Z"/>
      <path class="cls-31" d="M181.2,546.8c-.6-5,3.9-10.1-.2-15.1.7-3.4,2.6-3.3,2.9-.3.5,5.2,1.3,10.8-2.7,15.4Z"/>
      <path class="cls-31" d="M181.2,546.8c-.6-5,3.9-10.1-.2-15.1.7-3.4,2.6-3.3,2.9-.3.5,5.2,1.3,10.8-2.7,15.4Z"/>
      <path class="cls-16" d="M288.6,231.5c0,2.5-1.2,4.9-2.8,3.4-7.7-7-18.5-6.1-26.8-11.8-6.9-4.7-13.1-9.7-17.8-16.6-1.2-1.7-2.5-3.5-.8-5.3,2.4-2.4,3.4.7,4.7,1.7,11.1,8.8,21.9,17.9,37,19.3,5.5.5,5.1,6,6.6,9.2Z"/>
      <path class="cls-16" d="M288.6,231.5c0,2.5-1.2,4.9-2.8,3.4-7.7-7-18.5-6.1-26.8-11.8-6.9-4.7-13.1-9.7-17.8-16.6-1.2-1.7-2.5-3.5-.8-5.3,2.4-2.4,3.4.7,4.7,1.7,11.1,8.8,21.9,17.9,37,19.3,5.5.5,5.1,6,6.6,9.2Z"/>
      <path class="cls-25" d="M665.9,200.5c6.7,4.8,12.2,8.8,17.9,12.6,7.2,4.9,14.7,9,23.9,9.1,4.1,0,6.2,3.1,5.7,7.2-.8,5.6-4.6,2-6.9,1.6-13.5-2.1-25.4-7.8-35.2-17.5-3.3-3.3-4.5-7.2-5.4-12.9Z"/>
      <path class="cls-25" d="M665.9,200.5c6.7,4.8,12.2,8.8,17.9,12.6,7.2,4.9,14.7,9,23.9,9.1,4.1,0,6.2,3.1,5.7,7.2-.8,5.6-4.6,2-6.9,1.6-13.5-2.1-25.4-7.8-35.2-17.5-3.3-3.3-4.5-7.2-5.4-12.9Z"/>
      <path class="cls-37" d="M774.2,847.8c-2.6-4.9-2.3-10.4-2.6-15.6-2.5-.2-2.7,1.1-2.7,2.4.3,6-1.3,11.7-2.5,17.6-1.4,6.2-1.7,12.9,2.2,18.8,1.4,2.1,2,4.5,1.8,7.1-.2,3.7-1.6,6.7-5.5,6.6-3.7-.1-3.3-3.6-3.5-6.3-.6-9.4-4.2-18.4-3.1-28,.2-2.2-1.3-3.8-3.6-4.1-9.7-1.2-10.2-8.4-9.6-15.5.9-11.1-2.3-21.4-6.5-31.2-5-11.7-5-22.8-1.5-34.7,2.9.6,2.1,5.4,5.4,4.2,3.4-1.2,2.4-4.5,2.4-7.1,0-6.9-2.3-13.7-1.5-20.7.3-2.2-.2-4.5,1.4-6.4,2.8-3.1,5.5-6.8.9-10-5-3.4-5.6,3-8.5,4.9-4.5-7.9-2-16-1-24.1,0-.5.3-1.3.6-1.3,7.1-1.1,12.1-5.1,16.5-10.6.9-1.2,4.7-1,6.3.6,4.3,4.4,9.4,4.3,14.5,3,3.9-.9,5.8,1,5.1,4-4,16.4-2.3,33.1-3,49.6,0,1.3-1.2,2.7-2.1,3.8-1.7,2.1-2.4,3,1,4.7,6.4,3.1,6,9.9-.6,13.2-2.3,1.2-3.8,2.7-3.5,5,.3,2.3,1.5,4.2,4.6,3.2,1.9-.6,2.4,1.3,3,2.6,2.7,5.7.3,15.1-4.9,19.4-1.2,1-1.7,2-.7,3,5.4,4.9,3,11.2,3.2,16.9.3,8.3,0,16.6,0,24.9-.7,0-1.4,0-2.1.1Z"/>
      <path class="cls-37" d="M774.2,847.8c-2.6-4.9-2.3-10.4-2.6-15.6-2.5-.2-2.7,1.1-2.7,2.4.3,6-1.3,11.7-2.5,17.6-1.4,6.2-1.7,12.9,2.2,18.8,1.4,2.1,2,4.5,1.8,7.1-.2,3.7-1.6,6.7-5.5,6.6-3.7-.1-3.3-3.6-3.5-6.3-.6-9.4-4.2-18.4-3.1-28,.2-2.2-1.3-3.8-3.6-4.1-9.7-1.2-10.2-8.4-9.6-15.5.9-11.1-2.3-21.4-6.5-31.2-5-11.7-5-22.8-1.5-34.7,2.9.6,2.1,5.4,5.4,4.2,3.4-1.2,2.4-4.5,2.4-7.1,0-6.9-2.3-13.7-1.5-20.7.3-2.2-.2-4.5,1.4-6.4,2.8-3.1,5.5-6.8.9-10-5-3.4-5.6,3-8.5,4.9-4.5-7.9-2-16-1-24.1,0-.5.3-1.3.6-1.3,7.1-1.1,12.1-5.1,16.5-10.6.9-1.2,4.7-1,6.3.6,4.3,4.4,9.4,4.3,14.5,3,3.9-.9,5.8,1,5.1,4-4,16.4-2.3,33.1-3,49.6,0,1.3-1.2,2.7-2.1,3.8-1.7,2.1-2.4,3,1,4.7,6.4,3.1,6,9.9-.6,13.2-2.3,1.2-3.8,2.7-3.5,5,.3,2.3,1.5,4.2,4.6,3.2,1.9-.6,2.4,1.3,3,2.6,2.7,5.7.3,15.1-4.9,19.4-1.2,1-1.7,2-.7,3,5.4,4.9,3,11.2,3.2,16.9.3,8.3,0,16.6,0,24.9-.7,0-1.4,0-2.1.1Z"/>
      <path class="cls-37" d="M738.6,692.9c-1.9-.3-3.9-1.5-5.7-3.4-.2-.2-.3-.4-.4-.6-1-1.9,0-2.9,1.8-2.9,4.8,0,10.5-1.6,13.7,3.1,1.6,2.3-1.9,2.5-3.7,2.8-1.7.3-3.4.6-5.7,1Z"/>
      <path class="cls-37" d="M738.6,692.9c-1.9-.3-3.9-1.5-5.7-3.4-.2-.2-.3-.4-.4-.6-1-1.9,0-2.9,1.8-2.9,4.8,0,10.5-1.6,13.7,3.1,1.6,2.3-1.9,2.5-3.7,2.8-1.7.3-3.4.6-5.7,1Z"/>
      <path class="cls-37" d="M753.6,869.7c1.9,4.7,3.4,8,4.5,11.3.5,1.3.3,3.1-1.6,3.5-1.9.4-2.4-1-2.7-2.6-.7-3.5-2.5-6.9-.3-12.2Z"/>
      <path class="cls-37" d="M753.6,869.7c1.9,4.7,3.4,8,4.5,11.3.5,1.3.3,3.1-1.6,3.5-1.9.4-2.4-1-2.7-2.6-.7-3.5-2.5-6.9-.3-12.2Z"/>
      <path class="cls-37" d="M773.8,871.7c1.5,3.9,1,6.6-.3,9.3-2.2-2.8-2.1-5.6.3-9.3Z"/>
      <path class="cls-37" d="M773.8,871.7c1.5,3.9,1,6.6-.3,9.3-2.2-2.8-2.1-5.6.3-9.3Z"/>
      <path class="cls-7" d="M589.3,214.7c0-.6,0-1.1,0-1.7,7,1.9,10.3,8.1,12.3,13.6,4,10.4,7.4,21.2,7.3,32.6,0,0-.5.4-.5.4-.7-.1-1.7-.3-1.9-1-2.5-9.7-6.1-19.1-6.9-29.2-2.6-5.6-6.6-10.1-10.5-14.7Z"/>
      <path class="cls-7" d="M589.3,214.7c0-.6,0-1.1,0-1.7,7,1.9,10.3,8.1,12.3,13.6,4,10.4,7.4,21.2,7.3,32.6,0,0-.5.4-.5.4-.7-.1-1.7-.3-1.9-1-2.5-9.7-6.1-19.1-6.9-29.2-2.6-5.6-6.6-10.1-10.5-14.7Z"/>
      <path class="cls-20" d="M861.6,245.8c0,16.2.1,32.3,0,48.5,0,2.9,1.2,6.8-4,7.2-4.4.3-6.2-1.8-6.8-5.9-1.1-7.8-2.8-15.6-4-23.4-.4-2.7.4-5.2,1.3-7.9,2.2-6.2,2.2-12.1-1.4-18.8-4.7-8.8-3.5-19.1-1.8-29,.5-3.1.6-5.9,4.7-6.3,4.5-.4,6.4,2.2,7,6,1.2,7.3,2.2,14.7,3.3,22,.3,2.2-.4,4.5,1.5,6.3,0,.4,0,.8,0,1.3Z"/>
      <path class="cls-20" d="M861.6,245.8c0,16.2.1,32.3,0,48.5,0,2.9,1.2,6.8-4,7.2-4.4.3-6.2-1.8-6.8-5.9-1.1-7.8-2.8-15.6-4-23.4-.4-2.7.4-5.2,1.3-7.9,2.2-6.2,2.2-12.1-1.4-18.8-4.7-8.8-3.5-19.1-1.8-29,.5-3.1.6-5.9,4.7-6.3,4.5-.4,6.4,2.2,7,6,1.2,7.3,2.2,14.7,3.3,22,.3,2.2-.4,4.5,1.5,6.3,0,.4,0,.8,0,1.3Z"/>
      <path class="cls-19" d="M841.9,238.4c0,3,2.1,6.8-3,7.9-2.3-1.4-7.8,1.9-6.7-4,1-5.4,4.8-6.5,9.6-3.9Z"/>
      <path class="cls-19" d="M841.9,238.4c0,3,2.1,6.8-3,7.9-2.3-1.4-7.8,1.9-6.7-4,1-5.4,4.8-6.5,9.6-3.9Z"/>
      <path class="cls-39" d="M599.8,229.4c5.2,9.4,5.8,20.1,8.7,30.2.2,4.7.1,9.3.5,14,1,10.7-1.1,20.8-4.8,30.8-1.5,1.2-3,2.6-4.7,3.6-2.7,1.8-6.3,3.8-8.9,1.5-2.6-2.3,1.9-3.7,2.5-5.9,3.2-12.6,4.7-25.2,2.8-38.2-2.3-16-4.7-31.8-14.4-45.5-2.1-2.9-.2-4,2.7-3.9,4.9.3,7,4.1,9.5,7.5,1.6,2.3,2,5.9,5.9,5.8Z"/>
      <path class="cls-39" d="M599.8,229.4c5.2,9.4,5.8,20.1,8.7,30.2.2,4.7.1,9.3.5,14,1,10.7-1.1,20.8-4.8,30.8-1.5,1.2-3,2.6-4.7,3.6-2.7,1.8-6.3,3.8-8.9,1.5-2.6-2.3,1.9-3.7,2.5-5.9,3.2-12.6,4.7-25.2,2.8-38.2-2.3-16-4.7-31.8-14.4-45.5-2.1-2.9-.2-4,2.7-3.9,4.9.3,7,4.1,9.5,7.5,1.6,2.3,2,5.9,5.9,5.8Z"/>
      <path class="cls-26" d="M644.3,243.2c2.4,3,4.9,5.9,7.2,8.9,3.7,4.7,2.8,9.5-.7,13.4-2.2,2.5-4.8,6.1-7.2,6.9-9.3,3.2-3.8,9-3.4,13.9-5.5-7-5.2-9.7,1.2-14.4,2.6-1.9,3.4-4.9,3.4-7.9,0-6.9-.2-13.9-.4-20.8Z"/>
      <path class="cls-26" d="M644.3,243.2c2.4,3,4.9,5.9,7.2,8.9,3.7,4.7,2.8,9.5-.7,13.4-2.2,2.5-4.8,6.1-7.2,6.9-9.3,3.2-3.8,9-3.4,13.9-5.5-7-5.2-9.7,1.2-14.4,2.6-1.9,3.4-4.9,3.4-7.9,0-6.9-.2-13.9-.4-20.8Z"/>
      <path class="cls-18" d="M152.6,573.1c-.4-14.7-.1-29.2,4.3-43.4.7-2.2,1-4.3,3-5.8,1.5-1.2,3.3-1.5,4.9-.6,1.6.9.9,2.5.6,4-4.5,17.6-5.6,35.6-5.3,53.7.1,9.5,2.1,18.6,3.2,27.9.3,2.1,3.2,5.1-.8,6.2-3.8,1-5.8-1.7-6.8-5.2-2.2-7.9-3.6-15.9-3.1-24.2.2-4.2,0-8.4,0-12.7Z"/>
      <path class="cls-18" d="M152.6,573.1c-.4-14.7-.1-29.2,4.3-43.4.7-2.2,1-4.3,3-5.8,1.5-1.2,3.3-1.5,4.9-.6,1.6.9.9,2.5.6,4-4.5,17.6-5.6,35.6-5.3,53.7.1,9.5,2.1,18.6,3.2,27.9.3,2.1,3.2,5.1-.8,6.2-3.8,1-5.8-1.7-6.8-5.2-2.2-7.9-3.6-15.9-3.1-24.2.2-4.2,0-8.4,0-12.7Z"/>
      <path class="cls-15" d="M234.8,977.8c2,5,3.6,10.3,6.2,15,2.1,3.7.7,5.1-2,7.2-6.2,4.6-13.4,3.2-20.2,3.9-18.9,2-33.3-5.7-44.1-21-1.3-1.9-2.7-3.6-2.7-6-.1-13.8,2.9-27.2,6.2-40.5.5-2,1.8-3.4,4.4-2.6,6.7,2.2,8.3-2.4,9.3-7.4,2.6-13.4,5.6-10.8,15.8-12.7,5.2-1,9.3,2,8.7,7.5-2.3,21.7,10.3,38.3,18.3,56.5,0,0,0,0,0,0Z"/>
      <path class="cls-40" d="M234.8,977.8c2,5,3.6,10.3,6.2,15,2.1,3.7.7,5.1-2,7.2-6.2,4.6-13.4,3.2-20.2,3.9-18.9,2-33.3-5.7-44.1-21-1.3-1.9-2.7-3.6-2.7-6-.1-13.8,2.9-27.2,6.2-40.5.5-2,1.8-3.4,4.4-2.6,6.7,2.2,8.3-2.4,9.3-7.4,2.6-13.4,5.6-10.8,15.8-12.7,5.2-1,9.3,2,8.7,7.5-2.3,21.7,10.3,38.3,18.3,56.5,0,0,0,0,0,0Z"/>
      <path class="cls-10" d="M329.2,567.7c5.3,0,9,4.4,8.9,10.5,0,5.6-3.5,8.7-8.5,9.5-4.8.7-9.4-4.9-9.4-10.4,0-5.5,3.9-9.7,9-9.6Z"/>
      <path class="cls-10" d="M329.2,567.7c5.3,0,9,4.4,8.9,10.5,0,5.6-3.5,8.7-8.5,9.5-4.8.7-9.4-4.9-9.4-10.4,0-5.5,3.9-9.7,9-9.6Z"/>
    </g>
  </g>
</svg>