<?xml version="1.0" encoding="UTF-8"?>
<svg id="Layer_1" data-name="Layer 1" xmlns="http://www.w3.org/2000/svg" viewBox="0 0 1080 1080">
  <defs>
    <style>
      .cls-1 {
        fill: #f8cba8;
      }

      .cls-2 {
        fill: #e6b28d;
      }

      .cls-3 {
        fill: #e7e9eb;
      }

      .cls-4 {
        fill: #d84140;
      }

      .cls-5 {
        fill: #373635;
      }
    </style>
  </defs>
  <g>
    <path class="cls-1" d="M198.04,265.73c10.75,19.6,27,14.69,40.01,0,4.87,12.25,9.42,22.04,21.18,28.24-7.62-.94-3.95,2.24-3.16,6.68,1.53,8.63,5.52,18.77,5.33,27.08-.37,16.1-13.87,39.7-11.58,52.05,1.42,7.64,29.9,30.67,37.65,36.57,2.33,1.77,2.67,6.64,9.4,4.69,1.34-5.87-4.07-11.86-4.7-16.46-.1-.77.09-1.58,0-2.35,6.08-5.84,1.2-15.23,0-21.18-6.07-30.07-22.73-54.68-28.24-84.72,41,18.16,53.29,10.71,62.91,63,4.8,26.12,14.83,88.02,6.62,111.25-10.84,30.65-43.34-5.84-55.41-15.4-2.11-1.67-3.53-5.54-5.92-1.21-1.92,3.48-2.13,65.14-1.14,72.99-8.02-1.96-20.76,4.71-27.07,4.71h-68.26c-7.24,0-20.76-6.33-29.42-4.71,4.06-26.56,3.23-55.82,0-82.37l127.1,4.68c-14.53-25.04-33.72-47.65-47.07-72.93l2.33-18.82-2.35,7.04-3.51-7.07-3.51,7.07,2.32-18.8-14.11,16.46c-20.99-17.85-19.1-55.37-25.89-80.02,8.09-2.35,8.9-9.63,9.41-16.47,3-2.49,4.38-.85,7.06,0ZM247.46,338.71c-.69-.8-18.88-7.35-19.94-7.26-5.36.43-8.14,7.24-8.28,11.92,4.26-.65,1.7-6.07,8.52-6.38,2.03-.09,27.65,10.97,19.7,1.72ZM254.5,348.08c1.69-3.31-1.49-6.28-2.31-4.68-1.69,3.31,1.49,6.28,2.31,4.68ZM238.04,355.18c-3.31-1.69-6.28,1.49-4.68,2.31,3.31,1.69,6.28-1.49,4.68-2.31Z"/>
    <path class="cls-1" d="M176.86,213.95c9.31.55,6,.72,6.96-5.87,2.25-15.44.93-28.58,16.76-37.48,11.65-6.55,32.14-4.67,39.84,6.86,5.65,8.46,7.75,33.78,9.79,36.2.9,1.07,3.56-.08,4.32.29,9.92,4.75-3.49,21.21-5.62,26.15-3.39,7.84-4.46,15.8-10.85,20.92-2.23,1.79-15.03,8.91-17.83,9.32-8.83,1.3-14.29-2.12-22.19-4.61-1.78-3.24-1.2-7.79-7.06-9.41-.38-2.65-4.95-17.07-6.01-18.74-1.96-3.1-7.55-3.91-8.12-4.79-4.1-6.4.09-16.27,0-18.83Z"/>
    <path class="cls-1" d="M228.64,649.33c-3.46,40.46-6.34,80.74-9.44,121.17-1.37,17.94-9.59,32.51-11.54,47.3-1.66,12.59.92,26.99-.22,39.78-2.12,23.6-10.22,48.92-11.74,71.8l-28.24,2.35c-.03-1.09-1.86-9.22-2.35-11.77,6.23-3.18.26-9.82,0-11.77-3.51-26.39-9.29-51.84-7.02-78.8,1.01-12.04,6.09-25.47,6.99-37.73,3.12-42.68-15.04-101.46-23.5-144.69,18.19-1.78,37.01-3.89,55.4-2.44,10.89.86,21.34,6.24,31.69,4.79Z"/>
    <path class="cls-1" d="M134.49,376.34c-7.42-52.6-26.84-163.58-17.8-211.95,5.17-27.65,32.32-62.23,37.94-89.14,2.89-13.82-4.3-60.65,11.62-63.67,18.68-3.55,25.87,5.31,40.86,12.05,1.33,1.52.47,7.34-.25,9.71-1.04,3.4-15.41,32.7-17.72,36.4-10.17,16.34-14.82,18.13-20.55,40.65-11.5,45.19-16.83,82.34-7.87,127.94.78,3.96.88,8.13,4.36,10.94-4.96,12.73,9.6,21.31,11.77,32.95,1.76,9.41.95,42.28-.25,52.7-1.12,9.67-6.9,25.21-13.87,32.02-7.31,1.31-4.32-3.65-4.7-8.14-.49-5.81,2.5-15-4.69-17.75l-.02,30.59c-6.3,2.83-9.91,6.94-18.83,4.71ZM174.46,25.73c-.43-.33-4.94-.89-4.67,1.14-4.58,10.86,10.62,7.8,11.71,14.34.56,3.37-5.95,5.94-4.63,10.34l21.12-10.6c-15.26,2.25-11.61-3.31-16.2-9.08-1.63-2.05-4.57-1.08-5.34-1.71-2.78-2.29-1.8-4.29-1.99-4.43Z"/>
    <path class="cls-5" d="M271,526.95c.38,3.03,7.73,12.14,4.71,18.83-2.47,1.12-18.7,16.83-21.18,20-14.94,19.06-20.29,45.57-18.83,69.43-2.4-1.15-3.7-3.19-7.05-2.34-.36,5.42.45,11.06-.01,16.46-10.35,1.45-20.8-3.93-31.69-4.79-18.39-1.45-37.2.66-55.4,2.44-11.43-58.41-3.54-66.06,4.71-120.02,8.66-1.62,22.18,4.71,29.42,4.71h68.26c6.3,0,19.05-6.67,27.07-4.71Z"/>
    <path class="cls-1" d="M296.89,710.52l-28.24-2.35c1.86-8.59,3.89-19.62,4.71-28.24.34-3.57,1.09-9.99-2.35-11.77.31-4.54.16-9.55,0-14.12-.09-2.58.71-5.93-2.35-7.06.06-.78-.08-1.58,0-2.35.62-5.8,5.71-29.42,4.7-30.58-5.62-6.43-13.24,24.72-11.76,28.23-13.72-2.11-12.76-.75-25.89-7.06-1.46-23.85,3.89-50.37,18.83-69.43,2.49-3.17,18.72-18.88,21.18-20,22.76-10.33,51.11,8.22,56.25,32.01,7.18,33.27-2.86,72.25-17.36,102.19-2.93,6.05-17.1,26.83-17.7,30.54ZM276.89,606.97v2.35c1.53-.78,1.53-1.57,0-2.35Z"/>
    <path class="cls-4" d="M181.56,282.2c6.8,24.65,4.9,62.17,25.89,80.02,8.96,7.62,13.07,3.2,18.83,14.12,13.35,25.29,32.54,47.9,47.07,72.93l-127.1-4.68c-2.73-22.44-8.57-45.56-11.77-68.25,8.92,2.23,12.53-1.88,18.83-4.71,3.91-1.76,5.15-.54,9.41-4.71,6.97-6.81,12.75-22.35,13.87-32.02,1.21-10.42,2.01-43.29.25-52.7,1.48-.24,3.46.36,4.71,0Z"/>
    <path class="cls-4" d="M256.88,729.34c8.39-4.33,17.15-10.65,26.62-4.83,3.11,1.91,2.67,8.59,8.67,7.17l4.71-9.39c1.21,16.6-1.56,32.93-2.34,49.41-.07,1.56.03,3.14,0,4.71-.09,8.72-1.55,15.63-2.35,18.83-2.04,8.12-5.44,14.18-5.88,15.19l-.19.4c-5.32,8.38-2.69,4.68-10.4,12.65-28.54,14.31-40.62-9.5-37.05-35.87,2.23-16.45,12.6-43.53,18.22-58.27Z"/>
    <path class="cls-4" d="M162.73,952.92c11.73-.43-3.15,14.77,5.92,18.8,4.31,1.92,6.43-12.32,12.94-15.24,5.21-2.33,11.02-1.04,16.44-1.21,8.12,19.44,19.72,47.89,21.22,69.49,2.67,38.27-45.29,13-57.55-3.75-19.07-26.04-6.62-41.76,1.03-68.1Z"/>
    <path class="cls-4" d="M259.23,293.97c1.54.81,3.11,1.65,4.71,2.35,5.51,30.04,22.17,54.66,28.24,84.72.56,6.82-.81,14.56,0,21.18.09.77-.1,1.58,0,2.35l-4.71,11.77c-7.76-5.91-36.23-28.93-37.65-36.57-2.3-12.34,11.2-35.94,11.58-52.05.19-8.32-3.81-18.45-5.33-27.08-.78-4.44-4.46-7.62,3.16-6.68Z"/>
    <path class="cls-5" d="M254.53,213.95c-.76-.36-3.41.78-4.32-.29-2.04-2.43-4.14-27.74-9.79-36.2-7.7-11.52-28.19-13.4-39.84-6.86-15.84,8.9-14.51,22.04-16.76,37.48-.96,6.59,2.35,6.42-6.96,5.87-.77-22.57-8.69-42.1,13.37-58.41,14.94-11.04,30.7-12.61,47.14-3.27,23.8,13.51,16.1,38.93,17.16,61.68Z"/>
    <path class="cls-5" d="M190.98,256.31c.37,2.59.2,6.68,0,9.41-.51,6.84-1.32,14.12-9.41,16.47-1.25.36-3.23-.24-4.71,0-2.17-11.64-16.73-20.22-11.77-32.95,2.49-6.39,7.3-11.47,11.77-16.47.56.88,6.15,1.69,8.12,4.79,1.06,1.67,5.63,16.09,6.01,18.74Z"/>
    <path class="cls-3" d="M195.68,929.38c-.57,8.61-.97,17.95,2.35,25.89-5.43.18-11.24-1.12-16.44,1.21-6.51,2.92-8.64,17.15-12.94,15.24-9.07-4.04,5.81-19.23-5.92-18.8,2.02-6.96,4.94-13.7,4.71-21.18l28.24-2.35Z"/>
    <path class="cls-3" d="M296.89,710.52c-.96,5.91,4.6,17.54,4.69,24.72.12,9.56-3.63,27.07-7.04,36.47.79-16.48,3.55-32.81,2.34-49.41l-4.71,9.39c-6,1.43-5.56-5.26-8.67-7.17-9.47-5.82-18.23.49-26.62,4.83,3.91-10.25,8.56-6.35,11.77-21.18l28.24,2.35Z"/>
    <path class="cls-2" d="M238.05,261.02c.28,1.43-.42,3.64,0,4.71-13.01,14.69-29.26,19.6-40.01,0,7.9,2.5,13.36,5.91,22.19,4.61,2.79-.41,15.59-7.53,17.83-9.32Z"/>
    <path class="cls-2" d="M198.04,265.73c-2.68-.85-4.06-2.49-7.06,0,.2-2.74.37-6.83,0-9.41,5.86,1.62,5.28,6.17,7.06,9.41Z"/>
    <path class="cls-2" d="M261.59,642.27c-1.48-3.51,6.13-34.66,11.76-28.23,1.02,1.16-4.08,24.79-4.7,30.58-2.85,1.17-6-2.19-7.06-2.35Z"/>
    <path class="cls-3" d="M273.36,679.92c-10.14,1.45-2.6-8.16-2.35-11.77,3.44,1.78,2.69,8.2,2.35,11.77Z"/>
    <path class="cls-3" d="M165.09,919.97c-.46-2.37-6.13-8.45,0-11.77.26,1.95,6.23,8.59,0,11.77Z"/>
    <path class="cls-3" d="M271,654.04c-9.61,1.16-2.51-5.11-2.35-7.06,3.06,1.13,2.26,4.48,2.35,7.06Z"/>
    <path class="cls-2" d="M207.45,362.22l14.11-16.46-2.32,18.8,3.51-7.07,3.51,7.07,2.35-7.04-2.33,18.82c-5.76-10.92-9.87-6.5-18.83-14.12Z"/>
    <path class="cls-2" d="M247.46,338.71c7.95,9.25-17.67-1.81-19.7-1.72-6.82.31-4.26,5.73-8.52,6.38.14-4.69,2.92-11.5,8.28-11.92,1.06-.08,19.25,6.46,19.94,7.26Z"/>
    <path class="cls-3" d="M292.18,404.58c.63,4.6,6.03,10.59,4.7,16.46-6.73,1.95-7.08-2.92-9.4-4.69l4.71-11.77Z"/>
    <path class="cls-3" d="M292.18,402.22c-.81-6.62.56-14.36,0-21.18,1.2,5.95,6.08,15.34,0,21.18Z"/>
    <path class="cls-2" d="M238.04,355.18c1.6.82-1.38,4-4.68,2.31-1.6-.82,1.38-4,4.68-2.31Z"/>
    <path class="cls-2" d="M254.5,348.08c-.82,1.6-4-1.38-2.31-4.68.82-1.6,4,1.38,2.31,4.68Z"/>
    <path class="cls-2" d="M174.46,25.73c.19.15-.79,2.15,1.99,4.43.77.63,3.71-.34,5.34,1.71,4.59,5.77.94,11.33,16.2,9.08l-21.12,10.6c-1.32-4.41,5.19-6.98,4.63-10.34-1.09-6.54-16.29-3.49-11.71-14.34-.26-2.02,4.24-1.47,4.67-1.14Z"/>
    <path class="cls-2" d="M153.32,371.63l.02-30.59c7.19,2.75,4.2,11.94,4.69,17.75.38,4.48-2.61,9.44,4.7,8.14-4.26,4.16-5.5,2.95-9.41,4.71Z"/>
    <path class="cls-2" d="M276.89,606.97c1.53.78,1.53,1.57,0,2.35v-2.35Z"/>
  </g>
  <g>
    <path class="cls-1" d="M852.36,213.95c6.9,4.52,3.8,1.65,5.03-3.17,5.19-20.35,2.67-42.47,31.4-44.08,30.16-1.68,30.11,19.29,36.24,41.69,1.34,4.9-1.98,7.73,5,3.2,0,.32,2.43,2.66,2.55,5.78.67,17.71-21.39,29.99-13.83,56.12,1.23,4.24,6.4,5.88,6.58,6.35,1.55,3.88-6.12,47.1-8.3,54.07-4.52,14.47-7.86,19.95-19.94,28.3-2.62-5.22-8.87-29.61-13.42-30.69-5.07-1.21-29.25,9.02-31.28,13.08-4.6,9.15,20.42-8.27,23.5-5.91,2.08,7.71-5.57,3.36-6.79,4.83-.5.6-.78,13.52-.27,14,2.26,2.16,12.68-5.74,9.41,9.4l-9.37,1.14c4.9,6.24,7.09,7.16,14.1,3.57.74,11.08-51.45,73.64-47.06,77.65,41.22-8.3,87.93,6.45,127.09-9.4-.77,5.65-4.71,18.24-4.71,22.36v42.36c0,3.57,3.87,16.54,4.71,22.36-9.59-2.13-23.68,4.71-31.77,4.71h-68.26c-6.3,0-19.05-6.67-27.07-4.71.99-8.65,1.57-68.1-1.14-72.99-2.4-4.33-3.81-.46-5.92,1.21-15,11.85-50.25,51.54-56.28,6.86-3.67-27.22,4.08-79.65,9.5-107.75,3.11-16.13,7.32-27.62,16.18-41.48,8.71,1.37,10.55-3.83,16.47-5.89,10.03-3.48,20.98-6.24,30.6-10.58-12.06,39.37-37.86,74.66-28.22,117.66,6.63,2.2,38.78-27.4,39.6-29.78,5.05-14.6-7.44-32.95-9.08-46.61-1.9-15.82,4.16-28.34,4.77-43.62,7.36-4.06,15.47-20.42,16.48-28.24,12.32,17.46,35.97,16.72,44.74-3.51-5.43-2.92-8.65,5.49-14.01,7.16-15.84,4.93-18.53-2.16-30.73-8.36-.99-7.07-9.91-27.69-18.83-25.89,4.23-5.47-.17-11.02.03-17.38.06-1.86,2.34-3.41,2.33-3.8Z"/>
    <path class="cls-1" d="M965.33,646.98c-7.18,36.5-23.06,93.18-23.58,128.35-.26,17.48,6.14,36.32,7.22,53.93,2.17,35.52-8.14,68.65-7.17,102.48h-30.6c-3.49-42.45-10.63-92.27-18.14-133.66-7.89-43.46-9.7-101.05-12.46-146.39,27.05-10.4,56.5-7.81,84.73-4.71Z"/>
    <path class="cls-1" d="M925.32,13.91c6.51-1.1,10.04-4.52,18.34-.79,11.42,5.13,6.28,46.93,8.61,59.74,6.29,34.51,39.68,69.81,41.27,109.35,2.3,57.21-13.08,136.27-21.15,194.13-5.59.33-11.25-.48-16.48-2.35l-2.38-35.29-7.04,28.23c-10.81-9.99-14.06-20.24-15.82-34.78-1.06-8.77-2.24-44.85-.66-52.29.7-3.32,11.48-17.45,13.42-23.06,1.7-4.91,12.42-59.27,12.35-62.54-.26-13.29-16.54-86.57-21.76-100.8-5.38-14.67-17.47-32.35-25.2-48.94,7.63,2.07,14.85,1.71,21.16,7.06-2.73-9.38-2.33-19.05,9.42-14.11,3.12-9.5-7.6-22.99-7.05-7.07-5.51,1.71-4.68-2.85-7.05-4.71.25-3.89-.18-7.86,0-11.77Z"/>
    <path class="cls-1" d="M920.61,13.91c-2.27,13.77,1.91,9.57,4.71,11.77-1.02,15.54-1.66,14.5-16.48,16.47-2.33-4.82-13.12-8-9.17-18.6,8.66-1.63,11.91-6.9,20.94-9.64Z"/>
    <path class="cls-5" d="M962.98,526.95c7.64,52.75,12.95,66.17,2.35,120.02-28.23-3.11-57.68-5.69-84.73,4.71-.38-6.21.29-12.59-.01-18.82-.62-.68-7.62,1.54-9.4,2.34-.47-8.83.85-18.02-.25-26.81-2.6-20.75-20.22-53.8-39.76-62.62-.92-6,4.21-14.46,4.71-18.83,8.02-1.96,20.76,4.71,27.07,4.71h68.26c8.1,0,22.19-6.83,31.77-4.71Z"/>
    <path class="cls-1" d="M831.18,545.78c19.54,8.81,37.16,41.87,39.76,62.62,1.1,8.79-.22,17.98.25,26.81-8.67,3.9-16.54,10.95-28.24,9.41,6.01-12.36.36-32.48-12.92-37.68-.66,6.53,5.29,11.52,7.17,18.71.72,2.75,3.4,17.09,3.4,18.97-.05,20.68-9.32,36.19-2.35,61.19-8.13,3.43-17.01,5.37-25.89,4.71-.58-1.74-12.74-18.32-15.35-23.48-16.99-33.61-27.17-65.96-22.11-104.58,3.34-25.45,30.43-48.34,56.29-36.68Z"/>
    <path class="cls-4" d="M930.03,279.85c-1.58,7.44-.4,43.52.66,52.29,1.76,14.54,5.01,24.79,15.82,34.78,3.5,3.23,3.92,5.09,9.41,7.06s10.89,2.69,16.48,2.35c-2.97,21.26-6.52,42.29-9.41,63.54-39.16,15.85-85.87,1.1-127.09,9.4-4.38-4.01,47.8-66.57,47.06-77.65,2.98-1.53,10.73-7.07,14.12-9.41,12.08-8.35,15.42-13.84,19.94-28.3,2.18-6.96,9.85-50.19,8.3-54.07h4.71Z"/>
    <path class="cls-4" d="M850,726.99c8.06,20,24.92,66.88,17.05,86.47-10.65,26.5-47.55,12.02-51.44-13.47-.89-5.84-1.93-7.21-2.26-10.64-.16-1.72-.63-2.4-1.21-6.88-2.3-17.96-2.5-41.92-2.15-60.19l8.24,9.37c12.04-15.81,16.28-9.28,31.77-4.66Z"/>
    <path class="cls-4" d="M946.51,955.27c.19.73-.18,1.61,0,2.35l2.35,2.35c6.96,29,14.12,50.95-14.27,71.63-13.19,9.61-48.51,24.5-46.8-4.23.53-8.91,14.53-61.7,19.08-68.32,1.53-2.22,3.23-2.64,4.33-3.79,12.71-6.96,25.39,16.31,27.07,16.43,7.15.5-1.21-24.42,8.24-16.43Z"/>
    <path class="cls-5" d="M868.83,261.02c.18,1.32.17,3.37,0,4.71-1.01,7.82-9.11,24.19-16.48,28.24-.48.26-4.4,1.15-7.06,2.35-9.63,4.34-20.58,7.1-30.6,10.58-5.93,2.06-7.76,7.26-16.47,5.89-2.79-.44-18.77-11.17-18.78-12.94,10.57-6.07,20.37-5.8,30.6-14.07,13.9-11.25,25.01-47.62,39.96-50.65,8.92-1.81,17.84,18.82,18.83,25.89Z"/>
    <path class="cls-5" d="M930.03,211.6c-6.99,4.53-3.66,1.7-5-3.2-6.13-22.4-6.08-43.37-36.24-41.69-28.73,1.6-26.21,23.72-31.4,44.08-1.23,4.82,1.87,7.69-5.03,3.17-.22-10.25-3.01-19.59-2.47-29.48,1.94-35.9,51.64-52.62,72.69-23.08,10.95,15.37,7.01,32.41,7.46,50.2Z"/>
    <path class="cls-3" d="M941.8,931.74c.37,12.73,2.07,13.43,4.71,23.53-9.45-7.99-1.08,16.93-8.24,16.43-1.67-.12-14.36-23.38-27.07-16.43,1.43-1.49,4.97-2.2,4.73-3.53-.4-2.21-4.14-.04-4.79-2.68-1.1-4.43.5-12,.06-17.32h30.6Z"/>
    <path class="cls-3" d="M850,726.99c-15.5-4.62-19.74-11.15-31.77,4.66l-8.24-9.37c.06-3.03,3.26-9.09,2.35-11.77,8.89.66,17.76-1.27,25.89-4.71,2.37,8.5,9.16,14.7,11.77,21.18Z"/>
    <path class="cls-2" d="M925.32,13.91c-.18,3.9.25,7.88,0,11.77-2.8-2.2-6.98,2-4.71-11.77,1.22-.37,3.22.25,4.71,0Z"/>
    <path class="cls-2" d="M925.32,25.68c2.38,1.87,1.54,6.42,7.05,4.71-.54-15.92,10.17-2.43,7.05,7.07-11.76-4.94-12.15,4.72-9.42,14.11-6.31-5.35-13.53-4.99-21.16-7.06-.3-.65.31-1.72,0-2.35,14.81-1.97,15.46-.93,16.48-16.47Z"/>
    <path class="cls-2" d="M842.94,644.62h-2.35c0-1.88-2.68-16.22-3.4-18.97-1.88-7.19-7.83-12.18-7.17-18.71,13.28,5.2,18.93,25.32,12.92,37.68Z"/>
    <path class="cls-3" d="M948.86,959.98l-2.35-2.35c.04.16,2.01.92,2.35,2.35Z"/>
    <path class="cls-4" d="M852.36,293.97c-.61,15.27-6.66,27.8-4.77,43.62,1.64,13.66,14.13,32.01,9.08,46.61-.82,2.38-32.97,31.98-39.6,29.78-9.64-43,16.16-78.29,28.22-117.66,2.66-1.2,6.58-2.09,7.06-2.35Z"/>
    <path class="cls-2" d="M882.96,371.63c-7,3.6-9.2,2.68-14.1-3.57l9.37-1.14c3.27-15.14-7.16-7.23-9.41-9.4-.51-.48-.23-13.4.27-14,1.23-1.47,8.87,2.88,6.79-4.83-3.08-2.37-28.1,15.05-23.5,5.91,2.04-4.05,26.22-14.28,31.28-13.08,4.55,1.08,10.79,25.47,13.42,30.69-3.39,2.34-11.15,7.89-14.12,9.41ZM879.4,336.38c-2.33,1.64,1.27,3.23,2.4,4.61,2.34-1.55-1.1-3.11-2.4-4.61Z"/>
    <path class="cls-2" d="M955.92,373.98c-5.5-1.97-5.92-3.83-9.41-7.06l7.04-28.23,2.38,35.29Z"/>
    <path class="cls-2" d="M868.83,261.02c12.21,6.2,14.89,13.29,30.73,8.36,5.36-1.67,8.58-10.08,14.01-7.16-8.77,20.23-32.43,20.96-44.74,3.51.17-1.33.18-3.39,0-4.71Z"/>
    <path class="cls-1" d="M879.4,336.38c1.3,1.5,4.74,3.07,2.4,4.61-1.13-1.38-4.73-2.97-2.4-4.61Z"/>
  </g>
</svg>