<?xml version="1.0" encoding="UTF-8"?>
<svg xmlns="http://www.w3.org/2000/svg" version="1.1" viewBox="0 0 1080 1080">
  <defs>
    <style>
      .cls-1 {
        fill: #797470;
      }

      .cls-2 {
        fill: #f0b791;
      }

      .cls-3 {
        fill: #c2c1c1;
      }

      .cls-4 {
        fill: #7f6959;
      }

      .cls-5 {
        fill: #6a6a6b;
      }

      .cls-6 {
        fill: #484848;
      }

      .cls-7 {
        fill: #a1a1a1;
      }

      .cls-8 {
        fill: #313131;
      }

      .cls-9 {
        fill: #dea37c;
      }

      .cls-10 {
        fill: #c1c0c0;
      }

      .cls-11 {
        fill: #767372;
      }

      .cls-12 {
        fill: #717070;
      }

      .cls-13 {
        fill: #fff;
      }

      .cls-14 {
        fill: #444;
      }

      .cls-15 {
        fill: #6c6c6c;
      }

      .cls-16 {
        fill: #c7c8ca;
      }

      .cls-17 {
        fill: #282828;
      }

      .cls-18 {
        fill: #ecb48e;
      }

      .cls-19 {
        fill: #666564;
      }

      .cls-20 {
        fill: #9e9e9e;
      }

      .cls-21 {
        fill: #9e9e9f;
      }

      .cls-22 {
        fill: #323232;
      }

      .cls-23 {
        fill: #c3c1c0;
      }

      .cls-24 {
        fill: #c2c2c2;
      }

      .cls-25 {
        fill: #fccba3;
      }

      .cls-26 {
        fill: #292928;
      }

      .cls-27 {
        fill: #facaa2;
      }

      .cls-28 {
        fill: #f8c9a2;
      }

      .cls-29 {
        fill: #8c1d1c;
      }

      .cls-30 {
        fill: #2a2a29;
      }

      .cls-31 {
        fill: #fccaa2;
      }

      .cls-32 {
        fill: #9d9e9e;
      }

      .cls-33 {
        fill: #948075;
      }

      .cls-34 {
        fill: #facaa3;
      }

      .cls-35 {
        fill: #9f9a97;
      }

      .cls-36 {
        fill: #d9a47c;
      }

      .cls-37 {
        fill: #2c78ba;
      }

      .cls-38 {
        fill: #d84140;
      }

      .cls-39 {
        fill: #292828;
      }

      .cls-40 {
        fill: #f4caa5;
      }

      .cls-41 {
        fill: #c1c1c1;
      }

      .cls-42 {
        fill: #efb892;
      }

      .cls-43 {
        fill: #856652;
      }

      .cls-44 {
        fill: #737272;
      }
    </style>
  </defs>
  <!-- Generator: Adobe Illustrator 28.7.1, SVG Export Plug-In . SVG Version: 1.2.0 Build 142)  -->
  <g>
    <g id="Layer_1">
      <path class="cls-16" d="M791.59,376.26s-2.01,4.19,30.63,0l-1.85,18.52s-20.32.61-26.45,4.38-6.18-10.59-6.18-10.59l3.85-12.31Z"/>
      <path class="cls-31" d="M820.77,424.37c.49-.39.98-.79,1.47-1.18,2.06,5.07-1.15,8.05-4.39,11.01.33-3.47,3.37-6.13,2.92-9.83Z"/>
      <path class="cls-16" d="M980.46,351.98l-73.32,12.16-2.57,10.29,77.81-9.75s3.45,3.77,3.83,5.25-.29-17.94-.29-17.94h-5.46Z"/>
      <path class="cls-7" d="M792.69,522.08c3.5,1.65,4.54,4.57,4.26,8.17-.43.18-.87.36-1.31.54-1.35-.7-1.76-2.2-2.78-3.18-.63-.6-1.31-1.13-2.07-1.57-9.2-3.02-15.16.98-19.33,8.87-2.35,1.98-2.4,6.2-6.41,6.56.33-7.18.83-14.37.97-21.55.62-31.15.6-62.33,1.92-93.45.62-14.64.93-29.27.89-43.9-.02-6.22,2.05-9.68,8.02-9.19,6.02.5,12.3.92,17.63,4.5-.23.65-.64,1.15-1.26,1.47-4.59,1.19-10.59.14-10.1,8.23.34,5.48,2.23,8.24,7.82,8.07,1.6-.05,3.25-.35,4.69.74.35.72.35,1.44.01,2.16-.66,1.06-1.62,1.72-2.78,2.12-9.21,1.36-9.28,1.36-9.24,10.62.15,33.1-2.31,66.15-1.47,99.25.08,3.13-1.86,7.16,2.61,9.15,2.67.68,5.63.43,7.91,2.39Z"/>
      <path class="cls-13" d="M787.17,510.54s-6.08,16.91-8.5,16.15,12.71,24.31,12.71,24.31l19.66-2.19s-1.3-16.48,5.76-28.19-29.62-10.08-29.62-10.08Z"/>
      <path class="cls-13" d="M140.41,829.96s-7.05,11.84-8.88,10.87-16.89-13.83-16.89-13.83l5.68-12.86,16.24-5,3.84,20.82Z"/>
      <path class="cls-20" d="M615.17,355.99c6.9-2.94,15.21-2.42,20.85-8.46,3.48-5.92,9.39-5.13,14.85-5.14,2.45,0,3.31,2.26,3.78,4.4.6,2.75.49,5.56.5,8.35.19,51.18-1.4,102.35-1.83,153.53-.21,25.09.33,50.27-1.16,75.32-1.87,31.41.21,62.85-1.44,94.18-1.69,32.12.24,64.24-1.41,96.28-1.34,26.07.02,52.13-1.4,78.13-.98,17.92-.83,35.8-1.17,53.7-.18,9.64-1.83,11.17-11.62,11.22-13.37.08-13.66-.31-12.91-13.66,1.22-21.57,1.32-43.19,1.94-64.78,1.14-39.49,2.01-78.99,3.07-118.48.39-14.39.47-28.8,1.22-43.19.13-2.42.87-5.25-2.01-6.87-1.47-1.91-.57-3.88-.21-5.88,1.39-7.7,2.48-15.37-2.45-22.4-.66-.94-.78-2.13.01-3.18,2.44-1.77,3.47-4.19,3.31-7.16-.86-15.88,1.99-31.65,1.44-47.53-1.25-22.53,1.49-44.97,1.38-67.46,1.65-21.56.46-43.22,2.36-64.77.57-6.51.2-13.02.33-19.53.29-14.87-.64-29.76,1.16-44.62.8-6.64.94-13.51-2.08-19.87-.21-.73-.22-1.48-.06-2.22,1.05-1.69,3.48-2.29,3.8-4.62.34-2.45,1.46-5.38-.56-7.11-1.83-1.57-3.41,1.58-5.4,1.83-4.77.64-9.53,3.6-14.29.02Z"/>
      <path class="cls-21" d="M985.39,348.76c.92-.91,1.84-1.83,2.76-2.74,3.28-3.8,7.89-3.69,12.24-3.8,4.88-.12,5.38,3.83,5.45,7.36.29,13.95.83,27.94-.2,41.85-.67,9.07-1.01,18.1-1.01,27.16-.01,21.17.51,42.35-.13,63.5-.87,28.82-.38,57.68-1.64,86.45-1.14,25.83-.25,51.62-1.07,77.4-1.24,39.05-.57,78.13-1.72,117.16-.72,24.65.19,49.32-1.25,73.9-1.36,23.03-.8,46.02-1.21,69.03-.18,9.99-1.76,11.59-12.06,11.41-12.53-.21-14.27,3.11-12.64-13.48,1.55-15.75.74-31.59.88-47.39.02-2.52-.61-5.12.62-7.55.24-41.83,2.57-83.61,3.29-125.44.55-31.81,1.67-63.63,2.58-95.45,1.02-35.76,1.83-71.54,3-107.29.52-15.79.58-31.58,1.03-47.37.93-32.04,1.73-64.08,2.82-96.12.16-4.71-.5-8.63-4.32-11.63-.38-.34-.52-.69-.42-1.06.1-.37.21-.56.32-.56,2.73,0,4.22-1.07,4.05-4.09-.18-3.18.31-6.41-.85-9.5-.24-.57-.41-1.16-.51-1.77Z"/>
      <path class="cls-17" d="M826.4,318.37c5.99-7.9,14.22-13.34,21.58-19.75,9.59-3.58,19.28-1.87,28.83-.12,14.43,2.65,26.62,9.44,35.92,21.01,3.76,12.55,1.37,24.69-2.4,36.75-1.21,3.87-2.21,7.58,2.85,9.96,2.41,1.13,2.48,4.23-.24,4.53-9.16,1.03-8.23,8.23-9.03,14.05-2.01,14.71-5.15,29.05-11.89,42.41-2.37,4.63-4.78,9.24-7.08,13.9-2.45,4.96-5.34,5.67-8.92,1.1-4.93-2.55-9.47-5.71-14.1-8.76-2.48-1.99-4.92-4.03-7.57-5.82-10.49-3.87-21.25-6.91-32.46-6.56-5.96.19-7.65-2.37-7.25-7.28,1.03-12.7.84-25.47,1.95-38.14,1.11-12.7.63-25.5,2.69-38.12.31-7.15,3.15-13.37,7.12-19.17Z"/>
      <path class="cls-17" d="M255.79,740.09c-4.48,15.01-9.96,29.75-12.89,45.19-.85,4.5-3.26,5.69-7.31,4.98-8.52.17-14.98-4.14-20.89-9.61-5.04-4.67-10.95-6.69-17.84-6.54-7.21.16-14.43.34-21.63-.14-3.92-.26-7.75-1.15-6.16-6.71,5.43-21.73,7.48-43.83,7.41-66.18-.06-17.57,3.52-33.69,18.16-45.4,1.36-.91,2.78-1.63,4.49-1.62,17.11.03,34.21.21,51.22,2.3,2.95.36,5.99.86,8.41,2.92,2.74,2.79,3.12,6.57,4.24,10.05,5.76,16.66,3.35,33.16-1.03,49.62-3.63,6.59-2.99,14.43-6.19,21.15Z"/>
      <path class="cls-38" d="M911.72,319.78c-17.46-18.47-39.79-22.27-63.75-21.15,6.27-13.99,5.01-28.99,5.83-43.71.22-3.93.37-7.89.21-11.82-1.05-25.6,9.16-43.88,34.04-52.74,2.06.27,4.25-.19,6.19.65,13.61,5.92,25.27.59,36.7-6.23,2.2-.93,4.43-1.02,6.68-.2,1.05.49,1.82,1.27,2.28,2.34.17,3.21-2.32,4.89-4.09,6.96-6.17,7.22-10.14,15.52-12.13,24.77-1.38,6.4-.44,12.47,3.18,18.03,3.32,4.13,4.72,9.03,5.68,14.11,2.28,13.48-1.96,26.11-5.03,38.89-3.99,9-7.02,18.43-11.9,27.05-.99,1.4-1.69,3.18-3.88,3.05Z"/>
      <path class="cls-38" d="M412.55,466.32c-8.53-8.53-10.57-19.74-12.6-30.88-1.26-6.92,3.35-11.67,7.07-16.65,2.93-1.62,3.55.94,4.62,2.59,7.15,11.05,15.14,12.73,26.29,5.43,5.51-3.61,9.85-8.5,14.16-13.39,1.68-1.92,3.01-4.16,5.26-5.55,2.75-1.41,5.52-2.44,8.46-.52,1.65,2.79.3,5.43-.61,7.97-2.61,7.29-2.52,14.47.22,21.69,1.32,3.46,2.19,7.06,3.04,10.66,4.6,19.48,22.35,19.37,33.83,13.33,2.43-1.28,4.46-3.39,7.54-2.87,3.12.73,4.24,3.39,5.42,5.86,5.93,12.47,11.62,25.05,18.15,37.22-9.27,18.68-23.65,30.64-44.71,33.63-4.15.59-8.14,1.95-12.34,2.19-11.12-12.1-20.58-25.5-30.47-38.57-4.8-5.18-9.93-10.1-13.42-16.36-3.65-6.12-10.85-7.6-15.77-12.04-1.12-1.54-2.6-2.68-4.15-3.74Z"/>
      <path class="cls-38" d="M258.13,660.41c-1.48-1.21-3.14-1.69-5.1-1.84-19.44-1.45-38.87-3.16-58.4-2.89,1.37-5.98,1.45-11.96-.09-17.91-3.2-12.33-4.29-25.16-9.02-37.15-3.63-9.2-9.55-16.42-17.84-21.66-2.05-1.29-3.9-2.43-4.44-4.93,1.13-13.09,1.47-26.36,8.82-38.01,5.54-2.65,6.77-2.16,6.96,3.26.12,3.48-.26,6.99,1.31,10.24,2.07,4.3,5.13,5.06,8.98,2.23,3.5-2.57,5-6.56,7.25-10.05,2.23-3.46,4.91-7.55,9.78-2.79.87,10.17,3.69,19.49,11.22,26.93,8.03,7.94,18.58,13.69,31.41,6.84,2.7-1.44,5.62-2.29,8.7-.88,5.26,3.82,6.47,9.5,7.13,15.44.83,9.16,2.99,18.17,2.96,27.43-.03,8.35-1.11,16.53-3.24,24.58-1.42,4.62-1.55,9.5-2.84,14.13-.71,2.55-.58,5.6-3.57,7.02Z"/>
      <path class="cls-3" d="M80.9,397.56c-2.04,3.21-2.6,6.66-2.63,10.51-.09,11.83-.64,23.71-.65,35.47,0,11.55-.64,23.09-.69,34.64-.23,54.17-.03,108.37-1.67,162.5-1.23,40.46.26,80.92-1.36,121.32-1.25,31.09-.13,62.17-1.37,93.22-.74,18.52-.92,37.02-1.04,55.54-.03,4.58-1.28,6.98-6.33,6.83-5.79-.17-11.44,1.69-17.32,1.3-4.46-.3-7.54-1.89-7.01-6.6,2.34-20.59-.05-41.33,2.26-61.91.26-2.3.19-4.64.22-6.97.56-39.28.5-78.59,1.94-117.84.65-17.89.12-35.79,1.23-53.63,1.36-21.83.2-43.72,1.54-65.49,1.19-19.3.39-38.57,1.18-57.83,1.73-42.25,2.32-84.53,3.08-126.8.24-13.67.77-27.38.98-41.07.09-5.54,2.15-8.17,7.87-8.03,7.99.2,16.42-1.64,22,6.75,1.67,2.51,4.5,1.29,7.08.87,10.04-1.63,19.95-4.21,30.19-4.56.72,1.12.65,2.14-.43,3.01-9.54,2.81-19.59,2.76-29.21,5.19-3.39.86-6.89.5-10.06-1.35-1.71-1.09-3.11-2.55-4.73-3.75-2.5-1.05-5.09-.18-7.62-.32-9.85-.55-9.65-.48-10.13,8.99-2,39.5-2.18,79.04-3.02,118.57-.83,39.52-1.81,79.05-2.76,118.57-.96,39.99-1.56,79.99-2.75,119.97-1.21,40.69-2.23,81.37-2.87,122.06-.2,12.99-1.25,26.01-1.09,39.04.03,2.49-.42,5.31,1.99,7.08,3.65,2.68,8.69.12,8.73-4.83.07-9.09,1.8-18.04,1.65-27.16-.26-15.36-.59-30.75.03-46.08,1.77-44.2.27-88.43,1.65-132.6.79-25.37-.16-50.75,1.23-76.05,2.33-42.58-.18-85.19,1.47-127.72,1.01-26.06.48-52.11,1.37-78.14.25-7.43-.73-15.44,4.03-22.2,4.32-.71,8.58-3.1,13.03-.47Z"/>
      <path class="cls-17" d="M476.35,537.03c5.18-5.26,12.47-3.89,18.69-5.38,14.17-3.39,24.44-11.23,32.11-23.17,1.6-2.49,3.45-4.82,5.18-7.22,4.66-3.63,9.83-4,15.06-1.76,4.84,2.07,9.8,2.41,14.94,2.5,15.73.28,31.41,1.94,47.18,1.48,5.64-.17,9.93,2.08,11.29,8.12.26,11.48,3.21,23.37-4.83,33.67-6,5.68-10.98,12.49-18.28,16.78-.64.31-1.31.52-2,.67-9.84-1-17.83,2.71-25.02,9.22-2.56,2.31-5.55,5.19-9.82,3.43-7.9-4.36-15.84-8.67-23.69-13.12-2.4-1.36-4.88-1.22-7.42-1.2-8.81.06-17.64-.23-26.43.28-10.73.62-17.6-4.4-22.1-13.53-1.74-3.52-3.25-7.16-4.86-10.74Z"/>
      <path class="cls-41" d="M626.43,669.09c2.78,1.74,2.85,4.42,2.79,7.32-.55,27.65-.21,55.35-1.81,82.93-1.08,18.61-.18,37.18-1.17,55.73-1.64,30.62-2.67,61.24-2.7,91.9q-.01,9.16,8.97,9.15c1.63,0,3.28-.16,4.89.02,5.54.61,7.2-1.89,7.25-7.28.28-33.23.42-66.48,1.44-99.69,1.2-38.82.13-77.68,1.63-116.45,1.2-30.93-.43-61.87,1.31-92.71,1.47-26.04-.26-52.1,1.34-78.06,2.06-33.48-.23-66.98,1.45-100.39,1.15-23.01.71-45.99,1.1-68.98.16-9.38-4.94-12.1-13.43-7.33-1.2.68-2.31,1.52-3.46,2.29.15-3.14,1.21-5.2,4.87-5.54,6.22-.57,12.39-1.59,18.59-2.33,4.72-.56,4.52,2.83,4.56,5.93.12,10.45-.83,20.88-1.05,31.3-.59,28.16.28,56.35-.56,84.49-.91,30.69-.17,61.42-1.52,92.05-1.23,27.92.24,55.83-1.18,83.69-1.97,38.6.03,77.24-1.6,115.79-1.1,26.05.24,52.11-1.3,78.08-1.56,26.51-.64,53-1.07,79.5-.08,4.98-1.55,7.02-6.81,7.16-6.47.18-12.9,1.19-19.43,1.25-6.2.05-9.03-2.06-8.72-8.55,1.81-37.38,2.24-74.79,3.17-112.2.26-10.41.74-20.87.99-31.31.59-24.63.98-49.27,1.56-73.91.11-4.86.51-9.73,1.19-14.54.87-6.11-2.43-7.81-7.59-7.97-7.19-.23-14.56.64-21.5-1.57-8.38-2.67-16.79-5.13-25.37-7.03,1.54-1.68,3.63-1.67,5.66-1.87,2.84-.06,5.68-.03,8.47.69,9.52,5.5,20.15,5.62,30.67,6.24,2.93.17,6.07-.38,8.37,2.2Z"/>
      <path class="cls-3" d="M255.79,740.09c1.47-6.97,2.94-13.94,4.41-20.92.99-1.86.86-4.03,1.74-5.98.77-1.71,1.04-4.15,3.32-3.66,1.94.42,2.38,2.89,2.15,4.73-1.16,9.27-.23,18.64-1.23,27.87-.96,8.84-1.02,17.64-1.05,26.48-.16,41.17-2.87,82.28-2.91,123.46,0,5.12-1.25,10.14-1.28,15.29-.04,5.43,2.93,6.82,7.57,6.52,4.46-.29,9.93,1.09,10.26-6.13.05-1.16.16-2.32.13-3.49-.99-41.89,1.21-83.75,1.67-125.62.41-37.45.14-74.93,1.51-112.34,1.08-29.56.08-59.1,1.1-88.62,2.07-59.76,2.61-119.54,3.01-179.33.09-13.68,1.11-27.41,1.1-41.13-.01-12.5-2.04-13.67-13.34-7.86-1.32.55-2.63.62-3.88-.19,2.47-8.01,9.63-7.37,15.79-8.45,1.81-.32,3.72-.05,5.58-.19,9.4-.73,9.86-.71,9.07,8.68-2.41,28.79-.06,57.65-1.43,86.42-1.7,35.79-.05,71.61-1.58,107.35-1.15,26.74.22,53.47-1.23,80.14-2.02,36.96.21,73.95-1.5,110.85-1.64,35.34.2,70.68-1.45,105.96-1.09,23.25-.58,46.46-1.06,69.68-.1,5.07-1.81,7.51-7.25,8-7.17.64-14.31,1.22-21.52,1.22-4.51,0-6.2-1.76-6.17-6.23.15-24.85,1.21-49.66,2.59-74.46.05-.93.05-1.86.07-2.79.56-32.3,1.2-64.6,1.59-96.9.06-5.07,2.26-9.97.93-15.29-5.17,4.61-1.47,12.52-6.69,16.89Z"/>
      <path class="cls-10" d="M974.4,849.04c-.28,20.19,1.29,40.42-1.25,60.56-.57,4.56.7,6.74,5.93,6.62,18.94-.44,16.14,2.03,16.29-15.65.13-15.58-.85-31.24.27-46.74,1.88-26.02-.24-52.07,1.44-78,1.66-25.57.08-51.11,1.19-76.62,1.72-39.49.35-79.01,1.71-118.47.8-23.23-.28-46.48,1.2-69.64,2.32-36.24-.07-72.51,1.49-108.71.72-16.71.88-33.4,1.11-50.11.13-9.49-2.55-11.21-11.78-7.83-1.3.48-2.57,1.04-3.86,1.57.46-2.74,2.32-3.44,4.84-4.12,5.92-1.61,12.04-.74,17.97-1.97,3.35-.69,4.04,1.68,3.97,4.2-.62,23.23,1.23,46.5-1.13,69.71-.12,1.15-.14,2.32-.14,3.48.14,44.19-1.66,88.35-1.71,132.54-.04,36.49-.93,72.99-1.48,109.49-.49,32.72-.16,65.48-1.42,98.16-1.45,37.68-.16,75.35-1.47,112.99-.47,13.46-.79,26.92-.9,40.39-.04,4.7-1.63,6.48-6.49,6.77-7.64.45-15.24,1.42-22.93,1.17-3.22-.1-5.65-.91-5.54-4.62.58-21.36,1.22-42.71,1.88-64.07.01-.37.53-.73.81-1.1Z"/>
      <path class="cls-31" d="M257.28,572.19c-2.36-.16-4.5.36-6.67,1.44-12.76,6.38-21.94,5.07-32.32-4.67-8.67-8.14-14.11-17.72-12.7-30.14-4.25-4.75-2.87-10.27-1.21-15.2,4.1-12.14,6.6-24.15,1.58-36.63-.9-2.24-.32-4.61.98-6.68,4.55-7.23,2.27-13.64-2.33-19.79-4.53-10.27-3.88-21.34-4.45-32.1-.95-17.87-4.12-35.31-7.95-52.69.12-3.86,1.83-7.42,2.2-11.25,8.77-7.46,18.82-6.05,28.94-4.17,1.33,2.69-1.68,2.64-2.49,4-2.7,2.1-1.29,5.12-1.7,7.73-.49,5.56-.75,11.12-2.42,16.53-1.61,5.23.41,10.07,2.48,14.81,6.64,15.16,13.52,30.53,14.95,47.02,1.79,20.51,9.95,39.99,10.02,60.4.06,19.15,6.01,36.38,11.77,53.96.78,2.37,2,4.77,1.29,7.44Z"/>
      <path class="cls-10" d="M412.55,466.32c2.06-.1,3.26,1.15,4.25,2.72,2.38,2.99,2.08,6.56,2.1,10.03.17,34.87-.82,69.72-2.66,104.54-.06,1.16-.13,2.33-.1,3.49.97,35.82-1.08,71.6-1.7,107.4-.74,42.75-1.63,85.52-2.9,128.26-.82,27.63-.27,55.32-2.36,82.92-.34,4.51.26,8.61,6.56,8.01,3.27-.31,5.16-1.74,5.45-5.12.14-1.62.25-3.25.24-4.88-.32-49.53,1.93-99.03,1.58-148.58-.25-35.33.47-70.7,1.62-105.99,1.38-42.8.37-85.57.97-128.35.16-11.63,1.77-23.17,1.72-34.82-.02-5.85,1.6-6.57,6.18-4.37,3.89,5.8,9.83,10.11,12.39,16.88-3.12-2.37-5.52-3.86-5.47,2.28.14,18.32.75,36.68-.23,54.95-2,37.41.24,74.87-1.49,112.22-1.44,31.15.16,62.29-1.27,93.39-1.71,37.18-.29,74.38-1.5,111.53-.41,12.75-.85,25.5-.95,38.26-.03,4.24-1.28,6.48-5.96,6.51-4.61.03-9.21,1.03-13.83,1.14-9.82.22-9.93.09-9.77-9.47.45-27.64,1.04-55.29,1.47-82.93.46-29.74,1.12-59.48,1.87-89.2.49-19.5.29-39.02,1.11-58.51,1.76-41.55,2.18-83.11,2.99-124.68.5-25.97,1.73-51.95,2.46-77.93.1-3.63-.39-6.88-2.77-9.7Z"/>
      <path class="cls-31" d="M510.71,458.75c-6.05.26-9.29,6.02-15.4,7.14-14.69,2.67-25.01-3.18-28.65-17.93-.39-1.58-.56-3.26-1.24-4.71-5.53-11.93-4.99-23.81.11-35.69-1.37-2.8.09-3.93,2.61-4.44,7.92,5.1,12.52,4.63,17.72-2.57,5.75-7.95,15.22-11.29,21.76-18.2.41-.44,1.31-.04,1.84.5,1.52,6.26-3.34,8.58-7.27,11.16-3.5,2.29-7.17,4.28-9.95,7.48-2.44,2.82-2.9,5.18,1.35,6.85,14.8,5.82,30.02,9.26,46.02,8.66,3.24-.12,6.27-1.1,7.42-4.22,3.56-9.74,8.31-19.19,7.66-30.04-.17-2.87-.76-5.48-2.45-7.81-.61-3.15,3.96-6.08.4-9.36,10.54-7.16,21.94-8.81,34.14-5.27q-3.39,5.28-.92,9.76c-10.53,8.95-13.71,20.04-11.4,33.66,2.48,14.6.78,29.16-3.68,43.33-2.03,6.46-6.54,9.79-14.25,10.03-10.22.32-20.44.16-30.67.07-5.14-.05-10.2.25-15.17,1.61Z"/>
      <path class="cls-31" d="M925.56,237.15c-6.29-7.84-4.74-16.43-2.02-24.89,3.16-9.82,8.69-18.28,16.23-25.38,3.95-1.93,9.78.12,11.94-5.64.13-.35.83-.59,1.24-.48,4.15,1.16,7.37,3.99,12.41,3.94,6.14-.05,4.91,5.91,4.73,10.22-.05,1.23.59,2.19,1.16,3.19-1.13,2.46-1.7,4.68-1.31,7.74,1.53,11.97-1.07,23.96-5.28,34.75-5.97,15.32-8.87,31.04-10.76,47.03-1.6,13.57-7,25.81-11.31,38.46-1.49,4.37-3.22,8.67-4.68,13.05-3.22,9.66-.42,15.12,9.53,18.81-1.77,3.97-6.69,2.22-9.1,5.03-4.51,2.8-10.44.71-14.72,4.32-6.44,3.05-7.29,2.74-11.16-4,9.98-11.87,8.51-26.58,9.49-40.46.77-10.88,1.3-21.71,3.84-32.35,2.8-13.56,6.3-27.04,5.22-41.09-2.39-13,.93-24.45,9-34.72-4.79-2.74-5.72-2.03-6.8,3.54-1.31,6.73-2.27,13.77-7.64,18.93Z"/>
      <path class="cls-24" d="M793.98,598.96c-4.2.64-4.03,3.78-4.02,6.89.02,8.84.07,17.68,0,26.52-.49,56.95-1.13,113.9-1.92,170.83-.42,30.19-.28,60.4-1.1,90.59-.18,6.47-1.49,12.89-1.15,19.42.12,2.31-.51,4.1-3.35,4.27-6.47.38-12.95.8-19.41,1.34-5.2.44-7.11-1.85-6.84-6.95.76-14.6-.68-29.26,1.29-43.86.68-5.03.12-10.22.21-15.34.52-31.59.36-63.22,1.84-94.77.98-20.92-.12-41.85,1.31-62.69,1.57-23,.02-46.04,1.48-68.96,1.14-17.9.53-35.76,1.19-53.62.15-4.15.8-8.29,1.23-12.43,1.84-.47,2.3.9,2.87,2.13,1.46,11.13,1.2,22.33.37,33.44-.62,8.37-1,16.71-.99,25.08.05,28.15-1.23,56.28-1.73,84.42-.63,35.56-1.41,71.15-2.77,106.69-.91,23.74-.65,47.45-1.16,71.16-.17,7.9-1.8,15.72-1.33,23.67.23,3.81.74,6.91,5.68,6.96,4.91.04,6.57-2.53,6.59-6.95,0-2.09.08-4.19.07-6.28-.28-60.73,1.55-121.45,1.82-182.18.12-25.78-.25-51.67,1.26-77.42.97-16.5.19-33.02,1.77-49.46.52-1.27,1.3-3.14,2.75-2.31,4.95,2.86,11.26,3.87,14.06,9.81Z"/>
      <path class="cls-25" d="M120.12,378.51c.09-.91.18-1.82.28-2.73,7.5-3.44,14.75-8.27,23.58-4.18.46,2.29-1.97,2.58-2.75,4.01-.3.47-.6.94-.84,1.44.5,4.62,6.08,1.1,7.28,4.56,1.33,5.5-2.36,8.83-5.78,11.76-5.29,4.55-6.34,9.68-4.44,16.14,2.11,7.16,5.06,13.9,8.77,20.34,4.07,7.08,7.01,14.49,8.39,22.63,1.52,8.99,5.1,17.21,11.12,24.24-1.93,8.37-2.22,16.73-.2,25.16.81,3.37,1.2,6.82,4.09,9.22,2.06,2.42,3.78,5.07,5.26,7.88q5.54,9.98-1.4,16.97c-4.23,6.11-5.04,13.11-5.94,20.26-.76,6.02-2.82,11.88-4.3,17.82-3.68-.82-5.28-3.65-6.29-6.83-4.91-15.42-9.79-30.75-11.82-47.02-1.56-12.53-6.19-24.64-8.62-37.09-3.85-19.71-12.65-38.22-14.03-58.51-.72-10.62-1.38-21.24-2.15-31.86-.18-2.45.92-5.17-1.31-7.26-.51-.43-.77-.98-.79-1.64.32-1.88.4-3.84,1.87-5.32Z"/>
      <path class="cls-31" d="M169.08,767.25c-.02,3.83,1.86,5.18,5.66,5.01,7.43-.33,14.88-.22,22.32-.44,5.78-.17,11.34.78,15.62,4.75,6.71,6.23,14.13,11.04,22.91,13.68-2.14.59-4.66.03-6.03,2.63-3.53,6.7-10.4,8.42-16.79,9.93-24.63,5.81-47.77,15.48-70.5,26.26-9.71,4.61-9.67,4.7-13.63-6.11-.64-1.74-1.16-3.53-2.72-4.74-1.62-1.29-2.17-3.38-3.62-4.8-.95-1.14-2.03-2.23-1.97-3.88,5.76-10.04,13.15-18.82,21.26-26.99,4.87-4.91,11.36-7.08,17.86-8.52,4.43-.98,7.23-3.38,9.62-6.79Z"/>
      <path class="cls-31" d="M862.94,432.65c4.97,2.37,9.17,5.78,13.07,9.58-3.05-.71-6.07-1.36-6.64,3.15-.06.43-.29.97-.62,1.22-13.9,10.39-16.93,28.56-28.56,40.32-11.44,11.56-18.2,25.95-26.87,39.21-5.48,8.38-6.58,8.55-16.36,4.11-2.02-2.73-3.6-5.74-5.33-8.65-.43-9.35,4.39-17.39,6.64-26.06,2.2-8.51,5.47-16.73,7.98-25.17,2.51-8.44,6.59-15.6,13.62-21.29,5.94-4.81,10.13-11.42,15.32-17.05,7.03-7.62,12.76-8.48,21.89-3.03,1.98,1.19,3.6,2.96,5.87,3.66Z"/>
      <path class="cls-27" d="M456.85,409c-5.48,9.69-12.88,17.57-23.08,22.12-11.18,4.99-18.44,1.97-23.62-9.04-.74-1.57-1.36-2.88-3.14-3.29,1.82-2.05,3.36-4.47,5.51-6.06,4.21-3.12,4.91-6.79,2.92-11.33,11.85-4.5,17.4-13.4,16.56-26.57-.29-4.47.31-8.1,6.25-7.07,2.62.45,3.27-1.21,3.23-3.28-.09-4.23,1.58-7.7,4.66-10.39,3.75-3.28-.43-8.28,2.75-11.59,2.42,7.42,4.72,14.89,7.31,22.25,2.32,6.6,5.71,12.39,13.36,14.01-.52,2.83-6.01,4.37-2.15,8.33-.42,8.8-5.86,15.17-10.57,21.9Z"/>
      <path class="cls-26" d="M448.89,342.5c.81,5.4,2.37,10.74-3.66,14.77-2.72,1.81-1.47,5.62-1.44,8.58.04,4.02-.38,6.65-5.43,3.74-4.52-2.61-5.68.77-4.84,4.11,3.03,12.08-3.93,19.65-11.39,27.25-2.36,2.41-4.34,1.9-6.67.45-4.68-10.48-12.13-19.63-14.54-31.23-1.43-6.89.27-12.33,5.72-16.66,8.44-6.71,17.85-11.61,28.12-14.88,5.56-1.77,10.55-1.5,14.14,3.88Z"/>
      <path class="cls-30" d="M938.63,185.65c-2.42.07-4.84.14-7.26.21-4.31,1.89-8.82,2.31-13.39,1.49-2.92-.52-5.5-1.64-3.69-5.5,2.73-5.34,5.58-10.63,8.17-16.03,4.62-9.64,18.03-16.74,28.81-15.1,11.34,1.72,21.95,11.68,23.29,22.75.89,7.35,3.77,15.06-1.5,22.08-3.24,1.21-3.31-.34-3.26-3.08.14-7.31-1.12-8.4-8.48-6.99-2.86.55-3.59-.87-4.77-2.71-1.53-2.38-4.58-3.22-5.55-.56-2.73,7.46-7.88,3.74-12.36,3.44Z"/>
      <path class="cls-29" d="M794.03,526.7c1.82.86,1.15,2.7,1.61,4.09.76,8.22,4.06,10.55,11.18,7.06,4.5-2.2,5.35-.22,5.7,3.43.09.92.17,1.93-.12,2.77-5.21,15.19-2.22,30.85-2.67,46.31-.11,3.67.66,7.65-3.64,9.69-4.23,2.02-8.36,2.48-12.11-1.09-5.11-3.15-10.21-6.3-15.31-9.45-.56-.46-.97-1.03-1.23-1.71-.92-4.02-1.64-8.07-2.12-12.18-.81-6.9-2.29-13.55-7.98-18.48-3.82-3.31-4.06-8.03-4.15-12.68,0-1.38.52-2.46,1.88-3,2.35-1.77,2.14-5.44,5.06-6.78.59-.46,1.26-.63,2-.52,8.25,4.12,14.64,10.57,17.21,19.12,3.17,10.54,6.77,20.6,13.25,29.57,1.72,2.38,2.68,5.29,3.6,8.66.1-6.03.15-11.53-.78-17.05-1.48-8.85-.34-17.54,2.26-26.09.97-3.19,1.7-5.54-3.65-5.28-9.8.48-13.9-6.71-9.98-16.39Z"/>
      <path class="cls-28" d="M560.85,575.36c4.85-1.17,8.97-4.03,12.14-7.44,6.76-7.27,14.9-7.95,23.8-6.69.58.72.54,1.41-.13,2.05-5.05,1.39-6.51,4.58-6.22,9.82.88,15.93-1.1,31.97,1.85,47.84.62,3.35-.59,5.9-3.63,7.52-4.13.81-8.3,1.15-12.52,1.02,1.93-7.45-1.22-14.19-3.85-20.6-4.11-10.04-9.8-19.46-9.43-30.86.03-.86-1.32-1.76-2.02-2.65Z"/>
      <path class="cls-38" d="M120.33,809.56c.84.98,1.69,1.95,2.53,2.93-2.2,2.69-5.08,1.73-7.76,1.32-3.56-.54-5.28.86-5.49,4.38-.76,12.83-6.92,24.55-7.68,37.43-.26,4.45-3.11,8.19-5.53,11.89-4.6,4.73-3.78,10.62-3.32,16.33.35,4.37,3.18,6.44,7.48,6.54,4.38.1,6.86-2.16,7.75-6.34,1.09-5.13-1.25-10.02-1.07-15.1.03-2.92-.34-5.89.36-8.72.71-2.88,1.73-5.91,5.9-4.11-4.84,4.88-3.09,10.85-2.4,16.46.46,3.7,1.03,7.37.82,11.09-.54,9.52-7.84,13.99-16.58,10.22-12.82-5.52-17.57-16.04-12.54-29.06,2.59-6.69,1.88-13.25.69-19.84-1.1-6.08.79-9.98,6.73-11.81,5.46-1.68,8.06-4.71,8.12-11.05.09-9.7,6.26-14.05,15.78-12.73,2.04.28,4.14.13,6.21.19Z"/>
      <path class="cls-38" d="M113.5,856.1c-3.63.07-4.49,2.43-4.54,5.47-.04,2.72-.1,5.43-.15,8.15-3.41-6.85-8.96-2.36-13.63-2.56,6.52-16.44,10.13-33.62,12.4-51.07.55-4.21,2.26-5.12,5.74-4.63,3.17.44,6.24,1.85,9.54,1.03,2.67,1.04,2.98,3.33,3.05,5.75-2.33,1.56-2.88,4.23-3.6,6.58-1.91,6.19.73,9.76,7.21,10.37,1.5.14,3.54-.9,4.35,1.06.89,2.14-.93,3.49-2.34,4.58-6.22,4.85-10.9,11.51-18.04,15.27Z"/>
      <path class="cls-2" d="M508.85,382.57c-7.63,9.39-20.19,13.51-26.14,24.91-1.7,3.25-13.06-.32-14.42-4.15-.33-3.65,2.69-4.92,4.83-6.81,3.6-2.95,7.71-5.69,4.54-11.35.42-3.13-1.6-5.14-3.33-7.28,6.21-1.15,10.14-6.56,16.43-8.15,8.69-2.2,16.28,3.34,24.58,1.91.31,3.49-2.67,2.34-4.26,2.81-2.81.83-5.78,1.14-8.02,3.57,2.9,2.54,6.35-.55,8.89,1.68.05,2.13-.73,3.35-3.1,2.86Z"/>
      <path class="cls-29" d="M576.14,629.47c3.4-2.65,7.11-2.96,11.08-1.54,3.13.41,3.8,6.33,8.3,3.68,2.14-1.63,4.51-2.35,7.15-1.64,2.37.64,4.4,2,4.6,4.57.27,3.51-2.62,2.34-4.45,2.47-4.26.31-5.89,3.16-6.66,6.78-.96,4.5-1.37,9.15-3.05,13.45-1.03,2.62-1.68,6.15-6.02,4.77-2.81-.13-5.61-.25-8.42-.38-4.96-.42-9.22-1.44-7.02-8.07,2.73-7.8,3.73-15.92,4.5-24.09Z"/>
      <path class="cls-11" d="M511.32,380.04c-3.9.38-10.03,3.29-10.9-1.19-.87-4.47,5.81-4.9,9.84-5.97,1.69-.45,3.71.44,5.1-1.23,12.42-2.02,24.85-4.05,37.29-6.07,1.95.52,4.14.51,4.23,3.55.09,3.14-2.62,3.42-4.22,4.85-2.19,2.56-5.42,2.19-8.26,2.88-8.51,2.04-17.3,2.36-25.85,4.23-2.46.54-5.04.86-7.22-1.04Z"/>
      <path class="cls-44" d="M585.28,368.74c-1.94-.65-4.95.45-4.89-3.36.07-4.46,4.4-3.23,6.4-5.07,3.84-.53,7.7-1.06,11.55-1.59,5.61-.95,11.28-1.52,16.84-2.74,0,0,0,0,0,0,5.22,1.15,10-1.83,15.12-1.58,2.63,3.21,4.24,6.72,3.31,11-.49.09-.99.18-1.48.26-11.88-2.46-23.13,2.43-34.76,2.96-4.02.18-8.03,2.54-12.08.11Z"/>
      <path class="cls-15" d="M219.63,363.05c1.25-.92,2.5-1.83,3.74-2.75,12.9-2.09,25.8-4.22,38.72-6.24,3.4-.53,5.27-3.32,7.97-4.86.88-.09,1.76-.18,2.64-.27,5.54,4.83,4.78,14.97-1.42,19.18-1.26.07-2.36-.27-3.17-1.29-.54-1-.65-2.04-.23-3.1,2.96-2.03,3.91-4.68,2.44-8.31-3.83,1.69,1.8,7.02-3.22,7.97-7.33-1.64-14.24,1.13-21.31,2.04-7.12.91-14.23,2.08-21.36,2.93-3.51.42-7.02-.11-4.79-5.31Z"/>
      <path class="cls-12" d="M120.12,378.51c-.22,1.89.4,3.96-1.18,5.57-8.95,3.02-18.36,3.49-27.6,4.85-4.7.69-8.19,2.27-9.04,7.39-.47.42-.93.84-1.4,1.26-3.78-.9-7.28,3.33-11.16.58-.3-.62-.31-1.24.02-1.85,2.17-2.09,5.47-.77,8.08-2.74.1-3.34-6.02-4.25-3.85-8.43,1.46-2.81,4.4-3.13,7.07-3.83,3.75,1.66,7.67,1.64,11.44.46,7.51-2.36,15.6-1.33,23.02-4.16,1.61-.61,3.16.1,4.59.92Z"/>
      <path class="cls-40" d="M914.29,181.85c-.37,2.97.84,4.11,3.9,3.98,4.38-.19,8.78,0,13.18.03-10.29,9.71-25.74,12.25-37.46,6.31-1.79-.91-3.9-1.21-5.86-1.79,6.63-.81,12.83-4.25,19.73-3.25,4.2.61,3.77-4.24,6.51-5.28Z"/>
      <path class="cls-35" d="M146.65,381.05c-2.02.02-4.16.45-6.04-.04-3.67-.97-4.37-2.97-1-5.46,1.73,1.58,3.85,1.46,5.92,1.21,14.44-1.71,28.83-3.7,43.01-6.98-13.51,1.92-26.98,4.06-40.53,5.69-2.71.33-5.45,1.45-8.11-.19-.07-2.81,2.98-2.17,4.08-3.68,16.81-2.37,33.63-4.75,50.45-7.12,2.59,3.58,1.19,6.6-1.33,9.47-4.42,3.57-9.96,3.42-15.07,3.88-10.47.95-20.61,5.23-31.37,3.23Z"/>
      <path class="cls-29" d="M763.18,544.47c.64.21,1.87.56,1.85.62-1.72,7.4,3.94,10.95,7.88,15.46,2.17,2.48,2.65,5.72,3.08,8.94.81,6.09,1.78,12.15,2.68,18.23-4.61-.36-4.83-4.47-5.79-7.44-2.04-6.34-3.78-12.76-6.68-18.79-.5-.43-.99-.87-1.49-1.3-3.88-4.91-7.35-9.87-1.54-15.72Z"/>
      <path class="cls-43" d="M938.63,185.65c4.27-1.09,10.32,2.46,12.31-4.75.14-.51,2.08-1.16,2.36-.89,4.15,3.97,9.65,3.28,14.54,4.69,2.7.78,4.3,4.18,3.16,7.51-.76,2.21.25,2.92,2.05,3.35-.6.85-1.2,1.7-1.81,2.55-4.07.42-3.75-1.4-2.93-4.58,1.7-6.63-.3-8.48-6.98-6.78-2.79.71-4.32.28-5.41-2.49-1.19-3.02-3.92-3.61-4.69-.36-1.39,5.84-4.22,4.82-8.03,2.99-.93-.45-2.28-.03-3.43,0-.73-.08-1.28-.34-1.14-1.23Z"/>
      <path class="cls-1" d="M474.33,377.9c5.62.1,7.07,2.44,3.91,7.26-1.85,2.36-4.78,1.9-7.2,2.79-1.55.21-3.07.26-4.34-.87-4.85-3.48-4.43-4.7,2.86-8.32,1.59-.29,3.18-.58,4.77-.86Z"/>
      <path class="cls-21" d="M938.15,361.46c2.33-3.21,6.32-2.04,9.3-3.51,10.07-1.6,20.13-3.35,30.24-4.74,3.35-.46,4.6-3.92,7.7-4.44.18.22.36.45.54.67-.57,4.83-4.28,6.44-8.18,7.25-12.44,2.57-24.9,5.14-37.63,5.98-.79-.18-1.45-.58-1.97-1.21Z"/>
      <path class="cls-3" d="M82.3,396.31c.1-5.69,3.16-7.71,8.67-8.24,9.36-.91,18.65-2.62,27.96-3.99.05.46.09.93.09,1.39-8.18,1.38-16.33,2.91-24.54,4.08-5.03.72-9.72,1.62-12.19,6.76Z"/>
      <path class="cls-20" d="M615.18,355.99c-5.4,2.2-10.95,3.51-16.84,2.74,5.42-2.11,10.99-3.27,16.84-2.74Z"/>
      <path class="cls-37" d="M571.64,653.56c-1.01,5.6,3.17,6.7,7.03,8.07-1.8.07-3.61.14-5.41.21-3.23-2.23-4.51-4.85-1.62-8.28Z"/>
      <path class="cls-34" d="M619.44,512.61c4.33.93,7.86,4.26,12.53,4.19-.52,22.73-1.03,45.45-1.55,68.17-5.81,11.89-9.34,24.53-12.45,37.31q-2.17,8.92-11.44,9.61c-1.8-.83-3.83-1.28-5.01-3.1-1.15-2.65-1.03-5.46-1-8.23.27-19.51-.68-38.94-3.51-58.27-.02-.37-.09-.73-.21-1.08,0,0,.23-.03.23-.03,7.29-3.21,11.72-9.56,16.73-15.27,7.42-10.16,6.24-21.79,5.69-33.32Z"/>
      <path class="cls-38" d="M602.64,629.5c1.39.42,2.78.84,4.16,1.26,3.6,1.59,4.06,6.12,7.46,8.01,3.37-.91-.31-6.46,3.45-6.12,3.47.31,6.09,3.01,6.55,6.96,7.34,9.34,5.9,19.33,2.15,29.48-6.67-.74-13.39-.59-20.08-1.02-7.12-.47-13.59-1.62-19.26-6.06,7.35-4.18,5.53-12.01,6.97-18.36,1.59-7.05,5.12-9.93,11.76-7.85-2.56-5.66-4.44-6.03-10.64-2.08-1.59-2.06-3.13-4.78-.82-6.56,3.16-2.45,5.72.73,8.28,2.36Z"/>
      <path class="cls-14" d="M633.6,365.41c-1.13-3.66-3.79-6.85-3.31-11,1.68-1.47,2.89-4.62,5.38-3.7,3.08,1.13,1.68,4.58,1.39,6.79-.37,2.79,2.57,7.49-3.46,7.91Z"/>
      <path class="cls-19" d="M939.69,361.75c10.82-1.87,21.64-3.74,32.45-5.62,5.23-.91,10.39-1.99,13.79-6.69,2.65,2.43,3.88,14.71,1.53,16.37-2.2,1.54-3.11-.82-4.45-1.79-.75-2.59-2.25-3.84-5.13-3.36-10.49,1.75-20.99,3.4-31.49,5.09-1.83,1.32-3.92.63-5.89.67-1.42.03-3.62.73-3.86-1.44-.18-1.63,1.55-2.58,3.05-3.21Z"/>
      <path class="cls-42" d="M792.69,522.08c-2.78.03-5.56.06-8.34.09-2.94-1.31-2.96-3.94-2.78-6.51,1.08-15.25,1.99-30.51,4-45.67.7-5.26,4.22-9.19,7.47-13.13,6.62-9.06,16.27-15.14,23.44-23.67,3.95-2.75,5.13-6.73,5.01-11.31.3-.65.73-1.17,1.32-1.58,3.44-1.23,6.71-1.16,9.81,1.03,3.24,2.29,7.13,1.28,10.68,1.98,4.66.93,9.45,1.62,13.61,4.24,1.7,2.07,4.77,2.52,6.03,5.11-14.73-9.43-25.39-4.6-33.97,9.23-5.42,8.73-16.16,13.14-19.31,23.95-5.48,18.8-12.96,37-16.97,56.25Z"/>
      <path class="cls-8" d="M856.91,427.54c-6.64-1.6-13.18-3.54-20.18-3.33-4.91.15-8.85-6.42-14.53-2.42-6.41,2.01-8.51.99-8.83-5.04-.33-6.23-.56-12.49.7-18.73.66-3.26,1.81-7.16-1.8-9.56-2.33-1.55-11.65,1.34-13.3,3.96-.98,1.56-1.45,3.44-3.47,4.07-.46.05-.93.03-1.37.16-4.42,1.27-9.53,1.86-11.96-2.28-2.23-3.81-2.2-9.38.12-13.3,2.4-4.06,7.28-3.02,11.44-2.26,4.56,5.26,14.77,6.56,20.27,2.66,2.65-1.87,2.68-4.56,2.9-7.4,1-12.66-.03-25.52,3.64-37.92-1.29,23.1-2.59,46.2-3.88,69.3-.09,1.62,0,3.26-.19,4.88-.68,6.16-.52,9.21,8.21,9.07,10.91-.17,22.49,1.47,32.21,8.15Z"/>
      <path class="cls-20" d="M269.85,367.23c3.4-.49,4.51-2.68,4.18-5.8-.45-4.16,1.45-8.58-1.33-12.49,1.35-2.66,3.63-4.2,6.39-5.05,7.52-2.31,10.62-.21,10.36,7.61-1.51,46.24-.47,92.51-1.77,138.72-.67,23.69.36,47.42-1.22,71.03-2.04,30.44.36,60.91-1.42,91.28-1.74,29.75,0,59.49-1.34,89.18-1.3,28.7-.03,57.45-1.51,86.09-1.4,27.19-.61,54.35-1.03,81.52-.08,5.16-1.88,7.37-6.99,6.81-.23-.03-.47,0-.7,0-16.01.22-17.13-1.15-14.28-17.32.36-2.05.82-4.11.86-6.17.55-27.87.32-55.78,1.74-83.61,1.48-28.99.76-58.01,2.5-86.98.23-3.8,2.59-7.48.75-11.83-3.26,2.34-2.05,6.78-4.84,8.96.27-8.6,4.15-16.49,4.21-25.29.05-8.53-1.75-16.56-3.28-24.75.47-1.5,2.99,1.25,2.82-1.26-.65-9.55,1.01-19.18-.98-28.68,3.53-16.07,3.77-32.14.11-48.23-.3-1.31.01-2.76.04-4.14,2.46-1.56,1.9-4.05,1.84-6.31-.61-25.6,1.2-51.15,1.72-76.73.75-36.73,2.16-73.44,2.69-110.18.12-8.77,1.38-17.54.49-26.35Z"/>
      <path class="cls-9" d="M925.56,237.15c1.97-5.34,3.92-10.7,5.95-16.02.43-1.12.96-2.22.19-3.27-3.9-5.34,1.6-5.87,4.05-6.83,3.8-1.5,6.6,1.13,8.52,4.29.8,1.32-.22,2.4-1.53,2.26-5.31-.56-5.49,3.34-6.8,6.88-2.98,8.09-5.25,16.24-4.94,24.94-.99-4.45-3.29-8.32-5.44-12.25Z"/>
      <path class="cls-20" d="M433.49,481.58c-3.79-1.79-4.24.26-4.25,3.42-.07,21.36-1.77,42.67-1.46,64.06.4,27.45,1.02,54.94-.23,82.34-1.32,29.05.25,58.12-1.42,87.08-1.43,24.88-.98,49.71-.92,74.54.09,38.58-2.69,77.12-1.45,115.69.27,8.28-4.67,7.18-9.91,7.53-5.59.38-7.29-1.59-7.01-7.11,1.3-25.06.73-50.18,1.87-75.22.78-16.96.32-33.89,1.03-50.82,1.02-24.37.65-48.79,1.77-73.13.89-19.29-.29-38.6,1.21-57.79,1.79-23,.26-46,1.35-68.96,1.81-38.05,2.67-76.1,2.71-114.18,5.94,3.68,13.37,5.38,16.7,12.54Z"/>
      <path class="cls-18" d="M173.49,535.95c4.91-5.49,4.34-10.98.03-16.48,9.03-1.03,16.66-10.91,16.11-20.87-.08-1.39-.5-2.73-.62-4.11-.22-2.44.11-4.7,2.51-5.98,2.28-1.21,3.95.18,5.58,1.55.87.73,1.53,1.77,3.18,1.81,2.51-5.51,4.46-11.4,6.83-17.09,2.51-6.05-1.93-9.74-5.97-13.27,1.16-2.15,2.77-1.92,4.53-.85,5.45,3.24,7.74,13.75,3.74,19.18-2.02,2.75-2.8,5.02-1.34,8.21,4.95,10.75,3.22,21.73-.49,32.16-2.25,6.3-3.18,12.21-1.98,18.62-4.5-2.36-6.5.76-7.93,4.01-1.52,3.44-3.14,6.7-5.81,9.41-5.3,5.39-10.3,4.5-13.57-2.44-1.67-3.55-1.5-7.21-.96-10.92.48-3.33-.8-4.25-3.84-2.92Z"/>
      <path class="cls-20" d="M69.97,396.57c-.08.53-.15,1.05-.23,1.58-2.74,1.15-2.39,3.57-2.61,5.91-2.25,24.13-.29,48.35-1.48,72.47-2.22,44.88.2,89.79-1.58,134.62-1.02,25.81.23,51.63-1.26,77.36-2.19,37.9.33,75.84-1.49,113.68-1.41,29.3-.36,58.58-1.29,87.85-.23,7.15-1.31,14.29-1.17,21.5.14,6.98-5.3,4.11-8.64,4.51-3.53.43-7.13.63-6.85-4.95.67-13.68.15-27.36,1.13-41.08,1.21-16.91-.41-34.01.63-50.95,1.26-20.68.06-41.41,1.51-62,1.16-16.52-.06-33.02,1.2-49.45,1.79-23.46,0-46.99,1.58-70.38,1.34-20.01-.14-40.01,1.31-59.92,1.43-19.76-.06-39.56,1.48-59.21,1.26-16.06.81-32.05.99-48.06.25-23.01,1.91-45.97,1.8-69-.03-6.86.98-13.85,1.03-20.81.01-1.58-.24-3.28,1.52-4.31,2.11-1.23,18.52.62,20.87,2.41-10.27,4.68-11.89,7.25-9.34,14.98.36,1.08.93,2.09.89,3.27Z"/>
      <path class="cls-22" d="M69.97,396.57c-6.47-3.97-3.84-10.14-2.47-14.89,1.38-4.77,6.9-3.22,10.92-3.35.88.99,1.76,1.98,2.65,2.97-.62,1.71-2.07,2.2-3.64,2.83-4.13,1.65-3.84,3.73,0,5.37,1.99.85,4.26,1.3,3.66,4.08-.64,2.96-3.24,2.84-5.57,2.91-1.85.05-3.7.07-5.55.1Z"/>
      <path class="cls-28" d="M613.76,545.93c-4.01,6.8-8.38,13.21-16.73,15.27,6.34-4.25,11.16-10.17,16.73-15.27Z"/>
      <path class="cls-20" d="M268.4,365.89c-2.64-2.81-5.72-2.95-9.42-2.34-13.6,2.26-27.25,4.16-40.88,6.2-1.47-2.68-.95-4.92,1.53-6.7-.22,3.47,1.41,4.29,4.68,3.76,12-1.95,24.08-3.45,36.03-5.7,3.39-.64,5.76-.11,8.2,1.85h0c-.04.98-.09,1.95-.13,2.92Z"/>
      <path class="cls-33" d="M939.69,361.75c-1.2,1.86-4.36,4.31,1.28,4.02,1.8-.09,3.61-.03,5.42-.04-6.82,2.24-13.87,2.84-20.99,2.81-1.74,0-2.43-1.04-2.53-2.63,3.99-5.27,10.78-.95,15.28-4.46.51.1,1.03.19,1.54.29Z"/>
      <path class="cls-32" d="M766.21,561.49c4.25,3.62,5.96,8.49,7.03,13.76.91,4.52,2.08,8.99,5.44,12.47,0,.59,0,1.19,0,1.79.4,38.13-.87,76.25-1.81,114.33-.96,39.06.58,78.14-1.22,117.14-1.36,29.53-.78,59.02-1.03,88.52-.07,8.19-5.38,6.24-10.01,6.67-4.93.46-7.3-.85-6.91-6.44,2-28.08.49-56.26,1.87-84.32.76-15.57-.05-31.15,1.22-46.64,1.69-20.67-.08-41.41,1.5-62,1.44-18.84.34-37.64,1.18-56.43,1.48-32.94,2.28-65.9,2.73-98.86Z"/>
      <path class="cls-39" d="M167.86,476.24c6.1-8.62,15.99-9.07,24.95-11.43,3.06-.81,6.37-.69,9.03-2.79,5.86,1.19,9.84,9.35,6.79,14.79-2.83,5.07-5.23,10.17-5.75,16.01-.11,1.21-.52,2.33-1.74,2.75-1.71.58-2.42-.7-3.21-1.89-1.37-2.07-2.69-5.16-5.66-3.91-3.05,1.28-1.57,4.33-1.06,6.78,1.57,7.58-5.46,21.27-12.31,24.71-2.76,1.38-3.6-1.2-5.38-1.79-1.44-2.32-2.88-4.63-4.32-6.95-5.07-8.4-6.07-17.74-6.14-27.24-.02-3.72,2.84-6.21,4.8-9.03Z"/>
      <path class="cls-4" d="M167.86,476.24c-4.63,6.89-4.55,14.39-2.76,22.06,1.12,4.8,3.76,9.18,4.1,14.22-2.07-1.09-3.87-2.23-4.36-4.91-1.91-10.41-5.13-20.8.3-31.13.91-.08,1.82-.16,2.73-.24Z"/>
      <path class="cls-36" d="M457.81,401.36c-.33,2.26-6.09,4.9-8.88,2.71-1.97-1.55-3.75-3.47-5.21-5.51-.95-1.33-2.7-3.18-.73-4.89,1.87-1.62,2.6,1.04,3.95,1.51,2.8.97,5.65,1.81,8.5,2.62,1.28.36,2.93.19,2.37,3.56Z"/>
      <path class="cls-38" d="M794.03,526.7c-.01,2.09-.12,4.18-.02,6.26.33,6.85,5.47,10.36,11.95,8.25,1.41-.46,2.57-2.8,4.18-1.25,1.44,1.38.82,3.51.33,5.29-1.97,7.13-4.1,14.18-3.81,21.77.3,7.63,2.14,15.16,1.41,22.84-.21,2.22.49,4.62-1.8,7.35-3.83-15.99-16.27-27.28-18.67-43.63-1.2-8.17-9.42-13.39-15.89-18.69,5.26-8.75,10.97-11.45,20.91-9.88.47.56.94,1.12,1.41,1.68Z"/>
      <path class="cls-23" d="M793.92,399.16c-2.24,6.79-.93,13.79-1.11,20.69-.26,10.19-.17,20.39-.11,30.59.01,2.35-1.01,5.37,2.71,6.19-7.02,6.65-9.16,15.39-9.46,24.43-.38,11.33-1.63,22.54-3.02,33.76-.32,2.58-.11,5.1,1.42,7.34-3.47.32-4.37-1.54-4.27-4.65.79-23.59-.95-47.2,1.15-70.82,1.16-13.12.44-26.42.19-39.63-.1-5.64-.24-10.27,7.66-7.79,1.46.46,3.22-.05,4.84-.11Z"/>
      <path class="cls-38" d="M792.63,525.01c-8.92-.83-14.85,4.65-20.91,9.88-.53-.06-1.06-.13-1.59-.2,5.74-11.4,10.67-13.52,22.5-9.68Z"/>
      <path class="cls-38" d="M95.18,867.15c1.04-.5,2.09-.98,3.13-1.5q8.44-4.23,10.5,4.07c.26,4.37,2.01,8.52,1.67,13.01-.52,6.93-3.36,9.93-9.75,9.85-6.7-.09-9.75-2.87-9.67-9.75.06-5.47-2.45-11.83,4.11-15.68Z"/>
      <path class="cls-6" d="M268.53,362.96c-.72-1.93-1.6-3.82-2.12-5.81-.83-3.19,1.88-4.21,3.91-4.65,3.1-.67,2.76,2.76,2.14,3.62-1.55,2.18,4.41,8.83-3.93,6.85,0,0,0,0,0,0Z"/>
      <path class="cls-5" d="M139.9,375.27c16.42-2.67,32.84-5.39,49.28-7.96,1.58-.25,4.26-1.18,4.54,1.5.23,2.28-2.28,2.57-4.06,2.93-6.12,1.23-12.23,2.57-18.39,3.54-9.13,1.44-18.35,2.43-27.46,4-3.6.62-3.88-1.3-4.2-3.75,0,0,.28-.26.28-.26Z"/>
    </g>
  </g>
</svg>