<?xml version="1.0" encoding="UTF-8"?>
<svg id="Layer_1" xmlns="http://www.w3.org/2000/svg" viewBox="0 0 1076.43 743.77">
  <defs>
    <style>
      .cls-1 {
        fill: #a1a09e;
      }

      .cls-2 {
        fill: #fff;
      }

      .cls-3 {
        fill: #2e2d2c;
      }

      .cls-4 {
        fill: #f9cba7;
      }

      .cls-5 {
        fill: #d84140;
      }
    </style>
  </defs>
  <path class="cls-2" d="M318.05,610.48s-4.36,16.6-7.75,21.13,13.12,27.92,13.12,27.92l50.87-29.1s-10.99-1.77-11.27-19.95c-.28-18.18-44.97,0-44.97,0Z"/>
  <path class="cls-2" d="M884.4,612.17s-2.52,16.13-8.87,21.23c-6.35,5.09,18.18,22.54,18.18,22.54l47.68-25.53s-9.53-7.58-12.65-14.65-44.34-3.58-44.34-3.58Z"/>
  <path class="cls-2" d="M788.62,629.63s-1.72,30.7-5.45,38.17,17.83,13.5,17.83,13.5l42.43-30.23s-13.56-14.43-13.88-28.89c-.32-14.45-40.92,7.45-40.92,7.45Z"/>
  <path class="cls-2" d="M221.88,632.93l-5.34,33.47,8.99,11.52,56.63-18.53-13.78-13.45s-6.78-6.29-5.36-18.13-41.14,5.12-41.14,5.12Z"/>
  <path class="cls-4" d="M204.1,103.42c3.18-1.4,6.6-.94,9.9-1.13,8.44-.48,14.67-5.26,20.9-10.14,1.29-1.01,2.28-2.52,4.23-2.3,10.48,6.42,20.53,1.66,30.67-1.15,2.35-.65,2.55-2.33,2.67-4.33.46-7.54,4.18-13.29,9.89-18.02,3.45-2.86,7.46-3.33,11.17-1.71,3.97,1.74,5.07,5.71,5.1,9.98.02,3.44-1.36,6.53-2.01,9.79-.32,1.62-1.14,3.54.18,4.8,1.63,1.55,2.99-.52,4.45-1.06,8.55-3.17,12.79-10,15.96-18.07,4.92-12.5,15.56-15.79,27.24-9.21,7.24,4.08,13.55,9.7,21.43,12.67-3.38,5.51-2.78,12.02-4.1,17.99-1.58,7.18-5.48,12.54-9.78,17.82-3.17,3.9-5.18,7.73-5.04,12.97.14,5.17-.59,10.39-1.29,15.54-.47,3.46-1.43,6.58-6.44,5.02-4.43-1.38-7.35,1.12-9.81,4.81-4.54,6.79-5.53,13.46-4.29,21.9,1.95,13.34,1.77,27.16-2.46,40.32-1.44,4.48-.56,8.52.94,12.18,6.92,16.93,6.62,34.08,2.76,51.53-.94,4.25-.82,8.72-2.64,12.82-1.22,2.75.88,4.28,2.52,5.84,6.67,6.32,13.68,12.32,20.01,18.97,8.06,8.45,15.38,17.6,23.39,26.1,16.73,17.74,34.05,34.87,53.18,50.06.62.49,1.54.61,2.32.9-.06,1.87.1,3.64.91,5.44,6.45,14.22,11.59,28.66,6.57,44.58-11.32,4.53-22.91,7.12-35.17,4.77,1.18-3.55,2.72-7.03,3.5-10.67,4.49-21.02-9.51-35.47-30.47-32.32-6.81,1.02-13.26,4.75-20.1,3.83-8.87-1.2-17.07-1.3-25.75,2.11-6.31,2.48-5.99,5.44-3.75,9.87,2.49,4.93,4.38,10.08,4.73,15.51.45,7.1.24,14.25.12,21.37-.07,3.99.84,5.16,5.46,4.8,10.8-.86,21.39-4.22,32.38-2.86,6.19.77,12.06-.42,17.52-3.51-.75,11.09,2.02,22.04,1.23,33.15-1.15,16.21-3.83,32.16-6.69,48.15-2.87,16.02-8.63,31.27-10.24,47.75-1.11,11.34-1.11,22.84-2.91,34.16-.91,5.74-4.31,7.11-8.99,7.58-10.76,1.09-21.53,1.42-32.35.97-3.38-.14-3.02-2.18-3.04-4.21-.05-7.12-.03-14.24-.03-21.36,0-16.5-.55-32.97-3.72-49.21-1.31-6.72-3.26-13.31-4.96-19.95-3.38-13.23-2.22-26.38.41-39.55,1.14-5.7,2.02-11.47,2.8-17.23.68-5-1.46-6.87-6.28-5.71-4.48,1.07-8.94,2.18-13.6,1.58.45-5.39.89-10.83,1.14-16.17.68-14.45-3.01-28.55-21.38-30.24-4.29-.4-8.4.49-12.41,1.25-18.33,3.45-32.49,9.34-31.22,32.16.74,13.34,11.92,22.7,25.47,22.1,8.41-.37,16.27-3.6,24.66-3.27-.21,8.92-2.27,17.62-2.84,26.54-.91,14.31-2.77,28.56-4.4,42.81-1.16,10.12-1.88,20.38-4.09,30.28-3.75,16.83-4.93,33.76-4.67,50.9.17,11.27.47,9.36-9.09,9.83-7.88.39-15.7,1.89-23.58,2.31-8.03.43-8.71-.33-9.04-8.72-.33-8.55-1.43-17-2.5-25.47-1.44-11.35-2.52-22.74-4.02-34.07-.36-2.73.61-6.73-4.12-7.14.9-11.09-1.9-21.62-4.34-32.31-2.05-9-3.08-18.16-1.76-27.72,1.01-7.33,3.8-14.54,2.8-22.14,3.15-3.35,3.26-8.04,5.22-11.94,1.32-2.63.16-4.16-3-4.56-7.46-.94-14.87-2.3-22.32-3.3-4.24-.57-6.03-2.35-5.81-6.98.42-8.57.08-17.17.15-25.75.06-7.82,1.99-15.25,5.14-22.36,4.02-9.06,10.69-15.97,18.48-21.79,4.14-3.09,3.29-4.87-.65-7.16-6.51-3.78-12.87-7.81-19.19-11.91-9.64-6.26-17.87-13.76-21.82-25.05-1.02-2.92-1.29-6.2-3.57-8.61.6-8.72-4.24-16.06-6.58-23.96-7.54-25.47-16.78-50.47-16.16-77.62.1-4.12-2.51-6.59-6-8.81-13.92-8.86-22.18-21.49-24.13-38.03,1.85-2.46,1.48-4.99.26-7.56.75-4.94.88-10,2.89-14.7,2.07-3.76,4.23-7.46,6.17-11.28,1.53-3.03,5.02-5.19,4.22-9.28,0,0-.01.02-.01.02,1.62-.51.58-1.12.07-1.71,6.23-9.63,14.98-15.97,25.73-19.69,2.26,2.41,4.63.83,6.99.22,10.29-2.63,20.45-1.81,30.07,2.4,33.64,14.73,48.65,58.43,29.78,91.79-2.31,4.09-3,7.86-1.99,12.49,6.12,28.01,7.97,55.86-3.48,83.2-2.36,5.63-.77,7.5,5.71,8.34.56,4.43,4.84,5.35,7.48,7.75,8.02,7.3,18.23,11.85,25.54,20.07.34.76.47,1.77,1.05,2.23,12.46,9.9,23.56,21.29,35.17,32.12,2.55,2.38,4.22,3.59,6.62-.49,4.11-7,8.38-14.07,16.27-17.71,1.82-.84,2.04-2.49.48-3.38-4.35-2.46-7-7.85-12.93-7.55-.08-.4-.11-.79-.1-1.2.01-1.75-1.43-2.32-2.5-3.29-4.19-3.78-8.07-7.96-10.59-12.99-6.88-13.74-11.47-28.37-15.31-43.19-2.22-8.58-3.95-17.35-3.95-26.32,13.13-8.88,27.46-16.44,36.19-30.41,3.75-5.99,9.88-11.79,6.68-19.89-5.62-14.25-11.07-28.4-11.03-44.1.01-5.65-4.65-7.53-13.59-7.46-5.63.04-7.33,2.4-6.99,7.65.72,11.19-.94,22.15-4.22,32.83-2.18,7.12-7.71,8.83-13.47,4.05-3.03-2.51-5.72-5.56-8.08-8.72-10.83-14.51-17.88-31.09-25.03-47.51-6.24-14.35-11.41-29.16-17.05-43.77Z"/>
  <path class="cls-4" d="M932.26,73.65c-1.27,6.3-2.7,12.58-3.77,18.91-1.01,5.98-3.51,11.52-7.78,15.34-6.25,5.58-6.62,12.64-7.28,19.87-.26,2.91.07,5.87-.14,8.78-.31,4.26-.96,8.15-7.07,6.23-2.69-.85-5.23,0-7.34,2.3-5.84,6.37-9.85,12.77-6.96,22.28,2.88,9.47,2.63,19.76.41,29.19-2.93,12.43-2.31,23.92,1.5,36,3.82,12.1,2.39,24.78.79,37.23-.58,4.53-1.66,9-2.62,13.48-1.83,8.59,4.86,12.12,9.85,16.63,10.38,9.37,20.48,18.98,28,30.94-8.92.91-17.6,2.65-25.79,6.57-3.01,1.44-4.19,2.71-1.49,5.36,3.9,3.82,6.44,8.56,9.07,13.24.47,3.41-.27,6.7-1.83,9.63-2.58,4.86-.28,5.46,3.81,4.88,3.31,2.61,5.68,6.01,4.52,10.19-1.6,5.77,1.7,5.25,5.18,4.7,5.48-.87,10.31-3.62,15.4-5.63.24,4.17,4.87,5.18,6.13,9,3.95,11.92,4.26,24.1,3.38,36.33-1.06,14.76-2.32,29.41.01,44.22,1.57,9.94.1,19.98-1.03,29.98-2.04,18.06-5.93,35.8-10.05,53.39-4.88,20.83-6.32,41.96-8.42,63.07-.33,3.33-1.62,4.64-4.9,5.21-11.67,2.02-23.41.86-35.11,1.12-4.28.09-4.32-3.02-4.32-6.12,0-15.51-.45-31.03.06-46.53.4-11.99-2.79-23.22-6.06-34.37-4.14-14.12-5.3-28.02-2.45-42.57,2.6-13.27,3.77-26.82,5.85-40.2,2.71-17.38-6.56-29.97-16.5-42.31-1.86-2.31-4.16-4.2-3.63-7.57,1.91-4.03,7.05-3.63,9.47-6.77,11.22-14.56,6.02-39.33-11.41-44.21-.15-1.17-.29-2.34-.43-3.51.41-2.88-1.39-4.59-3.24-6.35-3.03-2.88-5.42-6.17-7.57-9.83-4.79-8.14-7.77-16.94-10.84-25.76-5.11-14.72-8.86-29.73-9.64-45.36,16.74-10.44,33.16-21.13,41.74-40.17,2.09-4.63,2.22-8.44.13-13.06-5.08-11.24-9.98-22.52-9.79-35.36.17-11.13-3.29-13.73-14.62-13.09-4.47.25-6.2,1.84-6.31,6.44-.2,8.56-.04,17.23-2.11,25.58-1.38,5.58-.62,13.58-8.09,14.81-7.88,1.3-11.98-5.61-15.99-11.21-12-16.78-19.83-35.71-27.72-54.58-4.98-11.91-9.38-24.07-14.05-36.11,5.26-2.01,10.65-2.92,16.33-2.78,4.55.1,7.12-4.03,10.62-6.18,2.79-1.72,5-4.37,8.42-5.08,10.28,6.37,20.13,1.86,30.06-1.15,2.31-.7,2.37-2.35,2.71-4.32,1.27-7.4,4.26-13.95,10.52-18.54,3.26-2.39,7.06-2.94,10.68-1.33,3.53,1.57,4.99,4.84,5.07,8.7.07,3.37.03,6.68-1.45,9.83-.9,1.92-1.81,4.34-.3,5.94,1.95,2.05,3.73-.59,5.48-1.3,8.24-3.35,12.07-10.23,14.99-18.19,4.23-11.58,16.46-15.25,27.11-8.63,6.91,4.3,13.86,8.53,20.79,12.79Z"/>
  <path class="cls-4" d="M843.18,405.9c2.61,6.07,2.13,12.87,5.33,19.02,2.55,4.89,1.38,11.22.55,16.72-2.61,17.35-2.8,34.9-4.76,52.28-1.75,15.52-3.77,30.99-5.28,46.55-1.67,17.18-4.52,34.27-7.32,51.31-1.94,11.79-3.76,23.48-1.4,35.41.63,3.19.12,6.33-4.05,6.14-10.31-.48-20.12,3.64-30.52,2.78-4.74-.39-6.57-1.79-7.1-6.49-2.78-24.41-5.84-48.79-8.77-73.18-.15-1.22-.72-1.89-1.84-2.2-.84-5.1-.87-10.23-2.2-15.37-3.45-13.25-5.69-26.6-3.71-40.59.95-6.7,3.21-13.34,2.58-20.27,3.13-3.35,3.56-7.95,5.5-11.84,1.92-3.85.57-4.94-3.54-5.23-7.9-.57-15.89-.85-23.57-3.2-2.01-.61-4.13-1.11-4.33-3.82-1.09-15.29-1.19-30.6,3.09-45.43,3.3-11.44,11.01-20.07,20.64-26.8,4.04-2.82,4.24-4.52-.08-6.93-4.74-2.65-9.45-5.39-13.94-8.44-11.23-7.63-22.94-14.83-27.67-28.81-.98-2.9-.99-6.31-3.6-8.55.03-1.64.67-3.62-.02-4.88-3.43-6.34-4.77-13.35-6.79-20.12-6.89-23.13-15.92-45.8-15.65-70.55.08-6.99-1.83-13.27-9.1-16.37.2-1.93-.97-3.56-2.4-3.98-4.79-1.39-6.13-5.79-8.62-9.16-3.99-5.38-4.99-12.5-9.98-17.33-.12-.82-.24-1.63-.36-2.45,1.66-1.22,1.2-3.02,1.14-4.62-.35-10.17.5-20.03,6.52-28.76.97-1.42,1.36-3.06.55-4.76.33-1.05.66-2.1.99-3.15,4.11-.81,5.28-4.81,7.76-7.35.86-.88-.89-1.44-1.74-1.87,7.06-6.84,12.98-15.23,23.54-17.31,2.02,1.95,4.21,1.11,6.45.46,15.45-4.42,29.72-.87,42.07,8.38,27.26,20.43,34.79,56.95,18.36,86.43-2.15,3.86-2.24,7.18-1.39,11.27,3.46,16.61,5.13,33.4,4.1,50.39-.69,11.36-3.65,22.18-7.71,32.79-2.43,6.33-.77,8.41,5.85,8.5.44,2.7,2.33,4.15,4.37,5.77,9.55,7.6,19.97,14.08,28.9,22.47,2.78,5.18,8.59,7.34,11.95,11.94-.63,1.79-1.5,3.24-3.22,4.41-6.17,4.18-9.71,9.9-10.7,17.49-1.77,13.6,7.51,30.19,23.62,29.07,2.48-.17,5,.14,7.5.23Z"/>
  <path class="cls-3" d="M727.18,328.97c2.61,2.24,2.62,5.65,3.6,8.55,4.73,13.98,16.44,21.18,27.67,28.81,4.49,3.05,9.2,5.79,13.94,8.44,4.32,2.42,4.12,4.11.08,6.93-9.63,6.72-17.34,15.36-20.64,26.8-4.29,14.83-4.19,30.14-3.09,45.43.19,2.71,2.31,3.2,4.33,3.82,7.68,2.35,15.66,2.63,23.57,3.2,4.11.3,5.46,1.38,3.54,5.23-1.95,3.9-2.37,8.5-5.5,11.84-3.17-.02-6.13.92-9.16,1.78-8.81,2.51-17.65,5.62-26.95,4.63-19.26-2.05-38.51-4.29-57.7-6.9-29.56-4.01-59.02-8.67-88.61-12.42-7.83-.99-15.52-3.35-23.53-2.96-.18-8.57-.32-17.14-.56-25.71-.09-2.98,1.79-3.4,4.05-3.51,2.64,1.03,5.24,1.13,7.76-.38,2.92-.19,5.84-.39,8.75-.58,2.64.89,5.2,1.03,7.61-.68,9.13-.37,18.26-.75,27.38-1.12,4.13.69,8.27,1.84,12.29-.45-.18-.77-.1-1.87-.59-2.27-13.33-10.87-19.08-25.71-22.92-41.88-1.87-7.9-3.72-15.79-4.74-23.8-1.74-13.62,4.02-25.71,8.88-37.9,2.14-5.37,4.33-10.72,6.5-16.09,2.63-.66,4.24,1.24,6.14,2.42,7.32,4.56,15.2,7.7,23.48,10.13,11.63,3.42,23.62,2.61,35.45,3.58,13.09,1.08,26.08,2.65,38.99,5.04Z"/>
  <path class="cls-3" d="M159.95,328.86c2.28,2.41,2.54,5.69,3.57,8.61,3.95,11.28,12.18,18.79,21.82,25.05,6.31,4.1,12.68,8.13,19.19,11.91,3.95,2.29,4.79,4.06.65,7.16-7.79,5.82-14.46,12.72-18.48,21.79-3.15,7.11-5.08,14.54-5.14,22.36-.06,8.58.27,17.19-.15,25.75-.23,4.63,1.57,6.41,5.81,6.98,7.45,1,14.86,2.36,22.32,3.3,3.16.4,4.32,1.93,3,4.56-1.96,3.9-2.07,8.59-5.22,11.94-2.78-.38-5.26.56-7.91,1.28-8.81,2.41-17.65,6.08-26.87,4.8-10.13-1.41-20.35-1.61-30.49-3.37-17.67-3.07-35.65-4.35-53.43-6.83-27.09-3.78-54.11-8.08-81.21-11.82-4.05-.56-5.07-1.7-5.2-5.68-.21-6.53,1.75-13.23-1.11-19.6,0-.83.02-1.66.03-2.49,2.35-1.18,4.9-.78,7.39-.93,10.57-.67,21.25-.21,31.62-3,2.04-.04,4.08-.08,6.12-.11,6.64,1.14,13.32-.03,19.98.35,1.38.08,3.19.6,3.91-1.1.89-2.12-1.18-2.99-2.4-3.83-6.08-4.18-9.64-10.24-13.09-16.5-7.8-14.14-9.56-30.06-13.55-45.31-.05-.76-.09-1.53-.14-2.29,1.36-6.08.42-12.34,2.27-18.5,3.66-12.19,9.66-23.47,13.18-35.67,1.31.63,2.69,1.16,3.93,1.91,11.16,6.84,22.92,12.08,36.17,13.08,21.2,1.59,42.47,2.38,63.45,6.25Z"/>
  <path class="cls-1" d="M1.09,437.02c2.86,6.38.9,13.07,1.11,19.6.13,3.98,1.15,5.12,5.2,5.68,27.1,3.74,54.12,8.04,81.21,11.82,17.79,2.48,35.76,3.76,53.43,6.83,10.15,1.76,20.36,1.97,30.49,3.37,9.23,1.28,18.07-2.39,26.87-4.8,2.65-.72,5.14-1.67,7.91-1.28,1,7.6-1.79,14.8-2.8,22.14-1.31,9.55-.29,18.71,1.76,27.72,2.44,10.69,5.24,21.22,4.34,32.31-1.32,30.1,1.34,60.19.26,90.3-1.14,2.59-.24,5.37-.7,7.99-.9,5.2,1.14,7.71,6.38,7.7.47,3.29-.72,6.26-2.38,8.84-3.93,6.11-5.18,13.05-6.87,19.88-28.29,7.46-56.58,14.9-84.86,22.38-4.24,1.12-8.41,2.47-12.64,3.61-3.75,1.01-6.33.35-5.68-4.4.87-6.4,1.62-12.83,2.66-19.21.41-2.5,2.49-3.61,4.87-4.34,13.14-4.01,26.34-7.89,39.36-12.26,11.15-3.74,22.94-5.79,33.77-12.11-2.57-2.36-5.34-3.3-8.16-2.8-4.91.89-8.68-2.48-13.25-2.95-2.98-.31-2.39-3.49-2.41-5.72-.06-12.78.6-25.62-.27-38.34-1.25-18.5-2.04-37.07-4.98-55.41-1.3-8.1-10.31-14.11-18.66-15.57-12.5-2.19-25.27-3.35-37.44-6.75-7.09-1.98-14.3-1.65-21.42-3.41-9.75-2.41-19.95-4.07-29.99-5.38-13.46-1.75-26.67-4.79-40.1-6.53-5.81-.75-7.88-3.17-7.8-9.34.29-24.3-.07-48.62-.12-72.93,0-2.23-.75-4.63.92-6.66Z"/>
  <path class="cls-5" d="M207.29,695.13c1.69-6.83,2.94-13.77,6.87-19.88,1.66-2.58,2.85-5.56,2.38-8.84,1.34-1.16,2.99-2.07,3.33-4.05.55-.3,1.09-.6,1.63-.9.71.06,1.43.12,2.14.18.12.61.19,1.24.35,1.84.91,3.34-.61,8.76,4.74,8.75,4.88-.01,10.7-.13,12.9-6.41,1.1-.62,1.09-1.47.52-2.44.57-3.48.5-7.14,2.91-10.08,0,0,.19-.35.19-.35,8.32-9.63,16.61-10.08,28.23-5.11,6.83,2.92,8.08,7.02,8.86,12.93.62,4.7,3.48,8.45,6.32,12.11.87,1.13,1.35,2.92,3.11,2.66,1.95-.28,1.46-2.27,1.81-3.57,3.29-12.37,8.04-24.19,13.32-35.82.99-2.18,2.21-4.18,4.42-5.08,3.13-1.29,5.68-2.1,6.11,3.26.82,10.23,7.56,14.63,17.44,12.19,3.24-.8,6.51-1.51,9.7-2.47,5.59-1.68,11.43-3.14,11.38-10.86,0-1.17.78-2.37,1.29-3.52,3.56-7.98,9.97-8.72,15.35-1.69,1.52,1.98,2.71,4.22,3.99,6.38,10.87,18.43,27.45,30.65,45.25,41.54,5.71,3.49,11.29,7.2,17.08,10.56,9.62,5.59,10.73,10.95,1.75,21.28-4.45,5.11-10.97,6.49-17.75,6.59-15.17.22-30.11-1.71-44.91-4.67-20.26-4.05-40.01-10.73-60.9-11.43-1.22-.04-2.45-.69-4.01.89,2.73,4.2,7.5,6.08,11.25,9.06,4.67,3.71,8.69,7.63,10.5,13.64,3.62,11.97-2.84,20.42-16.15,21.44-32.99,2.53-63.91-4.11-92.89-20.07-5.13-2.83-10.36-5.41-15.18-8.81-5.45-3.85-7.41-8.33-3.99-14.4.9-1.59,1.02-3.14.66-4.82Z"/>
  <path class="cls-1" d="M568.72,462.15c8.01-.39,15.7,1.97,23.53,2.96,29.59,3.75,59.06,8.41,88.61,12.42,19.19,2.6,38.44,4.85,57.7,6.9,9.3.99,18.15-2.12,26.95-4.63,3.03-.86,5.98-1.8,9.16-1.78.63,6.93-1.63,13.57-2.58,20.27-1.98,13.99.26,27.34,3.71,40.59,1.34,5.14,1.36,10.27,2.2,15.37-.11,31.21-.33,62.42-.21,93.62.02,4.73,1.58,9.48,1.1,14.3-.33,3.31,2.64,3.92,4.27,5.63-3.07,8.99-6.14,17.99-9.21,26.99-25.78,6.95-51.51,14.06-77.36,20.72-7.06,1.82-14.07,3.85-21.13,5.64-4.11,1.04-7.44.61-5.31-5.19,2.05-5.59,1.41-11.57,2.24-17.35.58-4.05,2.59-5.96,6.05-6.95,15.74-4.49,31.75-8.23,47.17-13.65,8.71-3.06,17.88-4.94,27.04-9.05-5.14-4.21-10.87-3.17-15.91-4.05-6.09-1.06-8.36-3.13-8.5-9.86-.58-26.71-1.25-53.44-3.59-80.08-1.91-21.82-11.93-26.59-33-29.99-13.33-2.15-26.67-4.3-39.98-6.57-13.54-2.32-27.05-4.85-40.59-7.19-12.72-2.2-25.46-4.31-38.21-6.37-3.15-.51-5.02-1.94-5.02-5.27.01-18.85.04-37.69.1-56.54,0-.3.51-.6.78-.9Z"/>
  <path class="cls-5" d="M773.95,694.8c3.07-9,6.14-18,9.21-26.99,1.01-1.03,2.17-1.96,2.96-3.14.89-1.32,1.87-2.45,3.49-2,1.35.37,1.56,1.8,1.75,3.08.52,3.49,1.59,7.51,5.84,6.5,4.5-1.07,11.12.07,11.69-7.69.86-11.72,6.69-18.73,18.98-19.84,3.45-.31,6.4-.76,9.31,1.79,4.87,4.26,11.7,6.06,11.72,15.14.01,4.54,5.01,9.36,8.43,13.49,2.28,2.75,2.68-.13,3.18-1.98,3.35-12.54,7.73-24.71,13.3-36.44.99-2.07,1.86-4.43,4.04-5.46,3.25-1.53,6.2-2.74,6.67,3.15.8,9.85,8.02,14.69,17.66,12.21,5.23-1.35,10.27-3.4,15.47-4.88,2.83-.81,4.37-2.35,4.45-5.25.07-2.6,1.08-4.89,2.24-7.13,4.08-7.86,10.31-8.53,15.43-1.26,5.29,7.5,10.24,15.22,15.98,22.43,9.52,11.96,22.41,19.42,35.24,26.86,5.23,3.03,10.51,5.97,15.54,9.33,9.08,6.07,9.67,12.46,2,20.48-6.39,6.68-14.62,7.67-23.15,7.45-18.08-.47-35.94-3.06-53.34-7.76-14.18-3.83-28.44-6.77-43.04-8.09-2.81-.25-5.68-.86-9.7.33,4.43,3.25,7.98,6.01,11.69,8.55,5.73,3.93,9.64,9.1,11.81,15.72,2.96,9.03-3.63,18.71-14.87,19.44-13.74.88-27.5.68-41.35-1.08-22.73-2.89-42.39-13.16-62.28-23.13-10.78-5.4-12.1-8.58-9.75-20.88.17-.91-.38-1.96-.6-2.94Z"/>
  <path class="cls-5" d="M727.18,328.97c-12.9-2.39-25.9-3.96-38.99-5.04-11.83-.97-23.82-.17-35.45-3.58-8.27-2.43-16.16-5.57-23.48-10.13-1.9-1.18-3.51-3.09-6.14-2.42,1.99-20.1,9.4-38.82,14.98-57.99,4.61-15.83,8.99-31.77,14.7-47.21,6.88-18.6,10.91-38.47,23.08-54.88,1.37-1.84,2.41-3.93,4.54-5.08,1.02.07,2.03.14,3.04.21-.33,1.05-.66,2.1-.99,3.15-2.62,1.67-3.59,4.65-4.64,7.15-4.15,9.92-8.36,19.99-3.57,31,.12.82.24,1.63.36,2.45,2.59,13.19,7.34,24.9,21,30.46,7.26,3.11,9.17,9.38,9.1,16.37-.27,24.76,8.75,47.42,15.65,70.55,2.02,6.77,3.36,13.78,6.79,20.12.68,1.26.04,3.23.02,4.88Z"/>
  <path class="cls-5" d="M159.95,328.86c-20.97-3.87-42.25-4.66-63.45-6.25-13.26-.99-25.01-6.23-36.17-13.08-1.24-.76-2.62-1.28-3.93-1.91,1.17-6.3,2.34-12.6,3.52-18.9.43-1.46.85-2.92,1.27-4.38,1.88-3.53,2.73-7.36,3.15-11.3.59-2.07,1.19-4.15,1.78-6.22,1.18-2.03,2-4.16,1.85-6.57,1.21-4.01,2.42-8.03,3.63-12.04,0,0,0,.02,0,.02.4-.89.8-1.79,1.2-2.68.88-2.67,1.77-5.34,2.66-8.01.12-1.02.25-2.03.37-3.05,1.18-.93,1.08-2.3,1.23-3.59.28-.6.56-1.19.84-1.78.25-.31.34-.67.25-1.07.23-1.32.45-2.63.68-3.95.21-.67.43-1.34.64-2.01,2.31-7.52,3.67-15.51,7.12-22.47,7.93-16,10.66-34.31,21.82-48.82-.37,2.7.94,4.98,1.82,7.37-2,4.69-2.13,9.76-2.89,14.7-1.05,2.49-.79,5.02-.26,7.56,1.95,16.54,10.2,29.18,24.13,38.03,3.49,2.22,6.1,4.68,6,8.81-.63,27.15,8.62,52.15,16.16,77.62,2.34,7.9,7.18,15.23,6.58,23.96Z"/>
  <path class="cls-5" d="M213.48,314.69c-6.48-.85-8.07-2.71-5.71-8.34,11.45-27.34,9.61-55.19,3.48-83.2-1.01-4.63-.33-8.4,1.99-12.49,18.86-33.36,3.86-77.06-29.78-91.79-9.61-4.21-19.77-5.03-30.07-2.4-2.36.6-4.73,2.18-6.99-.22,1.22-.95,2.45-1.9,3.66-2.84,0,0,.35.04.35.04l.08-.34c.35-.24.7-.48,1.04-.72,0,0,.38.02.38.02l.26-.3c.57-.28,1.14-.56,1.71-.83.22-.3.45-.61.67-.91,12.34-6.04,25.57-7.83,39.09-8.24,3.56-.11,7.04.25,10.45,1.3,5.64,14.61,10.81,29.43,17.05,43.78,7.15,16.43,14.19,33.01,25.03,47.51,2.36,3.16,5.06,6.21,8.08,8.72,5.76,4.78,11.29,3.07,13.47-4.05,3.28-10.68,4.94-21.64,4.22-32.83-.34-5.25,1.36-7.6,6.99-7.65,8.94-.07,13.61,1.81,13.59,7.46-.04,15.7,5.41,29.85,11.03,44.1,3.2,8.11-2.94,13.9-6.68,19.89-8.73,13.96-23.06,21.53-36.19,30.41-2.68.27-4.45,2.1-6.42,3.63-17.48,13.63-28.79,32.24-40.79,50.3Z"/>
  <path class="cls-5" d="M780.76,314.53c-6.62-.08-8.28-2.17-5.85-8.5,4.07-10.61,7.02-21.43,7.71-32.79,1.04-16.98-.63-33.78-4.1-50.39-.85-4.09-.76-7.41,1.39-11.27,16.44-29.48,8.91-66.01-18.36-86.43-12.35-9.25-26.62-12.8-42.07-8.38-2.25.64-4.43,1.49-6.45-.46,15.22-11.99,33.16-14.13,51.64-14.12,2.19,0,4.38,1.11,6.57,1.71,4.66,12.05,9.07,24.2,14.05,36.12,7.89,18.86,15.72,37.8,27.72,54.58,4,5.6,8.11,12.5,15.99,11.21,7.47-1.23,6.7-9.23,8.09-14.81,2.07-8.35,1.91-17.03,2.11-25.58.11-4.6,1.83-6.19,6.31-6.44,11.33-.64,14.79,1.95,14.62,13.09-.2,12.83,4.71,24.12,9.79,35.36,2.09,4.63,1.95,8.43-.13,13.06-8.58,19.04-25,29.73-41.74,40.17-4.6.44-7.15,4.05-10.25,6.72-15.41,13.3-26.27,30.2-37.02,47.17Z"/>
  <path class="cls-3" d="M365.87,73.54c-7.88-2.97-14.19-8.6-21.43-12.67-11.67-6.58-22.31-3.29-27.24,9.21-3.17,8.06-7.42,14.9-15.96,18.07-1.45.54-2.81,2.61-4.45,1.06-1.32-1.25-.5-3.18-.18-4.8.65-3.27,2.03-6.35,2.01-9.79-.03-4.27-1.13-8.24-5.1-9.98-3.71-1.63-7.71-1.15-11.17,1.71-5.71,4.72-9.43,10.48-9.89,18.02-.12,2-.32,3.68-2.67,4.33-10.14,2.81-20.19,7.57-30.67,1.15,2.29-25.9,9.91-49.95,25.02-71.33,4.73-6.69,10.58-11.83,19.56-11.72,1.36.02,2.98-.56,4.07-1.4,7.82-6.03,15.73-6.56,25.2-3.18,17.63,6.29,34.56,13.29,47.97,26.97,6.83,6.96,10.35,15.59,12.94,24.59,2.39,8.33-.16,15.27-8.02,19.75Z"/>
  <path class="cls-3" d="M932.26,73.65c-6.93-4.26-13.88-8.49-20.79-12.79-10.65-6.63-22.87-2.95-27.11,8.63-2.91,7.96-6.75,14.84-14.99,18.19-1.75.71-3.53,3.35-5.48,1.3-1.51-1.59-.6-4.02.3-5.94,1.48-3.15,1.52-6.47,1.45-9.83-.08-3.86-1.54-7.13-5.07-8.7-3.62-1.61-7.42-1.06-10.68,1.33-6.26,4.59-9.25,11.14-10.52,18.54-.34,1.97-.4,3.62-2.71,4.32-9.93,3.01-19.78,7.52-30.06,1.15,1.59-25.48,9.35-48.9,23.79-69.99,5.1-7.45,11.21-13.55,21.3-13.13.96.04,2.15-.43,2.89-1.06,8.29-7.07,17.21-6.82,26.88-3.09,13.58,5.25,27.05,10.49,38.83,19.44,11.97,9.1,18.78,21.33,21.59,35.56,1.4,7.09-3.01,12.73-9.64,16.06Z"/>
  <path class="cls-1" d="M938.72,379.76c-5.08,2.01-9.91,4.76-15.4,5.63-3.48.55-6.78,1.07-5.18-4.7,1.16-4.18-1.21-7.59-4.52-10.19.87-1.85,2.33-3.66,2.49-5.58.31-3.67,1.35-8.16-4.48-8.93-2.63-4.68-5.17-9.42-9.07-13.24-2.7-2.64-1.52-3.92,1.49-5.36,8.2-3.92,16.87-5.66,25.79-6.57,1.01.26,2.05.43,3.02.79,3.02,1.11,19.58,1.37,22.25-.16,10.55-6.07,22.08-6.92,33.84-6.78.52,1.85,2.16,2.39,3.63,3.18,12.02,6.47,15.18,14.52,13.65,27.89-.89,7.82-6.31,12.95-8.45,19.8-5.8.59-11.31,2.57-16.98,3.58-10.46,1.87-20.98,2.31-30.95-2.76-4.64-2.36-7.85.84-11.13,3.39Z"/>
  <path class="cls-1" d="M381.08,451.21c-5.45,3.09-11.33,4.28-17.52,3.51-11-1.36-21.58,2-32.38,2.86-4.62.37-5.52-.81-5.46-4.8.12-7.12.33-14.27-.12-21.37-.34-5.43-2.24-10.58-4.73-15.51-2.24-4.43-2.56-7.39,3.75-9.87,8.68-3.41,16.88-3.31,25.75-2.11,6.83.92,13.29-2.8,20.1-3.83,20.96-3.15,34.96,11.3,30.47,32.32-.78,3.64-2.31,7.12-3.5,10.67-4.94,3.76-10.74,5.76-16.38,8.12Z"/>
  <path class="cls-1" d="M278.97,473.15c-8.38-.33-16.24,2.9-24.66,3.27-13.55.59-24.72-8.76-25.47-22.1-1.27-22.81,12.89-28.7,31.22-32.16,4.01-.76,8.12-1.64,12.41-1.25,18.37,1.7,22.06,15.79,21.38,30.24-.25,5.33-.69,10.78-1.14,16.17-5.47-.14-10.5.73-13.74,5.83Z"/>
  <path class="cls-1" d="M843.18,405.9c-2.5-.09-5.02-.4-7.5-.23-16.1,1.12-25.39-15.47-23.62-29.07.99-7.59,4.53-13.32,10.7-17.49,1.72-1.16,2.59-2.61,3.21-4.41,2.62,1.12,5.09.66,7.81-.06,8.48-2.23,16.97-4.95,25.97-3.2,17.43,4.88,22.62,29.64,11.4,44.21-2.42,3.14-7.56,2.74-9.47,6.77-6.09,1.55-12.71.33-18.5,3.48Z"/>
  <path class="cls-1" d="M1017.4,319.93c8.53-10.43,20.39-12.7,32.88-13.4,9.57-.53,17.48,2.62,22.11,11.31,4.78,8.99,5.81,18.84.38,27.58-5.83,9.37-15.99,13.46-26.46,14.88-8.34,1.13-17.23,1.87-24.89-3.6.32-2.36-.47-5.06,2.69-6.36,12.6-5.2,14.81-9.34,12.63-21.96-.7-4.07-2.68-5.41-6.62-5.88-4.26-.51-8.73-.47-12.71-2.56Z"/>
  <path class="cls-1" d="M432.63,438.32c5.01-15.92-.12-30.36-6.57-44.58-.82-1.8-.97-3.57-.91-5.44,9.01-3.33,18.17-5.51,27.91-4.11,10.14,1.45,17.46,8.44,19.05,18.5,2.78,17.59-5.27,28.83-22.89,33.5-5.57,1.48-10.92,2.44-16.59,2.13Z"/>
  <path class="cls-4" d="M1017.4,319.93c3.98,2.09,8.45,2.05,12.71,2.56,3.94.47,5.91,1.81,6.62,5.88,2.18,12.62-.03,16.76-12.63,21.96-3.16,1.3-2.37,4-2.69,6.36-4.81.98-6.53,5.27-8.25,8.8-3.25,6.67-8.46,9.44-15.37,10.05,2.14-6.85,7.56-11.98,8.45-19.8,1.53-13.38-1.63-21.42-13.65-27.89-1.47-.79-3.11-1.34-3.63-3.18,5.31-3.92,11.44-4.55,17.77-4.52,3.56.02,7.12-.14,10.68-.22Z"/>
  <path class="cls-1" d="M41.09,364.09c4,15.26,5.76,31.17,13.55,45.31,3.45,6.26,7.01,12.32,13.09,16.5,1.22.84,3.29,1.72,2.4,3.83-.71,1.7-2.52,1.18-3.91,1.1-6.66-.37-13.34.8-19.98-.35,3.05-3.39,7.04-1.16,10.56-1.68,2.58-.38,5.26-.08,9.64-.08-7.51-8.35-13.15-15.84-16.83-24.7-4.47-10.75-6.62-22.08-9.14-33.32-.47-2.09-1.02-4.55.6-6.62Z"/>
  <path class="cls-1" d="M59.91,288.72c-1.17,6.3-2.34,12.6-3.52,18.9-3.52,12.21-9.52,23.49-13.18,35.67-1.85,6.16-.91,12.42-2.27,18.5-2.96-6.86-1.32-13.85.7-20.3,3.76-11.98,8.57-23.64,12.96-35.43,2.12-5.68.47-12.51,5.31-17.36Z"/>
  <path class="cls-1" d="M40.12,430.6c-10.37,2.79-21.05,2.33-31.62,3-2.49.16-5.03-.24-7.39.93-1.38-2.33.35-3.13,1.99-3.21,12.01-.62,23.97-2.33,36.04-1.43.34.03.65.46.98.71Z"/>
  <path class="cls-1" d="M110.23,158.19c-.89-2.39-2.19-4.67-1.82-7.37,2.73-5.64,6.64-10.18,12.21-13.19.8,4.09-2.68,6.25-4.22,9.28-1.94,3.82-4.1,7.53-6.17,11.28Z"/>
  <path class="cls-5" d="M683.48,142.84c-1.01-.07-2.03-.14-3.04-.21,2.02-4.01,5.1-6.95,9.06-9.01.85.43,2.6.99,1.74,1.87-2.48,2.54-3.65,6.54-7.76,7.35Z"/>
  <path class="cls-1" d="M64.34,273.04c-.42,3.95-1.27,7.77-3.15,11.3-1.25-4.41-.11-8.15,3.15-11.3Z"/>
  <path class="cls-1" d="M636,429.72c-4.02,2.29-8.16,1.14-12.29.45,4-2.7,8.14-1.8,12.29-.45Z"/>
  <path class="cls-1" d="M75.45,237.55c-.89,2.67-1.78,5.34-2.66,8.01-.81-3.24-2.27-6.68,2.66-8.01Z"/>
  <path class="cls-1" d="M596.33,431.3c-2.4,1.71-4.97,1.57-7.61.68,2.25-3.43,4.85-2.96,7.61-.68Z"/>
  <path class="cls-1" d="M579.97,432.56c-2.52,1.51-5.12,1.41-7.76.38,2.46-2.68,5.06-2.73,7.76-.38Z"/>
  <path class="cls-1" d="M67.96,260.26c.15,2.41-.67,4.54-1.85,6.57-1.74-2.86-.43-4.85,1.85-6.57Z"/>
  <path class="cls-1" d="M77.05,230.91c-.14,1.29-.05,2.66-1.23,3.59-1.47-1.84-1.4-3.15,1.23-3.59Z"/>
  <path class="cls-1" d="M79.46,222.11c-.22.67-.43,1.34-.64,2.01-1.21-.2-1.73-1.02-1.23-2.04.41-.86,1.25-.58,1.88.03Z"/>
  <path class="cls-1" d="M78.14,228.06c.09.4,0,.76-.25,1.07-.2-.27-.4-.54-.6-.8.28-.09.56-.18.85-.27Z"/>
  <path class="cls-1" d="M120.67,135.94c.52.59,1.56,1.2-.07,1.71.02-.57.04-1.14.07-1.71Z"/>
  <path class="cls-4" d="M150.49,113.11l-.08.34s-.36-.04-.35-.04c0,0,.12-.31.12-.31h.31Z"/>
  <path class="cls-4" d="M152.18,112.11l-.26.3s-.39-.02-.38-.02c0,0,.19-.43.19-.43l.46.15Z"/>
  <path class="cls-4" d="M154.55,110.36c-.23.31-.45.61-.67.91.23-.31.45-.61.67-.91Z"/>
  <path class="cls-1" d="M245.26,652.93s-.19.36-.19.35c0,0-.26-.37-.26-.37h.45Z"/>
  <polygon class="cls-1" points="71.59 248.23 71.59 248.21 71.44 248.09 71.59 248.23"/>
  <path class="cls-3" d="M246.51,342.51c2.09-.6,4.18-.41,6.27,0,2.66,2.44,5.72,3.06,9.14,1.94,3.67.16,7.33.32,11,.48,2.4,1.62,4.93,2.67,7.9,1.92,3.2.2,6.39.4,9.59.59.92.1,1.83.2,2.75.29,5.93-.3,8.59,5.09,12.93,7.55,1.57.89,1.34,2.54-.48,3.38-7.89,3.64-12.16,10.71-16.27,17.71-2.4,4.08-4.07,2.87-6.62.49-11.6-10.83-22.71-22.22-35.17-32.12-.58-.46-.71-1.47-1.05-2.23Z"/>
  <path class="cls-1" d="M107.08,180.45c-.53-2.54-.79-5.08.26-7.56,1.21,2.57,1.58,5.1-.26,7.56Z"/>
  <path class="cls-1" d="M293.15,347.74c-.92-.1-1.83-.2-2.75-.29.65-1,1.65-.96,2.65-.9,0,.4.02.8.1,1.2Z"/>
  <path class="cls-3" d="M814.03,342.76c12.95,1.24,25.93,2.18,38.75,4.5.4.5.79.55,1.16-.04,1.79.24,3.58.48,5.38.72.14,1.17.29,2.34.44,3.51-8.99-1.75-17.48.97-25.96,3.2-2.72.72-5.19,1.18-7.81.06-3.36-4.6-9.16-6.76-11.95-11.94Z"/>
  <path class="cls-3" d="M911.63,355.99c5.82.78,4.78,5.26,4.48,8.93-.16,1.92-1.61,3.73-2.49,5.58-4.1.58-6.39-.03-3.82-4.88,1.56-2.93,2.3-6.22,1.83-9.63Z"/>
  <path class="cls-5" d="M695.64,217.05c-13.67-5.56-18.41-17.27-21-30.46,4.99,4.82,5.99,11.95,9.98,17.33,2.49,3.36,3.83,7.76,8.62,9.16,1.43.41,2.59,2.05,2.4,3.98Z"/>
  <path class="cls-5" d="M674.28,184.14c-4.79-11.01-.59-21.08,3.57-31,1.05-2.5,2.02-5.48,4.64-7.15.81,1.7.43,3.35-.55,4.76-6.01,8.73-6.86,18.6-6.52,28.76.05,1.6.52,3.4-1.14,4.62Z"/>
  <path class="cls-1" d="M261.91,344.45c-3.42,1.12-6.47.5-9.14-1.94,3.55-1.75,6.39-.13,9.14,1.94Z"/>
  <path class="cls-1" d="M280.81,346.85c-2.97.75-5.51-.3-7.9-1.92,3.12-1.37,5.88-1.22,7.9,1.92Z"/>
  <path class="cls-4" d="M853.94,347.22c-.37.59-.76.54-1.16.04.37-.62.75-.67,1.16-.04Z"/>
</svg>