<?xml version="1.0" encoding="UTF-8"?>
<svg id="Layer_1" xmlns="http://www.w3.org/2000/svg" viewBox="0 0 1079.64 705.5">
  <defs>
    <style>
      .cls-1 {
        fill: #e2f3f3;
      }

      .cls-2 {
        fill: #c2c1c1;
      }

      .cls-3 {
        fill: #e0d5cd;
      }

      .cls-4 {
        fill: #838988;
      }

      .cls-5 {
        fill: #887a70;
      }

      .cls-6 {
        fill: #89796f;
      }

      .cls-7 {
        fill: #e4ae82;
      }

      .cls-8 {
        fill: #808685;
      }

      .cls-9 {
        fill: #d1d1d0;
      }

      .cls-10 {
        fill: #fbfbfb;
      }

      .cls-11 {
        fill: #fdcca7;
      }

      .cls-12 {
        fill: #e2e2e2;
      }

      .cls-13 {
        fill: #e9b68f;
      }

      .cls-14 {
        fill: #3b3b3a;
      }

      .cls-15 {
        fill: #282828;
      }

      .cls-16 {
        fill: #d3d3d3;
      }

      .cls-17 {
        fill: #e0ab7c;
      }

      .cls-18 {
        fill: #9e9f9c;
      }

      .cls-19 {
        fill: #e2e2e1;
      }

      .cls-20 {
        fill: #c5c2ba;
      }

      .cls-21 {
        fill: #e9eae9;
      }

      .cls-22 {
        fill: #776f61;
      }

      .cls-23 {
        fill: #1f75bb;
      }

      .cls-24 {
        fill: #4c5351;
      }

      .cls-25 {
        fill: #a09f9f;
      }

      .cls-26 {
        fill: #fccca7;
      }

      .cls-27 {
        fill: #808884;
      }

      .cls-28 {
        fill: #838687;
      }

      .cls-29 {
        fill: #daa779;
      }

      .cls-30 {
        fill: #ecb897;
      }

      .cls-31 {
        fill: #dca77b;
      }

      .cls-32 {
        fill: #efdecd;
      }

      .cls-33 {
        fill: #a09fa0;
      }

      .cls-34 {
        fill: #818786;
      }

      .cls-35 {
        fill: #1f75b8;
      }

      .cls-36 {
        fill: #373838;
      }

      .cls-37 {
        fill: #ddab80;
      }

      .cls-38 {
        fill: #b0b4b3;
      }

      .cls-39 {
        fill: #818684;
      }

      .cls-40 {
        fill: #716e65;
      }

      .cls-41 {
        fill: #99846c;
      }

      .cls-42 {
        fill: #888a89;
      }

      .cls-43 {
        fill: #d84140;
      }

      .cls-44 {
        fill: #fccba8;
      }

      .cls-45 {
        fill: #9ea09e;
      }

      .cls-46 {
        fill: #edb997;
      }

      .cls-47 {
        fill: #b7b5ae;
      }

      .cls-48 {
        fill: #9f9f9f;
      }

      .cls-49 {
        fill: #353532;
      }

      .cls-50 {
        fill: #ebb998;
      }

      .cls-51 {
        fill: #c1c1c1;
      }

      .cls-52 {
        fill: #808786;
      }

      .cls-53 {
        fill: #828684;
      }

      .cls-54 {
        fill: #1d1815;
      }

      .cls-55 {
        fill: #eeb997;
      }
    </style>
  </defs>
  <path class="cls-1" d="M799.63,599.58s.46,28.46-2.45,35.18c-2.91,6.72,25.45,16.15,25.45,16.15l32.02-23.95s-10.7-12.73-15.16-39.22c-4.46-26.49-39.86,11.83-39.86,11.83Z"/>
  <path class="cls-1" d="M891.46,574.51s-9.67,23.34-11.68,33.9c-2.01,10.56,21.13,13.12,21.13,13.12,0,0,42.65-9.86,44.4-16.23s-6.66-7.58-11.02-26.88c-4.36-19.3-42.82-3.91-42.82-3.91Z"/>
  <path class="cls-10" d="M208.6,601.83s-5.88,26.3-3.33,34.53,23.21,12.94,23.21,12.94l37.05-23.9s-11.82-14.51-15.25-38.89-41.68,15.32-41.68,15.32Z"/>
  <path class="cls-10" d="M302.97,578.58s-12.07,21.17-11.86,29.5c.21,8.32,28.42,14.88,28.42,14.88l38.19-22.19s-7.47-7.42-13.85-27.95-40.9,5.76-40.9,5.76Z"/>
  <path class="cls-11" d="M124.65,119.95c1.7-1.4,3.39-2.79,5.09-4.19,3.29-.68,6.6-1.21,9.78-2.4,10.07-3.78,20.36-4.32,30.58-1.01,5.74,1.85,10.87,5.07,15.72,8.78,4.26,3.26,7.68,7.27,11.26,11.17,1.61,4.16,4.61,7.64,5.84,11.99,1.82,8.96,3.88,17.8,3.89,27.12,0,7.98-1.78,15.16-5.82,21.71-3.88,6.29-5.7,12.13-3.63,19.88,4.04,15.12,5.79,30.68,4.88,46.43-.13,2.27-.34,4.53-.98,6.69-1.38,4.66-1.75,9.41-1.63,14.22.65,4.56-2.43,8.3-2.77,12.68-.35,4.49.22,5.45,4.84,6.62,6.43,7.39,14.45,12.93,22.16,18.8,2.78,2.11,5.56,4.3,8.71,5.9-.32,2.81,1.34,4.48,3.46,5.79,9.68,5.95,17.69,14.02,26.65,20.88,10.84,8.31,20.96,17.65,33.45,23.7,4.65,2.25,6.76,6.83,6.22,11.89-.31,2.96-.2,5.89.34,8.85.78,4.24-.59,6.04-4.79,6.91-1.53.32-3.09.33-4.65.24-4.95-.27-6.12-2.3-4.12-6.87.94-2.15,2.18-4.23,2.42-7.36-2.85,1.54-3.74,4.01-5.1,5.95-1.42,2.02-5.03,2.88-4.44,5.66.49,2.3,3.98,2.35,5.67,4.09.59.6,1.27,1.13,2.1,1.4.62.18,1.22.37,1.84.56,2.41.79,5.09-.15,7.43,1.14,2.36,1.53,3.24,3.8,3.25,6.5.03,5.77.1,11.44-1.77,17.13-1.57,4.77-1.01,10.05-1.54,15.09-1.06,10.05-2,20.05-5.08,29.81-2.36,7.47-.65,15.03,1.46,22.47,1.08,3.8,3.44,7.54,1.78,11.8-3.23-.68-4.04-3.55-4.68-5.98-2.97-11.4-3.49-22.82-1.5-34.62,1.23-7.34,3.77-14.33,4.55-21.77.78-7.46.25-8.54-7.13-7.45-5.11.75-9.94,3.14-15.27,2.71-1.67-.61-1.05-1.7-.43-2.62.84-1.26,1.86-2.42,2.1-3.99,1.44-3.73,2.33-7.75,5.42-10.64,2.3-3.1,5.7-3.94,9.22-4.51.45-.24,1.31-.35,1.14-.91-.29-.97-1.4-.53-2.13-.79-.39-.07-.77-.18-1.14-.32-6.36-2.63-12.03-6.31-17.04-11.04-.53-.36-1.01-.77-1.48-1.2-3.03-3.62-7.13-5.42-11.49-6.79-.54-.17-1.09-.52-1.63-.38-9.63,2.37-19.94,2.34-28.43,8.67-7.4,5.52-10.43,12.85-9.5,21.75.98,9.33,5.96,16,14.79,19.45,4.33,1.69,8.98,1.4,13.38.52,4.55-.9,9.17-1.57,13.61-3.05,1.98-.66,4.14-1.32,5.78.88,1.34,6.91-.41,13.73-.72,20.58-.52,11.65-3.6,23.02-3.97,34.74-.27,8.44-2.7,16.68-3.37,25.08-1.17,14.63-4.52,28.9-6.37,43.4-.98,7.64-.84,15.49.17,23.21.66,5.02-.86,8.08-5.73,8.5-9.82.86-19.5,3.17-29.42,2.98-5.44-.1-7.25-1.59-7.57-6.93-1.05-17.07-4.29-33.85-6.43-50.77-.28-2.25-.46-4.49-.38-6.75.53-6.37-1.37-12.35-3.04-18.36-1.03-7.52-3.12-14.83-4.58-22.26-1.39-7.06-2.13-14.25-1.62-21.43.52-7.27.32-14.78,3.32-21.6,2.14-4.86,3.84-9.84,5.61-14.82,1.55-4.35,1.32-4.52-3.29-5.2-5.01-.75-10.05-1.24-15.1-1.55-8.68-.53-11.37-2.83-11.71-11.39-.39-10-.12-19.96,1.91-29.86,1.09-5.27,2.46-10.37,4.54-15.3,3.05-6.52,7.76-11.69,13.24-16.23.87-.72,1.87-1.27,2.75-1.98,1.82-1.46,1.7-2.71-.3-3.92-3.87-2.34-7.72-4.7-11.62-7-2.93-1.73-5.73-3.63-8.1-6.1-3.53-3.66-8.32-5.79-11.56-9.86-2.92-3.67-5.12-7.45-6.59-12.04-3.35-10.42-5.77-21.14-9.36-31.42-3.9-11.15-6.63-22.66-10.98-33.67-2.6-6.58-2.74-13.78-3.77-20.72-1.12-7.52-1.64-15.12-1.78-22.73-.04-1.93-1.39-3.4-1.45-5.27.12-9.92,1.29-20-4.57-28.98-.3-.46-.51-.99-1.74-1.65,2.48,9.17,4.51,17.96,1.58,26.92-1.46.97-2.39-.16-3.28-.95-6.94-6.14-13.36-12.94-15.73-22.03-2.83-10.87-4.1-21.81.89-32.88,4.03-8.95,8.51-17.35,15.46-24.32,1.59-1.6,2.08-4.03,4.01-5.38Z"/>
  <path class="cls-30" d="M289.43,406.54c-2.67-1.75-5.18-3.76-8.18-4.97-1.9-.77-1.84-2.61-.65-3.33,4.2-2.53,6.07-6.96,9.19-10.34.6-.65,1.25-1.84,2.41-1.02.89.62.97,1.64.54,2.67-1.08,2.59-1.83,5.39-3.28,7.75-1.71,2.79-.11,3.73,1.96,4.14,1.9.38,3.97.28,5.91.01,4.33-.6,5.34-2.07,4.24-6.35-.69-2.68-.63-5.36-.4-7.99.53-6.05-1.13-9.35-6.59-12.1-7.2-3.63-13.37-8.72-19.87-13.42-10.27-7.42-19.65-15.85-29.52-23.71-3.96-3.15-8.23-5.8-12.28-8.77-2.41-1.77-2.03-2.87-.57-4.62,1.75-1.79,3.94-1.38,5.93-.9,9.69,2.33,19.85,1.44,29.44,4.37,1.6.49,3.34.29,4.99.23.61-.21,1-.6.28-1.08-3.99-2.6-5.97-6.65-7.84-10.77-6.45-14.17-10.64-29.11-14.5-44.12-1.42-5.51-1.22-11.4-3.06-16.96-.72-2.17-.48-4.76.36-7.1,2.33-3.57,6.13-5.34,9.59-7.35,9.81-5.7,17.79-13.18,23.68-22.88,1.68-2.77,3.24-5.62,4.97-8.35,2.7-4.25,2.46-8.29.18-12.72-6-11.66-9.44-24.03-9.26-37.25.02-1.4-.08-2.84.92-4.03,3.59.84,6.57,3.01,9.83,4.58,4.9,2.37,7.29,1.75,10.23-2.87,1.14-1.79,2.06-3.73,3.75-5.09,2.39-1.92,3.76-1.64,4.5,1.37,1.31,5.33,2.02,10.79,2.36,16.28.65,10.52-1.69,20.7-3.78,30.89-.42,2.05-.32,3.81.32,5.75,5.63,17.13,7.85,34.48,3.9,52.39-.93,4.23-1.35,8.57-2.78,12.72-.73,2.11.29,3.75,1.84,5.25,6.61,6.36,13.09,12.87,19.41,19.5,12.85,13.48,24.96,27.65,37.97,40.99,5.52,5.66,11.71,10.55,17.84,15.53,9.84,7.98,21.81,11.51,33.19,16.29,1.29.54,2.69.91,3.52,2.19.44,2.02-1.75,1.82-2.48,2.89,4.54,1.53,5.62,1.11,5.32-2.04.18-1.59,1.84-1.24,2.64-2.02.3-.26.6-.52.9-.78.54.28.82.77,1.06,1.29.73,2.45,3.02,1.6,4.64,2.19,6.14,3.14,10.36,8.2,13.4,14.17,1.74,3.42.35,6.57-2.53,9.01-4.32,1.49-5.17.87-4.35-3.48.44-2.33.07-4.48-.69-6.64-.39-1.1-1.01-2.06-2.27-2.28-1.4-.25-2,.76-2.56,1.78-.54.99-1.01,2.08-2.04,2.65-2.65,1.48-4.24.26-5.28-2.21-.6-1.42-1.13-2.59-3.04-1.21-6.27,4.51-7.54,4.33-12.93-1.39-.48-.51-.85-1.13-2.01-1.55.95,3.45-.66,5.64-2.92,7.88-2.47,2.45-3.19,2.79-5.48.09-1.73-2.05-3.37-4.16-5.47-5.86-.68-.55-1.54-.68-2.35-.93-8.07-1.62-15.88.31-23.73,1.66-6.76-.39-11.55,3.58-16.34,7.47-4.48,3.65-5.07,3.67-8.95-.34-1.65-1.7-3.19-3.55-5.34-4.68-2.9-2.23-6.33-3.26-9.77-4.28-5.9-1.43-11.45.46-17.05,1.77-7.21,1.91-7.84,2.83-6.76,9.96,1.03,6.83-.75,8.86-7.85,9.07-1.66.05-3.41-.41-4.94.6-.66.7-.93,1.65-1.56,2.38Z"/>
  <path class="cls-51" d="M101.76,685.64c-.29.29-.58.58-.86.86-3.97.58-5.29-.35-5.33-4.08-.04-3.71,1.01-7.23,2.42-10.63,1.65-2.83.63-5.97.99-8.96.06-.73.23-1.44.51-2.12,1.5-3.05,4.17-4.53,7.3-5.27,15.11-3.6,29.73-8.9,44.69-13.04,5.55-1.53,10.94-3.75,16.57-5.13.81-.2,1.91-.43,1.96-1.35.07-1.19-1.1-1.61-2.05-1.78-4.16-.78-8.19-2.26-12.44-2.53-3.13-.2-4.23-1.53-4.22-4.87.06-13.56.93-27.17-.46-40.66-1.34-13.05-1.67-26.12-2.64-39.17-.34-4.64-.82-9.76-2.71-13.96-2.92-6.49-8.5-10.87-15.54-12.79-9.2-2.52-18.75-3.24-28.07-5.14-8.36-1.71-16.81-3.11-25.21-4.46-7.18-1.15-14.29-2.95-21.6-3.47-5.74-.41-11.32-2.02-17.01-2.93-10.56-1.69-21.09-3.59-31.67-5.16-4.28-.63-5.07-1.74-5.13-6.17-.2-16.81.44-33.62-.35-50.43-.03-.72.18-1.39.67-1.96,6.79-.34,13.45,1.04,20.11,1.91,11.43,1.49,22.89,2.92,34.24,4.89,8.18,1.42,16.46,2.38,24.64,3.43,8.48,1.08,16.9,3.16,25.53,3.17,1.98,0,3.92.25,5.88.58,12.61,2.13,25.2,4.48,38.06,4.51,2.61,0,4.96,1.01,7.42,1.58,5.13,1.19,10.17,1.59,15.35-.38,6.4-2.43,8.85-.79,9.65,6.08.88,7.59.15,15.23.18,22.84.22,46.49.11,92.97.11,139.46,0,7.72-.22,8.08-7.56,10.57-10.16,3.44-20.5,6.33-30.78,9.41-12.29,3.68-24.45,7.79-36.89,11-3.16.81-5.15,3.01-5.23,6.41-.11,4.67-.18,9.3-1.85,13.78-.77,2.05.07,3.25,2.43,3.15,1.55-.07,3.12-.13,4.52.77.87,1.03.21,1.44-.73,1.61-1.62.29-3.33-.34-4.92.43Z"/>
  <path class="cls-2" d="M691.25,685.66c-.26.05-.52.09-.78.13-1.2.77-2.41.92-3.65.07-1.57-2.6-.99-5.42-.65-8.15.19-1.52.57-3.01.47-4.55.17-4.49.56-8.94,2.36-13.13,1.85-2.57,4.61-3.53,7.51-4.38,16.76-4.92,33.62-9.48,50.15-15.16,5.15-1.77,10.63-2.5,16.26-5.12-5.76-2.13-11.29-2.35-16.5-3.9-3.65-1.09-4.81-2.87-4.77-6.62.16-14.52.51-29.11-1.33-43.52-1.5-11.77-.1-23.7-2.47-35.33-.97-4.76-.54-9.73-2.96-14.32-3.38-6.41-8.89-9.91-15.38-11.6-10.45-2.72-21.42-3.03-31.87-5.55-6.72-1.62-13.55-2.32-20.26-3.51-7.71-1.37-15.34-3.35-23.23-4.01-6.25-.52-12.5-1.92-18.68-3.12-8.69-1.7-17.43-3.13-26.14-4.7-.96-.17-1.94-.17-2.92-.43-4.95-1.28-5.21-1.53-5.22-6.55-.02-15.39,0-30.79,0-46.18,0-1.84.04-3.67-.38-5.48.02-.55.28-.91.79-1.1,7.22.94,14.46,1.78,21.68,2.78,11.54,1.59,23.03,3.48,34.56,5.15,4.1,1.63,8.44,1.33,12.71,1.57,2.25.78,4.65.58,6.95,1.06,3.26,1.53,6.8,1.26,10.25,1.53,3.64.94,7.48.66,11.09,1.81,3,.97,6.1.33,9.15.55,2.83.39,5.64.89,8.49,1.17,3.82,1.76,7.91,1.28,11.92,1.41.75.03,1.49.13,2.21.33,7.45,2.56,15.39,1.42,22.93,3.07,3.86.84,7.62,1.83,11.63,1.65,2.83-.13,5.48-.4,8.2-1.52,6.41-2.64,8.9-.85,8.9,6.08.03,34.16-.42,68.34.18,102.49.34,19.61.63,39.22.68,58.83.02,8.73-.53,9.42-8.72,11.98-14.51,4.55-29.04,9.07-43.6,13.45-7.28,2.18-14.51,4.6-21.95,6.3-6.24,1.43-6.68,2.15-7.24,8.46-.33,3.65-.79,7.3-1.76,10.85-.59,2.16-.63,4.19,1.25,5.82.37.43.42.9.16,1.4Z"/>
  <path class="cls-11" d="M936.36,76.97c-.12,3.89-1.65,7.41-2.01,11.18-.73,7.56-6.08,12.49-10.35,17.98-2.2,2.82-3.27,5.74-3.23,9.33.06,5.62-.73,11.2-1.53,16.76-.51,3.55-2.65,4.53-5.75,3.53-3.7-1.19-6.26-.18-8.13,3.19-1.38,2.47-3.68,4.22-5.44,6.43-3.43,4.32-1.37,8.66-.9,12.98,1.23,11.31,2.07,22.67-.78,33.79-2.22,8.65-1.11,16.71,1.32,25.08,1.54,5.32,1.85,11.08,2.91,16.54,1.47,7.5-.97,14.38-1.5,21.53-.43,5.86-.94,11.77-2.85,17.43-.52,1.54.3,2.81,1.47,3.7,6.32,4.77,11.68,10.63,17.29,16.13,6.93,6.8,14.57,12.72,21.8,19.13.25.47.15.85-.3,1.14-2.95.37-4.57-1.92-6.48-3.44-8.51-6.78-16.39-14.26-23.95-22.09-1.86-1.93-3.65-3.99-5.94-5.41-6.02-3.72-6.78-9.03-5.48-15.45,1.87-9.25,3.92-18.64,3.43-28.04-.55-10.5-1.91-21.09-6.07-30.97-1.19-2.83-.72-5.36.03-8.2,3.95-14.89,5.32-29.91,1.35-45.37-2.89,1.59-4.22,4.3-6.06,6.52-3.59,4.35-5.7,4.88-10.49,1.88-2.88-1.8-6.24-2.66-8.91-4.82-.48-.44-.9-.93-1.29-1.46-2.74-3.69-7.19-4.33-10.99-6.13-3.37-6.42-4.43-13.58-6.45-20.42-1.86-6.28-3.55-12.63-3.11-19.97-2.55,2.15-3.04,4.26-3.18,6.55-.27,4.68.1,9.43,1.31,13.82,1.7,6.11,1.54,12.61,4.14,18.5.45,1.03.36,2.21.1,3.34-1.02,2.07-1.49,4.23-1.34,6.55.6,9.52-.79,18.85-2.66,28.15-1.44,7.15-5.14,10.44-10.7,9.22-2.73-.6-4.92-2.22-6.57-4.39-2.23-2.92-4.87-5.5-6.91-8.56-3.17-5.73-6.46-11.42-9.46-17.23-2.99-5.8-6.39-11.5-7.95-17.96-2.31-3.71-3.99-7.75-5.98-11.62-3.05-10.46-7.99-20.23-11.19-30.64-.64-2.08-1.73-4.25.02-6.36,2.74-2.5,6.14-1.86,9.27-1.62,4.18.32,7.36-1.38,10.3-3.96.74-.65,1.31-1.72,2.15-2,8.2-2.71,7.7-10.07,8.75-16.46,1.71-10.42,4.51-20.53,8.32-30.34,2.63-6.76,5.42-13.5,9.37-19.62,1.47-2.28,2.51-5.03,5.22-6.34,1.17,1.75-.22,2.96-1.04,4.14-7.28,10.46-11.35,22.32-15.12,34.33-2.37,7.56-4.18,15.23-5.11,23.11-.52,4.37-.09,4.78,4.13,6.41,5.8,2.24,11.11.2,16.52-1.33.81-.23,1.56-.74,2.39-.86,4.13-.58,5.49-2.83,6.09-7.03.85-5.98,4.26-11.08,9.13-14.82,3.68-2.83,7.95-3.9,12.32-1.62,3.97,2.07,5.05,5.76,4.98,10.02-.05,3.27-.13,6.48-1.52,9.54-.39.86-.84,1.97.06,2.76.89.78,1.89.17,2.77-.23,5.13-2.39,9.54-5.53,11.64-11.1.8-2.12,2.04-4.09,2.63-6.24,3.01-11.04,19.43-15.05,28.2-8.74,5.03,3.62,10.33,6.9,15.59,10.22,2.99,1.89,5.2,1.49,7.47-.89,3.92-4.11,4.43-8.92,3.14-14.18-3.08-12.59-10-22.56-20.3-30.36"/>
  <path class="cls-26" d="M419.85,371.89c-5.19-3.13-10.9-5.17-16.52-7.23-11.01-4.03-20.24-10.62-28.91-18.23-15.39-13.52-28.63-29.06-42.04-44.45-3.67-4.21-8.13-7.72-12.08-11.7-4.76-4.79-9.47-9.65-14.01-14.66-2.34-2.58-.12-5.37.36-8.01,2.42-13.37,5.57-26.65,2.68-40.4-1.54-7.34-2.55-14.78-5.5-21.79-.54-1.28-.14-3.08.17-4.57,2.21-10.59,4.7-21.16,3.83-32.09-.39-4.88-1.22-9.73-2.01-14.56-.49-2.99-1.79-2.98-3.76-.88-1.4,1.49-2.2,3.26-3.16,4.97-2.63,4.7-5.95,5.74-10.64,3.22-3.42-1.84-7.48-2.58-10.08-5.84-4.52-2.6-9.53-4.22-13.95-7.03-.05-3.25-1.04-6.25-1.99-9.36-3.09-10.03-6.14-20.14-5.25-31.43-4.71,6.9-3.45,14.03-2.23,20.97,1.36,7.75,3.16,15.42,3.9,23.28-1.07,7.12-.32,14.35-1.32,21.49-.69,4.89-1.71,9.7-2.58,14.54-.3,1.67-1.13,3.2-2.07,4.61-2.79,4.17-7.33,4.87-11.29,1.8-7.9-6.13-12.83-14.55-17.52-23.07-6.18-11.22-11.46-22.92-16.46-34.69-3.16-7.45-5.86-15.16-8.67-22.79-1.32-3.58-2.67-6.99-2.73-10.82.59-5.05,1.78-6.52,6.57-5.98,6.37.72,11.25-1.86,15.58-5.89,2.37-2.2,5.73-3.14,7.5-6.05.38-.3.8-.36,1.25-.19,7.42,4.28,15.02,3.97,22.73.88.92-.37,1.81-.84,2.78-1.01,3.5-.62,4.95-2.37,5.45-6.19.87-6.64,4.48-12.15,9.91-16.19,3.27-2.43,7.03-3.01,10.79-1.1,3.63,1.84,5.14,4.9,5.02,9.03-.09,3.31-.61,6.44-1.9,9.47-.68,1.59-1.34,3.58-.08,4.8,1.4,1.37,2.72-.63,4.07-1.16,8.36-3.3,12.88-9.68,15.55-18.12,2.9-9.18,13.05-13.48,22-9.55,8.52,3.74,16.47,8.54,23.47,14.78-2.58,7.4-2.08,15.48-5.6,22.76-1.87,3.86-3.74,7.54-6.72,10.57-3.65,3.71-5.72,7.93-5.31,13.27.4,5.11-.64,10.09-1.75,15.03-.59,2.59-1.63,4.23-5.04,3.18-3.69-1.13-6.85.16-8.92,3.82-1.66,2.93-3.73,5.62-5.58,8.44-1.29,1.96-.82,4.04-.34,6.12,1.39,6.05,1.77,12.23,2.09,18.4.45,8.65-1.08,17.17-3.06,25.45-1.25,5.22.04,9.67,1.27,14.34,2.89,10.89,5.08,21.71,3.82,33.22-.99,8.96-1.68,17.89-4.36,26.55-.68,2.2.55,3.71,2.04,5.18,6.64,6.55,13.4,12.98,19.78,19.78,12.72,13.56,24.75,27.8,37.98,40.83,9.33,9.19,18.88,18.49,31.77,23.26,6.43,2.38,12.62,5.48,19.04,7.98,2.6,1.01,5.11,1.44,7.81,1.3-.44,1.07-1.57,1.18-2.38,1.73-1.14.99-2.28.92-3.4-.03Z"/>
  <path class="cls-11" d="M715.85,119.15c.85-1.43,1.94-2.6,3.45-3.34,4.11-.2,7.83-1.55,11.7-3.02,9.27-3.53,18.87-3.84,28.39-.37,3.7,1.35,7.34,2.68,10.83,4.63,9.99,5.58,15.55,14.85,20.91,24.29,1.43,2.52,3.79,4.66,3.83,7.88-.54,4.07-.23,7.88,1.2,11.93,1.47,4.17,1.35,8.92-.65,13.21-.98,2.11-1.35,4.29-1.23,6.57.3,5.45-1.52,10.51-2.74,15.69-.98,1.74-2.46,2.94-4.18,3.95-4.19,2.46-4.59,5.32-1.36,9.09.99,1.16,2,2.32,3.02,3.47.22.41.35.83.41,1.29.49,6.41,2.18,12.75,2.54,19.04.58,10.17,1.16,20.43.49,30.67-.05.7-.02,1.47-.37,2.06-2.69,4.49-2.26,9.45-2.24,14.34-.05.45-.17.89-.33,1.31-3.09,4.04-3.1,8.76-2.95,13.52.06,1.97,1,3.12,2.99,3.36.62.1,1.2.29,1.76.57,5.99,5.41,12.76,9.78,19.34,14.4,2.84,2,4.94,5.2,8.76,5.7,2.68,1.29,4.89,3.34,7.52,4.71.2,3.48,2.96,4.88,5.36,6.58,1.61,1.45,3.54,2.52,4.86,4.3.6.86,1.27,1.68,1.5,2.75.25,1.58-.55,2.7-1.68,3.63-7.66,6.32-10.13,14.46-8.45,24.06.12.7.05,1.4-.17,2.07-1.19,2.04-2.86,1.93-4.75,1.12-9.21-3.95-19.12-6.27-28.07-10.58-17.16-8.27-35.11-15.66-47.36-31.51-2.73-3.52-4.06-7.72-6.55-11.3-.2-.41-.33-.83-.42-1.27-.16-3.4-1.13-6.59-2.2-9.81-3.82-11.4-6.83-23.05-10.23-34.58-.48-1.62-.9-3.24-1.94-4.62-3.22-10.21-5.19-20.64-6.26-31.3-.61-6.04-.85-12.05-.78-18.1.02-2.06-1.17-3.75-1.33-5.72.26-2.02-.03-4.12.82-6.06,1.29-.97,2.93-.96,4.37-1.51,3.25-1.25,5.75-.04,6.98,2.9,1.59,3.78,3.64,6.49,8.04,7.01,1.95.23,3.21,1.92,3.43,3.88.47,4.21.92,8.45-.82,12.53-.55,1.3-1.53,2.71-1.05,4.03,1.97,5.4-.87,8.77-4.91,11.7,7.11,3.7,8.02,10.03,2.4,15.79-2.31,2.37-3.33,4.49-.43,7.13,1.64,1.49,1.45,3.24.09,4.9-1.57,1.92-.25,2.99,1.14,4.15,1.46,1.22,2.53.84,3.5-.56,1.36-1.95,3.37-2.42,5.58-2.43,2.97-.01,5.94-.16,8.9.07,4.12.31,5.9,2.14,6.2,6.09.33,4.42-1.05,6.43-5.06,7.5-1.76.47-3.77.24-5.22,1.53-1.98,1.75-2.46,4.14-1.99,6.59.45,2.32,1.13,4.31,3.86,5.53,4.27,1.9,8.18,3.71,13.17,2.67,3.36-.7,5.9,2.43,6.04,6.13.05,1.27-.55,2.59-.23,3.79,1.84,6.91-1.65,10.66-7.52,13.12-.9.38-1.69,1.02-2.54,1.52-1.79,1.04-1.69,2.05-.01,3.1.24.15.46.33.71.47,2.34,1.3,4.54,4.52,6.72,3.96,2.94-.75.4-4.67,1.67-6.95.39-.7.36-1.64.6-2.46.75-2.56,2.14-4.36,5.1-4.05,2.85.3,5.25,1.86,4.91,4.8-.86,7.62,4.22,13.22,5.98,20.33,1.64-1.49,1.2-3.13,1.37-4.56.71-5.99,5.39-9.28,11.17-7.82,3.25.82,5.06,3.27,3.81,6.3-1.54,3.71-.86,7.53-1.5,11.26-.19,1.12-.22,2.6,1.09,2.9,3.27.73,6.47,2.16,9.95,1.55,2.28-.4,2.52-2.3,2.25-3.93-.74-4.46-.26-8.58,1.54-12.79,1.36-3.2-.02-4.74-3.46-4.98-.99-.07-1.98,0-2.97-.05-5.55-.25-7.4-1.91-7.48-7.45-.08-5.43-2.92-8.95-7.24-11.63-1.66-1.03-3.41-1.11-5.3-.75-2.54.48-2.22,2.42-2.51,4.22-.4,2.43-3.42,4.4-6.1,4.13-3.04-.31-3.44-2.58-3.39-4.96.08-3.55,1.67-6.81,2.04-10.34.4-3.79-.48-5.04-4.11-4.6-6,.72-6.92-.43-4.9-6.04,1.63-4.53,3.55-8.95,4.24-13.79.21-1.45.16-2.5-1.04-3.31-3.05-2.06-3.66-5.25-3.87-8.54-.35-5.62,1.13-10.77,3.57-15.87,3-6.27,2.83-13.28-.31-19.1-2.94-5.47-2.52-10.25-.48-15.29.77-1.9,1-3.02-.58-4.35-1.75-1.48-2.28-3.5-2.27-5.71,0-4.09-.03-8.17.54-12.26.87-6.18,2.85-12.2.58-18.73-1.42-4.07.5-6.45,4.63-8.15,2.11-.87,2.87-2.22,2.45-4.27-.68-3.28-.43-5.97,2.71-8.16,1.87-1.31.75-3.89-2-4.53-2.61-.61-5.41-.58-6.82-3.48-1.59-3.28-2.11-6.59-1.34-10.26,1.67-7.97,1.56-8.01-5.54-11.94-1.37-.76-2.54-1.78-3.8-2.69-1.76-1.27-3.67-1.88-6.63-1.37,2.16,1.34,4.04,1.39,5.58,2.24,2.37,1.3,3.6,3.13,3.15,5.88-.47,2.86-2.62,3.66-5.02,3.45-7.59-.65-15.23-.47-22.8-1.32-.84-.09-1.71-.59-2.49-.4-4.95,1.21-9.94,1.37-15.02,1.25-2.48-.06-4.09,1.48-3.37,4.57.95,4.06-1.05,7.97-.96,12.08.04,2.25-2.66,3.04-4.87,3.26-2.23.23-4.21-.13-5.36-2.45-.73-1.48-.7-3.36-2.68-4.8-.16,3.58-1.62,5.64-4.93,7.16-2.89,1.33-1.97,10.99,1.04,12.59,3.23,1.72,3.96,4.13,3.48,7.36-.04.28-.08.56-.08.84,0,2.33.46,4.5,2.36,6.08.33.27.94.19,1.12-.18,1.06-2.24,1.69-4.79.47-6.92-1.82-3.21-2.35-6.62-2.75-10.12-.31-2.72,1.01-4.24,3.69-3.67,2.74.58,5.85,1.4,7.44,3.65,1.69,2.41,3.78,3.2,6.29,3.7,3.73.75,5.69,2.93,5.63,6.78-.05,3.52.9,6.96.48,10.55-.42,3.57,4.68,9.44,7.77,9.38,1.7-.03,3.13.19,3.84,1.91.6,1.44.26,2.79-.75,3.94-1.24,1.42-3.38,2.36-4.51,1.21-3.93-4.02-8.71-2.91-13.35-2.99-.57,0-1.07-.33-1.53-.67-1.65-4.92-1.32-10.26-3.35-15.13-.86-2.06-1.45-4.2-3.36-5.78,1.6,8.77,4.07,17.45,1.38,26.37-1.88,1.28-3.29.03-4.42-1.11-5.68-5.7-11.13-11.55-14.7-18.94-1.95-4.04-1.96-8.5-3.42-12.62-.44-3.29-.18-6.59-.24-9.89.02-1.39.15-2.75.82-4,1.85-5.53,3.44-11.08,6.61-16.18,3.48-5.61,7.22-10.98,11.52-15.93,2.12-2.44,4.2-4.86,5.94-7.58Z"/>
  <path class="cls-15" d="M918,15.83c4.69,4.21,10.07,7.54,14.47,12.16,6.95,7.28,10.61,16.08,12.93,25.61.68,2.8.3,5.65-.51,8.38-1.91,6.37-7.43,8.43-13.02,5.3-6.71-3.75-12.53-8.98-19.8-11.77-.77-.3-1.49-.83-2.29-.97-7.76-1.29-16.39,3.97-18.97,11.35-2.81,8.02-6.87,15.07-15.41,18.27-1.35.5-2.77,2.2-4.23.79-1.22-1.19-.81-3.04-.08-4.4,1.77-3.27,1.62-6.77,1.82-10.3.22-3.81-1.25-6.67-4.37-8.52-3.56-2.11-7.36-1.33-10.38.93-5.85,4.37-9.62,10.24-10,17.75-.14,2.71-.81,4.03-3.77,4.39-3.04.37-6.11,1.26-8.92,2.5-5.22,2.3-10.14,1.37-15.24-.28-2.5-.81-3.46-2.22-3.25-4.65.67-7.75,2.5-15.25,4.48-22.76,2.15-8.16,5.28-15.92,8.47-23.7,2.55-6.22,6.64-11.54,9.7-17.44,4.16-4.56,7.94-10.27,14.39-11.08,6.49-.81,11.66-4.07,17.34-6.47,3.5-1.48,7.41-1.02,10.8.27,5.85,2.23,11.81,4.29,17.69,6.3,6.41,2.2,12.08,5.61,18.14,8.34Z"/>
  <path class="cls-48" d="M337.6,386.26c3.24.88,4.97,3.66,6.91,5.95,1.94,2.29,3.36,2.01,5.2.2,2.52-2.48,5.47-4.35,8.39-6.34,2.91-1.99,5.85-2.59,9.17-2.26.69,1.07,1.84,1.24,2.94,1.43,9.93,1.76,14.12,9.01,16.59,17.66,2.01,7.01.41,13.64-2.94,19.96-.55,1.03-1.89,2.31-.94,3.4.97,1.11,2.71.61,4.01.18,5.34-1.77,11-3.16,12.49-9.9.25-1.14,1-2.39,2.6-2.39.52.47.69,1.08.71,1.75-.81,2.67-1.08,5.56-3.18,7.69-1.72,1.12-3.44,2.24-5.16,3.36-10.18,4.58-21.12,5.29-32,6.29-4.54-.24-8.21-2.37-11.43-5.41-2.67-2.52-5.17-5.37-9.45-4.47-.45-1.24.27-2.16.87-3.11,6.68-10.65,5.75-20.82-2.73-29.91-.96-1.02-2.06-1.96-2.27-3.47.07-.2.15-.4.22-.61Z"/>
  <path class="cls-16" d="M591.12,439.81c.72,2.01.94,4.07.93,6.22-.05,15.26.2,30.52-.17,45.77-.11,4.63,1.95,5.82,5.69,6.42,8.44,1.34,16.87,2.77,25.3,4.2,9.1,1.54,18.03,4,27.33,4.41,4.18.18,8.13,1.94,12.27,2.73,7.81,1.48,15.73,2.3,23.54,3.98,7.04,1.52,14.22,2.97,21.52,3.47,8.91.62,17.49,2.83,24.21,9.23,3.04,2.9,4.54,6.59,5.53,10.96,3.51,15.61,1.83,31.6,4.46,47.34,1.91,11.41.42,23.39.43,35.11q.01,9.96,9.8,11.84c3.99.77,7.96,1.66,11.95,2.46.85.17,1.78.18,1.78,1.32,0,.88-.75,1-1.45,1.22-5.05,1.58-10.3,2.75-15.15,4.6-7.45,2.84-15.43,3.96-22.61,7.46-2.3,1.12-4.91,1.23-7.31,1.75-7.92,1.73-15.17,5.66-23.28,6.66-2.41.3-4.34,1.94-6.33,3.28-2.25.75-4.1-.66-6.1-1.18-5.47-1.44-10.82-3.27-16.21-4.95-1.49-.46-3.13-1.17-2.73-3.18.35-1.76,1.98-1.21,3.16-1.26,4.14-.18,7.67-2.52,11.69-3.24,3.14-.57,6.16-1.79,9.34-2.3,4.25-3.29,9.63-2.75,14.43-4.16,11.57-3.39,23.26-6.39,34.89-9.57,2.35-.64,3.32-2.1,3.3-4.66-.16-16.18-.6-32.34-2.44-48.44-.48-4.19-.28-8.47-.13-12.7.32-9.48-1.48-18.78-2.86-28.05-1.32-8.85-9.05-14.39-18.01-16.13-10.72-2.08-21.67-3.06-32.32-5.45-9.57-2.15-19.39-2.76-28.85-5.06-6.59-1.6-13.28-2.14-19.86-3.54-7.78-1.65-15.77-2.32-23.55-3.97-6.32-1.35-12.71-2.16-19.04-3.36-2.82-.54-4.01-2.38-3.99-5.48.12-17.94.05-35.87.04-53.81.28-.25.54-.24.78.07Z"/>
  <path class="cls-16" d="M1.64,440.66c.01,17.24.13,34.49-.05,51.73-.04,3.56,1.2,5.24,4.51,5.76,9.27,1.45,18.56,2.82,27.82,4.37,9.23,1.55,18.4,3.4,27.68,4.72,4.67.67,9.65,1.05,13.94,2.4,6.91,2.18,14.27,1.29,20.91,4.16.26.11.54.34.78.31,7.17-.93,13.74,2.3,20.71,2.98,9.86.96,19.37,3.47,26.06,11.89,2.05,2.58,2.04,5.63,2.96,8.48,4.22,13.02,1.56,26.58,3.8,39.79,2.4,14.2.84,28.73,1.05,43.11.02,1.41.15,2.84-.02,4.24-.49,4.04.52,5.97,5.27,6.07,4.39.1,8.77,1.7,13.11,2.8,1.12.29,2.74.76,2.48,2.41-.21,1.32-1.38,2.04-2.75,2.29-10.21,1.86-19.76,5.99-29.69,8.81-7.19,2.04-14.57,3.7-21.5,6.76-3.13,1.38-6.76,1.65-10.16,2.41-3.36.75-6.44,1.96-8.47,4.96-6.52-2.77-13.58-3.7-20.25-5.93-.94-.31-1.91-.53-2.8-.95-1.07-.51-2-1.23-1.93-2.52.08-1.33,1.14-1.64,2.28-2.07,6.32-2.35,13.11-2.86,19.45-5.06,7.93-2.76,16.2-4.27,24.24-6.65,7.63-2.25,15.23-4.75,23.08-6.27,2.58-.5,5.37-.87,6.8-3.64,0-10.32.17-20.63-.05-30.94-.25-11.52-2.99-22.9-2.46-34.46.43-9.37-2-18.4-2.8-27.62-.49-5.64-10.53-13.47-17.33-14.63-8.8-1.5-17.54-3.54-26.4-4.51-6.97-.77-13.79-2.45-20.65-3.59-6.68-1.11-13.57-1.64-20.21-3.58-6.15-1.8-12.66-2.37-19-3.39-9.8-1.57-19.6-3.19-29.39-4.89-2.48-.43-5.04-.46-7.52-.89-3.07-.52-4.45-2.3-4.41-5.61.14-13.28-.06-26.57.12-39.85.07-5.1-.66-10.11-.86-15.17.27-.29.58-.35.94-.18.58.53.78,1.2.7,1.96Z"/>
  <path class="cls-21" d="M347.56,590.23c1.37.27,2.69.86,4.06,1.08"/>
  <path class="cls-12" d="M150.96,628.01c-.37,3.38-3.22,3.65-5.59,4.15-8.9,1.84-17.56,4.57-26.28,7.08-7.08,2.04-14.38,3.42-21.32,5.84-6.37,2.23-13.27,2.1-19.45,4.91-.99.45-2.44.27-2.46,1.75-.02,1.49,1.33,1.48,2.43,1.77,6.09,1.63,12.13,3.42,18.24,4.96,1.67.42,2.78,1.19,3.56,2.63,0,.56-.01,1.12-.02,1.69-1.16,3.02.32,6.29-.85,9.31-1.41,3.19-2.24,6.51-2.55,9.99-.27,3.16.78,4.9,4.24,4.41-.77,1.2-2.07,1.17-3.04.77-8.41-3.48-17.55-4.45-26.04-7.67-2.59-.98-3.45-2.64-3.12-5.22.86-6.67,1.64-13.36,2.58-20.02.43-3.07,1.98-4.63,5.46-5.3,7.54-1.46,14.93-3.74,22.37-5.73,8.51-2.27,17.02-4.56,25.52-6.87,2.98-.81,6.07-1.39,8.86-2.62,5.66-2.49,12.25-2.11,17.46-5.83Z"/>
  <path class="cls-18" d="M1066.14,342.97c-2.29-.1-3.83,1.64-5.78,2.33-7.48,2.66-15.29,3.29-23.16,3.49-3.46-.99-1.9-2.77-.53-4.24,1.54-1.64,3.7-2.51,5.48-3.89,2.29-1.78,3.33-3.92,3.43-6.84.24-6.84-.19-13.46-4.1-19.43-1.59-2.42-3.3-3.76-6.5-3.61-2.92.14-6.3.35-8.25-2.88-.15-2.4,1.81-3.54,3.36-4.25,2.49-1.15,4.72-2.72,7.2-3.86,4.31-2.21,9.06-3.02,13.73-3.76,8.81-1.4,17,.2,22.76,7.65,5.63,7.28,7.53,15.23,4.23,24.48-2.34,6.55-7.23,10.44-11.88,14.81Z"/>
  <path class="cls-19" d="M688.73,644.13c-3.55,1.69-7.4,2.38-11.15,3.41-3.71,1.02-7.1,3.32-11.23,2.68-.33-.05-1.06.58-1.13.98-.19,1.1.77,1.31,1.58,1.56,5.22,1.64,10.41,3.39,15.68,4.86,2.45.69,4.83,1.45,7.08,2.63-.51,4.25-1.9,8.38-1.7,12.72-1.08,4.19-2,8.38-.83,12.72,1.14.03,2.29.06,3.43.1-.69,2.49-2.93,2-4.14,1.4-7.6-3.8-16.01-4.84-24.03-7.19-2.64-.77-3.37-1.91-3.29-4.36.26-7.85,1.67-15.56,2.65-23.31.24-1.9,1.53-3.03,3.47-3.05,5.29-.04,9.95-2.62,15-3.7,2.86-.62,5.61-1.62,8.59-1.44Z"/>
  <path class="cls-45" d="M426.62,371.15c-.03-.58-.06-1.16-.09-1.73,7-4.09,14.51-6.42,22.65-6.82,8.85-.44,20.61,6.74,24.39,15.78,4.09,9.78-.83,24.84-10.06,30.15-7.23,4.16-15.08,5.93-23.4,5.66-1.39-.02-2.09-.85-2.47-2.07-.42-2.62-.39-5.26-.04-7.87.47-3.54,1.57-6.77,5.01-8.61,3.66-4.95,3.8-6.23.38-11.16-3.03-4.36-6.46-8.38-11.31-10.88-1.55-1.09-3.95-.45-5.06-2.45Z"/>
  <path class="cls-43" d="M196.02,103.17c2.13,3.43,2.24,7.55,4.02,11.19,2.48,5.06,3.79,10.69,5.91,15.95,2.02,5.01,4.63,9.78,6.66,14.78,4.39,10.82,9.67,21.19,15.38,31.36,3.67,6.53,8.15,12.4,13.97,17.2,3.52,2.9,7.65,2.29,9.91-1.72,3.21-5.67,3.26-12.15,4.25-18.36.96-6,.85-12.09.9-18.16,0-1.09.49-2.18.75-3.27,1.56-2.61,3.85-3.74,6.87-3.39,5.06,1.22,10,2.69,13.53,6.91-.2,8.9.28,17.78,3.35,26.19,1.9,5.19,3.04,10.69,6.26,15.44,2.46,3.63,2.26,7.85.11,11.62-3.81,6.68-7.45,13.6-12.65,19.26-4.61,5.03-9.8,9.71-15.9,12.98-3.84,2.05-7.27,4.6-10.78,7.1-.21,0-.41.01-.62.02-1.17-.22-2.65.15-2.99-1.61,5.29-4.48,11.53-7.54,17.16-11.51,10.56-7.46,17.73-17.63,23.61-28.87,1.14-2.17.39-4.33-.59-6.49-5.42-11.86-9.81-23.98-9.86-37.32-.02-7.06-5.56-10.75-12.52-8.93-1.97.51-2.9,1.81-2.86,3.67.12,5.24-1,10.43-.85,15.62.17,5.94-1.41,11.45-2.96,17.01-.54,1.92-1.49,3.66-2.77,5.2-3.62,4.38-6.98,4.82-11.86,1.83-7.7-4.71-12.05-12.27-16.39-19.65-6.44-10.95-12.06-22.36-16.85-34.16-4.13-10.18-8.67-20.2-12.6-30.46-1.15-3-1.93-6.15-3.13-9.16-1-2.52-2.52-3.44-5.07-3.56-11.8-.53-23.38.36-34.5,4.73-.53.21-1.07.35-1.65.34-.48-.2-.66-.55-.54-1.06,2.57-2.87,6.34-3.94,9.65-4.5,9.8-1.64,19.68-3.01,29.71-2.32,4.11.28,4.48,3.54,5.9,6.08Z"/>
  <path class="cls-43" d="M124.65,119.95c-1.62,6.85-7.99,10.31-11.37,15.98-5.15,8.64-10.1,17.59-10.39,27.6-.37,12.72,2.3,25.06,12.1,34.53,2.63,2.54,4.85,5.51,7.96,7.53,2.73-.09,4.04,2.22,5.95,3.52,3.1,4.98,2,10.75,2.28,16.03.53,10.02,2.56,19.78,3.84,29.65.78,6.01,4.74,11.21,5.99,17.25,1.28,6.21,4.12,11.99,5.66,18.03,1.69,6.59,4.59,12.82,5.39,19.72.47,4.03,3.1,7.76,3.98,11.79,2.18,10.01,9.17,15.91,17.03,21.24.65.44,1,1.3,1.49,1.97-1.35.89-2.42,0-3.46-.63-10.07-6.09-16.83-14.57-18.72-26.44-.32-2.03-1.79-3.48-2.28-5.39-1.25-7.23-4.1-14.01-6.1-21.03-1.84-6.47-4.1-12.84-5.91-19.32-1.14-4.07-2.93-7.87-4.14-11.92-3.2-10.75-4.39-21.75-5.34-32.83-.36-4.21-1.07-8.39-.85-12.63.16-3.06-2.34-4-4.26-5.26-9.27-6.07-15.82-14.43-19.98-24.54-4.5-10.94-4.73-22.13-.83-33.42,1.72-4.97,3.77-9.69,6.76-14.01.82-1.18,1.56-2.39.83-3.91,4.37-4.96,8.22-10.46,14.37-13.52Z"/>
  <path class="cls-43" d="M110.28,133.47c1.33.02,3.83-.84,1.73,1.99-5.7,7.69-8.65,16.46-10.55,25.71-1.63,7.93.23,15.5,2.9,22.66,4.07,10.9,11.28,19.65,21.43,25.66,2.33,1.38,3.14,3.18,3.2,5.88.3,13.23,1.7,26.39,4.48,39.31,1.43,6.65,4.37,12.96,6.4,19.5,2.99,9.6,5.83,19.25,8.64,28.91.89,3.05,3.21,5.72,2.45,9.21-1.11.69-1.68-.08-2.26-.83-.74-2.58-1.6-5.09-3.47-7.15-.87-.96-1.14-2.24-1.26-3.53-1.02-11.63-5.62-22.24-9.36-33.1-2.8-8.15-4.66-16.54-5.95-25.05-1.29-8.51-1.92-17.09-2.61-25.66-.21-2.65-1.5-4.5-3.54-5.95-8.46-6.01-14.45-14.15-19.86-22.8-.6-.96-1.42-1.93-1.46-3.03-.24-6.66-2.69-12.96-3.13-19.58-.33-4.87,2.65-8.87,3.22-13.5.2-1.67,1.04-3.36-1.13-4.35-.06-.46-.11-.92-.17-1.38,2.67-4.91,6.51-8.89,10.3-12.92Z"/>
  <path class="cls-41" d="M226.49,85.35c.29-1.41-.49-3.01.76-4.25,3.32,6.63,9.44,5.54,15.08,5.23,3.96-.22,7.51-2.37,11.37-3.25,1.9-.43,2.03-2.1,2.29-3.65,1.21-7.17,5.06-12.79,10.49-17.39,4.82-4.08,10.04-4.12,14.62-.34,2.08,1.71,3.26,3.79,3.29,6.56.04,4.78.36,9.58-1.98,14.17,5.81-.62,12.83-5.88,15-11.12.75-1.82,1.64-3.61,2.21-5.5,2.65-8.71,9.56-11.64,17.6-12.98,3.49-.58,6.31,1.38,9.09,2.95,7.36,4.14,14.63,8.46,21.45,13.46,0,.24,0,.48,0,.72-.35.25-.7.5-1.05.75-5.78-2.25-10.25-6.66-15.67-9.55-3.65-1.95-7.15-4.37-11.08-5.54-6.31-1.88-15.75,3.86-17.87,10.19-1.02,3.04-2.2,6.04-3.58,8.93-3.18,6.65-10.49,7.93-15.82,11.81-1.27.92-2.51-.12-2.79-1.56-.35-1.8-.39-3.68.63-5.35,2.37-3.89,2.04-8.22,1.58-12.37-.62-5.6-9.18-7.77-14.06-3.69-5.49,4.6-8.98,10.34-9.32,17.66-.11,2.32-1.1,3.52-3.37,4.13-4.06,1.08-7.99,2.64-12.06,3.65-6.14,1.53-11.8.29-16.8-3.67Z"/>
  <path class="cls-55" d="M438.44,412.56c.56.55,1.11,1.09,1.67,1.63-2.17,5.83-6.86,8.78-12.56,9.65-4.09.62-8.45.43-12.54-.25-5.22-.86-10.31.51-15.45,0,.63-2.62.91-5.36,2.57-7.63.36-3.95,2.06-7.54,3.04-11.33.37-1.44.85-2.73,2.59-2.89,1.78-.16,2.88.84,3.74,2.25,3.53,5.75,2.1,11.37-3.95,15.45,4.77,2.22,17.38,2.79,23.05.45,1.99-.82,2.45-2.11,2.48-3.89.05-3.26.44-6.47,1.58-9.53.44-1.18,1.17-2.6,2.63-2.25,1.46.35.6,1.91.75,2.93.26,1.79-.38,3.64.39,5.4Z"/>
  <path class="cls-43" d="M786.24,98.81c.19,6.72,3.19,12.69,5.66,18.66,2.52,6.09,4.63,12.23,6.28,18.58.42,1.17,1.85,2.1.83,3.59-2.29.09-2.63-1.82-3.24-3.32-4.38-10.7-8.76-21.41-12.65-32.31-1.06-2.97-2.87-4.33-5.79-4.72-1.97-.26-3.96-.36-5.92-.2-12.55,1.02-25.05,2.23-36.07,9.26-1.41.9-3.14,1.46-3.13,3.58-1.33,1.49-3.29,1.93-4.91,2.94-1.67,1.04-3.44,1.05-4.72-.85,4.93-4.51,10.54-7.79,16.71-10.47,3.35-1.45,6.79-3.54,10.13-4.34,4.24-1.03,8.79-1.76,13.23-2.03,6.31-.38,12.66-.07,19-.16,1.85-.03,3.22.8,4.6,1.79Z"/>
  <path class="cls-20" d="M722.58,114.03c3.79,1.99,6.25-1.28,9.27-2.36.25-2.5,2.39-2.67,4.03-2.75,11.39-.57,22.85-1.42,33.24,4.88,7.41,4.5,14.07,9.8,18.69,17.31,2.56,5.46,5.64,10.66,8.28,16.08.62,1.27,1.47,2.45.7,3.95-2.33.9-1.89-1.61-2.89-2.35-2.69-5.35-5.16-10.87-9.18-15.37-1.37-1.53-1.85-3.41-3.05-4.97-5.79-7.48-13.49-11.8-22.32-14.88-9.6-3.35-18.97-3.05-28.26.27-3.29,1.18-6.23,3.22-9.93,2.72-.64-.09-1.24-.51-1.86-.78.79-1.16,2-1.52,3.28-1.77Z"/>
  <path class="cls-43" d="M150.76,103.9c.11.13.19.28.24.44-1.57,2.97-5.15,2.95-7.19,4.89,11.87-2.03,23.6-1.68,34.63,4.45,1.49.83,2.94,1.66,4.14,2.89,4.21,4.15,9.4,7.26,12.9,12.16.81,1.13,2.07,2.02,1.6,3.68-.15.14-.29.29-.44.43-1.11-.84-2.33-1.42-3.28-2.57-13.52-16.41-34.06-24.38-55.53-15-2.28,1-5.3,2.02-8.09.49,4.78-5.02,11.21-7.5,16.96-11.03,1.25-.76,2.63-.9,4.05-.83Z"/>
  <path class="cls-20" d="M701.44,132.93c0-.39,0-.77.01-1.16,4.68-4.34,7.98-10.26,14.4-12.63.18,2.69-1.49,4.37-3.15,6.16-7.6,8.21-13.94,17.23-18.13,27.72-.79,1.98.08,4.3-1.61,5.94-1.44-1.5-1.03-3.38-1.1-5.16,1.08-6.02,3.41-11.46,7.35-16.22,1.09-1.32,2.68-2.54,2.24-4.66Z"/>
  <path class="cls-15" d="M149.37,311.29c.53.34,1.07.67,1.6,1.01,4.16,2.97,3.06,8.16,4.46,12.13,3.03,8.61,8.95,13.88,15.91,18.64.97.66,1.78,1.88,3.23,1.73,5.91,5.06,12.82,8.62,19.5,12.44,3.88,2.22,2.67,3.63.22,5.34-5.76,4.01-10.31,9.15-14.38,14.78-.48.67-.74,1.49-1.11,2.24-3.38,5.16-4.39,11.09-5.56,16.98-2.27,11.4-1.66,22.88-1.06,34.37.11,2.15,1.39,3.09,3.3,3.8,3.5,1.3,7.17,1.17,10.76,1.73,4.85,2.02,5.18,3.33,1.82,7.17-6.63,7.6-13.73,9.6-22.04,6.2-4.84-4.02-11.01-5.52-16.38-8.59-9.79-5.58-20.31-9.22-31.3-12.12-7.56-1.99-15.61-3.42-22.51-7.88-3.17-2.05-7.18-2.41-10.8-3.59-5.96-1.95-11.39-4.83-16.38-8.58-1.6-2.28-3.61-4.17-5.81-5.87-6.9-4.5-10.45-11.53-13.68-18.67-4.89-10.84-7.04-22.49-9.36-34.05-2.11-10.5-.9-20.74,2.77-30.76,3.12-8.52,7.36-16.62,9.46-25.52,2.07-3.23,4.36-3.13,7.42-1.04,10.67,7.31,22.35,11.63,35.44,12.33,14.05.75,28.15,1.1,42.07,3.38,4.15.68,8.34,1.24,12.41,2.38Z"/>
  <path class="cls-55" d="M361.2,432.12c-2.07,5.32-.12,10.72.48,15.86.9,7.71-.09,15.24-.56,22.75-.95,14.87-4.16,29.5-7.6,43.96-3.98,16.7-6.57,33.61-8.99,50.56-.89,6.25-.77,12.65-.94,18.98-.1,3.65-1.82,5.28-5.38,5.65-10.56,1.11-21.14.68-31.72.93-3.6.08-4.63-1.3-4.59-4.73.15-12.29-.06-24.59.1-36.88.15-11.6-1.13-22.97-4.31-34.13-.46-1.61-.58-3.31-.85-4.97-.31-6.63-3.61-12.57-4.46-19.06-.87-6.69-2-13.47,2.05-19.65.58-.88.66-1.81.73-2.81.85-12.16,2.9-24.19,3.79-36.38.42-5.68,2.23-11.43,2.22-17.38,0-2.88-.56-5.24-2.64-7.21.42-.55,1.02-.73,1.67-.81,2.06-.04,4.22-.9,6.11.64-1.05,4.48.56,8.91.04,13.85,1.35-3.44.51-6.88,2.36-9.69,4.53,1.27,5.94,2.95,6.24,7.12.22,3.16-.76,6.08-1.38,9.1-.74,3.6.34,4.81,3.94,4.1,4.2-.83,8.77-.03,12.57-2.71,2.64-1.23,5.23-2.55,7.58-4.31,1.19-.9,2.44-1.91,4.15-1.54,3.48-3.25,5.67-.15,7.78,1.83,2.57,2.41,5.02,4.87,8.41,6.09,1.03.37,2.13.57,3.2.85Z"/>
  <path class="cls-25" d="M186.65,437.15c-3.76-.54-7.54-.96-11.27-1.67-2.67-.51-3.95-2.24-3.97-5.13-.1-13.37-1.18-26.79,2.37-39.93,1.05-3.87,1.71-7.98,5.02-10.81-6.3,16.31-7.76,33.17-5.94,50.45.25,2.38,1.18,3.31,3.28,4.16,4.46,1.8,9.19,1.16,13.75,1.99,3.44.62,6.98.78,10.49,1,3,.19,3.89,1.89,2.67,4.24-2.42,4.66-2.37,10.1-5.59,14.66-2.11,2.99-2.7,7.37-3.09,11.21-1.04,10.21-1.93,20.58.11,30.66,1.15,5.71,1.51,11.69,3.86,17.15,1.21,2.83.94,5.81,1.14,8.74,1.72,5.7.21,11.43.2,17.16-.04,23.73,0,47.46-.04,71.19-.01,5.23,1.39,10.35,1.16,15.59-.1,2.14,1.82,3.06,2.78,4.56.75,1.26,1.98,2.31,1.7,4.01.96,1.15.75,2.54.17,3.59-3.25,5.95-4.18,12.81-7.53,18.71-.35.61-.64,1.25-1.29,1.61-.52-.2-1.38-.71-1.52-.56-2.74,2.94-6.59,1.93-9.88,2.83-15.24,4.16-30.56,8.01-45.77,12.26-9.71,2.71-19.42,5.39-29.23,7.69-.91.21-1.69.98-2.53,1.48-1.98.06-4.1-.31-5.9.28-3.44,1.13-4.01-.53-3.13-3.03,1.85-5.27,2.47-10.6,2.36-16.16-.07-4.07,3.1-6.66,7.88-7.35,5.16-.74,9.86-3.16,14.86-4.31,4.48-1.03,8.92-2.44,13.21-3.76,5.99-1.85,12.07-3.57,18.05-5.53,7.17-2.35,14.36-4.67,21.62-6.72,3.49-.99,4.95-2.55,4.94-6.47-.14-47.77.08-95.54-.27-143.31-.06-7.93,1.14-15.92-.47-23.91-.68-3.35-2.2-4.34-4.82-3.24-7.88,3.3-15.61,2.76-23.38-.16-.13-.05-.28-.07-.42-.06-10.52,1.14-20.75-1.69-30.99-3.01-9.98-1.28-20.03-2.59-30.02-3.93-8.74-1.17-17.41-2.94-26.27-3.48-7.12-.44-14.16-1.98-21.25-2.98-10.84-1.53-21.69-2.99-32.53-4.53-3.19-.45-6.35-1.08-9.52-1.63-.31-.57-.61-1.15-.92-1.72,0-7.62-.02-15.25.05-22.87.01-1.46-.66-3.15.93-4.31,1.39,1.52,1.14,3.43,1.18,5.23.11,5.5.13,11.01.01,16.51-.07,3.27,1.09,4.71,4.5,5.18,22.76,3.15,45.51,6.34,68.28,9.45,10.05,1.37,20.11,3.02,30.17,4.12,16.25,1.77,32.39,4.42,48.64,6.19,10.45,1.14,20.13.23,29.94-2.6,1.49-.43,3.02-.94,4.52-1.07,7.18-.62,9.36-5.67,10.83-11.58.53-2.12-.36-2.92-2.2-3.15-3.78-.47-7.38-1.59-10.93-2.9Z"/>
  <path class="cls-25" d="M268.71,444.75c-1.76.22-2.84,1.57-4.16,2.52-5.34,1.12-10.69,2.23-16.03,3.38-5.98,1.29-11.91,1.89-17.77-.61-10.52-4.5-15.5-15.8-14.17-26.16,1.91-14.83,15.51-21.23,26.57-23.08,3.6-.6,7.19-1.53,10.76-1.83,6.52-.54,11.82,2.36,15.72,7.68-2,1.15-3.2-.5-4.43-1.45-4.3-3.34-8.88-4.64-14.25-2.98-2.56.79-5.31.48-9.04.54,4.02,1.66,7.36,2.72,9.92,5.23,2.66,2.6,5.04,5.37,6.27,8.91,1.21,3.45,2.36,6.91,2.55,10.65.19,3.81-.82,7.2-2.52,10.54-1.66,3.25-3.55,6.31-6.08,9.08,7.71-1.4,15.27-2.91,20.7-9.24.71-.83,1.39-1.86,2.77-1.5.66,2.89-2.27,3.8-3.21,5.81-1.2.84-2.4,1.68-3.61,2.52Z"/>
  <path class="cls-28" d="M275.53,436.42c-5.73,8.09-14.47,10.39-23.47,12.19-.83.17-1.77.67-2.32-.17-.75-1.16.4-1.63,1.11-2.3,5.58-5.32,9.38-11.56,8.62-19.58-.76-8.01-4.98-19.17-15.78-21.67-1-.23-1.94-.71-2.12-1.79-.14-.9.88-1.17,1.43-1.2,4.49-.2,8.88-1.45,13.29-1.62,2.82-.11,5.97.97,8.47,3.24,1.35,1.23,2.67,2.99,4.86,3.13.33.31.65.61.98.92,3.14,2.24,5.38,5.48,8.63,7.6-.2,3.78-1.26,7.68,1.53,11.04-2.72,2.9-3.28,6.91-5.24,10.2Z"/>
  <path class="cls-43" d="M198.51,281.12c-.13-4.79.28-9.45,1.31-14.21,2.01-9.26.76-18.72.76-28.11,0-8.6-3.97-16.26-3.96-24.73,0-3.32-2.62-6.14-1.8-10.08.75-3.59,1.96-6.92,3.96-9.64,4.09-5.53,6.65-11.78,6.6-18.29-.05-7.18,1.15-14.59-1.53-21.66-1.3-3.42-1.67-7.07-1.98-10.71,1.15-.25,1.84.37,2.4,1.26,6.09,10.15,6.25,21.41,5.37,32.61-.63,7.94-3.46,15.48-6.98,22.67-3.9,4.9-3.43,9.95-1.12,15.44,1.64,3.9.22,8.35,1.34,12.51,3.11,11.61,1.85,23.5,1.61,35.27-.1,4.79-2.49,9.43-2.76,14.39-.08,1.57-1.07,3.25-3.23,3.28Z"/>
  <path class="cls-43" d="M198.51,281.12c2.91-2.39,1.77-6.01,2.77-8.92,3.66-10.63,2.71-21.58,2-32.29-.6-9.14-1.28-18.5-4.13-27.36-1.6-4.98-.24-9.03,2.66-12.92.87.72,1.02,1.7.99,2.74-1.51,3.85-.77,7.52.04,11.52,1.63,8.14,2.8,16.43,3.42,24.7,1.32,17.74-.29,35.25-6.6,52.08-1.13,3-.37,5.21,2.14,6.99.52.65.55,1.33.12,2.04,0,0-.06.31-.06.32-3.99.77-6.41-1.75-6.4-5.56.01-4.75,3.57-8.55,3.05-13.33Z"/>
  <path class="cls-37" d="M128.9,209.12c-2.88.35-3.9-2.45-5.95-3.52.51-7.1,1.13-14.19-.78-21.22-.55-2.01-2.04-3.75-1.73-6.01.11-.81-.11-1.78.93-2.13,1.07-.36,1.49.49,1.9,1.22,3.75,6.76,7.19,13.55,5.75,21.76-.57,3.23,1.58,6.6-.11,9.9Z"/>
  <path class="cls-22" d="M306.12,407.67c-2.01-.08-4.03-.16-6.04-.23-2.92-1.04-6.06.34-8.98-.77-.56-.04-1.11-.09-1.67-.13,0-1.12,0-2.23,0-3.35,5.19-.79,10.44-.14,15.66-2.15,4.34-1.67,9.6,2.38,10.98,7.04.49,1.66.85,3.47-.69,4.68-1.7,1.34-3.43.75-4.94-.61-.42-.38-.85-.73-1.33-1.02-1.69-.55-2.38-1.98-2.99-3.46Z"/>
  <path class="cls-40" d="M280.77,426.22c-2.11.55-3.3.55-2.71-2.42.43-2.16.63-4.57-.83-6.78-1.34-2.02.75-1.7,1.77-2.02,2.93.85,5.52,2.53,8.41,3.48l1.1.17c1.16.72,4.84.04,1.72,3.11-3.29,1.18-7.1,1.27-9.46,4.44Z"/>
  <path class="cls-25" d="M287.41,418.49c-3.39.27-5.75-1.97-8.41-3.48-3.57-1.61-6.09-4.4-8.39-7.43,4.02,1.16,5.78,5.34,9.65,7,2.39,1.02,5.46,1.39,7.15,3.91Z"/>
  <path class="cls-43" d="M203.56,144.58c-.56-.3-1.12-.59-1.68-.89-1.7-3.64-4.52-6.74-5.24-10.85,0,0,.23-.2.23-.2,3.84,1.81,6.94,7.36,6.68,11.94Z"/>
  <path class="cls-48" d="M291.1,406.67c2.99.34,6.12-1.01,8.98.77-.52.06-1.03.11-1.55.17-2.44-.63-5.14.9-7.43-.94Z"/>
  <path class="cls-25" d="M290.23,421.77c1.5-2.18-.8-2.27-1.72-3.11,1.4-.04,3.24-.91,3.86.97.45,1.34-.62,2.22-2.14,2.14Z"/>
  <path class="cls-13" d="M438.44,412.56c-1.78-2.35-.04-5.22-1.33-8.3-2.54,3.53-2.86,7.23-2.78,10.88.08,3.63-.24,5.57-4.92,6.28-4.55.68-8.93.39-13.2.76-3.46.3-6.59-2.69-9.86-.48-.27.18-1.17-.14-1.42-.48-.44-.61-.23-1.37.33-1.9.41-.37.91-.65,1.38-.94,5.97-3.71,6.96-6.6,4.39-13.13-.57-1.46-1.24-2.97-3.25-2.73-1.89.22-1.2,1.88-1.6,2.96-1.31,3.51-2,7.27-4.06,10.49-.04-.53-.09-1.06-.13-1.59-.74-1.37-.39-2.83.03-4.1,3.14-9.47-.55-16.92-6.76-23.72-1.16-1.27-3.03-2.24-2.52-4.49,3.44,1.14,5.13,4.13,7.31,6.67.88,1.02,3.01,5.62,3.81-.29.06-.43.65-1.09,1.03-1.13,3.72-.34,2.39-2.55,1.77-4.53-.34-1.07-.89-2.34.47-2.97,1.33-.62,1.91.58,2.62,1.5,1.03,1.33,2.15,2.63,3.4,3.75,3.31,2.97,5.72,2.74,8.51-.73.88-1.1,1.62-2.48,3.34-2.07,1.57.37,1.45,1.84,1.76,3.05.31,1.22.72,2.5,2.34,2.6,1.77.11,2.48-1.15,3-2.5.67-1.71.99-3.74,3.57-3.27,2.23.41,3.32,1.89,3.69,4.07.37,2.2,1.56,4.4.46,6.6-1.97,3.94.05,3.66,2.78,2.81-4.59,4.85-4.05,10.97-4.17,16.92Z"/>
  <path class="cls-27" d="M392.74,382.07c1.78,1.96,3.63,3.85,5.31,5.88,6.6,8.01,8.03,16.82,3.93,26.43-2.59,1.93-1.67,5.66-3.94,7.73-4.43,4.02-9.69,5.85-15.65,5.77-1.88-.03-2.57-.35-1.34-2.47,2.3-3.97,4.37-7.97,5.12-12.75,2-12.76-5.38-24.14-17.76-26.32-2.09-.37-1.84-1.21-1.15-2.54,8.39-2.03,16.78-4.06,25.47-1.74Z"/>
  <path class="cls-48" d="M308.7,410.19c1.99.94,3.99,4.21,6.08,1.86,2.21-2.48-.15-5.37-1.93-7.42-2.13-2.45-5.3-3.33-8.41-2.52-4.98,1.3-9.97,1.31-15.02,1.07,2.33-1.49,4.91-.56,7.36-.7,5.52-.33,6.61-1.45,6.01-6.76-.08-.7-.1-1.4-.24-2.09-1.39-6.9.53-9.32,7.85-9.91.15.14.29.29.45.43.78,1.33,2.11,1.75,3.47,2.23,10.27,3.59,15.81,11.32,15.85,22.02q.04,10.61-7.83,21.11c2.8,1.9,5.66-1.68,8.37.11-2.69,4.08-7.37,1.58-10.81,3.24-.47.22-1.11.05-1.67.12-6.05.79-7.62-1.21-5.55-7.06,2.57-7.25,1.9-9.67-3.95-14.2-.44-.5-.5-1.02-.04-1.55Z"/>
  <path class="cls-11" d="M273.95,329.34c.45-.82.66-1.75-.42-2.09-4.95-1.52-6.65-6.01-8.47-9.95-5.54-11.99-9.04-24.7-12.75-37.37-2.58-8.82-3.84-17.76-5.23-26.73-.25-1.59.35-3.3.56-4.96.17-.46.47-.54.88-.3,0,0,.07.3.07.3-.45,4.86,1.63,9.47,1.91,14.01.54,8.92,3.54,17.03,5.65,25.45,1.56,6.23,3.37,12.39,6.05,18.26,2.33,5.1,3.49,10.71,6.84,15.35,1.54,2.14,2.62,4.73,5.72,5.26.71.12,1.75.59,1.31,1.75-.35.92-1.19,1.11-2.1,1.02Z"/>
  <path class="cls-13" d="M419.85,371.89c1.13.01,2.27.02,3.4.03.45,1.12,2.89.56,2.26,2.46-.45,1.35-1.86,1.58-3.13,1.71-.83.09-1.69.02-2.53.04-1.86.04-4.31.13-4.41-2.09-.09-2.03,2.58-.83,3.8-1.6.23-.14.41-.37.61-.56Z"/>
  <path class="cls-48" d="M310.41,383.74c5.83-1.93,11.65-3.89,17.87-1.71-.18.18-.35.35-.53.53-4.55,1.07-9.3.92-13.83,2.24-1.15.34-2.49.05-3.45-.96l-.07-.1Z"/>
  <path class="cls-48" d="M328.29,382.03c3.38.81,6.79,1.56,9.32,4.23,0,0-.08.12-.08.12-3.47.6-7.83-1.38-9.33-4.23l.09-.11Z"/>
  <path class="cls-13" d="M426.62,371.15c1.67.85,3.8.77,5.06,2.45-1.98-.22-4.56.81-5.06-2.45Z"/>
  <path class="cls-16" d="M99.21,672.1c.45-3.09-.92-6.35.85-9.31-.42,3.09.96,6.35-.85,9.31Z"/>
  <path class="cls-25" d="M786.51,664.16c.25-3.61-1.01-3.98-4.48-3.04-14.42,3.92-28.99,7.29-43.45,11.09-10.52,2.77-20.92,5.98-31.41,8.84-5.26,1.43-10.62,2.5-15.93,3.74-2.6.43-3.88-.7-3.32-3.27,1.38-6.32,2.31-12.66,2.77-19.14.29-4.07,4.96-3.71,7.75-4.51,4.98-1.44,9.94-2.82,14.85-4.52,3.78-1.31,7.88-1.66,11.69-3.2,7.06-2.84,14.5-4.65,21.73-6.94,6.44-2.04,12.93-4.34,19.6-5.75,3.98-.84,5.66-2.69,5.61-6.92-.19-15.96.43-31.95-.19-47.89-1.52-39.24-.22-78.49-.71-117.73-.06-5.02-1.37-6.31-6.04-4.19-4.5,2.04-9.22,2.87-13.53,1.73-10.34-2.74-21.26-1.17-31.39-4.86,1.61-1.62,3.68-1.47,5.46-.85,4.45,1.57,9,1.33,13.56,1.31,2.12-.05,4.3-.24,6.33.31,7.03,1.91,13.93,1.56,20.88-.47,5.69-1.66,11.6-2.51,17.15-4.69,2.23-.87,7.22-9.15,6.9-11.38-.22-1.52-1.43-1.61-2.52-1.76-2.67-.38-5.27-1.05-7.84-1.81-1-.29-2.85-.21-1.94-2.28,4.49-1.81,8.94-.71,13.27.48,2.9.8,3.34,3.54,2.56,5.92-1.44,4.39-1.9,9.1-4.52,13.13-2.12,3.25-2.83,7.12-3.31,10.86-2.16,16.99-1.15,33.76,4.04,50.18,1.13,3.58.89,7.25.68,10.92-.58,2.19-.77,4.41-.77,6.68.02,26.34.02,52.68.01,79.02,0,4.93,1.18,9.75,1.13,14.71-.03,2.99,1.63,3.63,4.63,2.3,1.83-.81,3.37-2.86,5.74-1.31.02.34.05.67.07,1.01-6.6,5.75-7.89,14.21-11.05,21.71-1.43,3.38-3.56,6.66-2.55,10.71.17.68.12,2.12-1.47,1.88Z"/>
  <path class="cls-42" d="M739.67,459.21c-6.68,1.2-13.01-1.74-19.6-1.62-.55-.02-1.1-.04-1.65-.06-3.92-.91-8.11.12-11.93-1.62-2.88.3-5.63-.47-8.43-.94-3.04-1.11-6.3.28-9.35-.8-3.65-.68-7.45-.47-11.01-1.72-3.35-.82-6.96-.12-10.19-1.68-2.29-.06-4.65.46-6.78-.85-4.22-.77-8.59-.35-12.73-1.68-4.55.34-8.87-1.06-13.29-1.69-13.56-1.92-27.11-3.94-40.65-5.96-.94-.14-1.82-.63-2.73-.96-.1-8.73-.21-17.45-.26-26.18,0-.62.54-1.24.83-1.85.19.17.38.33.58.5,1.62,5.83.64,11.78.78,17.67.18,7.36,0,7.62,7.28,8.93,8.47,1.53,17.04,2.48,25.57,3.65,11.74,1.62,23.47,3.38,35.22,4.96,21.4,2.87,42.78,5.85,64.24,8.26,3.92.44,7.73,1.63,11.71,1.8,1.07.04,2.32.3,2.4,1.85Z"/>
  <path class="cls-25" d="M648,448.24c4.3.13,8.57.48,12.73,1.68-4.3-.13-8.72.66-12.73-1.68Z"/>
  <path class="cls-16" d="M687.04,685.69c-1.74-4.37-1.09-8.59.83-12.72-.12,4.25-1.35,8.43-.83,12.72Z"/>
  <path class="cls-25" d="M706.49,455.92c3.94.79,8.06.29,11.93,1.62-4.02-.17-8.22.91-11.93-1.62Z"/>
  <path class="cls-25" d="M667.52,450.78c3.4.51,6.9.48,10.19,1.68-3.47-.1-7.09.71-10.19-1.68Z"/>
  <path class="cls-25" d="M688.72,454.18c3.11.33,6.35-.78,9.35.8-3.12-.28-6.36.92-9.35-.8Z"/>
  <path class="cls-46" d="M937.18,312.56c.9,1.41,1.8,2.82,2.7,4.23-1.94,1.72-4.34,1.21-6.49,1.04-9.3-.74-17.49,2.47-25.43,6.72-.75.4-1.49.84-2.06,1.47-.75.84-1.68,1.71-1.23,2.96.4,1.13,1.61.95,2.55,1.1.98.16,1.97.25,2.74.98-1.54,4.48-1.47,9.01-.63,13.62.33,1.82.17,4.03-2.07,4.52-2.39.52-2.91-1.76-3.59-3.4-.78-1.86-.65-3.89-.65-5.86,0-2.74-1.13-4.92-3.13-6.68-.81-.71-1.6-1.91-2.87-1.11-1.11.7-.97,2.03-.68,3.1.87,3.29,1.56,6.59,1.34,10.03-.07,1.13,0,2.27-.31,3.37-.5,1.73-1.41,3.31-3.42,3.17-2.16-.15-2.8-2.01-2.5-3.74.77-4.36-1.21-8.01-2.64-11.8-1.08-2.86-3.15-4.33-6.28-3.72-2.28.45-4.11-.28-5.9-1.6-2.84-2.09-5.99-3.73-8.94-5.65-8.37-5.45-13.46-13.42-17.25-22.45-3.33-7.93-4.73-16.49-7.9-24.4-3.11-7.74-3.34-15.89-5.07-23.8-.51-2.35-.19-4.47.76-6.58,1.1-1.91,2.87-3.07,4.72-4.13,10.09-5.79,19.1-12.85,26.24-22.14,3.45-4.5,5.93-9.61,8.68-14.5,1.65-2.93.72-6.66-.89-10.13-5.29-11.38-10.27-22.92-9.51-35.93.1-1.65-.33-3.44,1.11-4.78,3.93,2.1,7.83,4.26,11.8,6.29,2.06,1.06,3.83.36,5.2-1.4,2.16-2.77,4.28-5.57,6.46-8.32.6-.76,1.28-1.68,2.44-1.24.85.33,1.16,1.19,1.18,2.09.13,6.6,2.25,12.99,1.8,19.69-.63,9.38-1.17,18.75-4.42,27.69-.63,1.74-.55,3.25.12,4.87,4.85,11.55,6.78,23.76,6.57,36.1-.14,8.19-1.87,16.41-3.42,24.51-1.49,7.79-.79,9.59,5.17,14.46,5,4.09,9.46,8.86,14.04,13.44,6.18,6.18,13.01,11.59,19.76,17.11.51.42,1.26.55,1.9.81Z"/>
  <path class="cls-31" d="M848.17,151.32c-1.38-6.41-2.68-12.83-4.15-19.22-1.4-6.06-1.98-12.18-1.68-18.38.04-.8.36-1.76.88-2.33,1.16-1.28,1.47-4.18,3.54-3.62,2.48.66.74,3,.78,4.69.13,5.65,1.68,11.08,3.2,16.48,1.94,6.87,3.99,13.71,5.99,20.56.3.43.31.87.03,1.32-1.47,1.52-3.38,1.66-5.32,1.69-1.23-.01-2.4-.19-3.28-1.18Z"/>
  <path class="cls-43" d="M868.57,156.47c-.68,10.56.99,20.61,5.21,30.43,1.65,3.83,3.23,7.69,4.92,11.51,1.62,3.65,1.84,7.63-.98,11.51-3.86,5.32-6.27,11.61-10.84,16.53-6.8,7.3-14.47,13.48-23.19,18.29-1.76.97-3.21,2.26-4.81,3.4-.19.08-.38.16-.58.24-.39-.19-.66-.49-.79-.91-.1-.66.06-1.26.41-1.82,2.53-3.2,6.23-4.9,9.57-6.9,12.8-7.65,21.87-18.5,28.53-31.6,1.16-2.29,1.2-4.73.15-6.94-4.81-10.12-8.61-20.56-10.22-31.71-.48-3.96-.14-7.94-.31-11.92.31-1.15.9-1.68,2.07-.96.28.28.57.56.85.84Z"/>
  <path class="cls-43" d="M848.17,151.32c1.05.06,2.1.12,3.15.18-1.99,3.01-2.27,6.4-1.97,9.84.78,8.86-1.25,17.4-2.85,25.98-.54,2.89-2.07,5.56-3.91,7.9-1.55,1.98-3.7,3.01-6.32,2.79-6.19-.51-15.39-9.44-16.35-15.88.32-.45.73-.54,1.21-.27,2.28,2.65,4.68,5.21,6.81,7.98,1.79,2.32,3.89,4.16,6.75,4.71,5.07.97,8.06-2,9.26-8.4,1.85-9.84,3.18-19.71,2.56-29.75-.12-1.99.61-3.55,1.66-5.08Z"/>
  <path class="cls-43" d="M821.13,181.86c-.31.02-.62.04-.94.06-2.53-.01-3.04-2.24-3.83-3.84-2.7-5.52-6.25-10.57-8.82-16.16-2.03-3.25-4.03-6.52-4.43-10.46-.1-1.33-.15-2.65.51-3.88.16-.15.32-.31.48-.46,2.3,5.35,4.01,11.07,7.08,15.94,2.84,4.52,4.52,9.66,7.85,13.85,1.18,1.48,2.07,3.01,2.1,4.94Z"/>
  <path class="cls-43" d="M867.72,155.62c-.58.15-1.15.31-1.73.46.19.44.03.65-.43.68-1.02-.2-1.63-.96-2.26-1.68-1.72-2.03-4.62-2.45-6.29-4.56-.09-.34-.17-.68-.26-1.03,4.39.73,8.62,1.74,10.97,6.13Z"/>
  <path class="cls-43" d="M798.95,139.5c-.26-1.15-.51-2.3-.77-3.45,2.72,3.29,4.04,7.34,5.92,11.08,0,0-.07.06-.07.06-1.17.49-2.11-.05-3.05-.65-1.95-1.98-3.12-4.18-2.03-7.04Z"/>
  <path class="cls-29" d="M264.65,148.76c-2.24,1.24-4.86,1.69-6.87,3.39-1.35-12.24-5.71-24.04-5.16-36.59.17-3.87,2.18-6.55,4.23-9.36.38-.52.91-1.25,1.73-.82.98.51.78,1.35.37,2.17-2.02,4.08-1.25,8.24-.29,12.38,1.82,7.78,2.5,15.86,6.38,23.08,1.05,1.95-.06,3.85-.4,5.76Z"/>
  <path class="cls-11" d="M719.29,199.73c2.52-.13,5.03.21,7.55-.62,1.91-.63,3.78-.5,5,1.82,1.11,2.11,3.1,2.93,5.34,1.5,1.45-.93,2.07-2.39,1.19-4.04-.77-1.43-2.05-1.35-3.28-.61-2.26,1.36-3.7.99-4.18-1.78-.05-.27-.16-.6-.36-.76-6.34-5.02-3.63-12.27-4.37-18.58-.4-3.41-1.63-4.98-4.82-5.8-2.64-.67-5.96.12-7.06-4.31-.4-1.6-4.7-2.36-7.32-3.21-1.22-.4-2.48.52-2.01,1.89,1.16,3.38.3,7.12,2.97,10.36,2.05,2.49.58,6.15-.54,9.05-.71,1.83-2.79,1.14-3.42-.06-1.32-2.54-3.16-5.01-2.28-8.29.89-3.33.95-6.39-4.05-5.74-.61.08-1.17-.19-1.14-.89.17-4.37-1.8-8.67-.19-13.12.65-1.8,1.56-2.59,3.39-2.19,1.68.36,2.54-.22,2.19-1.95-.39-1.93-1.36-4.54,1.28-4.9,2.54-.35,2.7,2.7,3.3,4.59.47,1.49.56,3.2,2.51,3.46,2.13.28,4.27.16,5.99-1.39.38-.34.88-1.17.74-1.41-2.63-4.3,2.81-8.54-.25-13.28-1.36-2.11,2.43-3.59,4.65-4.1,1.72-.39,3.64.03,5.46.17.69.05,1.45.64,2.03.46,10.81-3.34,21.58.24,32.36.08,1.96-.03,4.46.82,5.06-2.35.56-2.98-1.08-4.36-3.55-5.39-1.36-.57-2.71-.69-4.12-.75-1.03-.05-2.1-.37-2.13-1.6-.03-1.42,1.28-2.05,2.31-2.01,2.21.08,4.68-.09,6.44,1.52,2.11,1.94,4.41,3.37,7.07,4.45,4.37,1.78,4.93,5.32,3.81,9.44-1,3.69-1.55,7.26.14,11.06,1.09,2.46,2.42,3.82,5.03,3.43,3.21-.47,4.57,1.32,5.64,3.89.69,1.65.62,2.58-1.32,3.13-3.11.88-3.64,2.95-2.74,5.93,1.04,3.47.97,6.35-4.01,6.74-3.08.24-4.93,5.68-2.52,9.19,2.32,3.37,1.2,6.82.51,9.39-1.63,6.07-1.92,12.09-2.1,18.24-.09,3.08.47,5.58,3.38,7.12,1.27.67,2.07,1.48.88,2.98-4.2,5.29-4.91,10.64-.26,16.13.92,1.08,1.11,2.52,1.16,3.99.13,3.51-.34,7.01.43,10.54.37,1.73-.67,3.57-1.66,5.12-3.9,6.12-4.77,12.68-3.09,19.7.36,1.52.98,2.78,2.39,3.24,3.33,1.08,3.54,2.84,1.49,5.32-.18.22-.57.47-.53.63,1.38,6.06-3.56,10.17-4.7,15.4-.58,2.66,1.91,3.37,3.53,2.17,2.65-1.97,4.48-.43,6.56.59.94.46,1.95,1.59,1.27,2.32-2.56,2.79-.31,6.77-2.65,9.56-.86,1.03-.49,2.45-.5,3.71,0,1.71-.04,3.98,2.37,3.51,2.06-.4,5.07-.22,5.27-3.75.08-1.43-1.97-3.44.09-4.1,2.16-.69,4.55-1.83,6.99-.96,5.09,1.82,10.34,8.34,10,12.97-.47,6.2.8,7.12,6.89,7.14,8.27.03,9.45,1.92,5.67,9.36-.89,1.75-.83,3.54-.79,5.37.02.69.1,1.43.36,2.07,1.08,2.63.51,6.21-1.07,6.98-1.79.88-4.98,1.3-7.4-.08-.9-.51-1.78-.73-2.79-.81-4.71-.39-4.81-.86-4.15-5.68.52-3.8.04-7.67,2.02-11.31.75-1.38-.62-2.89-2.14-3.66-4.9-2.5-10.85.88-11.15,6.36-.08,1.41,0,2.83-.06,4.24-.06,1.26-.67,2.25-2.02,2.28-1.35.04-1.95-.91-2.14-2.17-.59-4.05-2.09-7.62-4.58-10.97-1.5-2.02-.6-4.97-.48-7.46.16-3.27-1-5.15-4.32-5.5-3.59-.37-3.71,2.56-4.09,4.75-.42,2.4-1.62,4.84-.27,7.42.44.84.06,1.97-.92,2.58-.89.56-1.68.03-2.35-.41-3.29-2.16-6.55-4.38-9.79-6.61-1.93-1.33-.53-2.06.59-2.7,2.56-1.48,5.15-2.91,7.75-4.33,3.41-1.87,4.96-4.52,3.56-8.4-.62-1.71-.13-3.27.22-4.95.67-3.21-1.7-6.27-4.79-5.97-4.39.43-8.04,1.11-12.43-2.18-4.98-3.72-7.33-5.97-5.57-11.63.9-2.9,2.6-3.99,5.54-4.15,3.47-.19,6.77-.79,6.52-5.71-.24-4.65-1.33-6.02-6.06-6.09-2.4-.03-4.81.12-7.21-.04-2.91-.2-5.17.23-6.42,3.42-.73,1.88-2.28,2.75-3.48-.01-.2-.46-.75-.85-1.24-1.08-3.23-1.49-3.77-3.29-.65-5.48,1.68-1.18,1.31-2.15,0-3.35-3.77-3.47-3.84-5.57.22-8.55,3.4-2.5,3.67-5.53,2.98-9.26-.46-2.49-1.32-3.94-4.06-3.65-1.4.15-1.98-.65-2.3-1.92-.45-1.78,1.01-1.22,1.76-1.58,3.24-1.58,4.81-5.22,3.78-8.73-.42-1.42-.53-2.87.31-4.09,2.25-3.28,1.99-6.95,1.96-10.62-.05-5.61-.53-6.33-6.09-6.9-2.03-.21-3.01-1.13-3.76-2.81q-2.98-6.66-9.98-5.76c-.7.09-1.41.02-2.12.02-1.35-1.39-1.31-2.8-.08-4.24Z"/>
  <path class="cls-33" d="M827.72,367.7c-.61-4.32-.9-8.58-.31-13,.81-6.1,4.57-10.15,8.7-13.98,1.13-1.04,2.05-1.85,1.88-3.44,4.26,1.58,7.77-1.88,12.06-1.61,9.32.61,14.61,6.31,18.41,13.59,5.41,10.37,2.03,23.74-7.26,31.11,1.18.3,2.63-.19,3.21,1.29-2.15,3-5.4,3.13-8.62,3.27-1.54.07-3.08.04-4.61.02-9.92.85-16.99-3.66-22.05-11.85-1.01-1.63-2.39-3.24-1.4-5.42Z"/>
  <path class="cls-7" d="M827.72,367.7c4.3,10.16,11.03,16.89,22.98,16.22,6.01,8.22,8.3,17.52,7.87,27.58-.08,2-.29,4.2-2.52,4.92-2.32.75-3.6-1.08-4.72-2.73-2.78-4.08-5.46-8.2-7.04-12.94-3.77-11.26-11.51-18.07-23.19-20.35-9.52-4.19-19.38-7.45-29.26-10.67-1.34-.44-2.89-.57-3.88-1.56-3.13-3.1-5.53-2.05-8.02.9-2.08,2.46-4.63,4.52-6.61,7.1-.77,1-1.61,2-3.11,1.83-.51-.46-.63-1.04-.54-1.69,4.13-7.11,10.53-11.98,16.75-17.05,1.03-.84,2.97-1.23,2.62-2.93-.31-1.53-2.16-1.59-3.43-2.11-15.61-6.42-29.68-14.97-39.85-28.89-1.21-2.21-2.64-4.32-3.44-6.73-.38-1.14-1.24-2.32,0-3.48,2.24.87,1.87,3.26,2.86,4.83,5.61,8.94,13.11,16.2,21.78,22.06,7.02,4.75,15.23,7.46,22.63,11.47,10.04,5.43,20.85,8.43,31.34,12.45,2.13.82,3.86,3.9,6.8,1.77Z"/>
  <path class="cls-53" d="M864.2,381.28c-1.72-.46-3.25.66-5.3.66.44-1.74,1.71-2.6,2.79-3.48,8.91-7.31,11.1-23.92,3.3-32.86-4.4-5.04-8.85-8.77-15.81-8.95-1.49-.04-2.89-.15-3.95.78-2.54,2.23-4.87,1.46-7.25-.16-.75-.45-1.57-.85-1.47-1.94.22-.19.49-.45.72-.39,6.08,1.5,11.73-.85,17.5-1.98,3.77-.74,7.6-.1,11.37-.62.56.02-.04-.76.12-.22.03.1-.1.15-.39.13-6.3-.57-12.63-.96-18.76-2.63-.98-.27-2.89-.03-2.02-2.17,1.91.03,3.84-.47,5.7.33,6.09,2,12.48,1.57,18.74,2.27,6.12-.3,9.66,3.5,12.75,8.01,4.95,8.23,5.31,17.33,4.03,26.37-.51,3.61-2.29,7.41-4.78,10.52-.37.57-.8,1.09-1.28,1.57-.94.93-1.97,1.75-3.27,2.12-4.15.4-7.79,3.07-12.11,2.72-.21-.03-.41-.06-.62-.09Z"/>
  <path class="cls-43" d="M837.94,247.83c-4.49,1.04-7.39,4.5-10.61,7.3-8.32,7.23-15.14,15.82-21.44,24.83-4.26,6.09-8.57,12.14-12.87,18.2-.48.58-.74,1.38-1.6,1.56-.65-.02-1.29-.03-1.94-.05-3.43-1.74-5.09-6.11-3.35-10.6.9-2.31,1.18-4.88,2.66-6.97.05-.34.1-.69.16-1.03,3.65-16.62,5.59-33.28,2.17-50.23-1.17-5.78-.88-11.79-2.23-17.57l-.05-.03c-1.89-2.36-2.17-5.05-1.68-7.91,1.98-4.41,5.13-8.27,6.13-13.15,1.18-1.98,2.14-4.04,2.53-6.34,1.08-3.06,2.58-6.02,1.98-9.43.03-6.64.32-13.28-1.93-19.72-.59-1.7-.67-3.63.47-5.31-.92-5.09-4.32-9.04-6.36-13.61-.88-1.98-2.27-3.73-2.79-5.89,2.19-.3,2.86,1.45,3.74,2.83,9.09,14.24,12.75,29.71,9.82,46.43-1.37,7.81-4.3,15.18-8.09,22.16-1.54,2.84-1.84,5.6-.44,8.48,1.54,3.2.6,6.74,1.4,9.98,2.54,10.23,2.32,20.71,2.87,31.08.29,5.52-.35,11.19-1.68,16.74-1.79,7.51-2.97,15.17-5.95,22.37-.51,1.23-.38,2.63.93,3.37,1.57.89,2.26-.48,2.97-1.5,3.93-5.68,8-11.27,11.92-16.95,6.04-7.82,12.45-15.32,19.63-22.14,2.99-2.84,6.21-5.32,9.52-7.73,1.24-.91,2.53-1.99,4.14-.6,0,.48-.02.95-.02,1.43Z"/>
  <path class="cls-49" d="M844.61,327.95c8.23,2.07,16.64,3.05,25.86,3.33-1.38,2.01-2.83,2.03-3.83,2-6.44-.21-12.66,1.31-18.97,2.13-.42.05-.84.02-1.26.09-.57.09-9.5-.03-9.9-.16-1.55-1.41-3.09-2.81-4.64-4.22-1.17-.79-2.04-1.96-3.22-2.73-.75-.49-1.45-.96-.98-1.97.42-.91,1.29-1.1,2.15-.91,2.47.54,5,.82,7.4,1.58,2.43.77,5.05-.42,7.38.87Z"/>
  <path class="cls-47" d="M692.85,153.04c.03,1.98.07,3.96.1,5.93-1.14.94-.69,2.26-.83,3.44-.68,3.67-.78,7.35.07,11.01,2.03,3.99,1.53,8.72,3.98,12.66,4.65,7.5,9.51,14.74,17.21,19.52,2.42.39,4.05,2.1,5.87,3.51,1.72,3.38,1.71,7,1.72,10.68.05,15.4,2.74,30.42,6.83,45.21-.39.31-.83.41-1.32.32-2.75-2.94-3.2-6.84-4.01-10.46-2.69-12.12-4.53-24.38-4.35-36.86.05-3.82-1.46-6.42-4.81-8.69-9.37-6.35-17.11-14.44-21-25.23-3.24-8.95-4.59-18.34-1.58-27.8.4-1.25.24-2.95,2.13-3.25Z"/>
  <path class="cls-36" d="M742.32,315.12c.68,3.68,2.85,6.72,4.31,10.07-2.84.63-3.63-1.55-4.49-3.42-.77-1.66-1.31-3.42-1.97-5.13-.63-1.63-1.73-2.26-3.47-2.56-15.16-2.61-30.42-4.28-45.81-4.61-15.42-.33-29.78-4.43-43.16-11.95-2.36-1.33-3.13-1.13-4.12,1.52-1.53,4.07-2.91,8.22-4.75,12.18-.73,1.58-1.35,3.15-3.45,3.21-.48-.32-.54-.71-.17-1.15,2.56-6.6,5.76-12.99,6.89-20.08.57-.43,1.15-.85,1.72-1.28,3.09-1.12,5.12,1.16,7.26,2.53,9.98,6.37,20.92,9.9,32.62,10.78,8.85.66,17.72,1.08,26.57,1.8,7.47.6,14.87,1.57,22.23,2.92,2.41.99,5.06.24,7.5,1.04,1.57.6,1.53,2.16,2.04,3.4-.07.31.02.55.27.74Z"/>
  <path class="cls-32" d="M796.46,186.11c0,2.35-.24,4.59-2.49,6-.86,1.82-.17,4.48-2.9,5.27-.19-.07-.37-.14-.56-.21.92-6.31,2.97-12.41,2.67-18.97-.19-4.06,3.36-7.52,2.54-12.04-.49-2.72-.22-5.44-1.98-7.97-2.09-2.99.43-6.24.16-9.4,1.3.41,1.52,1.83,2.45,2.6,1.3,8.43,3.7,16.76,2.55,25.44-.02,3.3-1.61,6.19-2.44,9.28Z"/>
  <path class="cls-17" d="M719.25,209.11c-2.71.09-4.21-1.83-5.87-3.51-.08-6.51.92-13.01-.77-19.52-.56-2.15-2.02-4.07-1.79-6.4.11-1.15-.74-2.86.93-3.25,1.12-.26,1.83,1.07,2.38,2.07,3.19,5.83,5.04,12.03,5.14,18.7.01.84.01,1.68.02,2.53.03,1.41.05,2.83.08,4.24.88,1.74.95,3.46-.13,5.14Z"/>
  <path class="cls-3" d="M788.89,213.28c2.87,4.18,2.45,9.04,2.64,13.71.07,1.69.14,3.29.52,4.95,2.93,12.95,2.82,25.91-.22,38.83-.82,3.48.13,7.45-2.88,10.31-.36-5.14-1.28-10.27,2.05-15.02.82-1.17.42-3.3.36-4.98-.26-6.75-.77-13.62-.45-20.23.42-8.84-2.88-16.99-2.66-25.61.02-.66.43-1.31.66-1.96Z"/>
  <path class="cls-11" d="M731.21,219.08c-1.27,2,.96,5.98-3.11,6.83-2.62.55-5.69-4.3-5.4-8.23.23-3.06,1.98-5.27,5.02-5.07,3.63.24,3.27,3.49,3.48,6.46Z"/>
  <path class="cls-38" d="M742.05,314.37c-.52-.93-1.05-1.85-1.57-2.78-3.36-4.04-3.81-9.21-5.24-13.95-2.25-7.48-4.16-15.07-6.6-22.5-1.07-3.25-2.7-6.45-1.81-10.08.33-.02.65-.04.98-.06.47.5,1.27.94,1.37,1.5,1.79,10.2,6.71,19.52,8.17,29.83.6,4.23,3.32,7.94,4.25,12.21.42,1.96.73,3.84.46,5.82Z"/>
  <path class="cls-32" d="M787.99,204.82c-.53,2.89.93,5.59.85,8.44-2.94-1.76-5.71-3.65-5.96-7.53-.19-2.95.64-5.12,3.84-6.08,1.39-.42,2.54-1.62,3.8-2.46,0,0,.04.03.04.03,1.86,3.45-2.55,4.79-2.56,7.61Z"/>
  <path class="cls-3" d="M791.42,299.73c.29-.77.82-1.3,1.6-1.57-.2,2.39,1.48,3.35,3.14,4.55,7.81,5.69,15.79,11.15,23.16,17.42-1.48.17-2.88-.28-3.92-1.2-6.6-5.84-14.14-10.42-21.13-15.74-1.24-.94-2.46-1.85-2.85-3.47Z"/>
  <path class="cls-11" d="M735.56,128.54c-2.57-.52-4.6-2.19-4.97-4.47-.36-2.2,1.66-3.96,3.93-3.93,3.34.04,2.81,3.3,3.55,5.33.74,2.05-1.02,2.52-2.51,3.07Z"/>
  <path class="cls-3" d="M788.79,282.11c.2,2.13-.26,4.03-1.37,5.93-2.47,4.21-1.61,8.58,2.06,11.64-1.61.34-2.74-.4-3.53-1.68-2-3.22-.16-13.36,2.84-15.89Z"/>
  <path class="cls-20" d="M692.19,173.42c-1.55-3.66-1.43-7.33-.07-11.01.02,3.67.04,7.34.07,11.01Z"/>
  <path class="cls-11" d="M783.28,198.23c-.69-.55-1.14-1.29-.94-2.15.16-.68.69-1.32,1.52-1.01.79.3.72,1.1.63,1.79-.09.7-.31,1.34-1.22,1.38Z"/>
  <path class="cls-55" d="M876.9,377.86c.86-.61,1.73-1.21,2.59-1.82,2.95.76,5.41-1.06,8.12-1.57,9.81-1.86,19.22-5.22,28.82-7.85,4.19-1.15,5.24-3.01,4.8-7.51-.31-3.16-1.2-6.4.73-9.4,2.66.44,2.58,2.64,2.79,4.53.27,2.38.17,4.79.11,7.18-.06,2.59,1.13,3.33,3.58,3.43,5.66.25,10.79-1.54,15.88-3.63,1.26-.52,2.32-1.71,3.89-1.08,2.68,5.22,3.84,10.96,4.14,16.64.55,10.54-.3,21.07-1.15,31.63-.95,11.76-.83,23.64.19,35.5.89,10.39.39,20.83-.65,31.25-1.27,12.75-3.9,25.26-6.82,37.67-2.15,9.13-4.24,18.29-5.63,27.52-1.46,9.69-3.98,19.27-3.71,29.22.14,5.19-.51,10.4-.72,15.6-.11,2.83-2.06,4.2-4.3,4.49-8.34,1.05-16.7,1.92-25.15,1.15-2.52-.23-5.08-.05-7.62-.05-5.28,0-5.36-.09-5.36-5.54,0-10.59.12-21.19-.02-31.78-.1-7.46.17-15.04-1.06-22.34-.84-5-1.89-10.1-3.35-15.09-4.75-16.27-8.28-32.65-3.86-49.9,2.59-10.1,3.35-20.68,4.76-31.07.49-3.63-1.42-5.51-5.09-5.46-3.94.06-7.8,1.22-11.77.85-1.77-.16-2.14,1.61-3.23,2.41-2.74-2.11-5.92-1.55-8.87-1.02-2.83.5-3.95,5.48-2.42,9.5.25.65.88,1.08,1.17,1.73.1.76-.31,1.19-.96,1.45-1.92.29-3.06-.78-3.33-2.45-.55-3.33-.94-6.78.37-9.99,2.43-5.97,2.14-11.18-2.31-16.35-3.93-4.56-7.23-9.75-9.06-15.61-2.8-8.98-9.26-14.11-17.63-17.39-1.56-.61-3.81-.56-3.69-3.18,13.32,2.08,20.86,10.18,24.86,22.73,1.41,4.42,4.75,8.24,7.28,12.29.51.82,1.33,1.55,2.47,1.25,1.12-.3,1.62-1.38,1.62-2.27-.01-5,1.41-10.14-1.27-14.91-1.26-2.24-2.23-4.55-1.91-7.22.23-1.92-.72-3.27-2.36-4.11-1.56-.8-2.09-1.81-1.05-3.36,4.59-.43,9.47.63,13.5-2.64,0,0,.2-.1.2-.1,4.39-.25,8.4-1.97,12.5-3.32Z"/>
  <path class="cls-50" d="M1003.35,315.06c3.82-.99,5.41-4.63,8.19-6.87,1.52-1.22,2.73-2.86,4.33-3.93,2.5-1.68,5.02-1.77,6.86,1.14,1.03,1.64,2.12,3.01,4.35,2.05,2.57,2.34,5.78,2.74,8.89,2.15,1.98-.37,3.23-.1,4.43,1.31,6.62,7.83,7.28,17.11,5.85,26.58-.52,3.43-4.42,4.69-7.16,6.58-1.43.99-5.06,1.68-1.87,4.72-3.98-1.26-6.95.46-10.38,2.48-8.42,4.96-16.96,10.2-27.5,8.72-.5-1.63.85-2.34,1.75-3.01,12-8.96,10.55-25.19,4.65-36.03-.34-.62-.73-1.2-1.07-1.82-.49-1.34-1.82-2.41-1.31-4.07Z"/>
  <path class="cls-48" d="M1003.35,315.06c.47,1.16,1.88,1.84,1.69,3.33-8.19-3.92-16.7-1.21-25.22-1.25,17.48,7.89,17.33,35.29,2.83,43.45-1.12.63-1.86,1.71-2.87,2.47-6.61.08-13.42,1.82-19.55-2.22-.93-.61-1.94-1.23-2.58-2.1-2.73-3.7-5.52-3.66-8.5-.37-.31-.35-.46-.75-.45-1.22.89-3.37,4.32-4.95,5.53-8.26,1.92-5.26,1.29-10.46.72-15.73.13-1.33.73-2.49,1.95-2.99,4.33-1.8,5.11-5.07,4.05-9.2.8-.77,1.52-2.1,2.4-2.21,5.96-.75,11.28-4.26,17.55-3.78,5.7.44,11.32-1.87,17.08-.81,1.78.33,3.58.59,5.37.89Z"/>
  <path class="cls-52" d="M979.78,363.07c-.17-1.48-.02-2.43,1.7-3.27,8.26-4.07,10.85-11.9,10.64-20.03-.19-7.45-1.77-15.18-9.39-19.63-1.35-.79-2.47-1.76-4.14-1.73-.88.01-1.82-.39-1.88-1.35-.07-1.21,1.06-1.16,1.84-1.1,6.22.49,12.33-1.09,18.54-.91,3.17.09,5.65,1.42,7.95,3.35,8.17,10.62,10.41,30.59-5.72,41.59-6.3,2.37-12.65,4.5-19.55,3.07Z"/>
  <path class="cls-25" d="M960.95,320.97c2.71,3.1,1.93,7.51-1.71,9.23-1.35.64-3.09.66-3.32,2.66-.64.21-1.11-.07-1.38-.6-3.39-6.53-9.15-10.23-15.74-12.69-4.54-1.69-9.25-1.1-14.53-.12,20.65,11.21,18.21,36.07,3.99,44.58,6.45-.14,11.82-1.75,16.83-4.71,1.28-.76,2.19-2.3,4.01-1.93.01.32.03.65.04.97-.31.59-.61,1.18-.92,1.77-6.08,4.13-12.82,5.86-20.14,5.92-3.26.03-4.37-1.07-4.51-4.4-.17-3.91,1.64-8.21-1.61-11.72-1.89-1.32-1.87-3.36-1.93-5.32-.08-2.4-.08-4.8-1.21-7-2.17-2.82-4.43-5.55-8.2-6.29-.19-.03-.37-.06-.55-.09-.56-.02-1.13.02-1.69-.07-2.04-.32-5.3,1.23-5.59-1.95-.21-2.34,1.9-4.32,4.29-5.7,10.21-5.91,21.19-7.73,32.79-6.72,3.84,2.73,8.34,4.38,11.81,7.79,1.55,1.53,3.33-.72,4.86-1.47,1.46-.71,2.42-2.44,4.4-2.13Z"/>
  <path class="cls-5" d="M865.94,434.63c-.94,3.71-4.27,5.34-6.71,7.74-.51.42-.79,1.34-1.74.8-4.75-2.04-2.08-6.1-2.18-9.17-.08-2.47,2.41-3.95,4.84-3.47,2.59.5,6.36-2.44,7.66,2.31-.78.37-.83,1.12-.96,1.84-.29-.03-.59-.06-.88-.09-.69-.5-1.39-.98-2.23-1.19-4.95-1.25-6.65.58-5.33,5.9,3.16-.52,3.97-4.88,7.53-4.67Z"/>
  <path class="cls-34" d="M328.19,382.14c2.8,2.09,6.08,3.13,9.33,4.23,2.26,2.49,4.88,4.75,6.7,7.53,5.46,8.37,4.69,19.52-1.52,27.6-.41.53-.6,1.23-.89,1.85-3.7,2.09-6.6,5.59-11.09,6.28-2.62.37-4.99,1.99-7.76,1.62-.92-.12-2.15.43-2.68-.64-.57-1.15.66-1.69,1.26-2.38,1.65-1.9,3.94-3.28,5.05-5.61,4.56-9.64,4.37-24.98-6.76-32.52-2.29-1.55-4.7-2.38-7.29-3.02-1.59-.39-3.67-.71-2.06-3.24,5.96.06,11.63-2.98,17.71-1.69Z"/>
  <path class="cls-43" d="M810,639.78c3.03-1.84,6.99-1.91,9.36-4.98,2.49-2.72.44-6.27,1.67-9.22,3.08-10.29,11.46-13.29,20.56-12.79,4.37.24,7.98,3.53,10.14,6.88,2.43,3.75,5.04,7.6,6.03,12.37.95,4.53,4.82,7.79,7.59,11.43,1.27,1.66,2.8.18,3.15-1.65,2.49-13.24,7.91-25.47,13.13-37.75.72-1.69,2.38-3.28,4.01-4.22,1.98-1.15,4.37-1.37,4.08,2.21-.46,5.77,3.32,9.08,7.18,12.17,1.94,1.56,4.32,1.88,7.15,1.41,5.43-.9,10.58-2.78,15.96-3.75,6.33-1.15,8.52-5.9,9.62-11.47.31-1.56.75-2.95,1.73-4.24,3.42-4.49,7.98-4.58,11.33.25,5.77,8.3,11.36,16.67,17.95,24.41,5.52,6.48,12.33,11.12,19.2,15.71,8.71,5.82,17.84,11.02,26.74,16.56,6.57,4.1,7.2,10.71,1.93,16.91-6.4,7.54-14.99,8.21-23.87,7.78-14.23-.68-28.26-3-42.19-5.84-6.17-1.26-12.32-2.71-18.28-4.88-6.69-2.44-13.78-2.99-20.78-3.16-6.11-.15-11.93-2.31-18.04-1.96-3.84,3.37-4.73,3.26-7.26-1.09-.71-1.23-1.5-2.39-2.48-3.42-1.69-1.78-2.23-3.83-1.76-6.23.52-2.65.37-5.34.32-8.02-.01-.68.05-1.43-.84-2.16-1.38,3.09-1.29,6.38-2.01,9.48-.45,1.93-.67,4.19-3.25,4.28-2.32.08-2.98-1.93-3.36-3.73-1.01-4.8-4.57-7.69-7.95-10.62-2.62-2.26-4.44-4.7-4.19-8.29.09-1.32-.11-2.58-1.12-3.5-1.64-1.49-2.36-3.4-3.07-5.44-1.31-3.73-3.86-5.21-7.88-4.89-.84.07-1.68.21-2.51.36-3.75.67-8.7-1.47-10.49,3.99-1.25,3.8-4.08,7.09-3.26,11.61.58,3.23-1.38,5.45-4.45,6.27-5.46,1.45-10.88,2.9-15.7,6.01-1.02.66-2.14.78-3.12-.14-1.19-1.11-1.29-2.5-.67-3.88.67-1.51,1.84-2.57,3.6-2.47,2.05.11,4.12.86,6.11-.29Z"/>
  <path class="cls-43" d="M810,639.78c-1.45,1.75-3.43.81-5.16.93-2.27.16-3.81.98-4.08,3.39-.1.89.23,1.68,1.06,2.14.75.42,1.33-.03,1.89-.49,4.35-3.61,9.69-4.7,15-5.91,3.28-.75,5.5-2.39,4.31-6.24-.54-1.76-.1-3.34.52-4.93.2-.52.53-1.02.62-1.56,1.87-10.67,10.37-9.68,17.94-10.06,3.87-.2,7.07,2.55,7.67,6.51.28,1.85.77,3.12,2.45,4.06,1.63.91,2.29,2.42,1.61,4.34-1.07,3.06.65,5.22,2.69,6.94,4.29,3.62,8.87,6.93,9.52,13.16.13,1.25.8,2.23,2.18,2.06,1.35-.17,1.68-1.46,1.89-2.53.66-3.44,1.19-6.91,1.76-10.36.21-1.24.22-2.88,2-2.6,1.6.25,1.51,1.86,1.44,3.12-.21,3.5.61,7.06-.59,10.51-.52,1.5,0,2.71,1.08,3.83,1.07,1.1,2.58,2.21,2.9,3.55,1.09,4.52,3.49,4.24,6.64,2.31-1.25,3.43,1.87,4.23,3.55,5.9,3.83,2.84,7.97,5.21,11.72,8.22,5.92,4.76,8.34,10.81,7.71,18.16-.37,4.28-3.44,7.07-7.65,8.49-10.28,3.47-20.82,2.23-31.33,2.27-8.24.04-16.22-1.5-24.22-2.95-6.73-1.22-13.2-3.52-19.55-6.11-8.85-3.61-17.52-7.68-26.12-11.82-4.6-2.21-8.91-5.34-12.39-9.35-1.44-1.65-2.32-3.67-1.4-5.43,2.63-5.01,1.75-10.78,3.98-15.89,2.69-6.14,4.53-12.64,7.53-18.67.52-1.04.83-2.19,2.22-2.18,1.65.01,2.05,1.27,2.23,2.59.28,2.13,1.35,3.66,3.27,4.61,1.7,0,3.4,0,5.1,0Z"/>
  <path class="cls-9" d="M792.12,529.61c-2.05.41-1.57,2.04-1.6,3.37-.29,14.16-1.06,28.33-.62,42.47.24,7.81-.3,15.62.34,23.46.42,5.2-1.06,10.55.09,15.9.47,2.2.65,3.12,3.38,2.48,5.32-1.25,5.91-.56,7.15,4.76.6,2.59,1.54,5.1,2.33,7.65-.56-.29-1.12-.57-1.68-.86-2-.39-3.11.97-4.3,2.17-1.78,1.79-4.33,1.94-6.26,1.49-2.14-.49-1.18-3.13-1.27-4.86-1.62-31.27-.52-62.56-.82-93.84-.02-2.27.11-4.5.8-6.67,1.91-.27,2.68.6,2.47,2.46Z"/>
  <path class="cls-35" d="M821.03,625.57c-.65,3.06,1.61,6.64-1.67,9.22,1.38-2.93.11-6.33,1.67-9.22Z"/>
  <path class="cls-4" d="M1049.72,346.03c9.97-7.7,12.08-17.61,9.3-29.07-1.11-4.57-4.3-7.82-7.5-11-3.29-3.27-7.45-4.14-12.08-4.01,2.31-2.79,5.27-3.67,8.46-3.79,3.95-.14,7.9-.06,11.85-.06,7.46,0,12.4,4.05,15.63,10.26,6.39,12.3,1.22,26.3-9.64,32.86-4.8,2.9-10.29,4.35-16.01,4.81Z"/>
  <path class="cls-8" d="M445.11,411.82c9.96-7.32,13.45-17.04,9.99-27.79-2.93-9.1-8.66-16.91-20.59-15.79,13.36-6.99,23.15-4.67,32.92,3.48,4.59,3.83,7.49,19.81,5.03,24.29-5.75,10.47-17.94,17.76-27.34,15.8Z"/>
  <path class="cls-43" d="M201.82,297.92c-4.01-.45-5.57-3.27-3.79-7.12,2.59-5.62,3.41-11.69,4.99-17.58,2.7-10.04,2.45-20.11,2.08-30.19-.41-11.04-1.58-22.07-4.68-32.77-.86-2.96.21-5.48,1.5-7.99,1.07-3.43,2.55-6.69,3.92-10,1.6-3.85,3.03-8.06,3.28-11.99.53-8.47,1.46-17.05-1.24-25.52-3.31-10.4-7.38-20.3-14.8-28.5-3.12-3.45-6.99-6.03-10.66-8.83-6.33-3.89-12.74-7.32-20.48-7.83-7.28-.49-14.42-.57-21.58,1.51,2.83-3.52,6.8-5.04,10.64-6.77,7.35-3.86,15.44-4.72,23.47-5.5,4.72-.46,9.53-.08,14.29-.13,2.2-.02,3.82.62,4.53,2.93,2.98,9.75,6.71,19.24,10.73,28.6,4.81,11.19,9.3,22.52,14.91,33.37,4.53,8.76,9.27,17.35,15.23,25.23,2.51,3.31,5.78,5.7,9.24,7.91,3.02,1.94,5.53,1.28,7.94-1.12,5-4.97,5.5-11.66,6.37-17.95.93-6.81.83-13.78.94-20.68.05-3.19,1.26-4.77,4.48-4.73,1.27.02,2.54-.11,3.81-.07,6.42.2,9.25,2.81,9.43,9.3.2,7.37.75,14.7,3.46,21.58,2.2,5.58,3.19,11.64,6.62,16.73,1.67,2.48,1.57,5.16.13,7.59-3.86,6.54-7.45,13.36-12.64,18.91-4.87,5.2-10.49,9.71-16.6,13.49-4.04,2.5-8.14,4.91-12.22,7.36-4.08,4.45-8.96,8.01-13.23,12.28-8.42,8.43-15.27,18.02-22.05,27.72-2.56,3.66-4.85,7.54-8.01,10.75Z"/>
  <path class="cls-43" d="M149.37,311.29c-6.16,1.47-11.97-1.19-17.92-1.83-9.12-.97-18.22-1.69-27.37-2.11-10.56-.48-21.06-1.12-31.04-5.33-5.04-2.13-10-4.42-14.22-7.79-2.71-2.16-4.53-2.16-6.8.02,3.3-5.04,2.66-11.17,4.56-16.66,1.8-5.19,3-10.67,4.41-16.04,1.74-6.62,3.88-13.09,5.91-19.61,2.32-7.49,4.78-14.94,6.79-22.52,3.72-14,8.71-27.58,13.25-41.31,1.94-5.87,4.81-11.42,7.21-17.14,1.35-3.22,2.64-6.47,3.84-9.74.49-1.33.71-2.75,2.15-3.45,1.08.01,1.75-1.93,2.93-.83.76.71.26,1.84-.04,2.8-1.13,3.6-1.69,7.32-3.17,10.88-1.66,3.99-.65,8.33.49,12.43.84,3,1.61,5.98,1.39,9.12-.1,1.45.14,2.84.93,4.05,5.83,8.93,11.6,17.92,20.77,23.98,2.61,1.73,3.66,4.01,3.92,7.36,1.1,14.09,1.79,28.26,6.26,41.88,3.09,9.41,5.53,19.05,8.86,28.37,1.53,4.29,3.1,8.35,2.55,12.95-.19,1.55.57,2.71,1.69,3.68,2.08,1.81,2.76,4.17,2.64,6.83Z"/>
  <path class="cls-24" d="M186.65,437.15c4.45.56,8.92,1.02,13.35,1.73,2.95.47,2.07,2.75,1.32,4.28-1.18,2.41-2.3,4.71-2.52,7.47-.14,1.76-1.57,3.16-3.3,3.54-6.96,1.55-13.71,3.85-20.74,5.25-13.8,2.75-26.99-1.21-40.46-2.34-10.41-.88-20.66-2.71-31.02-3.87-15.1-1.69-30.11-4.27-45.17-6.35-15.34-2.12-30.7-4.1-46.05-6.17-1.39-.19-2.75-.63-4.14-.86q-6.38-1.08-6.37-7.71c.03-6.78.1-13.56.15-20.34,20.35-.85,40.62-3.36,61.04-2.86,1.2.03,2.76.47,3.31-1.07.48-1.34-1.03-1.81-1.7-2.64-.52-.64-1.01-1.31-1.51-1.96,2.45,1.13,4.95,2.2,5.83,5.12-.78,2.59-2.99,2.9-5.11,2.84-14.59-.47-29.04,1.26-43.54,2.45-4.31.36-8.74-.26-11.25-.21,10.29.05,22.27,1.43,34.3,3.33,14.62,2.3,29.19,4.98,43.9,6.84,14.65,1.85,29.34,4.23,43.55,8.42,8.08,2.38,15.59,6.46,22.9,10.71,4.14,2.4,8.99,3.32,12.8,6.34,8.9,2.89,17.72-.27,22.57-7.8,1.99-3.09-1.2-2.89-2.16-4.12Z"/>
  <path class="cls-43" d="M196.62,660.27c2.22-6.02,3.82-12.29,6.75-18.03.98-1.91,1.28-3.92,1.89-5.89,1.16-1.71,2.32-3.42,3.49-5.11.39-.56.81-1.22,1.63-1.06.9.18.73,1.03.89,1.68,2.23,8.96,4.4,9.95,13.13,6.02.62-.28,1.31-.41,1.97-.61,2.86-1.49,4.29-3.66,3.94-7.06-.42-4.11,2.34-7.26,3.67-10.85.83-.82,1.66-1.63,2.49-2.45,4.34-1.83,8.67-3.67,13.4-4.3,1.23-.16,2.44-.61,3.61.16.6.57,1.2,1.13,1.81,1.7,5.04,2.95,6.87,7.52,6.64,13.14-.7.7-1.62,1.17-2.19,1.99-1.98,2.88-4.08,3.27-6.45.46-.85-1-1.99-1.53-3.23-1.91-1.54-.48-3.1-1.16-2.66-3.17.37-1.71,1.89-2.37,3.46-2.73,1.31-.3,2.5.11,3.68.65.85.38,1.92,1.12,2.51-.24.44-1.03-.25-1.89-1.02-2.58-.43-.38-.93-.74-1.48-.79-5.06-.46-10.29-1.35-14.99,1.06-4.01,2.06-5.06,6.24-5.09,10.45-.03,5.47-2.5,9.07-7.89,10.21-2.86.61-4.84,1.94-6.3,4.45-2.01,3.47-3.52,3.48-6.49.52-1.19-1.18-1.93-3.9-4.02-2.78-1.64.87-.4,3.11-.12,4.72.29,1.7.32,3.37-.16,5.03-1.28,4.49-.85,8.94.24,13.39.24.96.57,1.9.54,2.9-.04,1.21-.37,2.31-1.76,2.51-1.38.2-2.1-.67-2.38-1.89-.59-2.61-1.14-5.23-2.97-7.37-3.97,4.98-3.92,7.79.4,11.84,3.11,2.91,6.38,5.58,10.99,5.72,1.66.05,2.75,1.34,3.82,2.47.87.92,1.59,2.26,2.82,2.5,6.82,1.29,12,6.02,18.23,8.53,2.46.99,4.86,1.41,7.43.89,2.88-.58,5.48-.88,7.33,2.36,1.03,1.8,2.38.41,3.44-.58,4.36-4.08,5.19-4.03,8.78.81,1.71,2.3,3.76,3.75,6.75,3.65,5.8-.2,11.56.28,17.33.81,6.25.57,12.41.24,17.7-3.85.33-.26.76-.37,1.16-.51,4.85-1.73,6.29-4.1,4.6-8.76-1.46-4.02-3.87-7.61-7.89-9.58-2.12-1.04-3.84-2.2-4.85-4.43-1.16-2.57-3.04-2.81-5.6-1.73-3.75,1.59-5.85.27-6.59-3.75-.15-.83-.36-1.7-.31-2.52.41-7.08-2.08-12.32-8.89-15.34-1.8-.8-3.04-2.03-4.68-.03-.64.78-1.55,1.43-2.59.89-1.02-.52-1.09-1.62-.93-2.62.8-4.99-2.39-7.98-5.68-10.62-4.97-3.98-5.1-3.82-2.45-9.83,1.42-.85,2.72-.33,2.96,1.04.78,4.57,4.17,7.41,6.71,10.81.58,1.11,1.16,2.23,1.75,3.34,2.52,1.46,4.11-.35,4.31-2.13,1.11-9.69,6.17-18.15,8.24-27.51.45-3.38,2.65-6.07,3.7-9.23.5-1.5,1.78-2.9,3.03-3.96,3.75-3.17,5.44-2.44,6.31,2.31,1.23,6.75,6.7,13.84,15.92,11.63,5.57-1.33,11-3.06,16.5-4.56,5.84-1.59,5.38-6.77,6.81-10.59,1.1-2.95,1.97-5.9,4.98-6.63,3.67-.9,6.95.58,8.97,4.08.92,3.53,1.92,6.88,5.24,9.2,2.18,1.52,2.32,4.61,4,6.8,7.8,10.14,17.55,18.18,27.91,25.31,6.64,4.56,13.89,8.39,21.09,12.15.89.46,1.69,1.02,2.49,1.6,10.58,7.71,9.11,12.95-1.07,21.41-4.19,3.49-9.75,3.77-14.9,3.6-12.36-.42-24.71-1.37-36.83-4.09-9-2.02-18.15-3.31-26.91-6.55-10.23-3.79-21.31-2.94-31.92-4.84-1.63-.29-3.33-.66-5.03-.49-1.32,0-2.5.61-2.92,1.73-.55,1.47,1.33,1.31,1.89,2.11,5.73,4.28,12.1,7.69,17,13.07,4.87,5.35,6.21,14.58,2.77,19.94-2.72,4.25-6.88,6.41-11.64,6.59-12.96.48-26.01,1.26-38.85-.74-8.57-1.33-17.15-2.79-25.47-6.07-8.94-3.52-17.62-7.62-26.49-11.27-5.81-2.39-10.93-6.47-16.36-9.79-.35-.53-.7-1.05-1.05-1.58-1.96-2.2-2.52-4.72-1.72-7.55,1.77-2.29,2.04-4.91,1.69-7.67Z"/>
  <path class="cls-43" d="M296.86,661.09c10.36-.89,20.31,2.82,30.64,2.71,2.62-.03,5.09,1.97,7.79,2.79,7.13,2.17,14.57,2.91,21.64,4.9,13.66,3.85,27.65,4.02,41.54,5.47,9.31.97,18.28-4.42,22.47-13.15.57-1.19.49-2.04-.19-3.11-4.05-6.41-9.61-11.12-16.9-12.99-3.98-1.02-5.72-4.62-9.47-5.96-6.21-2.21-11.32-6.53-15.54-11.72-.83-1.02-1.74-1.73-3.04-2.14-2.07-.65-3.84-1.67-4.47-4.07-.23-.87-.96-1.87-1.75-2.3-5.4-2.97-8.61-7.53-10.28-13.35-.18-.61-.79-1.42-1.34-1.56-5.31-1.31-4.28-5.47-4.28-9.19,5.48,8.33,11.02,16.66,17.74,24.03,8.72,9.57,19.88,15.98,30.78,22.67,5.58,3.42,11.12,6.91,16.67,10.37,6.39,4.91,3.91,9.63-.32,15.72-4.22,6.06-10.9,7.74-17.89,7.83-10,.12-19.93-.76-29.84-2.39-10.55-1.73-21.07-3.61-31.37-6.39-4.84-1.31-9.56-3.34-14.53-3.97-9.34-1.19-18.81-1.27-28.03-3.44-.24-.15-.33-.32-.27-.49.06-.18.13-.27.21-.27Z"/>
  <path class="cls-23" d="M296.86,661.09c0,.26.02.51.06.77-.97,1.12-.89,2.29-.16,3.49"/>
  <path class="cls-43" d="M262.06,627.18c-.51-.82-1.51-1.68-1.46-2.47.29-4.54-2.63-7.3-5.3-10.23,5.05,2.11,8.79,5.64,10.22,10.92,1.54,5.67,5.17,10.17,7.65,15.29-3.44-2.37-6.61-4.91-6.91-9.56-.1-1.47-1.05-2.18-2.49-2.26-.94-.19-1.51-.76-1.71-1.7Z"/>
  <path class="cls-43" d="M287.48,614.39c1.25,2.98-.43,5.79-1.32,8.2-2.34,6.29-5.4,12.21-5.68,19.2-.08,2.06-2.47,4.48-5.55,2.24,1.36.14,3.06-.07,3-1.54-.17-3.99,2.45-7.09,2.95-10.92.47-3.63,1.72-7.43,3.65-10.51,1.36-2.17.14-5.34,2.96-6.67Z"/>
  <path class="cls-43" d="M253.5,612.78c-4.49.61-9.12.71-12.96,3.67-1.2.93-2.68.5-4.05.46,5.08-3.8,10.7-5.39,17.01-4.14Z"/>
  <path class="cls-43" d="M234,619.37c-1.03,4.82-3.83,9.14-3.55,14.4.09,1.73-1.77,3.41-4.07,3.51,2.59-2.26,3.92-4.91,3.6-8.53-.33-3.7,1.9-6.58,4.02-9.38Z"/>
  <path class="cls-15" d="M347.76,69.25c-1.71-.12-3.13-.63-4.6-1.73-6.85-5.09-14.42-9.04-21.83-13.23-.69-.39-1.65-.57-2.44-.47-7.74,1-15.8,3.08-18.08,12.28-2.31,9.28-8.96,14.47-17.12,18.26-.78.36-1.52.93-2.26.09-.76-.86-.68-1.98-.12-2.77,2.63-3.66,1.7-7.84,2.04-11.87.4-4.74-2.07-7.24-5.9-9.19-3.98-2.03-7.31-.3-10.1,2.02-5.78,4.8-10.01,10.67-10.16,18.64-.02,1.19-.21,2.5-1.52,2.72-7.64,1.24-14.73,5.67-23.07,3.05-3.45-1.08-5.78-1.91-5.34-5.92,1.45-10.16,4.04-20,7.11-29.8,3.72-11.85,8.95-22.85,16.08-32.92,4.5-6.36,10.24-11.24,18.74-11.24,2.06,0,3.82-.72,5.43-2.03,4.53-3.71,9.88-5.23,15.41-3.74,4.4,1.19,8.88,2.25,13.19,4,5.11,2.08,10.4,3.73,15.37,6.2,13.58,6.75,25.61,15.29,32.31,29.47,2.02,4.28,3.27,9.02,4.24,13.68,1.37,6.57-2.45,10.91-7.35,14.51Z"/>
  <path class="cls-15" d="M635.45,314.28c3.34-2.22,3.56-6.33,4.57-9.46.99-3.06,3.63-5.62,3.2-9.31-.17-1.46,1.34-1.58,2.8-.69,11.87,7.22,24.36,12.21,38.58,12.77,13.44.54,26.85,1.97,40.24,3.35,4.69.48,9.25,2.05,14.05,2.13,1.79.03,1.72,1.94,2.38,3.1,1.73,3.04,1.13,7.46,5.35,9.02,5.23,5.85,10.57,11.56,17.05,16.13,7.15,5.04,14.82,8.98,22.95,12.13,1.04.41,2.14.77,3.06,1.38,1.61,1.08,2.01,2.2,0,3.48-7.52,4.81-13.74,11.07-19.45,17.86-3.45,6.16-5.91,12.69-7.54,19.57-.46,1.95-.71,3.87-.71,5.84,0,8.75-.01,17.51,0,26.26,0,6.12,1.71,7.88,8.03,8.15,2.95.12,5.79.13,8.6,1.54,2.6,1.3,2.66,2.81,1.13,4.62-4.76,5.66-9.91,10.68-18.34,8.65-8.81-2.93-17.12-7.03-25.26-11.39-7.37-3.94-14.92-7.11-23-9.3-11.91-3.23-23.69-6.86-35.12-11.66-6.89-2.89-14.03-5.06-19.6-10.36-.36-.21-.7-.44-1.04-.68-.5-.34-.93-.76-1.35-1.19-3.44-3.03-6.86-6.1-9.67-9.77-1.48-2.19-2.96-4.37-4.43-6.56-1.46-4.66-3.97-8.88-5.46-13.57-1.9-5.99-3.54-12.03-4.73-18.17-1.54-7.99-2.99-15.98-2.05-24.27.79-6.94,2.59-13.45,5.75-19.63Z"/>
  <path class="cls-24" d="M635.45,314.28c-.22,3.16-2.14,5.73-3.03,8.69-4.35,14.44-1.77,28.43,1.63,42.57,1.9,7.89,4.44,15.45,7.93,22.73.21.44-.02,1.1-.05,1.65-4.87-7.7-7.37-16.35-9.34-25.07-2.42-10.65-5.04-21.36-3.36-32.5,1.01-6.69,2.77-13.11,6-19.09.07.34.15.68.22,1.02Z"/>
  <path class="cls-42" d="M656.5,405.79c.31.28.62.56.92.83.73,3.53-1.89,3.59-4.07,3.68-5.34.22-10.7.05-16.04.09-1.82.02-3.66-.2-5.45.38-.5.16-1.02.26-1.54.32-10.94.4-21.82,2-32.79,1.83-1.8-.03-3.69.33-5.28-.95-.12-.12-.24-.25-.35-.38,4.89-1.6,10.02-.85,15.01-1.27,15.01-1.26,30.07-2.23,45.16-2.07,1.36.01,4.42,1.2,2.76-2.47.56-.45,1.11-.44,1.67.01Z"/>
  <path class="cls-24" d="M656.5,405.79c-.56,0-1.11,0-1.67-.01-3.15-2.8-6.83-5.12-8.47-9.3,3.38,3.1,6.76,6.21,10.14,9.31Z"/>
  <path class="cls-43" d="M733.27,311.05c-18.35-3.21-36.99-3.36-55.46-5.37-11.23-1.22-21.24-6.06-30.6-12.21-1.1-.72-2.24-1.08-3.38-1.57.85-5.25,1.85-10.46,3.31-15.58,1.41-4.96,2.91-9.91,3.92-14.95.93-4.61,2.75-8.95,4.09-13.4,1.21-4.04,1.93-8.3,3.8-12.21,1.6-3.35,2.61-7.04,3.43-10.69,2.35-10.4,6.04-20.38,9.13-30.55,1.91-6.3,4.82-12.26,6.41-18.68.23-.91.93-1.7,1.41-2.54,1.31-1.52,2.16-3.22,2.49-5.26.67-4.18,2.78-7.9,3.99-11.91.38-1.25,1.12-2.51,2.65-2.21,1.59.31,1.63,1.8,1.5,3.09-.38,3.52-.48,7.04-.39,10.57.26,10.37,2.74,20.1,9.62,28.09,4.65,5.39,9.07,11.15,15.68,14.53,2.64,1.36,3.55,3.94,3.51,6.78-.16,12.01,1.65,23.82,3.66,35.59.78,4.56,2.27,9,3.84,13.34,3.93,10.83,6.99,21.92,9.86,33.06.57,2.2,1.54,4.24,2.14,6.41,1.55,5.64,1.23,6.07-4.62,5.66Z"/>
  <path class="cls-43" d="M733.27,311.05c5.33-.46,5.26-.78,3.64-5.85-2.47-7.74-4.24-15.7-6.67-23.46-1.42-4.51-2.81-9.03-4.45-13.49-2.63-7.15-4.88-14.48-5.71-22.18-1.07-9.92-2.58-19.79-2.54-29.8,0-2.11-.89-3.98-2.69-5.02-8.29-4.78-14.62-11.77-19.64-19.56-3.99-6.19-6.04-13.61-6.41-21.16-.26-5.3-.05-10.62-.05-16.87-3.04,3.3-3.84,6.9-5.02,10.22-.65,1.81-.81,3.85-.88,5.8-.09,2.39-1.71,3.02-3.49,3.63,4.31-15.13,9.24-29.92,22.1-40.37,1.43-.11,1.66.33,1.1,1.71-1.37,3.36-4.47,5.43-6.02,8.82-1.44,3.15-2.32,6.43-3.67,9.57-5.07,14.1-2.89,27.66,5.17,39.64,4.25,6.31,9.39,12.72,16.79,16.29,3.53,1.71,4.36,4.86,4.39,8.47.12,15.85,2.26,31.4,6.98,46.55.12.39.43.72.64,1.07,4.55,15.51,9.1,31.02,13.65,46.52-2.42.07-4.88.6-7.21-.55Z"/>
  <path class="cls-43" d="M805.8,276.98c-4.15,6.16-8.25,12.36-12.51,18.45-.78,1.12-1.66,3.09-3.61,2.11-2.34-1.17-3.21-3.46-2.14-5.74,1.32-2.82,1.81-5.85,2.83-8.69,5.75-16.03,5.85-32.66,3.98-49.07-.9-7.91-.73-16.29-3.97-23.94-.86-2.04-.61-4.02.54-6.06,7.8-13.79,11.57-28.54,8.81-44.32-1.79-10.21-5.68-19.76-12.55-27.82-7.43-11.11-17.71-18.9-30.56-21.54-7.92-1.63-16.72-2.52-24.78,1.32-.87-.37-3.52.07-.68-1.84,4.89-3.28,10.02-5.82,15.64-7.8,8.39-2.96,17.03-3.48,25.67-3.89,10.16-.48,10.88.82,13.87,10.56,2.53,8.24,5.86,16.27,9.26,24.21.95,2.21.69,5.2,3.34,6.59.51,2.48.7,5.09,2.9,6.86,1.76,1.17,1.2,3.37,2.17,4.89.36,3.95,2.91,6.98,4.34,10.48,4.35,10.36,9.62,20.18,16.48,29.14,1.98,2.59,4.56,4.22,7.23,5.68,5.65,3.08,8.09,2.43,11.48-3.05,1.61-2.6,2.84-5.45,3.49-8.56,1.73-8.32,1.7-16.77,2.3-25.19.55-7.68,5.06-9.88,12.2-6.52.64.3,1.28.6,1.78,1.11.79,3.21,2.36,6.17,3.08,9.41.04,1.7,0,3.4.03,5.1.24,9.89,5.7,18.4,7.43,27.89.05.28.12.6.3.78,5.39,5.3,2.09,9.41-.9,14.65-3.19,5.59-7.51,10.1-11.34,15.03-3.16,4.06-7.74,6.91-11.92,9.98-6.98,5.13-14.78,8.99-22.04,13.7-3.32,2.15-5.9,4.95-8.14,8.39-2.32,3.56-5.93,6.22-8.48,9.78-1.88,2.62-3.94,5.11-5.55,7.92Z"/>
  <path class="cls-43" d="M182.41,117.44c7.49,3.34,12.68,9.35,16.87,15.95,4.97,7.84,9.15,16.31,10.33,25.68,1.16,9.19,1.64,18.35-1.32,27.56-1.75,5.43-3.45,10.75-6.39,15.64-.03-.88-.06-1.76-.1-2.64,6.26-12.44,8.17-25.71,6.59-39.36-.48-4.09-1.21-8.6-4.17-12.07-.93-1.09-.68-2.37-.68-3.62-1.54-4.37-3.57-8.45-6.68-11.94-2.76-5.32-7.42-8.86-11.9-12.56-.97-.8-2.09-1.39-2.56-2.65Z"/>
  <path class="cls-14" d="M166.23,449.07c-9.56-3.74-18.38-8.99-27.66-13.31-8.32-3.88-17.33-5.82-26.34-6.85-6.43-.74-12.69-2.21-19.09-3.03-14.58-1.87-29.09-4.27-43.61-6.54-7.48-1.17-14.81-3.44-22.4-3.7-7.62-.26-15.24-3.07-22.88-.23-.79.29-1.38.26-1.57-.67-.15-.72-.1-1.57.67-1.8.92-.27,1.94-.33,2.91-.3,19.47.57,38.72-3.83,58.22-2.57,1.75.11,2.89-.93,4.2-1.71,8.11,5.19,16.84,8.89,26.21,11.17,1.72.42,3.18,1.76,4.87,2.4,9.48,3.6,19.23,6.33,29.04,8.92,8.85,2.34,16.84,6.82,24.77,11.25,2.97,1.66,6.16,2.7,9.18,4.2,1.44.72,2.77,1.29,3.5,2.78Z"/>
  <path class="cls-11" d="M308.7,410.19c.01.52.03,1.03.04,1.55.48,3.55-1.03,6.92-.92,10.45.02.71-.23,1.44-1.04,1.65-.67.17-1.16-.34-1.2-.86-.34-4.59-.65-9.18-.82-13.77-.02-.49.88-1.02,1.35-1.52,1.71-.03,1.57,1.84,2.58,2.52Z"/>
  <path class="cls-11" d="M792.12,529.61c-.46-1.18-1.32-1.97-2.47-2.46.92-8.06-2.52-15.39-3.92-23.05-1.83-10-2.67-19.97-1.45-30.11.55-4.58.31-9.19,1.83-13.72.81-2.41,1.93-4.58,2.89-6.87,1.74-4.15,2.87-8.59,4.01-12.96.44-1.69-.49-2.98-2.45-3.2-4.18-.48-8.33-1.36-12.58-.81-.41.29-.85.34-1.31.16-4.7-.19-9.39-.42-13.78-2.38-2.23-2.97-1.34-6.5-1.53-9.74-.49-8.3-.35-16.67.49-24.92.69-6.79,2.45-13.54,5.97-19.59.51-.87.9-2.15,2.29-2.23,3.7-3.79,7.48-7.51,11.08-11.39,2.05-2.21,3.66-2.45,5.88-.1,2.95,3.12,7.41,3.16,11.16,4.53,7.67,2.79,15.54,5.02,22.84,8.76,1.16,2.51,3.9,1.95,5.85,2.81,8.36,3.66,14.15,9.46,16.91,18.24,1.89,6.01,5.61,11.01,9.5,15.82,3.84,4.75,4.51,10.15,1.45,15.61-1.8,3.22-.69,10.49,1.84,12.01-3.08,3.92-1.68,8.73-2.28,13.05-2.45,17.64-3.97,35.41-5.93,53.12-2.26,20.51-5.82,40.81-8.41,61.25-.98,7.77-.91,15.78.2,23.65.61,4.33-.59,5.7-4.94,6.77-9.36,2.3-18.99,1.77-28.43,3.18-5.54.83-6.47.07-7.21-5.43-1.32-9.73-1.9-19.57-3.42-29.26-1.46-9.3-1.89-18.7-3.22-28-.94-2.72.32-5.64-.73-8.36-.04-1.45-.08-2.9-.12-4.36Z"/>
  <path class="cls-24" d="M776.76,436.35c.41.03.81.05,1.22.08,3.6,1.21,7.21,2.33,11.05,2.38,2.73.04,3.48,1.44,2.64,3.89-1,2.88-2.89,5.36-3.25,8.58-.15,1.32-1.75,2.49-3.38,2.91-8.55,2.22-17.08,4.59-25.68,6.62-3.9.92-7.9.05-11.74-.84-2.66-.62-5.29-.75-7.97-.75-7.47-1.09-14.93-2.24-22.41-3.26-9.74-1.33-19.49-2.56-29.24-3.85-14.07-1.87-28.15-3.71-42.21-5.65-10.16-1.4-20.29-3-30.45-4.43-6.81-.95-13.65-1.61-20.4-3-1.68-.34-3.07-.39-3.04-2.54.12-8.17.22-16.35.32-24.52,12.93-.65,25.86-1.3,38.78-1.95-.4,2.42-2.44,1.87-3.95,2.06-8.56,1.1-17.16,1.36-25.78,1.36-1.5,0-3,0-4.5.14,11.21-1.1,22.27.42,33.18,2.56,8.06,1.58,16.28,1.95,24.28,3.73,14.34,3.19,29.01,4.28,43.45,6.84,7.37,1.31,14.69,2.65,21.85,4.84,5.27,1.61,10.32,3.79,15.06,6.5,5.27,3.01,10.7,5.59,16.31,7.81,3.32,1.31,5.96,4.28,9.9,4.04,8.03,1.6,13.24-2.83,18.07-8.28,1.87-2.11,1.31-3.03-1.13-3.78-2.63-.8-5.31-.52-7.97-.66-7.16-.38-8.95-2.15-8.97-9.11-.02-8.73-.22-17.47.09-26.19.32-8.79,2.89-17.01,7.74-24.43.35-.54,1.04-.86,1.56-1.29-.04.52-.08,1.04-.12,1.56-6.47,9.3-7.65,20.04-8.03,30.87-.27,7.57.13,15.17.22,22.75.01,1.03.21,1.95,1.13,2.58,4.24,1.96,8.85,1.84,13.34,2.42Z"/>
  <path class="cls-44" d="M919.39,336.27c3.25,4.1.73,9.3,2.58,13.66.22,3.48-.11,6.95.67,10.47.75,3.38-1.18,6.19-4.5,7.13-11.8,3.36-23.68,6.44-35.51,9.7-1.49.41-2.77,1-3.13-1.2.27-.28.54-.56.81-.84,3.91-4.14,5.91-8.98,5.67-14.74-.12-2.82-.05-5.65-.01-8.47.06-5.21-2.18-9.64-4.69-13.99-3.16-3.8-6.84-6.81-11.8-7.93,1.89-.9,3.49-1.75.38-3.3-14.6-7.31-19.72-21.25-23.98-35.44-1.27-4.22-2.71-8.49-3.96-12.72-2.3-7.83-3.37-15.81-4.89-23.74-.49-2.56-.09-4.6,1.01-6.72.29,0,.57,0,.86.01-.95,4.9-.53,9.7,1.24,14.36.84,2.2.04,4.53.6,6.7,1.34,5.23,2.95,10.37,5.14,15.34,1.11,2.52,1.38,5.37,2.18,8.05,3.7,12.3,8.6,23.74,19.66,31.41,3.77,2.62,8.13,4.32,11.51,7.55,1.02.97,2.13-.13,3.19-.3,3.29-.52,6.02.17,7.07,3.69,1.29,4.3,4.7,8.13,2.91,13.18-.41,1.15-.18,2.86,1.44,3.01,1.65.16,2.59-1.26,2.6-2.74.03-3.5.64-7.03-.61-10.49-.52-1.43-.74-2.99-.96-4.51-.2-1.37.37-2.58,1.59-3.21,1.2-.62,2.15.29,3,.99,3.04,2.53,5.35,5.38,4.76,9.76-.24,1.79-.31,3.7.75,5.35.57.88.66,2.55,2.1,2.23,1.55-.35,1.51-1.97,1.3-3.19-.51-2.92-.79-5.82-.87-8.79-.06-2.37.66-4.06,2.58-5.32,0,0,.1-.05.1-.05,3.85-1.09,4.27,1.57,4.43,4.22.23,3.64-.09,7.32,1.47,10.86.67-2.3.24-4.72.61-7.04.23-1.44-.12-3.74,2.7-2.95Z"/>
  <path class="cls-43" d="M863.45,154.78c-.76-.37-1.5-.79-2.28-1.1-2.59-1.02-5.31-.72-7.92-.34-3.81.55-2.45,3.98-2.72,6.17-.73,5.97-1.5,11.99-1.41,17.98.12,8.38-3.85,14.91-8.34,21.32-1.02,1.46-2.83,1.1-4.3.53-7.73-3.02-13.5-7.58-17.66-15.45-2.56-4.85-4.46-10.42-8.32-14.66-1.95-2.15-1.46-5-2.13-7.51,4.27,6.54,7.19,13.87,11.83,20.19,3.55,5.86,6.97,11.97,13.93,14.39,4.52,1.57,6.86-.02,9.17-4.11,2.71-4.81,2.68-10.21,4-15.3,1.68-6.47.85-13.17.86-19.77,0-2.68.55-4.62,3.17-5.63,1.89-.32,3.78-.65,5.68-.97,2.85.72,5.39,1.97,7.33,4.24-.28.35-.57.37-.87.02Z"/>
  <path class="cls-43" d="M805.8,276.98c.04-2.14,1.25-3.95,2.64-5.15,3.8-3.27,5.4-8.12,9.43-11.51,3.08-2.59,4.45-7.93,8.72-9.57,5.75-2.21,9.34-7.82,15.78-8.98,2.88-.52,4.95-3.65,7.17-5.65,4.51-4.06,10.77-6.33,13.41-12.38.06-.13.14-.27.25-.34,6.33-3.78,7.35-11.69,12.7-16.29,2.04-1.76,1.66-4.22-.41-5.88-2.19-1.75-3.34-4.16-3.27-6.57.12-4.35-2-7.81-3.54-11.5-1.87-4.49-2.64-9.14-2.65-13.96.29-.41.59-.42.91-.03,1.76,9.38,4.73,18.37,8.48,27.13.91,2.14,2.54,3.87,2.66,6.53.19,4.36-2.56,7.32-4.37,10.64-7.2,13.24-18.42,22.4-31.22,29.87-1.57.91-3.01,2.04-4.52,3.06-4.68.87-7.65,4.42-10.97,7.27-8.01,6.89-14.64,15.07-21.2,23.31Z"/>
  <path class="cls-43" d="M866.93,169.16c-.3.01-.6.02-.91.03-.02-1.97-.04-3.95-.05-5.92-.59-2.27-1.8-4.55.02-6.82,0,0,0-.36,0-.37,1.8,4.25.5,8.73.94,13.08Z"/>
  <path class="cls-43" d="M804.02,151.24c-1.67-1.21-1.8-3.1-2.17-4.89.73.28,1.46.55,2.18.83,0,1.35,0,2.71-.01,4.06Z"/>
  <path class="cls-43" d="M865.99,156.45c0,2.27-.01,4.55-.02,6.82-1.26-2.71-4.19-4.92-2.51-8.49.29,0,.58,0,.87-.02.56.56,1.11,1.12,1.67,1.69Z"/>
  <path class="cls-55" d="M881.27,337.99c3.54,3.14,4.43,7.58,4.96,11.82.59,4.69.38,9.53.07,14.27-.29,4.5-1.56,8.73-6.01,11.11,7.77-12.21,6.68-24.64.97-37.2Z"/>
  <path class="cls-33" d="M876.9,377.86c-3.84,2.34-7.9,3.87-12.5,3.32,4.2-.97,8.09-3.13,12.5-3.32Z"/>
  <path class="cls-3" d="M787.99,204.82c-1.12-3.2,3.37-4.51,2.56-7.61,2.51-.78,2-3.58,3.42-5.09-.29,5.03-2.98,8.94-5.98,12.7Z"/>
  <path class="cls-20" d="M796.46,186.11c-.18-3.35,1.87-6.12,2.44-9.28.53,3.45-.62,6.45-2.44,9.28Z"/>
  <path class="cls-39" d="M949.1,357.4c-6.57,6.14-14.3,8.2-23.09,6.88,4.77-2.28,8.16-5.76,10.14-10.41,5.09-11.91,1.64-25.62-10.55-32.06-1.21-.64-3.26-.76-3.13-2.34.14-1.72,2.32-1.33,3.52-1.55,11.69-2.12,20.77,2.55,28.29,11.17.99,1.14.27,2.87,1.64,3.76.66,5.35,1.28,10.53-.46,16.01-1.23,3.87-4.65,5.42-6.35,8.52Z"/>
  <path class="cls-46" d="M919.39,336.27c-2.89.9-1.36,3.28-1.58,5-.25,1.94-.04,3.93-.09,5.9-.03,1-.22,2.13-1.44,2.22-1.28.1-1.53-1.16-1.73-2.03-.96-4.11-1.29-8.3-1.03-12.51.15-2.39-.71-3.82-3.33-3.67,1.24-1.35,2.55-.97,3.71.03,1.89,1.63,3.68,3.37,5.51,5.07Z"/>
  <path class="cls-6" d="M925.42,343.9c-.37,1.55.7,4.29-1.28,4.34-2.56.06-2.22-2.75-2.11-4.65.09-1.63-.8-4.43,1.8-4.27,2.41.15,1.19,2.95,1.59,4.57Z"/>
  <path class="cls-54" d="M865.94,434.63c-1.73,1.6-3.45,3.22-5.19,4.81-.91.84-1.77,2.12-3.17,1.67-1.64-.53-.96-2.12-.98-3.28-.08-5.57,1.95-7.05,7.53-5.96,1.84.36,1.67,1.53,1.83,2.72,0,0-.03.04-.03.04Z"/>
  <path class="cls-43" d="M896.56,660.36c-1.65-.63-3.45-1.09-5.02-1.95-2.35-1.29-4.54-2.63-7.43-2.57-1.53.03-3.11-.87-2.69-2.97.41-2.06,2.09-2.09,3.66-1.85.94.15,2.01.5,2.68,1.12,2.7,2.53,5.91,3.55,9.5,4.07,1.3.19,3.84.18,3.64,1.98-.19,1.78-2.75,1.37-4.35,2.16Z"/>
  <path class="cls-9" d="M792.25,533.97c1.59,2.67.51,5.57.73,8.36-1.54-2.67-.44-5.58-.73-8.36Z"/>
  <path class="cls-43" d="M262.06,627.18c.82.32,1.39.88,1.71,1.7-1.37,4.27-.86,7.06,3.74,9.78,3.16,1.86,7.11,5.6,5.02,10.96-.24.63-.42,1.47.52,1.74.85.24,1.36-.45,1.55-1.1,1.24-4.38,3.44-2.14,5.17-.62,2.03,1.78,3.88,3.47,6.74,4.06,2.5.52,2.65,3.28,2.59,5.23-.1,3.43.81,6.69,1.01,10.06.21,3.46,2.32,4.35,5.34,2.45,3-1.89,5.25-1.31,6.7,2.15.88,2.08,1.84,3.21,4.22,3.98,5.36,1.74,10.03,10.94,9.15,16.63-.27,1.74-1.56,3.66-2.57,3.53-5.15-.69-7.82,4.58-13,4.66-4.1.06-8.41.64-12.44.06-4.67-.67-9.3-.79-13.9-.53-4.38.25-6.88-1.9-8.86-5.19-1.95-3.25-3.47-3.41-5.85-.4-.69.87-1.28,2.06-2.2,2.47-1.48.66-3.62,1.35-3.86-1.33-.26-2.92-2.28-2.86-3.91-2.28-6.67,2.35-12.34-.65-17.04-4.23-3.25-2.47-6.83-2.75-10.15-4.26-1.34-.61-2.35-1.12-3.26-2.31-1.47-1.92-2.72-4-6.11-3.18-2.5.61-13.74-8.24-13.57-10.59.27-3.82,1.85-7.44,3.89-11.32,1.98,3.23,3.95,5.9,4.26,9.39.09,1.04-.25,2.62,1.56,2.28,1.31-.25,1.08-1.59.76-2.46-2.12-5.74-2.2-11.47-.43-17.33.67-2.2-.92-4.35-1.02-6.58-.06-1.4-.22-2.96,1.49-3.59,1.5-.55,2.32.67,3.21,1.54.4.39.73.86,1.06,1.31,3.34,4.54,3.29,4.5,6.35-.1,1.17-1.76,2.59-3.45,5.02-3.4,3.53.07,5.6-2.25,7.71-4.53.67-.72,1.46-1.4,1.06-2.56-1.21-3.49.23-6.38,1.46-9.62,1.13-2.98,2.87-4.18,5.51-5.01,4.71-1.48,9.54-.77,14.29-.57,1.96.08,3.44,1.85,3.67,4.09.12,1.15.03,2.3-1.14,2.97-1.03.59-1.91.18-2.67-.55-.94-.88-1.89-1.87-3.3-1.54-1.46.35-3.39.6-3.47,2.49-.07,1.7,1.63,1.76,2.88,1.66,3.15-.27,3.03,4.51,5.87,3.97,2.13-.4,1.92-4.64,5.26-3.95Z"/>
  <path class="cls-36" d="M760.83,449.91c-6.55.2-11.4-4.15-16.94-6.55-7.67-3.31-14.85-7.81-22.62-10.81-7.71-2.97-16.08-3.69-24.3-4.67-9.18-1.09-18.26-2.8-27.47-3.8-7.66-.84-15.32-3.38-23.1-4.16-15.06-1.5-29.7-6.24-45.01-5.63-2.1.08-4.23-.22-6.19.92-.87.5-1.94.96-2.2-.66-.19-1.22.46-1.86,1.67-1.9.99-.04,1.98-.04,2.96-.02,10.57.26,21.05-1.08,31.57-1.79.63-.04,1.23-.54,1.84-.82,0,0,0,0,0,0,7.45-.84,14.93-.26,22.39-.33,2.4-.02,4.18-.42,4.75-3.02,7.94,7.54,18.57,9.52,28.14,13.73,11.31,4.98,23.51,7.03,35.11,10.97,4.91,1.67,9.71,3.78,14.18,6.5,4.45,2.71,9.1,5.08,14.02,6.71,3.99,1.32,7.01,4.53,11.2,5.32Z"/>
  <path class="cls-24" d="M658.17,406.68c.22,2.62-1.19,3.41-3.59,3.39-7.85-.06-15.7-.04-23.56-.05,7.3-1.43,14.68-.6,22.02-.8,2.01-.05,4.06.18,4.37-2.61.25.01.5.03.75.05Z"/>
  <path class="cls-25" d="M776.76,436.35c-4.63.2-9.27.45-13.34-2.42,4.45.81,8.9,1.62,13.34,2.42Z"/>
</svg>